<?xml version='1.0' encoding='utf-8'?>
<COLLADA xmlns="http://www.collada.org/2005/11/COLLADASchema" version="1.4.1">
  <asset>
    <created>2026-09-14T00:00:00Z</created>
    <modified>2026-09-14T00:00:00Z</modified>
    <unit name="metre" meter="1" />
    <up_axis>Z_UP</up_axis>
  </asset>
  <library_effects>
    <effect id="scout_1a1a1a_effect">
      <profile_COMMON>
        <technique sid="common">
          <lambert>
            <emission>
              <color>0 0 0 1</color>
            </emission>
            <ambient>
              <color>0.05 0.05 0.05 1</color>
            </ambient>
            <diffuse>
              <color>0.1 0.1 0.1 1</color>
            </diffuse>
          </lambert>
        </technique>
      </profile_COMMON>
    </effect>
  </library_effects>
  <library_materials>
    <material id="scout_1a1a1a" name="scout_1a1a1a">
      <instance_effect url="#scout_1a1a1a_effect" />
    </material>
  </library_materials>
  <library_geometries>
    <geometry id="geometry" name="L_hand_base_link">
      <mesh>
        <source id="positions">
          <float_array id="positions_array" count="369">-0.00314847007 -0.0719917789 0.0383548848 -0.00598430028 -0.124666318 0.0384958126 0.00601098314 -0.123993002 0.0386068523 0.00663550897 -0.106666215 0.0381531864 0.00861516036 -0.12864688 0.037395414 0.00963138416 -0.0937128812 0.0365709439 -0.0103944987 -0.109752961 0.037601348 -0.010407907 -0.119364664 0.0372084118 0.00377042778 -0.0771998912 0.0376490317 -5.0946579e-05 -0.0647478923 0.0375110954 -0.00323205092 -0.0649378151 0.0377478413 -0.00880498718 -0.0669446066 0.0370007977 0.0120891556 -0.094351016 0.0348240323 0.00781744532 -0.0796154961 0.0367075354 -0.010430702 -0.124206565 0.0365696214 0.00588942505 -0.0628915057 0.0360064954 -0.0102174729 -0.0733171031 0.0368134826 0.0125226723 -0.12532039 0.0340458862 -0.00740862358 -0.129238456 0.0369035862 0.00813076273 -2.77684791e-07 0.024869334 8.89309231e-05 2.67189737e-08 0.0260435771 0.00885427371 -0.063487336 0.0349373631 0.00969481375 -0.129982069 0.0362823829 0.0013228826 -0.141084 0.0304223895 0.0138270371 -0.100620523 0.0328070261 -0.00332261994 -0.140421137 0.03036003 -0.0202707611 -0.0532490574 0.0236063395 -0.020583475 -0.0684645325 0.0229860451 -0.0084750345 3.1645331e-07 0.0247382019 -0.0148570789 -0.0517763495 0.0301473066 0.0241067801 -4.32133662e-10 -0.00973977149 0.000100760699 9.5828554e-09 -0.0260420255 0.0137888445 -0.12811175 0.0316150747 0.00881597213 3.22330584e-09 -0.0246018507 0.0150812566 -3.75394447e-05 -0.0213847086 0.00536458148 -0.0593085587 -0.0374023132 0.0209107324 -0.00859250315 0.0180226788 0.0118620414 -0.0683470443 0.0332020335 -0.00670854701 -0.137424082 0.0302196275 0.00143483025 -0.139146477 -0.0358822569 -0.00200473913 -0.141301706 -0.00410065427 -0.00206993427 -0.138869539 -0.0358364061 -0.0207570717 -0.00757502718 0.0179393813 -0.0250311457 -0.00809999928 0.011144584 -0.0151109779 -1.11262625e-05 0.021303447 0.0149341896 -3.17784252e-05 0.0215498973 0.0117556714 -0.135681733 0.0275410321 0.0113942372 -0.133258566 0.0325785726 -0.00455913832 -0.137739003 -0.035689503 -0.00655103102 -0.138133928 -0.00355914282 -0.00678328099 -0.135405779 -0.0354540348 0.0256779436 -0.00916052982 0.0099575622 0.0206272639 7.34724836e-07 0.016014073 -0.00963427965 -0.0564567931 -0.0385872498 0.00398964155 -0.0746739507 -0.0395563841 -0.00995333865 -0.0710036531 -0.0404517651 0.00118271762 -0.141593337 0.00489912974 -0.0206273142 3.67172731e-07 0.016014114 -0.0241067801 -4.32133662e-10 0.00973977149 -0.0268401038 -0.00949249137 0.00621674722 -0.0237295814 -0.0608730726 0.0128000025 -0.0246876311 -0.0687104911 0.0053060283 -0.0115690846 -0.124296159 0.0324027799 0.0143639352 -0.132490903 0.00732600316 0.0144384699 -0.131354868 0.0258890875 0.01363678 -0.131763563 0.0293956716 0.0123366797 -0.13289611 -0.0313610211 0.0118821803 -0.135485172 -0.0097244205 0.027280895 -0.0156252664 0.00354781887 0.02669774 -0.00809999928 0.00616365904 0.0251243152 3.14654272e-07 0.00712089334 -0.0122671584 -0.124876522 0.0174705312 -0.0125661045 -0.124583162 -0.0108352071 -0.0259851478 6.09819892e-07 0.00238361349 -0.0274412073 -0.008065084 1.35400933e-05 0.00126519869 -0.141023979 -0.0135390721 0.0274317209 -0.00801045261 -3.54014816e-07 -0.027489813 -0.0160505194 -0.00111637346 -0.0226743724 -0.0713174045 -0.0259069763 0.0144326948 -0.132014886 -0.0117032724 0.0259850416 1.22000085e-06 -0.00238360115 -0.0251242742 5.50935681e-07 -0.00712088728 -0.0261190962 -0.00812562369 -0.00870452635 -0.0117637478 -0.122676209 -0.0323656686 0.0120761907 -0.131765008 -0.0352197774 0.0140472725 -0.129106119 -0.0341735072 0.0149593791 -0.127732262 -0.0320500135 0.0160405263 -0.127590805 -0.000667039596 0.0265452471 -0.0271484349 -0.0011137476 0.0270416327 -0.0153887719 -0.00475091999 0.00384837366 -0.104505777 -0.0419500321 -0.00953832828 -0.0801777169 -0.0412589908 -0.0223606545 -0.0699359402 -0.0287364442 -0.0216398034 -0.0631284863 -0.0308111198 0.0260903165 -0.00799449626 -0.00867891312 -0.0220961999 -1.38169353e-05 -0.0138484081 -0.0205534808 -0.0720773712 -0.0328530185 -0.0108697452 -0.122179955 -0.0373313949 -0.0200633407 -0.0577297769 -0.0328323692 -0.00941237155 -0.121972322 -0.0405977145 0.00962101668 -0.127284944 -0.0411746539 0.0110866148 -0.129353017 -0.0391578451 0.0133492416 -0.127119675 -0.0374740846 0.0206273068 4.4069202e-07 -0.0160141028 -0.00599081814 -0.126244336 -0.0416221991 -0.0045612026 -0.140237376 0.000104288622 -0.020130517 -0.0672543123 -0.0337173715 -0.0171663612 -2.52888327e-07 -0.0197030678 0.020681316 -0.00777432695 -0.0180853866 0.0141271455 -0.125895947 -0.0361249931 -0.0170727037 -0.0565864332 -0.0356245525 0.00782924797 -0.124919802 -0.042120561 0.0114120832 -0.125094786 -0.040062312 0.00747730862 -0.089293398 -0.0398406759 0.0107624745 -0.0849146023 -0.0369754061 -0.00844882149 -3.44340947e-07 -0.0246927533 -0.0175231658 -0.0707977936 -0.0366746709 -0.00445198035 -0.121379614 -0.0426531769 -0.00936540309 -0.114488743 -0.0413991362 0.0077567054 -0.0720101371 -0.0378892384 -0.013186858 -0.0563837215 -0.0375746414 -0.014626544 -0.0723057538 -0.038709335 0.00361297443 -0.120658197 -0.0427213199</float_array>
          <technique_common>
            <accessor source="#positions_array" count="123" stride="3">
              <param name="X" type="float" />
              <param name="Y" type="float" />
              <param name="Z" type="float" />
            </accessor>
          </technique_common>
        </source>
        <source id="normals">
          <float_array id="normals_array" count="453">-0.0377474688 0.0439140685 0.99832195 -0.175821871 -0.154180169 0.972273171 0.186466232 -0.0779906288 0.979360938 0.274994224 0.0167668574 0.961299658 0.341081947 -0.262752384 0.90256542 0.476497144 0.0343016051 0.878506601 -0.180738911 0.00718507124 0.983504891 -0.341838211 -0.0574490465 0.938001215 0.195631459 0.0499532297 0.97940439 0.13801533 0.119782358 0.983160198 -0.0592491738 0.135398909 0.989018023 -0.387722999 0.109609954 0.915235758 0.697241902 0.0279035252 0.71629262 0.390114248 0.0555689596 0.919088125 -0.405830294 -0.142908335 0.902706444 0.280080706 0.124470919 0.951872766 -0.535885155 0.0297801699 0.843765497 0.77653271 -0.0553898774 0.627637565 -0.429022491 -0.433565527 0.792439699 0.299578249 0.16009672 0.940543413 0.000371222501 0.179282069 0.983797669 0.484420061 0.10462229 0.868557036 0.515620053 -0.379199117 0.768338442 0.245016456 -0.760648191 0.601149976 0.842314482 -0.00825099926 0.538923204 -0.207433298 -0.549410284 0.809394658 -0.860574901 0.0260094348 0.508659363 -0.84052068 -0.0166160893 0.541524649 -0.917592943 -0.0512340777 0.394205838 -0.888853192 -0.050443776 0.455406904 -0.310881257 0.174520895 0.934288681 -0.686208665 0.0902569219 0.7217834 0.00109277689 0.999998868 0.00103749696 -7.29834937e-05 1 2.10873823e-05 -1.39954018e-05 1 -4.41095699e-06 0.904260814 -0.15250434 0.398816764 0.319999337 0.182047203 -0.929763019 0.570302725 0.158542842 -0.805989444 0.3253721 0.150370672 -0.933553219 0.761888325 0.101332836 0.639732599 0.671455324 0.059065666 0.738687396 -0.75886786 -0.581164956 0.29388231 -0.0846857205 -0.993463933 -0.0765356347 -0.244145691 -0.968892515 -0.0404989235 -0.25017947 -0.96540767 -0.07347323 -0.754811943 0.122194156 0.644459128 -0.904474735 0.0970673636 0.415335238 -0.916607916 -0.247647464 0.313848078 -0.569196165 0.162175715 0.80604887 0.560723603 0.148331285 0.814608455 0.674378335 -0.718012094 0.172257215 0.634421825 -0.543563545 0.549588621 -0.578895628 -0.813043237 -0.0619719736 -0.814767241 -0.57931298 -0.0234687906 -0.777858555 -0.509832799 -0.367432356 0.919875562 0.0661900416 0.386584878 0.793733537 0.178234681 0.581566334 -0.0861960426 0.176992923 -0.980430365 0.212698817 0.101164512 -0.971866727 -0.142208591 0.101208992 -0.984648883 -0.141903296 -0.989680111 0.0199181866 0.18261373 -0.983170569 0.00527910376 -0.782733023 0.177920669 0.596383512 -0.914013922 0.179640144 0.363741636 -0.973472178 0.059029527 0.221059814 -0.973120928 -0.0487034209 0.225085735 -0.990474045 -0.117568798 0.0716851056 -0.951509535 -0.250910789 0.177970231 0.878670394 -0.477392495 0.00588955125 0.947581947 -0.304561406 0.0965958312 0.892895818 -0.35487324 0.277131796 0.27573812 -0.697146118 -0.661782324 0.720849514 -0.678544283 -0.141257212 0.650401413 -0.758778274 -0.0351211242 0.991302311 -0.0369587578 0.126308262 0.974854767 0.0911777988 0.203334183 0.943463147 0.187657326 0.273243427 -0.953241765 -0.301037014 0.0265869703 -0.95116353 -0.307665467 -0.0250971131 -0.979241669 0.184237987 0.0845107585 -0.99571991 0.0911142379 -0.0154939219 0.174612641 -0.982254684 -0.0684555173 0.99569875 0.0922828615 -0.00824154727 -0.999435127 -0.0161391813 -0.0294775944 -0.985153079 -0.128996044 -0.113284931 0.891078591 -0.452375293 -0.03654458 0.979691207 0.183418959 -0.0810099095 -0.950617373 0.182746425 -0.250859141 -0.947401643 0.1042009 -0.302609116 -0.95654726 -0.263078004 -0.125726879 0.683169901 -0.622881591 -0.381178975 0.885782778 -0.381936699 -0.263653547 0.959482968 -0.24765259 -0.134389669 0.978291214 -0.207230896 0.00127886306 0.996233284 -0.0845151246 -0.0194010008 0.987177074 -0.0263446644 -0.157440156 0.161706835 0.0584323741 -0.985107362 -0.183717459 0.0467124619 -0.981868565 -0.963266551 -0.0712403059 -0.258925468 -0.918672562 0.0381047092 -0.393177837 0.939488649 0.0884311125 -0.330969751 0.908553183 0.175089836 -0.379308134 -0.834691167 0.168329373 -0.524362385 -0.869618654 -0.0850217417 -0.486348391 -0.919926226 -0.23792924 -0.311649501 -0.799962699 0.112497054 -0.589409947 -0.698239565 -0.194863439 -0.688832164 0.370935887 -0.287030488 -0.883187473 0.579624534 -0.468530774 -0.666719019 0.831086576 -0.201360807 -0.518409967 0.791453362 0.16616708 -0.588209212 -0.34318763 -0.324952036 -0.881265223 -0.344867259 -0.464067221 -0.815909386 -0.567629814 -0.8232795 -0.00269526383 -0.804803133 0.0246358458 -0.593030334 -0.640446901 0.209455431 -0.738888443 0.764202118 0.107129492 -0.636017561 0.923465669 -0.0699257627 -0.377255261 -0.117951296 -0.443741888 -0.888358355 -0.582152724 0.155954793 -0.797982693 0.232651114 -0.12876381 -0.963998616 0.675218642 -0.0218000021 -0.737295449 0.429719329 0.0765642151 -0.899710655 0.677955031 0.0728599876 -0.731483698 -0.322856784 0.241388887 -0.915147483 -0.669344068 0.00640454376 -0.742924929 -0.152617365 -0.0819034576 -0.984885633 -0.519621551 -0.0406361297 -0.853429615 0.506938517 0.102607131 -0.855853438 -0.362722158 0.176241368 -0.91508013 -0.479698688 0.0421773382 -0.876419008 0.0700223744 -0.0232226569 -0.997275054 0.0168309938 0.219621316 -0.975440025 -0.0002357208 0.999999821 0.000496102963 -0.00191608828 0.999991 0.00379134947 -3.90337118e-05 1 -5.85898852e-05 0.000767705729 0.999988139 -0.00481462013 0.00741009647 0.999944746 0.0074572782 -0.000215827167 0.99999994 0.000133069596 -0.0113250883 0.999919176 -0.00577403419 -0.000755036599 0.999999702 2.68785225e-05 0.000945366104 0.999998689 -0.00129875413 0.0204744507 0.999392271 -0.0282108579 0.00112747285 0.999998093 -0.00160163338 -6.11496216e-05 1 -0.000125163584 -0.000542872876 0.999999762 -0.000363709492 -0.0113592204 0.999909222 -0.00724830106 -0.000469061226 0.999999821 -0.000360555365 2.01455478e-05 1 -2.72160696e-06 -0.000473069405 0.999999881 0.000203754375 -0.415412992 -0.909371555 0.0218029059</float_array>
          <technique_common>
            <accessor source="#normals_array" count="151" stride="3">
              <param name="X" type="float" />
              <param name="Y" type="float" />
              <param name="Z" type="float" />
            </accessor>
          </technique_common>
        </source>
        <vertices id="vertices">
          <input semantic="POSITION" source="#positions" />
        </vertices>
        <triangles material="scout_1a1a1a" count="242">
          <input semantic="VERTEX" source="#vertices" offset="0" />
          <input semantic="NORMAL" source="#normals" offset="1" />
          <p>0 0 1 1 2 2 3 3 0 0 2 2 4 4 5 5 2 2 5 5 3 3 2 2 6 6 7 7 1 1 1 1 4 4 2 2 8 8 0 0 3 3 8 8 9 9 0 0 9 9 10 10 0 0 11 11 6 6 0 0 6 6 1 1 0 0 12 12 5 5 4 4 5 5 13 13 3 3 13 13 8 8 3 3 7 7 14 14 1 1 10 10 11 11 0 0 8 8 15 15 9 9 16 16 6 6 11 11 17 17 12 12 4 4 18 18 1 1 14 14 18 18 4 4 1 1 13 13 15 15 8 8 19 19 20 20 9 9 20 20 10 10 9 9 21 21 15 15 13 13 22 22 17 17 4 4 23 23 22 22 4 4 24 24 12 12 17 17 12 12 21 21 5 5 21 21 13 13 5 5 25 25 23 23 18 18 16 16 26 26 6 27 26 26 27 28 6 27 27 28 7 29 6 27 20 20 28 30 10 10 28 30 11 11 10 10 29 31 16 16 11 11 21 21 19 19 15 15 15 15 19 19 9 9 19 32 30 33 31 34 22 22 32 35 17 17 32 35 24 24 17 17 33 36 34 37 35 38 36 39 12 12 24 24 37 40 21 21 12 12 38 41 25 25 18 18 39 42 40 43 41 44 29 31 42 45 26 26 42 45 43 46 26 26 27 28 14 47 7 29 28 30 44 48 11 11 44 48 29 31 11 11 44 48 42 45 29 31 21 21 45 49 19 19 46 50 47 51 23 23 47 51 22 22 23 23 48 52 49 53 50 54 22 22 47 51 32 35 51 55 24 24 32 35 51 55 36 39 24 24 51 55 52 56 36 39 37 40 12 12 36 39 38 41 18 18 14 47 53 57 54 58 55 59 23 60 40 43 56 61 57 62 43 46 42 45 57 62 58 63 43 46 58 63 59 64 43 46 59 64 26 26 43 46 59 64 27 28 26 26 60 65 61 66 27 28 61 66 14 47 27 28 59 64 60 65 27 28 61 66 62 67 14 47 62 67 38 41 14 47 44 48 57 62 42 45 23 23 56 61 46 50 63 68 64 69 46 50 64 69 65 70 46 50 65 70 47 51 46 50 39 71 66 72 67 73 67 73 46 50 56 61 47 51 65 70 32 35 68 74 69 75 51 55 32 35 68 74 51 55 69 75 70 76 51 55 70 76 52 56 51 55 45 49 36 39 52 56 62 67 71 77 38 41 71 77 72 78 38 41 72 78 49 53 38 41 73 79 59 64 58 63 73 79 74 80 59 64 59 64 61 66 60 65 67 73 63 68 46 50 75 81 67 73 56 61 76 82 70 76 69 75 68 74 76 82 69 75 77 83 59 64 74 80 77 83 61 66 59 64 77 83 78 84 61 66 78 84 72 78 61 66 72 78 71 77 61 66 71 77 62 67 61 66 67 73 66 72 79 85 64 69 32 35 65 70 64 69 68 74 32 35 80 86 70 76 76 82 50 54 49 53 72 78 81 87 74 80 73 79 81 87 82 88 74 80 82 88 77 83 74 80 83 89 72 78 78 84 84 90 85 91 66 72 85 91 86 92 66 72 86 92 79 85 66 72 75 81 39 71 67 73 79 85 87 93 63 68 87 93 64 69 63 68 87 93 88 94 64 69 88 94 68 74 64 69 89 95 76 82 68 74 88 94 89 95 68 74 54 58 90 96 91 97 77 83 92 98 78 84 93 99 92 98 82 88 92 98 77 83 82 88 92 98 83 89 78 84 83 89 50 54 72 78 39 71 84 90 66 72 86 92 87 93 79 85 94 100 80 86 76 82 89 95 94 100 76 82 94 100 30 101 80 86 87 93 86 92 88 94 95 102 82 88 81 87 93 99 96 103 92 98 96 103 97 104 92 98 97 104 83 89 92 98 95 102 98 105 82 88 98 105 93 99 82 88 83 89 97 104 50 54 97 104 99 106 50 54 100 107 101 108 39 71 101 108 84 90 39 71 84 90 102 109 85 91 94 100 103 110 30 101 88 94 86 92 89 95 104 111 48 112 50 54 48 52 40 43 105 113 99 106 104 111 50 54 21 21 36 39 45 49 106 114 96 103 93 99 98 105 106 114 93 99 99 106 97 104 96 103 107 115 98 105 95 102 108 116 103 110 94 100 109 117 102 109 94 100 102 109 108 116 94 100 86 92 109 117 89 95 109 117 94 100 89 95 85 91 109 117 86 92 104 111 41 118 48 112 110 119 98 105 107 115 101 108 102 109 84 90 41 118 104 111 39 71 104 111 100 107 39 71 104 111 111 120 100 107 111 120 112 121 100 107 111 120 113 122 112 121 102 109 101 108 112 121 101 108 100 107 112 121 109 117 85 91 102 109 102 109 112 121 108 116 112 121 114 123 108 116 108 116 34 37 103 110 115 124 110 119 107 115 110 119 106 114 98 105 116 125 96 103 106 114 116 125 106 114 110 119 117 126 104 111 118 127 104 111 99 106 118 127 117 126 111 120 104 111 114 123 112 121 113 122 114 123 119 128 108 116 119 128 34 37 108 116 26 26 16 16 29 31 120 129 110 119 115 124 116 125 121 130 118 127 121 130 91 97 118 127 122 131 111 120 117 126 122 131 90 96 111 120 90 96 113 122 111 120 90 96 54 58 113 122 54 58 119 128 113 122 119 128 114 123 113 122 119 128 35 38 34 37 31 132 53 57 115 124 53 57 120 129 115 124 55 59 121 130 120 129 121 130 110 119 120 129 121 130 116 125 110 119 91 97 117 126 118 127 35 38 119 128 54 58 91 97 55 59 54 58 35 38 31 132 33 36 55 59 120 129 53 57 55 59 91 97 121 130 122 131 117 126 91 97 118 127 96 103 116 125 35 38 53 57 31 132 90 96 122 131 91 97 57 133 44 134 20 135 44 134 28 136 20 135 19 32 45 137 70 138 45 137 52 139 70 138 70 138 80 140 30 33 103 141 34 142 33 143 115 144 107 145 31 34 107 145 95 146 81 147 81 147 73 148 107 145 30 33 103 141 31 34 103 141 33 143 31 34 73 148 58 149 57 133 57 133 20 135 19 32 19 32 70 138 30 33 31 34 107 145 19 32 107 145 73 148 19 32 73 148 57 133 19 32 39 42 75 81 40 43 48 52 105 113 49 53 38 41 105 113 25 150 53 57 35 38 54 58 23 60 25 150 40 43 105 113 38 41 49 53 79 85 63 68 67 73 40 43 75 81 56 61 18 18 23 23 4 4 48 52 41 44 40 43 21 21 37 40 36 39 105 113 40 43 25 150 118 127 99 106 96 103</p>
        </triangles>
      </mesh>
    </geometry>
  </library_geometries>
  <library_visual_scenes>
    <visual_scene id="scene">
      <node id="L_hand_base_link">
        <instance_geometry url="#geometry">
          <bind_material>
            <technique_common>
              <instance_material symbol="scout_1a1a1a" target="#scout_1a1a1a" />
            </technique_common>
          </bind_material>
        </instance_geometry>
      </node>
    </visual_scene>
  </library_visual_scenes>
  <scene>
    <instance_visual_scene url="#scene" />
  </scene>
</COLLADA>