<?xml version='1.0' encoding='utf-8'?>
<COLLADA xmlns="http://www.collada.org/2005/11/COLLADASchema" version="1.4.1">
  <asset>
    <created>2026-09-14T00:00:00Z</created>
    <modified>2026-09-14T00:00:00Z</modified>
    <unit name="metre" meter="1" />
    <up_axis>Z_UP</up_axis>
  </asset>
  <library_effects>
    <effect id="scout_1a1a1a_effect">
      <profile_COMMON>
        <technique sid="common">
          <lambert>
            <emission>
              <color>0 0 0 1</color>
            </emission>
            <ambient>
              <color>0.05 0.05 0.05 1</color>
            </ambient>
            <diffuse>
              <color>0.1 0.1 0.1 1</color>
            </diffuse>
          </lambert>
        </technique>
      </profile_COMMON>
    </effect>
  </library_effects>
  <library_materials>
    <material id="scout_1a1a1a" name="scout_1a1a1a">
      <instance_effect url="#scout_1a1a1a_effect" />
    </material>
  </library_materials>
  <library_geometries>
    <geometry id="geometry" name="left_ankle_roll_link">
      <mesh>
        <source id="positions">
          <float_array id="positions_array" count="468">-0.0853011757 -0.035976395 -0.0425569788 -0.0796766803 -0.0394166261 -0.0446590483 -0.0797932371 -0.0423430651 -0.0413286351 -0.0679898858 -0.0321347602 -0.000360973034 -0.0856111944 -0.0363183543 -0.0277149994 -0.0811759979 -0.041289445 -0.0236645471 -0.0772608966 -0.0427583978 -0.0224327166 -0.0618124083 -0.0330939181 0.00398772769 0.160889074 0.0255208388 -0.0154180974 0.171888784 0.00796234142 -0.0188110471 0.173617736 0.0226119831 -0.0228904206 -0.0393823348 -0.0426822193 -0.0393056646 -0.0526942536 -0.0406283438 -0.0443305895 -0.0384282283 -0.0387291797 -0.0422608629 -0.0277895425 -0.0401005335 -0.0387353115 -0.0391221419 -0.0427249521 -0.0225737579 -0.0116054611 -0.0351995081 -0.0395145454 -0.0175147969 -0.0384310745 -0.0372219048 -0.0220395699 -0.0392255634 -0.0223976839 0.0655899942 0.0425814278 -0.0387611985 0.13428849 0.0422107428 -0.0425641462 0.0886375606 0.0409189537 -0.0439056829 0.0934001207 0.0149627877 0.00147393101 0.0866099969 0.0342033282 -0.000265986513 0.0664641708 0.0286314879 0.00835740659 0.0146093266 -0.035932932 -0.0355913155 0.000837246131 -0.0364443846 -0.022262156 -0.0803519785 0.0386363156 -0.0447618514 -0.00321915816 -0.0239397399 -0.00217060768 -0.0116213104 -0.0230733287 0.00124431483 -0.0122992424 -0.0296621639 -0.000631126575 -0.00199897634 -0.0297370069 -0.00374414655 -0.0129980119 -0.0213345923 -0.0136519922 0.0127628865 -0.0226767026 -0.00433847727 -0.04934166 -0.0219763778 0.0279697105 -0.043663837 -0.0255865753 0.0256101955 -0.041348204 -0.0217843894 0.0269452855 -0.0298134312 -0.0248641409 0.0165200755 -0.0461837277 0.0200695153 0.0287782699 -0.0509341955 -0.00350742787 0.0280448906 -0.0408866517 -0.00580567401 0.0281779449 -0.0194511712 -0.0280684456 0.00592454849 -0.0778511241 0.0379985459 -0.0166305825 -0.0851920247 0.0375082307 -0.0275704749 -0.0857511535 0.0125444988 -0.0220690276 -0.0702609196 0.0356117375 -0.00607814407 -0.0853692591 0.0367480516 -0.0417529754 -0.0792118907 0.0423940755 -0.0418166183 -0.0779382586 0.0427853242 -0.0227295663 -0.0612590499 0.0325891934 0.00536838034 -0.0521191284 0.0395205691 -0.0441333018 0.156967223 -0.031307932 -0.0427677482 0.170461088 -0.0225288179 -0.0446553007 0.172910497 -0.0244515985 -0.0412525348 -0.0402029045 0.0425674431 -0.040061675 -0.00496653421 0.0330673233 -0.0391952172 -0.0195976105 0.0387502909 -0.0366598181 0.172886997 0.0240473673 -0.0425634794 0.166758969 0.0239070542 -0.0447811931 0.157829806 0.0315466076 -0.0414335467 -0.00793793891 0.0300986767 -0.00305104256 -0.0106604472 0.0231255814 0.000206754106 -0.0032868227 0.0231743399 -0.00204146607 0.0100518176 0.0360665992 -0.0356033817 -0.0124946199 0.0376285017 -0.0224206466 0.0665543824 -0.0426782742 -0.0385173 0.0452661626 -0.0386480577 -0.0220069177 0.0474523567 -0.0389181748 -0.0370315015 -0.0655383319 0.0291458163 0.00414439151 -0.0559730455 0.0283854809 0.0159607902 -0.0520389341 0.0224829558 0.0247473493 -0.0474774539 0.0254746117 0.0254244115 -0.0407559425 0.0255190786 0.0243269522 -0.0415000916 0.0175871812 0.0277111605 -0.0275204126 0.0270339176 0.0128384465 -0.0187118556 0.0256187096 0.00711439224 -0.0144367116 0.0188088156 0.00479580043 0.00994222518 -0.0330347791 -0.0388709903 0.0510907508 0.0395457447 -0.0372745804 0.0450524949 0.0343472473 -0.0395192951 0.0372399427 0.0375249609 -0.0361366682 0.127864644 0.0221234988 -0.00716064917 0.142490178 0.0341782458 -0.0125787584 0.0319498889 -0.0323604643 -0.00967806857 0.0280887112 -0.0294573065 -0.00670907274 0.0128212068 -0.021466583 -0.0136860041 -0.0129555529 0.021318268 -0.0137142269 0.0243218541 -0.0365151279 -0.0223753396 0.0149911987 -0.0177615415 -0.00294739404 0.0296184085 -0.0179396234 -0.00385466544 0.0356346928 -0.0288817007 -0.00430491148 0.0385494456 -0.0345875211 -0.0391598605 -0.0857448578 -0.0182792861 -0.023102928 0.0432291664 -0.0284830891 0.00340900663 0.0397982523 -0.0177237373 0.00217276253 0.0651723146 -0.0392923802 -0.0411592312 0.0913706273 -0.0395360328 -0.044596523 0.0995033085 -0.0351561271 -0.00436522719 0.0799231827 -0.0303949062 0.00329856621 0.0818425491 -0.0344315954 0.000175610898 0.116402946 -0.037471693 -0.00883197971 0.134450674 -0.0420501083 -0.0429799519 0.1132413 -0.0187995452 -0.00389273278 0.144172311 -0.0378464125 -0.0415751152 0.147149161 -0.0330143049 -0.044779487 0.167880356 -0.0267931279 -0.0219651554 0.133456141 -0.0393934622 -0.0134640252 0.133962825 -0.0427357592 -0.0230504163 0.149004325 -0.0310287606 -0.012845966 0.146732226 0.00669588521 -0.00840785261 0.102084503 -0.00285063055 -9.80969708e-05 0.0655318126 -0.0427486487 -0.0227996502 0.065040268 -0.0323077925 0.00547933718 0.158514038 -0.025718946 -0.0145486966 0.145686656 -0.0153102251 -0.00909353886 0.173297107 -0.0219194125 -0.021480538 0.023687331 -0.00272096251 0.0254768021 0.0170381777 -0.0165031496 0.0206177365 0.0279563013 -0.016742887 0.025248047 0.0331668891 0.000746458012 0.0251348969 0.0423550941 -0.0181146841 0.015537099 0.0448216163 -0.0162590276 0.0192599762 0.0471257269 -0.0247852858 0.0154360728 0.0630387366 -0.0285130348 0.00950752012 0.00869552698 0.0302189384 -0.00602592016 0.0123799108 0.0232543349 -0.00354539743 0.0183497984 0.0363251343 -0.0223665461 0.0299372729 0.0311238579 -0.00739725586 0.0303217582 0.017715903 -0.00360978511 0.0146574192 0.0201856848 -0.00342391548 0.0147913983 0.017185742 -0.000882055843 0.0382451452 0.0303416904 -0.00318604941 0.0394368693 0.0177185033 0.00177360012 0.0436936319 0.0384849794 -0.0223375261 0.0732691288 0.0394320078 -0.042086374 0.0125659285 0.0213601254 -0.0138309775 0.109545223 0.0357648246 -0.00681270473 0.132769555 0.0389656797 -0.012703402 0.144204438 0.0346991122 -0.0447628982 0.152484432 0.0308859143 -0.0149889681 0.166319594 0.027523635 -0.0219146647 0.160115719 -3.43727493e-07 -0.0121351834 0.0214663539 0.016745327 0.0233365521 0.0145779485 0.0165450089 0.0156448111 0.0296846312 0.0160062145 0.0251539983 0.0442627929 0.0274027381 0.0063672252 0.0431559719 0.0187865384 0.0163267292 0.0478492305 0.0239399876 0.0165645033 0.0408571512 0.0165907554 0.0208510123 0.0669324845 0.0327089541 0.00513231428 -0.0393865556 0.0427120589 -0.0223573688 -0.014399277 -0.015415011 0.00529011199 0.0658134297 0.0427005067 -0.0222942978 0.0628011376 0.000369396876 0.0130218258 0.0140360398 -0.0158643126 0.011768437 0.133974075 0.0426454917 -0.0223897174</float_array>
          <technique_common>
            <accessor source="#positions_array" count="156" stride="3">
              <param name="X" type="float" />
              <param name="Y" type="float" />
              <param name="Z" type="float" />
            </accessor>
          </technique_common>
        </source>
        <source id="normals">
          <float_array id="normals_array" count="783">-0.726256251 -0.663197577 -0.18088901 -0.322208315 -0.705514669 -0.631213844 -0.368879586 -0.875225961 -0.312901497 -0.691007376 -0.42178905 0.587028742 -0.811133623 -0.193106413 0.552061737 -0.660048604 -0.680963397 0.317213982 -0.241853312 -0.933212876 0.26574564 -0.295276642 -0.821171045 0.488354176 0.421681434 0.390484869 0.818355858 0.71180892 0.0426399931 0.70107764 0.862483919 0.170125723 0.476632744 0.147359923 -0.907147169 -0.394168764 0.0311773419 -0.884146988 -0.46616742 0.181309476 -0.620359838 -0.763073087 0.195419788 -0.887360752 -0.417614728 0.101497784 -0.980904758 0.165903777 0.108539768 -0.692547917 -0.713159561 0.168856859 -0.935297728 -0.310975105 0.162057757 -0.97303164 0.164154604 -0.0892229006 0.995503128 -0.031823542 0.210500553 0.977188289 -0.028152097 -0.0154360831 0.929138124 -0.369410455 0.280099541 0.121299252 0.952276587 0.174183294 0.655242026 0.735063255 0.273997664 0.37724942 0.884651423 -0.0175015423 -0.749746263 -0.661493957 -0.0115401857 -0.999929667 -0.0027354483 0.0565610118 -0.982121885 0.179547861 -0.358742088 -0.00378770661 -0.933429062 -0.221410379 0.00466283644 -0.975169599 -0.132579684 -0.00245253742 -0.991169333 0.237786651 -0.229890555 0.943720222 0.533262134 -0.258386314 0.805523396 0.459307343 -0.267761171 0.84695971 0.214682937 -0.213502184 0.953062475 0.00900356378 0.992950857 0.118184075 0.0101729119 0.993313193 0.115002029 0.00681453571 0.99224174 0.124136433 -0.3107934 -0.790333807 0.527996182 0.109498538 -0.737377107 0.66654712 0.39965874 -0.269612879 0.876117468 0.0926194638 -0.152269334 0.983989656 0.566375732 -0.390021831 0.726017535 -0.0884765536 0.256670803 0.96244067 -0.516309679 -0.0131742349 0.856300652 0.367519438 -0.0267351121 0.929631472 0.437126517 -0.674510062 0.594942451 -0.71408546 0.414189607 0.564383626 -0.88102448 0.42432946 0.209142119 -0.950029433 0.0373612866 0.309916526 -0.639596283 0.51787895 0.56808269 -0.664690971 0.72275722 -0.189229861 -0.645199656 0.736710072 -0.202424616 -0.563848436 0.608620107 -0.55826205 -0.382025331 0.886959672 0.259536505 -0.307773024 0.815827727 0.489592552 0.000727885636 0.631792367 -0.775137365 0.057584554 0.408865631 -0.910776019 -0.00181467773 0.617215693 -0.786791921 0.267001987 -0.585577965 -0.765381217 0.344893068 -0.671192944 -0.656162202 0.354051143 -0.681822121 -0.640129924 0.130645633 0.874652207 -0.466813922 0.0716080442 0.312611371 -0.947178125 0.195122987 0.94193542 -0.273285031 0.253955811 0.621557653 -0.741061747 0.263699204 0.628763795 -0.731518209 0.312191486 0.659565806 -0.683746576 0.220566466 0.284195542 0.933050573 0.274698049 0.316876799 0.907816112 0.190363616 0.295572847 0.936161518 -0.0144680869 0.788410783 -0.614978969 0.115339801 0.976547062 0.181803733 0.0197124444 0.999726772 -0.0125625366 -0.120436043 -0.907410085 -0.402619123 -0.144800186 -0.972334862 0.183297142 -0.14902094 -0.988826334 -0.00390620739 -0.746599078 0.32185927 0.582233965 -0.663725257 0.458076239 0.591299355 -0.630504608 0.303251684 0.714494526 -0.230751455 0.541185975 0.808623254 0.470250785 0.35131529 0.809593558 0.457541317 0.141582161 0.877844214 0.55538255 0.359708399 0.749773324 0.659091711 0.166360721 0.733431816 0.59833467 0.262290746 0.757099152 0.654029012 0.0906650051 0.751016557 0.775955141 -0.00827953126 0.630733788 0.0573535599 -0.706211269 -0.70567435 -0.190318361 0.567092657 -0.801364362 -0.0987199321 0.286585063 -0.952955067 -0.0684849247 0.643322706 -0.762525916 0.190145686 0.179376796 0.965229809 0.195943147 0.216954425 0.956314325 -0.0707071796 -0.888550878 0.453296602 0.0673162267 -0.895289004 0.44037047 0.139891922 -0.821592987 0.552643836 0.148625582 -0.22978434 0.961826205 -0.026299933 -0.507417738 0.86129874 0.00244015362 0.0021298097 0.999994755 0.0034488372 0.0027374893 0.999990284 0.0013246513 0.00145777641 0.999998033 -0.0546022691 -0.983645618 0.171638861 0.0555694178 -0.295145631 0.953834951 -0.119002216 0.327710271 0.937253654 -0.131191224 -0.788709402 0.600604951 -0.164758056 -0.682169378 -0.712390125 -0.0975718647 -0.608954668 -0.78718102 -0.822170019 -0.084900707 0.562875092 -0.173957363 -0.919838369 0.351619393 -0.229404539 -0.267539144 0.935839951 -0.57401371 -0.273297101 0.771891773 -0.788346887 -0.267720848 0.553926647 -0.821670234 -0.282623708 0.494956404 -0.663372159 -0.332639873 0.670289576 -0.152815834 -0.649488568 -0.744857013 0.0176459327 -0.989603043 0.142739221 0.0202104002 -0.988823652 0.147713795 0.043617323 -0.99162668 0.121548347 -0.0327976979 -0.826949298 -0.561319172 0.256498307 -0.176622331 0.950270057 0.275751263 -0.334941268 0.900985897 0.102911033 -0.787872195 0.607179344 0.195006445 -0.235503703 0.952108443 0.198818296 -0.978755295 -0.0500935838 0.210885882 -0.147465929 0.966323435 0.734535754 -0.677761734 -0.0331088528 0.352856666 -0.65831387 -0.66491729 0.379708499 -0.662265062 -0.645930707 0.282557487 -0.637320876 -0.716926336 0.522406757 -0.783380449 0.336758465 0.200589329 -0.767920375 0.608327389 0.207846344 -0.965918779 0.154275298 0.329978436 -0.515975595 0.790495634 -0.74260056 -0.669401586 -0.021116294 0.229217783 0.0681548789 0.970986187 0.248313338 -0.0227462854 0.968412697 -0.096297659 -0.981696844 0.164310783 -0.00798523705 -0.8469733 0.531575501 0.41195187 -0.352886289 0.840099335 0.219890371 -0.115062594 0.968715012 0.815108478 -0.158599883 0.557175219 -0.306260198 -0.00500264764 0.951934695 -0.746284306 -0.0528435111 0.663526416 -0.0177894104 -0.099111326 0.994917333 0.228324205 -0.00120712968 0.973584414 -0.753859162 -0.451593816 0.477241427 -0.621587574 -0.454208076 0.638219357 -0.716846466 -0.51970768 0.464795768 0.351891041 -0.122595742 0.92797792 0.0988323763 -0.626433074 0.77318418 0.212468922 -0.504194736 0.837045193 0.0849095136 0.3481251 0.933594823 0.091722697 0.29391101 0.951421738 -0.0235421192 0.983515561 0.179284409 0.0942619368 0.93518889 0.341374278 0.025912419 0.934214652 0.355768889 -0.167275444 0.267048776 0.949054182 -0.216507599 0.308244884 0.92634201 0.118190557 0.372719228 0.920386553 0.110720426 0.645352066 0.755818546 -0.587917805 0.221735179 0.777937114 -0.758783281 0.319056898 0.567847371 -0.101452969 0.99478358 -0.0106265079 -0.14311789 0.974293649 0.17398043 -0.187556982 0.981980979 -0.0231457371 -0.0692401156 0.928593814 0.364581019 -0.150069997 0.919719636 0.362760007 -0.167469233 0.504169106 -0.847211659 -0.135312214 0.276526183 -0.951432526 -0.0677392036 0.0487802215 -0.99650985 -0.992152512 0.0926760733 0.0839315057 -0.980385482 -0.00597223686 0.196999118 -0.980757356 0.113017164 0.159192115 0.256600171 -0.0855419338 0.962724745 0.276719272 -0.398684859 0.874343634 0.160131529 0.266183197 0.950528502 0.155401632 0.343380034 -0.926250756 0.384777576 0.722746134 0.574094296 0.0539992712 0.345514089 -0.936858654 0.39012897 0.83949393 0.378218681 0.50097239 0.807400167 0.311659425 0.385990709 -0.00803942885 0.922467649 0.453407973 -0.00863654166 -0.89126128 0.805793703 0.0135011952 -0.592042387 0.959680021 -0.0104933428 -0.280898929 -0.518271089 0.0617617257 0.852983356 -0.942177355 0.02053684 0.334484726 0.073739931 0.0718888864 0.994683087 -0.988309383 -0.00678042229 0.152310714 -0.561598957 0.701167285 0.439284712 -0.717846692 0.685788155 0.11996121 -0.522280991 0.768653154 0.369316876 0.0370155461 0.972893357 0.228272647 0.0182598159 0.996589243 0.0804768056 -0.0134980306 0.998376012 0.0553461872 0.0210640971 0.82145679 0.569881618 0.344926745 0.225365236 0.911172926 -0.663044572 0.748121619 0.0261902492 -0.516771019 0.00898058526 -0.856076539 -0.999899507 0.0140076373 -0.00217498955 -0.999769986 -0.00100568973 -0.0214248337 -0.999738932 5.33914681e-05 -0.0228494219 -0.999778807 -0.00205714256 -0.0209307261 0.0768529996 0.000460350508 -0.997042358 0.0710305572 -0.00224185991 -0.997471631 0.00716890953 -0.00328794168 -0.999968886 -0.814480841 -0.0784701332 0.5748595 0.0946997181 0.980958164 0.169567287 -0.0269496907 0.940102637 0.339824587 0.0106553985 0.940030575 0.340923697 0.127953023 -0.923073947 0.362715483 0.12258514 -0.00212778896 -0.992455721 0.931491196 0.361100495 -0.0439388901 0.994508743 0.095010899 0.0438782386 0.993064046 0.110496402 0.0401787013 0.00523887528 0.991706371 0.128417343 0.178535089 0.921814144 0.34406969 0.0971861035 0.933015525 0.346463352 -0.0897987783 0.980899036 0.172549173 -0.0442821309 -0.00427762931 -0.999009907 0.647013605 -0.0896052793 0.757195055 0.472039342 -0.881577492 -6.2220548e-05 -0.0623357184 -0.00783344265 -0.998024523 0.000846925192 -0.0328842774 -0.99945879 0.145096675 0.0102969576 -0.989363909 -0.00353198382 0.999788523 -0.0202579927 0.358404845 0.00521854218 0.933551669 -0.99382621 0.00335342949 0.110897392 0.37541014 0.0900456458 0.922474384 -0.914659381 0.4015674 0.0462795906 0.00456894515 0.00341229513 0.999983728 0.0233094394 -0.226674527 -0.973691583 0.436952353 -0.899478197 0.00341132586 -0.026288677 -0.998072505 0.0562149622 -0.0713763982 -0.996431589 0.0450495109 -0.040370632 -0.998732507 0.0300604627 -0.0526334867 -0.996967554 0.0573186353 -0.00899722148 -0.998659968 0.0509641245 0.0103665469 -0.987872541 0.154920578 0.153380021 -0.921210468 0.357555419 0.410659492 -0.910493374 -0.0485854484 -0.443846613 -0.891948581 0.086185351 0.214758798 0.96020633 0.17855671 0.429358304 0.903120518 -0.00497532682 0.476862162 0.878970325 0.00369076827 0.66250366 -0.744513273 0.0823950991 -0.801204681 -0.59090811 0.094332844 0.189380661 0.909639955 0.369716197 -0.000456124399 -0.938986421 0.343953937 0.0141227702 -0.985238731 0.170602307 0.0224395152 -0.98314178 0.181462556 0.996947408 0.00120562152 0.0780666247 0.996786952 0.00224669976 0.0800667554 -0.102661505 -0.00115610391 -0.994715691 0.561522603 0.826520622 0.0394472629 -0.99976629 -0.00692607649 0.0204777364 -0.0346460119 0.999129176 0.023248693 -0.0131802084 0.999039531 0.0417889133 -0.0252534449 0.99887675 0.0400938056 -0.0273594037 0.99888891 0.0383723788</float_array>
          <technique_common>
            <accessor source="#normals_array" count="261" stride="3">
              <param name="X" type="float" />
              <param name="Y" type="float" />
              <param name="Z" type="float" />
            </accessor>
          </technique_common>
        </source>
        <vertices id="vertices">
          <input semantic="POSITION" source="#positions" />
        </vertices>
        <triangles material="scout_1a1a1a" count="308">
          <input semantic="VERTEX" source="#vertices" offset="0" />
          <input semantic="NORMAL" source="#normals" offset="1" />
          <p>0 0 1 1 2 2 3 3 4 4 5 5 5 5 2 2 6 6 3 3 5 5 6 6 7 7 3 3 6 6 8 8 9 9 10 10 11 11 12 12 13 13 14 14 15 15 11 11 13 13 16 16 14 14 17 17 14 14 16 16 17 17 18 18 14 14 19 19 20 20 21 21 22 22 23 23 24 24 25 25 17 17 16 16 25 26 26 27 17 17 0 28 27 29 1 30 28 31 29 32 30 33 28 31 30 33 31 34 32 35 29 36 33 37 34 38 3 3 7 7 34 38 7 7 35 39 36 40 34 41 35 39 36 40 35 39 37 42 38 43 39 44 34 41 40 45 34 41 36 40 29 32 37 42 41 46 37 42 40 45 36 40 29 32 41 46 30 33 42 47 43 48 44 49 44 49 45 50 42 47 46 51 47 52 27 53 43 48 48 54 47 52 48 54 43 48 42 47 45 50 48 54 42 47 45 50 49 55 48 54 47 56 50 57 27 58 51 59 52 60 53 61 54 62 55 63 50 57 56 64 55 63 54 62 57 65 58 66 59 67 60 68 61 69 62 70 56 64 63 71 55 63 56 64 64 72 63 73 65 74 66 75 67 76 49 55 45 50 68 77 49 55 68 77 69 78 70 79 71 80 69 78 38 43 70 79 39 44 71 80 70 79 38 43 72 81 71 80 38 43 72 81 38 43 73 82 74 83 72 81 73 82 60 84 75 85 76 86 75 85 74 83 73 82 74 83 75 85 60 84 61 87 60 84 76 86 25 25 16 16 77 88 78 89 79 90 80 91 81 92 8 8 82 93 83 94 31 95 26 27 28 96 33 96 29 96 33 97 28 31 31 34 84 98 31 95 83 94 85 99 86 100 32 101 66 75 87 102 25 26 88 103 33 103 89 103 89 104 33 104 31 104 84 98 83 94 90 105 67 106 25 25 91 107 67 76 66 75 25 26 4 4 3 3 92 108 93 109 83 94 66 75 89 110 84 98 90 111 94 112 89 110 90 111 93 113 90 111 83 114 95 115 67 106 91 107 67 106 95 115 65 74 86 116 62 117 61 118 96 119 65 74 95 115 37 42 35 39 41 46 97 120 98 121 99 122 97 120 99 122 100 123 96 119 101 124 65 74 102 125 98 121 97 120 100 123 102 125 97 120 86 126 61 126 76 126 103 127 101 128 104 129 105 130 106 131 107 132 108 133 100 123 106 131 2 2 5 5 4 134 109 135 110 136 102 125 104 129 51 59 103 127 111 137 112 138 66 75 108 133 106 131 105 130 113 139 114 140 108 133 52 60 51 59 104 129 113 139 108 133 105 130 115 141 113 139 105 130 116 142 117 143 118 144 119 145 116 142 118 144 94 112 90 111 93 113 120 146 94 112 93 113 121 147 120 146 122 148 119 145 118 144 121 149 70 79 69 78 68 77 121 149 122 150 123 151 123 151 122 150 112 138 98 121 121 149 123 151 123 151 112 138 99 122 98 121 123 151 99 122 124 152 60 68 62 70 125 153 124 152 62 70 64 72 126 154 63 73 60 155 124 156 64 72 127 157 124 152 125 153 128 158 129 159 130 160 63 71 80 91 79 90 131 161 127 157 128 158 131 161 128 158 132 162 80 163 133 164 78 165 127 166 131 167 133 164 78 89 19 168 79 90 79 90 19 168 134 169 15 15 6 6 11 11 133 164 19 19 78 165 19 168 21 170 134 169 88 171 135 172 85 173 31 95 84 98 89 110 126 154 80 163 63 73 23 23 136 174 137 175 82 93 137 176 81 92 138 177 59 67 58 66 139 178 82 93 8 8 20 179 59 67 138 177 82 180 139 178 140 181 9 9 8 8 141 182 10 10 9 9 115 141 52 183 57 184 53 185 8 8 140 181 139 178 8 8 10 10 140 181 142 186 143 187 117 143 142 186 117 143 116 142 144 188 142 186 116 142 144 188 116 142 119 145 129 189 135 172 88 171 47 56 54 62 50 57 145 190 131 161 132 162 145 190 132 162 146 191 146 191 147 192 145 190 144 193 148 194 142 195 147 192 149 196 145 190 147 197 24 24 149 196 147 192 146 191 148 198 24 24 23 23 149 196 91 107 25 25 77 88 46 199 27 29 0 28 120 146 93 113 122 148 132 162 148 198 146 191 46 200 0 201 44 49 44 49 0 201 92 202 0 201 4 203 92 202 43 48 46 200 44 49 126 154 124 156 127 166 50 57 12 204 27 29 27 29 12 204 1 30 12 12 11 11 2 2 2 2 1 1 12 12 16 205 55 63 77 206 39 44 92 108 34 207 35 39 15 15 41 46 18 18 15 15 14 14 48 54 49 55 150 208 150 208 49 55 69 209 150 208 69 209 71 210 64 72 124 156 126 154 22 22 81 92 136 174 30 211 18 18 31 95 13 212 55 63 16 205 29 213 32 214 151 215 85 216 32 35 33 37 74 217 150 208 72 218 64 72 56 64 150 208 56 64 54 62 150 208 50 57 13 212 12 204 8 8 81 92 109 135 141 182 8 8 109 135 63 71 79 90 55 63 133 164 149 196 152 219 38 43 34 41 40 45 133 164 152 219 19 19 98 121 102 125 110 136 149 196 133 164 131 167 113 139 115 141 141 182 44 49 68 77 45 50 91 220 79 90 134 169 113 139 141 182 114 140 29 32 151 221 37 42 26 27 18 18 17 17 109 135 81 92 110 136 38 43 40 45 73 82 105 130 107 132 53 222 145 190 149 196 131 167 96 223 21 170 104 224 21 170 138 177 104 224 138 177 58 225 104 224 58 225 52 183 104 224 3 3 34 207 92 108 55 63 13 212 50 57 47 226 48 54 54 62 48 54 150 208 54 62 92 108 39 44 44 49 15 15 30 211 41 46 6 6 15 15 35 39 6 6 35 39 7 7 150 208 74 217 64 72 109 135 114 140 141 182 65 74 111 137 66 75 121 149 98 121 153 227 44 49 39 44 70 79 11 11 13 13 14 14 143 187 154 228 117 143 70 79 68 77 44 49 24 24 148 229 153 227 75 85 73 82 76 86 74 217 60 155 64 72 87 102 26 27 25 26 40 45 76 86 73 82 33 230 88 171 85 173 85 99 135 231 86 100 18 18 30 211 15 15 83 94 87 102 66 75 65 74 101 124 107 132 107 132 111 137 65 74 96 223 104 224 101 232 151 221 40 45 37 42 103 233 107 132 101 124 114 140 102 125 100 123 100 123 108 133 114 140 102 125 114 140 109 135 118 234 117 235 94 236 94 236 117 235 88 237 88 237 89 238 94 236 120 239 121 240 118 234 94 236 120 239 118 234 53 222 107 132 51 241 103 233 51 241 107 132 79 90 91 220 55 63 115 141 9 9 141 182 76 86 40 45 151 221 88 237 117 235 154 242 80 163 126 154 133 164 150 208 71 210 72 218 155 243 20 20 19 19 152 219 155 243 19 19 112 138 122 150 93 109 66 75 112 138 93 109 26 27 87 102 83 94 59 244 20 20 155 243 155 243 140 181 59 244 140 181 57 245 59 244 110 136 153 227 98 121 115 246 105 130 53 222 129 247 125 247 135 247 4 134 0 0 2 2 129 159 128 158 127 157 125 153 129 159 127 157 153 227 119 145 121 149 126 154 127 166 133 164 46 51 43 48 47 52 22 22 24 24 153 227 77 206 55 63 91 220 23 23 137 248 152 219 149 196 23 23 152 219 155 243 152 219 137 248 2 2 11 11 6 6 111 137 107 132 100 249 112 138 111 137 99 122 107 132 106 131 100 249 111 137 100 249 99 122 86 116 135 250 62 117 135 250 125 251 62 117 136 174 23 23 22 22 110 136 81 92 22 22 137 176 136 174 81 92 32 214 86 252 151 215 151 215 86 252 76 253 140 181 155 243 82 180 155 243 137 248 82 180 21 170 20 179 138 177 58 225 57 184 52 183 134 169 21 170 96 223 134 169 96 223 95 254 140 181 10 255 57 245 10 10 115 141 53 185 53 185 57 184 10 10 154 228 143 187 88 171 88 171 143 187 130 256 130 256 129 189 88 171 119 145 148 229 144 188 143 257 142 195 132 258 128 259 143 257 132 258 142 195 148 194 132 258 130 260 143 257 128 259 148 229 24 24 147 197 91 220 134 169 95 254 153 227 148 229 119 145 153 227 110 136 22 22 31 95 18 18 26 27</p>
        </triangles>
      </mesh>
    </geometry>
  </library_geometries>
  <library_visual_scenes>
    <visual_scene id="scene">
      <node id="left_ankle_roll_link">
        <instance_geometry url="#geometry">
          <bind_material>
            <technique_common>
              <instance_material symbol="scout_1a1a1a" target="#scout_1a1a1a" />
            </technique_common>
          </bind_material>
        </instance_geometry>
      </node>
    </visual_scene>
  </library_visual_scenes>
  <scene>
    <instance_visual_scene url="#scene" />
  </scene>
</COLLADA>