<?xml version='1.0' encoding='utf-8'?>
<COLLADA xmlns="http://www.collada.org/2005/11/COLLADASchema" version="1.4.1">
  <asset>
    <created>2026-09-14T00:00:00Z</created>
    <modified>2026-09-14T00:00:00Z</modified>
    <unit name="metre" meter="1" />
    <up_axis>Z_UP</up_axis>
  </asset>
  <library_effects>
    <effect id="scout_1a1a1a_effect">
      <profile_COMMON>
        <technique sid="common">
          <lambert>
            <emission>
              <color>0 0 0 1</color>
            </emission>
            <ambient>
              <color>0.05 0.05 0.05 1</color>
            </ambient>
            <diffuse>
              <color>0.1 0.1 0.1 1</color>
            </diffuse>
          </lambert>
        </technique>
      </profile_COMMON>
    </effect>
  </library_effects>
  <library_materials>
    <material id="scout_1a1a1a" name="scout_1a1a1a">
      <instance_effect url="#scout_1a1a1a_effect" />
    </material>
  </library_materials>
  <library_geometries>
    <geometry id="geometry" name="left_elbow_pitch_link">
      <mesh>
        <source id="positions">
          <float_array id="positions_array" count="261">-0.0430496447 0.00206352142 -0.00366466586 -0.0241404828 -0.00846032053 -0.0381978415 -0.0334501229 -0.00946187973 -0.0294758566 -0.0432844013 -0.00259664236 0.00201734039 -0.0333458818 0.00578532135 -0.0141363684 -0.0321428291 -0.00881727785 0.0316623859 -0.0223598052 0.00141752523 0.0229323208 -0.0116920937 -0.00253545679 -0.0115327127 -0.0155483596 0.00378899509 -0.00542018237 -0.0111072725 -0.00231497642 0.0124242883 -0.000595867226 0.00426206039 0.0336673893 -0.00055949355 -0.00926723238 0.0440577716 0.00249794754 0.00530873518 0.0418783315 -0.0154679548 0.00740111293 -0.0313981138 -0.0214693006 -0.00151296775 -0.0208005309 -0.0307234153 0.000665735162 0.000147851417 -0.0265395679 0.00669568591 0.0235280339 -0.000900721003 0.000387845037 -0.0435724892 0.000596202328 0.00302840094 -0.0383548811 -0.000154213049 0.0012738267 -0.0325475 -0.0116044674 0.00433044694 -0.023272505 0.00918866321 -0.00305240625 -0.0136236809 -0.0156898275 0.00440071756 0.0123467091 -0.00534740742 -0.00322067458 0.0232695118 0.0159883574 0.00331461988 0.012267625 0.0125847068 0.00414969074 0.022025736 0.0310629643 0.00337637868 -0.0310515724 0.0459427461 -0.00841032062 -0.0420002379 0.0474230088 -0.000778701331 0.00332498155 0.0481025763 -0.00515947444 -0.019865511 0.0475057587 -0.00173465419 -0.0182175916 0.051227808 -0.0364280157 -0.0367120914 0.050706014 -0.0577259175 -0.0315097645 0.0711789876 -0.0526498891 -0.0367317609 0.0892136768 -0.0205100365 -0.0405050293 0.0522389896 -0.00402183458 -0.0368959382 0.0718311742 -0.0203185417 -0.0394398905 0.0708209202 -0.00230595912 -0.0216073338 0.0749038011 -0.00178954552 -0.0229017008 0.0711494237 -0.0621385947 -0.00912302267 0.0649977848 -0.050808493 -0.0299562234 0.072007589 -0.0125330593 0.011735376 0.0658876523 -0.0211629849 -0.0310063697 0.0630933791 -0.0165553223 0.00393363135 0.090187639 -0.00483858492 -0.026935678 0.0716327727 -0.00222831755 0.00129180658 0.0779408962 -0.00288604805 -0.00987209938 0.120950013 -0.00277795037 -0.0257242974 0.118994743 -0.0211442858 -0.0411467552 0.0903338864 -0.00478649139 0.00580849638 0.014691636 0.00351711246 -0.0158108566 0.119217046 -0.0497266874 -0.0363439843 0.119420022 -0.0647677407 -0.00497398386 0.120162152 -0.0611858405 -0.0290443897 0.123574801 -0.0412541404 -0.0147209708 0.119352393 -0.050290104 0.0173552148 0.102657571 -0.0428595021 -0.0421589315 0.123056315 -0.0252707712 -0.00660322979 0.0134122483 0.00543502485 0.0328183733 0.0385284685 -0.0123493075 0.0296704248 0.0268374439 0.00125310605 0.0278076604 0.0211231355 -0.00149596389 0.0156317856 0.0481766015 -0.00835971162 0.00250683911 0.0525614358 -0.00257601589 0.015574988 0.060009025 -0.0101761334 0.0200275891 0.050946597 -0.0372068733 0.00954370108 0.0494293161 -0.061249759 -0.00068558479 0.0483614616 -0.0634733513 0.00620806869 0.0593085289 -0.0473938137 0.0180172622 0.0558888279 -0.0055136648 0.016604349 0.119339027 -0.0156183969 0.0164912269 0.0564964488 0.00267481315 0.00311972946 0.0710227191 -0.0530902818 0.0149247237 0.0639120713 -0.0488188155 0.0111840805 0.063834466 -0.042075593 0.0216666665 0.0704712272 -0.0416517891 0.0145678474 0.0700516254 -0.0175118707 0.0214601457 0.0663412809 -0.0332276821 0.0148231117 0.0846442431 -0.0245324075 0.0192240197 0.102602914 -0.0419757441 0.0202040989 0.0502894297 -0.0435096137 -0.0418730304 0.120103754 -0.000779520778 -0.00209330046 0.0461192913 0.003662501 -0.028678121 0.021390656 -0.00157746871 -0.0196949169 0.0141301146 -0.00353650586 0.00769674312 -0.0198975373 0.00492250919 4.44810757e-05 0.0490650386 -0.0638822541 -0.02322267</float_array>
          <technique_common>
            <accessor source="#positions_array" count="87" stride="3">
              <param name="X" type="float" />
              <param name="Y" type="float" />
              <param name="Z" type="float" />
            </accessor>
          </technique_common>
        </source>
        <source id="normals">
          <float_array id="normals_array" count="675">-0.609813809 0.600716352 -0.516978621 -0.538256884 0.583624959 -0.607997835 -0.543070436 0.672805846 -0.502401114 -0.939336777 -0.245160267 -0.239880845 0.866920948 -0.356449455 0.348413289 -0.769930542 0.503030658 0.392641157 -0.75879997 0.518631935 0.39400962 -0.592901886 0.488168031 0.640436828 0.219667017 -0.958610773 -0.181140304 0.423060298 -0.756285846 -0.499050766 0.289072186 -0.925960422 -0.242970347 0.842373013 0.538290381 -0.0255173855 0.839355707 0.543090403 -0.023124516 0.810284913 0.546274185 -0.212185904 0.162511036 -0.633826613 -0.756210327 0.0387253091 -0.54201889 -0.839473605 -0.35454303 0.210586533 0.911017299 -0.385647982 0.319825262 0.865440607 -0.51396805 0.559698224 -0.650057554 -0.0400702953 -0.70853132 0.704540849 -0.021144921 -0.993419826 -0.112561069 -0.58525002 -0.791471899 -0.176223159 -0.169427216 -0.979798734 -0.10624893 0.183646888 -0.914162397 -0.361359894 -0.22080642 0.974792898 -0.0319890901 -0.377713203 0.531539202 -0.758154869 0.395134121 -0.872288764 0.288064867 0.395464957 -0.871216714 0.290841609 0.399601489 -0.855907083 0.328240395 0.392294049 -0.880765676 0.265249372 0.0388415679 -0.957919836 -0.284395725 0.00968372542 -0.964919508 -0.262367338 0.294169307 0.951135874 0.0938346535 0.0568729565 -0.67568624 0.734992266 -0.631358087 0.526567757 0.569309533 0.819611847 0.557762086 -0.130911738 0.770740211 0.521700978 -0.365769953 -0.325217605 0.943005383 -0.07052885 -0.198844358 0.962226033 0.18596229 -0.240755662 0.96475935 0.106189147 0.231736511 -0.681034327 -0.694615364 -0.142134488 -0.764024436 0.629336536 0.961816907 0.125945002 -0.24299407 0.9835186 0.0618937612 0.16988343 0.98785603 0.135957181 0.075207226 0.120896466 0.103528008 0.987251759 0.186957687 0.228779405 0.955356896 0.129041836 0.157520324 0.979048312 0.0600374639 -0.0831008479 0.994731009 0.11403659 -0.0179618355 0.993314147 0.0817959383 -0.0277686082 0.996262193 -0.113684505 -0.745960534 -0.656215489 -0.847415626 -0.529583633 -0.0377873927 -0.865480185 -0.368700296 -0.339122653 -0.538223207 -0.796865582 -0.274446756 -0.803988278 0.184913322 -0.565163672 -0.743656158 -0.0408938751 -0.667310417 -0.296133518 0.943592131 -0.148117572 -0.114659704 -0.979823112 0.163706571 -0.0591713861 -0.943206429 0.326895028 -0.201056421 -0.893742323 0.400999963 -0.986994505 0.123076789 0.103411339 -0.958696127 0.278823465 -0.0562072247 -0.92584461 0.172847673 -0.336058617 0.0920277461 -0.990227938 -0.104783148 -0.0817348585 0.676855803 -0.731563807 -0.0714464411 0.682709157 -0.727188885 -0.0358449258 0.702078402 -0.711196959 0.125701413 0.72450012 -0.677715838 0.114645757 0.648312092 -0.752693713 0.118954986 0.631039977 -0.766575694 0.0427560098 0.996476114 0.072161682 0.138056159 0.990322113 -0.0142352022 0.122744203 0.992112517 -0.0254296213 0.787510157 0.452593118 0.418314695 0.17628932 0.983455956 0.0416706316 -0.127666414 -0.987111509 -0.0964996517 -0.0833200961 -0.987050414 -0.137073785 -0.0716680065 -0.997372389 -0.0105828466 -0.0976132601 -0.991396368 -0.0872063041 -0.0995586291 -0.994722128 0.024818182 0.991411328 -0.0554496236 -0.118443884 0.991002917 -0.131593734 0.0244199429 0.992586017 0.111977525 0.0472657122 0.996907055 -0.0661697239 -0.0424020998 0.990617931 -0.0608864017 0.122347884 0.105094157 -0.0439444929 -0.993490875 0.146170989 -0.409906954 -0.900339007 0.0644362718 -0.272821426 -0.959904373 0.990266979 0.00889474433 -0.138896167 0.997069061 0.0611497276 0.0459776819 -0.27598998 0.903594136 0.327638686 -0.132663161 0.965996802 0.221924946 0.998431742 0.0360582359 -0.0428231433 -0.268062264 -0.441142231 -0.856467247 -0.475242168 -0.390482128 -0.788459599 0.354401141 0.078973569 0.931752682 0.349268615 0.06649068 0.934660614 0.388527781 0.141531333 0.910502613 -0.433994919 -0.477620065 -0.76388973 -0.0371669717 -0.975749969 0.215709567 -0.133084625 -0.981518388 0.137513936 -0.0312595405 -0.92926383 0.368091732 0.294891387 0.0938838944 0.950907409 -0.986831069 0.111950561 -0.116753876 -0.967609823 0.247442082 -0.0500361435 -0.981536269 0.163471997 -0.0993147269 0.781934023 0.0773389935 -0.618544936 0.717589438 0.11153017 -0.687478364 0.803212702 0.189577252 -0.564721048 -0.664871037 0.158143535 -0.73002547 0.944283307 0.068691954 -0.321885824 0.733377695 0.0145782763 -0.679665029 0.991799891 0.0525301322 0.116505846 0.397448719 0.768458664 0.501503468 0.240599573 0.793179154 0.559444964 0.237831056 0.796464622 0.555950046 -0.528137624 -0.354523361 -0.771611214 0.188503802 0.738861561 -0.646954358 0.0634048507 0.845759749 -0.529783249 0.0362161621 0.975694478 -0.216122016 -0.460729063 -0.878376126 -0.127216622 -0.654409289 -0.0706631839 0.752831459 0.430976599 -0.6764099 0.597267747 -0.868341386 0.352395177 -0.348999858 -0.574732304 -0.282474965 -0.768043399 0.068096295 -0.242197946 0.967834234 -0.0770893991 -0.955632627 -0.284294724 -0.998646438 -0.0474874079 0.0212187655 -0.997858644 -0.0383053236 0.0530177392 -0.998778045 -0.0477594361 0.0127073294 0.516690493 0.117441073 -0.848079324 0.643051744 0.147717446 -0.75144124 0.553592026 0.126265854 -0.823160231 0.663547218 0.152645439 -0.732396364 -0.189407319 -0.122379154 0.974242389 0.223799393 0.0411987007 0.973764062 -0.295363307 -0.173273012 0.939540803 -0.985657513 0.03026844 -0.166021511 0.255020797 0.0740216598 0.964098096 0.323646247 0.0523412675 0.944729328 -0.042143371 0.998999774 -0.014945819 -0.983041644 0.0343442783 -0.180137783 0.201310158 0.662362695 0.721629977 0.220544264 0.672913373 0.706079185 0.439225048 0.760762095 0.477830887 -0.27547884 -0.539520741 -0.795631051 -0.230893359 -0.586685419 -0.776201308 -0.291848481 -0.521223068 -0.801966965 0.0374668576 -0.196984187 0.979690492 -0.345538229 -0.457204819 -0.819491982 -0.0276280958 -0.65637815 -0.753926039 0.0211173184 -0.586497724 -0.809675574 0.0342840776 0.554866791 0.831232488 0.104593813 0.780887008 0.615853608 -0.946357369 -0.0121064661 0.32289502 0.0617555529 0.0248876009 0.997780979 0.0352609158 0.991683424 -0.123776525 0.095383957 0.934632242 -0.342584908 0.0871572345 0.879184186 -0.468442917 -0.036631152 -0.906227052 -0.421201527 -0.0214050654 -0.974018037 -0.22545667 -0.722904742 0.666361213 0.18267855 0.171872079 0.942420721 0.286885381 -0.529829681 -0.830142736 0.173619002 0.138531744 0.464815438 0.874503016 -0.130552202 -0.962172568 -0.239123464 -0.0820831284 -0.996497214 -0.0159899201 0.0196260512 -0.991782904 0.126418144 -0.338164568 0.584045351 -0.737926662 -0.334895551 0.584115446 -0.739360631 -0.12388768 0.573749661 -0.809606791 -0.384084553 0.89888978 -0.210893989 0.023496395 -0.923467398 0.382956743 0.0168161634 -0.943507195 0.330925018 -0.107750826 -0.957709312 0.266800702 0.00816911645 0.00737652462 -0.999939442 0.0573573299 0.998269737 0.0129480967 0.080322735 0.99512279 -0.0572611131 0.0539629273 -0.102611922 0.993256688 0.11680308 0.992198467 -0.0435801782 -0.524278522 0.566420078 -0.635846078 0.999102652 -0.0147824008 0.0396916158 -0.0488221534 -0.421737701 -0.905402541 -0.985990167 -0.121691376 0.1140818 -0.570463538 -0.433021665 0.697899401 0.971781731 -0.0289948471 0.234093085 0.971859276 -0.0199416503 0.234716684 0.0404135808 0.999179959 0.00247225328 -0.080089137 0.996218622 0.0336777456 0.0806274191 0.995368481 -0.0523530133 -0.952763736 -0.160908878 -0.257584095 -0.0550622232 0.968896508 0.24126263 -0.149908975 0.935068369 0.321207762 -0.99518317 0.0975643918 0.0095730722 -0.995059133 0.094036825 0.0318490751 -0.994042397 0.0998167992 0.0437758639 -0.988326073 0.0892157629 0.123499371 0.0112946844 -0.00222527073 -0.99993372 -0.11993555 0.654108703 -0.746831536 -0.0348959416 -0.673687994 -0.738191545 -0.993283212 -0.025623709 -0.112835646 -0.834439933 -0.140904114 -0.532781363 -0.00770684984 -0.99979353 -0.018800607 0.0255193803 -0.988900602 -0.146370471 0.0426965132 -0.97997278 0.194500312 0.0491008833 -0.723804116 0.688256323 -0.209321856 -0.632615626 0.745641887 -0.00732259359 -0.9999457 -0.00741799409 -0.0520037226 -0.998151779 0.0314426981 0.019628562 -0.999782979 -0.0069807847 -0.0205919147 -0.999201536 0.0342390127 0.727091193 0.66877985 0.155150995 0.137177676 -0.984465837 0.109587006 0.0288516413 -0.988466382 -0.148666799 -0.00593155622 -0.926784575 0.375546545 -0.226869658 0.473402411 0.851128817 0.999322772 -0.00603825971 0.0362979695 -0.0558705293 -0.995159447 -0.0808468685 0.108196236 0.774694979 0.623009801 -0.700932205 0.365680218 0.61234957 -0.0986460522 -0.97607255 0.193781808 0.389784098 0.526288807 0.755703986 0.0886346102 0.992782891 -0.0807836801 0.319883913 -0.00584384566 -0.947438717</float_array>
          <technique_common>
            <accessor source="#normals_array" count="225" stride="3">
              <param name="X" type="float" />
              <param name="Y" type="float" />
              <param name="Z" type="float" />
            </accessor>
          </technique_common>
        </source>
        <vertices id="vertices">
          <input semantic="POSITION" source="#positions" />
        </vertices>
        <triangles material="scout_1a1a1a" count="182">
          <input semantic="VERTEX" source="#vertices" offset="0" />
          <input semantic="NORMAL" source="#normals" offset="1" />
          <p>0 0 1 1 2 2 0 3 2 3 3 3 2 4 4 4 3 4 0 5 3 6 5 7 6 8 5 9 3 10 7 11 8 12 9 13 5 9 10 14 11 15 11 16 12 17 5 7 0 0 13 18 1 1 14 19 4 19 2 19 15 20 4 21 14 22 4 23 15 20 3 10 16 24 13 24 0 24 13 18 17 25 1 1 18 26 2 27 1 28 14 29 2 27 18 26 14 22 18 30 19 31 20 32 8 32 21 32 8 33 7 33 21 33 6 8 3 10 15 20 16 34 0 5 5 7 8 12 22 35 9 13 10 14 5 9 6 8 5 7 12 17 16 34 22 35 23 36 9 13 24 37 9 38 23 39 23 40 22 40 25 40 26 41 18 41 27 41 28 42 29 43 30 44 31 45 32 46 33 47 34 48 35 49 36 50 37 51 30 51 38 51 39 52 40 53 33 54 36 55 33 56 40 53 41 57 42 57 43 57 38 58 35 59 44 60 45 61 37 62 42 63 38 64 46 64 37 64 37 65 34 66 36 67 27 68 47 69 48 70 46 71 44 72 37 73 46 74 45 74 41 74 45 75 46 75 38 75 49 76 45 77 38 58 50 78 28 79 24 80 51 81 52 82 53 83 52 82 54 84 55 85 48 86 51 87 56 88 48 89 54 84 51 81 57 90 55 85 54 84 46 71 41 91 49 92 48 89 47 93 57 90 58 94 59 95 11 15 12 96 11 97 59 98 58 94 60 99 59 95 61 100 62 101 63 102 64 103 12 96 59 98 65 104 66 105 67 106 65 107 68 108 66 109 63 110 65 110 67 110 62 111 69 112 65 107 28 42 69 112 62 111 55 85 57 90 70 113 12 114 64 115 71 116 60 99 63 117 59 95 68 118 72 119 66 120 73 121 72 121 68 121 74 122 63 122 67 122 39 123 75 123 73 123 68 124 76 124 77 124 74 125 59 95 63 117 59 98 74 126 64 103 69 127 28 79 45 77 72 128 75 129 39 130 73 131 77 132 72 133 77 132 76 134 72 133 75 135 77 136 73 137 76 138 75 129 72 128 41 139 68 140 77 136 72 119 39 141 66 120 41 139 77 136 75 135 76 138 41 142 75 129 78 143 41 144 76 145 76 146 69 147 49 148 49 76 69 127 45 77 64 103 74 126 79 149 76 146 49 148 78 150 80 151 56 88 53 152 78 143 49 153 41 144 64 115 81 154 71 116 65 155 63 155 62 155 70 156 64 156 55 156 47 93 70 113 57 90 13 157 82 158 17 159 19 31 18 30 26 160 83 161 19 31 26 160 50 162 21 162 84 162 50 163 84 163 30 163 29 164 26 164 27 164 37 165 50 165 30 165 26 160 29 166 83 161 38 58 44 60 49 76 50 78 37 167 28 79 38 58 30 168 35 59 24 169 84 170 9 171 25 172 24 37 23 39 10 14 58 94 11 15 58 173 10 174 61 100 58 173 61 100 60 175 63 102 60 175 61 100 56 88 80 176 48 86 71 177 81 178 82 158 54 84 48 89 57 90 27 179 18 179 1 179 30 180 24 180 28 180 30 181 84 170 24 169 32 182 31 182 66 182 27 183 1 183 17 183 27 184 80 184 29 184 80 185 31 185 29 185 29 43 31 186 35 187 35 187 30 44 29 43 29 43 28 42 62 111 12 188 13 157 85 189 16 190 12 188 85 189 40 53 39 52 73 191 66 120 39 141 32 192 32 192 39 141 33 193 86 194 67 106 66 105 86 194 66 105 31 195 86 194 31 195 80 196 40 53 42 63 36 55 36 55 42 63 37 62 42 63 41 197 45 61 27 198 48 86 80 176 37 65 44 199 34 66 53 152 86 200 80 151 43 201 42 63 40 53 43 201 40 53 73 191 43 201 73 191 68 202 35 49 31 45 36 50 31 45 33 47 36 50 86 203 53 204 52 205 79 149 74 126 55 206 35 59 34 207 44 60 45 77 28 79 37 167 50 78 24 80 20 208 20 208 25 209 8 210 8 210 25 209 22 211 16 212 85 212 13 212 83 161 29 166 62 101 84 213 21 214 83 161 84 213 83 161 61 100 83 161 62 101 61 100 86 203 52 205 67 215 20 216 21 216 50 216 54 84 52 82 51 81 81 217 70 113 47 93 69 112 68 108 65 107 19 31 83 161 21 214 19 31 7 218 14 22 19 31 21 214 7 218 70 219 81 154 64 115 68 220 41 220 43 220 84 213 61 100 9 221 9 221 61 100 10 174 6 8 9 221 10 174 6 8 15 20 9 221 15 20 14 22 9 221 14 22 7 218 9 221 67 215 55 206 74 126 47 69 27 68 82 158 55 206 67 215 52 205 82 158 13 157 71 177 20 208 24 80 25 209 64 222 79 222 55 222 81 178 47 223 82 158 51 87 53 152 56 88 68 108 69 112 76 224 44 72 46 71 49 92 82 158 27 68 17 159 12 188 71 177 13 157</p>
        </triangles>
      </mesh>
    </geometry>
  </library_geometries>
  <library_visual_scenes>
    <visual_scene id="scene">
      <node id="left_elbow_pitch_link">
        <instance_geometry url="#geometry">
          <bind_material>
            <technique_common>
              <instance_material symbol="scout_1a1a1a" target="#scout_1a1a1a" />
            </technique_common>
          </bind_material>
        </instance_geometry>
      </node>
    </visual_scene>
  </library_visual_scenes>
  <scene>
    <instance_visual_scene url="#scene" />
  </scene>
</COLLADA>