<?xml version='1.0' encoding='utf-8'?>
<COLLADA xmlns="http://www.collada.org/2005/11/COLLADASchema" version="1.4.1">
  <asset>
    <created>2026-09-14T00:00:00Z</created>
    <modified>2026-09-14T00:00:00Z</modified>
    <unit name="metre" meter="1" />
    <up_axis>Z_UP</up_axis>
  </asset>
  <library_effects>
    <effect id="scout_1a1a1a_effect">
      <profile_COMMON>
        <technique sid="common">
          <lambert>
            <emission>
              <color>0 0 0 1</color>
            </emission>
            <ambient>
              <color>0.05 0.05 0.05 1</color>
            </ambient>
            <diffuse>
              <color>0.1 0.1 0.1 1</color>
            </diffuse>
          </lambert>
        </technique>
      </profile_COMMON>
    </effect>
  </library_effects>
  <library_materials>
    <material id="scout_1a1a1a" name="scout_1a1a1a">
      <instance_effect url="#scout_1a1a1a_effect" />
    </material>
  </library_materials>
  <library_geometries>
    <geometry id="geometry" name="left_hip_roll_link">
      <mesh>
        <source id="positions">
          <float_array id="positions_array" count="594">-0.0379083529 -0.0308299568 -0.392599404 -0.0359311551 -0.0316709615 -0.43045494 -0.033502616 -0.041789148 -0.385710657 -0.0315063447 -0.0386818945 -0.426716447 -0.0375545844 -0.0419834144 -0.344262809 -0.0400646552 -0.0357201919 -0.335677713 -0.0329141282 -0.044929456 -0.34668988 -0.0395352468 -0.0446658395 -0.290493488 -0.0432396829 -0.0404712185 -0.271807641 -0.041858919 -0.0476703756 -0.254399776 -0.0381107815 -0.029603567 -0.33598581 -0.0267565232 -0.0314546153 -0.44336009 -0.0192519128 -0.0383513197 -0.441391438 -0.0110890726 -0.0326036438 -0.450713485 0.0622278638 -0.0243323129 -0.0945789367 0.0671934411 -0.0371243656 -0.114965774 0.0656948537 -0.0092450669 -0.0766177699 0.0130743012 -0.0376792774 -0.445420235 -0.0639576167 -0.0365506709 -0.108471714 -0.0666366741 -0.0403255932 -0.151287436 -0.061202798 -0.0445767567 -0.115292013 -0.0601814017 -0.0415512957 -0.199787483 -0.049644962 -0.0433393829 -0.237933993 -0.0551662706 -0.0448582955 -0.212704703 -0.0593824126 -0.046448838 -0.180330187 -0.0576283634 -0.0429635756 -0.109598614 -0.0506052002 -0.0180998612 -0.0805271342 -0.0608472824 -0.0196915977 -0.0924729481 -0.0276214182 -0.0308989976 -0.0973091945 0.01420704 -0.0526830629 -0.210916311 0.0205869321 -0.0500866808 -0.214808315 0.0329565294 -0.0532605723 -0.19810544 -0.0540491566 0.0337393731 -0.0840733945 -0.0396234915 -0.0531421714 -0.190152556 -0.0255086012 -0.0592453443 -0.202402279 -0.0373894796 -0.0585340001 -0.190649539 -0.0456646383 -0.0525170974 -0.168611124 -0.0479635373 -0.0479802825 -0.183645844 -0.0449640565 -0.0587705821 -0.168620601 -0.038735237 -0.0488317274 -0.202246338 -0.046770636 -0.0474052913 -0.144141138 -0.0400169417 -0.0534680039 -0.144938245 -0.0356376581 -0.0587827004 -0.14050439 -0.0296950061 -0.048591461 -0.124426179 -0.0310223568 0.0458231159 -0.310608119 0.00817415584 0.0470675267 -0.322288603 -0.031848222 0.0435369723 -0.368214816 -0.0385030061 -0.0185623933 -0.0757645965 -0.0460551158 0.0418438315 -0.0786458179 -0.0144166797 -0.0502264053 -0.2173412 -0.0177510418 -0.052753102 -0.20960547 -0.000711314497 -0.0595786832 -0.160522252 -0.0102607487 -0.0595169626 -0.171411067 -0.0185895804 -0.0531405918 -0.125271738 -0.0181183536 -0.0587919727 -0.126424626 0.000474088069 -0.0484381393 -0.115023822 -0.0115508819 -0.0597144291 -0.208216473 0.0145282876 -0.0583236776 -0.209444597 0.00451597385 -0.0531721413 -0.121239506 0.0117323399 -0.0587491207 -0.124007121 -0.00478933379 -0.0220315941 -0.078803733 0.0211258885 -0.0316827521 -0.097428903 -0.0305395219 0.0391916297 -0.428407639 -0.0359478183 0.0312819891 -0.430523515 -0.0374966972 0.0401141867 -0.360110253 -0.038209673 0.0309479777 -0.392158777 -0.0391410962 0.03859872 -0.294952452 -0.0450904444 0.040665362 -0.247249901 -0.0417664759 0.0100914342 -0.286672682 -0.0275174323 0.0317459553 -0.442343086 -0.0180804282 0.0366304219 -0.445132464 -0.0164980944 0.0301686358 -0.449199468 -0.0143345576 -0.0292657614 -0.383817285 -0.0081226537 0.0286067855 -0.373981059 -0.00835858379 -0.0286604837 -0.374056607 0.00798424426 0.0362183042 -0.448903292 0.0271113124 0.0387640074 -0.436793029 -0.0634596348 0.0136078848 -0.1824788 -0.0659281388 0.0328135788 -0.146090955 -0.0631685629 0.0389177762 -0.171072409 -0.0383753553 0.0473081842 -0.248000488 -0.0525132567 0.045812089 -0.206791759 -0.0592469461 0.0320166275 -0.200857326 -0.0622004867 0.04328968 -0.132749066 -0.0561330989 0.0464309379 -0.0955961049 -0.0610737652 0.0337511301 -0.0954937711 -0.0359389298 0.0429772399 -0.0754355639 -0.0422530174 0.0502701141 -0.0856771171 -0.00384752825 0.0538499765 -0.0833373442 0.000994473114 0.0484984145 -0.0766975284 0.0180510711 -0.0302151013 -0.448657572 0.0293016229 -0.0322405323 -0.442779183 0.0316680595 -0.0388314947 -0.433560133 0.0412536412 -0.0317564607 -0.431808442 0.0436227992 -0.0401538275 -0.41432035 0.0491605513 -0.0369191915 -0.411601901 0.0487606004 -0.0304062571 -0.41657716 0.0521162339 -0.0309185348 -0.39991802 0.0494107679 -0.0438425057 -0.354285181 0.0531618409 -0.030529445 -0.382932305 0.0597417317 -0.0421966016 -0.250945807 0.0165436137 -0.0597497709 -0.203168035 0.0205393918 -0.0595862158 -0.186456621 0.00914944336 -0.059502162 -0.170440212 0.0213703867 -0.0531731807 -0.12691316 0.0615015775 -0.0447919518 -0.113890037 0.012516968 -0.0445821434 -0.108014651 0.035449665 -0.0583339036 -0.19394806 0.0339341499 -0.0585895404 -0.138006568 0.0374309793 -0.0529119968 -0.141350806 0.0342916399 -0.0488061234 -0.128414094 0.028133858 -0.0460023358 -0.0189934615 0.0277154259 -0.022459941 -0.0463909581 0.0308768619 -0.0354017504 -0.035521701 0.0270236433 -0.0162451528 -0.0741256922 0.0289987102 -0.0215671901 -0.0794961378 -0.048064027 0.0117845153 -0.245687664 0.0326331742 -0.0208458789 -0.0589609221 0.0453976318 -0.0484087877 -0.194063887 0.0425061882 -0.0535868965 -0.183302224 0.0447638743 -0.0588060208 -0.165355235 0.0443704091 -0.053168647 -0.154859617 0.0484412573 -0.0475134626 -0.151068464 0.046713613 -0.0497744083 0.00516066933 0.0282674879 -0.0496532843 0.00905353203 0.0518421791 -0.0466606468 -0.0182210896 0.0633289069 -0.0413105264 -0.109353416 0.0615182966 -0.0167278666 -0.0721698627 0.0562396683 -0.0312886648 -0.0392721444 0.0583346412 -0.0195010789 -0.0566183664 0.0651459396 -0.0418654568 -0.155252427 0.0557113402 -0.0468963385 -0.229682937 0.0560519062 -0.042498257 -0.0130857285 0.0627512857 -0.0174586847 -0.0503594913 0.0265824478 -0.0307661183 0.0170163512 0.026558999 -0.0349526368 -0.00714146346 0.0555457398 0.0134729603 -0.00976780709 0.0474143215 -0.0422858745 0.0195547119 0.0401181802 -0.042762205 0.0260927174 0.0282227322 -0.0381029472 0.0317389481 0.0390259884 -0.030958185 0.0386999957 0.0282506589 -0.0255089588 0.0424132794 0.0391023047 -0.0146095268 0.0455624238 0.028231563 -0.0106181223 0.0484009087 0.0363007002 0.00842823088 0.0484670997 0.030751491 0.0312332474 -0.44160378 0.0178613588 0.0302157104 -0.448542178 0.0426578075 0.0317345597 -0.429828227 0.0431351028 0.0400083996 -0.416258365 0.048746407 0.0367913172 -0.4124479 0.0509161688 0.0307576098 -0.409749925 0.0465305187 0.0447005332 -0.352364212 0.0521467514 0.0410933159 -0.363529205 0.0534105152 0.0305899791 -0.380689651 0.0507937856 0.0418814942 -0.304382294 0.0566431321 0.0334604271 -0.303591222 0.0541843921 0.043257881 -0.258446872 0.0261980537 0.0447516069 -0.0750263706 0.063229762 0.0386896543 -0.0619899072 0.0304827467 0.0419078767 -0.0718043968 0.0277187377 0.0137855923 -0.0709317848 0.0279379413 0.0499747805 0.00116426602 0.0338648409 0.0495898128 -0.0392851494 0.0268611647 0.0324908979 -0.0156860799 0.027282659 0.00777098769 -0.0368083976 0.0399751514 0.0506963208 -0.0803267807 0.055977989 0.0468296856 -0.054026667 0.0555617549 0.0452863723 -0.201294139 0.0609216914 0.0373286195 -0.220715016 0.0617594309 0.0449885018 -0.120041579 0.0629341081 0.0408094637 -0.165044442 0.0550819449 0.0446739532 -0.0178065635 0.0453625321 0.0502767451 0.00500972057 0.0671215579 0.0313731879 -0.115892425 0.0401476175 0.0229160432 0.041761633 0.0281091705 0.0187195055 0.0463924222 0.0388563983 0.038735114 0.0317522176 0.0279357359 0.0332351327 0.0360843316 0.0281220078 0.0443349481 0.0220573563 0.0460537225 0.0418622494 0.019830972 0.0194876753 -0.0462920442 -0.329638094 -0.0655920208 0.0120590935 -0.120922975 -0.0160552189 0.0293723028 -0.383748084 -0.00713456469 0.0533312 -0.187981293 -0.0394083895 0.0303518567 -0.334311128 0.0265028365 0.0311456099 0.0165371783 0.0467712656 0.0291173682 -0.374667704 -0.0288367923 0.0292056184 -0.373279393 -0.0294382181 0.0289848614 -0.358596772 -0.0236357301 0.0291249044 -0.347271085 -0.0235283934 -0.0289106015 -0.34750846 -0.0295774322 -0.0291637704 -0.358712405 0.0261389799 -0.0119753946 0.0327913053 0.0263363514 -0.0228488054 -0.0266747549 0.0266083181 0.0158512723 0.0314920321 0.0300239567 0.0510655306 -0.19350338 0.0467089787 -0.0289773718 -0.374199063 -0.0288049784 -0.0292246845 -0.373711288</float_array>
          <technique_common>
            <accessor source="#positions_array" count="198" stride="3">
              <param name="X" type="float" />
              <param name="Y" type="float" />
              <param name="Z" type="float" />
            </accessor>
          </technique_common>
        </source>
        <source id="normals">
          <float_array id="normals_array" count="1020">-0.916427612 -0.396496862 -0.0543197058 -0.736679316 -0.605529666 -0.301060587 -0.534291267 -0.840719938 -0.0878794715 -0.741244912 -0.622379363 -0.251396 -0.800699532 -0.595582187 -0.0645147637 -0.977298677 -0.205299124 -0.0523412824 -0.285268694 -0.956227124 -0.0652029589 -0.87243557 -0.480856955 -0.0873659104 -0.968038678 -0.221667275 -0.117323302 -0.443185747 -0.889305413 -0.11279282 -0.952677846 0.30381757 -0.00998786651 -0.502699494 -0.670533419 -0.545598924 -0.228003472 -0.891397476 -0.391694993 -0.109906822 -0.758157492 -0.642742336 0.363480419 -0.746700943 0.55706346 0.10790164 -0.824235082 -0.555872083 -0.988470733 -0.105526224 0.108581021 -0.914702117 -0.403703243 -0.018539533 -0.540433586 -0.82866925 0.145735592 -0.929349065 -0.321447849 -0.181608349 -0.916398168 -0.330357999 -0.226004288 -0.716992199 -0.676963627 -0.166260242 -0.533988178 -0.843968749 -0.0507286824 -0.264659852 -0.630338907 0.729813695 -0.555080652 -0.640991449 0.530108869 -0.247145101 -0.725320637 0.642517865 -0.599628627 -0.0661597997 0.797538936 -0.857112288 -0.181277156 0.482179493 -0.641823232 -0.462243855 0.611877084 -0.115945548 -0.859938085 0.497054398 -0.0373136811 -0.78863126 0.613733172 0.0833797157 -0.896028101 -0.436098009 0.105770633 -0.978079379 -0.179369226 0.421505451 -0.801874936 -0.423473418 -0.741138458 0.149941221 0.654393911 -0.837669253 -0.258488804 -0.481138021 -0.61669296 -0.146952569 -0.773365855 -0.792183757 -0.27815935 -0.543205559 -0.877461791 -0.479352117 0.0168020427 -0.664122581 -0.730408311 -0.159514606 -0.57083106 -0.772138298 -0.279203027 -0.993578017 -0.111281045 -0.0204744134 -0.987091601 -0.159087479 -0.0184755512 -0.224600777 -0.961883307 -0.155996785 -0.654795349 -0.709215939 0.261257976 -0.585854352 -0.747370303 0.313388318 -0.862105191 -0.425398111 0.275338084 -0.842275381 -0.461111516 0.279192328 -0.343318015 -0.82055378 0.456972927 -0.376223266 0.925866663 -0.0350280777 0.0261171088 0.998892725 -0.0391312204 -0.310770929 0.948167622 -0.0663296357 -0.123463087 -0.880735874 0.457232088 -0.195225254 0.00204070308 0.980756283 -0.495938778 0.370640486 0.785283625 -0.0552518591 -0.984968424 -0.163659483 -0.216168344 -0.900046289 -0.378401816 -0.00804115832 0.999886751 0.0127200801 -0.407154828 -0.195124224 0.892273188 -0.675572932 0.056613408 0.735116363 -0.671486199 0.0299719479 0.740410626 -0.236975148 -0.745856941 0.622527301 -0.395175457 -0.24272652 0.885957241 -0.0144255878 -0.895844996 0.444132537 -0.0785968751 -0.983774245 0.161278442 -0.329535455 -0.335498482 -0.882523179 -0.132450148 -0.306074828 -0.942748725 -0.0383253172 -0.250020534 -0.967481732 0.000178041184 -0.776632249 0.629954219 -0.0793054849 -0.48442778 0.871229231 0.174821734 -0.656182885 0.734071732 -0.0685473084 -0.513245165 0.855500221 -0.0200909711 -0.802579343 0.596206963 0.0415713899 -0.775973916 0.629393578 -0.73314923 0.622219145 -0.274473339 -0.766985536 0.578238487 -0.27816081 -0.84131068 0.539664209 -0.030965386 -0.965826869 0.254083872 -0.0511840992 -0.746050835 0.660185456 -0.0869671851 -0.886588812 0.41753152 -0.199067146 -0.995158613 0.0780207291 -0.0597666353 -0.995400667 0.0333985053 -0.0897886977 -0.541502595 0.627780735 -0.559165657 -0.355517745 0.526308835 -0.772402883 -0.226440698 0.434593111 -0.871695697 0.843206406 0.000862092769 -0.537589312 0.786763489 0.0204041228 -0.616917253 0.852921844 -0.00282522198 -0.52203095 0.00398866599 0.0327874944 -0.999454379 -0.00348629523 0.994986296 -0.0999507532 -0.0168733317 0.984505713 -0.174538687 -0.00702152401 0.987656236 -0.156479433 -0.00567854056 0.995940924 -0.089829959 -0.989176869 0.0252399035 -0.144540712 -0.985138118 0.171640888 -0.00650064647 -0.904261589 0.415296972 -0.0991935208 -0.707780361 0.688529968 -0.158029899 -0.623309135 0.770944118 -0.13088508 -0.960016012 0.178208455 -0.215895921 -0.758490622 0.650994658 0.0299656224 -0.267935216 0.963333964 -0.014083663 -0.929378092 0.185621232 0.319062918 -0.828836441 0.420191467 0.369417518 -0.168114021 0.396109015 0.902682304 -0.350332767 0.723414302 0.59492749 -0.0457395054 0.75672555 0.652130604 0.0053445329 0.598727047 0.800935328 0.235894218 -0.514769256 -0.824236929 0.395079523 -0.664500535 -0.634311616 0.512876749 -0.66867131 -0.538364351 0.621192873 -0.632354558 -0.462868422 0.35054791 -0.910469711 -0.219456375 0.823158205 -0.517377496 -0.233946681 0.913136363 -0.210571751 -0.349058032 0.943662703 -0.322767407 -0.0729511455 0.463669151 -0.882861912 -0.0746038482 0.980754673 -0.185010403 -0.0623816699 0.902344346 -0.4271501 -0.0575973317 -0.0390786417 -0.254352331 -0.966321766 0.0942969769 -0.985186815 -0.143230617 -0.0119474595 -0.999891162 0.00865518395 0.0848714858 -0.965394437 -0.246597588 0.0304150302 -0.999534726 -0.00228059758 0.00791693944 -0.999957561 0.00471479725 -0.0110305687 -0.99983716 0.0142833507 9.65813597e-05 -0.999966204 0.00821822137 0.00119297579 -0.99996227 -0.00860700198 0.389200211 -0.486827523 0.781998813 0.360647827 -0.143028736 0.921670198 0.429247379 -0.864949763 0.260016561 0.0173853915 -0.782541215 0.622355998 0.0812267885 -0.995627701 -0.0461271256 0.551007867 -0.181159392 -0.814599037 0.644511759 -0.255233109 -0.720736146 0.553085625 -0.204075992 -0.807743371 0.771603942 -0.130916268 -0.622485518 0.725936055 -0.141467243 0.673055589 0.748960257 -0.469357789 0.467719853 0.391131818 -0.813258231 0.430844516 -0.67718792 -0.563157201 -0.473572075 -0.772459805 -0.508363783 -0.380620658 -0.691693664 -0.556026459 -0.460862666 0.0220450237 -0.699036479 0.714746177 0.0823235661 -0.901553094 0.424764454 -0.977823317 0.0351383202 -0.206462681 -0.781662643 -0.501908779 -0.370258242 -0.219138339 -0.953235686 -0.20813486 0.433422416 -0.835734129 -0.337184608 0.574840009 -0.763851583 -0.29341048 0.839571536 -0.0318200439 -0.542316496 0.677996457 -0.678561866 -0.282620847 0.77955997 -0.568282664 -0.263326854 0.999453604 0.0171296522 0.0282673202 0.825291812 -0.562771976 -0.0467030294 0.722431064 -0.65943557 0.207937837 0.786937118 -0.578189969 0.215467751 0.785675049 -0.532242 0.315330356 0.42192325 -0.89540416 0.14223969 -0.0132223619 -0.98741895 0.157572076 0.000208833211 -0.924823403 -0.380396724 0.0647389814 -0.724792838 0.68591851 0.0784793124 -0.824099004 0.560982883 -0.856357992 -0.48804602 0.168707222 0.112324782 -0.956113696 -0.270610034 0.582612813 -0.810298204 0.0630804673 0.0494672209 -0.822149694 -0.567118049 0.0425265394 -0.83258158 -0.552267492 0.343555689 -0.903634787 -0.255760968 0.566951394 -0.82369554 -0.00958003383 0.395431846 -0.917941749 -0.0318832658 0.787995994 -0.565093279 -0.244401097 0.912605405 -0.401745111 0.0758435577 0.767954946 -0.629257679 -0.119498588 0.945934415 -0.323276162 -0.0264694113 0.985757351 -0.147793621 0.0802461281 0.849627197 -0.497543395 0.17488347 0.860156119 -0.433241397 0.269134492 0.875475824 -0.283681661 0.391237557 0.899745166 -0.403808743 0.165520847 -0.996897757 -0.0701576322 0.0356758945 -0.997165203 -0.074598901 -0.00982451532 -0.993900597 -0.108291186 0.0208461564 0.974571824 0.0286559835 0.222235382 0.790275753 -0.458797216 0.40616414 0.234699801 -0.803499162 0.547087848 -0.0444075353 -0.76897496 0.637734652 0.440921992 -0.493408918 0.749756932 0.0571667925 -0.473320216 0.879033506 0.150570452 -0.280070812 0.948097527 0.938414216 -0.0206068493 0.34489733 0.127519548 -0.181099191 0.975162446 -0.00528150285 0.122960724 0.992397487 0.360959768 0.584585011 -0.726614356 0.449394912 0.617739081 -0.645323694 0.361762643 0.549995124 -0.752750397 0.456884891 0.645451665 -0.612085223 0.600402117 0.645279825 -0.472367734 0.373312175 0.895329952 -0.24294515 0.80937016 0.532850027 -0.246963248 0.949218094 0.252840638 -0.187234074 0.279283971 0.959840655 -0.0265784208 0.779441118 0.622609973 -0.0694863871 0.985485077 0.157048464 -0.0644590929 0.521928787 0.852588952 -0.0261225216 0.956664622 0.287585378 -0.0456886142 0.840458751 0.537725806 -0.0669333041 -0.0163406245 0.0387365893 0.999115825 0.937070489 0.337383181 0.0898411125 -0.0117449136 0.696585298 0.717377901 -0.56416291 0.0809451938 0.821686149 -0.713989317 0.694377303 -0.0897739902 -0.667285681 0.737392902 -0.104792856 -0.673224092 0.732235789 -0.102956958 -0.997886956 0.0559783839 -0.0329847038 -0.996765494 0.0755759552 -0.0273287874 -0.999057949 0.0217699185 -0.0375401899 -0.0185804553 0.689031243 0.724493444 -0.04375441 0.719444335 0.693170488 -0.718263507 0.690141737 -0.0883288905 0.0989697799 0.995009303 -0.0127092749 0.500647604 0.864877403 0.0365934074 0.192767039 0.981227279 -0.00582055515 0.497608006 0.866075337 -0.0479562022 0.929557383 0.364837795 -0.0530702062 0.649268448 0.760547638 -0.0042100423 0.875285208 0.481058002 -0.0495887883 0.872872233 0.464384109 0.149804547 0.019157026 -0.0286006816 -0.999407351 0.42344892 0.878664553 0.220543906 0.984237254 0.176836193 0.00243858737 0.93191421 0.0649203062 0.35682106 0.835181177 0.0323431194 0.549023032 0.0957720503 0.377339393 0.921109498 0.161999673 0.484126806 0.859870553 0.32065469 0.691437542 0.647375226 -0.0264206789 0.65039897 0.75913316 -0.00534552056 0.901468039 0.432812601 0.775542617 0.483066946 0.40642336 0.0205947924 -0.998356998 -0.0534709245 -0.0038140777 -0.998032033 -0.0625904277 -0.00729656965 -0.997407496 -0.0715892911 -0.995032132 0.0295345541 0.095072262 0.776923835 0.023540277 -0.629154384 0.028408926 -0.99958992 0.00360291754 0.0181983933 -0.999707699 0.0159162208 0.00927933771 -0.999765813 0.0195507687 -0.00744761527 -0.999786675 0.0192653518 -0.0166338701 -0.99980402 0.0107337218 -0.0366189294 -0.999304473 -0.00704550184 -0.0258183759 -0.999666512 0.00050421356 -0.106112935 -0.993235409 -0.0471540131 -0.0401161015 0.998958588 -0.0217354298 -0.00520769693 0.999974966 -0.00479385722 -0.134358257 -0.990517378 0.0286906231 0.168065488 -0.985690355 0.0129800886 0.999827206 0.000797968765 -0.0185709689 0.998525083 0.00195497111 -0.0542570464 -0.994726121 0.0991786495 -0.0261446163 -0.998236418 0.0537060946 0.0252923667 -0.99618715 0.0869189426 -0.00750323525 0.0110431286 -0.998907924 -0.0453984365 0.065764159 -0.997211158 -0.035284292 0.0841548443 -0.995016158 -0.0534860045 -0.0225198288 -0.998967946 -0.0394446813 0.051309038 -0.998631418 -0.0101300664 0.00820721686 -0.996367693 -0.0847590119 0.196941525 -0.980155706 -0.0225581117 -0.0752724558 -0.996796966 -0.0270161573 -0.0845786333 -0.995986819 -0.0292695668 0.039806474 -0.999176741 0.00783060305 -0.0449778177 -0.99849081 -0.0315127224 -0.109308824 -0.993303835 -0.037403807 -0.280281663 -0.93034482 -0.236433238 -0.137855604 -0.990449607 -0.00232263771 -0.0475083403 -0.998197019 0.0366830453 -0.0998703092 -0.994887412 0.0150000434 -0.879903316 -0.00357086211 0.47513929 -0.888631165 0.000562364177 0.458622158 -0.976382852 -0.000188340302 0.216047332 -0.976873279 0.000733581721 0.213817865 0.0864297822 -0.989977419 0.111689858 -0.135388255 -0.990754843 -0.00865419954 -0.158705413 0.98728317 -0.00919711869 -0.128276229 0.991165996 -0.0336930789 -0.997323632 -0.0248693507 0.0687540919 -0.998267949 -0.0381914638 -0.044749368 -0.998196244 0.0271458849 0.0535475835 -0.025509879 0.0144143831 0.999570668 -0.0420482568 0.992753267 0.11257387 0.199580148 0.978918195 -0.043439433 0.134249166 0.990650475 -0.0242661685 0.146573991 -0.989199638 0.000438029965 -0.0150686428 -0.940607488 -0.339161426 -0.792305827 -0.000350076589 -0.610124052 -0.68977803 0.0263496097 -0.72354126 -0.6751495 0.0297926888 -0.737079084 -0.00767386984 -0.0035218671 -0.999964356 -0.0124313924 -0.00805263314 -0.999890327 -0.0073731537 -0.00323548936 -0.999967575 -0.00257913931 0.00132985378 -0.999995768 -0.804596841 -0.00392758334 -0.593808472 -0.989789248 0.0254284181 0.140252113 -0.112579808 0.993185163 -0.030149946 -0.0187305659 0.998745918 -0.0464305617 -0.0637633801 0.99739635 -0.0336852856 0.00557326432 0.997850716 -0.0652909204 0.0512420982 0.997699022 -0.0443947874 0.0345334522 0.998672724 -0.0382132903 -0.0702692792 0.996841133 -0.0370129496 0.244367898 0.969437659 -0.0217921324 0.189781398 0.981231987 -0.0341593549 0.0204562768 0.998744547 -0.0457258783 0.380728185 0.807571411 -0.450415909 -0.0003393683 0.999569356 -0.029342398 -0.0355189554 0.99865371 -0.0378042869 0.120344058 0.987466693 0.102112047 -0.0980854034 0.995056748 -0.0155330459 -0.0711626634 0.997437119 -0.00741794985 -0.0457775816 0.998949349 0.00214293692 -0.223689109 0.0223757345 -0.974403679 -0.624413311 0.00372835877 -0.781085193 -0.374371737 0.0177934878 -0.92710799 -0.62261492 0.00143513875 -0.782527089 -0.57253468 -0.0158329308 -0.8197276 -0.583456635 -0.0121421311 -0.812053502 -0.633672476 0.00537300343 -0.773582816 -0.957037151 -0.00867371727 0.289835513 -0.998700857 0.0180478785 0.0476537272 -0.623232186 0.0071447459 -0.782004237 -0.634759784 0.00198654342 -0.772706985 -0.999161959 -0.000241446032 -0.0409310535 -0.998758137 0.00206038635 -0.0497789532 -0.994242311 -0.0806086808 0.0706008971 -0.992016971 -0.0739629343 0.102136306 -0.99444133 0.0318134092 0.100370824 -0.990694821 -0.0203190614 0.134576708 -0.993503094 -0.106672987 -0.0396544188 -0.999251187 -0.0147729637 -0.0357603915 -0.995112956 0.0666805878 0.0728281066 -0.993628204 0.101313479 0.0493813902</float_array>
          <technique_common>
            <accessor source="#normals_array" count="340" stride="3">
              <param name="X" type="float" />
              <param name="Y" type="float" />
              <param name="Z" type="float" />
            </accessor>
          </technique_common>
        </source>
        <vertices id="vertices">
          <input semantic="POSITION" source="#positions" />
        </vertices>
        <triangles material="scout_1a1a1a" count="392">
          <input semantic="VERTEX" source="#vertices" offset="0" />
          <input semantic="NORMAL" source="#normals" offset="1" />
          <p>0 0 1 1 2 2 1 1 3 3 2 2 4 4 0 0 2 2 5 5 0 0 4 4 4 4 2 2 6 6 5 5 4 4 7 7 6 6 7 7 4 4 8 8 5 5 7 7 6 6 9 9 7 7 8 8 7 7 9 9 10 10 0 10 5 10 3 3 1 1 11 11 3 3 11 11 12 12 12 12 11 11 13 13 14 14 15 14 16 14 17 15 12 12 13 13 18 16 19 17 20 18 21 19 22 20 23 21 19 17 21 19 24 22 24 22 21 19 23 21 19 17 24 22 20 18 18 23 20 24 25 25 26 26 27 27 18 28 26 29 18 23 28 30 29 31 30 32 31 33 32 34 27 27 26 26 33 35 34 36 35 37 36 38 37 39 33 40 36 41 33 35 38 42 37 39 39 43 33 40 33 35 35 37 38 42 40 44 36 38 41 45 41 46 36 41 38 42 41 46 38 42 42 47 40 44 41 45 43 48 22 20 8 8 9 9 9 9 23 21 22 20 24 22 23 21 9 9 40 44 37 39 36 38 44 49 45 50 46 51 47 52 26 29 28 30 47 53 48 54 26 26 49 55 50 56 39 43 33 40 39 43 50 56 51 57 34 57 52 57 53 58 41 59 42 60 43 48 41 45 53 61 53 58 42 60 54 62 55 63 20 18 43 64 25 25 20 18 55 63 50 65 56 66 34 36 29 31 50 56 49 55 50 65 57 67 56 66 55 68 43 48 53 61 58 69 53 58 54 62 58 70 55 68 53 61 58 69 54 62 59 71 60 72 47 52 61 73 50 65 34 36 33 35 62 74 63 75 64 76 64 76 63 75 65 77 46 51 62 74 64 76 64 76 44 49 46 51 66 78 44 49 64 76 67 79 66 80 68 81 63 75 62 74 69 82 62 74 70 83 69 82 69 82 70 83 71 84 72 85 73 86 74 87 70 83 75 88 71 84 62 89 75 90 70 91 62 89 76 92 75 90 49 55 39 43 9 9 77 93 78 94 79 95 44 49 66 78 80 96 32 34 26 26 48 54 28 30 18 23 25 25 80 96 67 79 81 97 81 97 67 79 82 98 81 97 79 95 83 99 83 99 84 100 81 97 83 99 79 95 78 94 83 99 78 94 85 101 84 102 83 99 85 101 84 102 85 101 32 34 48 54 84 102 32 34 86 103 48 54 47 53 87 104 84 102 48 54 87 104 48 54 86 103 86 103 88 105 87 104 89 106 88 105 86 103 13 13 90 107 17 15 17 15 91 108 92 109 17 15 90 107 91 108 93 110 92 109 91 108 93 110 94 111 92 109 95 112 94 111 93 110 93 110 96 113 95 112 28 30 25 25 61 73 96 113 97 114 95 112 95 112 98 115 94 111 97 114 99 116 95 112 95 112 100 117 98 115 100 117 95 112 99 116 82 98 79 95 81 97 50 65 29 118 57 67 29 31 49 55 30 32 101 119 56 120 57 121 102 122 56 120 101 119 103 123 34 124 102 122 51 125 52 126 103 123 104 127 58 70 59 128 55 63 105 129 106 130 107 131 101 119 57 121 102 122 101 119 107 131 29 132 31 133 57 134 31 133 107 135 57 134 104 127 59 128 108 136 109 137 104 127 108 136 110 138 104 127 109 137 110 138 55 68 58 70 110 138 58 70 104 127 111 139 112 140 113 141 114 142 60 72 115 143 82 98 116 144 22 20 112 140 117 145 113 141 114 146 117 146 112 146 31 33 30 32 118 147 119 148 31 33 118 147 31 133 119 149 107 135 119 148 120 150 107 151 119 148 118 147 120 150 118 152 121 152 120 152 118 153 122 154 121 155 121 155 108 136 120 156 121 155 109 137 108 136 110 138 109 137 121 155 110 138 121 155 122 154 123 157 124 158 125 159 106 130 105 129 126 160 61 73 106 130 14 161 117 162 114 162 115 162 117 163 115 143 127 164 128 165 113 166 129 167 100 117 130 168 131 169 130 168 105 129 131 169 14 161 106 130 126 160 128 170 132 171 125 172 132 171 123 157 125 172 133 173 128 170 129 167 133 173 129 167 127 164 133 173 132 171 128 170 127 164 16 174 133 173 130 168 15 175 105 129 15 175 126 176 105 129 27 27 32 34 85 101 15 175 14 177 126 176 16 174 127 164 14 178 134 179 135 180 124 181 136 182 137 183 132 171 138 184 124 158 123 157 138 184 139 185 124 158 137 183 138 184 123 157 140 186 138 184 137 183 140 186 141 187 139 185 142 188 141 187 140 186 142 189 140 186 137 183 142 188 143 190 141 187 144 191 143 190 142 188 132 171 137 183 123 157 75 192 145 193 146 194 76 195 147 196 145 193 76 195 148 197 147 196 147 196 148 197 149 198 149 198 150 199 147 196 151 200 152 201 148 197 22 20 116 144 8 8 148 197 152 201 149 198 149 198 152 201 150 199 153 202 150 199 152 201 154 203 152 201 151 200 152 201 155 204 153 202 152 201 154 203 155 204 154 203 156 205 155 204 89 106 86 103 157 206 16 174 158 207 133 173 89 106 157 208 88 105 159 209 157 209 160 209 159 210 161 211 162 212 163 213 159 214 164 215 157 208 165 216 88 105 165 216 157 208 159 217 162 212 165 218 159 210 162 219 166 220 165 221 167 222 168 223 156 205 169 224 170 225 167 222 166 220 158 207 169 224 171 226 158 207 166 220 71 84 75 88 146 227 172 228 171 226 166 220 170 225 169 224 173 229 169 224 158 207 173 229 174 230 144 231 142 189 144 191 175 232 143 190 174 233 175 232 144 191 176 234 175 232 174 233 177 235 176 234 178 236 178 236 176 234 172 228 176 234 179 237 172 228 176 234 177 235 175 232 179 237 176 234 174 230 172 228 179 237 171 226 136 182 133 173 158 207 9 9 6 6 49 55 116 144 68 81 8 8 49 55 6 6 180 238 98 115 6 6 2 2 98 115 2 2 94 111 2 2 3 239 17 15 94 111 2 2 92 240 92 240 2 2 17 15 3 239 12 12 17 15 162 219 172 228 166 220 19 17 181 241 78 94 72 85 182 242 73 86 18 16 181 241 19 17 77 93 19 17 78 94 107 131 120 243 102 122 102 122 120 243 103 123 108 244 51 125 120 243 51 125 103 123 120 243 51 125 108 244 59 245 51 125 59 245 54 246 51 125 54 246 42 247 34 248 51 125 38 249 38 249 35 250 34 248 51 125 42 247 38 249 21 19 19 17 77 93 183 251 88 252 165 221 20 18 24 22 40 253 43 64 20 18 40 253 158 207 16 174 173 229 106 130 25 25 55 63 131 169 105 129 122 254 131 169 98 115 100 117 15 255 130 256 173 229 184 257 64 76 65 77 66 78 67 79 80 96 163 213 185 258 161 259 150 260 186 261 147 262 186 261 182 263 145 264 186 261 73 265 182 263 153 266 186 261 150 260 147 262 186 261 145 264 182 263 65 267 63 268 145 264 182 263 146 269 146 269 182 263 71 270 182 263 187 271 65 267 63 268 71 270 182 263 71 270 63 268 69 272 187 271 188 273 65 267 188 273 189 274 184 275 184 275 65 267 188 273 190 276 189 277 191 278 191 278 189 277 188 279 102 122 34 124 56 120 45 50 44 49 183 251 151 200 46 51 45 50 21 19 82 98 22 20 122 254 105 129 110 280 133 173 136 182 132 171 39 43 37 281 24 22 81 97 84 100 87 282 181 241 85 101 78 94 87 282 183 251 80 283 135 180 134 179 192 284 135 180 192 284 193 285 193 285 192 284 194 286 193 285 194 286 185 258 193 285 185 258 163 213 163 213 164 215 193 285 47 52 28 30 61 73 86 103 47 53 157 206 47 53 114 287 157 206 110 280 105 129 55 63 170 225 173 229 168 223 162 219 161 288 172 228 85 101 181 241 27 27 181 241 18 16 27 27 6 6 98 115 180 238 99 116 153 202 155 204 159 214 163 213 161 259 61 73 25 25 106 130 156 289 154 203 195 290 171 226 136 182 158 207 68 81 5 5 8 8 66 80 184 257 68 81 103 123 52 126 34 124 61 73 115 143 60 72 47 52 60 72 114 142 45 50 154 203 151 200 183 251 44 49 80 283 118 291 30 32 131 169 116 144 82 98 67 79 124 158 111 292 125 159 113 166 125 159 111 292 68 81 184 257 5 5 128 165 125 159 113 166 14 161 127 164 115 143 14 161 115 143 61 73 30 32 49 55 180 238 117 163 129 167 113 166 129 167 117 163 127 164 68 81 116 144 67 79 122 254 118 291 131 169 79 95 82 98 77 93 173 229 130 256 155 204 130 256 100 117 155 204 99 116 155 204 100 117 15 255 173 229 16 174 138 184 140 186 139 185 142 189 136 182 174 230 137 183 136 182 142 189 99 293 186 294 153 295 183 251 195 290 45 50 87 282 80 283 81 97 73 296 186 297 196 298 73 296 196 298 74 299 99 293 196 300 186 294 87 282 88 252 183 251 159 214 160 301 164 215 167 222 156 289 195 290 165 221 195 290 183 251 173 229 155 204 168 223 30 32 180 238 131 169 46 51 151 200 148 197 46 51 148 197 62 89 148 197 76 92 62 89 197 302 72 303 0 304 72 303 74 305 196 306 72 303 196 306 93 307 96 308 196 306 97 309 97 309 196 306 99 310 196 306 96 308 93 307 72 303 93 307 90 311 93 307 91 312 90 311 72 303 1 313 0 304 72 303 13 314 1 313 13 314 72 303 90 311 11 315 1 313 13 314 197 302 0 304 191 316 10 317 191 316 0 304 10 317 190 318 191 316 45 50 195 290 154 203 131 169 180 238 98 115 5 319 184 320 10 321 77 93 82 98 21 19 167 222 195 290 169 224 182 322 72 323 197 324 187 325 182 322 197 324 157 326 114 327 160 301 10 321 184 320 190 328 189 329 190 328 184 320 76 195 145 193 75 192 66 80 64 76 184 257 39 43 24 22 9 9 155 204 156 205 168 223 167 222 170 225 168 223 195 290 165 221 166 220 195 290 166 220 169 224 37 281 40 253 24 22 187 330 197 331 188 279 197 331 191 278 188 279 171 226 179 237 136 182 134 179 124 181 139 332 192 284 134 179 141 333 175 334 192 284 143 335 135 180 111 336 124 181 135 180 193 285 111 336 193 285 164 215 112 337 164 215 160 301 112 337 114 327 112 337 160 301 194 286 192 284 175 334 112 337 111 336 193 285 141 333 134 179 139 332 192 284 141 333 143 335 177 338 178 339 185 258 175 334 177 338 194 286 178 339 161 259 185 258 185 258 194 286 177 338 161 288 178 236 172 228 136 182 179 237 174 230</p>
        </triangles>
      </mesh>
    </geometry>
  </library_geometries>
  <library_visual_scenes>
    <visual_scene id="scene">
      <node id="left_hip_roll_link">
        <instance_geometry url="#geometry">
          <bind_material>
            <technique_common>
              <instance_material symbol="scout_1a1a1a" target="#scout_1a1a1a" />
            </technique_common>
          </bind_material>
        </instance_geometry>
      </node>
    </visual_scene>
  </library_visual_scenes>
  <scene>
    <instance_visual_scene url="#scene" />
  </scene>
</COLLADA>