<?xml version='1.0' encoding='utf-8'?>
<COLLADA xmlns="http://www.collada.org/2005/11/COLLADASchema" version="1.4.1">
  <asset>
    <created>2026-09-14T00:00:00Z</created>
    <modified>2026-09-14T00:00:00Z</modified>
    <unit name="metre" meter="1" />
    <up_axis>Z_UP</up_axis>
  </asset>
  <library_effects>
    <effect id="scout_1a1a1a_effect">
      <profile_COMMON>
        <technique sid="common">
          <lambert>
            <emission>
              <color>0 0 0 1</color>
            </emission>
            <ambient>
              <color>0.05 0.05 0.05 1</color>
            </ambient>
            <diffuse>
              <color>0.1 0.1 0.1 1</color>
            </diffuse>
          </lambert>
        </technique>
      </profile_COMMON>
    </effect>
  </library_effects>
  <library_materials>
    <material id="scout_1a1a1a" name="scout_1a1a1a">
      <instance_effect url="#scout_1a1a1a_effect" />
    </material>
  </library_materials>
  <library_geometries>
    <geometry id="geometry" name="left_wrist_pitch_link">
      <mesh>
        <source id="positions">
          <float_array id="positions_array" count="192">-0.00165154436 -0.0235291906 -0.00978192408 -0.0114472415 -0.0119507601 -0.0207203943 0.00433695503 -0.0287956614 -0.021578867 0.00563466921 0.027985543 0.00234012189 -0.00119024247 0.0328442678 0.00372676901 -0.00551764108 0.0180790443 0.00236756098 -0.00614198158 -0.0174959842 -0.00105778745 -0.00364345033 -0.0330013372 -0.00199681148 0.00104711344 -0.0326118879 0.0040705991 0.00785322953 -0.0236341562 -0.0220231023 0.00749238441 -0.022169061 -0.029184863 0.0299227983 -0.0238039736 -0.0292008482 0.00409623329 0.0271585844 0.0176954288 0.00868578814 0.0291197728 0.0299082026 0.00383101287 0.0267325956 0.0120896818 -0.000320332212 0.0233683158 -0.00769226672 -0.0028828145 0.0327539034 -0.003174179 -0.00465639541 0.019438006 0.0139970984 0.00519223511 -0.028975321 -0.00260523148 0.0131388837 -0.0314118639 -0.0098022325 -0.0116716437 0.00959138479 -0.0208779257 -0.0114952056 0.00805553794 -0.00978030544 -0.00132914679 0.0276602078 -0.0189474151 -0.00135104789 0.0319545902 0.015053737 0.0506222248 -0.0138993664 -0.0209410172 0.0512616895 -0.00788779836 -0.00986113306 0.0382161215 -0.0272610988 -0.00977817737 0.0387039557 0.0188484266 -0.0291907862 0.0315147899 0.0236028992 -0.0221894123 0.0460410826 0.00305609172 -0.021990696 0.0291708894 0.0297740269 0.0302452724 0.0494354703 0.0131179495 -0.00965593755 0.0329550505 0.0299001522 -0.00975505356 0.0170507859 -0.00904063974 0.0299526304 0.017206464 -0.0161449146 0.0309423916 0.0356065854 -0.0145634832 0.0293290094 0.00861519668 -0.0155701451 0.0289449152 -0.00995210093 -0.0114939334 -0.00982413348 0.00660471851 0.0228481591 -0.0224733967 0.0524536185 0.00122694136 -0.0217251871 0.0125877745 0.0313319042 -0.00991232973 -0.000233080398 0.0280182101 -0.0108979326 0.00393130723 0.0329627395 -0.000875001191 0.0444108732 -0.00760485884 -0.0291687567 0.0361234397 -0.0210997481 -0.0217410997 0.0367315672 0.0292930044 -0.0213987287 0.0437637381 -0.0233531576 0.0298317149 -0.00713818939 0.0169978924 0.0298772361 0.00736324908 -0.0292849932 0.0299269389 0.0286312662 -0.00338418386 0.0300302859 0.0354388393 -0.00473904517 0.0304073598 0.0113322064 0.00364536443 0.0299577899 0.00345343072 0.00438414747 0.0294762123 0.0234552119 0.00842367392 0.0299586188 0.0258337557 0.0155941965 0.0296107028 0.0341419801 -0.0299771577 -0.0213423371 0.00315678469 0.029486835 -0.0190264806 -0.00732265459 -6.42399527e-06 -0.0227232929 -0.00902022608 -0.0129870242 0.0298915729 0.0200837515 2.00976001e-06 0.0299740117 0.00222372124 -0.0256627519 0.00528294174 0.00918398798 0.0233775191 -0.0292267837 0.0490667075 0.0125516756 0.0299626626 0.0380711146 0.0086592501 0.0295274835</float_array>
          <technique_common>
            <accessor source="#positions_array" count="64" stride="3">
              <param name="X" type="float" />
              <param name="Y" type="float" />
              <param name="Z" type="float" />
            </accessor>
          </technique_common>
        </source>
        <source id="normals">
          <float_array id="normals_array" count="378">-0.686484277 -0.72668314 0.0259013064 -0.932112157 -0.353790253 0.0774552822 -0.442482889 -0.896607757 -0.0174184497 0.112279244 -0.123668261 0.985951066 -0.712082028 -0.103043482 0.694493473 -0.775653481 -0.161933064 0.61003226 -0.719632447 -0.109636478 0.685644925 -0.0406385027 -0.994011819 -0.101434961 -0.0714180395 -0.977908552 -0.196454465 0.0620310009 -0.974907458 0.213793233 -0.429320782 0.903122783 -0.00727801537 -0.307259977 0.950374365 0.0487843566 -0.554118514 0.832435131 -0.00208690274 -0.884595037 -0.0171680506 -0.4660438 -0.711725295 0.702291787 -0.0152753731 -0.514532983 0.857265353 -0.0187591091 -0.785092056 0.617405832 -0.0494017974 -0.459320992 -0.887235105 -0.0428726114 -0.112407014 -0.993473232 -0.0193791054 -0.963779092 0.261674941 0.0515373312 -0.971881866 0.229028121 0.0546969324 -0.865792513 0.491903216 0.0918394923 -0.413008094 0.0322315283 0.910156846 0.891525149 -0.440222293 0.106710963 0.971158981 -0.224036485 0.0815955549 0.778910577 -0.626902819 -0.0170625616 0.744879425 0.530532062 0.404586703 0.674870074 0.737103462 0.0350541957 0.900680184 0.433858454 -0.0232810229 0.707605481 0.695614457 0.124157481 -0.0423117988 0.0302577 0.9986462 -0.0695035532 0.136158511 0.988245964 -8.19243869e-05 -0.0269537978 0.99963665 -0.0183809381 0.0411677845 0.998983145 -0.942067742 -0.327404201 0.0729033723 -0.794459403 -0.607019186 0.0190261006 -0.947482884 0.0288022943 -0.318506867 -0.999733329 -0.0211092178 0.00936446711 -0.998642087 -0.0263882969 0.0449182726 0.990881085 0.13428694 0.0110302856 -0.206024989 0.558034897 0.803835034 -0.60738647 0.568489611 0.554888427 -0.553920209 0.479581952 0.680568516 0.865094364 -0.0274743307 -0.500856161 0.697492003 -0.623117089 -0.353878468 0.00470553664 0.154340729 -0.988006473 0.0237964503 0.112276115 -0.99339205 0.05242946 0.00535048032 -0.998610318 0.161372796 -0.9840101 0.0753856599 0.162116662 -0.980106592 0.114495583 0.763681591 0.642861962 0.0593208112 0.681836307 0.726258993 -0.0874480978 -0.877617538 0.474842608 0.0656656548 -0.316714376 -0.946611702 0.0601524934 0.0397562049 -0.901731372 -0.430464864 -0.00883012265 -0.0114605082 0.999895334 -0.0601014234 -0.024255015 0.997897565 -0.0428201929 -0.00592306582 0.99906522 -0.00303327269 -0.0142050926 0.9998945 -0.0110898716 -0.00559787778 0.999922812 0.68251121 -0.192179799 0.705156326 0.0125256367 0.00673101097 0.999898911 0.0314923525 -0.0555062369 -0.997961581 -0.0464035124 -0.0542348512 -0.997449398 -0.0221291613 -0.053511411 -0.99832201 0.0691522434 -0.0463032164 -0.99653095 0.063181296 -0.0553918704 -0.996463656 0.0342696048 -0.0248834956 -0.999102771 -0.109720327 0.396248966 -0.911563635 -0.296019912 0.196818143 -0.934684336 -0.221868679 0.242444173 -0.944454908 -0.416136622 -0.0199840758 -0.909082472 -0.174798205 -0.0915205106 -0.980341554 -0.115090415 0.0303336214 -0.992891788 -0.927273989 -0.370050788 0.056792032 0.388285935 -0.88889122 -0.243118137 -0.532633007 0.843282759 -0.0719466507 -0.11910741 0.991663635 -0.0491594039 -0.0285835452 0.999572933 -0.00607914757 -0.797342777 0.595367134 -0.0989062637 -0.00374719664 0.00107391516 0.99999243 0.109598555 -0.99104619 0.0762600601 -0.939982057 0.254574329 0.227212697 -0.705526233 -0.707367897 0.0431672782 0.000595631602 -0.00028782562 -0.999999762 -0.000777772744 -0.000891509582 -0.999999285 0.000767694961 -0.000421741483 -0.999999642 0.00167472579 3.12867742e-05 -0.999998569 0.00112926413 -0.000589197502 -0.999999166 -0.0170791689 0.0197416916 0.99965924 0.00997307245 -0.0143305231 0.999847591 0.0509817675 0.0115515767 0.998632789 -0.0203611366 -0.0399147682 0.998995602 0.000428123749 -0.00760115916 0.999971032 -0.0323083401 -0.0229070112 0.999215424 -0.0168040562 -0.00839638896 0.99982357 0.016741043 0.0669525638 0.997615695 -0.0308274254 0.0295510162 0.999087811 -0.0299558938 0.0293422528 0.999120474 0.697147965 -0.712646008 -0.0782323703 0.874562383 -0.355662733 0.329612941 0.633068025 -0.0737704188 0.77057308 0.992844582 -0.0747770667 0.0931021646 0.955917358 -0.285315275 0.0694058985 -0.622766733 -0.0309464373 0.781795323 0.877943039 -0.222599 0.423869908 0.65452534 0.755851209 0.0168957412 0.0455861017 0.99567765 -0.0809189081 -0.236169547 0.97148329 -0.0210760795 0.267971098 0.476300895 -0.837453842 -0.139322251 0.125723451 -0.982233644 0.0712240115 0.119717538 -0.990249872 -0.376951784 0.926177442 0.0101353992 -0.294010699 0.954501688 0.0498425774 -0.934528947 0.0343824252 -0.354222327 0.0830232054 -0.957011163 0.277915001 0.862137198 0.18560119 -0.471457005 -0.0309736244 0.997315884 0.0663448423 0.116172329 0.910095453 -0.39778173 -0.00208319491 0.999675095 -0.0254051033 0.0563343652 0.998408079 0.00277934317 -0.0894020572 0.0458485819 -0.994939804 0.135377243 0.878730536 -0.457717806 -0.0319239348 0.999490321 0.000131322711 0.537156284 0.579652727 0.612752616 -0.35365662 0.171025172 -0.919607222</float_array>
          <technique_common>
            <accessor source="#normals_array" count="126" stride="3">
              <param name="X" type="float" />
              <param name="Y" type="float" />
              <param name="Z" type="float" />
            </accessor>
          </technique_common>
        </source>
        <vertices id="vertices">
          <input semantic="POSITION" source="#positions" />
        </vertices>
        <triangles material="scout_1a1a1a" count="124">
          <input semantic="VERTEX" source="#vertices" offset="0" />
          <input semantic="NORMAL" source="#normals" offset="1" />
          <p>0 0 1 1 2 2 3 3 4 3 5 3 6 4 7 5 8 6 9 7 10 8 11 9 12 10 13 11 14 12 15 13 5 13 16 13 17 14 3 15 5 16 18 17 0 0 19 18 20 19 21 20 22 21 12 22 23 22 17 22 24 23 25 24 26 25 27 26 28 26 29 26 30 27 31 28 32 29 33 30 34 31 35 32 33 30 36 33 34 31 37 34 0 0 6 35 38 36 10 37 9 38 39 39 31 28 25 24 40 40 41 41 15 42 15 43 42 43 3 43 2 2 19 18 0 0 11 44 43 44 44 44 28 45 45 46 29 47 46 48 19 18 26 49 45 50 32 29 31 28 23 51 12 51 14 51 5 16 47 52 17 14 19 18 46 48 48 53 36 54 35 54 34 54 49 55 35 32 50 56 33 30 35 32 49 55 36 33 33 30 51 57 36 33 51 57 52 58 30 59 52 58 51 57 30 60 53 60 54 60 53 61 30 59 51 57 1 1 37 34 21 20 1 1 0 0 37 34 3 15 17 14 14 12 55 62 2 63 9 64 24 65 55 62 44 66 44 66 55 62 9 64 24 65 44 66 29 47 45 46 39 67 29 47 24 65 29 47 39 67 56 68 45 46 28 45 22 69 56 68 38 70 9 71 22 69 38 70 1 72 57 73 9 64 2 63 1 72 9 64 56 68 28 45 38 70 58 74 21 20 37 34 8 75 7 75 18 75 15 76 3 15 40 77 42 78 16 78 4 78 21 20 20 19 1 1 21 20 58 74 47 52 21 20 47 52 5 16 15 79 21 20 5 16 49 55 53 61 59 80 59 80 33 30 49 55 21 20 41 41 22 21 58 74 37 34 6 35 2 2 55 81 19 18 5 82 4 82 16 82 19 18 48 53 18 17 48 53 60 83 18 17 11 84 10 85 61 86 43 87 11 84 61 86 43 87 61 86 27 88 26 49 19 18 55 81 13 89 47 90 30 59 30 59 47 90 52 58 52 58 47 90 58 91 52 58 58 91 36 33 30 92 54 93 62 94 63 95 62 94 54 93 58 91 48 96 36 33 35 97 62 94 63 95 35 97 48 96 46 98 46 98 62 94 35 97 48 96 35 97 36 33 55 99 24 23 26 25 29 100 44 100 43 100 35 101 63 101 50 101 50 56 63 95 49 55 49 55 63 95 53 61 54 93 53 61 63 95 62 102 46 103 25 24 31 28 62 102 25 24 8 6 60 104 6 4 8 105 18 105 60 105 53 61 51 57 59 80 51 57 33 30 59 80 30 27 62 106 31 28 41 41 21 20 15 42 48 53 6 35 60 83 40 77 45 107 56 108 15 109 16 109 42 109 1 72 20 110 57 73 57 73 20 110 22 111 22 111 9 64 57 73 22 112 41 113 56 108 38 36 61 114 10 37 9 7 11 9 44 115 26 25 25 24 46 103 43 116 27 116 29 116 47 52 12 10 17 14 13 11 12 10 47 52 13 11 40 77 3 15 38 117 28 118 61 119 45 107 40 77 32 120 7 121 6 121 18 121 27 122 61 119 28 118 25 24 24 23 39 39 6 35 0 0 18 17 31 28 39 39 45 50 13 11 30 123 32 120 42 124 4 124 3 124 17 125 23 125 14 125 40 77 56 108 41 113 3 15 14 12 13 11 13 11 32 120 40 77 58 74 6 35 48 53</p>
        </triangles>
      </mesh>
    </geometry>
  </library_geometries>
  <library_visual_scenes>
    <visual_scene id="scene">
      <node id="left_wrist_pitch_link">
        <instance_geometry url="#geometry">
          <bind_material>
            <technique_common>
              <instance_material symbol="scout_1a1a1a" target="#scout_1a1a1a" />
            </technique_common>
          </bind_material>
        </instance_geometry>
      </node>
    </visual_scene>
  </library_visual_scenes>
  <scene>
    <instance_visual_scene url="#scene" />
  </scene>
</COLLADA>