<?xml version='1.0' encoding='utf-8'?>
<COLLADA xmlns="http://www.collada.org/2005/11/COLLADASchema" version="1.4.1">
  <asset>
    <created>2026-09-14T00:00:00Z</created>
    <modified>2026-09-14T00:00:00Z</modified>
    <unit name="metre" meter="1" />
    <up_axis>Z_UP</up_axis>
  </asset>
  <library_effects>
    <effect id="scout_1a1a1a_effect">
      <profile_COMMON>
        <technique sid="common">
          <lambert>
            <emission>
              <color>0 0 0 1</color>
            </emission>
            <ambient>
              <color>0.05 0.05 0.05 1</color>
            </ambient>
            <diffuse>
              <color>0.1 0.1 0.1 1</color>
            </diffuse>
          </lambert>
        </technique>
      </profile_COMMON>
    </effect>
  </library_effects>
  <library_materials>
    <material id="scout_1a1a1a" name="scout_1a1a1a">
      <instance_effect url="#scout_1a1a1a_effect" />
    </material>
  </library_materials>
  <library_geometries>
    <geometry id="geometry" name="left_elbow_roll_link">
      <mesh>
        <source id="positions">
          <float_array id="positions_array" count="219">0.0221453384 0.024381496 -0.0114387749 0.0156721137 0.0317874514 -0.000651187904 0.01870442 0.0254718866 0.010983889 0.0274559632 0.0243080799 -0.0155926747 0.0698193312 -0.0306373611 -0.0155015821 0.0630001575 -0.0330981985 -0.0301140118 0.0479484387 -0.0283963457 -0.0319777504 0.0354917981 0.0333972462 -0.0326735601 0.0575883836 0.0176675078 -0.0266963709 0.0384289548 0.0178633165 -0.0321496874 0.0223855302 -0.0359971747 -0.02041867 0.000101022364 -0.0306784976 -0.0133516602 0.0383094661 -0.0350292511 -0.031187728 0.0440175831 -0.0156126926 -0.0324036852 0.0706582442 -0.0155013138 -0.00674978597 0.0623422414 -0.0148894489 -0.021634385 0.0951885805 -0.0329956636 -0.0118734213 0.0985372514 -0.0322567746 0.00809713174 0.100604035 -0.0350683965 -6.01422398e-05 0.039412044 0.0349034891 0.0322208218 0.00213520485 0.0333497971 0.0104133086 0.00111640501 0.0156127289 0.030772306 0.0287035219 -0.0284612402 0.0329622701 0.00116972695 -0.0150093287 0.0309535544 0.0248013418 -0.0358083099 0.0227207262 0.0499213375 -0.0293100085 0.031809397 0.0595121607 -0.033435896 0.0317664146 0.0687308758 -0.0300525073 0.0148318131 0.0731427595 -0.032384634 0.0235318691 0.0846167281 -0.0349687599 0.0174491238 0.0827673748 -0.0331755839 0.00224804715 0.0636824965 -0.0357149877 -0.0050545712 0.0558800101 -0.0359103195 0.0198382456 0.0966611654 0.0349417701 -0.0101248398 0.100448206 0.0341073945 0.00405126764 0.0917708501 0.0330778509 -0.0140486369 0.0292667281 0.0316177085 0.0194256138 0.0362065062 0.0254593156 0.0204267651 0.0329233743 0.0252050925 0.00919537712 0.0463444926 0.0243362542 -0.00752864219 0.0383587293 0.022124283 0.000471357605 0.0517974421 0.0247963648 0.0139695089 0.0469328165 0.0216529556 0.0103396317 0.0514521711 0.0251246803 0.0107553909 0.0716558024 0.0259064119 -0.000184388977 0.0667688623 -0.0163602848 0.0172816571 0.0939747691 0.032826934 0.0126745338 0.0613498166 0.0336186402 0.030377917 0.0589896441 0.0295138489 0.0229790285 0.00118799787 -0.0160323083 -0.0305868313 0.00090575713 -6.701245e-05 -0.015220332 0.00149202684 -0.0132017983 0.00820878427 0.00059663452 -0.0342442356 0.00573328882 0.000930457318 0.0171477795 -0.0298337936 0.00098338665 0.0333904289 -0.00738253118 0.00106928707 0.0150021575 0.00458103837 0.0316345654 0.0242661219 -0.00719800824 0.0263139661 0.0236799568 0.0110268798 0.0390926041 0.0274469852 -0.0140927481 0.0355211459 0.0248809289 -0.0203845035 0.0524790436 0.0247759577 -0.0127171017 0.0379726999 -0.0355775841 -3.51071844e-06 0.0613556877 0.033915028 -0.0303972494 0.0589437 0.0297594666 -0.0229917299 0.0832260698 -0.0327670015 -0.0024760121 0.0883935243 -0.0328685194 -0.000100413519 0.0293760076 0.0316945724 -0.0194246713 0.0832173899 0.0330262519 0.00246208743 0.0883944035 0.0328763537 0.000101503021 0.049257081 -0.0157160126 0.0311479438 0.057781864 0.0177818909 0.0275954381 0.0432339534 0.0176732335 0.0316607654 0.0827727616 0.0335125141 -0.00226024189</float_array>
          <technique_common>
            <accessor source="#positions_array" count="73" stride="3">
              <param name="X" type="float" />
              <param name="Y" type="float" />
              <param name="Z" type="float" />
            </accessor>
          </technique_common>
        </source>
        <source id="normals">
          <float_array id="normals_array" count="498">0.81529355 0.570805013 0.0973550528 0.519215286 -0.526631415 0.673108399 0.155206442 0.978485286 -0.135931939 0.272778511 0.919760644 -0.282191902 0.318082362 0.899379075 -0.299901396 0.19313255 -0.0996067896 -0.976103663 0.571314692 -0.0187350847 -0.820517182 0.273918718 0.0342507586 -0.961142778 -0.193932757 -0.9325158 -0.304638088 -0.328904867 -0.864579797 -0.379899114 -0.365023047 -0.702887714 -0.610497355 0.20731768 0.00426504947 -0.978264391 0.868455708 0.123545662 -0.480126232 0.753100753 0.104619861 -0.649533689 0.713827074 0.0463991724 -0.698783278 0.585166931 0.800787032 -0.12774922 -0.378779948 0.707111895 0.597091675 -0.232814476 -0.746028185 0.62389046 -0.417176455 -0.702313304 0.576818705 -0.190447673 -0.912788272 0.361313164 0.368397027 0.852491796 0.370865703 0.305856794 0.887806714 0.343876183 0.369005173 0.924606025 0.0945458934 0.494546711 0.211458519 0.84303546 0.494201779 0.206641138 0.844431221 0.497894734 0.273648113 0.822932303 0.112739041 0.986534119 0.118491761 0.113344178 -0.987042844 -0.1135763 0.0266492795 -0.998675883 -0.0440035127 0.0482313707 -0.996823847 -0.0633719712 0.421021432 -0.819360614 0.389087617 0.0153237302 -0.967509866 0.252368361 0.0190669708 -0.995369077 0.0942172706 0.471171021 -0.864154696 -0.176732808 0.194978938 -0.980081558 -0.0377275087 0.17131263 -0.983038783 -0.0654728115 0.442238063 0.365177125 -0.81918931 0.369335324 0.271727145 -0.888682067 0.207003146 0.0746865273 -0.975485325 -0.698476076 0.416207552 -0.58215332 0.211443633 0.580659509 -0.786209941 -0.611104667 0.778131008 0.145131931 0.986252666 -0.0487918742 0.157876596 0.98613137 0.0401534922 0.161036193 0.993565917 -0.0353221893 0.107606411 0.108125851 -0.99410367 0.00816903077 0.208086416 -0.881953239 0.42291671 0.0903074443 -0.989473403 0.113079466 -0.999391317 0.0133519387 -0.0322283283 -0.999455571 0.0304588489 0.012681067 -0.999985874 0.00467526633 0.00251783524 -0.999800503 0.0173888523 0.00982489437 -0.999022961 0.0404031985 0.0179098397 -0.999998987 -0.00126393815 -0.000665204308 -0.99982655 0.0132200159 -0.0131172286 -0.999944746 0.00926322956 0.00497042201 -0.99968785 0.0207024533 0.0139840022 -0.999965727 -0.00644926773 0.00519552734 -0.00387450866 0.995450556 0.0952007324 0.0187121034 0.998424232 -0.0529050641 0.122950323 0.990190208 -0.0663816109 0.116482176 0.515023232 0.849224925 0.0230923314 0.999433517 -0.024481561 0.0248808134 0.998584628 -0.0470073484 -0.0863184407 0.93867135 -0.333834141 -0.136636004 0.990546286 -0.0121906586 0.218899861 0.853740811 -0.472450495 -0.108220167 0.970791817 0.214129969 0.0181332398 0.988156855 0.152371988 0.00832635537 -0.999925792 -0.00889267679 0.0411847308 -0.998171568 -0.0442423001 -0.0231011529 -0.085071981 -0.996106982 -0.0574063845 -0.0111504709 -0.998288631 0.187507868 -0.0714071095 -0.979664147 0.0582522266 -0.201118544 -0.977833331 -0.0623445958 0.00113269931 -0.998054028 -0.092083782 0.0218788423 -0.995510876 0.871591806 0.149052605 -0.467023551 0.0898747668 -0.240959048 -0.96636498 0.0431158207 -0.980486691 -0.191799015 0.0489335991 -0.984802842 -0.166639775 0.0746555105 -0.991604507 -0.105579428 -0.36683771 -0.69735229 -0.615735173 -0.016492581 0.999795914 -0.0116671249 0.00140896195 0.999996603 0.00219230331 0.00118548493 0.999903142 -0.0138683189 0.0454256162 0.987938404 -0.148034647 0.00720755849 0.999954939 -0.00618116232 -0.0412191674 0.998166621 0.0443212241 -0.0753773004 0.99680835 -0.0262937918 -0.0635969788 0.967739046 -0.24379614 0.00367033621 0.999809444 0.019173393 0.167878315 0.948979139 0.266937286 0.874782741 0.0526061393 -0.481651068 -0.115119979 0.97050643 -0.21181275 -0.0548273772 0.994112551 -0.0934569314 -0.199996725 0.924523234 -0.324435145 -0.00806667749 0.999628007 0.0260523129 -0.139901266 0.99015522 0.00450375676 -0.204269603 0.925076723 0.320167094 0.042463623 0.998925507 -0.0185639765 -0.00463874824 0.980264604 0.197635546 -0.0304786507 0.999516308 -0.00618118653 -0.0311077219 0.998865783 -0.0360477231 0.140331939 0.989745021 0.0266791731 0.205391094 -0.880518913 -0.427201271 0.186061159 -0.921443343 -0.341062158 -0.0151526388 -0.999808431 0.0123915849 -0.0315992571 -0.987121105 0.156823009 -0.0734496042 -0.964104056 -0.255163699 0.039530009 -0.998660147 -0.033396598 0.157797098 -0.984996498 -0.0698709264 -0.433817655 -0.711637259 0.552607119 0.996354878 -0.0767507479 0.0372320786 0.991625488 0.0470405929 0.120274782 0.636201024 0.121270791 0.76193285 0.607751489 0.242249995 0.756275773 0.618293941 0.132565752 0.774686337 0.900709152 -0.075020358 0.427896023 0.901516318 -0.0993034467 0.421197325 0.899615467 -0.187095687 0.394572198 0.220760643 0.972207546 0.077956818 0.12781851 0.002240662 0.991795063 0.204735607 -0.0422085933 0.977906823 0.0728284195 -0.0619510598 0.995418549 0.0712677836 -0.188160792 0.97954911 -0.0120835146 -0.0105010187 0.99987185 0.0462433174 0.0406945646 0.998100936 -0.00350888469 0.0361183062 0.999341369 0.0128823128 0.123904586 0.992210507 0.0579825193 0.100333497 0.993262887 0.0588643067 0.126517713 0.990216255 -0.141957209 -0.988505185 -0.0520153753 0.257910192 -0.958312154 -0.122963831 -0.299181074 -0.81763339 0.491900742 -0.0544462763 -0.998514414 -0.00212856615 -0.00952418242 -0.999952614 -0.00200521271 0.694200456 -0.541113079 -0.474639237 0.638544738 0.0318795107 0.768924117 0.668767154 -0.0370285474 0.742549241 -0.111469574 -0.983613133 -0.141703039 -0.174701393 -0.972506583 -0.153981835 -0.394453675 0.744948804 -0.538012683 -0.989336729 0.130668461 0.0643322095 -0.191115364 0.870820403 0.452931285 -0.102240056 -0.552342713 0.827323675 0.117521495 -0.0338208191 0.992494285 0.530261636 0.150975421 0.834283531 0.234079406 0.0745608881 0.969354153 -0.153229341 0.923547983 0.351539344 0.96092844 -0.173724741 0.215490729 0.875928521 0.0488687605 -0.479959399 -0.0839361623 -0.0100621805 0.996420324 0.0267195627 0.980410635 0.195143804 -0.0176093429 0.983107209 -0.182181478 0.498021275 0.277156681 0.821680605 0.804253578 0.0952620134 0.586601555 0.693051636 0.181751907 0.697599947 -0.0433142073 0.998848915 0.0206075162 0.879615486 0.0930102691 0.46650371 -0.118623629 0.992864311 0.0122021111 -0.214000031 0.975995183 0.0404641405 0.212846085 0.894428432 -0.393312007 0.00815368723 0.998937726 -0.0453529917 0.116555721 -0.0300404113 -0.992729723 0.96164006 -0.180335701 -0.206706241</float_array>
          <technique_common>
            <accessor source="#normals_array" count="166" stride="3">
              <param name="X" type="float" />
              <param name="Y" type="float" />
              <param name="Z" type="float" />
            </accessor>
          </technique_common>
        </source>
        <vertices id="vertices">
          <input semantic="POSITION" source="#positions" />
        </vertices>
        <triangles material="scout_1a1a1a" count="150">
          <input semantic="VERTEX" source="#vertices" offset="0" />
          <input semantic="NORMAL" source="#normals" offset="1" />
          <p>0 0 1 0 2 0 3 1 1 1 0 1 4 2 5 3 6 4 7 5 8 6 9 7 10 8 11 9 12 10 13 11 9 7 8 6 14 12 4 13 15 14 16 15 17 15 18 15 19 16 20 16 21 16 22 17 23 18 24 19 25 20 26 21 27 22 28 23 26 24 29 25 4 2 27 22 28 26 26 21 28 26 27 22 30 27 29 28 31 29 17 30 29 30 18 30 26 31 32 32 29 28 33 33 34 34 35 35 2 36 36 37 37 38 38 39 39 39 40 39 41 40 42 40 38 40 43 41 42 41 41 41 44 42 45 43 14 44 46 45 47 46 48 47 49 48 11 49 50 50 50 50 11 49 51 51 11 49 52 52 51 51 53 53 49 48 50 50 52 52 23 54 51 51 21 55 54 56 55 57 55 57 51 51 21 55 21 55 51 51 23 54 56 58 2 59 38 60 2 61 57 61 38 61 56 58 0 62 2 59 58 63 59 64 3 65 58 63 3 65 56 58 60 66 59 64 58 63 60 67 58 63 39 68 58 63 56 58 39 68 31 29 32 32 61 69 12 70 31 29 61 69 12 70 61 69 10 8 12 71 49 72 6 73 12 71 6 73 5 74 6 73 49 72 13 11 13 11 49 72 7 75 53 76 7 75 49 72 13 77 7 77 9 77 7 5 62 78 8 6 3 65 0 62 56 58 26 31 24 19 32 32 32 32 31 29 29 28 18 79 31 29 16 80 5 81 31 29 12 70 5 81 16 80 31 29 12 10 11 9 49 82 7 83 54 84 20 85 20 85 19 86 47 87 34 88 20 85 47 87 20 85 33 89 35 90 20 85 35 90 62 91 7 83 20 85 62 91 47 87 46 92 34 88 44 93 15 14 8 6 41 94 37 95 48 96 43 97 41 94 44 98 60 67 43 97 44 98 63 99 60 67 44 98 48 96 44 98 41 94 5 3 4 2 16 100 16 100 4 2 64 101 4 2 28 26 64 101 64 101 65 102 16 100 28 26 17 103 65 102 17 103 16 100 65 102 28 26 30 104 64 101 65 102 30 104 28 26 62 105 35 35 63 106 66 107 63 108 67 109 68 110 46 45 48 47 68 110 48 47 67 109 34 34 46 45 35 35 48 47 66 107 67 109 30 27 31 29 64 111 24 19 23 18 52 112 15 14 13 11 8 6 4 113 14 44 27 114 45 115 44 116 69 117 44 118 70 119 69 120 39 68 56 58 40 121 71 122 70 123 19 124 70 123 47 125 19 124 19 124 21 126 71 122 69 127 71 122 21 126 23 128 22 129 69 127 69 127 22 129 25 130 69 127 21 126 23 128 22 129 26 131 25 130 24 19 52 132 10 8 35 35 46 45 68 110 63 108 72 133 67 109 72 134 63 134 68 134 68 110 63 106 35 35 66 107 48 47 36 135 66 107 36 135 1 136 1 137 36 137 2 137 70 123 71 122 69 127 25 138 27 139 45 115 14 12 15 14 44 93 45 43 27 114 14 44 52 132 11 9 10 8 32 32 24 19 61 69 24 19 10 8 61 69 65 140 29 28 30 27 18 141 29 28 65 140 7 142 53 142 54 142 55 57 54 56 53 53 50 50 55 57 53 53 21 55 20 143 54 56 64 101 31 144 65 102 31 145 18 145 65 145 63 146 66 147 59 148 63 99 59 149 60 67 6 73 13 11 15 14 45 115 69 117 25 138 8 150 62 150 63 150 8 6 63 151 44 93 42 152 43 152 38 152 33 89 20 85 72 153 20 85 34 88 67 154 67 154 72 153 20 85 17 155 28 23 29 25 1 156 3 157 66 147 68 158 33 89 72 153 34 88 33 89 68 158 70 119 44 118 48 159 40 121 56 58 38 60 22 17 24 19 26 31 15 14 4 13 6 73 66 147 3 157 59 148 38 160 57 161 37 95 57 162 2 162 37 162 43 97 39 68 38 163 60 67 39 68 43 97 38 160 37 95 41 94 55 57 50 50 51 51 48 164 37 38 36 37 47 165 70 165 48 165 68 158 67 154 34 88</p>
        </triangles>
      </mesh>
    </geometry>
  </library_geometries>
  <library_visual_scenes>
    <visual_scene id="scene">
      <node id="left_elbow_roll_link">
        <instance_geometry url="#geometry">
          <bind_material>
            <technique_common>
              <instance_material symbol="scout_1a1a1a" target="#scout_1a1a1a" />
            </technique_common>
          </bind_material>
        </instance_geometry>
      </node>
    </visual_scene>
  </library_visual_scenes>
  <scene>
    <instance_visual_scene url="#scene" />
  </scene>
</COLLADA>