<?xml version='1.0' encoding='utf-8'?>
<COLLADA xmlns="http://www.collada.org/2005/11/COLLADASchema" version="1.4.1">
  <asset>
    <created>2026-09-14T00:00:00Z</created>
    <modified>2026-09-14T00:00:00Z</modified>
    <unit name="metre" meter="1" />
    <up_axis>Z_UP</up_axis>
  </asset>
  <library_effects>
    <effect id="scout_1a1a1a_effect">
      <profile_COMMON>
        <technique sid="common">
          <lambert>
            <emission>
              <color>0 0 0 1</color>
            </emission>
            <ambient>
              <color>0.05 0.05 0.05 1</color>
            </ambient>
            <diffuse>
              <color>0.1 0.1 0.1 1</color>
            </diffuse>
          </lambert>
        </technique>
      </profile_COMMON>
    </effect>
  </library_effects>
  <library_materials>
    <material id="scout_1a1a1a" name="scout_1a1a1a">
      <instance_effect url="#scout_1a1a1a_effect" />
    </material>
  </library_materials>
  <library_geometries>
    <geometry id="geometry" name="left_shoulder_pitch_link">
      <mesh>
        <source id="positions">
          <float_array id="positions_array" count="264">-0.0136472154 0.00413516723 0.0117658908 -0.0189534351 -0.00138965517 -0.0133669954 -0.00819401909 -0.00218753959 -0.0152483201 -0.0380397774 0.0237622391 -0.00927350949 -0.0368078575 0.00601459481 -0.023865955 -0.0368753001 0.0269738827 -0.0245561302 -0.0369935259 -0.00236568367 -0.0137703912 -0.0374661572 0.0458609536 -0.0487114042 -0.032761205 0.0148521084 -0.0293074232 -0.00587496534 0.024650842 -0.0190713964 -0.0207540393 0.0182250906 -0.0104038483 -0.0209077056 0.0202624463 -0.0249321032 -0.0316099115 0.0528975986 -0.0484551042 -0.0264559388 0.0380859077 -0.0361171886 -0.0369893461 0.0364815593 -0.0380496569 -0.0342571102 0.0939228237 -0.0397738516 -0.0343709663 0.0678166002 -0.0477348678 1.79119234e-05 0.0154760107 -0.0271672085 -0.0217119828 0.0256758872 -0.0176499579 -0.0168325063 0.0230107326 0.00401879707 -0.0134834908 0.0173336007 -0.0103010274 -0.0177513603 0.0339802653 -0.040507406 -0.000339568331 0.0153041724 -0.00285567273 -0.0140031502 0.0518474393 -0.0462057926 -0.00784233212 0.0289681368 0.0163799487 0.0125758518 0.0383024439 -0.0417881049 0.00671782997 0.0565924644 -0.0472317487 0.0175965372 0.0222031102 -0.0161182396 0.0177889168 0.022051882 0.0126516372 -0.0389335528 0.0316836983 0.0157973077 -0.0276729986 0.0215652902 0.0241383575 -0.0318651572 0.00325546181 0.0242775511 -2.35852058e-05 0.0040580593 0.0181343518 0.00258106715 -0.00191926153 0.0119506 -0.0316199884 0.0953096002 0.0266149137 -0.0376622975 0.106886268 -0.00647869147 -0.0376024656 0.0846093595 0.0289214961 -0.018137997 0.0323839448 0.0225109607 -0.0176986959 0.0316229984 0.0258073285 0.0131660895 0.00627509085 0.0134442123 0.0123655284 -0.00271601067 -0.0145053463 -0.0165651683 0.0205819868 0.0078619672 -0.0221074186 0.0183921084 0.00697386824 -0.0132402405 0.00612610765 -0.0128981993 -0.0215933789 0.0305751525 0.0128711984 -0.0188174546 0.0200946573 0.0127460146 -0.00847450551 0.0254229028 0.0205003992 -0.00921956822 0.0216342006 0.013792593 0.0188131183 0.0506162569 -0.0496484563 0.0280199051 0.0363567472 -0.0362219401 0.0162312053 0.0419150256 -0.0388296135 -0.0118211489 0.0560891926 0.0353736095 0.015931692 0.0587559044 0.040954899 -0.0296226777 0.0709126964 0.0360090695 0.00575024448 0.00440955069 -0.0159663074 0.0196584463 -0.00083508977 0.0115243318 0.0190207418 -0.000339053222 0.0219830945 0.0109962001 0.0235701967 0.00929001532 0.0190846045 0.0206245035 -0.0299287736 0.0068434868 0.0195416734 -0.0210840795 0.0127262538 0.0180373993 -0.0069318898 0.0187840946 0.0264565833 0.012732801 0.0222254321 0.0233772974 0.0243055895 0.0282689389 0.0234308988 -0.0101146521 0.0220293868 0.0938879624 -0.0298919398 0.0290341545 0.066219382 -0.0445149913 0.0180274174 0.0862874761 -0.0425029323 0.0183302909 0.105320215 -0.000682141632 0.0305896513 0.0957789347 -0.0128134089 0.0179587193 0.104943596 -0.0175201371 0.00806385465 0.0254973304 0.0222957749 0.0110369446 0.057409469 0.0359107368 -0.0252020974 0.0708117634 -0.0491552316 0.0150691979 0.06943883 -0.0490785316 -0.0178494509 -0.00212313398 0.0154953431 0.0211732611 0.0537570007 0.0327461772 0.0290668216 0.0316082649 0.019766625 0.0177419502 0.0936772451 0.026495263 0.0209137574 0.0704194978 0.0329134576 0.0231727511 0.0839452967 0.0260774158 -0.0377428904 0.00272938353 0.0198375788 -0.0366439559 0.0386415645 0.0348593742 0.0211674664 0.00164976297 -0.0159371737 -0.0333958194 0.0243053045 0.0271952618 0.0286762994 0.0997033492 0.00375636411 0.0317711867 0.0411084183 0.0131685492 0.0322815143 0.0446975455 -0.0261857603 0.0355137587 0.0738214701 0.00712804915</float_array>
          <technique_common>
            <accessor source="#positions_array" count="88" stride="3">
              <param name="X" type="float" />
              <param name="Y" type="float" />
              <param name="Z" type="float" />
            </accessor>
          </technique_common>
        </source>
        <source id="normals">
          <float_array id="normals_array" count="726">-0.0335737318 -0.974620044 0.221333623 0.998562396 0.0397202075 0.0359921977 0.995339334 0.0963915363 0.00287531549 0.997000933 0.00574972993 0.0771759376 -0.489709646 -0.51468724 -0.703762412 -0.0171538107 -0.283697873 -0.958760262 -0.246695727 -0.566415906 -0.786329567 0.479004502 -0.772844374 -0.416252673 0.325697422 -0.935832441 -0.134680554 0.391078949 -0.841314733 -0.373157769 0.231520891 -0.573814094 -0.785579681 0.223025724 -0.709899068 -0.668058991 0.23052749 -0.702425003 -0.673391521 -0.983330607 0.0945385545 -0.155317038 -0.876356125 0.143987596 -0.459638476 -0.998077095 0.0211064015 -0.0582806505 0.059491992 0.00830243621 0.998194277 0.0981883854 -0.0351544656 0.994546711 0.0775779039 -0.0119766472 0.996914327 0.336803913 0.771035373 0.540432811 0.175283626 0.718319476 0.673270166 -0.00206574961 0.627604365 0.778529704 0.108743615 -0.906013012 -0.409041882 0.134257123 -0.88506043 -0.44569391 -0.982287824 -0.185102582 0.0291137528 -0.966496706 -0.199544102 0.161450669 -0.97616452 -0.210610941 0.0524012819 -0.109122671 0.557435513 0.823017538 -0.966024935 -0.192480057 0.172473937 -0.990714431 -0.135690063 -0.00854952075 0.828487337 -0.426542372 0.362864047 0.744676173 -0.542246938 0.389134526 0.813463211 -0.449894816 0.368608475 0.687741995 -0.444059998 -0.574301064 -0.0807785317 -0.99078095 0.10875617 -0.136937007 -0.990495265 -0.0129381958 -0.152656943 -0.98707372 -0.0487984605 0.75315094 -0.337994993 -0.56437844 0.414291263 -0.900426447 0.13264586 0.016670322 -0.280314267 -0.959763527 0.354292631 -0.935106218 -0.00728429621 0.400006801 -0.275437057 -0.874144733 0.42751196 -0.242202088 -0.870960236 0.515885115 -0.124558732 -0.847553968 0.28529793 0.746367872 -0.60128206 -0.793991625 0.513922751 0.324747115 0.294677705 -0.390883327 -0.871994972 0.708221138 -0.661352754 -0.247053191 0.870261014 -0.441748798 -0.217953593 0.884360313 -0.415034741 -0.213665783 -0.517958879 0.745521247 -0.419424206 -0.573852837 0.784261763 -0.235852465 -0.489335269 0.721413434 -0.490013927 -0.169500411 0.975769639 -0.138358891 -0.0347617604 0.999374807 0.00645128079 -0.327793807 0.918791711 -0.2199388 -0.00424053567 0.997941434 0.0639915541 -0.058199618 0.946913004 0.316178024 -0.0145987459 0.997872651 0.0635373816 -0.191331714 0.0342309065 -0.980928361 -0.190190122 0.0360870324 -0.98108381 -0.191017613 0.034741763 -0.980971575 -0.920249224 0.201279283 -0.335600913 0.205176651 -0.937659383 0.280530691 0.0162104834 -0.980696976 0.194860756 0.158171609 -0.957870185 0.239721537 0.243149534 -0.919873416 0.307751894 -0.911904871 -0.372602552 -0.172037497 0.579143941 -0.793270588 0.187920317 0.648591459 -0.623325586 -0.436800182 -0.475362062 0.581043124 -0.660620749 -0.115139008 -0.96801573 0.222909182 -0.12438722 -0.945892155 0.299692988 -0.173149139 -0.954893887 0.241240725 0.660575867 0.516008139 0.545321167 -0.160910219 0.986671209 0.0242459998 -0.145877391 0.969757318 -0.195679784 0.804608107 -0.475096881 -0.356214553 -0.205802083 -0.737994373 -0.642658412 -0.125140935 -0.777400374 -0.616431952 -0.207711726 -0.740435123 -0.63922739 0.971406341 -0.167615578 -0.168150917 0.315644205 0.00700262515 0.948851764 -0.0675436035 0.360673428 0.930243254 -0.268062413 0.174702272 0.947429001 0.0713241845 -0.565140605 0.821905673 0.305539072 -0.515730858 0.800417125 0.0878440365 -0.551739931 0.829377174 0.29152751 -0.212065548 -0.932759285 0.00739074871 0.0927398428 0.995662928 0.139846697 -0.189828292 0.971806645 0.103662819 -0.11154741 0.988337576 0.108148932 -0.993322134 0.040186815 0.0439613387 -0.995363832 0.0855468512 0.328910977 -0.944057584 -0.0239351057 0.0434019975 -0.991418839 0.123308524 -0.0311301854 0.172940031 0.984440267 -0.28241241 -0.953042388 0.109331608 -0.239450827 -0.965837419 0.0991026014 -0.343585581 -0.923755407 0.169188827 0.345800191 0.432600379 0.832633853 0.714540124 0.177262783 0.676764548 0.613120079 0.343476743 0.71141237 -0.0748512074 0.922510564 0.378644317 -0.0399324447 -0.901877403 -0.430142432 -0.109185845 -0.82435137 -0.555448711 -0.0311698839 -0.877116919 -0.479264379 -0.461369067 -0.853586435 0.241927281 0.979607999 -0.0749372691 -0.186420396 0.963709295 -0.214816004 -0.15848802 0.975415528 -0.220239773 -0.0076801274 -0.175423697 -0.774417996 -0.607867837 -0.0935605839 0.560141325 0.823096633 -0.168770865 0.881646812 0.440698594 -0.428350031 0.72543931 0.538752258 0.876341701 0.281008095 0.391228408 0.982003272 0.167825639 0.0866264701 0.97508204 0.183067903 0.125304326 0.180808514 -0.974768102 0.130902439 0.193922728 0.0887544975 -0.97699368 0.183316544 0.101235397 -0.97782743 0.212434724 0.0667638183 -0.974891841 0.333762139 -0.843516231 -0.420812547 0.21631223 -0.847584128 -0.484572083 0.59046638 0.625974476 -0.509416699 0.772183239 0.125281557 -0.622926593 0.3544209 0.555972397 -0.75185138 0.256420344 0.956259668 0.140769526 0.852294922 0.49059245 -0.181417853 0.316619664 0.902029872 -0.29341799 -0.0731102303 0.959321737 -0.272684336 0.0111898445 0.989500403 -0.144096479 -0.119388938 0.92517978 -0.360261887 -0.250400543 -0.965619802 0.0698422119 -0.0027773499 -0.56482774 0.825204134 -0.0976294205 0.338906467 -0.935740829 0.1494596 0.19414492 -0.969520271 -0.0799369439 -0.73018837 -0.678553581 0.0533984751 -0.568011463 -0.821286559 0.816472411 -0.57556051 -0.0458567776 -0.0281320885 -0.553102255 0.832638264 -0.588057518 0.36312741 -0.722721815 0.529310644 -0.531260252 0.661508024 -0.0283701364 0.436493307 -0.899260104 -0.17001678 -0.969774902 0.17501691 0.954159558 0.186460093 -0.234120101 0.941069305 0.265821517 -0.20911105 -0.261461645 -0.555676401 0.789215744 0.465923369 0.412432969 0.782824636 0.745877504 0.159810945 0.646627605 0.756963432 0.271256775 0.594496548 -0.676307857 0.734193683 -0.0597272441 0.0867695287 -0.982283175 0.166104943 0.246190891 -0.942266822 0.226987392 0.0325083993 -0.988975704 0.144465387 -0.264963239 -0.689564288 -0.674014509 -0.999550998 -0.0233759061 -0.0187433921 -0.999974489 -0.00432054326 0.00568672689 -0.0267248806 0.704318702 -0.709380686 -0.0194323566 0.99966085 -0.0173381064 0.0373907872 0.0330086686 0.998755395 -0.00782657135 0.292803347 0.956140637 -0.051499337 0.592556715 0.803880811 -0.192658648 -0.980174363 -0.0462700166 -0.0162054133 0.384105891 -0.923146784 -0.00304612843 0.451106757 -0.892464817 -0.0134774856 0.45402199 -0.890888572 -0.0234972481 0.308238178 0.951018989 -0.0208228137 -0.023374116 -0.999509931 0.151810005 -0.974257648 -0.166660488 -0.0118432278 -0.398621827 -0.917038918 0.0227933079 0.826370358 0.562665522 -0.0917862207 0.978007555 0.187287331 -0.236799449 0.284334928 -0.929020822 -0.150193557 -0.429741919 -0.890372813 -0.0166995283 -0.281579316 0.959392607 -0.736559033 -0.637443304 0.226156622 0.0729590952 0.708958983 -0.701465726 0.171644792 0.743312895 0.646547735 -0.880996048 -0.472842932 -0.0162964966 -0.0507219322 0.991702378 -0.11812558 -0.0455427617 0.869764388 0.491361201 0.295201451 -0.923527837 0.244851902 0.979663372 0.188282833 -0.0693484098 0.436119914 -0.898062706 -0.0572961979 0.97956419 -0.194473043 0.0513243191 0.972529948 0.215713263 -0.0874830633 -0.193021789 -0.903636396 0.382340044 -0.261863232 -0.892464936 0.367333621 -0.315317333 -0.832237124 0.456022263 -0.313864082 0.285689771 0.905467093 -0.01539566 -0.961846173 0.273157209 -0.192384064 0.0325184427 -0.98078078 0.720428824 -0.570329189 0.394597083 0.0457531251 -0.260603189 0.96436125 0.180226669 -0.36773327 0.912299633 0.0249972604 -0.155682459 0.987490833 -0.0161688365 0.998778939 0.0466819331 -0.230157077 -0.970070601 -0.0774002671 0.0508773029 -0.548774958 -0.834420502 0.000712417706 -0.624053597 -0.78138119 -0.166339204 -0.759099305 -0.629364431 0.0246079769 -0.355988264 -0.934166372 0.860383213 0.506660819 0.0550957471 0.245065704 -0.855563939 0.456018835 0.166255057 -0.89674592 0.410129279 0.423748642 0.894269407 0.143942058 -0.474548578 -0.455736637 0.753065586 -0.00105785462 0.392500371 -0.919751227 0.105480395 0.597643316 0.794793308 0.971083283 -0.09773013 0.217821091 0.981497884 -0.124248303 -0.145685583 0.976541221 0.0916737169 0.194841295 0.923695147 0.061179813 0.378212005 -0.259861469 -0.719847322 -0.643655121 0.00956529845 -0.978725612 -0.204950437 -0.0657917708 -0.801537514 0.59431392 -0.0556649417 -0.835811198 0.546187699 0.406975746 -0.885796964 0.223012164 0.931030571 -0.315660179 -0.183141276 0.070021376 0.811302602 0.58041805 -0.00532775745 -0.321796149 0.946793973 0.158399418 0.130225703 -0.978749633 -0.99914211 0.0215782952 -0.0353472568 -0.999352872 0.00651570084 0.0353752971 -0.999670506 -0.0224520732 -0.0124389865 -0.356502712 0.592224956 -0.72261709 -0.0609438755 0.795329452 0.603106081 -0.281545103 -0.924598515 -0.25661245 -0.768135548 -0.640152931 0.013112938 0.924031079 0.297174931 0.240527704 0.867889941 0.00820581988 0.496688694 0.962608755 -0.0988523364 0.252215266 0.975087881 -0.220123217 -0.0273759607 0.913915336 -0.215341806 -0.344073653 0.00411300268 0.936393142 0.350928724 0.997322381 0.0435560085 0.0587442704 0.69526726 0.714632034 0.0768407062 0.175402045 0.978740156 -0.106310025 0.846220732 0.298058659 0.441669047 -0.92247504 -0.345901221 -0.171441257 0.0925073028 0.914531946 0.393794</float_array>
          <technique_common>
            <accessor source="#normals_array" count="242" stride="3">
              <param name="X" type="float" />
              <param name="Y" type="float" />
              <param name="Z" type="float" />
            </accessor>
          </technique_common>
        </source>
        <vertices id="vertices">
          <input semantic="POSITION" source="#positions" />
        </vertices>
        <triangles material="scout_1a1a1a" count="196">
          <input semantic="VERTEX" source="#vertices" offset="0" />
          <input semantic="NORMAL" source="#normals" offset="1" />
          <p>0 0 1 0 2 0 3 1 4 2 5 3 6 4 7 5 8 6 9 7 10 8 11 9 12 10 13 11 14 12 15 13 16 14 7 15 4 16 17 17 11 18 5 19 11 20 14 21 18 22 5 23 13 11 18 24 13 25 11 26 12 27 14 21 11 20 13 25 12 28 11 26 18 24 11 26 10 29 9 30 19 31 20 32 9 7 11 9 21 33 22 34 10 35 20 36 9 7 21 33 23 37 24 38 19 38 9 38 25 39 23 39 26 39 22 40 27 40 28 40 29 41 30 42 31 43 32 44 33 44 0 44 34 45 35 45 36 45 37 46 30 42 29 41 30 47 37 48 38 49 39 50 40 51 33 52 41 53 20 54 42 55 0 56 43 57 31 58 32 59 31 60 30 61 30 62 44 62 42 62 30 63 42 64 45 65 46 66 30 63 45 65 41 67 44 67 19 67 41 68 24 68 45 68 24 69 46 69 45 69 38 70 24 70 30 70 37 71 44 72 24 73 24 74 38 74 46 74 41 53 45 75 47 76 24 77 41 77 19 77 48 78 49 79 50 80 37 48 51 81 38 49 52 82 34 83 53 84 51 85 37 86 24 87 48 88 8 6 7 5 54 89 43 90 2 91 55 92 33 93 40 94 33 93 55 92 56 95 40 96 54 89 2 91 57 97 24 98 9 99 58 100 59 101 54 102 27 103 22 103 60 103 60 104 9 105 27 106 57 97 9 99 60 107 61 108 28 109 27 110 27 106 9 105 25 111 25 112 59 113 27 114 50 115 27 116 58 117 27 118 59 118 58 118 32 119 62 120 56 121 63 122 27 123 49 79 64 124 65 125 66 126 67 127 68 128 69 129 47 76 57 130 41 53 70 131 57 130 46 132 24 98 57 97 28 133 71 134 51 85 24 87 72 135 66 126 73 136 9 137 20 137 10 137 8 6 48 88 58 138 0 139 74 139 1 139 71 134 24 87 28 140 71 141 28 141 70 141 75 142 52 142 61 142 41 143 42 143 44 143 62 144 70 144 28 144 61 108 62 145 28 109 52 146 62 145 61 108 76 147 75 147 61 147 77 148 78 149 79 150 19 151 10 151 42 151 63 152 61 153 27 154 3 155 18 155 10 155 7 15 6 156 80 157 69 129 15 158 35 159 5 160 4 16 11 18 26 161 21 162 25 112 20 36 17 163 22 34 13 11 5 23 14 12 51 164 70 165 38 166 69 129 68 128 64 124 21 162 26 161 23 167 48 88 16 168 73 136 59 169 60 169 22 169 73 136 16 168 72 170 17 171 4 172 43 57 72 135 16 173 15 158 33 174 74 174 0 174 52 82 53 84 81 175 69 129 66 126 15 158 54 176 40 176 39 176 38 166 70 165 46 177 54 178 17 171 43 57 17 179 54 179 22 179 20 54 60 180 59 113 59 113 11 181 20 54 61 153 63 152 76 182 29 183 4 2 3 1 69 129 35 159 67 127 40 94 82 184 55 92 8 185 80 185 6 185 29 183 31 186 4 2 3 187 10 188 19 189 81 175 53 84 36 190 57 130 60 180 41 53 3 187 19 189 44 72 29 191 3 187 44 72 29 191 44 72 37 71 4 172 31 58 43 57 46 192 32 59 30 61 42 193 20 32 19 31 62 194 83 195 56 196 31 58 32 197 0 56 41 53 60 180 20 54 11 198 17 163 20 36 8 6 82 199 2 200 2 200 1 201 8 6 82 199 40 202 2 200 0 203 2 203 43 203 42 64 10 35 22 34 53 84 34 83 36 190 46 204 47 205 22 34 68 128 67 127 84 206 57 207 22 207 28 207 83 195 52 82 81 175 45 65 42 64 47 205 47 205 42 64 22 34 51 164 71 208 70 165 82 209 58 100 54 102 62 194 52 82 83 195 85 210 86 211 87 212 86 211 68 128 87 212 54 102 59 101 22 213 23 214 25 111 9 105 3 215 5 23 18 22 56 95 80 216 74 217 33 93 56 95 74 217 22 218 57 218 70 218 70 219 32 219 22 219 32 220 56 220 39 220 80 221 56 196 83 195 32 119 70 222 62 120 48 88 73 136 65 125 66 126 69 129 64 124 80 221 83 195 81 175 35 223 81 224 36 225 80 157 81 224 35 223 80 157 35 223 7 15 32 226 39 50 33 52 25 112 21 162 59 113 44 227 30 227 24 227 46 132 57 130 47 76 80 228 8 228 74 228 1 229 74 229 8 229 72 135 15 158 66 126 68 128 86 211 65 125 68 128 84 230 87 212 85 210 75 231 76 232 85 210 76 232 63 233 86 211 85 210 63 233 86 211 63 233 49 234 65 125 86 211 49 234 68 128 65 125 64 124 34 83 52 82 77 148 67 127 35 159 34 235 59 113 21 162 11 181 78 149 77 148 52 82 58 138 82 199 8 6 82 236 56 236 55 236 56 237 82 237 39 237 39 238 82 238 54 238 65 125 73 136 66 126 58 117 48 239 50 115 84 230 77 148 79 150 32 240 46 240 22 240 48 88 7 5 16 168 78 149 52 82 75 231 84 206 67 127 77 241 27 123 50 80 49 79 49 234 48 88 65 125 67 127 34 235 77 241 15 13 7 15 35 223 78 149 75 231 87 212 87 212 75 231 85 210 78 149 87 212 79 150 87 212 84 230 79 150</p>
        </triangles>
      </mesh>
    </geometry>
  </library_geometries>
  <library_visual_scenes>
    <visual_scene id="scene">
      <node id="left_shoulder_pitch_link">
        <instance_geometry url="#geometry">
          <bind_material>
            <technique_common>
              <instance_material symbol="scout_1a1a1a" target="#scout_1a1a1a" />
            </technique_common>
          </bind_material>
        </instance_geometry>
      </node>
    </visual_scene>
  </library_visual_scenes>
  <scene>
    <instance_visual_scene url="#scene" />
  </scene>
</COLLADA>