<?xml version='1.0' encoding='utf-8'?>
<COLLADA xmlns="http://www.collada.org/2005/11/COLLADASchema" version="1.4.1">
  <asset>
    <created>2026-09-14T00:00:00Z</created>
    <modified>2026-09-14T00:00:00Z</modified>
    <unit name="metre" meter="1" />
    <up_axis>Z_UP</up_axis>
  </asset>
  <library_effects>
    <effect id="scout_1a1a1a_effect">
      <profile_COMMON>
        <technique sid="common">
          <lambert>
            <emission>
              <color>0 0 0 1</color>
            </emission>
            <ambient>
              <color>0.05 0.05 0.05 1</color>
            </ambient>
            <diffuse>
              <color>0.1 0.1 0.1 1</color>
            </diffuse>
          </lambert>
        </technique>
      </profile_COMMON>
    </effect>
  </library_effects>
  <library_materials>
    <material id="scout_1a1a1a" name="scout_1a1a1a">
      <instance_effect url="#scout_1a1a1a_effect" />
    </material>
  </library_materials>
  <library_geometries>
    <geometry id="geometry" name="left_knee_link">
      <mesh>
        <source id="positions">
          <float_array id="positions_array" count="636">0.0477201715 0.0384999998 -0.154945821 0.0482193008 0.0384999998 -0.120504551 0.0503416061 0.0272331275 0.00181622524 0.0487016551 0.03479743 -0.031965103 0.0474125594 0.0412000008 -0.111932009 0.047737278 0.0363076143 -0.0308370646 0.0494794585 0.027429821 0.00921111368 0.0223131608 0.0273817591 0.0447958149 0.0193797424 -0.0273448303 0.0452563465 0.0224067681 -0.0273846928 0.0447693393 -0.0483951122 0.0304930806 -0.218741417 -0.0473525263 -0.028388422 -0.240816534 -0.0484105535 -0.0305184126 -0.218275875 0.048702877 -0.0347426012 -0.0318860821 0.0482193008 -0.0384999998 -0.120504551 0.0503221489 -0.0272975452 0.00181687262 0.0477201715 -0.0384999998 -0.154945821 0.0469971225 0.0412000008 -0.154921323 0.0107569685 0.0278779343 0.0415037572 0.00898802094 0.0273952708 0.0401097126 0.0110203484 0.0273817573 0.0423216894 0.0454362296 0.0431765355 -0.111960746 0.0193641558 0.0278963316 0.0447638929 0.0193790533 0.0273849927 0.0452337898 -0.0433566868 -0.0399752297 -0.145656168 -0.0404152796 -0.0428799875 -0.180526018 -0.0390181616 -0.0428799875 -0.14593181 0.0495120734 -0.0274326932 0.00903631374 0.0477582552 -0.0362935178 -0.030861957 0.0474125594 -0.0412000008 -0.111932009 0.0469971225 -0.0412000008 -0.154921323 -0.0476662256 -0.0356279574 -0.180400729 -0.0472238846 -0.0305232443 -0.144448832 -0.0487916507 -0.030611774 -0.185081124 0.0250965897 0.0273816716 0.0436353758 0.0252045821 -0.0273844544 0.0435769074 -0.0147377364 0.0270000007 0.00596733904 -0.0128948456 0.0273843277 0.00920629222 -0.0145468023 0.027616974 0.0059028226 0.0401539244 0.0438581333 -0.218486443 -0.0348023959 0.0433951728 -0.224971011 -0.0350104496 0.0438491777 -0.2184356 0.0131946038 0.0255594477 -0.402855247 0.0115423929 -0.0251472443 -0.407005876 0.011536994 0.0251464266 -0.407010019 0.042881459 0.0439139381 -0.112360328 0.0459357202 0.0372863412 -0.0319301449 0.0468508303 0.0369104631 -0.031170113 0.0472892448 0.0278660245 0.0159291346 -0.00225126045 0.025176933 -0.406710297 0.00968425721 0.0242903382 -0.409428954 -3.2959746e-17 0.0242534 -0.409505308 -0.0349112377 -0.043900039 -0.163422957 0.0075929109 0.0224214718 -0.411174595 -3.6429193e-17 0.0223097317 -0.411263853 0.0454362296 -0.0431765355 -0.111960746 0.0428655334 0.0431154259 -0.218814999 0.0450217202 0.0431765355 -0.154854402 0.0134703908 -0.0273846909 0.0439406447 0.0164227951 -0.027907826 0.0444650799 0.0163285136 -0.0273846854 0.0449562781 0.0437721685 0.0418271013 -0.224895045 0.0447812006 0.0411114283 -0.220289811 0.0435220264 0.0330909602 -0.27866286 0.0433140472 0.0342060663 -0.279196322 0.0455326624 0.0384196378 -0.219546601 0.0109463772 -0.0273846909 0.0422584936 0.0136939241 -0.0278943256 0.0435164459 -0.0129819261 -0.027395241 0.00906292163 0.0105945831 -0.0278701987 0.0413839221 0.00888785534 -0.0273843259 0.0399884954 0.030856844 0.0278843902 0.039184548 0.0361999832 0.0278713237 0.0343348645 0.0407908373 0.0278660245 0.0287422612 0.0445035882 0.0278660245 0.0225707926 0.0361999869 -0.0278713237 0.0343348607 0.0312458798 -0.0273951218 0.0394666977 0.0308807343 -0.0278793368 0.0391744077 0.0135399355 0.0273630638 0.0439787023 0.0164055619 0.0273953006 0.0449711941 0.0472892448 -0.0278660245 0.0159291346 0.0468508303 -0.0369104631 -0.0311701056 0.00647291448 0.0206577424 -0.411852092 6.9388939e-18 -0.019766964 -0.411900014 2.18599455e-18 0.019766964 -0.411900014 0.0460243188 -0.0372645929 -0.0319323204 0.0428860262 -0.0439134277 -0.112258382 0.0428532287 -0.043061614 -0.220223129 0.0437779538 -0.041829031 -0.224786416 0.0447833017 -0.0411136858 -0.220213205 0.0424807221 0.0426060632 -0.226505965 0.042374108 0.0355318151 -0.281821609 0.0409607999 0.0363559984 -0.285699755 0.0399681963 -0.043409165 -0.224815771 0.037591923 -0.0363771431 -0.294955671 0.0396071114 -0.0366622433 -0.289253414 0.0448577441 0.0273951199 0.0228409264 0.0412154272 -0.02738153 0.0289032646 0.0449469388 -0.0273815319 0.0226689782 -0.0349112377 0.043900039 -0.163422942 -0.0390181616 0.0428799875 -0.14593181 -0.0309285633 0.0439000018 -0.112000003 -0.037588343 0.0421047397 -0.111266978 -0.030625293 0.043432761 -0.106869623 0.0164600145 0.0279094055 0.0444655232 0.0222645737 0.0278932899 0.0443132147 0.0249442793 0.0278866235 0.0431869738 -0.0472132377 0.0305221509 -0.144280225 -0.0476662256 0.0356279574 -0.180400729 -0.0486860871 0.0305000003 -0.180383116 0.0445035882 -0.0278660245 0.0225707926 0.0407908373 -0.0278660245 0.0287422612 0.0477421135 -0.0273815319 0.0159624778 0.0249442663 -0.0278866999 0.0431868471 0.0222647358 -0.0278934538 0.0443128906 0.0193616245 -0.0279049799 0.0447526425 0.0417634808 -0.0360053517 -0.28349039 0.0431038029 -0.0345940515 -0.279821366 0.0434412248 -0.0338412188 -0.278872728 0.0131946038 -0.0255594477 -0.402855247 0.039540749 0.0366402864 -0.289572209 0.037591923 0.0363771431 -0.294955671 -0.0404152796 0.0428799875 -0.180526018 -0.0417590849 0.042051807 -0.218245357 -0.0433566868 0.0399752297 -0.145656168 -0.0402789302 0.039974384 -0.110479593 -0.0372050703 0.0415786244 -0.106461562 -0.0125708897 0.0278660245 0.00889565796 0.0137122478 0.0278933421 0.043530412 0.0411057696 0.0273627639 0.0290644746 0.0366253257 -0.0273815282 0.0345354229 0.0311191101 0.0273951236 0.0395667292 0.0365109034 0.0273844618 0.0346564502 -0.0309285633 -0.0439000018 -0.112000003 -0.037588343 -0.0421047397 -0.111266978 -0.030625293 -0.043432761 -0.106869623 -0.0117192119 -0.0203054734 -0.40206641 -0.0473062396 0.0283624455 -0.241352886 -0.0117192119 0.0203054734 -0.40206641 0.0399681963 0.043409165 -0.224815771 -0.0447619036 0.0399752297 -0.180450916 -0.0445595793 0.0399752297 -0.215273455 -0.0440450124 0.0304384138 -0.108603053 -0.0418177135 -0.0255375672 -0.0907011703 -0.0415608101 0.0251491182 -0.0888412148 -0.0465991013 0.0372151695 -0.218655497 -0.046255596 0.0356279574 -0.145471975 -0.042350091 0.0370885506 -0.109119169 -0.033750359 0.0274758413 -0.0466307402 0.0450217202 -0.0431765355 -0.154854402 0.0401530899 -0.0438587144 -0.218470216 0.0476829298 0.0273627732 0.0161482617 -0.0402789339 -0.039974384 -0.110479608 -0.0372050703 -0.0415786244 -0.106461562 -0.0339760371 -0.0417585298 -0.241273999 -0.0180890616 -0.0315689631 -0.341752052 -0.00559566123 -0.0254462007 -0.404055983 -0.0138265286 -0.0278822258 0.0067765601 0.00970587414 -0.0242969524 -0.409415036 -0.00167153194 -0.025157867 -0.406877011 1.73472348e-18 -0.0242534 -0.409505308 -0.0350104421 -0.0438491777 -0.21843566 -0.0417590849 -0.042051807 -0.218245342 -0.03470736 -0.0433702469 -0.225442424 0.0076651331 -0.0224806946 -0.411127746 -0.0414527468 0.0414969809 -0.226040557 -0.033910919 0.0416977629 -0.241885945 -0.0405653119 0.0398779549 -0.242196813 -0.00451976107 0.0243608877 -0.408319592 -0.00590836396 0.0255046524 -0.403418809 -0.045487348 0.0350202769 -0.241868049 -0.0474631228 0.0356279574 -0.215357378 -0.0487980284 0.0305000003 -0.192125663 -0.0431515127 0.0353937708 -0.109257773 0.00651537953 -0.0207610764 -0.411824167 -0.042350091 -0.0370885506 -0.109119184 -0.046255596 -0.0356279574 -0.145471975 -0.0336729474 -0.0275132339 -0.046489276 -0.0465991013 -0.0372151658 -0.218655497 -0.0447619036 -0.0399752297 -0.180450916 -0.0445595793 -0.0399752297 -0.215273455 -0.0414624326 -0.0414989628 -0.225967094 -0.00895705819 0.0250312034 -0.401860535 -0.0101294648 0.0240723174 -0.402163744 -1.73472348e-18 -0.0223097317 -0.411263853 -0.00549428677 0.0224142615 -0.409820825 -0.00789243449 0.0246582311 -0.405037373 -0.00309351389 -0.0243019238 -0.408970088 -0.0440616719 -0.0304501727 -0.108735912 -0.0343900546 -0.0231294241 -0.04627949 -0.014666697 -0.0273909569 0.00595244393 -0.0343635306 0.0235592034 -0.0462158062 -0.0431396067 -0.0353823602 -0.10912165 -0.0474631228 -0.0356279574 -0.215357378 -0.0455233268 -0.0350686312 -0.241393521 0.0455361046 -0.0384231061 -0.219434097 -0.00903398823 -0.0249280408 -0.402056366 -0.00696506212 -0.0245421603 -0.406318992 -0.040594127 -0.0399170481 -0.241790935 -0.0037606929 -0.0223569218 -0.410612464 -0.0109764123 0.0229654908 -0.402202129 -0.00959178526 0.0227033254 -0.405827433 -0.00592769869 0.0198535677 -0.410318553 -0.00997284427 0.0201431587 -0.406609654 -0.0382294692 0.0225180555 -0.0672093853 -0.0339155793 -0.0266663563 -0.0463343859 -0.0109764123 -0.0229654908 -0.402202129 -0.0101294648 -0.0240723174 -0.402163744 -0.00846557971 -0.022590505 -0.407386541 -0.00479553686 -0.0198352188 -0.410965919 -0.00910360552 -0.0199989472 -0.407663822 -0.0385523848 -0.0226274915 -0.0691377968</float_array>
          <technique_common>
            <accessor source="#positions_array" count="212" stride="3">
              <param name="X" type="float" />
              <param name="Y" type="float" />
              <param name="Z" type="float" />
            </accessor>
          </technique_common>
        </source>
        <source id="normals">
          <float_array id="normals_array" count="747">0.991099954 0.130826637 -0.0246019941 0.984715402 0.173826769 -0.0109460372 0.9629336 0.261595935 0.0657756329 0.923213065 0.383460909 0.0252065565 0.859643638 0.510770023 0.0112585938 0.707885444 0.700474322 0.0907405689 0.89181143 0.414970011 0.180200487 0.268278956 0.000302001747 0.963341236 0.0307152644 -0.000150966589 0.99952817 0.277994841 -0.00020151971 0.960582554 -0.993140638 0.109217823 -0.0417508185 -0.982859671 -0.122216985 -0.138021305 -0.9933604 -0.10814821 -0.0392311253 0.926413178 -0.375719607 0.0243585408 0.984850466 -0.173060492 -0.0109398272 0.962411761 -0.263725609 0.0649030879 0.991099775 -0.13082929 -0.0245948136 0.865911722 0.499786466 -0.0202566069 -0.366084427 0.851246655 0.375980437 -0.506518602 0.777371168 0.37300536 -0.44026643 0.693638802 0.570114672 0.502304137 0.864252865 0.0275238343 0.192381889 0.681990206 0.705605149 0.0230024084 0.679983199 0.732866824 0.0238059759 0.676822782 0.735760927 -0.707440555 -0.705513895 0.0421673656 -0.378759027 -0.925476193 0.00594795076 -0.379521579 -0.924877703 0.0237622838 0.892553866 -0.414307684 0.178035647 0.714435458 -0.694088042 0.088452518 0.859749436 -0.510590971 0.0113037247 0.865895271 -0.49981308 -0.0203027353 -0.924235582 -0.381180823 0.0221317206 -0.992951572 -0.099320747 0.0646728873 -0.994205654 -0.107060611 0.00965375081 0.474701941 0.000208998856 0.880146623 0.47959879 -0.000191475818 0.877487838 -0.899321616 0.151855245 0.410073847 -0.787180901 0.357851177 0.502283573 -0.702143073 0.636978984 0.318202466 0.130174682 0.990754128 -0.0382198505 -0.131126925 0.987368107 -0.0889377818 -0.129502505 0.990787029 -0.039625112 0.679228008 0.677699804 -0.28173092 0.878468215 1.77446982e-05 -0.477800757 0.877791047 0.000115394301 -0.479043663 0.136107892 0.990055501 0.0355639942 0.156720266 0.982202291 0.103525028 0.408813387 0.904822826 0.119026378 0.581782043 0.78659147 0.206890002 -0.053015098 0.970405042 -0.235591829 -0.00248303195 0.890812635 -0.454364002 -0.0609945916 0.8228212 -0.565017641 -0.104149677 -0.994553924 0.00391255738 0.00359392329 0.588358939 -0.808591902 -0.114441685 0.462761879 -0.87906456 0.503093183 -0.863809407 0.027029451 0.49585098 0.867430568 -0.0411824286 0.483166575 0.875455379 -0.0113129392 -0.326231003 -0.685597181 0.650791645 -0.158119738 -0.690492272 0.705846012 -0.15530923 -0.689062297 0.707864583 0.704304278 0.704969168 -0.0835103542 0.866163135 0.497743785 -0.0448608883 0.990019977 0.0619478337 -0.12658149 0.954436898 0.263544083 -0.13998118 0.990326166 0.133347049 -0.0383743979 -0.592288196 -0.365750551 0.71792841 -0.212201536 -0.879026294 0.426946461 -0.519376516 -0.77627176 0.357281685 -0.382954657 -0.840821624 0.382576436 -0.722159088 -0.409018159 0.55784446 0.302500486 0.87052983 0.388163924 0.370565802 0.857744277 0.35630846 0.441150367 0.839816093 0.316378385 0.497955889 0.827546716 0.259241879 0.368711561 -0.856911063 0.360215545 0.454807371 -0.685168207 0.568941832 0.300719529 -0.869543493 0.39174211 -0.64811331 0.000161074597 0.76154393 -0.448112726 -0.000216289001 0.893977046 -0.441640496 0.000153784291 0.897192121 -0.218433216 -0.000175393521 0.975851893 -0.208979011 0.000299091713 0.977920055 0.575309515 -0.790767133 0.209060431 0.410898626 -0.903730333 0.120140918 0.222251073 0.127694055 -0.966591299 -0.0937810019 -0.111949198 -0.989278793 -0.128836483 0.115486719 -0.984918237 0.161439389 -0.981531143 0.102634899 0.13666904 -0.989959002 0.0360939912 0.49153018 -0.869340003 -0.0514398962 0.703181803 -0.705342352 -0.0895964429 0.866664827 -0.496984631 -0.0435700044 0.428769737 0.898243606 -0.0965136513 0.862026274 0.477166057 -0.170948222 0.72231096 0.667046547 -0.182525903 0.13579528 -0.986472368 -0.0918253139 0.184567094 -0.973112166 -0.137795687 0.525660157 -0.830849111 -0.18267788 0.891110659 0.000220378934 0.453786016 0.818759441 -0.000244611729 0.574136674 0.892855465 -0.000237368702 0.450343221 -0.104149759 0.994553924 0.00391064631 -0.379521519 0.924877703 0.0237622354 -0.125492096 0.990640819 0.0536888912 -0.436093211 0.896032631 0.0833563581 -0.143103287 0.982360959 0.120367721 -0.0246801879 0.992933035 0.116081327 0.00309078186 0.992453575 0.122581989 0.0333404914 0.990636051 0.132395744 0.071699515 0.987042546 0.143548638 -0.992887497 0.0995000079 0.0653769448 -0.923520148 0.383028269 0.0199974794 -0.994865835 0.0980251655 0.0251602959 0.500161111 -0.824030221 0.266107202 0.433717102 -0.843677759 0.316381633 0.608597875 -0.672529042 0.421085894 0.662876308 -0.67253077 0.329085588 0.948494256 -0.00024383569 0.316794187 0.0718085468 -0.987059712 0.143375933 0.0350417532 -0.990541279 0.132665187 0.0022712322 -0.992535889 0.121931694 0.790705979 -0.585363328 -0.179259241 0.922849894 -0.35104391 -0.158481061 0.981942654 -0.14572607 -0.120633952 0.679306626 -0.677711248 -0.281513631 0.494652927 0.850423157 -0.179161727 0.17746152 0.974640667 -0.136319429 -0.378758937 0.925476253 0.00594798615 -0.458137333 0.887352586 -0.0521112792 -0.707440734 0.705513716 0.0421673656 -0.698661625 0.705625772 0.118170299 -0.46572724 0.867482543 0.174849033 -0.45377931 0.842029035 0.291670144 -0.216582388 0.874482632 0.434018612 0.816693485 0.000181910073 0.577071726 0.727315307 -0.000241407266 0.686303437 0.345202416 0.678393602 0.648550212 0.205569074 0.682644367 0.701240361 -0.777863443 0.000207964462 0.628433347 0.448830158 0.686263561 0.572358131 0.354419708 0.678857625 0.643070042 0.651854813 0.68025285 0.335173547 0.610137582 0.661251068 0.436439246 0.534256399 0.675953448 0.507599235 -0.125469655 -0.99064213 0.0537176505 -0.436092734 -0.89603287 0.0833558962 -0.142968699 -0.982376575 0.120400392 -0.0258060452 -0.992979944 0.115433209 -0.939762592 -0.121724963 -0.319420278 -0.982692301 0.1221724 -0.139247268 -0.949761629 0.121646084 -0.288366169 0.126081988 0.988320887 -0.085587047 -0.708395481 0.705666661 0.0145046404 -0.706822693 0.706844926 -0.0277846809 -0.987119496 0.104160771 0.121431619 -0.984891951 -0.0838227123 0.151530653 -0.984502733 0.0854037255 0.153168499 -0.851815104 0.518939197 -0.0715060011 -0.922496736 0.381943792 0.0558449179 -0.838392556 0.525827408 0.143539205 -0.84036392 0.4820728 0.247778773 -0.149759367 0.697479725 0.700781167 -0.326669961 0.669841349 0.666782856 0.702617228 -0.672714889 0.231913283 0.347184569 -0.680700898 0.645065188 0.351961643 -0.681598127 0.641519308 0.48319456 -0.875439227 -0.0113654956 0.132344142 -0.990627468 -0.0337977186 0.947240114 0.00021357082 0.320524722 -0.698668599 -0.705618143 0.118174471 -0.465656728 -0.867520809 0.174846977 -0.14007102 -0.983551085 -0.11404974 -0.203772902 -0.969896853 -0.133329511 -0.130723834 -0.97486949 -0.180390507 -0.510206223 -0.812007368 0.283431947 -0.000627558504 -0.890656531 -0.4546763 -0.0446997322 -0.971483529 -0.232855409 -0.0404411405 -0.825016379 -0.563659906 0.199155703 -0.684167504 0.701606572 0.200585932 -0.683535874 0.701814771 0.0221664086 -0.671598494 0.740583599 0.0230281241 -0.668882132 0.743011713 -0.129978731 -0.990715504 -0.0398541912 -0.457841039 -0.887496948 -0.0522564873 -0.130539358 -0.987413704 -0.0892953873 0.745228231 0.000194171196 -0.666809499 0.614983618 4.06489016e-05 -0.788539886 0.61388135 0.00016680095 -0.789398313 0.54136318 -0.674641371 0.501781821 -0.496445656 0.861944735 -0.102922291 -0.133837223 0.984434247 -0.113915652 -0.502870381 0.851913929 -0.146164298 -0.255015343 0.815576673 -0.519424498 -0.125667825 0.977474511 -0.169561893 0.724788666 0.00019223681 0.688971221 0.620732427 -0.000195180663 0.78402245 -0.861251235 0.483432353 -0.156650871 -0.943419516 0.330706924 -0.0243426729 -0.993804574 0.111079194 -0.00372405071 -0.942279339 0.309203774 0.128462836 0.746800303 4.96049142e-05 -0.665048361 0.222473264 -0.135144204 -0.96552664 -0.838135421 -0.526502252 0.14256373 -0.922444463 -0.382034361 0.0560892932 -0.803162456 -0.544715822 0.241277277 -0.851738632 -0.519125104 -0.0710666329 -0.708395541 -0.705666602 0.0145046255 -0.706818342 -0.706852674 -0.0276984833 -0.496221393 -0.862141073 -0.102357514 -0.417124033 0.887089014 -0.197688043 -0.675507188 0.68902725 -0.262548208 0.0045847618 -0.596542001 -0.802568734 -0.0782990083 -0.466856152 -0.88086015 -0.4158822 0.460027635 -0.784484923 -0.420051783 0.828878641 -0.369481713 -0.194479778 -0.817228198 -0.542508662 -0.987325013 -0.103751794 0.120103829 -0.962549686 -0.0652276278 0.263141513 -0.852071464 -0.372672379 0.367545277 -0.960657597 0.087555863 0.263573498 0.0298725069 0.000412348832 0.999553621 0.618183494 0.000196136534 0.786033809 -0.941823125 -0.309775114 0.130417123 -0.849203885 -0.000718450581 0.528064609 -0.943485856 -0.330558151 -0.0237851087 -0.861421883 -0.483209968 -0.156398565 0.9903301 -0.133303449 -0.0384256281 -0.427448839 -0.876251757 -0.222419307 -0.382251263 -0.823283732 -0.419628203 -0.503376484 -0.85166955 -0.145846367 -0.303640753 -0.46901536 -0.829353273 -0.860441983 0.42238012 -0.285016954 -0.725705802 0.473175555 -0.49945572 -0.477316499 0.122357383 -0.87017101 -0.81257534 0.138634041 -0.56612885 -0.982302129 0.0810523853 0.168857947 -0.940803409 -0.218531698 0.25909999 -0.851034939 -0.41694814 -0.319207996 -0.672863543 -0.680818558 -0.289380014 -0.656792402 -0.464686126 -0.593877554 -0.411363274 -0.133114278 -0.901698887 -0.771229029 -0.123411141 -0.624480128 -0.982966959 -0.0766400173 0.167039722 -0.00167665386 0.984155953 -0.177297011 0.708730757 0.661355793 0.245579287 -0.156893939 0.700947821 0.695741653 -0.000931520946 -0.984266818 -0.176686019</float_array>
          <technique_common>
            <accessor source="#normals_array" count="249" stride="3">
              <param name="X" type="float" />
              <param name="Y" type="float" />
              <param name="Z" type="float" />
            </accessor>
          </technique_common>
        </source>
        <vertices id="vertices">
          <input semantic="POSITION" source="#positions" />
        </vertices>
        <triangles material="scout_1a1a1a" count="420">
          <input semantic="VERTEX" source="#vertices" offset="0" />
          <input semantic="NORMAL" source="#normals" offset="1" />
          <p>0 0 1 1 2 2 1 1 3 3 2 2 1 1 4 4 3 3 3 3 5 5 2 2 5 5 6 6 2 2 7 7 8 8 9 9 10 10 11 11 12 12 13 13 14 14 15 15 14 14 16 16 15 15 17 17 1 1 0 0 18 18 19 19 20 20 17 17 4 4 1 1 21 21 5 5 4 4 5 5 3 3 4 4 7 22 22 23 23 24 24 25 25 26 26 27 27 28 28 29 15 15 28 29 13 13 15 15 29 30 30 31 14 14 30 31 16 16 14 14 13 13 29 30 14 14 31 32 32 33 33 34 34 35 9 9 35 36 36 37 37 38 38 39 39 40 40 41 41 42 42 43 43 44 44 45 45 46 46 47 21 21 46 47 47 48 21 21 47 48 5 5 21 21 48 49 6 6 5 5 49 50 50 51 51 52 25 26 52 53 26 27 29 30 13 13 28 29 51 52 53 54 54 55 28 29 55 56 29 30 17 17 56 57 57 58 58 59 59 60 60 61 61 62 56 57 62 63 57 58 4 4 17 17 63 64 64 65 65 66 66 67 67 68 58 59 68 69 69 70 70 71 71 72 72 73 46 47 72 73 73 74 46 47 73 74 47 48 46 47 73 74 74 75 47 48 74 75 48 49 47 48 48 49 5 5 47 48 75 76 76 77 77 78 20 79 58 80 78 81 78 81 60 82 79 83 80 84 28 29 27 28 81 85 55 56 28 29 82 86 83 87 84 88 81 85 85 89 55 56 85 89 86 90 55 56 87 91 88 92 89 93 62 63 65 66 64 65 90 94 56 57 61 62 62 63 91 95 61 62 92 96 90 94 61 62 93 97 94 98 95 99 42 43 64 65 63 64 64 65 91 95 62 63 96 100 97 101 98 102 99 103 100 104 101 105 100 104 102 106 101 105 102 106 103 107 101 105 103 107 46 47 101 105 46 47 45 46 101 105 104 108 22 109 46 47 22 109 105 110 46 47 105 110 106 111 46 47 106 111 71 72 46 47 103 107 104 108 46 47 107 112 108 113 109 114 110 115 81 85 80 84 81 85 28 29 80 84 111 116 81 85 110 115 97 117 110 115 98 118 6 6 112 119 27 28 111 116 85 89 81 85 111 116 75 76 85 89 75 76 77 78 85 89 77 78 113 120 85 89 113 120 114 121 85 89 114 121 115 122 85 89 87 91 116 123 88 92 116 123 89 93 88 92 116 123 117 124 89 93 117 124 118 125 89 93 117 124 119 126 118 125 92 96 120 127 90 94 42 43 92 96 91 95 92 96 61 62 91 95 42 43 120 127 92 96 121 128 120 127 42 43 91 95 64 65 42 43 122 129 99 103 41 42 123 130 122 129 41 42 124 131 102 106 100 104 124 131 125 132 102 106 125 132 126 133 102 106 126 133 103 107 102 106 126 133 127 134 103 107 127 134 18 18 103 107 18 18 128 135 103 107 128 135 104 108 103 107 129 136 130 137 97 101 34 138 105 139 7 22 2 2 27 28 15 15 19 140 66 67 20 79 131 141 106 142 34 138 96 143 73 74 129 144 37 38 70 71 19 140 132 145 73 74 72 73 85 89 133 146 86 90 134 147 26 27 133 146 26 27 52 53 133 146 85 89 135 148 133 146 135 148 134 147 133 146 59 149 85 89 115 122 59 149 135 148 85 89 136 150 137 151 138 152 93 97 95 99 87 91 95 99 116 123 87 91 95 99 119 126 116 123 119 126 117 124 116 123 95 99 94 98 119 126 120 127 139 153 90 94 124 131 122 129 140 154 40 41 123 130 41 42 123 130 140 154 122 129 141 155 140 154 123 130 142 156 143 157 144 158 141 155 145 159 140 154 145 159 108 113 140 154 146 160 147 161 124 131 147 161 125 132 124 131 125 132 148 162 126 133 148 162 38 39 126 133 38 39 127 134 126 133 79 163 128 135 78 164 27 28 112 165 80 84 113 166 76 77 35 167 63 64 119 126 42 43 149 168 150 169 87 91 151 170 98 102 112 119 0 0 62 63 17 17 152 171 24 25 134 147 24 25 26 27 134 147 135 148 153 172 134 147 153 172 152 171 134 147 154 173 155 174 156 175 59 149 67 68 135 148 67 68 69 70 135 148 69 70 157 176 135 148 157 176 153 172 135 148 158 177 159 178 160 179 114 180 35 167 9 181 115 182 9 181 8 183 60 61 115 182 8 183 52 53 25 26 161 184 25 26 162 185 161 184 30 31 55 56 149 168 150 169 163 186 93 97 50 187 164 188 53 189 111 116 130 190 75 76 165 191 166 192 167 193 165 191 123 130 40 41 51 52 168 194 49 50 168 194 169 195 49 50 132 196 76 197 130 137 165 191 141 155 123 130 165 191 170 198 141 155 170 198 145 159 141 155 145 159 171 199 108 113 171 199 172 200 108 113 172 200 109 114 108 113 30 31 87 91 89 93 107 112 173 201 146 160 173 201 147 161 146 160 173 201 148 162 147 161 148 162 125 132 147 161 128 135 20 20 78 164 44 45 158 202 50 187 170 198 165 191 167 193 53 189 174 203 82 86 175 204 24 25 152 171 175 204 176 205 24 25 157 176 177 206 153 172 177 206 152 171 153 172 31 32 178 207 179 208 178 207 180 209 179 208 180 209 162 185 179 208 162 185 25 26 179 208 176 205 179 208 24 25 57 58 39 40 45 46 162 185 163 186 161 184 162 185 181 210 163 186 169 195 182 211 166 192 80 84 98 118 110 115 154 173 156 175 163 186 109 114 32 33 107 112 182 211 167 193 166 192 182 211 183 212 167 193 183 212 170 198 167 193 119 126 156 175 159 178 164 213 160 179 184 214 2 2 16 16 0 0 82 86 54 55 53 54 54 55 185 215 51 52 185 215 168 194 51 52 186 216 169 195 168 194 185 215 186 216 168 194 186 216 182 211 169 195 160 179 159 178 187 217 137 151 171 199 170 198 171 199 145 159 170 198 10 10 172 200 171 199 137 151 10 10 171 199 172 200 33 34 109 114 107 112 188 218 142 156 142 156 173 201 107 112 36 37 189 219 190 220 142 156 148 162 173 201 148 162 36 37 38 39 172 200 12 12 33 34 148 162 191 221 36 37 79 83 8 8 23 222 131 223 35 36 76 197 192 224 176 205 175 204 177 206 175 204 152 171 177 206 192 224 175 204 192 224 32 33 176 205 36 37 68 225 37 38 190 220 177 206 157 176 33 34 193 226 31 32 193 226 178 207 31 32 178 207 194 227 180 209 194 227 181 210 180 209 181 210 162 185 180 209 16 16 89 93 195 228 70 71 69 70 66 67 131 141 72 73 71 72 196 229 197 230 156 175 155 174 196 229 156 175 197 230 187 217 156 175 187 217 159 178 156 175 198 231 155 174 154 173 197 230 199 232 187 217 199 232 160 179 187 217 199 232 184 214 160 179 184 214 174 203 164 213 183 212 200 233 170 198 200 233 138 152 170 198 138 152 137 151 170 198 186 216 183 212 182 211 186 216 201 234 183 212 201 234 200 233 183 212 146 160 140 154 108 113 84 88 54 55 82 86 84 88 185 215 54 55 84 88 202 235 185 215 202 235 203 236 185 215 203 236 201 234 185 215 201 234 186 216 185 215 86 90 149 168 55 56 19 19 127 134 37 38 12 12 193 226 33 34 192 224 188 218 32 33 120 127 121 128 139 153 166 192 40 41 139 153 144 158 204 237 148 162 204 237 191 221 148 162 189 219 205 238 190 220 205 238 177 206 190 220 96 143 48 49 74 75 177 206 205 238 192 224 205 238 188 218 192 224 12 12 11 11 193 226 11 11 194 227 193 226 194 227 178 207 193 226 11 11 136 150 194 227 136 150 206 239 194 227 206 239 207 240 194 227 207 240 198 231 194 227 207 240 196 229 198 231 196 229 155 174 198 231 207 240 197 230 196 229 208 241 199 232 197 230 207 240 208 241 197 230 209 242 83 87 199 232 83 87 184 214 199 232 208 241 209 242 199 232 83 87 174 203 184 214 56 57 139 153 39 40 195 228 89 93 118 125 201 234 203 236 200 233 203 236 138 152 200 233 203 236 136 150 138 152 83 87 209 242 84 88 209 242 202 235 84 88 210 243 203 236 202 235 209 242 210 243 202 235 144 158 148 162 142 156 144 158 211 244 204 237 189 219 211 244 205 238 211 244 143 157 205 238 22 23 79 163 23 24 203 236 210 243 136 150 210 243 206 239 136 150 210 243 208 241 206 239 208 241 207 240 206 239 210 243 209 242 208 241 204 237 189 219 191 221 7 7 23 222 8 8 10 10 137 151 11 11 7 22 105 139 22 23 24 25 179 208 25 26 31 32 176 205 32 33 34 35 7 7 9 9 39 40 139 153 40 41 42 43 119 126 43 44 68 69 190 220 157 176 49 50 44 245 50 51 51 52 50 51 53 54 17 17 62 63 56 57 58 59 67 68 59 60 57 58 21 21 4 4 66 67 69 70 67 68 68 69 157 176 69 70 101 105 45 46 99 103 45 46 39 40 99 103 39 40 41 42 99 103 75 76 130 190 76 77 20 79 66 67 58 80 78 81 58 80 60 82 154 173 181 210 198 231 82 86 174 203 83 87 48 49 151 246 6 6 96 100 129 136 97 101 107 112 146 160 108 113 97 117 111 116 110 115 6 6 151 170 112 119 161 184 150 169 52 53 150 169 86 90 52 53 86 90 133 146 52 53 45 46 21 21 57 58 129 136 132 196 130 137 34 138 106 142 105 139 2 2 6 6 27 28 19 140 70 71 66 67 131 141 71 72 106 142 96 143 74 75 73 74 37 38 68 225 70 71 132 145 129 144 73 74 136 150 11 11 137 151 143 157 188 218 205 238 124 131 100 104 122 129 142 156 188 218 143 157 79 163 104 247 128 135 113 166 77 78 76 77 37 38 127 134 38 39 63 64 118 125 119 126 149 168 86 90 150 169 151 170 96 100 98 102 0 0 65 66 62 63 158 177 43 248 159 178 114 180 113 166 35 167 115 182 114 180 9 181 60 61 59 60 115 182 65 66 0 0 195 228 0 0 16 16 195 228 195 228 118 125 63 64 63 64 65 66 195 228 30 31 29 30 55 56 150 169 161 184 163 186 50 187 158 202 164 188 194 227 198 231 181 210 111 116 97 117 130 190 165 191 40 41 166 192 132 196 131 223 76 197 30 31 149 168 87 91 128 135 18 18 20 20 44 45 43 44 158 202 122 129 100 104 99 103 53 189 164 188 174 203 176 205 31 32 179 208 57 58 56 57 39 40 181 210 154 173 163 186 80 84 112 165 98 118 109 114 33 34 32 33 87 91 150 169 93 97 94 98 93 97 163 186 163 186 156 175 119 126 43 248 119 126 159 178 119 126 94 98 163 186 164 213 158 177 160 179 2 2 15 15 16 16 107 112 32 33 188 218 36 37 191 221 189 219 172 200 10 10 12 12 79 83 60 82 8 8 131 223 34 35 35 36 36 37 190 220 68 225 16 16 30 31 89 93 131 141 132 145 72 73 146 160 124 131 140 154 19 19 18 18 127 134 139 153 121 128 166 192 121 128 42 43 169 195 42 43 44 245 49 50 169 195 42 43 49 50 169 195 166 192 121 128 96 143 151 246 48 49 56 57 90 94 139 153 144 158 143 157 211 244 22 23 104 247 79 163 204 237 211 244 189 219</p>
        </triangles>
      </mesh>
    </geometry>
  </library_geometries>
  <library_visual_scenes>
    <visual_scene id="scene">
      <node id="left_knee_link">
        <instance_geometry url="#geometry">
          <bind_material>
            <technique_common>
              <instance_material symbol="scout_1a1a1a" target="#scout_1a1a1a" />
            </technique_common>
          </bind_material>
        </instance_geometry>
      </node>
    </visual_scene>
  </library_visual_scenes>
  <scene>
    <instance_visual_scene url="#scene" />
  </scene>
</COLLADA>