<?xml version='1.0' encoding='utf-8'?>
<COLLADA xmlns="http://www.collada.org/2005/11/COLLADASchema" version="1.4.1">
  <asset>
    <created>2026-09-14T00:00:00Z</created>
    <modified>2026-09-14T00:00:00Z</modified>
    <unit name="metre" meter="1" />
    <up_axis>Z_UP</up_axis>
  </asset>
  <library_effects>
    <effect id="scout_1a1a1a_effect">
      <profile_COMMON>
        <technique sid="common">
          <lambert>
            <emission>
              <color>0 0 0 1</color>
            </emission>
            <ambient>
              <color>0.05 0.05 0.05 1</color>
            </ambient>
            <diffuse>
              <color>0.1 0.1 0.1 1</color>
            </diffuse>
          </lambert>
        </technique>
      </profile_COMMON>
    </effect>
  </library_effects>
  <library_materials>
    <material id="scout_1a1a1a" name="scout_1a1a1a">
      <instance_effect url="#scout_1a1a1a_effect" />
    </material>
  </library_materials>
  <library_geometries>
    <geometry id="geometry" name="left_hip_yaw_link">
      <mesh>
        <source id="positions">
          <float_array id="positions_array" count="285">-0.0513079651 -0.0529512502 0.0182273835 -0.0240903366 -0.0527069047 0.0493798852 -0.0536171235 -0.0366799571 0.0151433656 -0.0459586456 -0.0565957874 -0.0152270813 -0.0427126177 -0.0670534894 -0.0160662849 -0.0435229801 -0.0657164454 0.0119126216 -0.0471955091 0.00572322123 -0.0262975283 -0.0227845907 -0.00290454249 -0.0524039716 -0.0534297563 -0.00318301725 -0.0136750638 -0.0302357133 -0.0565765873 -0.0360343941 -0.0483239554 -0.0528824478 -0.0254308693 -0.0184920207 -0.0529652573 -0.0507437624 -0.0483561158 -0.0359207615 -0.0430772901 -0.0298648868 -0.00364152039 -0.0581064373 -0.00437736744 -0.0362048708 -0.0654643178 0.00708606979 -0.0569809452 -0.0474201664 -0.0162247587 -0.0594568402 -0.0458392873 0.0220739916 -0.0677179247 -0.0403763764 -0.0268896148 -0.0678086281 -0.0351740271 -0.0237937737 -0.0369804613 -0.0487641096 0.0162054971 -0.0373900533 -0.0526993014 -0.0413222238 -0.0362144224 0.0515218191 -0.0506392829 -0.0198649224 0.043203719 -0.0599819422 -0.036364276 0.0226240959 -0.04827426 -0.00273686787 0.0484576076 -0.0629964918 -0.00359705719 0.0141746281 -0.0289863572 -0.0446829312 0.0774885342 -0.0250760615 -0.0375859365 0.0734186098 -0.00763059314 -0.0593762919 0.0473593026 -0.0395894796 -0.0567579418 0.0269732606 -0.0181729123 -0.0669139847 0.0428630151 -0.0232651178 -0.0567591637 0.0429583117 -0.0190983694 -0.0485061556 0.0720584244 0.0165569838 -0.0527860075 -0.0515892208 0.0491045564 -0.0531468913 -0.0243439917 -0.0251297299 -0.0370602235 0.0485184006 -0.0531954467 0.00530094281 0.0153816994 -0.0164467935 0.00561654847 -0.0529317372 0.0215328895 -0.0483457893 0.0742986724 0.0412798673 -0.0364992917 0.0379823968 0.0507734045 -0.0209403131 0.0772540718 -0.0479566716 -0.00363311148 0.0285339504 -0.0512948185 -0.0176733993 0.0774572119 -0.050719317 0.0175700989 0.0757111013 -0.0503103361 -0.00117513549 0.0744067803 -0.0285129491 0.00298260897 0.0470470451 -0.0389222503 0.0339918397 0.0727856308 -0.00439436641 0.00262397341 0.0542432144 0.0306547899 0.00590329058 0.0451245829 0.0631901845 -0.0360992812 -0.0105746025 0.058587186 -0.0362830572 0.0259698834 0.0540305115 -0.0371148176 0.0071866014 0.0238995291 -0.00401514117 -0.0599977002 0.0463146307 -0.00370268105 0.0306016468 0.0100514535 -0.00334242242 0.0556667894 0.014732657 -0.00270267995 0.0745290965 -0.0478641316 -0.0371286124 -0.0256931633 0.0430797227 -0.0595613569 -0.0218867026 0.0277417805 -0.0593047924 -0.0413379334 0.0396381617 -0.0546879992 -0.027478274 0.046231512 -0.0668785945 0.00508161541 0.0447819456 -0.0570365153 0.0171626117 0.0184981581 0.0482033975 0.0721313879 0.0469268188 0.0289517585 0.0777650401 0.0490493514 0.020546319 0.0726437643 0.0181466211 -0.0591563433 0.0450600982 0.0246624351 -0.0670128763 0.0378480703 0.028286349 -0.0561486073 0.0384328589 0.0491159074 -0.0528820083 0.0231761169 0.0231804736 -0.0530337542 0.0490080453 0.026566688 -0.0388079323 0.0722955018 0.049960658 -0.0203287974 0.0456685908 0.0498601981 -0.00204644864 0.0741781592 0.0485295132 -0.00266089989 0.0460935496 0.0506615229 0.00547631644 0.019041907 0.0527876429 0.00183016737 -0.016148692 0.00654952228 -0.0371275395 0.0541300587 0.0329288691 -0.00313799619 -0.0452805534 0.0303610824 0.00558207463 -0.0452567488 -0.0170521177 0.0484294482 0.0727159083 -0.0067760637 0.0552036613 0.0778128207 -0.0641327277 -0.0357184149 -0.0130160023 -0.0582403056 -0.00378395338 -0.0264914129 0.0503011495 -0.0041056294 -0.0406360365 0.065373756 -0.00442770123 -0.0020887102 -0.000513117295 0.0170302298 0.0525899194 0.00042120475 0.0186091419 0.0726889148 -0.0133441165 -0.00149797683 0.0749904141 0.0487250425 -0.0370195322 -0.0247603189 0.0024726002 -0.0679316148 0.00490935845 -0.0176945161 -0.0306982063 0.0789746046 -0.035905607 0.0120596094 0.0796053782 0.0246055704 -0.0272223838 0.0789956599 0.0250713192 0.0286043808 0.0795563608 0.045872476 -0.0362642631 -0.0460434593</float_array>
          <technique_common>
            <accessor source="#positions_array" count="95" stride="3">
              <param name="X" type="float" />
              <param name="Y" type="float" />
              <param name="Z" type="float" />
            </accessor>
          </technique_common>
        </source>
        <source id="normals">
          <float_array id="normals_array" count="690">-0.75301528 0.0178055167 0.65776211 -0.758921742 -0.0072181914 0.651141882 -0.754993856 0.00967118237 0.65566057 -0.978478491 -0.205494881 0.0187545996 -0.955270052 -0.295424253 -0.0135502322 -0.985702217 0.111823536 0.126042068 -0.742828608 -0.316292077 -0.590055048 -0.782369256 -0.195388064 -0.591372907 -0.691131711 -0.245662048 -0.679696321 -0.773950517 -0.2141269 -0.595944881 -0.393586427 -0.784748673 -0.478810191 -0.759269297 -0.608018458 -0.231999472 -0.139091671 -0.913128614 -0.383209735 -0.724446237 -0.0154072568 -0.689159155 -0.442082375 0.0299200062 -0.896475315 -0.0489672311 -0.00109382672 -0.998799801 0.0480970629 -0.80359 -0.593236685 -0.124284662 0.889849842 -0.438999504 -0.0575630665 -0.722481549 -0.688989758 -0.0279331394 -0.638242722 -0.769328237 -0.068369709 -0.75115025 -0.656581223 -0.0965853408 0.0907190517 -0.991181791 -0.0435337275 -0.028403081 -0.998648107 -0.080737114 0.0549062081 -0.995221972 -0.869795203 -0.421528488 0.256456703 -0.951672435 -0.125519678 0.280293345 -0.946891844 -0.0597217716 0.315957487 -0.918895841 0.00588400988 0.394456357 -0.98434186 0.0245054979 0.174558207 -0.0550178513 -0.998485267 -0.000389083958 -0.024719635 -0.99947077 0.0211447068 -0.0362169594 -0.999279439 0.0113544045 -0.784477592 -0.593751192 0.179037631 -0.883413196 -0.357331663 0.30314219 0.714779735 -0.599934876 -0.359399647 -0.511685908 0.220278785 0.830454588 -0.235396266 -0.894089639 0.381041139 -0.557447493 -0.663818538 0.498595268 -0.222686321 -0.94801259 0.227338836 -0.527082324 -0.185217187 -0.829384565 0.641088009 -0.0406223685 -0.766391575 0.643669367 -0.0320657827 -0.764631629 0.649414957 -0.0123362038 -0.760334194 -0.760603786 -0.0147904092 0.649047852 -0.191745818 -0.834029078 0.517328799 -0.886490822 0.446073413 -0.123095423 -0.598600984 0.402323425 -0.692685187 0.671449125 -0.730097473 0.126940131 0.778657913 -0.624645412 0.0592444949 0.946339965 -0.32126835 0.0350326411 -0.921682239 -0.370333999 0.115562029 -0.956718385 -0.288182527 0.0405061692 -0.995797276 0.0588259771 -0.0701948628 0.996878505 0.0163763091 0.0772335753 -0.646698356 0.606566548 0.46244812 -0.693872273 0.436384499 0.572808683 -0.689837158 0.457634836 0.560976863 -0.316819817 0.0589569993 -0.946651638 -0.0404573195 -0.0289433915 -0.998761952 -0.0577175207 -0.0273139328 -0.997959256 -0.00232697674 0.997956157 0.0638601929 -0.0409506857 0.981663227 0.186172858 -0.0599832237 0.996195138 -0.0632240623 0.00135667727 -0.547203422 -0.836998522 0.0910683274 -0.99570179 -0.0168683752 0.0521860421 -0.998139203 0.0315394886 0.107085422 -0.994190037 0.0109054837 0.328526765 0.000960425299 -0.944494188 -0.0192172918 0.999379039 -0.0295335036 -0.0115242358 0.999451756 -0.0310377609 -0.0154262083 0.999308228 -0.0338398591 -0.649000347 -0.754640698 -0.0965193361 -0.679122686 -0.028621627 -0.733466506 -0.691963315 0.00817837752 -0.721886337 -0.655127108 -0.0900861397 -0.750128627 0.567907572 0.286558002 -0.771599293 -0.13941285 -0.985478699 0.0969320163 0.237330198 0.842135191 -0.484234095 0.55036056 -0.787307441 -0.27793926 0.774606228 -0.156157464 -0.61286217 0.617780566 -0.733028173 0.28463462 0.235528484 -0.939717293 -0.2479067 0.663749933 -0.734900236 -0.139131784 0.499526143 0.539237976 -0.678008914 0.0872662738 -0.627652168 0.773587286 0.0768459141 -0.587852359 0.805310071 0.0811329409 -0.604322433 0.792598188 0.0886053145 -0.632708132 0.769304574 0.0289740264 0.893477798 0.448171794 0.0288759749 0.892862737 0.449402153 0.0298852045 0.899128735 0.436662853 0.0305205546 0.902998745 0.428557724 0.526049793 -0.661764383 0.534171879 0.579686403 -0.235352904 0.780110657 0.714406431 -0.2729792 0.644287109 0.156310827 0.570789039 0.806081116 0.806333721 -0.474187374 0.353514105 0.719332814 -0.104341209 0.686784744 0.372807056 -0.565839827 0.735418379 0.70990628 -0.462819755 0.530877531 -0.858674049 0.381239921 -0.342541963 0.472417802 -0.572237968 0.670346975 -0.0290693995 0.99894315 -0.0356020816 -0.382123858 0.92408061 -0.00750898896 -0.9498384 0.203892827 -0.237138569 0.939473152 -0.330320865 0.0909854695 0.415013373 0.144677848 0.89823842 0.127803221 -0.137606874 -0.98220706 0.157107502 0.0232118424 -0.987308681 0.124690965 -0.153455794 -0.980256855 0.161638424 0.0502879247 -0.985567927 0.784687519 0.232634649 -0.574583828 0.539074838 -0.306979895 0.784322441 -0.646622777 -0.569414735 0.507588208 0.991667569 0.0668236762 0.110136673 0.985265791 -0.113864668 0.127617434 0.979949713 0.0617741421 0.189426929 -0.00914850459 0.610025465 -0.792328954 -0.982757211 0.017928442 -0.184029415 -0.905559599 0.0791849196 -0.416763157 -0.0550343581 0.998078704 -0.0284631923 -0.0069525796 0.999975324 0.00102341408 -0.0663866624 0.99767518 -0.0153952818 -0.0425648578 0.996206582 -0.0758987814 -0.0204664972 0.995258451 -0.0950877741 0.0236447025 0.996709585 -0.0775304213 0.189102441 0.954477429 -0.230679542 0.0752412006 0.989140153 -0.126255691 0.506247461 0.848224759 -0.155654311 0.344045281 0.936689258 0.0651618838 -0.989832103 0.0265639089 -0.139738008 -0.98986125 -0.115156516 -0.083148241 -0.122854605 -0.0604127049 0.990584195 0.00541663123 -0.301373422 0.953490794 -0.0309938472 -0.23523882 0.971443295 0.854027033 0.499963075 -0.143787205 0.830653787 0.550736129 -0.0818778127 0.8601318 0.483329624 -0.162990168 0.877394915 0.419949412 -0.231992885 -0.0386815555 0.983153522 0.17864193 -0.642557085 -0.119383805 -0.756880343 0.651688159 -0.00424461253 -0.758475184 -0.014625499 -0.999863803 0.00764589291 0.0118044233 -0.999930263 0.000391019159 -0.00448196009 -0.999908984 0.0127267921 0.207435563 -0.884711087 -0.417440772 0.964136183 0.0211899132 0.264560789 0.999704003 0.00659867236 -0.0234166123 0.0264050346 0.999075711 -0.033918228 0.00706796115 0.998782039 -0.0488307551 -0.704031885 -0.710165679 -0.00195554178 -0.340699315 -0.938955784 0.0478128307 -0.588765502 -0.619457304 0.519256949 -0.972705841 0.179132268 0.147495702 -0.0169082936 -0.0611585304 0.997984827 -0.11895486 0.0579379909 0.991207838 -0.0960248485 -0.0253181122 0.995056868 -0.0285318736 -0.0967929214 0.994895518 0.0603918657 -0.121062703 0.990806043 -0.240672216 0.146535695 0.95948118 -0.0554774515 0.107704118 0.992633879 0.0486507937 0.0650151148 0.996697605 0.0811263174 0.0328032151 0.996163905 0.0836810321 -0.0620679148 0.994557738 0.0673604608 -0.225891963 0.971820652 -0.0172007475 -0.998093486 -0.0592749082 -0.0164304059 -0.997113049 -0.0741323903 -0.0196955465 -0.997313559 -0.0705530345 -0.00317047513 -0.999463856 -0.0325869285 0.00784858689 -0.999746025 -0.0211244915 0.0114121092 -0.999711573 -0.0211314373 -0.67811352 -0.254819363 -0.689368665 -0.589264035 -0.234763086 -0.773080945 0.00117144664 0.999995768 -0.0026526677 0.00381230679 0.999959528 0.008150585 0.0394690633 0.997564375 0.0575107075 0.0325443856 0.998832226 0.0357071534 0.00877889898 0.99985224 0.0147795333 -0.121792711 0.986489177 -0.109570041 -0.00713962456 -0.0144753931 -0.999869764 -0.00322970795 -0.0556346104 -0.998445988 -0.013188283 -0.0458754972 -0.998860121 -0.0083099585 -0.00396414148 -0.999957621 -0.00869558193 -0.0680672899 -0.997642815 -0.000566262985 -0.0799973756 -0.996794939 -0.0143293636 -0.0722830072 -0.997281194 0.743478239 0.358716488 0.564413428 0.851237774 0.519992054 -0.0707284361 0.961183071 0.269458592 -0.0593221672 0.872454047 0.483756185 -0.0693103597 -0.414829344 0.439898431 0.796496093 0.0666628554 -0.980905712 -0.182701945 -0.0618658662 -0.99185288 -0.111357182 -0.0137913767 -0.996139884 -0.0866898671 -0.109343402 -0.992610455 -0.0526163913 -0.0759050772 -0.994426191 -0.0731776506 -0.0933134854 -0.995551944 -0.0129969735 0.0587790683 -0.996743441 -0.0552042648 0.0946220383 -0.994581819 -0.043053735 0.692881465 -0.0542394221 -0.719008565 0.981742203 -0.0450927205 -0.184794128 0.799530566 0.0162570514 -0.600405335 -0.174178064 0.042595733 0.983792484 0.0240225606 -0.999674678 0.00857255608 0.0128592085 -0.999732554 0.019221887 -0.0261850841 -0.999578238 0.0125573939 -0.0439940095 -0.998668432 0.026943082 -0.0337295607 -0.998955071 0.0308391396 0.985151172 -0.154952481 0.073938325 0.00630099047 0.998471081 -0.0549165942 0.00965416618 0.99819243 -0.0593180135 0.986320376 0.018983176 -0.163743019 0.0385969169 0.0857626572 -0.995567679 -0.0258859713 -0.192367002 -0.980981588 -0.0169376377 -0.154171005 -0.987899005 0.053810183 0.152374938 -0.986856818 -0.0236815345 -0.0724330619 -0.997092068 0.975483656 0.212754115 -0.0562791601 -0.638783097 0.62610817 0.44715175 -0.887919486 0.435373902 -0.148487702 -0.825461268 0.564427257 -0.00596719095 -0.894200742 0.414344937 -0.16947937 -0.912813783 0.2054196 -0.352950156 0.335117847 0.684362888 0.647567391 0.0456098653 -0.126015097 -0.990979254 -0.998315573 -0.0325683579 0.0480140224 -0.55092603 0.834552646 0.00155362173 0.0369505957 -0.998694837 0.0352600403 -0.0266062319 -0.839536667 0.542651176 0.95727998 0.0709336698 0.28032738</float_array>
          <technique_common>
            <accessor source="#normals_array" count="230" stride="3">
              <param name="X" type="float" />
              <param name="Y" type="float" />
              <param name="Z" type="float" />
            </accessor>
          </technique_common>
        </source>
        <vertices id="vertices">
          <input semantic="POSITION" source="#positions" />
        </vertices>
        <triangles material="scout_1a1a1a" count="186">
          <input semantic="VERTEX" source="#vertices" offset="0" />
          <input semantic="NORMAL" source="#normals" offset="1" />
          <p>0 0 1 1 2 2 3 3 4 4 5 5 6 6 7 6 8 6 3 7 9 8 4 9 9 10 10 11 11 12 12 13 13 14 14 15 15 16 9 10 11 12 9 17 15 17 16 17 16 18 17 19 18 20 19 21 20 22 11 23 21 24 22 25 23 26 24 27 25 28 22 25 2 29 21 30 23 31 26 32 21 24 2 33 27 34 26 34 2 34 28 35 29 35 30 35 31 36 29 37 28 38 27 39 32 39 26 39 33 40 20 41 34 42 2 2 1 1 35 43 31 36 1 44 29 37 36 45 6 45 8 45 6 46 37 46 7 46 38 47 39 48 40 49 36 50 8 50 41 50 42 51 43 52 22 25 24 53 43 53 44 53 45 54 36 55 41 56 43 57 46 58 44 59 45 60 47 61 48 62 16 18 15 63 17 19 49 64 50 65 51 66 13 14 52 67 14 15 53 68 54 69 55 70 9 10 3 71 10 11 10 72 56 73 19 74 15 75 57 75 17 75 57 76 15 76 58 76 15 77 59 77 58 77 57 78 60 78 17 78 59 79 57 79 58 79 25 28 23 26 22 25 61 80 59 81 34 82 62 83 63 83 64 83 65 84 28 85 30 86 65 84 30 86 66 87 65 88 67 89 31 90 28 91 65 88 31 90 67 92 65 93 66 94 47 95 54 95 48 95 68 96 39 97 69 98 67 92 66 94 60 99 68 96 69 98 67 92 70 100 39 100 38 100 68 96 67 92 61 80 71 101 39 101 50 101 53 68 72 102 73 103 24 104 22 25 43 52 74 105 53 105 75 105 69 98 39 97 76 106 37 107 77 108 7 109 37 107 78 110 77 108 75 111 77 111 78 111 48 112 54 112 53 112 5 113 30 113 29 113 73 114 40 49 71 115 73 114 64 116 40 49 62 117 79 117 80 117 12 13 81 118 82 119 82 120 25 121 8 122 13 123 82 120 7 124 82 120 8 122 7 124 52 125 13 123 7 124 83 126 52 125 77 127 75 128 84 129 83 126 75 128 83 126 77 127 52 125 7 124 77 127 56 130 10 11 2 131 1 132 69 133 76 134 82 119 13 14 12 13 85 135 86 136 55 137 55 137 54 138 85 135 87 139 47 61 45 60 11 140 10 72 19 74 34 42 20 41 88 141 71 115 40 49 39 48 18 142 17 143 89 144 33 145 15 16 11 12 23 26 25 28 81 118 73 114 50 146 84 147 41 148 25 121 24 149 8 122 25 121 41 148 0 150 10 11 3 71 0 150 3 71 29 151 1 44 0 152 29 37 31 36 69 98 1 44 5 5 29 153 3 3 26 32 42 51 21 24 42 51 22 25 21 24 90 154 91 155 42 156 26 157 92 158 90 154 26 157 90 154 42 156 42 156 91 155 43 159 43 159 91 155 80 160 91 155 93 161 80 160 80 160 93 161 63 162 63 162 93 161 40 163 93 161 92 158 40 163 40 163 92 158 38 164 76 165 39 166 70 167 70 167 27 168 76 165 76 165 27 168 35 169 27 168 2 170 35 169 60 99 61 80 67 92 18 171 9 8 16 172 92 158 26 157 38 164 37 173 6 174 78 175 78 175 6 174 36 176 78 175 36 176 75 177 75 177 36 176 45 60 75 177 45 60 48 62 74 178 75 177 48 62 62 179 64 180 86 181 79 182 62 179 86 181 46 58 79 182 86 181 64 180 72 183 55 184 64 180 55 184 86 181 46 58 87 185 44 59 46 58 86 181 87 185 53 186 74 186 48 186 59 187 61 188 57 189 46 190 43 159 80 160 82 119 81 118 25 28 20 191 19 192 14 193 19 192 56 194 12 195 56 194 2 29 81 196 2 29 23 31 81 196 56 194 81 196 12 195 12 195 14 193 19 192 14 193 94 197 20 191 88 198 20 191 94 197 94 197 49 64 88 198 51 66 88 198 49 64 2 131 10 11 0 150 9 8 18 171 4 9 52 67 94 199 14 15 49 200 94 199 83 201 83 201 84 147 49 200 76 134 35 202 1 132 89 144 17 143 60 203 89 144 60 203 66 204 89 144 66 204 30 205 89 144 5 206 4 207 18 142 89 144 4 207 89 144 30 205 5 206 68 96 51 208 39 97 83 201 94 199 52 67 69 98 31 36 67 92 87 209 41 148 24 149 24 149 44 210 87 209 51 208 34 82 88 211 27 212 70 213 38 214 27 212 38 214 32 215 55 70 72 102 53 68 53 68 73 103 84 129 75 128 53 68 84 129 71 115 50 146 73 114 20 22 33 216 11 23 61 188 60 217 57 189 87 218 45 54 41 56 87 219 86 220 85 221 85 221 47 222 87 219 80 223 63 223 62 223 47 224 85 224 54 224 64 225 73 225 72 225 79 226 46 226 80 226 34 82 51 208 68 96 50 65 39 227 51 66 93 161 91 155 90 154 93 161 90 154 92 158 49 200 84 147 50 146 26 228 32 228 38 228 59 81 15 16 33 145 33 145 34 82 59 81 34 82 68 96 61 80 40 49 64 116 63 229</p>
        </triangles>
      </mesh>
    </geometry>
  </library_geometries>
  <library_visual_scenes>
    <visual_scene id="scene">
      <node id="left_hip_yaw_link">
        <instance_geometry url="#geometry">
          <bind_material>
            <technique_common>
              <instance_material symbol="scout_1a1a1a" target="#scout_1a1a1a" />
            </technique_common>
          </bind_material>
        </instance_geometry>
      </node>
    </visual_scene>
  </library_visual_scenes>
  <scene>
    <instance_visual_scene url="#scene" />
  </scene>
</COLLADA>