<?xml version='1.0' encoding='utf-8'?>
<COLLADA xmlns="http://www.collada.org/2005/11/COLLADASchema" version="1.4.1">
  <asset>
    <created>2026-09-14T00:00:00Z</created>
    <modified>2026-09-14T00:00:00Z</modified>
    <unit name="metre" meter="1" />
    <up_axis>Z_UP</up_axis>
  </asset>
  <library_effects>
    <effect id="scout_1a1a1a_effect">
      <profile_COMMON>
        <technique sid="common">
          <lambert>
            <emission>
              <color>0 0 0 1</color>
            </emission>
            <ambient>
              <color>0.05 0.05 0.05 1</color>
            </ambient>
            <diffuse>
              <color>0.1 0.1 0.1 1</color>
            </diffuse>
          </lambert>
        </technique>
      </profile_COMMON>
    </effect>
  </library_effects>
  <library_materials>
    <material id="scout_1a1a1a" name="scout_1a1a1a">
      <instance_effect url="#scout_1a1a1a_effect" />
    </material>
  </library_materials>
  <library_geometries>
    <geometry id="geometry" name="left_hip_pitch_link">
      <mesh>
        <source id="positions">
          <float_array id="positions_array" count="300">-0.0527901053 -0.0383868404 -0.0250848103 -0.0432882421 -0.0437377021 -0.0183478799 -0.0405601859 -0.027050674 -0.0410156474 -0.0446216203 0.0386962593 0.0278704371 -0.0534715354 0.0279138461 0.0381709002 -0.0544180609 0.0452361405 -0.00947997719 -0.0527630188 -0.0444878675 -0.00637464551 -0.0253577307 -0.0625778139 -0.0453757271 -0.022705622 -0.0691868961 -0.0491952337 -0.0499476455 -0.0649339706 -0.0164234955 -0.0378130786 -0.0252076834 -0.0478998497 -0.0380781516 -0.0465555824 -0.0293152034 -0.0555556379 -0.0125332261 -0.0467429124 -0.0536334291 -0.0204270016 -0.0403045453 -0.0520470999 -0.0186120123 -0.0100954901 -0.052276101 -0.00767540047 -0.0142668197 -0.0521649271 0.00329221878 -0.0179123171 -0.0426428802 -0.0465370193 0.00812543463 -0.0457286499 -0.0118411602 -0.0450777262 -0.0401909985 0.00525799394 -0.0482120179 -0.0384645276 -0.000349587906 -0.048083283 -0.0159182083 -0.0426601581 -0.0520697348 -0.0344979502 -0.00125227263 -0.0485065132 -0.0335876904 0.00240488746 -0.050734628 -0.0565481447 0.0113935107 -0.0462605841 -0.016928928 -0.016103141 -0.0530205928 -0.0138100386 -0.0171325058 -0.0626863465 -0.0575608201 -0.028459806 0.0386969373 -0.056929037 -0.0457438976 -0.0150979208 -0.0546868145 -0.0444638766 0.012109478 0.017456321 0.0569497496 -0.0257979259 0.0269853212 0.048849497 0.0256628934 0.0225050226 0.0474059507 -0.0293693449 -0.040021535 -0.0537113026 0.0084905196 -0.0422694236 -0.0480602197 0.0231208522 -0.0369955152 -0.0288695041 0.0461295992 -0.0493665524 -0.0171636902 0.0423949994 -0.0423822515 -0.0326924436 0.0350677036 -0.0523068905 -0.0353141576 0.02739821 -0.0529092923 0.00530170603 0.0228838697 -0.0525192022 -0.00778142037 0.019759424 -0.037800055 -0.00193225266 0.0505683199 -0.056992691 0.0198532101 0.0437520221 -0.0368778929 -0.0042083445 0.051710099 -0.0376560949 -0.00860845856 0.0475836843 -0.0170012526 -0.012276398 0.0545854867 -0.0353935845 -0.00624336302 0.0506845266 -0.0341317803 -0.00375734991 0.0486231968 -0.038900733 0.0223407224 0.0507168695 -0.0153854396 -0.0529435351 0.0177558269 -0.0395635702 0.0139883822 -0.0528178401 -0.0568392687 0.0434956104 -0.0201175436 -0.0366548486 0.0494694412 -0.0261453986 -0.0533981994 0.0263931416 -0.0368511267 -0.0526594706 0.00601032423 -0.0447248109 -0.0377728641 0.0511730462 0.0200991891 -0.015402833 0.0554551221 -0.0119741717 -0.0447412767 0.0361476503 -0.0310826246 -0.0452847444 0.0461320914 -0.00523951044 -0.0154573834 -0.0486097485 -0.0248922929 -0.0522943437 0.00500354078 0.0413972177 -0.0426887646 0.0193562135 0.0438638479 -0.0567840189 0.0445496216 0.0147241354 0.0197729897 -0.0471593291 -0.0489598773 0.0320590213 -0.0668985322 -0.0441994108 0.0214541573 -0.0120687587 -0.0551219061 0.0187957436 -0.0445686169 -0.0326990448 0.0178147126 -0.0565026551 -0.00681833876 0.0284425337 -0.0549791157 -0.00733644981 0.0218397137 -0.0661370754 -0.045530647 0.0282559153 -0.0555197261 0.00901403371 0.0181122497 -0.0268631093 0.0505493134 0.0178720318 -0.0561641268 0.00720472634 0.0182441585 -0.0414716676 0.0514645502 0.0229513906 -0.0609659925 0.0470018499 0.0021808641 -0.0688860938 0.0557806864 -0.0242723506 -0.061290808 0.0457652509 -0.0440760404 -0.0690945461 0.0324319415 0.0276859738 -0.0199205447 0.0507485531 0.0271701273 0.0199237429 0.0502449311 0.0415897407 -0.0663613603 0.0316346884 -0.0486807935 -0.0633394048 0.0213823356 -0.0134792188 0.0627696887 -0.0198760759 0.0171541087 0.0267850477 -0.0627827048 0.0276357643 0.0200026464 -0.0508834943 0.0175260715 0.0333946981 0.0558571406 0.0185669605 0.0395176373 0.0401420407 -0.0155011201 0.0230477639 -0.0497420244 -0.0145301959 0.0323915854 -0.0571096018 -0.0155569697 0.0394345336 0.0383106358 -0.0162438303 -0.0419888608 0.052044522 -0.0148563106 0.00279568322 0.0664378852 0.017742442 0.062553212 0.0173594933 -0.0147939688 0.0576440692 0.0329933725 0.0367248952 -0.0702508315 0.00110277219 0.000956542615 -0.0705147013 -0.0364655741 -0.0364654325 -0.071322985 0.00945136975 0.0168308504 -0.00695444643 0.0648194626 -0.0464567952 -0.00716805086 -0.00124538166 0.053398829 -0.0640387461 -0.00639934884</float_array>
          <technique_common>
            <accessor source="#positions_array" count="100" stride="3">
              <param name="X" type="float" />
              <param name="Y" type="float" />
              <param name="Z" type="float" />
            </accessor>
          </technique_common>
        </source>
        <source id="normals">
          <float_array id="normals_array" count="759">0.17113927 0.81706202 0.550564229 0.171880916 0.920435011 0.351078838 0.234569818 0.509762645 0.827719212 0.553695381 -0.783375204 -0.282391071 0.587943912 -0.756407678 -0.286652088 0.295677274 -0.924784184 -0.23947683 0.13417086 0.982754111 0.127250105 -0.741650999 0.0867892802 -0.665147722 -0.741224349 0.0872039422 -0.665568888 -0.763181865 0.0652791932 -0.642877936 -0.182207569 -0.644326687 -0.742727101 -0.226637527 -0.644906044 -0.729884684 -0.479155988 -0.582483649 -0.656599045 0.256620616 0.368716329 0.89341712 0.998963237 -0.00851074699 -0.0447214469 0.999379158 -0.013017985 -0.032738179 0.950813174 -0.0999523103 -0.293195844 0.999870241 0.0129670557 -0.00955512095 0.136834696 0.989600658 0.0443483405 0.122247055 -0.2171105 -0.96846205 -0.0716355219 -0.0092372708 -0.997388124 -0.163517132 -0.18347986 -0.969328284 -0.157729089 -0.000504455413 -0.987482309 -0.717948377 0.109205171 -0.687476754 -0.206671402 -0.135523155 -0.968979061 0.575151503 -0.779525042 0.24807559 -0.171626359 -0.00509458501 -0.985148966 -0.238852531 -0.0745207369 -0.96819222 -0.159205422 0.0132956253 -0.987155974 -0.225648567 0.54721719 0.806000054 -0.241787449 0.00888809562 -0.970288515 0.148107052 -0.123056918 0.981285512 -0.969780862 -0.0143019045 -0.24355796 -0.951985836 -0.0119468281 -0.305908799 -0.99148339 0.129941121 0.00871817395 -0.999517083 -0.0310662333 0.000730386877 -0.99980104 -0.0191476531 -0.00558984559 -0.9417274 -0.323316783 0.0928208902 0.835368454 0.514414787 -0.193744496 0.99662292 -0.014929641 -0.0807457045 0.916609168 0.346152931 -0.200014517 0.335719198 0.169813991 0.926528931 -0.228896141 -0.822097778 0.521307766 -0.351853818 -0.735062003 0.579553962 -0.554569721 -0.738068759 0.384326607 0.0307297111 -0.709892094 0.703639746 0.423399657 0.535299122 -0.730881333 0.417460769 0.545555353 -0.726702034 0.478210241 0.584749103 -0.655273557 -0.998893261 -0.01956903 -0.0427703746 -0.996180892 -0.0858173594 0.0160925314 -0.986752927 -0.161149129 0.0186982471 -0.939014733 -0.343683749 -0.011524721 0.536164701 0.615926564 -0.577201843 -0.977889478 -0.204250962 -0.0448745154 0.313998729 0.524282157 0.791538417 -0.564464629 -0.509341121 0.649577796 -0.525871933 -0.530494809 0.664856315 -0.349683106 -0.607221782 0.713444769 0.349988401 0.603982449 -0.716040015 0.0824820474 -0.170840576 0.981840193 0.418764591 -0.117937542 0.900403798 -0.200483337 -0.121305451 0.972158134 0.624981046 0.329793364 -0.707555711 0.837612331 0.474835575 0.270068079 -0.334714592 -0.0702302903 0.939698815 -0.351538539 -0.0527243279 0.934687555 -0.63622576 -0.0771933198 -0.767631412 -0.737662613 -0.0897511244 -0.669177532 -0.730602086 -0.0888759494 -0.676994562 -0.3565588 -0.0218846332 0.934016526 -0.792793572 -0.0965920389 -0.601787627 0.192011043 0.228140503 0.954507053 -0.132383034 0.0269814581 0.990831316 0.0767123327 0.158537254 0.984368384 0.474662513 0.0161382984 0.880019903 -0.0399971642 -0.625672698 -0.779059649 0.033534199 -0.94832468 0.315524668 0.230908781 -0.64807272 0.725729167 -0.269854307 0.595555067 -0.756632507 -0.381369442 0.577059507 -0.722190917 -0.0829659626 0.681607604 -0.726999164 0.0210212152 -0.463140011 0.8860358 0.261330336 -0.112548463 0.958665371 0.212430671 -0.0852217823 0.973452866 -0.368329316 0.585060656 -0.722521663 -0.273088783 0.961071253 -0.0420072153 -0.160514995 0.923284292 0.348971456 -0.106482811 0.99260664 0.058253713 -0.330417722 -0.339328378 -0.880727172 -0.298326671 -0.319821775 -0.899285972 -0.996009767 0.0389538482 -0.0802944228 -0.83029902 0.171709225 -0.530207038 -0.984904826 -0.049165003 -0.165967599 0.302360713 0.326623917 0.895485818 -0.424756378 -0.298839629 -0.854562402 -0.0749154612 -0.930710435 0.358002454 -0.0794556066 -0.984853208 -0.154113546 -0.0704255626 -0.992418289 -0.100728206 0.999371409 0.0343427435 -0.00879833568 0.9991889 0.036435999 -0.0171460845 0.99596256 0.0736722574 -0.0512931161 0.292338222 -0.0313866213 -0.955799818 0.368575215 -0.0876223147 -0.925459146 0.261227727 -0.00894436706 -0.96523577 0.395710975 -0.108097419 -0.911991119 -0.106087349 -0.639958918 -0.761050582 -0.360245258 0.692824781 0.624673665 -0.409292191 0.696377695 0.589523494 -0.27910322 0.704193652 0.652849734 -0.986982346 0.0493188165 0.15308018 0.195291579 -0.956067204 -0.218624681 0.0950590745 -0.224733651 -0.969772398 0.0773817524 -0.166041732 -0.983077943 0.060855791 -0.266241163 -0.961983502 0.105948269 -0.178293779 -0.978256762 0.997181118 -0.0362367965 0.0657020733 0.996046603 0.0587274469 0.066649802 0.997793317 0.0389703289 0.0537567511 0.109498732 -0.90421623 -0.412799031 -0.115358047 0.16445154 0.979616344 0.799597621 -0.383977771 -0.46174103 0.0169080757 -0.82105279 0.570601821 0.424098194 -0.693694353 0.58217603 -0.0461591519 -0.827461839 0.559621513 0.994069815 0.0131221041 0.107948855 0.516052544 -0.0613632463 0.85435611 0.483176291 -0.308569074 0.819344759 0.0247415751 -0.0873816386 0.99586761 -0.409699559 -0.283668965 0.866993785 -0.419018626 -0.360491723 0.833348155 0.472074002 -0.667509854 0.575827003 -0.0296828132 0.0122489426 0.999484301 0.487628788 -0.448654562 0.748950779 -0.24682422 -0.967141867 0.0609456152 -0.825582743 -0.561938286 0.0513662323 -0.322908998 -0.943066657 -0.0797186717 0.0432039201 0.950020552 -0.309183478 0.0859152898 0.897280037 -0.43302086 0.0241493899 0.774404049 -0.632230341 -0.841741025 0.226977929 -0.489849985 0.996793091 0.0217778068 0.0770019516 0.989633083 0.10654062 0.0963092893 -0.621970713 0.125441268 0.772927463 0.506330788 0.560304761 0.655505717 -0.522410691 0.822158337 0.226147577 0.999040723 -0.0166267622 -0.040511284 0.999830842 0.000546992815 -0.0183859337 -0.321772099 0.94639951 -0.0281197969 -0.301828682 0.952574193 -0.0387535393 -0.284940362 -0.951365232 -0.117103145 -0.137656793 -0.990253925 0.021161465 -0.504418015 -0.584621012 -0.635437429 0.0953847319 -0.651870728 -0.752307296 0.994729459 0.0442270599 -0.0925055891 -0.0310441367 -0.48822093 0.872167766 0.99820298 -0.00379968435 -0.059802644 0.999016345 0.022360079 -0.0382932611 0.999474168 0.0306025799 -0.0107186195 0.999358833 0.0290877763 -0.0208755694 0.970928729 -0.137364805 -0.196031407 0.983644724 0.17930086 0.0171553828 0.0886828676 -0.649467826 -0.755199909 0.991792977 0.0415361859 -0.120919071 0.0968688652 0.0795486122 -0.992113113 -0.516875207 -0.852058411 0.0826833323 -0.996461809 0.0506709032 -0.0670545623 -0.994446814 0.0627769828 -0.084466368 0.987794578 -0.03452323 -0.151888236 -0.599826097 0.579446673 0.551770151 -0.0208968185 0.828539073 0.559541225 0.606388986 0.637170911 -0.475715876 -0.332860738 -0.0865976289 0.938991249 -0.713456273 -0.408027977 0.569643199 -0.325659454 -0.0946021378 0.940742433 -0.118217736 -0.148338348 0.981845379 0.0955014825 -0.13135983 -0.9867239 -0.00459970254 -0.0022619504 -0.999986887 -0.999610066 -0.0187369566 -0.0207045507 -0.999325275 -0.0238818415 -0.0279048011 -0.999967754 0.00470666774 -0.00650964119 -0.99993664 0.0111497985 0.00155553233 -0.99993068 0.0114879282 0.0025855964 -0.858400166 0.505497038 0.0873033851 -0.90311408 0.424905479 0.061969988 -0.991998851 0.118147343 -0.0444911532 -0.991150618 0.0444801971 0.125067979 -0.986262023 -0.0170728676 0.164303705 -0.808882773 0.587382317 -0.0262812823 -0.858668804 0.49724108 -0.124254689 0.468876272 -0.719275355 0.512638271 0.998065531 -0.0600232668 0.0161989033 0.912816823 -0.397040755 0.0955198035 0.997096837 -0.0758094117 0.00712557416 0.998900294 0.0466891825 0.00428558141 0.998799622 0.0486500114 -0.00569902547 0.167788431 0.785400391 0.595813155 0.0205116514 0.700206518 0.713645697 -0.0336556993 0.530164421 0.84722662 -0.156617224 0.108269341 -0.981707096 -0.070482254 0.997425079 -0.0132453879 -0.105621539 0.994077861 -0.025559973 -0.0811287388 0.996559083 -0.0169747639 -0.138510048 0.989665866 -0.0371003598 -0.837107301 -0.387570292 -0.386057794 -0.991823077 -0.12172047 -0.0383547656 0.121521689 -0.991349578 0.0495827049 0.091047585 -0.994874656 0.0439855419 0.0374339186 -0.994785845 -0.0948672518 -0.163435519 -0.986518085 -0.00842119008 0.175052866 0.984413266 0.0169413816 0.281901658 0.280861825 0.917413771 0.0373013429 -0.111278631 0.993088961 -0.0355670042 0.0817048922 0.996021748 0.132614136 -0.177589521 -0.975128412 0.992724597 0.103391364 0.0617097057 0.99249059 0.0923537239 0.0802071169 -0.999627054 -0.0272347592 -0.00200523483 -0.998144627 0.0012945506 0.0608739667 -0.996933341 0.063244313 0.0460873954 -0.992729247 -0.0846455917 -0.0855787322 0.187269822 0.961193919 -0.202573985 0.089971289 0.988000572 -0.125539005 0.148771301 0.973763227 -0.172198474 0.332182616 -0.942281604 -0.0419537649 0.13188675 -0.985406816 -0.107606873 -0.066956915 -0.993843853 -0.0882672593 0.044114992 -0.99890244 0.0157424901 0.982757688 0.150608853 -0.107258365 0.996374428 0.00319254026 0.085016191 0.331123739 0.940892339 0.0712649897 -0.139273658 0.858491659 0.49355334 0.414306551 0.891533375 0.183080241 0.38473019 0.914945066 0.121894255 0.384895533 0.914831102 0.122226931 0.339862734 0.939825296 0.0349530168 -0.0239664987 -0.167957604 -0.985502839 0.20471935 0.954623759 -0.216294929 -0.0131612271 0.999771416 0.0168481655 0.0237784591 0.774282634 -0.632393122 0.215589151 0.740786016 -0.636205494 -0.0289220717 0.652848184 -0.756936431 -0.979989529 0.196710944 -0.030419305 -0.997682452 0.0634767488 0.0245027263 -0.98075366 0.182252079 -0.0700461119 -0.992853045 0.0690360889 0.0973491743 -0.104516588 0.990128279 0.0933927968 -0.999759674 0.0218592193 -0.00166928477 0.999512315 -0.0292325802 -0.0109792147 0.999614656 0.0258991402 -0.00998986326 0.999411404 0.0342721194 -0.00151652214 0.977553666 0.0689337552 -0.199090481 0.968037963 0.112234764 -0.224289611</float_array>
          <technique_common>
            <accessor source="#normals_array" count="253" stride="3">
              <param name="X" type="float" />
              <param name="Y" type="float" />
              <param name="Z" type="float" />
            </accessor>
          </technique_common>
        </source>
        <vertices id="vertices">
          <input semantic="POSITION" source="#positions" />
        </vertices>
        <triangles material="scout_1a1a1a" count="204">
          <input semantic="VERTEX" source="#vertices" offset="0" />
          <input semantic="NORMAL" source="#normals" offset="1" />
          <p>0 0 1 1 2 2 3 3 4 4 5 5 6 6 1 1 0 0 7 7 8 8 9 9 10 10 11 11 12 12 2 2 13 13 0 0 14 14 0 15 15 16 15 16 16 17 14 14 6 6 17 18 1 1 18 19 19 19 2 19 12 20 20 21 10 22 7 7 21 23 8 8 20 21 22 24 10 22 23 25 20 25 12 25 24 26 25 27 12 28 23 29 12 29 22 29 22 24 25 30 10 22 22 31 12 31 25 31 25 32 26 33 21 34 27 35 28 36 29 37 30 38 31 39 32 40 33 41 17 41 29 41 34 42 27 43 29 44 35 45 27 43 34 42 36 46 37 47 38 48 39 49 40 49 38 49 34 50 17 51 33 52 38 48 37 47 34 53 34 50 37 54 17 51 41 55 42 55 43 55 43 56 44 57 45 58 44 59 46 59 45 59 47 60 41 61 44 62 41 63 46 63 44 63 41 64 43 64 46 64 47 60 35 65 45 66 47 60 44 62 35 65 43 67 48 68 46 69 48 70 42 70 41 70 48 68 47 71 46 69 48 72 43 73 45 74 48 75 41 61 47 60 45 76 46 76 47 76 35 45 49 77 45 78 50 79 51 80 52 81 53 82 54 83 19 84 50 79 24 85 51 80 52 86 55 87 56 88 50 89 20 21 24 90 50 89 22 24 20 21 57 91 19 92 18 93 20 94 23 94 24 94 23 95 25 27 24 26 23 95 50 89 25 27 50 89 23 95 22 24 5 96 57 96 58 96 49 77 11 97 59 98 39 99 4 100 60 101 60 102 61 103 36 104 60 102 4 105 61 103 3 106 61 106 4 106 42 107 55 87 62 108 42 107 48 109 55 87 16 110 6 110 14 110 3 3 5 5 58 111 63 112 64 113 21 114 21 114 26 115 63 112 65 116 66 117 63 118 67 119 66 119 68 119 64 120 63 120 69 120 65 121 68 121 66 121 70 122 71 123 72 124 71 125 73 126 74 127 75 128 76 129 77 130 78 131 71 123 70 122 79 132 71 132 78 132 74 127 75 128 80 133 77 134 81 135 9 136 82 137 30 138 83 139 65 140 32 140 84 140 85 141 71 125 86 142 79 143 86 143 71 143 79 144 31 144 86 144 86 145 31 145 30 145 15 16 0 15 13 146 16 17 15 16 13 146 54 147 16 17 13 146 62 148 55 87 51 149 28 150 11 97 33 151 11 11 28 152 12 12 10 10 25 153 11 11 13 13 19 84 54 83 39 99 60 101 40 154 53 82 19 84 57 155 32 40 31 39 79 156 84 157 32 40 78 158 78 158 32 40 79 156 84 157 78 158 70 159 65 160 84 157 70 159 68 161 65 160 70 159 59 162 11 11 25 153 19 84 13 13 2 2 40 154 60 101 36 163 87 164 25 164 50 164 28 150 33 151 29 165 25 32 87 166 88 167 36 163 38 168 40 154 77 169 76 169 81 169 56 88 55 87 89 170 29 171 38 48 34 53 35 65 44 62 27 172 43 56 42 173 44 57 42 174 27 172 44 62 75 128 90 175 76 129 35 45 34 42 49 77 64 113 8 176 21 114 83 177 63 112 26 115 24 178 12 179 27 35 51 180 24 178 27 35 12 179 28 36 27 35 62 181 51 180 27 35 42 182 62 181 27 35 7 183 59 184 21 34 21 34 59 184 25 32 90 185 91 186 45 187 90 185 45 187 49 188 90 185 49 188 76 189 7 183 76 189 49 188 7 183 49 188 59 184 25 32 88 167 26 33 5 190 53 190 57 190 49 77 34 42 33 151 38 191 29 192 6 193 38 191 6 193 16 17 39 99 38 191 16 17 39 99 16 17 5 194 16 17 53 195 5 194 4 100 39 99 5 194 92 196 93 197 85 198 83 177 26 115 88 199 49 77 33 151 11 97 76 200 7 201 81 202 81 202 7 201 9 203 2 204 1 205 18 93 48 109 89 170 55 87 94 206 80 207 95 208 95 208 80 207 96 209 29 210 17 18 6 6 45 74 89 211 48 72 51 149 55 87 52 86 97 212 91 213 90 175 83 177 65 214 63 112 63 118 66 117 69 215 67 216 69 215 66 117 98 217 57 91 18 93 98 217 18 93 1 205 98 217 17 51 37 54 98 217 1 205 17 51 3 218 98 217 61 219 61 219 98 217 36 220 98 217 37 54 36 220 53 195 16 17 54 147 99 221 64 222 69 223 73 126 97 212 90 175 99 224 94 206 64 225 95 208 96 209 8 226 94 206 95 208 64 225 64 225 95 208 8 226 9 136 8 226 96 209 9 136 96 209 77 134 96 209 80 207 75 227 96 209 75 227 77 134 74 228 72 228 71 228 75 128 73 126 90 175 71 125 97 229 73 126 75 128 74 127 73 126 74 230 80 230 72 230 80 231 70 231 72 231 80 232 99 233 70 234 70 234 99 233 68 235 67 236 68 236 99 236 99 221 69 223 67 237 92 238 30 138 82 137 88 239 82 137 83 139 56 240 87 241 52 81 99 224 80 207 94 206 56 242 93 243 82 244 82 244 88 167 56 242 88 167 87 166 56 242 91 186 93 243 89 245 45 187 91 186 89 245 56 242 89 245 93 243 91 213 85 198 93 197 82 137 93 246 92 238 98 217 3 218 58 247 58 247 57 91 98 217 6 248 0 15 14 14 87 241 50 79 52 81 86 142 30 249 92 250 97 229 71 125 85 141 92 250 85 141 86 142 32 40 65 251 83 252 83 252 30 38 32 40 97 212 85 198 91 213</p>
        </triangles>
      </mesh>
    </geometry>
  </library_geometries>
  <library_visual_scenes>
    <visual_scene id="scene">
      <node id="left_hip_pitch_link">
        <instance_geometry url="#geometry">
          <bind_material>
            <technique_common>
              <instance_material symbol="scout_1a1a1a" target="#scout_1a1a1a" />
            </technique_common>
          </bind_material>
        </instance_geometry>
      </node>
    </visual_scene>
  </library_visual_scenes>
  <scene>
    <instance_visual_scene url="#scene" />
  </scene>
</COLLADA>