<?xml version='1.0' encoding='utf-8'?>
<COLLADA xmlns="http://www.collada.org/2005/11/COLLADASchema" version="1.4.1">
  <asset>
    <created>2026-09-14T00:00:00Z</created>
    <modified>2026-09-14T00:00:00Z</modified>
    <unit name="metre" meter="1" />
    <up_axis>Z_UP</up_axis>
  </asset>
  <library_effects>
    <effect id="scout_1a1a1a_effect">
      <profile_COMMON>
        <technique sid="common">
          <lambert>
            <emission>
              <color>0 0 0 1</color>
            </emission>
            <ambient>
              <color>0.05 0.05 0.05 1</color>
            </ambient>
            <diffuse>
              <color>0.1 0.1 0.1 1</color>
            </diffuse>
          </lambert>
        </technique>
      </profile_COMMON>
    </effect>
  </library_effects>
  <library_materials>
    <material id="scout_1a1a1a" name="scout_1a1a1a">
      <instance_effect url="#scout_1a1a1a_effect" />
    </material>
  </library_materials>
  <library_geometries>
    <geometry id="geometry" name="left_shoulder_roll_link">
      <mesh>
        <source id="positions">
          <float_array id="positions_array" count="423">-0.00273635285 0.0126333786 -0.0831215605 0.00341347745 0.0142721552 -0.0745177791 0.00349703035 -0.0181232393 -0.0758270994 -0.0768386126 -0.0142063992 -0.142016694 -0.0556386113 -0.0372649692 -0.142037958 -0.058571063 -0.0391058549 -0.129932776 -0.0798167214 -0.0111952005 -0.0880439728 -0.0554208718 -0.0408389829 -0.0874118209 -0.066629231 -0.0158284232 -0.0861049518 -0.0603241511 -0.0256449301 -0.0859102309 -0.0662426427 -0.0189573225 -0.0801468939 -0.0697209761 0.0058731772 -0.0842631534 -0.0681366101 0.00848744158 -0.0867162198 -0.0567041636 -0.0106751546 -0.0805959329 -0.0576510392 -0.0220509171 -0.0862885341 -0.0566310771 -0.0253627095 -0.0816092491 -0.0513623618 -0.0309800375 -0.086488001 -0.0348444581 -0.0447887518 -0.0770576373 -0.0329614803 -0.00236783316 -0.086123012 -0.0330477692 -0.0056597353 -0.07983955 -0.0336506851 -0.000384412706 -0.0837827995 -0.0373498835 -0.0356664695 -0.140022054 -0.0256076865 -0.0408443958 -0.141441107 0.00637941621 0.0241301563 -0.132160127 -0.00790780224 0.0341397524 -0.142684951 -0.0249552671 0.0461974293 -0.12866661 -0.0364452675 -0.0339749642 -0.080483757 -0.0227257032 -0.0353845432 -0.0838436261 -0.014269717 -0.0336781219 -0.0298752356 0.000414536917 -0.0325186849 -0.0664555132 0.00550265657 -0.0394652411 -0.00838706084 -0.000765487144 -0.0293712355 0.0288351197 0.00489593018 -0.0227711461 0.0233397465 0.00399341341 -0.0342598818 0.00061385805 -0.0127465855 0.0395812392 -0.11717508 -0.0151237166 0.0359443873 -0.090327993 -0.0140360473 0.0349451415 -0.118251674 -0.0198644623 -0.033059407 -0.0710745305 -0.0211914983 -0.0234595072 -0.07915508 -0.0741175786 0.0199062824 -0.14137204 -0.0669156611 -0.00728831626 -0.140538439 -0.0364314914 0.00232457672 -0.080217503 -0.0347749218 -0.000446826452 -0.0867812634 -0.0312263165 0.00180174795 -0.0793312341 -0.0314731002 -0.000278425345 -0.081778273 -0.028778797 -0.00127950963 -0.0805202127 -0.0217921883 -0.00477890205 -0.079516843 -0.00613788608 -0.0155258365 0.0432110839 -0.0075145252 -0.00271401065 0.0445570983 -0.00564048858 0.0184109844 -0.0387653299 -0.0137602817 0.0369911492 -0.0249722674 0.00855297223 0.0231881384 -0.0373658352 -0.0046877698 -0.0312307682 -0.0756407902 -0.0145588946 -0.0121428128 -0.0790263489 -0.0107779838 -0.00509482203 -0.0806550682 -0.00751574989 -0.0449239388 0.000874704274 0.00852319784 -0.027726924 -0.0280290637 -0.00543814339 -0.0185992233 -0.140747726 -0.00358937425 -0.0322282836 -0.142739475 -0.0129217673 0.0373180024 0.0251129158 0.000498173118 0.0227758568 0.0383029915 0.00127394765 -0.0342060551 0.0276822764 -0.0129030207 -0.0406688452 0.0170130525 -0.00183571992 -0.0153328301 0.00953395013 -0.0675373301 0.0139660416 -0.0791463479 -0.0711371824 0.0281867944 -0.0884601474 -0.0681357458 0.0111593148 -0.0840268806 -0.0657376349 0.0142075885 -0.0820702761 -0.0659772977 0.0167720597 -0.0854244083 -0.0645371526 0.0183721893 -0.0837402865 -0.0600078627 0.0251720361 -0.0791110545 -0.0452967286 0.0142061338 -0.14590013 -0.0615472831 0.0223430153 -0.0851472616 -0.0600367263 0.0245117694 -0.0832120925 -0.0437965095 0.0296486411 -0.0803424194 -0.0569261126 0.0271079764 -0.0864396095 -0.0582949929 0.0398788415 -0.131089017 -0.0450688787 0.0407767519 -0.141936719 -0.0424162932 0.0365273617 -0.0789818391 -0.0358506739 0.0474565923 -0.0815383866 -0.0428943597 0.043635536 -0.125668406 -0.0351215824 0.0318305232 -0.0864416808 0.0108196978 0.00903560687 -0.0712352246 0.00857145712 -0.0154121537 -0.14177978 0.0103891352 -0.0105273137 -0.0783946514 0.00913860183 -0.023862537 -0.0211070906 -0.00356361759 -0.0191850998 -0.0182400625 -0.0221629068 0.0349002667 -0.0806150436 -0.0303137451 0.0412305109 -0.142141372 -0.0200456176 0.0244878568 -0.142769426 -0.0176862366 0.0319791362 -0.0857442543 -0.0173706822 0.0304971524 -0.0868079215 -0.0159775913 0.0300311372 -0.0798987225 -0.00175829662 0.0283418316 -0.0930400267 -0.018319957 0.0331258848 -0.0725246966 -0.010862669 0.0277802926 -0.0790899843 -0.0042323973 0.0314675868 -0.0753434449 -0.0119346641 0.0281077884 -0.0854626372 -0.00922540762 0.0189546365 -0.0861758515 -0.0147174457 0.0301087759 -0.0852025971 -0.00884074718 0.0210420992 -0.0797179937 0.00105104549 0.0307328738 -0.0606471933 -0.00389595609 0.0171626955 -0.0174685661 0.00464142486 0.0115628429 -0.0106690219 0.00781414565 0.0270964429 -0.0267919153 -0.00730852969 0.0242345221 -0.0790749788 -0.00497251516 0.0196845289 -0.0820734575 0.00310738082 0.0218122434 -0.0893593878 -0.00202198955 0.0163159054 -0.0748602003 -0.00331243919 0.0164743345 -0.078973636 0.00510621211 0.0190179851 -0.073667787 0.00508392369 0.0102836452 -0.140163571 -0.00331732235 0.0454130732 0.00534385303 0.000610858144 0.022040436 -0.122837186 -0.00252226298 0.0430902727 -0.00344994478 0.00419814698 0.0325183086 0.000106106956 -0.00415380578 0.0127444183 0.0126060583 0.00224833703 0.022809837 0.0225669928 0.00406695157 0.00763973361 0.0138297994 0.00452431384 0.0232496168 -0.012186544 0.00578471972 0.0221354142 0.0135814203 0.00240059709 0.0297589544 0.0292493682 0.003069903 -0.0312030409 -0.0338701047 0.0117764911 -0.00958084781 -0.0536345057 0.00507659744 -0.0188379288 -0.0885060206 0.00079027965 -0.0161522906 -0.0392453894 0.0129984282 -0.00425031036 0.0252851155 0.00106618309 -0.010643254 -0.0125234518 0.0033095656 -0.0251764487 -0.00730840536 0.00917263608 -0.0136504238 -0.0141637782 0.00927546993 0.00888895988 -0.0881447792 0.0112783713 -0.00831129216 -0.0641587824 0.00799271185 -0.013060417 0.0182341263 0.00916297082 0.0114819659 0.0202538073 0.00276272651 -4.1199939e-05 0.0319963582 0.0112529146 0.0141156325 -0.0530668236 0.0113064926 0.0083395252 -0.0647703409 0.00707187969 0.0140966736 -0.0187127925 0.0100292759 0.0337442383 0.00584184099 0.011986007 0.0191866886 -0.0302136838 -0.0331642963 -0.0468454361 -0.124492668</float_array>
          <technique_common>
            <accessor source="#positions_array" count="141" stride="3">
              <param name="X" type="float" />
              <param name="Y" type="float" />
              <param name="Z" type="float" />
            </accessor>
          </technique_common>
        </source>
        <source id="normals">
          <float_array id="normals_array" count="1320">0.783874333 0.17933628 -0.594457328 0.796641946 0.12035282 -0.592348516 0.810949981 0.025717251 -0.584550083 -0.787104011 -0.612564564 -0.0723316893 -0.451716065 -0.846566916 -0.281561732 -0.557132006 -0.822379827 -0.115305312 -0.785451353 -0.618766963 0.013911997 -0.477586418 -0.878215373 0.0254754443 -0.0981757566 -0.0458414592 0.99411273 -0.155016065 -0.0279416535 0.987516701 -0.0970669612 -0.118790917 0.988163292 -0.11715351 -0.13504234 0.98388952 -0.817760646 -0.529706836 -0.22511819 -0.466344982 0.0807058811 0.880913675 -0.512277842 0.11446663 0.851157367 -0.478680938 0.0896674246 0.873398125 -0.0316757932 0.00852954015 0.99946183 0.306972861 -0.118462481 -0.944316864 0.302930355 -0.234721452 -0.923655272 0.304169536 -0.209719881 -0.929246187 0.291143537 -0.382840723 -0.876737356 0.187829673 -0.0363871902 0.981527388 0.707476497 0.671810746 0.219424859 0.662406683 0.671957791 0.331194937 0.549708784 0.733668983 0.399437219 -0.451259494 -0.777239799 0.438478261 -0.586449027 -0.0212019216 -0.809708595 0.709336936 0.703497231 -0.0439629108 0.249605879 -0.191693947 0.94918406 -0.633901834 -0.773108304 -0.0217275172 0.674270332 0.729905367 -0.112239033 -0.972869337 -0.199173734 -0.117707603 0.268518031 0.413107842 -0.870195329 0.621974826 -0.391205817 0.678310692 0.75620085 0.0487812944 -0.652518749 0.0968404934 0.116163656 -0.988497794 0.0265878178 0.160934284 -0.986606956 -0.0649311692 0.142022923 -0.987731457 0.848083317 0.464183241 -0.25551632 0.513557017 0.851271927 -0.107681759 0.215250686 0.96429944 -0.154252172 -0.473968923 -0.341385692 0.811670661 -0.361969084 0.0618500635 0.930135965 0.203402862 0.357635319 -0.91144079 0.129908457 0.176988348 -0.975601792 0.0423700027 0.187841803 -0.981284976 0.136945575 0.979414165 0.148303121 -0.0899757743 -0.986721814 -0.135219961 -0.0212790612 -0.998964846 -0.0402049832 0.0364569761 -0.956022501 -0.291018605 -0.534251153 0.607919395 -0.587375283 -0.829061806 0.34075591 -0.443330526 -0.714678407 0.693591297 -0.0903651938 0.959459364 -0.277847171 0.0473150499 -0.453376889 0.88927424 -0.0603383183 -0.615064561 0.788455784 -0.00574988266 -0.252897412 0.966614425 -0.0412239283 -0.033759702 0.145503357 -0.988781571 -0.183001012 0.380026221 -0.906692147 -0.108076639 0.0175279081 -0.993988037 0.01389495 -0.0197440553 -0.999708533 0.109881639 0.0544577092 -0.992451727 -0.526440024 -0.822707593 0.21450679 0.917590499 0.391998023 0.0660695881 0.86740154 0.476838052 0.1422676 0.822103381 0.534287453 0.196679771 0.472873777 -0.59858948 0.646591902 0.50934875 0.629644513 -0.586610258 0.450862616 0.759100199 -0.469563395 0.493513435 0.672161341 -0.551945269 -0.898401141 0.192416102 0.394780189 -0.712237835 -0.505453587 0.487066686 0.452018976 0.779507816 -0.433643192 0.117075071 0.0400996245 0.992313206 0.289909363 -0.13531436 0.947440028 -0.00407062238 -0.020979654 0.999771595 0.00183173467 0.0898479074 0.995953798 0.449427426 0.765044391 -0.461217999 -0.955139279 -0.0724620372 -0.28715533 -0.818779051 0.0382197015 -0.572835147 -0.211341918 -0.216301799 0.953177929 -0.108161092 0.561660945 -0.820267141 -0.131986231 0.990868688 -0.0275481883 0.00406133896 0.0634206682 0.997978628 -0.333671659 -0.186723813 0.924011588 0.0414871387 -0.0460728966 -0.9980762 -0.109291606 -0.014083812 -0.993909955 0.105338104 -0.0158682335 -0.994309843 0.850428879 -0.496446937 -0.174100861 -0.57112205 0.819288015 -0.0508604273 -0.514108837 0.735943556 0.440544248 -0.253947556 0.807405531 0.532547593 -0.0310344212 0.041115649 -0.998672307 -0.106797837 0.129577875 -0.985801101 -0.443075776 0.342548162 0.828459203 0.330223441 -0.908786893 0.255066276 0.191630706 -0.931376815 0.309539765 0.413462698 -0.884065866 0.217890114 0.487371296 -0.854087114 0.181671187 -0.35437113 0.830474734 -0.429805636 -0.913064539 -0.285102814 0.29159826 -0.931131184 -0.278354704 0.235612765 -0.922658145 -0.355061531 0.150443673 0.769529104 0.347610295 0.535716355 0.638972163 -0.0121475579 0.769133985 0.71115768 -0.12946333 0.691009402 -0.888460279 -0.048806455 0.456350982 -0.52608633 0.124835871 0.841218889 0.647048533 0.275102466 0.711088538 0.73524183 0.170075208 0.6561203 0.502400696 0.409885734 0.761306286 0.399776936 0.486603945 0.776785016 -0.981041491 -0.137323529 0.136747301 -0.94368124 0.323316753 -0.0702281594 -0.949386239 0.308167517 -0.0608161539 -0.956106246 0.288908482 -0.048916094 0.438741624 0.0891991481 -0.894175231 0.08404129 0.0137533555 -0.996367335 0.23796311 -0.0279684141 -0.970871449 0.304135442 -0.0438733101 -0.951617956 0.310631573 -0.674365282 0.669880152 -0.0196238142 0.248669282 0.96838963 -0.936886072 0.34017998 -0.0807595775 0.949926019 -0.211757824 -0.229780734 0.632086813 0.636717677 0.441652447 -0.692743123 -0.124213584 0.710406899 -0.774527371 0.032209862 0.631719768 -0.728246808 -0.0628148913 0.682430148 -0.313759059 -0.574532986 -0.755954444 -0.852387547 0.0365344435 -0.521632731 -0.540626287 0.360861003 0.759935915 -0.0393156968 0.00883431733 -0.999187768 -0.808214188 0.120784059 0.576368868 0.73902142 -0.495557666 0.456366003 0.791255295 -0.448511332 0.415635228 0.707171857 -0.402161062 0.58152771 0.804496884 -0.592838705 0.0364293531 0.572351158 0.676705897 -0.463123381 0.280889928 -0.328814417 -0.901655078 0.664855361 -0.435121357 -0.607154608 -0.498184502 0.866490245 0.0317317508 -0.740809321 0.663974226 -0.101684704 -0.775044441 0.624706328 -0.0951213688 -0.287368 0.0699620098 0.955261707 0.110568374 -0.103821702 -0.988430917 0.573678911 -0.356335878 0.737507463 0.429573029 -0.599717319 -0.675134122 -0.908251882 0.400320381 -0.12174616 -0.647806883 0.684917688 -0.33351773 -0.495121062 0.674315035 -0.547863483 0.280514449 -0.399215102 -0.872891128 -0.0267642867 0.791356206 0.610769212 0.115653381 -0.719958544 0.68431282 -0.159102753 -0.450466752 0.878502131 -0.103197254 -0.514847815 0.851047635 -0.252977967 0.956353664 0.146252543 -0.361871779 0.927591026 0.0928636715 -0.420458823 0.256506056 -0.870298266 -0.328834325 0.246310905 -0.911701143 -0.133640602 0.218033224 -0.966747999 -0.253791541 0.213627547 0.943373263 -0.297884107 0.316518247 0.900600493 -0.392743617 0.426524013 0.814757466 -0.434346318 0.899677813 0.0438539796 -0.2356769 0.96983999 -0.0621839911 -0.247665241 0.967732191 0.046436429 -0.0579846613 0.147771031 -0.987320364 0.163547665 -0.754842401 0.635189056 -0.598318756 0.26931724 -0.754640877 -0.140800998 0.972796381 -0.183962673 0.997545481 0.0454106219 -0.0532998592 0.956553519 -0.28367734 -0.067324385 0.975397944 -0.219023466 -0.025050737 0.278195441 0.824939489 -0.492018461 0.318955392 0.85401243 -0.411011249 -0.898898304 -0.0387530997 0.436440259 -0.834302068 -0.0147585403 0.55110997 -0.915171564 -0.0458293222 0.400450587 -0.981218278 -0.0864495337 0.172444761 0.14352113 -0.210363567 -0.967030942 0.936165571 0.0137502616 -0.351290464 -0.00417901156 -0.0127486559 -0.999909997 -0.0477113277 -0.0174261704 -0.998709142 0.727194965 0.349710256 0.590669334 -0.0654045716 -0.0656792 -0.995694995 -0.00983206648 -0.0271695666 -0.999582469 -0.201262996 -0.847554386 0.491064906 0.0466925316 -0.996544242 -0.0686974451 0.235737652 -0.971738458 -0.0123322597 0.230173469 -0.9731493 0.000785949116 0.0903382525 0.922255874 -0.375876397 0.0218298379 0.0958894789 -0.995152593 0.0309312642 -0.0301546715 -0.999066532 0.0688482821 0.0207811836 -0.997410655 -0.0273729414 -0.586711168 0.809333503 -0.610326171 -0.787674189 -0.0840912536 -0.0322603062 0.764747441 0.643522084 -0.108486958 -0.985447943 -0.130854458 0.387616396 0.382191241 0.838858366 0.942696393 -0.311343461 0.1199532 -0.877975643 0.471457422 -0.0829857439 0.527184367 0.830254138 -0.18098256 0.347111642 0.936521828 0.0494005792 0.534439027 0.84079659 -0.0862323195 -0.376212806 -0.926533282 2.59308326e-05 -0.123425663 -0.991792381 -0.0333759747 -0.303975701 -0.163112089 0.938612401 -0.0405695885 0.0260670278 0.998836637 -0.0661623776 -0.0661493018 0.995613813 -0.444929898 -0.692550004 0.567813218 -0.592912972 -0.688371301 -0.417850673 -0.694152117 -0.665498972 -0.274342686 -0.586371601 -0.795850337 -0.150965661 -0.57716614 -0.652241826 -0.491385579 0.226843104 0.969382942 0.0940152332 0.223802611 0.962542295 0.153051496 0.139965564 0.990122318 0.00820885971 0.817760766 0.194911435 0.541550457 -0.424347401 -0.0599252433 0.903514385 -0.529669523 -0.119789556 0.839702725 -0.0774831399 0.028937323 -0.996573627 -0.417884052 0.0634654388 -0.906280875 -0.631722033 -0.0222230796 0.774876416 -0.747401655 0.0360968225 0.663391173 -0.654392421 -0.0115420548 0.756066978 -0.317462146 -0.665228486 0.675787568 -0.309275687 -0.775551975 0.550334096 -0.271055192 -0.608393729 0.745912969 -0.733368158 -0.632881641 0.248257741 -0.390613526 0.358275563 -0.847973883 0.585966527 -0.420730352 0.692552626 0.139763117 0.939718246 -0.312083155 -0.0562352501 0.991409183 -0.118090943 -0.0651231483 0.991909981 -0.108966075 -0.213704884 0.975720942 0.0479469746 -0.937430441 -0.126410484 0.324414104 -0.21873638 -0.473556817 0.85316956 0.852737308 0.510544538 -0.110378221 0.73997128 0.322418422 -0.590329468 -0.316403329 0.569183111 0.758893609 0.355107158 0.931770563 -0.0755150616 -0.874504149 -0.410364985 0.258540183 0.510153353 0.383937299 -0.769633472 0.455351323 0.247545391 -0.855205536 0.533220172 0.197595894 -0.822576523 -0.151437178 -0.541314721 -0.827070236 -0.167564631 0.00699692266 0.985836267 0.0682065561 -0.011630672 -0.997603416 -0.149485946 0.971813977 -0.182295099 -0.573320389 0.818782985 -0.0299697258 0.131457686 0.98426342 -0.118086427 0.0840911344 -0.247533441 0.965223253 0.546800077 0.835923612 -0.0473435558 0.596770108 0.798258126 -0.0815434679 0.49256137 0.870195627 -0.011953637 -0.43039152 -0.675362706 -0.598872542 0.438056737 0.823447168 0.360612124 0.441604078 0.767149925 0.465260029 0.435607523 0.665965199 0.605587721 -0.850077868 -0.286071777 0.442188323 0.326109827 -0.554311335 0.765761912 -0.619483769 -0.113492221 -0.776762068 0.425073683 0.877018332 0.223944694 0.435732901 0.433424085 -0.788847506 0.575389504 0.574287415 -0.582340837 0.827504873 0.54815942 -0.121477909 -0.84313482 -0.532487273 -0.074706085 -0.771420956 -0.635428786 0.0337634012 -0.846874774 -0.523063362 -0.0959577039 -0.589293957 -0.807610273 0.0223229509 -0.435847431 -0.899874091 0.0162355453 -0.348913699 -0.837945879 0.41964972 -0.892130077 0.451665193 -0.0101235788 -0.816131353 0.565621436 -0.118330032 -0.943838894 0.231724903 0.235524222 -0.984874785 0.141699061 0.099714756 -0.497786939 -0.856874287 -0.134069309 -0.509119093 -0.85091728 -0.129373685 -0.472324342 -0.869517088 -0.144394219 0.9994241 -0.0338244028 -0.00272504869 0.970089257 -0.118586853 -0.21181111 0.742742419 0.00106267049 -0.669576466 0.0292784385 -0.433515072 -0.900670528 0.362902015 0.787181258 0.498645931 0.608136654 0.770952821 0.189213201 0.480427146 -0.877031565 -0.00231959438 -0.353065044 -0.883746207 -0.307144433 -0.637634456 0.770318329 0.00564813334 -0.836958349 0.524830639 0.155091956 0.8004058 -0.598217607 -0.0385511369 0.982317805 -0.179867655 -0.0519554242 0.961684287 -0.2736727 0.0163283553 -0.950793564 0.298712552 -0.0822336152 -0.39648506 -0.78795296 -0.471094251 -0.0903001055 0.0753596276 -0.993059337 -0.737129331 0.525027394 -0.425425142 -0.78036505 0.612979412 -0.123639062 -0.808624864 0.568946719 -0.14975138 -0.810581505 0.583182454 -0.0534407683 -0.990000606 -0.103088304 -0.096288994 -0.984927773 -0.170509741 -0.0290465578 -0.983120978 -0.171583995 -0.0634984076 -0.682720006 -0.689756513 -0.241100356 0.929178774 -0.0689193606 0.363148659 0.962567508 0.210051581 0.17129536 0.312352806 0.363200277 0.877793431 -0.992903531 -0.0232901108 0.116619691 -0.918394148 0.134229481 0.372202456 -0.974678755 0.0531637631 0.217197984 -0.986324489 -0.161399767 -0.0333781354 -0.756855667 0.653349459 0.0174334887 -0.151932403 -0.982106388 -0.111281551 -0.997112572 0.0747445747 -0.0134060541 0.356579691 0.932810545 0.0521096699 0.637297273 0.762638748 -0.110608913 -0.895009696 0.431035459 -0.114743277 0.879471421 -0.315717906 0.356163174 0.196300417 0.871503353 -0.449386299 0.690940082 -0.0227005947 -0.722555578 0.575778484 0.00494567165 -0.817590773 0.797965586 -0.0548492819 -0.600202024 -0.77770412 0.0430892184 -0.627151966 0.0172125231 0.999412775 0.0296287276 0.366904557 -0.0676508844 0.92779547 0.400908589 0.0597082451 0.914170265 0.499630213 0.117877781 0.85818094 -0.76793313 -0.640112579 -0.023120854 -0.80682683 -0.578796089 -0.118429393 -0.616200626 -0.771141052 0.160119459 -0.626835585 -0.746367037 0.223636672 0.999480128 -0.0028674684 -0.0321130008 0.998838544 0.00802137889 -0.0475101657 0.638410628 0.768786728 -0.0374010131 0.772543609 0.570788026 -0.278167874 -0.630636454 -0.775102615 0.0389051922 -0.834927261 0.0890709832 0.543104827 0.968193591 0.245843217 -0.0465009175 0.765762269 0.642273009 -0.0330685638 0.528863251 0.220298737 0.819617093 0.652677417 0.095263578 0.751622975 -0.334041417 0.939329326 -0.0779535025 -0.314695418 0.945421636 -0.0845264569 -0.342452228 0.936531484 -0.0750684813 0.85811466 0.496341586 0.131469414 0.9995839 0.0133375162 0.025575066 -0.933205962 -0.31834203 0.166688368 0.569563866 -0.817496419 -0.0854199231 -0.800886512 -0.581529319 0.14284429 -0.626392901 0.00682310248 -0.779477596 -0.835571349 -0.547285676 -0.0479471087 -0.843153238 -0.537650347 -0.00497341296 -0.833230495 -0.549707472 -0.0595708415 -0.729047418 0.645340681 -0.228090525 0.221052676 0.124092519 -0.967334867 -0.764964342 -0.0683315918 -0.640437663 -0.999362051 0.0335829705 -0.0121527454 -0.952253819 -0.062312264 0.298880905 -0.823230743 -0.558169305 -0.10362538 0.973278284 -0.225743383 0.0420625247 0.956532955 -0.173574388 0.234343112 0.985605776 -0.167865619 0.0200606678 0.998094141 -0.0601930022 0.0135994265 0.999267697 0.00103133463 0.0382498167 -0.455148727 -0.877485991 -0.151188672 -0.975046098 -0.221994385 -0.00190674781 -0.985009313 -0.14826636 -0.0881688967 -0.788038671 -0.614965379 0.028506875 0.606250405 0.701000214 0.375578374 0.126917362 -0.922252357 -0.365161061 0.0599392839 -0.991454363 -0.115868747 0.189191207 -0.949130118 -0.251711667 -0.0750728548 0.995091438 0.0644756928 0.626355648 -0.777320623 -0.05874696 0.180306599 0.978830516 -0.0968524963 -0.393969357 0.792933285 0.464806318 -0.82532531 -0.498728245 -0.264779687 0.863643765 0.189259052 -0.467226356 -0.222850949 -0.673954189 0.704360187 -0.935419083 -0.337583065 0.105017953 -0.875563025 0.482941866 -0.0125131421 -0.985929132 0.166972876 -0.00798546523 -0.940667152 0.339330673 -0.000118493328 0.72181344 -0.236950621 0.650261343 -0.0338988304 0.0315398499 0.998927474 -0.0586381741 0.0220888425 0.998034894 0.00380837475 -0.0171457324 0.999845743 0.0206851196 0.000814331172 0.999785721 0.0678295046 0.0444266945 0.99670732 -0.617902279 -0.279155493 0.735029876 -0.353542954 -0.522205591 0.776085496 0.0187817011 -0.0465937257 -0.998737335 0.253324658 0.182020038 -0.950102806 0.336052418 -0.00743274996 -0.941813946 0.880720019 0.06000771 0.46982047 0.823940992 0.551572144 0.129959464 0.454717636 -0.363985568 0.812863111 -0.0105291465 -0.00433894806 0.99993515 -0.0134845255 0.00128463074 0.999908268 -0.00292751007 -0.0187990349 0.999818981 -0.211069092 -0.0778184757 0.974368572 0.00114779314 -0.0265485346 0.999646842 0.0668749884 0.131567165 0.989048958 0.604722202 -0.540752053 0.584720612 0.0112935947 0.063361764 0.997926712 0.0543691181 0.0107024107 0.998463571 -0.0596087202 -0.0249690171 0.997909486 0.216992721 0.371704608 0.902634978 0.0250788257 -0.0249437429 0.999374211 0.0205629077 -0.0271804333 0.999419034 -0.129916832 0.991189063 0.0258039627 -0.135721356 0.990442872 0.0245487001 0.116808936 -0.992034554 0.0471500047 0.504476786 0.861942053 -0.0505868569 -0.979043126 -0.00463017076 -0.203600511 0.00383835053 0.720984459 -0.692940593 -0.194191515 -0.969650984 -0.148548454 -0.588333964 0.69956398 0.405553252 -0.994984508 0.0804884359 -0.0593918301 -0.900143445 0.433689833 -0.0406810753 -0.989903986 0.136400431 -0.038536109 -0.999996245 -0.00234678225 0.00143284688 -0.99721086 -0.0742374361 0.00769937504 -0.958703756 -0.282283336 0.0346878693 -0.991016686 -0.0565683618 0.121185802 -0.980001688 -0.185124353 0.0729774386 -0.989435971 0.0088740075 0.144698814 -0.753943622 0.648401618 -0.105566703 0.0310243238 -0.999333799 -0.0192208327 -0.986722112 0.135906801 0.088931784 0.695042372 0.309944749 -0.648729801 -0.106296107 -0.0969695821 0.989594877 0.0300867613 0.0665922761 0.997326553 -0.070386596 -0.00145788328 0.997518718 0.0420280583 0.0438822098 0.998152316 -0.168891668 0.0734126195 0.982896864 -0.310176224 0.946776748 -0.0860494375 0.681491017 0.726466715 -0.0884082764 -0.782932162 -0.618323147 0.0685102865 -0.218915164 0.599652231 0.769735932 -0.161795989 -0.353548855 -0.92131716</float_array>
          <technique_common>
            <accessor source="#normals_array" count="440" stride="3">
              <param name="X" type="float" />
              <param name="Y" type="float" />
              <param name="Z" type="float" />
            </accessor>
          </technique_common>
        </source>
        <vertices id="vertices">
          <input semantic="POSITION" source="#positions" />
        </vertices>
        <triangles material="scout_1a1a1a" count="358">
          <input semantic="VERTEX" source="#vertices" offset="0" />
          <input semantic="NORMAL" source="#normals" offset="1" />
          <p>0 0 1 1 2 2 3 3 4 4 5 5 6 6 5 5 7 7 8 8 6 9 7 10 9 11 8 8 7 10 10 12 8 12 9 12 10 13 11 14 6 15 12 16 6 9 8 8 12 17 13 18 6 19 6 19 13 18 10 20 14 21 9 11 7 10 15 22 14 23 10 24 10 25 9 25 15 25 10 26 14 26 7 26 14 23 15 22 16 27 16 28 10 28 7 28 17 29 10 29 16 29 16 27 15 22 17 30 18 31 19 31 20 31 14 32 8 32 13 32 14 33 13 33 9 33 13 34 15 34 9 34 4 35 21 36 22 37 23 38 24 39 25 40 15 41 7 41 17 41 7 42 26 42 16 42 7 43 15 44 26 45 16 46 26 46 27 46 28 47 29 48 30 49 31 50 32 51 33 52 34 53 35 53 36 53 27 54 17 55 37 56 26 45 38 57 27 58 39 59 40 60 3 61 41 62 42 62 20 62 41 63 19 64 42 65 20 66 14 66 18 66 43 67 44 68 20 69 43 70 20 70 19 70 18 71 44 71 42 71 44 68 45 72 20 69 45 73 43 74 19 75 46 76 45 73 19 75 45 72 46 77 20 69 47 78 48 79 31 50 37 80 17 80 29 80 49 81 50 81 51 81 37 56 52 82 27 54 46 76 19 75 53 83 53 83 19 75 38 84 46 85 54 86 38 87 54 88 53 88 38 88 55 89 56 90 28 91 57 92 58 93 22 37 59 94 48 94 60 94 61 95 62 96 55 97 55 97 30 98 61 95 62 99 31 50 55 89 32 100 63 101 33 102 60 103 48 104 47 105 64 106 11 106 10 106 11 14 65 107 6 15 12 108 65 109 11 110 12 108 11 110 13 111 66 112 65 112 12 112 64 113 66 114 11 115 66 116 13 117 11 118 66 116 67 119 13 117 67 120 66 120 12 120 68 121 65 121 66 121 64 113 68 122 66 114 68 123 67 123 12 123 68 124 64 124 67 124 65 125 68 126 69 127 64 128 65 128 69 128 69 129 67 129 64 129 70 130 65 130 64 130 39 59 71 131 40 60 69 127 68 126 12 132 72 133 69 134 12 135 72 133 73 136 69 134 70 137 72 137 65 137 73 138 67 119 69 139 70 140 73 141 72 142 74 143 65 143 72 143 73 138 74 144 67 119 75 145 72 133 12 135 74 146 72 146 75 146 39 147 76 148 77 149 73 138 65 150 74 144 75 151 65 151 73 151 78 152 65 153 75 154 70 140 74 155 75 156 78 157 74 158 70 159 78 160 79 161 65 162 65 163 80 164 76 165 77 166 71 131 39 59 81 167 78 152 75 154 81 168 74 158 78 157 25 40 76 165 80 164 76 165 25 40 77 169 23 38 82 170 83 171 82 170 84 172 83 171 18 173 41 174 44 68 81 175 42 176 44 177 43 178 81 175 44 177 43 179 41 179 81 179 81 180 20 180 42 180 41 181 74 144 45 182 41 174 45 72 44 68 74 183 43 183 45 183 46 85 43 184 74 185 56 186 85 186 86 186 87 187 74 188 81 189 25 40 88 190 77 169 88 191 24 192 89 193 90 194 81 194 91 194 87 195 90 195 92 195 35 196 81 196 90 196 87 187 81 189 35 197 35 198 91 198 93 198 35 199 94 199 91 199 90 200 94 200 35 200 94 201 95 202 92 203 87 187 96 204 94 205 97 206 91 207 98 208 97 209 99 209 91 209 97 210 92 211 99 212 92 211 97 210 100 213 99 214 93 215 91 216 93 217 95 217 100 217 92 203 95 202 99 214 79 161 94 218 101 219 25 40 24 39 88 190 100 220 0 221 54 86 102 222 86 223 103 224 104 225 50 226 49 227 98 228 0 228 100 228 100 229 105 229 106 229 105 230 100 230 107 230 100 231 106 232 98 233 98 233 106 232 107 234 96 235 106 235 108 235 96 236 95 236 106 236 108 237 106 237 105 237 106 238 1 1 0 0 106 239 109 239 1 239 108 240 1 240 109 240 108 241 109 241 0 241 105 242 96 243 1 244 105 245 1 245 108 245 110 246 96 246 108 246 111 247 89 193 24 192 50 248 112 249 101 250 34 251 36 251 113 251 93 252 36 253 35 254 100 213 97 210 93 255 97 256 107 257 93 258 105 259 97 259 98 259 95 260 98 260 107 260 95 261 107 261 100 261 105 262 107 257 97 256 95 263 105 242 98 264 105 242 95 263 96 243 34 265 93 265 107 265 96 266 34 267 107 268 96 204 51 269 50 270 104 225 114 271 50 226 115 272 102 273 116 274 117 275 115 272 116 274 118 276 116 277 102 278 119 279 120 280 118 281 59 282 121 282 48 282 59 283 60 103 112 284 59 285 50 285 114 285 121 286 59 286 114 286 59 287 112 249 50 248 33 52 56 90 55 89 122 288 2 288 52 288 29 289 123 290 30 291 33 52 85 292 56 90 33 293 86 293 85 293 57 92 83 294 58 93 83 171 84 172 29 289 2 295 84 296 52 297 84 296 124 298 52 297 125 299 2 300 122 301 56 302 86 302 125 302 123 290 126 303 30 291 127 304 63 304 128 304 129 305 127 305 128 305 130 306 124 307 84 308 99 214 95 202 93 215 131 309 130 306 84 308 84 310 129 310 123 310 129 311 131 311 123 311 129 312 130 306 131 309 129 313 84 313 127 313 36 253 93 252 113 314 0 315 49 315 108 315 31 50 33 52 55 89 126 303 61 316 30 291 63 317 132 317 128 317 48 79 32 51 31 50 126 303 47 105 61 316 118 281 132 318 63 319 118 281 133 320 132 318 48 79 134 321 32 51 80 164 79 322 25 40 124 323 130 324 0 325 1 326 130 327 82 328 135 329 1 326 82 328 82 170 136 330 131 331 136 332 130 332 137 332 136 333 1 333 135 333 137 334 1 334 136 334 103 224 86 223 127 335 135 336 23 38 101 337 107 338 106 339 0 325 107 338 0 325 130 324 107 268 130 327 1 326 71 131 77 166 88 191 108 340 51 341 110 342 112 284 138 343 101 337 103 344 119 279 118 281 91 345 92 345 90 345 133 346 103 346 137 346 135 336 138 343 126 303 96 204 110 347 51 269 104 348 139 348 102 348 101 337 138 343 135 336 114 349 104 350 115 351 102 273 115 272 104 352 116 353 118 281 63 319 121 354 134 321 48 79 118 281 120 280 133 320 121 355 117 275 134 356 138 343 60 103 126 303 121 355 115 272 117 275 112 284 60 103 138 343 121 357 114 349 115 351 137 358 103 359 127 360 1 361 137 358 127 360 1 361 127 360 2 362 103 363 118 276 102 278 0 364 102 365 49 366 6 6 3 3 5 5 18 367 42 65 19 64 30 49 55 368 28 47 140 369 4 4 22 370 49 371 102 371 139 371 58 372 140 369 22 370 96 204 50 270 94 205 94 373 50 248 101 250 52 374 124 374 27 374 38 375 41 375 20 375 22 37 21 36 57 92 35 197 96 204 87 187 23 38 83 171 111 376 29 289 140 369 58 372 61 377 47 377 62 377 86 378 33 102 63 101 86 379 63 379 127 379 134 356 117 275 116 274 134 356 116 274 63 101 6 380 65 381 39 147 53 382 54 382 0 382 94 218 79 161 78 160 80 164 65 163 79 322 38 57 26 45 13 117 74 144 13 117 67 119 26 45 15 44 13 117 12 16 14 383 81 384 12 16 8 8 14 383 75 385 12 16 81 384 81 386 124 387 98 208 91 207 81 386 98 208 0 388 98 388 124 388 39 147 65 381 76 148 104 225 49 227 139 389 87 390 92 391 100 220 87 390 100 220 74 185 100 220 54 86 74 185 74 185 54 86 46 85 13 117 74 144 41 181 38 57 13 117 41 181 20 392 46 85 38 87 5 5 4 4 140 369 18 393 81 393 41 393 95 394 109 394 106 394 95 395 94 395 43 395 109 396 95 397 43 398 94 218 78 160 43 399 109 396 43 398 46 400 0 401 46 76 53 83 46 402 0 402 109 402 38 84 19 75 27 403 27 403 19 75 10 404 19 75 41 405 10 404 27 403 10 404 17 406 10 404 41 405 64 407 64 407 41 405 70 408 41 405 43 399 78 160 70 408 41 405 78 160 52 82 37 56 28 409 28 409 122 410 52 82 57 92 111 247 83 294 88 191 89 193 71 131 23 38 25 40 101 337 7 7 140 369 17 411 90 412 87 412 94 412 1 326 96 266 107 268 123 290 131 331 135 336 131 331 136 330 135 336 123 290 135 336 126 303 125 299 86 413 102 365 2 300 125 299 102 365 2 300 102 365 0 364 63 101 32 100 134 356 31 50 62 99 47 414 35 197 34 415 96 204 140 369 29 289 17 411 89 193 111 247 71 131 111 247 57 92 71 131 21 36 40 60 71 131 71 131 57 92 21 36 8 416 10 416 13 416 39 147 3 417 6 380 129 312 128 418 132 419 129 312 132 419 133 420 137 421 129 312 133 420 120 422 119 423 133 424 119 423 103 425 133 424 137 421 130 306 129 312 25 40 79 322 101 337 140 369 7 7 5 5 23 38 135 336 82 170 2 295 127 426 84 296 73 141 70 140 75 156 29 48 28 47 37 427 131 331 84 172 82 170 136 428 82 428 130 428 84 172 123 290 29 289 83 171 29 289 58 372 24 429 23 38 111 376 16 430 27 431 14 432 27 431 124 387 18 433 14 432 27 431 18 433 81 386 18 433 124 387 81 384 14 383 20 434 108 340 49 435 51 341 21 36 4 35 40 60 4 35 3 61 40 60 91 436 94 201 92 203 47 105 126 303 60 103 34 437 113 437 93 437 28 91 56 90 125 438 122 439 28 439 125 439</p>
        </triangles>
      </mesh>
    </geometry>
  </library_geometries>
  <library_visual_scenes>
    <visual_scene id="scene">
      <node id="left_shoulder_roll_link">
        <instance_geometry url="#geometry">
          <bind_material>
            <technique_common>
              <instance_material symbol="scout_1a1a1a" target="#scout_1a1a1a" />
            </technique_common>
          </bind_material>
        </instance_geometry>
      </node>
    </visual_scene>
  </library_visual_scenes>
  <scene>
    <instance_visual_scene url="#scene" />
  </scene>
</COLLADA>