<?xml version='1.0' encoding='utf-8'?>
<COLLADA xmlns="http://www.collada.org/2005/11/COLLADASchema" version="1.4.1">
  <asset>
    <created>2026-09-14T00:00:00Z</created>
    <modified>2026-09-14T00:00:00Z</modified>
    <unit name="metre" meter="1" />
    <up_axis>Z_UP</up_axis>
  </asset>
  <library_effects>
    <effect id="scout_1a1a1a_effect">
      <profile_COMMON>
        <technique sid="common">
          <lambert>
            <emission>
              <color>0 0 0 1</color>
            </emission>
            <ambient>
              <color>0.05 0.05 0.05 1</color>
            </ambient>
            <diffuse>
              <color>0.1 0.1 0.1 1</color>
            </diffuse>
          </lambert>
        </technique>
      </profile_COMMON>
    </effect>
  </library_effects>
  <library_materials>
    <material id="scout_1a1a1a" name="scout_1a1a1a">
      <instance_effect url="#scout_1a1a1a_effect" />
    </material>
  </library_materials>
  <library_geometries>
    <geometry id="geometry" name="left_shoulder_yaw_link">
      <mesh>
        <source id="positions">
          <float_array id="positions_array" count="597">-0.0282162968 -0.0398846753 -0.199598923 -0.0392615572 -0.0325844362 -0.18785426 -0.0357235782 -0.0353604332 -0.193828508 -0.0323554799 -0.0289030299 -0.19097285 -0.0319454931 -0.0317387693 -0.207583666 -0.0333152749 -0.0304531846 -0.155223027 -0.0395186432 -0.03040356 -0.155140087 -0.0355137028 -0.0366960354 -0.158971876 -0.0299820825 -0.0398343019 -0.155172482 -0.0348251909 -0.0374550521 -0.149426222 -0.0380992629 -0.0233131349 -0.195949286 -0.0374721363 -0.0225664526 -0.0770644844 -0.0318659879 -0.0306452196 -0.0740234405 -0.0330452994 -0.00766312471 -0.0723243132 -0.036567349 -0.0102930889 -0.0762964189 -0.035494078 -0.0179618225 -0.0105471108 -0.0393782631 -0.0164199732 -0.0734046847 -0.035468407 -0.0251650717 -0.070462063 -0.0247853734 -0.0335390456 -0.0404340476 -0.0316623673 -0.0241383202 -0.00722179096 0.0282887537 0.0292058866 -0.204222187 0.0306612384 0.0260827113 -0.2124933 0.0263970159 0.0282156784 -0.215169847 -0.0365233794 -0.017125845 -0.0021504981 -0.0301462151 -0.026016729 -0.000759562128 -0.0333067775 0.011450734 -0.205641508 -0.0317262448 0.0168865155 -0.208442703 -0.0335888676 0.0199068952 -0.173844084 -0.033226449 0.0187633708 -0.190194041 -0.0392883085 0.0154698743 -0.187643066 -0.0397742651 -0.00133546942 0.000418518757 -0.0383243859 -0.0096718343 -0.00592471147 -0.0329219438 -0.00504117692 -0.00772343576 -0.0249646492 -0.0327444859 -0.215722769 -0.0113321012 -0.0396482758 -0.0544934087 0.0192042105 -0.0339274593 -0.130899832 0.0170978419 -0.0238102563 -0.134222791 0.0215225071 -0.0229284931 -0.135280043 0.0202616695 0.0348388255 -0.00118920358 0.0126473606 0.0375727899 -0.0275950674 0.00986240525 0.0379540101 0.0014244843 0.0240388382 -0.0298601966 -0.134830534 -0.0103485845 -0.0340365507 -0.224648982 0.00832152832 -0.0398492813 -0.218923181 0.0229188763 -0.0397263467 -0.148156315 0.0405266769 -0.0374735072 -0.158065051 0.0174288694 -0.0372897461 -0.136144415 0.0308516081 -0.0278006587 -0.07035245 0.0264442395 -0.0337889418 -0.0573555045 0.0267516375 -0.0318350866 -0.0747125521 -0.039217703 0.00765677309 -0.0661705583 -0.0374452211 0.01397264 0.00060672604 -0.033539921 0.0220998097 -0.033615157 -0.00611852249 -0.0397503898 -0.000859629712 0.0270792674 0.029212473 -0.0296061635 -0.00303295907 0.0169822443 -0.227066129 0.00567198033 -0.0333312005 -0.227795273 -0.0243758932 -0.026392011 0.00285809487 -0.0345707312 -0.00847759936 0.00277152029 -0.0222884789 -0.0332901776 -0.00108294724 -0.00550949574 -0.0356822908 0.00278094062 -0.0329848826 0.0126918433 -0.191237777 -0.0348896496 0.0138082225 -0.129484564 -0.0393971615 0.0162019879 -0.167570561 -0.0394027568 0.00648531877 -0.131452978 -0.0320255049 0.0181367975 -0.0817176253 -0.0313932262 0.0288402047 -0.190873265 -0.0333283879 0.0295245834 -0.182560325 -0.0273349732 0.0195898991 -0.205384433 -0.0292203147 0.0278407037 -0.186614677 -0.0300568808 0.0174236875 -0.168377161 -0.0314564109 0.0280485712 -0.172932819 -0.0334871896 0.0177462008 -0.154301092 0.0312388036 -0.00899154041 -0.0719244629 0.0324470252 -0.0216986034 -0.0760184824 -0.0274523944 0.0181959234 -0.10934256 -0.0282260273 0.0285978168 -0.000428304367 -0.0182819199 0.0167975053 -0.221118972 -0.0111417044 0.0172253624 -0.223415047 -0.0166898593 0.0135182934 -0.216983572 -0.0264407434 0.0286533851 -0.201422483 -0.024925774 0.024527261 -0.206268519 -0.0269625727 0.0213337541 -0.198424444 -0.0212253891 0.0267439615 -0.202632338 -0.021361094 0.0291746985 -0.209478408 -0.0178687759 0.0171857383 -0.214275673 -0.0146628898 0.0282093454 -0.214654714 -0.026507752 0.028213935 -0.177543879 -0.0197410379 0.0296312049 -0.190811172 -0.0267851762 0.0286886599 -0.161696747 -0.0279629007 0.0189239718 -0.160473436 -0.0229169745 0.0281150118 -0.154786646 -0.0187164005 0.0187235959 -0.149224862 -0.0222201869 0.0275449101 -0.160161361 -0.0137554947 0.0294109434 -0.162161753 -0.0140228989 0.027741747 -0.154894084 -0.00450453442 0.0182834566 -0.14230153 -0.0114843613 0.0184468906 -0.147397101 -0.0129414266 0.0289237667 -0.148918033 -0.0203436036 0.025209967 -0.0795289502 -0.0206444617 0.0336496979 -0.0349371471 -0.0121197095 0.0318337716 -0.166074678 -0.0112682804 0.0389173627 -0.00085616915 -0.000243628005 0.0147547647 -0.221893772 -0.0100632543 0.0172016602 -0.216784477 -0.00028974333 0.0264464933 -0.220717877 -0.00111504726 0.0201491155 -0.22168833 -0.00887190085 0.0318803862 -0.199955642 0.002264868 0.0292208754 -0.211154446 -0.00127916329 0.0278953686 -0.144063041 0.00664442871 0.0298001133 -0.142042845 0.0129659688 0.0218825117 -0.0924982727 0.0231878813 0.0282920264 -0.0576697178 0.0196856875 0.0161700603 -0.101339169 0.0435279123 -0.0301206633 -0.209416062 0.0456467681 0.0118543915 -0.20584175 0.0508183688 -0.0247918442 -0.193068758 0.0105987042 0.0316922739 -0.158119217 -0.00584782008 0.0380013846 -0.0344193615 -0.0219319575 0.0288004223 0.00301502529 0.0093816109 -0.0396812819 -0.120859809 0.0134620322 -0.0375956297 -0.000707436819 0.0130679971 -0.0395481698 -0.0558989607 0.0247673988 -0.031782575 -0.224416301 0.0335832201 -0.0374791957 -0.213648021 0.0436709076 -0.039969746 -0.188256145 0.0226391777 -0.028355455 -0.120546013 0.0251571443 -0.026507251 -0.104868233 0.0216237511 -0.0334729515 0.000847743358 0.0273546334 -0.00810668245 -0.0751986057 0.0326795056 -0.0236430727 -0.000478732807 0.0488827564 -0.0357041843 -0.191630021 0.0507090501 -0.0323897488 -0.170835197 0.0432591252 -0.0308768749 -0.154429644 0.0346232988 -0.0149792181 -0.074871935 0.0397062488 -0.010463628 -0.0493762419 0.0354543254 -0.0225944035 -0.0475897081 0.0380823687 -0.0127864359 -0.0103823403 0.0519982688 -0.0329768956 -0.182098433 0.0515021458 0.0169976857 -0.17324692 0.0324718691 -0.0232948549 -0.00584039977 0.0387502238 -0.0129016982 -0.00253985752 0.0358506851 0.00439763162 -0.0708379298 0.0392549522 0.00795190595 -0.0468408354 0.040200714 0.000252900849 -6.41565421e-05 0.0337379649 -0.00497922767 -0.00602790853 0.0447600484 -0.0288233273 -0.190877095 0.0327073038 -0.0156060709 0.00294512161 0.014084409 0.0199283287 -0.221337453 0.0166196525 0.0172994677 -0.226947218 0.0137029104 0.028169224 -0.220912188 0.0107931839 0.0277745984 -0.217506006 0.0116613302 0.0144540342 -0.221088067 0.0103522576 0.0288105644 -0.151109159 0.011188779 0.0241858047 -0.144033626 0.0146423262 0.0182526484 -0.141960651 0.015863657 0.0291154832 -0.145265907 0.0123258168 0.0178113766 -0.113691822 0.0209198557 0.0317118131 -0.200764447 0.0118466625 0.0328292027 -0.0547543876 0.0244095735 0.013696528 -0.217005536 0.0245919824 0.0172926337 -0.223855495 0.0409729183 0.0164913908 -0.15221177 0.0240386352 0.0148530416 -0.140055165 0.0237980131 0.00597855728 -0.134588033 0.0195853636 0.0120283086 -0.128260583 0.0434019342 0.0169993863 -0.20934467 0.0242122337 0.00658120681 -0.109129727 0.0326404013 0.0174341928 -0.218869179 0.0277119391 0.0194382016 -0.215466291 0.0268313196 0.0294085536 -0.162662178 0.035777919 0.0291760005 -0.185916424 0.0306167305 0.0317817256 -0.178325325 0.0265233889 0.0197173823 -0.148155615 0.0275786594 0.0282607228 -0.148297787 0.0384728201 0.020024186 -0.157113805 0.0345223546 0.0286111291 -0.154604048 0.0318268389 0.0161615126 -0.0702491179 0.0350624919 0.0186079685 -0.0488386117 0.0327913389 0.0237758942 -0.000852408411 0.0474772528 0.0166917518 -0.161935702 0.0384058505 0.0115593234 -0.00083815679 0.0396052375 0.0194247682 -0.205317631 0.0378111973 0.0276098046 -0.205751836 0.0395278148 0.0289212931 -0.200427145 0.0442145877 0.0196040776 -0.192361429 0.0436413288 0.0283828322 -0.191578209 0.0422751121 0.024386581 -0.186905965 0.0435767323 0.0279447436 -0.173551455 0.045663394 0.0282252673 -0.179430634 0.0447981209 0.0202376973 -0.17297782 0.0332728848 0.0275051575 -0.161322281 0.0397177674 0.0282480977 -0.162379414 0.0452462509 0.0131808231 -0.191350535 0.0509469621 0.0101243248 -0.191012472 0.0516265929 0.0169931445 -0.185915098 0.0300694965 0.0201215502 0.00284788059 0.0135203796 0.0328205898 -0.178854361 -0.00166345853 0.0326765291 -0.1855492</float_array>
          <technique_common>
            <accessor source="#positions_array" count="199" stride="3">
              <param name="X" type="float" />
              <param name="Y" type="float" />
              <param name="Z" type="float" />
            </accessor>
          </technique_common>
        </source>
        <source id="normals">
          <float_array id="normals_array" count="1137">-0.370279729 -0.906352043 -0.203516379 -0.877223492 -0.478694916 -0.0364715159 -0.404290676 -0.897244394 0.177486852 -0.755636096 0.550845444 -0.354377449 -0.770638347 0.546740651 -0.327400655 -0.570195913 0.562272906 -0.598937213 -0.861655176 0.496301949 -0.105993986 0.00731935818 -0.516690373 0.856141031 -0.634339213 -0.221394181 0.740674257 -0.0154012553 -0.635660052 -0.771815479 -0.787920594 -0.282901049 -0.54694432 0.0111844018 -0.658459127 -0.752533376 -0.735787332 -0.67033416 0.0962763056 -0.900782466 -0.428765148 0.0689300746 -0.974215567 -0.224656731 0.0208164304 -0.635645151 -0.768197596 0.0763395727 -0.763716221 -0.638560474 0.0947524086 -0.69240725 -0.0236899387 0.721117914 -0.752836168 0.0143174035 0.658052266 -0.597794831 -0.0762497708 0.798014641 -0.571596444 -0.0896323621 0.815624654 -0.889367282 -0.456367075 0.0274758264 -0.9880597 -0.152633294 0.0210032165 -0.850504816 -0.519678414 0.081091851 -0.577349722 -0.814354777 0.059107054 -0.775787413 -0.630951703 0.00733429939 0.159363568 0.968719542 -0.190225512 0.369256794 0.899458349 -0.233718038 0.183935001 0.976102173 -0.115725756 -0.814030826 -0.580394149 0.0222800169 -0.732545733 -0.680226564 -0.0258567668 -0.955216706 0.00168745767 -0.295902312 -0.940439701 0.063609004 -0.333956718 -0.812143743 -0.00767679978 -0.583406866 -0.868420303 0.0918131247 -0.487254083 -0.550221503 0.834015727 -0.0409151241 -0.499234051 0.863515317 -0.0714607984 -0.514986992 0.854938626 -0.0621963181 0.807657897 -0.0959484205 0.581792533 0.790839434 -0.171987295 -0.587361395 -0.13738893 -0.37052536 -0.91860503 -0.999717057 -0.00834609196 0.0222752299 -0.972132266 -0.230208859 0.0443028025 -0.976414919 -0.209507793 0.0521579422 0.510249078 -0.279335529 0.813398719 0.0750782713 -0.435954928 -0.896831393 -0.615616322 -0.6770733 -0.403222382 -0.404930323 -0.803014636 -0.437263072 -0.66755116 -0.654162824 -0.355593085 -0.668024778 -0.744137645 0.00142373343 -0.177959263 -0.983631849 0.0282634981 -0.179040119 -0.983780146 0.011011146 -0.364466786 -0.277213514 -0.888997555 -0.154689923 -0.337212205 -0.928632855 -0.278615028 -0.30406937 -0.910996974 0.476386756 0.879234433 0.00155783701 0.26406461 0.961365938 -0.0777525008 0.155688733 0.987804234 0.00196467619 -0.488688111 -0.231942132 -0.841062903 -0.645946801 -0.0124383038 -0.763281047 -0.188105136 -0.892309785 -0.410365313 0.0314224251 -0.93521595 -0.352680773 0.137106717 -0.980542898 0.140489668 0.496623099 -0.803125858 0.329172134 0.500779212 -0.688400745 0.524713814 0.85180378 -0.518077135 -0.0776302218 0.609229147 -0.792988122 0.00311202556 0.760264277 -0.643992543 -0.0852754936 -0.96533823 0.259811163 -0.0249058548 -0.939737082 0.341469765 0.0171051659 -0.810701251 0.584357917 -0.0359070152 -0.134498671 -0.990503669 0.0285065658 0.637023807 0.768623829 -0.0584643371 -0.360175103 -0.0178758185 -0.932713449 -0.182721093 0.00876175147 -0.983125746 -0.016267227 -0.0160116591 -0.999739468 -0.444524258 -0.467590839 0.764039934 -0.574808657 -0.292782724 0.764116049 -0.51592797 -0.335735142 0.78809917 -0.371155828 -0.119582899 0.920838356 -0.365570039 0.0141689545 0.930675983 -0.313984871 -0.550615311 0.773457348 -0.0543448702 -0.39934808 0.915187299 -0.0987027735 -0.655363381 0.748836875 0.359230369 0.929082811 -0.088083066 -0.753969193 0.654073238 0.0609814152 -0.826923311 0.556485176 0.0807595029 -0.969368279 0.243271545 0.0338253714 -0.687578261 0.723154664 -0.0654482767 -0.998679817 -0.0442255773 0.0261292625 -0.999545693 0.0289188176 -0.00849211495 -0.765124261 -0.0672858357 -0.640357316 -0.445519626 0.134433225 -0.885121465 -0.916437924 0.0872005075 -0.390560687 -0.941239178 0.0915407985 -0.325098544 -0.993854344 0.106694527 -0.0294934586 -0.508956373 0.847393453 -0.151287109 -0.378248483 0.901890039 -0.208620384 -0.376207769 0.892515957 -0.248762786 0.252221376 0.96741879 -0.0220293682 0.100119144 0.99339515 0.0560553744 0.0938104168 0.994301736 0.0506330207 -0.562705934 0.825991094 -0.0331782065 -0.148116648 0.978246689 0.145240813 -0.0770277008 0.888095438 0.453159124 -0.927686691 0.134015337 0.348478496 -0.92543143 0.14684844 0.349302411 -0.29268384 0.954151928 0.0626915693 -0.961684287 -0.00311544584 -0.27414158 -0.228271246 0.970021129 -0.0833740085 -0.700633943 0.713419855 0.0120076034 -0.532768369 0.00720457779 -0.846230447 0.125389457 0.842045426 0.524630308 0.139092684 0.801307917 0.581858099 0.126041621 0.808547616 0.574773192 -0.805920124 0.302083194 -0.509154677 -0.820821524 0.315230072 -0.476321399 -0.726818025 0.204891369 -0.655557036 -0.968187928 -0.0325921327 -0.248092517 -0.995929718 0.0841875747 0.0321944132 -0.954513431 0.0259292834 -0.297038436 0.140901715 0.77511096 -0.615913749 0.00829161517 0.985390961 -0.170105606 -0.630321681 0.0623311698 -0.773827732 -0.67119354 0.694262087 0.259806424 0.186166227 0.980241418 -0.0668499768 0.931419849 0.355833083 -0.0764189437 -0.488597155 0.0695448145 -0.869733512 -0.449395955 0.238762647 -0.860834301 -0.559897542 0.810286343 -0.173062995 0.371632963 0.914789736 0.158267856 -0.023881251 0.999641597 -0.0120971901 -0.910099804 0.106815942 0.400385678 -0.00682721799 0.999620318 0.0266936328 -0.0301398952 0.999282122 0.0229530986 -0.123380877 0.987930059 -0.0936556309 -0.90637517 0.123626582 0.403980851 -0.906062186 0.120574623 0.405602038 -0.72925657 0.145508915 0.668589532 -0.508642018 0.141572639 0.84925878 0.0966711193 0.988784492 -0.113841906 0.0568885133 0.963126659 0.262965292 0.26388821 0.962164104 -0.0678473413 -0.0201390553 0.772173822 0.635092139 -0.140469298 0.946974993 0.288975298 -0.024299819 0.998251319 -0.0538866185 0.0460509993 0.99845624 -0.03105505 -0.394771457 0.150864631 0.906308651 -0.367765516 0.155716062 0.916788459 -0.255589545 0.946404159 -0.197466984 -0.476260483 0.874183714 -0.0947561562 -0.344991565 0.916513026 0.202446684 -0.25047031 0.96808219 -0.00902907643 -0.690353096 0.707820952 0.149673313 -0.233665034 0.972239614 -0.0122818928 0.147451386 0.90127486 0.407384038 -0.349601656 0.281544894 -0.893594503 -0.277550191 0.542195976 -0.793088555 -0.266963601 0.523998737 -0.808798969 -0.227180824 0.798343122 -0.557707012 -0.238234609 0.135779351 -0.961669505 -0.362821162 0.104465246 -0.9259848 -0.469424188 -0.0422428623 -0.881961703 -0.652468562 0.262018681 -0.711077392 0.0386591367 0.97890681 -0.200616241 -0.366466343 0.238069206 0.899458408 -0.297989666 0.267902106 0.916204453 -0.500306785 0.315640926 0.806265414 0.214802548 0.945786536 -0.24361375 0.514330089 0.834168434 -0.199066639 0.632119775 0.743037522 -0.219817698 0.751091242 -0.298576027 -0.58882457 0.933220863 0.110893019 -0.341762483 0.969096601 -0.0358752199 -0.244058982 -0.068418093 0.994304001 -0.0817223266 0.0434678681 0.963374078 0.264614701 -0.0934415236 0.951284051 0.293815225 -0.0982029289 0.986041427 -0.134456187 -0.230833173 0.341979027 0.910915136 -0.199318051 0.0495771989 0.978679955 -0.443670958 0.431240261 0.78561312 -0.116041899 0.459297061 0.880670488 0.0653992072 0.206335813 0.976293206 0.0309457704 -0.801072121 -0.597767353 -0.688757122 0.0182405133 -0.724762678 0.882634699 -0.170592502 0.438011587 0.287929744 -0.956902266 0.0378744043 0.212385431 -0.977174044 0.00482638413 0.370228171 -0.385632962 -0.84511441 0.411627531 -0.779749691 -0.471755385 0.354446083 -0.933950841 -0.0458668172 0.972249568 -0.229664639 -0.0445519872 0.96435672 -0.202648401 -0.170146227 0.679635584 -0.72442925 0.115316093 0.213983908 -0.976837158 1.82625215e-07 0.558906376 -0.827674329 0.0507830158 -0.00848166738 -0.0576680079 0.998299778 -0.189445227 -0.00509746326 0.981878042 0.0967646539 -0.0872568265 0.991475105 0.92910409 0.0744582191 -0.362245202 0.70240432 -0.697410703 0.142290384 0.931350231 -0.342638701 -0.123229124 0.197952121 0.0150458077 0.980096221 0.79311198 -0.609048843 -0.0057322192 0.588020861 -0.790468514 -0.171438143 0.874342799 -0.423756987 0.236547381 0.775124431 -0.282233119 0.565266788 0.55682832 -0.59745115 0.577056587 0.967457414 -0.149426743 -0.204200357 0.985318542 -0.152607664 -0.076539211 0.856414139 -0.515746355 0.023675289 0.957905233 -0.287073165 0.00257037953 0.996939957 -0.0591038354 -0.0511607826 0.98442626 0.00355823152 0.175761878 0.922282696 -0.383800864 -0.0457327291 0.863213003 -0.50051558 -0.0659353882 -0.65474689 -0.28747654 0.699044883 0.962022901 0.154928386 -0.224742338 0.975768626 0.204381719 -0.0781261623 0.999836743 0.0168776773 -0.00644948287 0.521954536 -0.0448011756 -0.851795971 -0.85601908 -0.512795568 0.065360792 0.991938114 -0.0932198018 -0.0858421475 0.602711856 -0.79332757 0.0858475566 0.849601567 0.519196987 -0.0927992091 -0.295916498 -0.073082298 -0.952413976 0.946631789 -0.201119736 -0.251871109 0.55909127 -0.82884407 0.020843219 0.099473685 -0.538822055 0.836525977 0.127137646 -0.247073039 0.960620105 0.388548315 -0.160746351 0.907298625 0.499409974 -0.341014922 0.796428561 0.708289146 -0.226907283 0.668460548 0.416783988 0.00341165508 0.908999145 0.168450698 0.935079455 0.311850518 -0.895984173 -0.160510644 0.414063632 0.0243151188 0.857621133 -0.513706923 -0.00552301994 0.895896316 -0.444228858 0.0143295359 0.871142209 -0.49082163 -0.0119868591 0.903346062 -0.428744882 0.213482454 0.0783664435 -0.973798692 -0.0358971506 0.977281749 -0.208882198 -0.0956190079 0.992172301 -0.0803186595 -0.0271548051 0.969140351 -0.245009422 0.259819418 -0.0105112828 -0.965600014 -0.122040391 0.992467105 0.0107304966 0.793670595 -0.327960104 0.51237601 -0.496309251 -0.705637634 -0.50571996 -0.0245918538 0.988134861 0.15160726 -0.0356949829 0.996868849 0.0705573335 -0.185884103 0.965677917 -0.181420088 0.0165355057 0.184872776 0.982623339 0.18011111 -0.196011141 0.963918865 0.0945246518 0.0405778438 0.994695187 0.79331547 0.548306167 0.264595777 0.168355629 0.280399829 0.945003867 0.254520237 0.181892097 0.949807703 -0.563926578 0.659145534 0.497507811 0.250977248 0.962184429 -0.105884738 0.118147776 0.970436871 -0.210459858 0.0183676276 0.979182661 -0.202148214 0.159454241 0.959806263 -0.230968043 -0.187273711 0.871783316 0.452683628 -0.175031811 0.88548255 0.430446893 -0.114443257 0.909947991 0.398619354 0.188697517 0.00949828792 -0.981989324 0.446377218 0.0118204737 -0.894766808 0.643196464 0.476139277 0.599657953 0.433318198 0.69257021 0.576699078 0.805089951 0.251004994 0.537425935 0.869853973 0.486181408 0.0835566595 0.843126953 0.123453207 -0.523350954 0.586041093 0.804834008 0.0937976688 0.950431943 0.26718086 -0.159039408 0.598767042 0.00439648144 -0.800911188 -0.131397843 0.930879891 0.340877175 0.374610484 -0.0236305241 -0.926881135 0.291181654 -0.171758845 -0.94112283 0.505199492 0.0832895488 -0.85897398 0.501063943 0.10407795 -0.859129071 -0.287104696 0.85125345 0.439247638 -0.383143961 0.438335687 -0.813057542 0.155211225 0.982146025 0.106295288 0.72060883 0.638247371 0.27085647 0.459704936 0.0251840204 0.887714565 0.358992249 0.864750504 0.351185352 0.288209796 0.78962636 0.541687548 0.458239168 -0.0127259865 0.888737857 0.00571563235 0.999774635 0.0204464514 0.0681799427 0.994778395 0.0759435222 0.40594241 0.844227791 0.349986076 0.0430225395 0.99827075 -0.0400578007 0.814065278 0.532382369 -0.232091948 0.839898229 0.531097531 -0.111831874 0.808050513 0.589085877 -0.00567590632 0.148896202 0.988852739 0.000350636139 0.895989299 0.00494652567 0.444048166 0.955863237 0.293762535 -0.00539316377 0.861473441 0.160139084 -0.481891036 0.669731438 0.107818656 -0.734734654 0.821561337 0.150909662 -0.54978478 0.644338489 0.1220228 -0.754942596 0.214524925 -0.568105757 -0.794502914 0.0714345872 0.993984222 -0.0830205977 0.112337969 0.949863851 -0.291785568 0.241073817 0.939432502 -0.243618637 0.309117049 0.919757903 -0.241851419 0.2331305 0.94719398 -0.220167413 0.344219327 0.911646187 -0.224531263 0.920413554 0.159105584 -0.357105404 0.407594651 0.899485469 -0.157456204 0.212909579 0.974203467 -0.0748138428 0.917021334 0.137035772 -0.374557167 0.517265916 0.569771051 0.63858974 0.904836237 0.0960914418 -0.414774388 0.950860977 0.0346417949 0.30767414 0.106907584 0.99376899 0.031527549 0.0524295308 0.996431053 0.0661536232 0.0893005729 0.995373011 0.0354675204 0.434918344 0.705585659 -0.559459448 0.408560544 0.723350108 -0.55663532 0.378555626 0.742365777 -0.552800775 0.991425991 -0.128125399 -0.0256580394 0.994547367 -0.0261873119 0.100944526 0.969048917 0.0709590167 0.236450911 0.342778891 0.76344347 -0.547409058 0.117744505 0.976113498 -0.182588816 -0.135492176 0.981350899 -0.136353612 0.0441471152 0.670646846 0.740461886 0.89547658 0.152304769 0.418240309 0.725480735 0.136605993 0.674549103 0.806470215 0.109801792 0.580989957 0.929199994 0.171618253 0.327314168 0.439429373 0.872725904 0.212723553 0.423901469 0.900718033 0.0949452072 0.474551022 0.877657652 -0.067219004 0.678312123 0.393417507 -0.62057656 -0.0270823482 -0.159652904 -0.986801624 0.363778591 0.930566311 -0.0413700826 0.380561143 0.924238503 -0.0309253354 0.436347038 0.896218002 0.0799660087 0.35068363 0.45780313 0.816968381 0.317683876 0.216611177 0.92312324 0.499375433 0.404075086 0.766386032 0.534124494 0.162908062 0.829561353 -0.990047216 0.0155003322 -0.139879286 0.978364825 0.206364721 -0.0146928979 0.986955643 0.160499528 0.0125869196 0.658869147 -0.714582205 0.235082224 -0.678309739 -0.0254491493 0.734335244 0.978007972 0.00514313625 -0.20850423 0.999365151 0.00473619439 -0.0353110172 0.656731248 -0.0681965724 -0.751034856 0.632202923 -0.0774457827 -0.770922601 0.730979025 -0.0378648303 -0.681348562 0.742985308 -0.0325748399 -0.668514609 0.999512136 -0.0286381692 0.0124630341 -0.544698358 -0.83826679 0.0247483589 -0.00228805956 -0.00301865349 0.999992847 0.0293768104 0.996898711 -0.073006399 0.0119102011 0.980747283 0.194917679 -0.085319452 0.996322691 -0.00785579532 -0.056504678 0.997845054 -0.033352945 -0.221896097 0.84730804 0.482525826 -0.227931634 0.973506272 -0.0182410553 -0.028048655 0.998756707 0.041211158 0.00132902653 0.999875605 0.0157166775 -0.0127775008 0.975397527 -0.220082611 0.671690047 -0.0388577469 0.739812553 0.0257060919 0.999596775 0.0120630572 -0.0362366326 0.999226987 -0.0152411945 0.254919261 -0.130331039 0.958138824 0.995277166 0.0060323705 0.0968861952 0.713974833 5.99693485e-05 0.700171411 0.0997160226 0.994760931 0.0225251559 0.0891333148 0.995722413 0.0243344549 0.0111202858 0.99771291 0.0666731298 -0.888776004 0.452764273 0.0712865591 0.107762299 0.994122326 0.0103981392</float_array>
          <technique_common>
            <accessor source="#normals_array" count="379" stride="3">
              <param name="X" type="float" />
              <param name="Y" type="float" />
              <param name="Z" type="float" />
            </accessor>
          </technique_common>
        </source>
        <vertices id="vertices">
          <input semantic="POSITION" source="#positions" />
        </vertices>
        <triangles material="scout_1a1a1a" count="394">
          <input semantic="VERTEX" source="#vertices" offset="0" />
          <input semantic="NORMAL" source="#normals" offset="1" />
          <p>0 0 1 1 2 2 3 3 2 4 1 5 2 4 3 3 4 6 5 7 6 7 7 7 5 8 7 8 8 8 5 9 9 9 6 9 5 10 8 10 9 10 10 11 3 11 1 11 3 12 10 12 4 12 11 13 6 14 9 15 12 16 11 13 9 15 13 17 14 18 11 19 13 17 11 19 12 20 15 21 16 22 17 23 18 24 17 23 12 16 15 21 17 23 18 24 15 21 18 24 19 25 20 26 21 27 22 28 23 29 19 25 24 30 10 31 25 32 4 33 25 32 26 34 4 33 27 35 28 36 29 37 11 38 14 38 16 38 14 39 13 39 17 39 14 40 17 40 16 40 30 41 16 22 31 42 30 41 31 42 23 43 32 44 31 44 15 44 31 45 32 45 23 45 0 0 4 46 33 47 0 0 2 48 4 46 1 1 0 0 7 49 34 50 9 15 8 51 18 24 12 16 9 15 34 50 18 24 9 15 35 52 36 53 37 54 38 55 39 56 40 57 35 52 37 54 41 58 26 34 33 59 4 33 42 60 0 0 33 47 43 61 0 0 42 60 44 62 45 63 46 64 47 65 48 66 49 67 50 68 51 69 52 70 53 71 18 24 34 50 15 21 31 42 16 22 38 55 54 72 39 56 42 73 55 74 56 75 57 76 23 77 24 78 58 79 23 77 57 76 30 80 23 77 58 79 57 76 24 78 59 81 60 82 59 81 53 83 57 76 59 81 60 82 29 84 61 84 25 84 62 85 63 86 64 87 50 68 62 85 64 87 65 88 62 85 50 68 61 89 28 90 25 32 19 91 23 91 32 91 51 69 50 68 30 41 29 92 28 92 61 92 66 93 28 94 67 95 28 96 68 97 26 98 67 99 69 100 66 101 63 102 27 35 29 37 63 86 70 103 27 104 67 95 28 94 27 105 71 106 67 95 27 105 72 107 70 103 63 86 73 108 74 108 47 108 62 85 72 107 63 86 75 109 62 85 65 88 65 88 50 68 52 70 76 110 52 70 51 69 26 34 77 111 33 59 78 112 77 113 79 114 80 115 81 116 68 117 80 118 68 119 82 120 80 121 83 121 81 121 26 98 68 97 77 122 81 116 84 123 68 117 83 124 84 124 81 124 68 97 85 125 77 122 77 126 85 126 79 126 86 127 85 128 68 117 84 123 86 127 68 117 28 96 82 129 68 97 66 93 82 120 28 94 66 93 80 118 82 120 80 130 66 101 83 131 70 132 71 106 27 105 71 133 87 134 67 99 67 99 87 134 69 100 87 134 88 135 69 100 89 136 70 132 90 137 91 138 89 136 90 137 91 138 90 137 92 139 91 140 93 141 89 142 89 143 93 141 94 144 91 140 95 145 93 141 95 145 94 144 93 141 92 146 96 146 97 146 98 147 91 138 92 139 98 147 92 139 97 148 62 85 75 109 72 107 65 88 99 149 75 109 100 150 65 88 52 70 100 150 99 149 65 88 71 106 70 132 89 136 52 70 76 110 100 150 101 151 88 152 94 153 76 110 102 154 100 150 55 74 42 73 77 111 79 114 103 155 78 112 104 156 103 157 79 158 85 128 104 156 79 158 86 127 104 156 85 128 78 159 55 159 77 159 86 127 105 160 104 156 106 161 103 162 104 156 88 163 107 163 108 163 91 140 98 164 95 145 109 165 98 147 97 148 110 166 109 165 96 167 111 168 112 169 113 170 114 171 115 172 116 173 101 151 107 174 88 152 117 175 101 151 94 176 100 150 118 177 99 149 100 150 102 154 118 177 119 178 51 179 30 80 76 180 51 179 119 178 102 181 76 180 119 178 119 178 40 182 102 181 43 61 42 60 56 183 13 184 12 184 17 184 46 185 120 185 44 185 121 186 53 71 122 187 123 188 43 61 56 183 124 189 43 61 123 188 125 190 43 61 124 189 126 191 127 192 35 193 49 67 48 66 35 193 48 66 120 194 35 193 48 66 122 187 120 194 121 186 122 187 48 66 128 195 121 186 48 66 46 196 41 197 37 198 46 199 36 199 35 199 41 200 126 191 35 193 127 192 74 201 49 67 74 202 129 202 49 202 130 203 128 195 48 66 123 188 114 171 124 189 131 204 125 190 124 189 114 171 131 204 124 189 45 63 44 62 125 190 132 205 45 63 125 190 132 205 133 206 45 63 133 206 46 64 45 63 41 207 46 64 133 206 127 192 134 208 74 201 134 208 47 65 74 201 134 208 135 209 47 65 136 210 48 66 47 65 135 209 136 210 47 65 137 211 48 66 136 210 132 205 138 212 139 213 137 211 140 214 48 66 140 214 141 215 130 203 73 216 129 216 74 216 135 209 134 208 142 217 142 217 143 218 135 209 135 209 137 211 136 210 144 219 137 211 135 209 140 220 145 220 141 220 145 221 137 221 141 221 137 211 144 219 141 222 138 223 125 190 131 204 114 224 146 224 131 224 146 225 116 225 131 225 116 173 138 212 131 226 116 227 146 227 114 227 121 228 60 82 53 83 128 229 60 82 121 228 147 230 128 229 130 231 141 232 147 230 130 231 141 232 144 233 147 230 78 112 103 155 55 234 103 235 106 235 55 235 106 236 148 237 55 238 148 237 149 239 55 238 105 160 150 240 106 161 108 241 151 242 105 243 150 240 148 244 106 161 151 242 150 245 105 243 149 246 148 246 152 246 108 247 150 247 151 247 94 176 153 248 117 175 109 249 110 250 153 248 154 251 110 252 96 253 153 254 110 254 154 254 154 251 96 253 155 255 156 256 154 251 155 255 153 257 154 257 156 257 35 193 127 192 49 67 157 258 99 149 111 168 157 258 111 168 113 170 107 174 158 259 108 260 39 56 118 177 102 154 39 56 159 261 118 177 102 154 40 57 39 56 160 262 161 263 152 264 149 265 161 266 123 188 162 267 163 268 164 269 165 270 164 269 163 268 115 172 114 171 166 271 157 258 113 170 165 272 164 269 165 270 167 273 165 270 113 170 167 273 114 171 168 274 166 271 161 263 149 275 152 264 148 244 160 276 152 277 148 244 169 278 160 276 150 240 169 278 148 244 150 240 22 279 169 278 161 263 160 262 168 280 158 259 20 26 108 260 108 260 20 26 22 28 169 281 168 281 160 281 153 248 170 282 117 175 170 283 171 283 172 283 156 256 155 255 173 284 155 285 163 268 173 286 174 287 156 256 173 284 156 288 174 289 170 282 163 268 162 267 173 286 173 286 162 267 175 290 174 289 176 291 170 282 165 272 163 268 155 285 167 273 113 170 177 292 159 261 112 169 111 168 112 169 177 292 113 170 112 169 178 293 177 292 38 55 179 294 54 72 158 259 172 295 20 26 117 175 170 282 172 295 180 296 162 267 133 206 167 273 177 292 142 217 177 292 178 293 142 217 178 293 143 218 142 217 143 218 144 219 135 209 179 294 181 297 143 218 182 298 21 299 183 300 182 301 169 278 22 279 22 302 21 302 182 302 184 303 183 304 20 26 20 26 183 304 21 27 169 305 166 306 168 307 182 308 166 306 169 305 183 300 184 309 182 298 182 308 185 310 166 306 172 295 171 311 20 26 184 309 185 312 182 298 186 313 171 313 187 313 184 309 186 314 185 312 186 315 187 315 185 315 188 316 189 317 171 318 171 319 189 320 187 321 185 322 189 323 190 324 187 321 189 320 185 325 191 326 170 282 176 291 191 326 176 291 192 327 191 328 192 328 170 328 192 329 176 330 175 331 192 329 175 331 190 324 188 332 192 329 190 324 175 290 180 333 190 334 175 290 162 267 180 333 175 331 174 287 173 284 176 330 174 287 175 331 54 72 179 294 178 293 180 296 132 205 139 213 115 335 193 335 194 335 178 293 112 169 54 72 185 336 195 336 194 336 185 337 194 337 193 337 185 338 190 334 195 339 180 333 139 340 190 334 139 340 195 339 190 334 38 341 40 182 196 342 38 341 196 342 179 343 144 233 196 342 147 230 181 344 196 342 144 233 179 343 196 342 181 344 64 87 6 14 50 68 50 68 6 14 16 22 63 86 29 345 1 1 29 345 10 31 1 1 185 346 193 347 115 172 166 271 185 346 115 172 120 194 46 348 35 193 15 349 19 349 32 349 16 22 30 41 50 68 143 218 181 297 144 219 194 350 195 351 138 212 129 352 73 353 47 354 129 352 47 354 49 355 164 356 167 273 126 191 63 86 6 14 64 87 19 25 18 24 59 357 167 273 127 192 126 191 44 62 120 194 8 51 125 190 44 62 8 51 8 51 0 0 125 190 6 14 1 1 7 49 18 24 53 71 59 357 10 31 29 345 25 32 119 178 57 358 196 342 57 358 119 178 58 79 57 358 60 82 147 230 57 358 147 230 196 342 60 82 128 229 147 230 119 178 30 80 58 79 119 178 196 342 40 182 28 90 26 34 25 32 22 28 150 359 108 260 84 360 83 131 108 241 83 131 66 101 88 135 87 134 71 133 94 361 71 133 89 362 94 361 87 134 94 361 88 135 88 135 108 241 83 131 88 135 66 101 69 100 92 363 90 364 72 107 96 365 92 363 72 107 96 365 72 107 157 258 72 107 75 109 157 258 96 365 157 258 155 366 105 243 86 367 108 241 0 0 8 51 7 49 130 203 48 66 140 214 145 368 140 368 137 368 101 151 197 369 198 370 99 149 118 177 159 261 125 190 0 0 43 61 72 107 90 364 70 103 53 71 34 50 122 187 37 198 36 371 46 196 16 22 6 14 11 13 126 191 41 372 164 356 6 14 63 86 1 1 59 357 24 30 19 25 106 161 104 156 105 160 111 168 99 149 159 261 142 217 134 208 167 273 127 192 167 273 134 208 155 285 157 258 165 272 96 167 109 165 97 148 168 274 114 171 123 188 133 206 164 269 41 373 77 111 42 73 33 59 39 56 112 169 159 261 125 190 138 223 132 205 108 241 86 367 84 360 157 258 75 109 99 149 195 351 139 213 138 212 172 295 158 259 197 369 158 259 107 174 198 370 117 175 172 295 197 369 101 151 117 175 197 369 107 174 101 151 198 370 197 369 158 259 198 370 138 212 116 173 194 350 56 75 55 74 149 265 56 75 149 265 123 188 54 72 112 169 39 56 168 274 123 188 161 266 188 316 171 318 192 374 170 375 192 374 171 318 153 248 94 176 98 376 98 377 94 377 95 377 153 248 98 376 109 249 156 288 170 282 153 248 190 324 189 323 188 332 34 50 8 51 120 194 122 187 34 50 120 194 133 206 162 267 164 269 143 218 178 293 179 294 116 173 115 172 194 350 171 311 186 378 184 303 171 311 184 303 20 26 180 296 133 206 132 205</p>
        </triangles>
      </mesh>
    </geometry>
  </library_geometries>
  <library_visual_scenes>
    <visual_scene id="scene">
      <node id="left_shoulder_yaw_link">
        <instance_geometry url="#geometry">
          <bind_material>
            <technique_common>
              <instance_material symbol="scout_1a1a1a" target="#scout_1a1a1a" />
            </technique_common>
          </bind_material>
        </instance_geometry>
      </node>
    </visual_scene>
  </library_visual_scenes>
  <scene>
    <instance_visual_scene url="#scene" />
  </scene>
</COLLADA>