<?xml version='1.0' encoding='utf-8'?>
<COLLADA xmlns="http://www.collada.org/2005/11/COLLADASchema" version="1.4.1">
  <asset>
    <created>2026-09-14T00:00:00Z</created>
    <modified>2026-09-14T00:00:00Z</modified>
    <unit name="metre" meter="1" />
    <up_axis>Z_UP</up_axis>
  </asset>
  <library_effects>
    <effect id="scout_1a1a1a_effect">
      <profile_COMMON>
        <technique sid="common">
          <lambert>
            <emission>
              <color>0 0 0 1</color>
            </emission>
            <ambient>
              <color>0.05 0.05 0.05 1</color>
            </ambient>
            <diffuse>
              <color>0.1 0.1 0.1 1</color>
            </diffuse>
          </lambert>
        </technique>
      </profile_COMMON>
    </effect>
  </library_effects>
  <library_materials>
    <material id="scout_1a1a1a" name="scout_1a1a1a">
      <instance_effect url="#scout_1a1a1a_effect" />
    </material>
  </library_materials>
  <library_geometries>
    <geometry id="geometry" name="link11_R">
      <mesh>
        <source id="positions">
          <float_array id="positions_array" count="96">-0.00930943619 0.00765268458 0.0019735645 -0.0127029894 -0.00125561841 0.00121949427 -0.0111540779 -0.00170584291 0.00243667443 -0.0149607658 -0.000596597965 -0.0110121341 -0.0122205764 0.00849889871 -0.011491091 -0.0142256729 -0.000816523039 -0.0127057415 -0.00782899465 0.00722234789 0.0025993106 -0.0096460022 -0.00213314034 0.00257181795 0.00521502597 -0.00701154862 -0.00274984259 0.00596283935 -0.00451318594 -0.0142500009 0.00597566739 -0.00444600685 -0.00274817995 0.00264638616 -0.00872963853 -0.00275803241 -0.00120298541 -0.00772109628 -0.00274999999 -0.0149911558 -0.000589751173 -0.00898079015 -0.0123500619 0.00853653718 -0.0090850452 0.00542251766 0.00051792193 -0.00274639321 0.00454435218 0.00206781691 -0.0142500009 0.00385557488 0.00278620399 -0.00274724537 0.0061301617 -0.00215648278 -0.00274859369 0.00613450911 -0.0017539066 -0.0142500009 0.00499527296 -0.00745630357 -0.0142500009 0.00354598742 -0.00851926208 -0.0142500009 0.00218868675 -0.00867110118 -0.0142500009 0.00435153255 -0.0080793174 -0.00274803839 -0.0124022737 -0.00130758598 -0.0141173964 -0.00120298541 -0.00772109628 -0.01425 -0.00644634059 0.00682884315 0.0024056749 0.00145696895 0.00446394552 -0.00268408889 -0.0102547947 0.00792748202 0.000751789252 0.00147591694 0.00445408793 -0.0142494673 -0.0109445574 0.00812798366 -0.0133886663 -0.00931868702 0.00765537377 -0.0141765606</float_array>
          <technique_common>
            <accessor source="#positions_array" count="32" stride="3">
              <param name="X" type="float" />
              <param name="Y" type="float" />
              <param name="Z" type="float" />
            </accessor>
          </technique_common>
        </source>
        <source id="normals">
          <float_array id="normals_array" count="180">-0.569182754 0.177097008 0.802911937 -0.808673263 0.222823694 0.544423699 -0.346558869 0.0886390805 0.933830857 -0.939360023 0.266864508 -0.215374216 -0.905380726 0.273418605 -0.324850798 -0.753225684 0.206182197 -0.624611855 -0.11657083 0.0440824255 0.992203593 0.123306751 -0.0555945374 0.990810096 0.886380911 -0.462935477 0.00442653336 0.982334852 -0.187108234 -0.00296034687 0.984380126 -0.176055104 -0.00061056501 0.0194911379 -0.997076929 0.0738760382 -0.277179897 -0.848366499 0.451049387 -0.31856522 -0.916265607 0.242844746 -0.394215018 -0.880155563 0.264425278 -0.456926197 -0.882263899 0.113264672 -0.465709478 -0.884813428 0.0148269907 -0.955955803 0.281580865 0.0828293413 -0.955774009 0.274767369 0.104875609 0.908865988 0.417006493 0.0082611097 0.793607473 0.608274519 -0.013756562 0.678827226 0.626612306 0.382819265 0.995756924 0.0919523835 0.00359492959 0.987118065 0.159788921 -0.00808643829 6.61720065e-08 0 -1 7.43842861e-07 0 -1 8.01407865e-08 1.46662941e-07 -1 0.587764859 -0.808977246 0.00939938892 0.810130954 -0.586194456 -0.00799356867 -0.472737968 -0.818760395 -0.325807124 -0.368058115 -0.929703355 -0.0135965683 -0.476810664 -0.86720562 -0.143548071 -0.465983748 -0.884116709 -0.0345953517 -0.0838113874 -0.996473014 -0.0041472083 0.366597772 0.612596273 0.700236976 0.326672882 -0.0707056895 0.942489028 0.290568024 -0.14635846 0.945594728 0.387227863 0.0131663391 0.92189002 0.467098176 0.170107201 0.867688179 0.468973696 0.86082232 0.197607279 0.157399505 -0.426391274 0.890738964 0.234040737 -0.281595379 0.930553019 0.274993986 0.961427987 0.00587646849 0.281569034 0.959538043 -0.00236775423 0.363244236 -0.931647718 -0.0092817191 0.453972965 0.890998185 -0.00554231927 -0.866223216 0.255972743 0.429109901 -0.286834866 0.0749247372 -0.955045581 -0.613157511 0.191687897 -0.766350806 1.1642873e-07 -2.47641569e-08 -1 2.69377779e-07 3.43428681e-08 -1 -0.00460698036 0.00103759754 -0.999988854 -0.00563619658 -0.000110996072 -0.999984086 -0.203488305 0.0635584146 -0.977012217 -7.79825277e-05 4.53473695e-05 -1 0.282120615 0.9593786 0.000835934014 0.281981409 0.959419668 0.000642909436 0.279128194 0.960253835 1.51520041e-07 0.279126912 0.960254192 1.67963822e-06 0.279128104 0.960253894 0</float_array>
          <technique_common>
            <accessor source="#normals_array" count="60" stride="3">
              <param name="X" type="float" />
              <param name="Y" type="float" />
              <param name="Z" type="float" />
            </accessor>
          </technique_common>
        </source>
        <vertices id="vertices">
          <input semantic="POSITION" source="#positions" />
        </vertices>
        <triangles material="scout_1a1a1a" count="60">
          <input semantic="VERTEX" source="#vertices" offset="0" />
          <input semantic="NORMAL" source="#normals" offset="1" />
          <p>0 0 1 1 2 2 3 3 4 4 5 5 6 6 2 2 7 7 8 8 9 9 10 10 11 11 7 12 12 13 7 12 2 14 12 13 2 14 1 15 12 13 1 15 13 16 12 13 14 17 3 3 13 18 15 19 16 20 17 21 18 22 19 23 15 19 20 24 21 25 22 26 23 27 20 28 8 8 24 29 25 30 5 31 25 30 3 32 5 31 12 13 22 33 11 11 7 7 26 34 6 6 10 35 7 7 8 36 10 35 18 37 26 34 18 37 15 38 26 34 15 38 17 21 26 34 17 21 27 39 26 34 11 40 23 41 7 7 23 41 8 36 7 7 2 2 6 6 0 0 6 42 26 34 28 43 10 10 19 23 18 22 13 16 25 30 12 13 11 11 21 44 23 27 17 21 29 45 27 39 28 46 13 18 1 1 24 47 5 5 30 48 15 19 19 23 16 20 11 11 22 33 21 44 8 8 20 28 9 9 14 17 4 4 3 3 5 5 4 4 30 48 19 49 9 50 25 51 9 50 20 24 22 26 22 26 25 51 9 50 25 51 24 47 29 52 24 47 31 53 29 52 29 52 16 54 25 51 16 54 19 49 25 51 1 1 0 0 28 46 12 13 25 30 22 33 10 35 26 34 7 7 26 34 27 39 28 43 27 39 29 45 31 55 14 56 31 55 4 57 27 39 31 55 14 56 31 55 30 58 4 57 14 56 28 43 27 39 28 43 0 59 6 42 10 10 9 9 19 23 13 16 3 32 25 30 24 47 30 48 31 53 17 21 16 20 29 45 28 46 14 17 13 18 23 27 21 44 20 28</p>
        </triangles>
      </mesh>
    </geometry>
  </library_geometries>
  <library_visual_scenes>
    <visual_scene id="scene">
      <node id="link11_R">
        <instance_geometry url="#geometry">
          <bind_material>
            <technique_common>
              <instance_material symbol="scout_1a1a1a" target="#scout_1a1a1a" />
            </technique_common>
          </bind_material>
        </instance_geometry>
      </node>
    </visual_scene>
  </library_visual_scenes>
  <scene>
    <instance_visual_scene url="#scene" />
  </scene>
</COLLADA>