<?xml version='1.0' encoding='utf-8'?>
<COLLADA xmlns="http://www.collada.org/2005/11/COLLADASchema" version="1.4.1">
  <asset>
    <created>2026-09-14T00:00:00Z</created>
    <modified>2026-09-14T00:00:00Z</modified>
    <unit name="metre" meter="1" />
    <up_axis>Z_UP</up_axis>
  </asset>
  <library_effects>
    <effect id="scout_1a1a1a_effect">
      <profile_COMMON>
        <technique sid="common">
          <lambert>
            <emission>
              <color>0 0 0 1</color>
            </emission>
            <ambient>
              <color>0.05 0.05 0.05 1</color>
            </ambient>
            <diffuse>
              <color>0.1 0.1 0.1 1</color>
            </diffuse>
          </lambert>
        </technique>
      </profile_COMMON>
    </effect>
  </library_effects>
  <library_materials>
    <material id="scout_1a1a1a" name="scout_1a1a1a">
      <instance_effect url="#scout_1a1a1a_effect" />
    </material>
  </library_materials>
  <library_geometries>
    <geometry id="geometry" name="link12_R">
      <mesh>
        <source id="positions">
          <float_array id="positions_array" count="132">0.0284625888 0.0361976437 -0.00560018001 0.0290053766 0.0352319255 -0.00210854993 0.0376746617 0.0390819572 -0.00274348469 0.0387530737 0.0385127887 -0.0145160658 0.0304497611 0.03557368 -0.0143250516 0.0366368033 0.0390444249 -0.0120157404 0.027776584 0.0357228965 -0.0113651203 0.0596005879 0.0242903307 -0.0114909923 0.0543790348 0.0175728574 -0.00448188558 0.0540665314 0.0174836181 -0.0119160106 -0.00108961994 0.0168698169 -0.00269054016 -0.000728950719 0.0184061173 -0.0073356214 -0.00155208656 0.0148801925 -0.0144421691 0.0198778752 0.0315541476 -0.00438229414 0.037598405 0.035158217 0.000673694944 0.0459902063 0.0380876139 -0.00275047659 0.000311262876 -0.00695156865 0.000626931957 0.0392151959 0.0286909733 0.00191285007 -0.00320064835 -0.00290760561 0.000909653143 0.0591881014 0.0246270671 -0.00329056475 0.0459168255 0.0381547771 -0.0132493638 0.0141543048 0.0262538437 -0.014042885 0.0122504905 0.0268803444 -0.0114349155 0.0588800013 0.0249003991 -0.0129308207 0.0380134992 0.0334997103 -0.0172156505 -0.00357187283 0.000695077644 0.000943523075 -0.00130408234 0.0142129818 -0.00124158466 0.039832674 0.025622407 -0.017755283 -0.00362340361 0.000769946666 -0.0169832576 0.0437231027 0.0164651051 0.000515534892 0.0532329828 0.0188184623 -0.00187449099 -0.00320528867 -0.00306637865 -0.0169806033 0.043876458 0.0160744675 -0.0164450109 0.0415816568 0.00969679281 -0.0147003978 0.00947216433 -0.0108848261 -0.0141517967 0.0533788055 0.018898882 -0.0140473852 0.000915442361 -0.00750106061 -0.0165268909 0.043520309 0.010929523 -0.0014874445 0.00592508586 -0.00998052862 -0.000558754662 0.0454250015 0.010382073 -0.00429799734 0.00152502616 -0.0087368181 -0.00743867364 0.0374871716 0.00480856607 -0.0117341131 0.0112315295 -0.0109676244 -0.00283941044 0.0115777506 -0.0112180701 -0.0105678784</float_array>
          <technique_common>
            <accessor source="#positions_array" count="44" stride="3">
              <param name="X" type="float" />
              <param name="Y" type="float" />
              <param name="Z" type="float" />
            </accessor>
          </technique_common>
        </source>
        <source id="normals">
          <float_array id="normals_array" count="204">-0.401711702 0.906996727 0.126430199 -0.352892816 0.701537549 0.61912179 -0.0889347717 0.912647367 0.398955405 -0.05854984 0.591037989 -0.804516017 -0.321042508 0.669683695 -0.669668138 -0.125514328 0.977193952 -0.171283752 -0.429845482 0.875151098 -0.222133845 0.769584239 -0.579959571 -0.267183512 0.690874577 -0.673499107 0.262852222 0.671089351 -0.675670981 -0.305135608 -0.984770477 0.170983344 0.031493403 -0.973702192 0.22782439 -0.000253513281 -0.987961113 0.154173687 0.012777064 -0.487557441 0.820035994 0.299714297 0.103180371 0.993913352 -0.0386010371 -0.0107920161 0.429285944 0.903104126 0.248467535 0.346986324 0.904358566 0.0517969467 -0.106618136 0.992949963 0.106554389 0.10673885 0.988561094 0.00388711179 -0.0369440652 0.999309778 0.714164317 0.699941278 0.00718114665 0.71408534 0.69978863 -0.0194418542 0.712376773 0.701795638 0.00146974018 0.711940408 0.702231705 -0.00339307101 -0.362211972 0.570236325 -0.737314761 -0.524484515 0.809360743 -0.26429379 0.714281976 0.697096527 -0.0621107109 0.0233555231 0.297783673 -0.95434761 0.270082444 0.316299826 -0.909400821 0.267741174 0.0880993158 0.959454656 -0.0527812839 0.0442867763 0.997623563 0.265344441 0.0781173483 -0.960983872 -0.582927704 0.81187427 -0.0324877836 -0.417473644 0.641096771 0.643980384 -0.339387029 0.4361417 -0.833424807 -0.198667288 0.283196718 0.938259542 0.115161642 0.0239769872 -0.99305737 -0.0570099242 0.0543476418 -0.996893287 0.205920681 -0.182941854 0.961316288 0.459916741 -0.35546127 0.813709974 0.0103074014 -0.0424401835 -0.999045849 0.219973087 -0.199962065 -0.954791605 0.397836298 -0.555314302 -0.730309725 0.294293284 -0.504024446 -0.812004209 0.467835724 -0.360350251 -0.807017624 -0.999902964 0.0129923718 0.00502994843 0.0811154693 0.996408463 -0.0242989995 -0.999796629 0.0189660247 0.00685453694 -0.95640415 0.195516348 0.216943577 0.801686347 -0.574443817 0.165267259 0.664966464 -0.507602274 -0.547868133 0.0745441243 -0.144593269 -0.986679256 0.395040095 -0.555035591 0.732037425 -0.917304277 -0.398059845 -0.0100594023 -0.922936022 -0.384809196 0.0105362907 0.156080455 -0.269823402 0.950175881 0.580089808 -0.778347671 0.240147308 -0.649811387 -0.756889105 0.0697428808 -0.535078585 -0.844801903 -0.000796580105 -0.588508308 -0.805451095 -0.0700464845 0.527534246 -0.810357332 -0.255007058 0.423517197 -0.689851761 0.58714366 -0.314658016 -0.947872579 0.0502787046 -0.273384392 -0.961773455 -0.015898224 -0.222324595 -0.974740267 0.0212880261 0.512391329 -0.840997398 -0.173719615 -0.172778249 -0.984664202 0.0241683535 0.118733428 0.992910802 0.00552211516</float_array>
          <technique_common>
            <accessor source="#normals_array" count="68" stride="3">
              <param name="X" type="float" />
              <param name="Y" type="float" />
              <param name="Z" type="float" />
            </accessor>
          </technique_common>
        </source>
        <vertices id="vertices">
          <input semantic="POSITION" source="#positions" />
        </vertices>
        <triangles material="scout_1a1a1a" count="84">
          <input semantic="VERTEX" source="#vertices" offset="0" />
          <input semantic="NORMAL" source="#normals" offset="1" />
          <p>0 0 1 1 2 2 3 3 4 4 5 5 4 4 6 6 5 5 7 7 8 8 9 9 5 5 0 0 2 2 10 10 11 11 12 12 13 13 1 1 0 0 5 5 2 2 3 14 14 15 15 16 2 2 6 6 13 13 0 0 16 17 17 18 18 19 19 20 7 21 15 22 7 21 20 23 15 22 21 24 22 25 4 4 22 25 6 6 4 4 6 6 22 25 13 13 7 21 23 26 20 23 24 27 3 3 20 28 14 15 17 18 15 16 17 18 19 29 15 16 17 18 14 15 25 30 23 31 24 27 20 28 4 4 3 3 24 27 21 24 4 4 24 27 11 32 10 33 13 13 13 13 10 33 1 1 12 34 21 24 24 27 1 1 10 33 14 15 26 35 14 15 10 33 12 34 11 32 22 25 23 31 27 36 24 27 28 37 12 34 24 27 17 18 29 38 19 29 29 38 30 39 19 29 26 35 25 30 14 15 28 37 27 36 31 40 21 24 12 34 22 25 32 41 33 42 34 43 35 44 32 41 23 31 32 41 27 36 23 31 28 37 24 27 27 36 25 30 18 19 17 18 28 45 10 10 12 12 2 2 20 46 3 14 25 47 26 48 10 10 30 39 8 8 19 49 9 9 35 44 7 7 35 44 23 50 7 7 17 18 16 17 29 38 33 42 32 41 35 44 36 51 27 36 32 41 29 38 37 52 30 39 28 45 31 53 25 47 31 53 18 54 25 47 38 55 37 52 29 38 37 52 8 8 30 39 39 56 9 9 8 8 9 9 33 42 35 44 31 40 27 36 36 51 16 57 18 54 40 58 31 53 36 59 40 58 37 52 39 56 8 8 41 60 9 9 39 56 41 60 33 42 9 9 38 55 29 38 16 17 38 55 42 61 37 52 40 58 38 62 16 57 42 61 39 56 37 52 34 43 33 42 41 60 34 43 36 51 32 41 34 63 40 58 36 59 39 56 42 61 41 60 43 64 40 58 34 63 43 64 38 62 40 58 41 60 43 65 34 43 42 66 38 62 43 64 42 61 43 65 41 60 18 54 31 53 40 58 28 45 25 47 10 10 2 2 15 67 20 46 8 8 7 7 19 49 11 32 13 13 22 25 0 0 5 5 6 6 14 15 2 2 1 1</p>
        </triangles>
      </mesh>
    </geometry>
  </library_geometries>
  <library_visual_scenes>
    <visual_scene id="scene">
      <node id="link12_R">
        <instance_geometry url="#geometry">
          <bind_material>
            <technique_common>
              <instance_material symbol="scout_1a1a1a" target="#scout_1a1a1a" />
            </technique_common>
          </bind_material>
        </instance_geometry>
      </node>
    </visual_scene>
  </library_visual_scenes>
  <scene>
    <instance_visual_scene url="#scene" />
  </scene>
</COLLADA>