<?xml version='1.0' encoding='utf-8'?>
<COLLADA xmlns="http://www.collada.org/2005/11/COLLADASchema" version="1.4.1">
  <asset>
    <created>2026-09-14T00:00:00Z</created>
    <modified>2026-09-14T00:00:00Z</modified>
    <unit name="metre" meter="1" />
    <up_axis>Z_UP</up_axis>
  </asset>
  <library_effects>
    <effect id="scout_1a1a1a_effect">
      <profile_COMMON>
        <technique sid="common">
          <lambert>
            <emission>
              <color>0 0 0 1</color>
            </emission>
            <ambient>
              <color>0.05 0.05 0.05 1</color>
            </ambient>
            <diffuse>
              <color>0.1 0.1 0.1 1</color>
            </diffuse>
          </lambert>
        </technique>
      </profile_COMMON>
    </effect>
  </library_effects>
  <library_materials>
    <material id="scout_1a1a1a" name="scout_1a1a1a">
      <instance_effect url="#scout_1a1a1a_effect" />
    </material>
  </library_materials>
  <library_geometries>
    <geometry id="geometry" name="link12_L">
      <mesh>
        <source id="positions">
          <float_array id="positions_array" count="132">0.037008889 -0.00469734427 -0.00355347758 0.0310828146 -0.000678557844 -0.0113815805 0.0109133553 0.0110448534 -0.00280337967 0.0109776836 0.0108060157 -0.0133635215 0.00643400475 0.0102560557 -0.0153653407 0.00159285171 0.00878918264 -0.00747525552 0.00615077419 0.0100589674 -0.000618533872 0.0453829914 -0.0103526134 -0.0116966907 0.0435437001 -0.0109567624 -0.00148402515 0.0434496664 -0.0108428141 -0.0144857597 -0.00075120345 0.00601198385 -0.0167853497 -0.000211489896 0.00655312883 0.000705198501 0.0374101475 -0.0351320207 0.00064529106 0.0391970575 -0.0284066722 0.0019192989 -0.00370535045 0.000531839614 0.00103676866 0.0439718254 -0.016229257 -0.0164480768 0.0541110747 -0.017514335 -0.0041060918 0.0543605424 -0.0175551791 -0.0115138376 0.0533938296 -0.0189251006 -0.0140478536 0.0436502583 -0.0166758429 0.00058066292 0.0532100312 -0.0188312847 -0.00185365987 0.0401400775 -0.0251751039 -0.017717788 -0.00377941667 0.00129725714 -0.0171046276 0.045927316 -0.0381488241 -0.0132378945 0.0376148596 -0.0391120091 -0.00276290649 0.0389978886 -0.0385230519 -0.0145862959 0.0298475474 -0.0354329459 -0.0141922105 0.0381012559 -0.033761628 -0.0171375666 0.0588790923 -0.0249003991 -0.0129326228 0.0592214279 -0.0245762281 -0.00333371246 0.0595849939 -0.0243130494 -0.0115384068 -0.00310937595 0.00288164057 0.000913633849 0.0127467224 -0.0246646795 -0.0144226681 0.0122752003 -0.0267444458 -0.0120352721 -0.00152772444 -0.0150149055 -0.0144124711 -0.00110190548 -0.0168548059 -0.00269353413 -0.00129795366 -0.0142311994 -0.00124476792 -0.000707941363 -0.018442221 -0.0072001284 0.0459718667 -0.038098868 -0.00273650652 0.0295095239 -0.0353312343 -0.00195055513 0.0200419743 -0.0316939428 -0.00446602376 0.0370169431 -0.038999673 -0.0130075784 0.028102627 -0.0360373296 -0.0105271507 0.0285437927 -0.0360303298 -0.00449239556</float_array>
          <technique_common>
            <accessor source="#positions_array" count="44" stride="3">
              <param name="X" type="float" />
              <param name="Y" type="float" />
              <param name="Z" type="float" />
            </accessor>
          </technique_common>
        </source>
        <source id="normals">
          <float_array id="normals_array" count="213">0.51681906 0.78233844 0.347627133 0.525983453 0.850076497 0.0266714245 0.501611352 0.865088344 -0.00286277337 -0.110073805 0.993653953 -0.0231435597 -0.310766935 0.948949575 -0.054023739 -0.211182654 0.977405429 -0.0089750262 -0.553403914 0.832912505 0.000897485355 -0.316540688 0.947937846 0.034869425 0.581473112 0.779253066 -0.233781233 0.310598373 0.507086754 -0.80398488 0.443755478 0.675153255 -0.58927846 0.413635105 0.554002583 0.722486794 0.289120018 0.478509754 0.829118848 0.399780542 0.563818216 -0.722692549 0.153976291 0.266044378 -0.951583803 -0.741221666 0.671123087 -0.0135741802 -0.683234274 0.728589833 0.0484543294 -0.0150200976 -0.425330162 0.904913604 0.10591919 -0.104948379 0.98882097 -0.0333800279 -0.0174087379 0.999291122 0.218600065 0.201004684 -0.954888046 0.157907888 0.273906469 0.948704541 0.682446837 0.670386732 0.291286588 0.693836629 0.671055973 -0.261294037 0.473637849 0.36954993 -0.799437344 0.20444335 0.178213656 0.96251899 0.452394873 0.341116667 0.824001372 0.0477608144 0.102103435 0.993626595 0.11692065 -0.0219139364 -0.992899477 0.0500028767 0.102979086 -0.993425906 -0.0379913859 -0.0246337708 -0.998974383 0.084509939 -0.996120632 -0.0245314538 -0.0924144164 -0.913977027 0.395102024 0.115524933 -0.992654383 -0.0359342322 -0.340515614 -0.680660784 -0.648652494 0.0213039052 -0.301210523 -0.953319669 -0.0316664316 -0.544084251 -0.838432789 0.266616911 -0.0789502114 -0.96056354 0.78807354 0.600273907 0.136423513 0.664795816 0.509421825 -0.546384394 0.663963616 0.506911457 -0.549720943 0.0119709736 0.0482885465 0.998761714 0.497170746 0.867494047 -0.0165914651 0.268485099 -0.0911731422 0.95895946 -0.896485329 0.443073422 -0.000102897146 0.276691914 -0.313779563 -0.908286273 -0.325446755 -0.49517566 -0.805534303 -0.50621438 -0.790305853 -0.345200807 -0.339131147 -0.430761963 -0.836321831 -0.971509397 0.23673214 0.0112871369 -0.998652399 0.0507890694 0.0106686717 -0.985373199 -0.167750299 0.0299916305 -0.958563805 -0.189223126 0.212955534 -0.582235515 -0.812840223 -0.0171054937 -0.971716464 -0.236144051 -0.00176691764 -0.988886952 -0.148128033 0.0126757063 0.244542643 -0.341201603 0.90762347 0.712375224 -0.701793969 0.00259567937 0.714248657 -0.699591577 -0.0205053519 0.71445483 -0.699620843 0.00921760499 0.711842477 -0.70233351 -0.00281041116 0.714189649 -0.696628869 -0.0681276172 -0.342143774 -0.676374257 0.652269542 -0.41596669 -0.639343679 0.646692693 -0.196778029 -0.279446572 0.939780831 -0.488894075 -0.820091009 0.297377437 -0.127163082 -0.959803641 -0.250212908 -0.415899575 -0.897279382 -0.148044989 -0.39661324 -0.896664917 0.196697727 0.120337062 -0.99272418 0.00421270402 0.790060937 0.610592365 0.0545950383</float_array>
          <technique_common>
            <accessor source="#normals_array" count="71" stride="3">
              <param name="X" type="float" />
              <param name="Y" type="float" />
              <param name="Z" type="float" />
            </accessor>
          </technique_common>
        </source>
        <vertices id="vertices">
          <input semantic="POSITION" source="#positions" />
        </vertices>
        <triangles material="scout_1a1a1a" count="84">
          <input semantic="VERTEX" source="#vertices" offset="0" />
          <input semantic="NORMAL" source="#normals" offset="1" />
          <p>0 0 1 1 2 2 3 3 4 4 2 5 4 4 5 6 2 5 5 6 6 7 2 5 7 8 3 9 1 10 8 11 0 0 2 12 0 0 7 8 1 1 7 8 9 13 3 9 9 13 4 14 3 9 4 4 10 15 5 6 11 16 6 7 5 6 12 17 13 18 14 19 15 20 4 14 9 13 8 11 2 12 6 21 16 22 7 8 0 0 16 22 17 23 7 8 17 23 9 13 7 8 17 23 18 24 9 13 19 25 8 11 6 21 20 26 16 22 8 11 16 22 0 0 8 11 18 24 15 20 9 13 11 27 19 25 6 21 15 20 21 28 10 29 21 28 22 30 10 29 23 31 24 32 25 33 26 34 27 35 25 36 20 26 8 11 19 25 28 37 15 20 18 24 29 38 16 22 20 26 30 39 18 24 17 23 30 39 28 40 18 24 21 28 15 20 28 37 27 35 21 28 28 37 31 41 14 19 13 18 1 1 3 42 2 2 29 43 20 26 19 25 31 44 11 16 5 6 27 35 22 30 21 28 19 25 13 18 29 43 23 45 27 35 28 37 32 46 33 47 34 48 31 44 22 49 14 50 22 49 35 51 14 50 34 48 22 30 27 35 35 51 36 52 14 50 33 47 37 53 34 48 37 54 35 51 34 55 13 18 38 56 29 43 38 57 30 58 29 59 38 57 23 60 30 58 23 60 28 61 30 58 10 29 4 14 15 20 25 36 27 35 23 45 39 62 12 17 35 63 12 17 36 64 35 63 14 19 36 64 12 17 12 17 38 56 13 18 32 46 34 48 27 35 11 27 31 41 13 18 37 53 40 65 35 63 40 65 39 62 35 63 12 17 24 32 38 56 26 34 32 46 27 35 16 22 29 38 17 23 26 34 33 47 32 46 41 66 26 34 25 36 33 47 40 65 37 53 26 34 42 67 33 47 42 67 40 65 33 47 43 68 39 62 40 65 24 32 12 17 39 62 43 68 24 32 39 62 42 67 26 34 41 66 42 67 43 68 40 65 41 66 24 32 42 67 19 25 11 27 13 18 23 31 38 69 24 32 24 32 41 66 25 33 10 15 22 49 5 6 22 49 31 44 5 6 22 49 34 55 35 51 29 38 30 70 17 23 24 32 43 68 42 67</p>
        </triangles>
      </mesh>
    </geometry>
  </library_geometries>
  <library_visual_scenes>
    <visual_scene id="scene">
      <node id="link12_L">
        <instance_geometry url="#geometry">
          <bind_material>
            <technique_common>
              <instance_material symbol="scout_1a1a1a" target="#scout_1a1a1a" />
            </technique_common>
          </bind_material>
        </instance_geometry>
      </node>
    </visual_scene>
  </library_visual_scenes>
  <scene>
    <instance_visual_scene url="#scene" />
  </scene>
</COLLADA>