<?xml version='1.0' encoding='utf-8'?>
<COLLADA xmlns="http://www.collada.org/2005/11/COLLADASchema" version="1.4.1">
  <asset>
    <created>2026-09-14T00:00:00Z</created>
    <modified>2026-09-14T00:00:00Z</modified>
    <unit name="metre" meter="1" />
    <up_axis>Z_UP</up_axis>
  </asset>
  <library_effects>
    <effect id="scout_1a1a1a_effect">
      <profile_COMMON>
        <technique sid="common">
          <lambert>
            <emission>
              <color>0 0 0 1</color>
            </emission>
            <ambient>
              <color>0.05 0.05 0.05 1</color>
            </ambient>
            <diffuse>
              <color>0.1 0.1 0.1 1</color>
            </diffuse>
          </lambert>
        </technique>
      </profile_COMMON>
    </effect>
  </library_effects>
  <library_materials>
    <material id="scout_1a1a1a" name="scout_1a1a1a">
      <instance_effect url="#scout_1a1a1a_effect" />
    </material>
  </library_materials>
  <library_geometries>
    <geometry id="geometry" name="link20_L">
      <mesh>
        <source id="positions">
          <float_array id="positions_array" count="102">0.00860470813 -0.00180266472 -0.010341974 0.0107249692 -0.00326170539 -0.00786529295 0.00705426419 -0.0250610802 -0.00913751964 -0.00391179742 -0.00212286576 -0.00501564704 -0.00511226896 -0.0386929996 -0.00742902094 -0.00547756813 -0.038804967 -0.00421740161 -0.00303266896 0.00181900884 -0.00200644159 -0.00247268286 0.0036579431 -0.00807366427 0.0027019789 -0.032795839 0.000101013989 0.00731426384 -0.0246335696 -0.00121311808 0.00631178031 -0.000451710162 0.00130871031 -0.00381279434 -0.0429532081 -0.00767959887 -0.00428171689 -0.0373105891 -0.000605335517 -0.00341605744 -0.0375619903 -0.010217608 -0.00314765261 -0.0434835777 -0.00139014365 -0.000436845206 -0.00481390581 -0.0105337072 -0.00022823576 -0.00532034039 0.000700026751 -0.00184866495 -0.0451026894 -0.00352194859 -0.00304283388 -0.0377624594 0.000346927409 -7.63255866e-06 0.00633921893 -0.00200666464 -0.00260917097 -0.0434063524 -0.00890649389 -0.00162606989 -0.0450352728 -0.00680100918 0.00279342476 0.00771200517 -0.0079741748 0.00529126031 -0.000730250147 -0.0113579491 -0.00019152867 -0.0361774825 -0.0104198363 0.000935658813 -0.0433785319 -0.00879768841 0.00148698245 -0.0433464274 -0.00141090539 0.00579939364 0.00779383956 -0.00202940265 0.00584996073 0.00764879212 -0.00798877701 0.000980658806 -0.0450120904 -0.0072811665 0.00169586297 -0.0444395654 -0.00252786535 0.0104018264 -0.00309412437 -0.0013806877 0.00230333651 -0.0439418927 -0.00653732056 0.00848053861 -0.0234937035 -0.00466938736</float_array>
          <technique_common>
            <accessor source="#positions_array" count="34" stride="3">
              <param name="X" type="float" />
              <param name="Y" type="float" />
              <param name="Z" type="float" />
            </accessor>
          </technique_common>
        </source>
        <source id="normals">
          <float_array id="normals_array" count="135">0.594397843 0.148101926 -0.790415764 0.947692692 0.110059455 -0.299608946 0.719700396 -0.171793669 -0.672694802 -0.994584143 0.0853898078 -0.0592532605 -0.936147034 -0.11738763 -0.331434518 -0.981449008 -0.155335844 0.112377241 -0.794697642 0.305447668 0.524554431 -0.72970432 0.446579337 -0.517782331 0.325422943 -0.122980855 0.937537014 0.760016322 -0.173601076 0.62628895 0.250082999 0.200412914 0.947255611 -0.819917202 -0.489858925 -0.296266735 -0.81266892 -0.0589814149 0.579733074 -0.489063203 -0.108165778 -0.865515649 -0.874028921 -0.442708254 0.200207084 -0.417203814 0.0681941435 -0.906250834 -0.36668101 0.0695100352 0.927746415 -0.740917146 -0.671590567 0.00281048636 -0.279088229 -0.138959736 0.950157881 -0.580622792 0.813319683 0.0372586586 -0.735799968 -0.243359387 -0.631960928 -0.317504615 -0.915681541 -0.246410549 -0.199876845 0.289989799 0.935924768 -0.290809095 0.956686318 -0.0134650888 0.0750405565 0.178547606 -0.981065571 0.155508906 -0.113620095 -0.981278479 0.393094093 -0.428432971 -0.813586056 -0.221831441 -0.615670621 -0.756135225 -0.105716385 0.342850238 -0.933422625 0.00499126129 -0.521096289 0.853483319 0.441941559 -0.440950841 0.781185031 -0.164438412 0.983928502 0.0696035847 0.0205554813 0.999496937 -0.0241528098 0.60926342 0.482060432 -0.629615664 0.185381472 -0.940169096 -0.285859823 0.553261161 -0.734488785 0.392973661 -0.0888153315 0.369023591 0.925166726 0.0488111638 -0.940300763 0.336826235 0.915306926 0.402638495 0.00977148209 0.569404781 0.0459860526 0.820770085 0.840194821 -0.501435816 -0.206481859 0.691928446 -0.480870903 -0.538514793 0.987383723 0.147185206 0.0583943464 0.655711234 0.317974925 0.684788108 0.980593681 -0.195516735 0.0144659355</float_array>
          <technique_common>
            <accessor source="#normals_array" count="45" stride="3">
              <param name="X" type="float" />
              <param name="Y" type="float" />
              <param name="Z" type="float" />
            </accessor>
          </technique_common>
        </source>
        <vertices id="vertices">
          <input semantic="POSITION" source="#positions" />
        </vertices>
        <triangles material="scout_1a1a1a" count="64">
          <input semantic="VERTEX" source="#vertices" offset="0" />
          <input semantic="NORMAL" source="#normals" offset="1" />
          <p>0 0 1 1 2 2 3 3 4 4 5 5 6 6 7 7 3 3 8 8 9 9 10 10 3 3 7 7 4 4 4 4 11 11 5 5 12 12 6 6 5 5 6 6 3 3 5 5 13 13 4 4 7 7 14 14 5 5 11 11 15 15 13 13 7 7 14 14 12 12 5 5 12 12 16 16 6 6 17 17 14 14 11 11 13 13 11 11 4 4 14 14 18 18 12 12 18 18 16 16 12 12 6 6 19 19 7 7 20 20 11 11 13 13 11 11 21 21 17 17 16 16 19 22 6 6 22 23 7 7 19 19 23 24 15 15 7 7 15 15 23 24 13 13 23 24 24 25 13 13 10 10 16 16 18 18 16 16 10 10 19 22 25 26 13 13 24 25 21 21 11 11 20 27 8 8 10 10 18 18 7 7 22 28 23 24 23 24 2 2 24 25 20 27 13 13 25 26 14 29 26 30 18 18 26 30 8 8 18 18 27 31 28 32 22 23 22 28 28 33 23 24 25 26 29 34 20 27 30 35 26 30 14 29 27 36 19 22 10 10 0 0 2 2 23 24 2 2 25 26 24 25 21 21 20 27 29 34 21 21 29 34 17 37 17 37 30 35 14 29 28 33 0 0 23 24 9 9 8 8 26 30 1 1 28 33 27 38 29 34 30 35 17 37 9 9 31 39 10 10 2 2 32 40 25 26 25 26 32 40 29 41 30 35 29 34 32 40 31 42 1 1 27 38 1 1 0 0 28 33 31 39 27 43 10 10 33 44 1 1 31 42 26 30 30 35 9 9 30 35 33 44 9 9 2 2 1 1 33 44 33 44 32 40 2 2 33 44 30 35 32 40 31 42 9 9 33 44 27 31 22 23 19 19</p>
        </triangles>
      </mesh>
    </geometry>
  </library_geometries>
  <library_visual_scenes>
    <visual_scene id="scene">
      <node id="link20_L">
        <instance_geometry url="#geometry">
          <bind_material>
            <technique_common>
              <instance_material symbol="scout_1a1a1a" target="#scout_1a1a1a" />
            </technique_common>
          </bind_material>
        </instance_geometry>
      </node>
    </visual_scene>
  </library_visual_scenes>
  <scene>
    <instance_visual_scene url="#scene" />
  </scene>
</COLLADA>