<?xml version='1.0' encoding='utf-8'?>
<COLLADA xmlns="http://www.collada.org/2005/11/COLLADASchema" version="1.4.1">
  <asset>
    <created>2026-09-14T00:00:00Z</created>
    <modified>2026-09-14T00:00:00Z</modified>
    <unit name="metre" meter="1" />
    <up_axis>Z_UP</up_axis>
  </asset>
  <library_effects>
    <effect id="scout_1a1a1a_effect">
      <profile_COMMON>
        <technique sid="common">
          <lambert>
            <emission>
              <color>0 0 0 1</color>
            </emission>
            <ambient>
              <color>0.05 0.05 0.05 1</color>
            </ambient>
            <diffuse>
              <color>0.1 0.1 0.1 1</color>
            </diffuse>
          </lambert>
        </technique>
      </profile_COMMON>
    </effect>
  </library_effects>
  <library_materials>
    <material id="scout_1a1a1a" name="scout_1a1a1a">
      <instance_effect url="#scout_1a1a1a_effect" />
    </material>
  </library_materials>
  <library_geometries>
    <geometry id="geometry" name="link14_L">
      <mesh>
        <source id="positions">
          <float_array id="positions_array" count="99">-0.000203073694 0.00836852193 -0.00908335671 -0.000142017365 0.00838331692 -0.00290305563 0.00545872096 0.00858513545 -0.00201184372 0.0101705464 0.00391009822 -0.00917708781 0.00493146991 0.00829107221 -0.0107694883 0.00497572031 0.00736279227 -0.000542093825 0.0101451725 0.00170176162 -0.0113423262 0.0222281758 -0.00964359287 -0.00407305406 0.0221147835 -0.00955877453 -0.00807184167 0.00413659774 -0.000275849801 -0.0133977458 -0.00514918426 0.0016120855 -0.00951508246 0.000889052753 -0.00461863913 -0.0125971669 -0.00509877969 0.00180682342 -0.00250183186 0.00449054735 0.00193470146 0.00110243843 -0.00400152942 -0.00321457209 -0.00247350591 0.00143136585 -0.00444041053 0.00100143626 0.00697913999 -0.00973934308 -0.0123652359 0.0204323139 -0.0105047105 -0.00148428651 0.0207636673 -0.0108034369 -0.0103066778 -0.00389347621 -0.00331996707 -0.00956431311 0.0171534717 -0.0100012748 -0.0116942376 0.0136745386 -0.0100189047 0.000380982354 0.0130985538 -0.0124110132 -0.0121511864 0.0108550219 -0.0124926493 -0.000152274268 0.0218435433 -0.0118272472 -0.00353497826 0.0215333663 -0.0126280449 -0.00802982692 0.00914776884 -0.0134932725 -0.00946707465 0.00931490865 -0.0135310777 -0.00240754033 0.0171878617 -0.0142300008 -0.0010608529 0.016914906 -0.0145208715 -0.0107927863 0.0196943432 -0.0144220693 -0.00393363228 0.017007703 -0.0156393237 -0.00831387937 0.0160554219 -0.0155086592 -0.00275756977</float_array>
          <technique_common>
            <accessor source="#positions_array" count="33" stride="3">
              <param name="X" type="float" />
              <param name="Y" type="float" />
              <param name="Z" type="float" />
            </accessor>
          </technique_common>
        </source>
        <source id="normals">
          <float_array id="normals_array" count="159">-0.0100758383 0.999694824 -0.0225551464 -0.0356866606 0.999360919 -0.00203959481 -0.0176615119 0.999708176 -0.0164820794 0.707105577 0.653806269 -0.269330859 0.662381172 0.728300393 -0.175584003 0.696799159 0.651279688 0.300509185 0.00397644425 0.999420762 -0.0337977223 -0.264109224 0.533870399 0.80326134 -0.125227034 0.782642365 0.609745085 -0.316639572 0.386763424 0.866113961 0.465992391 0.390463322 -0.793970704 0.790354311 0.480705142 0.379819155 0.726668835 0.607313931 -0.321126431 -0.123797402 0.301523149 -0.945387721 -0.0608217753 0.142092347 -0.987983048 -0.306238174 0.297571152 -0.90425086 -0.399323046 0.140030846 -0.906053245 -0.403479725 -0.310090989 -0.860841274 -0.411836177 0.143121451 0.899948418 -0.0208142158 0.200650558 0.979441762 -0.972370803 -0.233436659 -0.00152979314 -0.97396028 -0.226694047 0.00335100037 -0.976881266 -0.21339035 0.012946127 -0.350105435 -0.278951615 0.894210398 -0.026018763 -0.116144322 -0.99289149 0.594211817 0.0426752158 0.803175688 0.653451085 -0.0381392054 -0.756007314 0.538862467 0.427888215 0.725629985 -0.657875538 -0.527941823 -0.537100792 0.297598749 0.0295610279 -0.954233289 -0.653362453 -0.522065222 0.548238516 0.147836208 -0.0627082661 0.987021863 0.133471504 -0.0905273929 -0.986909389 -0.186648637 -0.54353565 0.818371117 -0.802063525 0.597237587 -0.00118115451 -0.803262949 0.595613122 -0.0036929457 -0.798370421 0.602132201 0.0064458577 0.861964107 -0.36317271 0.353728026 0.982422709 -0.18353188 -0.0340830609 0.810508609 -0.518451095 -0.272551358 0.962156117 -0.185000464 -0.200075984 -0.473060578 -0.689547122 -0.54839623 -0.408233583 -0.856343746 -0.316260517 -0.434037298 -0.849695802 0.299380392 0.267634422 -0.579924047 0.7694543 0.437207907 -0.478223652 -0.761676729 0.568794906 -0.788997531 0.232282639 -0.226900652 -0.740525305 -0.632564962 0.155434653 -0.96643132 -0.204574227 0.00587729784 -0.953909516 0.300036848 -0.193324059 -0.865789294 -0.461556822 -0.969050944 -0.246611148 -0.0111013493 -0.806526065 0.591103196 -0.0106166601</float_array>
          <technique_common>
            <accessor source="#normals_array" count="53" stride="3">
              <param name="X" type="float" />
              <param name="Y" type="float" />
              <param name="Z" type="float" />
            </accessor>
          </technique_common>
        </source>
        <vertices id="vertices">
          <input semantic="POSITION" source="#positions" />
        </vertices>
        <triangles material="scout_1a1a1a" count="62">
          <input semantic="VERTEX" source="#vertices" offset="0" />
          <input semantic="NORMAL" source="#normals" offset="1" />
          <p>0 0 1 1 2 2 3 3 4 4 2 5 4 6 0 0 2 2 5 7 2 8 1 9 3 3 6 10 4 4 2 5 7 11 3 3 7 11 8 12 3 3 4 13 9 14 0 15 9 14 10 16 0 15 6 10 9 14 4 13 9 14 11 17 10 16 12 18 13 19 1 9 13 19 5 7 1 9 10 20 14 21 12 22 15 23 13 19 12 18 9 14 16 24 11 17 8 12 6 10 3 3 17 25 7 11 2 5 18 26 6 10 8 12 17 25 2 5 5 27 11 17 19 28 10 16 18 26 20 29 6 10 13 19 17 25 5 27 20 29 9 14 6 10 14 30 15 23 12 18 21 31 13 19 15 23 22 32 16 24 9 14 21 31 17 25 13 19 23 33 21 31 15 23 0 34 12 35 1 36 24 37 7 11 17 25 7 38 25 39 8 40 25 39 18 26 8 40 11 17 16 41 19 28 16 41 26 42 19 28 26 42 14 30 19 28 24 37 25 39 7 38 22 32 9 14 20 29 26 42 27 43 14 30 27 43 15 23 14 30 17 25 28 44 24 37 29 45 22 32 20 29 18 26 29 45 20 29 27 43 23 33 15 23 28 44 17 25 21 31 30 46 24 37 28 44 22 47 26 42 16 41 30 46 25 39 24 37 23 33 28 44 21 31 31 48 29 45 25 39 29 45 18 26 25 39 30 46 31 48 25 39 32 49 23 33 27 43 32 49 28 44 23 33 26 42 31 48 27 43 29 50 31 48 26 42 32 49 27 43 31 48 32 49 30 46 28 44 32 49 31 48 30 46 10 20 19 51 14 21 0 34 10 52 12 35 29 50 26 42 22 47</p>
        </triangles>
      </mesh>
    </geometry>
  </library_geometries>
  <library_visual_scenes>
    <visual_scene id="scene">
      <node id="link14_L">
        <instance_geometry url="#geometry">
          <bind_material>
            <technique_common>
              <instance_material symbol="scout_1a1a1a" target="#scout_1a1a1a" />
            </technique_common>
          </bind_material>
        </instance_geometry>
      </node>
    </visual_scene>
  </library_visual_scenes>
  <scene>
    <instance_visual_scene url="#scene" />
  </scene>
</COLLADA>