<?xml version='1.0' encoding='utf-8'?>
<COLLADA xmlns="http://www.collada.org/2005/11/COLLADASchema" version="1.4.1">
  <asset>
    <created>2026-09-14T00:00:00Z</created>
    <modified>2026-09-14T00:00:00Z</modified>
    <unit name="metre" meter="1" />
    <up_axis>Z_UP</up_axis>
  </asset>
  <library_effects>
    <effect id="scout_1a1a1a_effect">
      <profile_COMMON>
        <technique sid="common">
          <lambert>
            <emission>
              <color>0 0 0 1</color>
            </emission>
            <ambient>
              <color>0.05 0.05 0.05 1</color>
            </ambient>
            <diffuse>
              <color>0.1 0.1 0.1 1</color>
            </diffuse>
          </lambert>
        </technique>
      </profile_COMMON>
    </effect>
  </library_effects>
  <library_materials>
    <material id="scout_1a1a1a" name="scout_1a1a1a">
      <instance_effect url="#scout_1a1a1a_effect" />
    </material>
  </library_materials>
  <library_geometries>
    <geometry id="geometry" name="link21_L">
      <mesh>
        <source id="positions">
          <float_array id="positions_array" count="114">-0.00941317435 0.00187999045 -0.0112309773 -0.00992663763 -0.00734204566 -0.0092056375 -0.00997579563 -0.00726214284 -0.0029029625 -0.00555540249 -0.0336993709 -0.000116730844 -0.00571070099 -0.0331577025 -0.0118617555 -0.00242068502 -0.0355148464 -0.0119530978 0.00896180514 -0.0341335237 -0.00728459237 -0.00250885286 -0.0355181322 -1.45594313e-05 -0.00937223062 0.00215224572 -0.000673248898 -0.00759017514 0.00583799323 -0.0126998015 -0.00720976153 0.00632653758 0.000791318715 0.00304487464 -0.0255646426 -0.0132221449 -0.00468359189 -0.0347118042 -0.0118767442 -0.00380834518 -0.0352391638 -0.000107896645 0.00122264912 -0.026910983 0.00110839354 -0.00428458676 0.00857679266 -0.0130861979 0.00509467721 0.00922173727 -0.0118052652 0.00199575978 0.00950388703 0.000585292175 0.00522396574 0.00943914987 -0.00107627676 -0.000742797391 0.0095174266 -0.0129435956 0.00560605852 -0.030178545 -0.0122964755 0.00824185647 -0.0338064134 -0.00291917077 0.00900595263 -0.0322615989 -0.00333149009 -0.00352044147 0.00889110938 0.00109132007 0.00657083699 -0.028437702 -0.0120997392 0.00771169737 -0.033217486 -0.0102136238 0.00836003851 -0.0320661925 -0.0100589944 0.0112761669 0.000351512659 -0.00502474094 0.00562763959 -0.0282266978 0.000602254819 0.010842259 0.000191589759 -0.00847222283 0.00735176308 -0.0316565819 -0.000781398441 0.00791577436 0.00593572157 -0.0112254946 0.00931280572 -0.000294426281 -0.0108516132 0.00901001319 0.00582958292 -0.0101586413 0.00739054941 0.00568772061 -0.000475006353 0.00907454826 0.00617992086 -0.0060005933 0.00908026937 0.00552470703 -0.00169152371 0.00984661933 -0.000127208565 -0.00173013506</float_array>
          <technique_common>
            <accessor source="#positions_array" count="38" stride="3">
              <param name="X" type="float" />
              <param name="Y" type="float" />
              <param name="Z" type="float" />
            </accessor>
          </technique_common>
        </source>
        <source id="normals">
          <float_array id="normals_array" count="174">-0.895151436 0.137323558 -0.424082786 -0.962319314 -0.0665065795 -0.263663501 -0.964591026 -0.0649937391 0.255616784 -0.700515926 -0.386551797 0.599879324 -0.731272519 -0.280896872 -0.621560454 -0.106687397 -0.993706584 -0.0341324396 0.192888394 -0.976623535 -0.094871439 -0.0589859635 -0.998256683 -0.00206689234 -0.877804101 0.158288404 0.452111453 -0.774383962 0.632679224 -0.00682199467 -0.175582528 -0.0178286955 0.984303236 -0.732248425 0.680981278 0.00876320899 -0.202100605 -0.0247812886 -0.979051173 0.0943500996 -0.0371995643 -0.994843841 -0.0851454586 -0.0742033496 -0.993601561 -0.610107243 -0.792276144 -0.00822965149 -0.431615531 -0.902019322 -0.00832055788 -0.00258902484 -0.0540869012 0.998532891 -0.454421133 0.890762985 -0.00653892104 -0.0188210364 -5.93353507e-05 -0.999822855 0.0462492071 0.998867393 -0.0111785866 -0.0461446643 0.998925388 0.00433475198 0.00956188608 0.99974668 -0.0203742944 0.115207642 0.0203238931 -0.993133485 0.29856348 -0.2264615 -0.927132666 0.00760579621 -0.158829704 -0.987276673 0.183613315 -0.977531493 0.10352952 0.93265152 -0.183275163 0.310759336 0.866607964 -0.3283571 0.375728995 0.979758561 -0.160703674 -0.119362667 0.00790597219 -0.181986287 0.983269274 -0.0884668231 -0.0914162546 0.99187535 0.0218911413 0.00337692141 0.999754667 -0.355813414 0.93442446 0.0157389268 0.509767056 -0.0616690218 -0.858099341 0.58110106 -0.354288131 -0.732667327 0.266748935 -0.881534398 -0.389540911 0.804854214 -0.17786701 -0.566191673 0.986650288 0.111494139 0.118702255 0.330096871 -0.0962908417 0.939022958 0.133368865 0.0152344806 0.990949392 -0.115962043 0.993243933 -0.0043875007 0.205356404 0.0277460497 -0.978293896 0.944161713 0.0815584585 -0.319228649 0.542441547 -0.297045827 0.785825014 0.512261391 0.206224486 -0.833702385 0.626416624 0.0220514815 -0.779176474 0.295790851 -0.609197497 0.735789478 0.821400642 0.428940296 -0.375913739 0.444655746 0.258550256 0.857573926 0.646632969 0.445953757 -0.618862748 0.647120118 0.761066735 -0.0448654778 0.671285212 0.740377784 0.0348837599 0.815949142 0.57812345 -0.0005239413 0.790570438 0.39391309 0.468861282 0.464271188 0.364788264 0.807082236 0.747150302 0.0229575168 0.66425848 0.441093594 0.301694274 0.84523195</float_array>
          <technique_common>
            <accessor source="#normals_array" count="58" stride="3">
              <param name="X" type="float" />
              <param name="Y" type="float" />
              <param name="Z" type="float" />
            </accessor>
          </technique_common>
        </source>
        <vertices id="vertices">
          <input semantic="POSITION" source="#positions" />
        </vertices>
        <triangles material="scout_1a1a1a" count="72">
          <input semantic="VERTEX" source="#vertices" offset="0" />
          <input semantic="NORMAL" source="#normals" offset="1" />
          <p>0 0 1 1 2 2 3 3 2 2 1 1 0 0 4 4 1 1 5 5 6 6 7 7 8 8 9 9 0 0 8 8 2 2 3 3 10 10 8 8 3 3 10 11 9 9 8 8 9 12 11 13 4 4 11 13 12 14 4 4 12 15 13 16 3 3 12 15 7 7 13 16 14 17 10 10 3 3 10 11 15 18 9 9 15 19 11 13 9 12 16 20 17 21 18 22 15 19 19 23 11 13 11 13 20 24 5 25 6 6 21 26 7 7 22 27 21 28 6 29 7 30 14 17 13 31 14 17 3 3 13 31 23 32 10 10 14 17 23 33 15 18 10 11 24 34 20 24 11 13 20 24 25 35 5 25 25 36 6 6 5 5 26 37 6 29 25 35 6 29 27 38 22 27 28 39 14 17 7 30 28 39 17 40 14 17 17 40 23 32 14 17 23 33 19 41 15 18 16 42 11 13 19 23 20 24 26 37 25 35 29 43 27 38 6 29 30 44 28 39 7 30 16 42 31 45 11 13 31 45 32 46 11 13 32 46 24 34 11 13 23 33 17 21 19 41 26 37 29 43 6 29 30 44 7 30 21 47 22 27 30 44 21 28 33 48 27 38 29 43 34 49 17 40 28 39 33 48 31 45 16 50 16 51 18 52 35 53 24 34 26 37 20 24 9 12 4 4 0 0 5 25 12 14 11 13 33 48 35 53 27 38 35 53 36 54 27 38 34 49 36 54 17 55 32 46 26 37 24 34 32 46 29 43 26 37 27 38 37 56 22 27 36 54 37 56 27 38 36 54 18 57 17 55 36 54 35 53 18 52 31 45 33 48 32 46 33 48 29 43 32 46 37 56 30 44 22 27 37 56 34 49 28 39 30 44 37 56 28 39 36 54 34 49 37 56 0 0 2 2 8 8 1 1 4 4 3 3 12 15 5 5 7 7 16 20 19 41 17 21 33 48 16 51 35 53 4 4 12 15 3 3</p>
        </triangles>
      </mesh>
    </geometry>
  </library_geometries>
  <library_visual_scenes>
    <visual_scene id="scene">
      <node id="link21_L">
        <instance_geometry url="#geometry">
          <bind_material>
            <technique_common>
              <instance_material symbol="scout_1a1a1a" target="#scout_1a1a1a" />
            </technique_common>
          </bind_material>
        </instance_geometry>
      </node>
    </visual_scene>
  </library_visual_scenes>
  <scene>
    <instance_visual_scene url="#scene" />
  </scene>
</COLLADA>