<?xml version='1.0' encoding='utf-8'?>
<COLLADA xmlns="http://www.collada.org/2005/11/COLLADASchema" version="1.4.1">
  <asset>
    <created>2026-09-14T00:00:00Z</created>
    <modified>2026-09-14T00:00:00Z</modified>
    <unit name="metre" meter="1" />
    <up_axis>Z_UP</up_axis>
  </asset>
  <library_effects>
    <effect id="scout_1a1a1a_effect">
      <profile_COMMON>
        <technique sid="common">
          <lambert>
            <emission>
              <color>0 0 0 1</color>
            </emission>
            <ambient>
              <color>0.05 0.05 0.05 1</color>
            </ambient>
            <diffuse>
              <color>0.1 0.1 0.1 1</color>
            </diffuse>
          </lambert>
        </technique>
      </profile_COMMON>
    </effect>
  </library_effects>
  <library_materials>
    <material id="scout_1a1a1a" name="scout_1a1a1a">
      <instance_effect url="#scout_1a1a1a_effect" />
    </material>
  </library_materials>
  <library_geometries>
    <geometry id="geometry" name="link16_R">
      <mesh>
        <source id="positions">
          <float_array id="positions_array" count="102">-0.00421004184 0.0376873203 -0.0100389821 -0.00275180349 -0.00278608687 -0.00803606398 -0.00602710526 0.0375200249 -0.00496368902 -0.00393957458 0.00212676614 -0.00497960439 0.00574649824 -0.00769344671 -0.00193805399 4.79445698e-05 -0.00634911424 -0.00201944774 0.00477670785 -0.00793277472 -0.00798942335 -0.00518417405 0.0413903184 -0.00553280488 -0.0029826269 -0.00186884718 -0.00198009284 -0.00028033054 0.00517030992 -0.0106814755 -0.00367653393 0.0433152318 -0.00874352548 -0.00396581367 0.0373578668 0.000316289574 -0.00436810683 0.0408136658 -0.000889738789 -0.000280351291 0.00517037604 0.000681469915 0.000561068475 0.0448917896 -0.00743162492 -0.00170646887 0.0453623533 -0.00544173084 0.00076299638 0.0447796658 -0.00291916821 -0.00330056809 0.0442618839 -0.00238889223 -0.000559874694 0.0361757725 -0.0104166539 0.00542981829 0.000700620993 -0.0113268038 0.000975536008 -0.0068558394 -0.00797281601 0.00635190075 0.000513600186 0.00130676292 -0.00220264145 0.0435653813 -0.000862244051 0.000821191468 0.0433714688 -0.00865183584 0.00642279582 0.0242112074 -0.00946392026 0.00243502366 0.0326969139 9.43487757e-05 0.00975096971 0.00281842542 -0.009595952 0.00680264598 -0.00649865903 -0.0079363808 0.00177653262 0.0430734269 -0.0020096919 0.00729099149 0.0239160527 -0.00125416089 0.0110258218 0.00370447827 -0.0050011701 0.00205552252 0.0434979983 -0.00627894467 0.00810402725 0.0243566912 -0.00600032089 0.010035322 0.00305450708 -0.00097770954</float_array>
          <technique_common>
            <accessor source="#positions_array" count="34" stride="3">
              <param name="X" type="float" />
              <param name="Y" type="float" />
              <param name="Z" type="float" />
            </accessor>
          </technique_common>
        </source>
        <source id="normals">
          <float_array id="normals_array" count="147">-0.590833604 0.116531305 -0.798333287 -0.761619985 -0.387487918 -0.519411385 -0.998570681 0.0533893183 0.00248359167 -0.995375514 -0.0929979607 -0.0240605865 -0.229972258 -0.970285177 0.0752295703 -0.575239956 -0.817412913 0.0305798166 -0.251609951 -0.966149151 0.0569932722 -0.940752029 0.332875699 -0.0646485463 -0.787455976 -0.322643012 0.525180578 -0.376287311 -0.0707994625 -0.923793972 -0.535586894 0.549063265 -0.64161998 -0.510106862 0.0757369772 0.856770039 -0.752787292 0.275222152 0.597966611 -0.359218061 -0.0777491331 0.930009365 0.636144936 0.748253584 -0.188245058 0.0832603499 0.985746145 0.146192551 0.421551019 0.832814217 0.358769119 -0.798666716 0.544463396 0.256302714 0.130293801 0.11727038 -0.984515727 0.125400931 -0.185082212 -0.974689305 -0.499085784 -0.866543293 -0.00400597416 0.246455476 -0.200723156 0.948140264 -0.112247571 0.555696607 0.823772907 -0.200683281 -0.287803799 0.936426818 -0.183692023 -0.306301385 -0.934043229 -0.4862445 0.842414021 -0.232174218 0.0710468367 0.407867074 -0.910272896 0.264845222 0.0733168423 -0.961499691 0.332945049 0.13405548 0.933368504 0.0531717986 -0.363550633 -0.930055737 -0.0902787596 0.769131958 -0.632681429 0.397330016 -0.0624438375 -0.915548801 -0.0980946198 -0.359636039 0.92792207 0.577767432 -0.813963473 -0.0604011789 0.813489616 -0.58144784 -0.0123689277 0.852469623 -0.486125171 0.192296177 0.325082958 -0.351469427 -0.877946675 0.325400025 0.351203382 0.877935648 0.426569372 0.0938417017 0.899573386 -0.0675877407 0.921676874 0.382025659 0.99572742 -0.0921525508 -0.00589806354 0.959849656 -0.122624956 -0.25229302 0.866772175 0.471687704 -0.161915913 0.824419379 0.349690825 -0.445026934 0.96670413 0.219769716 -0.131089494 0.876593292 0.207468584 -0.434213132 0.829183698 -0.106534235 0.548730195 0.959605455 0.208516717 0.188886523 0.909754157 0.400876284 0.107914835</float_array>
          <technique_common>
            <accessor source="#normals_array" count="49" stride="3">
              <param name="X" type="float" />
              <param name="Y" type="float" />
              <param name="Z" type="float" />
            </accessor>
          </technique_common>
        </source>
        <vertices id="vertices">
          <input semantic="POSITION" source="#positions" />
        </vertices>
        <triangles material="scout_1a1a1a" count="64">
          <input semantic="VERTEX" source="#vertices" offset="0" />
          <input semantic="NORMAL" source="#normals" offset="1" />
          <p>0 0 1 1 2 2 1 1 3 3 2 2 4 4 5 5 6 6 0 0 2 2 7 7 8 8 2 2 3 3 0 0 9 9 1 1 10 10 0 0 7 7 8 8 11 11 2 2 11 11 12 12 2 2 13 13 11 11 8 8 14 14 15 15 16 16 12 12 7 7 2 2 12 12 17 17 7 7 18 18 19 19 0 0 19 19 9 9 0 0 5 5 8 8 1 1 1 1 20 20 5 5 17 17 10 10 7 7 19 19 1 1 9 9 13 13 21 21 11 11 22 22 17 17 12 12 20 20 6 6 5 5 21 21 13 13 5 23 13 13 8 8 5 23 19 19 20 24 1 1 11 11 22 22 12 12 15 25 10 10 17 17 23 26 18 18 10 10 18 18 0 0 10 10 24 27 19 19 18 18 21 21 25 28 11 11 6 29 20 24 19 19 14 30 23 26 10 10 25 28 22 22 11 11 23 26 24 27 18 18 26 31 19 19 24 27 4 32 21 21 5 23 6 33 27 34 4 35 26 31 27 36 19 19 27 36 6 29 19 19 14 30 10 10 15 25 28 37 22 22 25 28 25 28 29 38 28 37 16 16 17 39 22 22 30 40 4 35 27 34 26 41 30 40 27 34 28 37 16 16 22 22 15 15 17 39 16 16 31 42 23 43 14 14 23 43 32 44 24 45 30 40 33 46 4 35 33 46 21 21 4 35 21 21 29 38 25 28 23 43 31 42 32 44 33 46 29 38 21 21 26 41 32 44 30 40 32 44 26 41 24 45 16 16 31 42 14 14 32 44 29 47 30 40 29 47 33 46 30 40 32 44 28 48 29 47 31 42 16 16 28 48 28 48 32 44 31 42 3 3 1 1 8 8</p>
        </triangles>
      </mesh>
    </geometry>
  </library_geometries>
  <library_visual_scenes>
    <visual_scene id="scene">
      <node id="link16_R">
        <instance_geometry url="#geometry">
          <bind_material>
            <technique_common>
              <instance_material symbol="scout_1a1a1a" target="#scout_1a1a1a" />
            </technique_common>
          </bind_material>
        </instance_geometry>
      </node>
    </visual_scene>
  </library_visual_scenes>
  <scene>
    <instance_visual_scene url="#scene" />
  </scene>
</COLLADA>