<?xml version='1.0' encoding='utf-8'?>
<COLLADA xmlns="http://www.collada.org/2005/11/COLLADASchema" version="1.4.1">
  <asset>
    <created>2026-09-14T00:00:00Z</created>
    <modified>2026-09-14T00:00:00Z</modified>
    <unit name="metre" meter="1" />
    <up_axis>Z_UP</up_axis>
  </asset>
  <library_effects>
    <effect id="scout_1a1a1a_effect">
      <profile_COMMON>
        <technique sid="common">
          <lambert>
            <emission>
              <color>0 0 0 1</color>
            </emission>
            <ambient>
              <color>0.05 0.05 0.05 1</color>
            </ambient>
            <diffuse>
              <color>0.1 0.1 0.1 1</color>
            </diffuse>
          </lambert>
        </technique>
      </profile_COMMON>
    </effect>
  </library_effects>
  <library_materials>
    <material id="scout_1a1a1a" name="scout_1a1a1a">
      <instance_effect url="#scout_1a1a1a_effect" />
    </material>
  </library_materials>
  <library_geometries>
    <geometry id="geometry" name="link20_R">
      <mesh>
        <source id="positions">
          <float_array id="positions_array" count="102">-0.00390797574 0.00211353996 -0.00497954059 -0.0052632778 0.039011158 -0.00318664988 -0.00551623246 0.0380065627 -0.00567005482 -0.00396348676 0.0373594873 -0.0100069037 -0.00271247025 -0.00307330955 -0.00798038393 -0.00278303726 -0.00276216632 -0.00196851953 -0.00369668915 0.0431978852 -0.00763979089 -0.00374621595 0.0379664339 4.49651598e-05 -0.000223205352 0.00516700093 -0.0106817037 -0.00022322571 0.00516705681 0.000681695819 -0.00321058137 0.0433637723 -0.00126022275 -0.000180010175 0.0361796655 -0.0104166474 0.00543687493 0.000643572188 -0.0113268029 0.000903498789 -0.00686570257 -0.00797281973 0.00290202559 -0.00794032775 -0.00193841639 0.0063563888 0.000446943945 0.00130680623 -0.00248697679 0.0433237962 -0.00902641658 -0.00166309311 0.0451750606 -0.00406183954 -0.000178261806 0.0361850969 0.000416167954 -0.00151206518 0.0450789072 -0.00678736111 0.000755911635 0.0435810238 -0.00875831768 0.00706873229 0.0244916957 -0.00921010971 0.00570867909 -0.00791695807 -0.00790063106 0.00669180695 0.0240714531 -0.000532501901 0.00148617208 0.0433472618 -0.0014108459 0.00633842451 -0.00714592263 -0.00206583343 0.00084676285 0.0449742302 -0.00262347353 0.00977914408 0.00271552079 -0.00959686842 0.00168082246 0.0444150344 -0.00752663333 0.0110584265 0.00359444949 -0.00501839118 0.010017084 0.0028819202 -0.000924774329 0.00826576725 0.0228987169 -0.00252494519 0.00256255083 0.0435098633 -0.00373672415 0.00823376235 0.0244313739 -0.00578678213</float_array>
          <technique_common>
            <accessor source="#positions_array" count="34" stride="3">
              <param name="X" type="float" />
              <param name="Y" type="float" />
              <param name="Z" type="float" />
            </accessor>
          </technique_common>
        </source>
        <source id="normals">
          <float_array id="normals_array" count="144">-0.996646285 -0.0813759118 -0.00860961154 -0.959622681 0.170915574 0.223410457 -0.987376869 0.0967371091 -0.12541455 -0.608361185 0.0992188752 -0.787433982 -0.757055938 -0.42016989 -0.500323474 -0.745017469 -0.415804982 0.5215891 -0.801548839 0.523250341 -0.289358765 -0.540476799 0.118012041 0.83304137 -0.381141692 -0.0678819865 -0.922021151 -0.367543191 -0.0699650943 0.927370965 -0.877673805 0.448400825 0.169190511 0.137158394 0.110703975 -0.984343529 0.126291096 -0.189273953 -0.97376895 -0.718964279 -0.685286105 0.116074942 -0.694532335 -0.716195762 0.0684728324 0.233971804 -0.200190365 0.951409996 -0.492339551 0.643266797 -0.586352825 -0.705887675 0.708255708 0.00982220005 -0.16963318 -0.31471616 -0.933904886 -0.0790762901 -0.331228226 0.940231264 0.130531758 0.114014305 0.984866619 -0.0278681703 0.4837102 0.87478447 -0.223644137 0.936829686 -0.268948793 0.0306677371 0.200457215 -0.979222357 0.446847856 0.232183963 -0.863954604 0.692625642 0.15725787 -0.703945816 -0.21110025 -0.972003043 -0.103183426 -0.0694475695 -0.99691397 -0.0365993865 0.0484849922 -0.998644888 0.0189094916 0.595188856 0.151211083 0.789230943 0.0912155285 0.384285033 0.918697298 0.0710904822 -0.368687451 -0.926831007 0.227663979 -0.968236864 0.103375532 0.305875719 0.865766346 0.396091819 0.39481312 -0.0620770641 -0.916661918 0.238095984 -0.394736916 0.887408078 -0.0280999132 0.982117414 0.186160594 0.0155830011 0.804630995 -0.593570709 0.581688821 0.706489325 -0.403126448 0.994414151 -0.104301766 -0.0161750689 0.915293813 -0.402781993 -0.0019777643 0.911395252 -0.404222369 -0.0772201046 0.958153605 -0.157106951 -0.239288747 0.824170172 -0.111031391 0.555351794 0.929589212 0.177062288 0.323284507 0.820506573 0.396302909 0.41196236 0.864396393 0.483365029 0.138481364 0.970356405 0.213460892 -0.113326482</float_array>
          <technique_common>
            <accessor source="#normals_array" count="48" stride="3">
              <param name="X" type="float" />
              <param name="Y" type="float" />
              <param name="Z" type="float" />
            </accessor>
          </technique_common>
        </source>
        <vertices id="vertices">
          <input semantic="POSITION" source="#positions" />
        </vertices>
        <triangles material="scout_1a1a1a" count="64">
          <input semantic="VERTEX" source="#vertices" offset="0" />
          <input semantic="NORMAL" source="#normals" offset="1" />
          <p>0 0 1 1 2 2 3 3 4 4 2 2 4 4 0 0 2 2 5 5 1 1 0 0 6 6 2 2 1 1 7 7 1 1 5 5 3 3 8 8 4 4 9 9 7 7 5 5 10 10 1 1 7 7 6 6 3 3 2 2 11 11 12 12 3 3 12 12 8 8 3 3 0 0 4 4 5 5 13 13 14 14 4 4 14 14 5 5 4 4 9 9 15 15 7 7 16 16 3 3 6 6 12 12 4 4 8 8 15 15 9 9 5 5 17 17 6 6 10 10 12 12 13 18 4 4 14 19 15 15 5 5 18 20 10 21 7 7 19 22 6 6 17 17 3 3 16 23 11 11 16 23 20 24 11 11 21 25 12 12 11 11 13 26 22 27 14 28 15 15 23 29 18 20 24 30 10 21 18 20 19 22 16 16 6 6 22 31 13 18 12 12 25 32 14 28 22 27 24 30 26 33 10 21 18 20 7 7 15 15 20 24 21 25 11 11 27 34 12 12 21 25 14 19 25 35 15 15 23 29 24 30 18 20 26 33 17 36 10 21 19 22 20 37 16 16 27 34 22 31 12 12 26 33 19 22 17 36 28 38 20 37 19 22 29 39 25 40 22 41 20 24 28 38 21 25 27 42 29 39 22 41 29 39 30 43 25 40 28 38 19 22 26 33 30 43 15 15 25 35 30 43 23 29 15 15 31 44 24 45 23 29 24 45 32 46 26 33 31 44 30 43 29 39 28 38 33 47 21 25 27 42 33 47 29 39 32 46 24 45 31 44 30 43 31 44 23 29 28 38 26 33 32 46 28 38 32 46 33 47 27 42 21 25 33 47 33 47 32 46 31 44 33 47 31 44 29 39 1 1 10 10 6 6</p>
        </triangles>
      </mesh>
    </geometry>
  </library_geometries>
  <library_visual_scenes>
    <visual_scene id="scene">
      <node id="link20_R">
        <instance_geometry url="#geometry">
          <bind_material>
            <technique_common>
              <instance_material symbol="scout_1a1a1a" target="#scout_1a1a1a" />
            </technique_common>
          </bind_material>
        </instance_geometry>
      </node>
    </visual_scene>
  </library_visual_scenes>
  <scene>
    <instance_visual_scene url="#scene" />
  </scene>
</COLLADA>