<?xml version='1.0' encoding='utf-8'?>
<COLLADA xmlns="http://www.collada.org/2005/11/COLLADASchema" version="1.4.1">
  <asset>
    <created>2026-09-14T00:00:00Z</created>
    <modified>2026-09-14T00:00:00Z</modified>
    <unit name="metre" meter="1" />
    <up_axis>Z_UP</up_axis>
  </asset>
  <library_effects>
    <effect id="scout_1a1a1a_effect">
      <profile_COMMON>
        <technique sid="common">
          <lambert>
            <emission>
              <color>0 0 0 1</color>
            </emission>
            <ambient>
              <color>0.05 0.05 0.05 1</color>
            </ambient>
            <diffuse>
              <color>0.1 0.1 0.1 1</color>
            </diffuse>
          </lambert>
        </technique>
      </profile_COMMON>
    </effect>
  </library_effects>
  <library_materials>
    <material id="scout_1a1a1a" name="scout_1a1a1a">
      <instance_effect url="#scout_1a1a1a_effect" />
    </material>
  </library_materials>
  <library_geometries>
    <geometry id="geometry" name="link18_R">
      <mesh>
        <source id="positions">
          <float_array id="positions_array" count="102">-0.00306605198 -0.00247927941 -0.00798921753 -0.00318773929 -0.00212938967 -0.00203446974 -0.006188998 0.0408396125 -0.00602283049 -0.00519377971 0.0417390689 -0.00126283173 -0.00422821427 0.0396337435 -0.0102246786 -0.00475139031 0.0457211956 -0.0026405789 -0.00433782861 0.0461643599 -0.00779911177 -0.000535250292 0.00484664412 -0.0106285093 -0.00059139618 0.00505552161 0.000628219161 -0.00392596284 0.0396204628 0.000324313354 0.00619571889 0.000235456959 -0.0113060456 0.00608120766 0.00028329069 0.00132142322 -0.00338289514 0.0464698523 -0.00896195602 0.00567375729 -0.00813303981 -0.00808382127 0.0055737677 -0.00823886693 -0.00194729923 -0.000181648647 0.0394267887 -0.0102173081 0.00157584716 0.0370913744 0.000146501101 -0.00330274808 0.0465375558 -0.00109438773 0.0103086447 0.00292220945 -0.00867452659 0.00791200902 0.0257626548 -0.00407851487 0.0104530239 0.00306782685 -0.00147567235 -0.00249931775 0.0483124331 -0.00312588504 -0.00278447801 0.0482019708 -0.0064691212 0.00619969005 0.0258793402 -0.00953581557 9.51878246e-05 0.046116665 -0.00897334702 -0.000353090785 0.0467583947 -0.00109379354 0.000195927103 0.0483491719 -0.00739984727 0.00165991683 0.0448874682 -0.00155794551 0.00717604067 0.0256962236 -0.00135712139 0.000239472545 0.0481977761 -0.00254268595 9.77733798e-05 0.0487339459 -0.00545654958 0.0015624935 0.0470768847 -0.00726323202 0.0076660458 0.0256631821 -0.00747599499 0.00167963398 0.0470489077 -0.00336003862</float_array>
          <technique_common>
            <accessor source="#positions_array" count="34" stride="3">
              <param name="X" type="float" />
              <param name="Y" type="float" />
              <param name="Z" type="float" />
            </accessor>
          </technique_common>
        </source>
        <source id="normals">
          <float_array id="normals_array" count="156">-0.724043071 -0.209234923 -0.657253623 -0.749465525 -0.205817595 0.629238009 -0.987417936 0.0882151723 -0.131239891 -0.861863017 0.122939557 0.492014259 -0.53806138 0.0886858553 -0.838227153 -0.866867483 0.434849858 0.243816376 -0.803424835 0.578661561 -0.140211791 -0.372701168 -0.0803761482 -0.924463928 -0.377188087 -0.0795100108 0.922717333 -0.410317987 0.0671378151 0.909467757 0.231265217 -0.209742501 -0.950012863 0.225192353 -0.208029374 0.951846719 -0.779325843 0.0629606768 -0.623447835 -0.827073991 0.126288235 -0.547722459 -0.228163198 -0.337421894 -0.913284183 -0.242520884 -0.33480373 0.910543859 0.192492932 0.122205302 -0.973659277 0.313084483 0.121316195 0.941945076 -0.562712789 -0.82648164 0.0168065913 -0.552973568 -0.833191395 -0.0035164135 -0.571843624 -0.819551647 0.0364694744 -0.733331501 0.490888268 0.470376045 0.884594858 -0.108701035 -0.453515142 0.975598514 0.200857639 0.0886778608 0.99060148 -0.136754453 -0.00263794279 -0.754444003 0.648694217 0.100050628 -0.485059679 0.85390991 -0.188560188 0.577331543 0.138150826 -0.804737628 -0.22642158 0.578272223 -0.78379494 0.326828241 0.349228352 -0.878192961 0.334905177 0.311416566 0.889302135 -0.015337389 0.202220932 0.979219794 0.64745909 -0.308676809 -0.696789324 0.919370711 -0.393387824 0.00187146955 0.918002725 -0.396490932 0.00812045019 0.556477487 -0.0400483459 0.829896927 0.643938303 -0.307112277 0.700732112 0.0828073248 0.796538711 -0.598889828 0.691851795 0.287899762 0.662159264 0.758125007 0.158920065 0.632448316 -0.061306864 0.884830296 0.461862355 -0.0879008099 0.92361933 0.373096198 -0.086484462 0.745187402 0.661223233 -0.0572506636 0.762942076 0.643926859 -0.102162153 0.994163036 -0.0346807539 0.797577858 0.47109586 -0.376746982 0.927451551 0.190833449 -0.321583956 0.673459888 0.612250447 0.414247781 0.834652364 0.502001345 0.22660549 0.708141744 0.705984592 -0.0109986831 0.683175385 0.722151995 -0.10847991 -0.543185949 -0.839288414 -0.023324592</float_array>
          <technique_common>
            <accessor source="#normals_array" count="52" stride="3">
              <param name="X" type="float" />
              <param name="Y" type="float" />
              <param name="Z" type="float" />
            </accessor>
          </technique_common>
        </source>
        <vertices id="vertices">
          <input semantic="POSITION" source="#positions" />
        </vertices>
        <triangles material="scout_1a1a1a" count="64">
          <input semantic="VERTEX" source="#vertices" offset="0" />
          <input semantic="NORMAL" source="#normals" offset="1" />
          <p>0 0 1 1 2 2 1 1 3 3 2 2 4 4 0 0 2 2 5 5 2 2 3 3 6 6 2 2 5 5 4 4 7 7 0 0 8 8 9 9 1 1 9 9 3 3 1 1 7 7 10 10 0 0 11 11 8 8 1 1 6 12 12 13 2 2 12 13 4 4 2 2 10 10 13 14 0 0 14 15 11 11 1 1 4 4 15 16 10 10 7 7 4 4 10 10 16 17 9 9 11 11 0 18 14 19 1 20 17 21 5 5 3 3 18 22 19 23 20 24 9 9 8 8 11 11 9 9 17 21 3 3 21 25 6 6 5 5 21 25 22 26 6 6 23 27 10 10 15 16 22 26 12 28 6 6 12 28 24 29 4 4 24 29 15 16 4 4 25 30 9 9 16 17 25 30 17 31 9 9 21 25 5 5 17 21 10 10 18 22 13 32 18 22 20 24 13 33 20 24 14 34 13 33 20 35 11 11 14 36 22 26 26 37 12 28 27 38 25 30 16 17 23 27 18 22 10 10 20 35 28 39 11 11 28 39 16 17 11 11 29 40 21 41 25 42 21 41 17 43 25 42 30 44 22 26 21 41 30 44 26 37 22 26 26 37 24 29 12 28 24 29 23 27 15 16 19 23 28 39 20 24 26 37 31 45 24 29 16 17 28 39 27 38 18 22 23 27 32 46 29 40 30 44 21 41 31 45 23 27 24 29 29 47 25 30 27 38 27 38 33 48 29 47 31 45 32 46 23 27 33 48 30 49 29 47 31 45 19 23 32 46 31 45 33 48 19 23 33 48 28 39 19 23 33 48 27 38 28 39 31 45 26 50 30 49 0 18 13 51 14 19 18 22 32 46 19 23 31 45 30 49 33 48</p>
        </triangles>
      </mesh>
    </geometry>
  </library_geometries>
  <library_visual_scenes>
    <visual_scene id="scene">
      <node id="link18_R">
        <instance_geometry url="#geometry">
          <bind_material>
            <technique_common>
              <instance_material symbol="scout_1a1a1a" target="#scout_1a1a1a" />
            </technique_common>
          </bind_material>
        </instance_geometry>
      </node>
    </visual_scene>
  </library_visual_scenes>
  <scene>
    <instance_visual_scene url="#scene" />
  </scene>
</COLLADA>