<?xml version='1.0' encoding='utf-8'?>
<COLLADA xmlns="http://www.collada.org/2005/11/COLLADASchema" version="1.4.1">
  <asset>
    <created>2026-09-14T00:00:00Z</created>
    <modified>2026-09-14T00:00:00Z</modified>
    <unit name="metre" meter="1" />
    <up_axis>Z_UP</up_axis>
  </asset>
  <library_effects>
    <effect id="scout_1a1a1a_effect">
      <profile_COMMON>
        <technique sid="common">
          <lambert>
            <emission>
              <color>0 0 0 1</color>
            </emission>
            <ambient>
              <color>0.05 0.05 0.05 1</color>
            </ambient>
            <diffuse>
              <color>0.1 0.1 0.1 1</color>
            </diffuse>
          </lambert>
        </technique>
      </profile_COMMON>
    </effect>
  </library_effects>
  <library_materials>
    <material id="scout_1a1a1a" name="scout_1a1a1a">
      <instance_effect url="#scout_1a1a1a_effect" />
    </material>
  </library_materials>
  <library_geometries>
    <geometry id="geometry" name="link15_R">
      <mesh>
        <source id="positions">
          <float_array id="positions_array" count="114">-0.00923409127 -0.00290276948 -0.000428020634 -0.00992152095 0.00707174791 -0.00264758873 -0.0101213641 0.00681133289 -0.00796213001 -0.00577475224 0.0336537696 -0.000150164575 -0.00569356699 -0.00779726868 0.00109484512 -0.00941441488 -0.00201703585 -0.0113065252 -0.0058813123 0.0332675576 -0.0118660536 0.00820231251 -0.00645241281 -0.00107596547 0.00945213251 0.000488583697 -0.00122705474 0.00516246445 -0.00912947301 -6.74734911e-05 -0.00733630359 -0.00612326805 -0.0127457166 -0.00445304485 0.0350403711 -0.0118993986 0.00613362947 0.0294723604 -0.0122275669 0.00503592333 -0.00912381057 -0.0119411657 0.00250593433 0.0284014419 -0.0130875651 0.00259949709 0.0285376757 0.00108676264 -0.00417246856 -0.0086063398 -0.0130810114 -0.00394403283 0.0352196284 -9.18568403e-05 -0.00213600323 0.0353655107 2.72213197e-06 -0.00257336535 0.0355371833 -0.0119711524 -0.00054641068 -0.0095160855 -0.0129161058 -0.000663081009 -0.00952067412 0.000931757735 0.00563561777 0.0262580682 0.000601724314 0.00803901535 0.0338629559 -0.00293270382 0.00849968009 0.0343432762 -0.00731857447 0.0090943994 0.0326317959 -0.00526654394 0.00862521585 0.0321976319 -0.00924552418 0.00758340163 0.0331422277 -0.0102801193 0.00789999403 -0.00577597274 -0.0113208629 0.00654608011 0.0317926332 -0.000546286057 0.00825577881 0.0317547731 -0.0019437311 0.0112652108 -9.49442401e-05 -0.00712380465 0.00909921806 -0.00614348613 -0.00630024588 0.00782838929 -0.00706224795 -0.0104592647 0.0110226013 -0.000271648343 -0.00412969245 0.00980633218 0.000367902423 -0.0103135044 0.00949552748 -0.0045479429 -0.00196540914 0.00956550706 -0.00460858131 -0.00971632544</float_array>
          <technique_common>
            <accessor source="#positions_array" count="38" stride="3">
              <param name="X" type="float" />
              <param name="Y" type="float" />
              <param name="Z" type="float" />
            </accessor>
          </technique_common>
        </source>
        <source id="normals">
          <float_array id="normals_array" count="165">-0.828280747 -0.223637223 0.513748407 -0.955534875 0.0598984398 0.288730443 -0.985194683 0.0545616113 -0.16252546 -0.704150558 0.384808928 0.596736133 -0.085754022 0.00532201305 0.996302128 -0.880158246 -0.14986749 -0.450401187 -0.726132393 0.314212948 -0.611557007 0.408737451 -0.0537669025 0.91106683 0.651741862 -0.0146273132 0.758299828 0.225416541 -0.0249473955 0.973942995 -0.186166838 0.0222588032 -0.982266009 -0.757034361 -0.653219163 -0.014271046 -0.537317216 0.84335053 -0.00707897311 0.451866388 0.148535684 -0.879632831 0.191640854 -0.016831765 -0.981320798 0.0731954053 0.0877054483 -0.993453681 0.0772912651 0.109349459 0.990993798 -0.575863421 -0.817327559 0.0188948512 -0.0898470059 0.0834408998 -0.992454112 -0.0107995933 0.00177179871 -0.999940097 -0.432457149 -0.901613593 -0.00858777016 -0.0856194049 0.0911579877 0.992148936 0.0149214547 0.999508739 0.0275623929 -0.0641547292 0.997279942 -0.0362886749 -0.377486676 0.925866306 0.0165952053 0.00946337543 0.171896949 -0.985069454 0.108995378 -0.0132686384 -0.993953705 0.102120057 -0.0139176603 0.994674742 0.406558603 0.0420563929 0.912656188 0.0244817659 0.204880774 0.978480697 0.180343315 0.975528896 0.125776157 0.192003235 0.975295722 -0.109238446 0.968969584 0.230120778 0.0902352929 0.892468393 0.176902294 -0.414976865 0.943617165 0.305048227 -0.128577515 0.274545848 0.85851115 -0.433108777 0.74761337 0.440051824 0.49742195 0.554391801 -0.206623673 -0.806198716 0.426540613 0.325315565 0.843938887 0.330829114 -0.943577766 0.0145967677 -0.098553881 -0.99513036 -0.00164931244 0.290974289 -0.956725478 -0.00320567493 0.779627025 0.216079637 -0.587785125 0.238414869 0.380066454 -0.893704593 -0.137917623 -0.990405262 0.00872550346 0.806430161 0.19056794 0.559780538 0.984254956 -0.0995570719 -0.146049812 0.739613473 -0.667317629 0.0875165686 0.809100926 -0.587669611 0.000318628008 0.718981624 -0.623977065 -0.306134075 0.65368557 -0.445941269 -0.611417651 0.964592099 -0.0965029225 0.245457277 0.740333319 -0.0140436925 -0.672093272 0.866673708 -0.283235461 0.410675436 0.877050161 -0.308482707 -0.368268102</float_array>
          <technique_common>
            <accessor source="#normals_array" count="55" stride="3">
              <param name="X" type="float" />
              <param name="Y" type="float" />
              <param name="Z" type="float" />
            </accessor>
          </technique_common>
        </source>
        <vertices id="vertices">
          <input semantic="POSITION" source="#positions" />
        </vertices>
        <triangles material="scout_1a1a1a" count="72">
          <input semantic="VERTEX" source="#vertices" offset="0" />
          <input semantic="NORMAL" source="#normals" offset="1" />
          <p>0 0 1 1 2 2 3 3 2 2 1 1 0 0 4 4 3 3 5 5 2 2 6 6 7 7 8 8 9 9 10 10 5 5 6 6 10 11 0 0 5 5 3 3 1 1 0 0 6 6 2 2 3 3 6 6 3 3 11 12 12 13 13 14 14 15 14 15 10 10 6 6 4 4 15 16 3 3 4 17 0 0 10 11 11 18 14 15 6 6 16 19 10 10 14 15 16 20 4 17 10 11 15 16 17 21 3 3 18 22 19 23 17 24 11 18 19 25 14 15 20 26 16 19 14 15 4 4 21 27 15 16 21 27 22 28 15 16 18 29 17 21 15 16 23 30 24 31 18 22 24 31 19 23 18 22 25 32 26 33 24 34 24 31 27 35 19 23 13 14 20 26 14 15 21 27 9 9 22 28 25 32 24 34 23 36 12 13 14 15 19 25 28 37 13 14 12 13 9 9 8 8 22 28 15 16 29 38 18 29 9 39 20 40 13 41 26 33 27 42 24 34 27 43 12 13 19 25 21 44 16 20 20 40 21 44 4 17 16 20 29 38 15 16 22 28 29 38 23 36 18 29 30 45 25 32 23 36 31 46 26 33 25 32 7 47 9 39 32 48 28 37 33 49 13 50 33 49 32 48 13 41 30 45 23 36 29 38 34 51 25 32 30 45 34 51 31 46 25 32 35 52 28 37 12 13 22 28 30 45 29 38 31 46 35 52 26 33 8 8 7 7 36 53 8 8 30 45 22 28 8 8 34 51 30 45 36 53 31 46 34 51 32 48 37 54 31 46 36 53 32 48 31 46 37 54 35 52 31 46 35 52 12 13 26 33 37 54 28 37 35 52 37 54 33 49 28 37 36 53 34 51 8 8 37 54 32 48 33 49 32 48 36 53 7 47 13 41 32 48 9 39 11 12 17 24 19 23 11 12 3 3 17 24 0 0 2 2 5 5 9 39 21 44 20 40 12 13 27 42 26 33</p>
        </triangles>
      </mesh>
    </geometry>
  </library_geometries>
  <library_visual_scenes>
    <visual_scene id="scene">
      <node id="link15_R">
        <instance_geometry url="#geometry">
          <bind_material>
            <technique_common>
              <instance_material symbol="scout_1a1a1a" target="#scout_1a1a1a" />
            </technique_common>
          </bind_material>
        </instance_geometry>
      </node>
    </visual_scene>
  </library_visual_scenes>
  <scene>
    <instance_visual_scene url="#scene" />
  </scene>
</COLLADA>