<?xml version='1.0' encoding='utf-8'?>
<COLLADA xmlns="http://www.collada.org/2005/11/COLLADASchema" version="1.4.1">
  <asset>
    <created>2026-09-14T00:00:00Z</created>
    <modified>2026-09-14T00:00:00Z</modified>
    <unit name="metre" meter="1" />
    <up_axis>Z_UP</up_axis>
  </asset>
  <library_effects>
    <effect id="scout_1a1a1a_effect">
      <profile_COMMON>
        <technique sid="common">
          <lambert>
            <emission>
              <color>0 0 0 1</color>
            </emission>
            <ambient>
              <color>0.05 0.05 0.05 1</color>
            </ambient>
            <diffuse>
              <color>0.1 0.1 0.1 1</color>
            </diffuse>
          </lambert>
        </technique>
      </profile_COMMON>
    </effect>
  </library_effects>
  <library_materials>
    <material id="scout_1a1a1a" name="scout_1a1a1a">
      <instance_effect url="#scout_1a1a1a_effect" />
    </material>
  </library_materials>
  <library_geometries>
    <geometry id="geometry" name="link13_R">
      <mesh>
        <source id="positions">
          <float_array id="positions_array" count="111">0.00726266438 -0.015210269 -0.0127320271 0.00312385592 -0.0164760593 -0.0145354969 0.0120912287 -0.0118586738 -0.0118742706 -0.00446539372 0.00198794575 0.000879122701 0.0226302128 0.0130461166 0.000142445046 0.0189421847 0.0138263172 -0.00101551542 0.02185289 0.013571226 -0.0144444965 0.00159506931 0.0082511818 -0.00268273079 0.0128649287 0.0127775436 -0.00370917749 -0.00324120629 0.00204441766 -0.0153143434 -0.00353915966 0.00306871231 -0.0148529494 0.0154113062 0.0135284113 -0.0114577496 0.00170680217 0.00848006085 -0.0107289618 -0.00822161697 -0.0145079717 0.000182981472 -0.0122319609 -0.0110248588 -0.0147191267 -0.00797612313 -0.0146725485 -0.0145640643 -0.0102560688 -0.00452372571 0.000396749063 -0.0122158257 -0.0110400664 0.000314749457 -0.00991326198 -0.00398801547 -0.0147957122 0.00246788049 -0.0144508826 0.00094932178 0.00147465989 -0.0147711802 -0.0153138097 0.00830217078 -0.00731606269 -0.0153044015 0.0239839703 0.0102860928 0.000115438947 0.0239402764 0.010692019 -0.0145716621 -0.00443855859 -0.0161997415 3.86545398e-05 0.0034048066 -0.0163655654 0.000129946711 0.0238810144 0.00177776755 -0.00147569377 0.0254421607 0.000863942667 -0.0101633091 -0.00308933784 -0.0165460538 -0.0143493144 0.0239533111 0.00308579509 -0.0132201081 -0.000407237298 -0.0168373697 -0.000372580107 0.0251953397 0.000778728107 -0.00363279646 0.0225853417 -0.000912184652 -0.0122730276 0.0179116353 -0.00695966184 -0.00649966765 0.0112990439 -0.0125002367 -0.00237551797 0.00887056999 -0.0145895407 -0.00269462052 0.00333279115 -0.0167600084 -0.00705328677</float_array>
          <technique_common>
            <accessor source="#positions_array" count="37" stride="3">
              <param name="X" type="float" />
              <param name="Y" type="float" />
              <param name="Z" type="float" />
            </accessor>
          </technique_common>
        </source>
        <source id="normals">
          <float_array id="normals_array" count="180">0.46980238 -0.488686055 -0.735167801 0.209589452 -0.330603033 -0.920203209 0.600434721 -0.690264106 -0.403749347 -0.0555391647 0.114367895 0.991884768 -0.0301202722 0.148207933 0.988497436 -0.0796103254 0.882547975 0.463434249 0.199497476 0.979588687 0.0246328935 0.0322795212 0.999406993 -0.0119877532 -0.482473165 0.814804554 0.32142359 -0.306664765 0.938639879 0.157835081 -0.149387062 0.188672394 -0.970611274 -0.23964338 0.428823054 -0.871023417 -0.0745287612 0.227713332 -0.970871806 -0.293187618 0.731142342 -0.616012871 -0.306506991 0.746868908 -0.590118885 -0.167269558 0.985876858 -0.00822624378 -0.541019261 -0.84100914 0.00136090908 -0.651805162 -0.758384228 -0.00185041386 -0.517187655 -0.85585463 -0.00545822224 -0.103904307 0.0187353604 0.994410813 -0.0596677177 -0.0366776884 0.997544229 -0.106727868 0.0326082185 -0.993753433 0.0783423781 -0.206056818 0.975398898 -0.0616639294 -0.0360160992 -0.997446954 -0.0701092854 -0.136737406 0.988123238 -0.56788069 0.822964489 0.0155237876 0.0388538875 -0.218757167 -0.975005448 -0.861952841 0.506978333 -0.00319674308 -0.734174192 0.678940296 0.00531712407 -0.732077479 0.68120569 0.00462241611 0.145801678 -0.109958224 -0.983184159 0.95769465 0.282458663 0.0551187061 0.929532528 0.364265323 -0.057271447 0.886364877 0.462961942 0.00484843599 0.0692994073 -0.0195955597 -0.997403443 -0.0797257051 -0.15907985 -0.984041393 -0.0610015988 -0.278030962 0.958633184 0.242928728 -0.760457397 0.602237642 0.57295692 -0.278724283 0.770735502 0.920093477 -0.324046165 -0.220050275 -0.0704488382 -0.330326438 -0.941233993 -0.951934576 0.306215316 -0.00726564461 -0.871708274 0.490019858 0.00227372954 0.604312062 -0.202569351 -0.770566404 -0.0224501975 -0.638233423 0.769515455 0.0903998166 -0.0450917594 0.994884193 0.892463207 -0.351086944 0.283279598 0.573809385 -0.499527574 -0.649010777 0.691237628 -0.722102344 0.0275455248 -0.291685313 -0.956504345 0.00436874898 -0.184602097 -0.982645094 -0.0181844104 -0.0300211478 -0.999364674 0.019207878 0.608609557 -0.668122947 0.428025782 0.515948892 -0.82286942 0.238081068 0.181811064 -0.983327806 -0.00333502004 0.139213786 -0.989395142 -0.041434478 0.425342351 -0.904415488 -0.0334139951 -0.655606925 -0.755102336 -6.01257307e-05 -0.957633317 0.287987232 0.00131907989 0.808959663 0.587453842 -0.0219611321</float_array>
          <technique_common>
            <accessor source="#normals_array" count="60" stride="3">
              <param name="X" type="float" />
              <param name="Y" type="float" />
              <param name="Z" type="float" />
            </accessor>
          </technique_common>
        </source>
        <vertices id="vertices">
          <input semantic="POSITION" source="#positions" />
        </vertices>
        <triangles material="scout_1a1a1a" count="70">
          <input semantic="VERTEX" source="#vertices" offset="0" />
          <input semantic="NORMAL" source="#normals" offset="1" />
          <p>0 0 1 1 2 2 3 3 4 4 5 5 4 6 6 7 5 5 7 8 5 5 8 9 9 10 10 11 6 12 10 11 11 13 6 12 10 11 12 14 11 13 11 15 8 9 5 5 13 16 14 17 15 18 16 19 17 20 3 3 18 21 10 11 9 10 19 22 3 3 17 20 5 5 6 7 11 15 14 23 18 21 9 10 17 20 13 24 19 22 7 8 11 15 12 25 9 10 20 26 14 23 18 27 3 28 10 29 20 26 9 10 21 30 22 31 23 32 4 33 23 34 21 30 6 12 21 30 9 10 6 12 15 35 14 23 20 26 24 36 19 22 13 24 24 36 25 37 19 22 25 37 26 38 19 22 27 39 23 32 22 31 1 1 20 26 21 30 28 40 15 35 20 26 14 41 16 42 18 27 23 34 29 43 21 30 27 39 29 43 23 32 30 44 25 37 24 36 26 38 22 45 19 22 26 38 31 46 22 31 31 46 27 39 22 31 29 43 1 1 21 30 1 1 28 40 20 26 32 47 29 43 27 39 29 43 32 47 1 1 33 48 2 2 27 39 2 2 32 47 27 39 24 49 28 50 30 51 19 22 22 45 4 4 34 52 31 46 26 38 34 52 33 48 31 46 35 53 2 2 33 48 2 2 1 1 32 47 28 50 36 54 30 51 34 52 26 38 25 37 34 52 35 53 33 48 1 55 36 54 28 50 25 37 30 51 36 54 36 54 35 53 25 37 35 53 34 52 25 37 0 56 2 2 35 53 0 56 36 54 1 55 0 56 35 53 36 54 19 22 4 4 3 3 24 49 13 16 15 18 13 16 17 57 14 17 7 8 8 9 11 15 18 27 16 42 3 28 27 39 31 46 33 48 3 3 5 5 7 8 17 58 16 42 14 41 23 32 6 59 4 33 24 49 15 18 28 50 3 28 7 8 10 29 7 8 12 25 10 29</p>
        </triangles>
      </mesh>
    </geometry>
  </library_geometries>
  <library_visual_scenes>
    <visual_scene id="scene">
      <node id="link13_R">
        <instance_geometry url="#geometry">
          <bind_material>
            <technique_common>
              <instance_material symbol="scout_1a1a1a" target="#scout_1a1a1a" />
            </technique_common>
          </bind_material>
        </instance_geometry>
      </node>
    </visual_scene>
  </library_visual_scenes>
  <scene>
    <instance_visual_scene url="#scene" />
  </scene>
</COLLADA>