<?xml version='1.0' encoding='utf-8'?>
<COLLADA xmlns="http://www.collada.org/2005/11/COLLADASchema" version="1.4.1">
  <asset>
    <created>2026-09-14T00:00:00Z</created>
    <modified>2026-09-14T00:00:00Z</modified>
    <unit name="metre" meter="1" />
    <up_axis>Z_UP</up_axis>
  </asset>
  <library_effects>
    <effect id="scout_1a1a1a_effect">
      <profile_COMMON>
        <technique sid="common">
          <lambert>
            <emission>
              <color>0 0 0 1</color>
            </emission>
            <ambient>
              <color>0.05 0.05 0.05 1</color>
            </ambient>
            <diffuse>
              <color>0.1 0.1 0.1 1</color>
            </diffuse>
          </lambert>
        </technique>
      </profile_COMMON>
    </effect>
  </library_effects>
  <library_materials>
    <material id="scout_1a1a1a" name="scout_1a1a1a">
      <instance_effect url="#scout_1a1a1a_effect" />
    </material>
  </library_materials>
  <library_geometries>
    <geometry id="geometry" name="link16_L">
      <mesh>
        <source id="positions">
          <float_array id="positions_array" count="102">-0.00454932032 -0.0409206524 -0.00792328361 -0.00424643559 -0.0423207432 -0.00342872762 -0.0056415624 -0.0375593416 -0.00496205501 -0.00303303963 0.00181877613 -0.00200774916 -0.00247282092 0.00365908234 -0.00807130523 -0.00390412332 -0.00207846262 -0.00498754159 -0.00428178394 -0.0373105556 -0.000605454377 -0.00362594007 -0.0372647047 -0.0102109704 -0.00314100878 -0.0434904844 -0.00860048551 -0.000422424113 -0.00479538972 -0.0105343489 -0.00236434024 -0.0447253734 -0.00290935184 -0.00297777494 -0.0432623476 -0.00111968524 -0.0002128755 -0.00528495898 0.000699635188 -0.00304794591 -0.0377428718 0.000348773261 -7.63248772e-06 0.00633921893 -0.00200666464 -0.00162607559 -0.0450352691 -0.00680101523 0.00279342523 0.00771200564 -0.00797417574 0.00620757043 -0.000568569987 -0.0113616167 0.00631178124 -0.00045170408 0.00130870892 0.000677631062 -0.0435483828 -0.00880992226 0.00194387441 -0.0341966003 -0.0102464333 0.000476220739 -0.0418908149 -0.000526292832 0.00669584936 -0.0240553711 -0.000532173377 0.00578947039 0.00779509731 -0.00202686619 0.00583557459 0.00765201496 -0.00799279381 0.000695974973 -0.0452645943 -0.00618503662 0.00101131538 -0.0447353497 -0.00243915431 0.00731718726 -0.0245875809 -0.00879746396 0.0022323078 -0.0434890054 -0.00748143299 0.0110429553 -0.00376818958 -0.00671353238 0.0100165121 -0.00288310647 -0.00907689519 0.0102604739 -0.00312142191 -0.00119497243 0.00237209466 -0.0435158312 -0.00291814515 0.00833056681 -0.0243393313 -0.00383202289</float_array>
          <technique_common>
            <accessor source="#positions_array" count="34" stride="3">
              <param name="X" type="float" />
              <param name="Y" type="float" />
              <param name="Z" type="float" />
            </accessor>
          </technique_common>
        </source>
        <source id="normals">
          <float_array id="normals_array" count="159">-0.902600944 -0.25698328 -0.345356613 -0.907747924 -0.37706697 0.183886483 -0.997537255 -0.0701059476 -0.00213570148 -0.794759333 0.30550161 0.524429619 -0.727128208 0.44530797 -0.522480071 -0.994424224 0.0831749141 -0.0648258626 -0.823705554 -0.0756485686 0.561948776 -0.532152176 -0.0820459351 -0.842663944 -0.807912707 -0.585524023 -0.066623725 -0.400800943 0.0730225295 -0.913250387 -0.776053727 -0.62813431 0.0564615801 -0.861549258 -0.379548371 0.337158531 -0.36592859 0.0698105916 0.928020895 -0.287935168 -0.108751155 0.951454937 -0.580704272 0.813264072 0.0372035205 -0.724127412 -0.225040928 -0.651917279 -0.671206355 -0.738093674 -0.0685549527 -0.20019275 0.289926291 0.935876906 -0.290997863 0.956628799 -0.0134769874 0.226537555 0.194757089 -0.954332471 0.245701015 0.203497484 0.947744608 0.31786558 -0.23060365 -0.91966486 0.301213056 -0.133438677 -0.94417417 0.313973635 -0.313406438 0.896212578 -0.110278197 0.337029308 -0.935013354 -0.0568069592 -0.254177511 -0.965487838 -0.0311536826 -0.519520044 0.853890181 0.612177134 -0.147430435 0.776854813 -0.165495694 0.983749628 0.069626607 0.0195646808 0.999524772 -0.0238206629 -0.073888965 -0.99278903 0.0943944082 -0.0757033601 -0.916917622 0.391830415 -0.113215767 -0.991904855 0.0575059392 0.00181606028 0.379267067 -0.925285459 0.204168633 -0.759693563 0.6173985 -0.0893433169 0.368591756 0.925288022 0.00313687976 -0.805498242 -0.592589855 -0.046220988 -0.77684927 -0.627987981 0.18633081 -0.803683698 -0.565131307 0.418604195 -0.0928878337 -0.903405964 0.638188064 -0.222991675 -0.736879051 0.499997914 -0.81311506 -0.298070371 0.98668915 0.100532919 -0.127818957 0.893211126 0.412143946 -0.179753214 0.913335323 0.406698942 0.0203594957 0.785849273 0.129970968 -0.604606092 0.857387245 0.115675114 0.501504123 0.780431569 -0.588021398 -0.212502629 0.817190349 -0.470307916 0.333182186 0.675789237 -0.735592425 0.0470395647 0.967976868 -0.209375948 0.138500914 0.65198344 0.319431871 0.687663317 0.957704544 -0.211616114 -0.194988698</float_array>
          <technique_common>
            <accessor source="#normals_array" count="53" stride="3">
              <param name="X" type="float" />
              <param name="Y" type="float" />
              <param name="Z" type="float" />
            </accessor>
          </technique_common>
        </source>
        <vertices id="vertices">
          <input semantic="POSITION" source="#positions" />
        </vertices>
        <triangles material="scout_1a1a1a" count="64">
          <input semantic="VERTEX" source="#vertices" offset="0" />
          <input semantic="NORMAL" source="#normals" offset="1" />
          <p>0 0 1 1 2 2 3 3 4 4 5 5 5 5 4 4 2 2 6 6 3 3 2 2 3 3 5 5 2 2 4 4 7 7 2 2 7 7 0 0 2 2 8 8 1 1 0 0 9 9 7 7 4 4 8 8 10 10 1 1 11 11 2 2 1 1 11 11 6 6 2 2 6 6 12 12 3 3 11 11 13 13 6 6 13 13 12 12 6 6 3 3 14 14 4 4 7 7 8 15 0 0 8 8 15 16 10 10 12 12 14 17 3 3 11 11 1 1 10 10 16 18 4 4 14 14 17 19 9 9 4 4 9 9 17 19 7 7 18 20 12 12 13 13 12 12 18 20 14 17 19 21 7 7 20 22 21 23 18 20 13 13 4 4 16 24 17 19 8 25 7 7 19 21 11 26 21 23 13 13 22 27 18 20 21 23 23 28 24 29 16 18 25 30 10 31 15 32 16 24 24 33 17 19 26 34 21 23 11 26 23 35 14 17 18 20 15 36 8 37 19 38 10 31 26 34 11 26 27 39 19 21 20 22 27 39 28 40 19 21 25 41 15 36 19 38 29 42 24 43 23 44 30 45 27 39 17 19 27 39 20 22 17 19 26 34 10 31 25 30 22 27 31 46 18 20 29 42 30 45 24 43 28 47 25 41 19 38 28 47 32 48 25 41 32 48 26 49 25 41 26 34 32 48 21 23 21 23 32 48 22 27 31 46 29 42 23 44 30 45 17 19 24 43 32 48 33 50 22 27 31 46 23 51 18 20 31 46 33 50 29 42 30 45 29 42 27 52 33 50 28 47 27 52 33 50 31 46 22 27 33 50 27 52 29 42 28 47 33 50 32 48 23 28 16 18 14 14 7 7 17 19 20 22</p>
        </triangles>
      </mesh>
    </geometry>
  </library_geometries>
  <library_visual_scenes>
    <visual_scene id="scene">
      <node id="link16_L">
        <instance_geometry url="#geometry">
          <bind_material>
            <technique_common>
              <instance_material symbol="scout_1a1a1a" target="#scout_1a1a1a" />
            </technique_common>
          </bind_material>
        </instance_geometry>
      </node>
    </visual_scene>
  </library_visual_scenes>
  <scene>
    <instance_visual_scene url="#scene" />
  </scene>
</COLLADA>