<?xml version='1.0' encoding='utf-8'?>
<COLLADA xmlns="http://www.collada.org/2005/11/COLLADASchema" version="1.4.1">
  <asset>
    <created>2026-09-14T00:00:00Z</created>
    <modified>2026-09-14T00:00:00Z</modified>
    <unit name="metre" meter="1" />
    <up_axis>Z_UP</up_axis>
  </asset>
  <library_effects>
    <effect id="scout_1a1a1a_effect">
      <profile_COMMON>
        <technique sid="common">
          <lambert>
            <emission>
              <color>0 0 0 1</color>
            </emission>
            <ambient>
              <color>0.05 0.05 0.05 1</color>
            </ambient>
            <diffuse>
              <color>0.1 0.1 0.1 1</color>
            </diffuse>
          </lambert>
        </technique>
      </profile_COMMON>
    </effect>
  </library_effects>
  <library_materials>
    <material id="scout_1a1a1a" name="scout_1a1a1a">
      <instance_effect url="#scout_1a1a1a_effect" />
    </material>
  </library_materials>
  <library_geometries>
    <geometry id="geometry" name="link21_R">
      <mesh>
        <source id="positions">
          <float_array id="positions_array" count="114">-0.00925122667 -0.00284768431 -0.000428020692 -0.0098823132 0.00712911971 -0.0026537166 -0.0100759771 0.00687661208 -0.00799692422 -0.00557412114 0.033687558 -0.000150191117 0.00498164166 -0.00915408041 -0.0119407764 0.00813667104 -0.00707282498 -0.00242135674 0.0049208845 -0.00914977491 -1.0630115e-05 -0.00942626968 -0.00196088967 -0.0113065243 -0.00568299694 0.033301957 -0.0118660294 -0.00737266662 -0.00607943675 -0.0127457166 0.00748763885 -0.00635995017 -0.00065741007 0.00945244078 0.000487912359 -0.00122711237 0.00267522899 0.0283859521 -0.0130875614 -0.00573993614 -0.00776319718 0.00109484512 0.00334486715 0.0278781615 0.00112106127 -0.00425129524 0.0350647084 -0.0118919015 -0.00422368711 -0.00858131982 -0.0130810114 -0.0037417917 0.0352403112 -9.49898094e-05 -0.00219180388 0.0354674757 -1.28584334e-05 0.00869995635 0.034288343 -0.00733824028 -0.00212468347 0.0354435071 -0.0120030828 -0.000603111053 -0.00951266102 -0.0129161058 -0.000719804608 -0.00951655395 0.000931757153 0.00821691006 0.0338177569 -0.00291003217 0.00928861368 0.0325796902 -0.00526892627 0.00879426021 0.0321586765 -0.00928075146 0.00777046056 0.033087004 -0.0102915345 0.00630901754 0.0294355694 -0.0122275595 0.00786543079 -0.00582295284 -0.011320862 0.00671317102 0.030973196 -0.000222800416 0.00844663382 0.0317044444 -0.00194592692 0.0112645086 -0.000167080128 -0.00712472387 0.00778707257 -0.0071389568 -0.0104241874 0.0110207694 -0.000337363337 -0.00412964914 0.00981476717 0.000293441874 -0.0103042666 0.00946449861 -0.00459770299 -0.00194347522 0.00956550241 -0.00518048601 -0.00593798608 0.00953624025 -0.0046657105 -0.00972231291</float_array>
          <technique_common>
            <accessor source="#positions_array" count="38" stride="3">
              <param name="X" type="float" />
              <param name="Y" type="float" />
              <param name="Z" type="float" />
            </accessor>
          </technique_common>
        </source>
        <source id="normals">
          <float_array id="normals_array" count="162">-0.829646289 -0.218639061 0.513696432 -0.955493391 0.0654184371 0.287667811 -0.984511077 0.0605348572 -0.164540291 -0.700419128 0.388196141 0.598929763 0.27870661 -0.960365832 -0.00448235124 0.728408039 -0.656283915 0.196756586 0.326808363 -0.942225873 0.0735304579 -0.881076217 -0.144606695 -0.450326145 -0.723791242 0.318427563 -0.6121521 -0.186029986 0.0233681276 -0.982266128 -0.760914028 -0.648695767 -0.0142710246 0.54390651 -0.266984254 0.79554081 0.645616829 -0.0144726159 0.763524413 0.200908825 -0.0168506596 0.979465008 0.0735215172 0.0855506659 -0.993617475 -0.0866083652 0.00516653107 0.996229053 0.130726814 0.0737079233 0.9886747 -0.498645872 0.86677748 -0.00700725382 -0.580724239 -0.81388104 0.0188949145 -0.0909784958 0.0833031684 -0.992362559 -0.0107891001 0.00183626858 -0.999940097 -0.437822908 -0.899020195 -0.00858775899 -0.0835424066 0.0836021006 0.99299109 -0.0216563623 0.999718904 0.0096464809 0.197383836 0.973799944 -0.112930469 -0.0228770226 0.998835087 -0.0424869843 0.00739843538 0.167807683 -0.985791981 0.108946249 -0.0139208771 -0.993950188 0.0995681807 -0.0158592295 0.994904339 0.0191090703 0.191932231 0.981222153 0.188941121 0.974111438 0.124129564 0.736093163 0.433233738 0.52007252 0.969657958 0.227435783 0.0896459669 0.945393264 0.298870534 -0.130030587 0.891422868 0.173053727 -0.418828905 0.191545367 -0.0179787353 -0.98131907 0.777714789 0.214211553 -0.590993345 0.279157907 0.855606198 -0.435900152 0.452960402 0.144387186 -0.879760921 0.553340137 -0.211344033 -0.805697501 0.44280535 0.258354992 0.85858959 0.807626724 0.205487341 0.552733243 0.244182393 0.376168162 -0.893796682 -0.141760007 -0.989862561 0.00873203762 -0.10408219 -0.994568169 -0.0010140806 0.984060049 -0.100653432 -0.146610826 0.722423553 -0.623865485 -0.298154324 0.653218627 -0.452524394 -0.607064307 0.963947833 -0.102375612 0.245609 0.741146028 -0.0185151901 -0.671088517 0.842295229 -0.291398555 0.453459561 0.882401943 -0.470495671 0.000821495545 0.871298969 -0.324979067 -0.36773178 -0.398166656 0.917306244 0.00354256481</float_array>
          <technique_common>
            <accessor source="#normals_array" count="54" stride="3">
              <param name="X" type="float" />
              <param name="Y" type="float" />
              <param name="Z" type="float" />
            </accessor>
          </technique_common>
        </source>
        <vertices id="vertices">
          <input semantic="POSITION" source="#positions" />
        </vertices>
        <triangles material="scout_1a1a1a" count="72">
          <input semantic="VERTEX" source="#vertices" offset="0" />
          <input semantic="NORMAL" source="#normals" offset="1" />
          <p>0 0 1 1 2 2 3 3 2 2 1 1 4 4 5 5 6 6 7 7 2 2 8 8 9 9 7 7 8 8 9 10 0 0 7 7 3 3 1 1 0 0 10 11 11 12 6 13 12 14 9 9 8 8 13 15 14 16 3 3 8 8 3 3 15 17 8 8 2 2 3 3 13 18 0 0 9 10 15 19 12 14 8 8 16 20 9 9 12 14 16 21 13 18 9 10 14 16 17 22 3 3 18 23 19 24 20 25 15 19 20 26 12 14 21 27 16 20 12 14 13 15 22 28 14 16 18 29 17 22 14 16 23 30 19 24 18 23 23 31 24 32 19 33 24 32 25 34 19 33 15 17 18 23 20 25 4 35 21 27 12 14 22 28 6 13 14 16 25 34 26 36 19 33 26 37 20 25 19 24 27 38 12 14 20 26 28 39 4 35 27 38 6 13 11 12 14 16 14 16 29 40 18 29 30 41 24 32 23 31 26 42 27 38 20 26 22 43 16 21 21 44 22 43 13 18 16 21 11 12 29 40 14 16 29 40 23 31 18 29 31 45 25 34 24 32 28 39 32 46 4 47 32 46 5 5 4 4 5 5 10 11 6 6 30 41 23 31 29 40 0 0 13 15 3 3 33 48 24 32 30 41 33 48 31 45 24 32 31 45 34 49 25 34 34 49 28 39 27 38 6 6 21 44 4 4 11 12 33 48 30 41 34 49 27 38 25 34 27 38 4 35 12 14 5 5 35 50 10 11 11 12 10 11 35 50 11 12 30 41 29 40 11 12 35 50 33 48 35 50 31 45 33 48 36 51 37 52 31 45 35 50 36 51 31 45 37 52 34 49 31 45 37 52 28 39 34 49 37 52 32 46 28 39 32 46 36 51 5 5 37 52 36 51 32 46 36 51 35 50 5 5 15 17 3 3 17 53 27 38 26 36 25 34 15 17 17 53 18 23 0 0 2 2 7 7 6 6 22 43 21 44</p>
        </triangles>
      </mesh>
    </geometry>
  </library_geometries>
  <library_visual_scenes>
    <visual_scene id="scene">
      <node id="link21_R">
        <instance_geometry url="#geometry">
          <bind_material>
            <technique_common>
              <instance_material symbol="scout_1a1a1a" target="#scout_1a1a1a" />
            </technique_common>
          </bind_material>
        </instance_geometry>
      </node>
    </visual_scene>
  </library_visual_scenes>
  <scene>
    <instance_visual_scene url="#scene" />
  </scene>
</COLLADA>