<?xml version='1.0' encoding='utf-8'?>
<COLLADA xmlns="http://www.collada.org/2005/11/COLLADASchema" version="1.4.1">
  <asset>
    <created>2026-09-14T00:00:00Z</created>
    <modified>2026-09-14T00:00:00Z</modified>
    <unit name="metre" meter="1" />
    <up_axis>Z_UP</up_axis>
  </asset>
  <library_effects>
    <effect id="scout_1a1a1a_effect">
      <profile_COMMON>
        <technique sid="common">
          <lambert>
            <emission>
              <color>0 0 0 1</color>
            </emission>
            <ambient>
              <color>0.05 0.05 0.05 1</color>
            </ambient>
            <diffuse>
              <color>0.1 0.1 0.1 1</color>
            </diffuse>
          </lambert>
        </technique>
      </profile_COMMON>
    </effect>
  </library_effects>
  <library_materials>
    <material id="scout_1a1a1a" name="scout_1a1a1a">
      <instance_effect url="#scout_1a1a1a_effect" />
    </material>
  </library_materials>
  <library_geometries>
    <geometry id="geometry" name="link11_L">
      <mesh>
        <source id="positions">
          <float_array id="positions_array" count="96">-0.00593915116 -0.00647020247 -0.0139000006 -0.00519964891 -0.00758400233 -0.00240248372 -0.00597552489 -0.00637584506 -0.00239984225 0.0148362089 -0.00228150049 -0.00867732521 0.000320842082 -0.00780766038 -0.0139000006 0.0147747807 -0.00229299557 -0.0107341111 0.013124669 0.00706371618 -0.0111750942 0.013997023 -0.00242640264 -0.0124295773 -0.00103731221 0.00457697548 -0.0023788088 -0.00361767388 0.00313566579 -0.0139000006 -0.00356693892 0.00315236673 -0.00238980609 -0.00644007046 -0.00377810188 -0.0139000006 -0.00653433707 -0.00248236652 -0.00238830387 0.00939222891 -0.00319569116 0.00293799979 -0.00633423124 -0.00144471158 -0.0139000006 -0.00539420266 0.00104222517 -0.00240224996 0.00715322746 0.00604827236 0.00274481392 -0.00349704293 -0.0083829416 -0.0024061969 -0.00518998411 -0.00756843016 -0.0139000006 -0.00365787605 -0.00836437102 -0.0139000006 0.000320842082 -0.00780766038 -0.00239999988 0.01135989 -0.0028851314 0.00260817306 0.0126536442 -0.00265583722 0.00115889066 -0.00538553577 0.00101551611 -0.0139000006 0.0132305305 0.00708182203 -0.00869395863 0.0120699564 -0.00273900479 -0.0137813175 0.0111036319 0.00671805348 0.00104442122 0.0101288091 0.00655132718 0.00234055193 0.0116458377 0.00681078807 -0.0131544983 0.010072914 0.00654176716 -0.0138312699 -0.000901083753 0.00460870471 -0.0138994614 0.00843980163 0.00626245188 0.00296357088</float_array>
          <technique_common>
            <accessor source="#positions_array" count="32" stride="3">
              <param name="X" type="float" />
              <param name="Y" type="float" />
              <param name="Z" type="float" />
            </accessor>
          </technique_common>
        </source>
        <source id="normals">
          <float_array id="normals_array" count="171">-0.924389362 -0.381447524 -0.00143532059 -0.659782469 -0.751451313 0.00282748463 -0.936488152 -0.350673556 0.00423827209 0.362498969 -0.931884229 0.0136493836 0.251495183 -0.967738152 -0.0152643118 0.363386899 -0.930881321 -0.0375497378 0.92775166 0.166598424 -0.333948821 0.961277485 0.158915564 -0.225147694 0.756709874 0.115522906 -0.643462956 -0.374372959 0.905546069 0.19957754 -0.633977532 0.773348808 -0.0020139385 -0.610728741 0.691020191 0.386654168 -0.997314274 -0.0729911625 -0.00604618946 -0.996437013 0.0839322433 0.00828667078 -0.0939452872 -0.0373077802 0.994878113 -0.349581838 0.00209633075 0.936903477 -0.305576712 -0.11069563 0.945711017 -0.977916121 0.208915666 -0.00585343922 -0.438911855 0.199278802 0.876153171 -0.306549996 0.651053369 0.694375038 -0.261988908 -0.259916902 0.929411113 -0.196544841 -0.422964573 0.884573996 0 0 -1 -0.11116109 -0.991499066 0.0676221475 0.216163784 -0.94688046 0.238098025 0.20457992 -0.885425806 0.417334706 0.311407328 -0.924025178 0.221817479 0.360434473 -0.928001881 0.0943368375 -0.869742751 0.493472964 0.00565267215 -0.862111568 0.506715238 -0.00182693708 -0.169860721 -0.985465288 -0.00235206611 0.981164753 0.168980941 0.0936011598 0.981837451 0.168526202 0.0871445462 0.375918895 -0.863503873 -0.336223215 0.375872195 -0.914715528 -0.148376644 0.894151688 0.153890774 0.420488298 0.876755655 0.143736392 0.458954632 0.585110843 0.107337438 0.803818405 0.475442827 0.0699269772 0.876963139 0.601982772 0.115767807 -0.790072501 0.275922269 0.0386253074 -0.960403562 0.193925813 0.0364525467 -0.980338693 -0.663643003 -0.748047829 -0.00157098926 -0.328490734 0.944506347 -0.00128305249 0.0866734162 0.0243660174 0.995938778 0.00426123478 0.000442151213 -0.999990821 0.00504225213 -0.00059080933 -0.999987125 6.36214281e-07 0 -1 2.7183421e-07 0 -1 0.000104167448 3.72617324e-05 -1 -0.171665132 0.985154569 0.00123996672 -0.171493009 0.985181808 -0.00262905681 -0.171835229 0.985125422 0.000712996582 -0.165587515 0.986159801 0.00834223814 -0.166405767 0.986054897 0.00219130469 -0.168584645 0.985687196 -3.79212111e-07 -0.168584824 0.985687137 8.48689922e-07</float_array>
          <technique_common>
            <accessor source="#normals_array" count="57" stride="3">
              <param name="X" type="float" />
              <param name="Y" type="float" />
              <param name="Z" type="float" />
            </accessor>
          </technique_common>
        </source>
        <vertices id="vertices">
          <input semantic="POSITION" source="#positions" />
        </vertices>
        <triangles material="scout_1a1a1a" count="60">
          <input semantic="VERTEX" source="#vertices" offset="0" />
          <input semantic="NORMAL" source="#normals" offset="1" />
          <p>0 0 1 1 2 2 3 3 4 4 5 5 6 6 5 7 7 8 8 9 9 10 10 11 11 12 2 2 12 13 13 14 12 15 2 16 11 12 12 13 14 17 15 18 12 15 16 19 2 16 1 20 13 14 1 20 17 21 13 14 18 22 0 22 19 22 17 23 20 24 13 25 20 24 21 26 13 25 8 9 10 11 16 19 10 11 15 18 16 19 3 3 22 27 20 24 22 27 21 26 20 24 17 23 4 4 20 24 14 17 15 28 23 29 1 1 19 30 17 23 3 31 6 6 24 32 25 33 7 34 4 4 7 34 5 5 4 4 26 35 3 31 24 32 22 36 27 37 21 38 15 28 9 10 23 29 28 39 25 40 29 41 0 0 18 42 1 1 3 3 20 24 4 4 8 9 30 43 9 10 11 12 0 0 2 2 13 14 16 19 12 15 27 37 31 44 21 38 7 8 28 39 6 6 25 40 4 45 30 46 4 45 19 22 11 47 0 22 11 47 19 22 11 47 14 48 4 45 14 48 23 22 4 45 23 22 9 49 4 45 9 49 30 46 4 45 30 46 29 41 25 40 31 44 16 19 13 14 17 23 19 30 4 4 14 17 12 13 15 28 30 43 8 9 29 50 8 9 16 19 26 51 29 50 8 9 24 52 31 53 27 54 16 19 26 51 24 52 8 9 24 52 6 55 29 50 6 55 28 56 29 50 27 54 26 51 16 19 1 1 18 42 19 30 3 31 5 7 6 6 26 35 22 36 3 31 22 36 26 35 27 37 13 14 21 38 31 44 15 28 10 11 9 10 7 8 25 40 28 39</p>
        </triangles>
      </mesh>
    </geometry>
  </library_geometries>
  <library_visual_scenes>
    <visual_scene id="scene">
      <node id="link11_L">
        <instance_geometry url="#geometry">
          <bind_material>
            <technique_common>
              <instance_material symbol="scout_1a1a1a" target="#scout_1a1a1a" />
            </technique_common>
          </bind_material>
        </instance_geometry>
      </node>
    </visual_scene>
  </library_visual_scenes>
  <scene>
    <instance_visual_scene url="#scene" />
  </scene>
</COLLADA>