<?xml version='1.0' encoding='utf-8'?>
<COLLADA xmlns="http://www.collada.org/2005/11/COLLADASchema" version="1.4.1">
  <asset>
    <created>2026-09-14T00:00:00Z</created>
    <modified>2026-09-14T00:00:00Z</modified>
    <unit name="metre" meter="1" />
    <up_axis>Z_UP</up_axis>
  </asset>
  <library_effects>
    <effect id="scout_1a1a1a_effect">
      <profile_COMMON>
        <technique sid="common">
          <lambert>
            <emission>
              <color>0 0 0 1</color>
            </emission>
            <ambient>
              <color>0.05 0.05 0.05 1</color>
            </ambient>
            <diffuse>
              <color>0.1 0.1 0.1 1</color>
            </diffuse>
          </lambert>
        </technique>
      </profile_COMMON>
    </effect>
  </library_effects>
  <library_materials>
    <material id="scout_1a1a1a" name="scout_1a1a1a">
      <instance_effect url="#scout_1a1a1a_effect" />
    </material>
  </library_materials>
  <library_geometries>
    <geometry id="geometry" name="link15_L">
      <mesh>
        <source id="positions">
          <float_array id="positions_array" count="114">-0.00941317435 0.00187999022 -0.0112309773 -0.00992663763 -0.00734204566 -0.0092056375 -0.00997579563 -0.00726214284 -0.0029029625 -0.00555540249 -0.0336993709 -0.000116730858 -0.00561442785 -0.0335581489 -0.0118523398 -0.00242068502 -0.0355148464 -0.0119530978 0.00896180607 -0.0341335274 -0.00728458259 -0.00250885263 -0.0355181322 -1.4559474e-05 -0.00937223062 0.00215224572 -0.000673248898 -0.00759017561 0.00583799277 -0.0126998015 -0.00720976107 0.00632653804 0.000791318773 0.00304487441 -0.0255646426 -0.0132221449 -0.00442800205 -0.0348554961 -0.0119004585 -0.00380834495 -0.0352391638 -0.000107896674 0.00122264901 -0.026910983 0.00110839354 -0.00428458722 0.00857679266 -0.0130861979 0.00509467628 0.00922173727 -0.0118052661 0.00199575978 0.00950388703 0.000585292175 0.00522396574 0.00943914987 -0.001076277 -0.000742797391 0.0095174266 -0.0129435956 0.00560605852 -0.030178545 -0.0122964755 0.00824184716 -0.0338064097 -0.0029191568 0.00900595356 -0.0322615951 -0.00333149056 -0.00352044147 0.00889110938 0.00109132007 0.00657083746 -0.028437702 -0.0120997392 0.00771169923 -0.033217486 -0.0102136238 0.00836003851 -0.0320661925 -0.0100589944 0.0112761669 0.000351512659 -0.00502474094 0.00562764006 -0.0282266978 0.00060225476 0.010842259 0.000191589817 -0.00847222283 0.00735176215 -0.0316565819 -0.000781397976 0.00791577436 0.00593572157 -0.0112254946 0.00931280572 -0.000294426311 -0.0108516132 0.00901001319 0.00582958292 -0.0101586422 0.00739054941 0.00568772061 -0.000475006353 0.00907454826 0.00617992086 -0.00600059563 0.00908026937 0.00552470703 -0.00169152371 0.00984661933 -0.000127208434 -0.00173013518</float_array>
          <technique_common>
            <accessor source="#positions_array" count="38" stride="3">
              <param name="X" type="float" />
              <param name="Y" type="float" />
              <param name="Z" type="float" />
            </accessor>
          </technique_common>
        </source>
        <source id="normals">
          <float_array id="normals_array" count="186">-0.894811094 0.136847183 -0.424954057 -0.961582661 -0.0671095103 -0.266186148 -0.964591026 -0.0649937391 0.255616784 -0.591148674 -0.134124681 0.795332551 -0.587465107 -0.115999535 -0.800892532 -0.0949340835 -0.994907022 -0.0338752232 0.192888603 -0.976623595 -0.0948702544 -0.0566562824 -0.99839282 0.00134150463 -0.877804041 0.158288375 0.452111483 -0.774383962 0.632679164 -0.00682199607 -0.175582558 -0.0178286918 0.984303236 -0.732248425 0.680981278 0.00876326114 -0.202124894 -0.0250416454 -0.97903955 0.0940018967 -0.037135493 -0.994879186 -0.0823746175 -0.0751136839 -0.993766725 -0.304837972 -0.952396333 -0.00387478666 -0.20841454 -0.977818072 -0.0208625048 -0.00258899946 -0.0540869236 0.998532891 -0.454421163 0.890762925 -0.00653890707 -0.0188208707 -5.93387922e-05 -0.999822855 0.0462492183 0.998867393 -0.0111785429 -0.0461446792 0.998925388 0.00433476409 0.00956189074 0.99974668 -0.0203742906 -0.728613019 -0.684781849 0.0140327727 -0.668976784 -0.743274987 -0.00351075293 -0.661177337 -0.75020802 -0.00570255285 0.115207508 0.0203238856 -0.993133485 0.298563421 -0.22646147 -0.927132726 0.0125645567 -0.161231741 -0.986836612 0.183614209 -0.977530897 0.10353332 0.932651222 -0.183275923 0.310759842 0.866606057 -0.328358263 0.375732273 0.97975862 -0.160704091 -0.119361639 0.00790588278 -0.181986108 0.983269334 -0.0884668455 -0.0914162844 0.99187535 0.0218911152 0.00337692234 0.999754667 -0.355813414 0.93442446 0.0157389846 0.509766996 -0.0616690367 -0.858099341 0.581102252 -0.354287654 -0.732666671 0.266748875 -0.881534994 -0.389539629 0.804854751 -0.177866668 -0.566191077 0.986650288 0.111494169 0.11870227 0.33009693 -0.0962908044 0.939022958 0.133368865 0.0152344769 0.990949392 -0.115961999 0.993243933 -0.00438748207 0.205356374 0.0277460311 -0.978293896 0.944161713 0.0815583915 -0.319228619 0.542441308 -0.297045231 0.785825431 0.512261093 0.206224501 -0.833702564 0.626416624 0.0220514257 -0.779176474 0.295790434 -0.609196186 0.735790789 0.821400523 0.428940326 -0.375914067 0.444655687 0.258550227 0.857573926 0.646632254 0.445953965 -0.618863344 0.647120118 0.761066735 -0.0448655002 0.671285212 0.740377784 0.0348837376 0.815949142 0.57812345 -0.000523985247 0.790570438 0.39391309 0.468861282 0.747150302 0.0229575951 0.66425848 0.464271277 0.364788383 0.807082176 0.441093653 0.301694363 0.845231831 -0.737535417 -0.67509973 0.0167907327</float_array>
          <technique_common>
            <accessor source="#normals_array" count="62" stride="3">
              <param name="X" type="float" />
              <param name="Y" type="float" />
              <param name="Z" type="float" />
            </accessor>
          </technique_common>
        </source>
        <vertices id="vertices">
          <input semantic="POSITION" source="#positions" />
        </vertices>
        <triangles material="scout_1a1a1a" count="72">
          <input semantic="VERTEX" source="#vertices" offset="0" />
          <input semantic="NORMAL" source="#normals" offset="1" />
          <p>0 0 1 1 2 2 3 3 2 2 1 1 0 0 4 4 1 1 5 5 6 6 7 7 8 8 9 9 0 0 8 8 2 2 3 3 10 10 8 8 3 3 10 11 9 9 8 8 9 12 11 13 4 4 11 13 12 14 4 4 12 15 7 7 13 16 14 17 10 10 3 3 10 11 15 18 9 9 15 19 11 13 9 12 16 20 17 21 18 22 4 23 13 24 3 25 15 19 19 26 11 13 11 13 20 27 5 28 6 6 21 29 7 7 22 30 21 31 6 32 7 33 14 17 13 34 14 17 3 3 13 34 23 35 10 10 14 17 23 36 15 18 10 11 24 37 20 27 11 13 20 27 25 38 5 28 25 39 6 6 5 5 26 40 6 32 25 38 6 32 27 41 22 30 28 42 14 17 7 33 28 42 17 43 14 17 17 43 23 35 14 17 23 36 19 44 15 18 16 45 11 13 19 26 20 27 26 40 25 38 29 46 27 41 6 32 30 47 28 42 7 33 16 45 31 48 11 13 31 48 32 49 11 13 32 49 24 37 11 13 23 36 17 21 19 44 26 40 29 46 6 32 30 47 7 33 21 50 22 30 30 47 21 31 33 51 27 41 29 46 34 52 17 43 28 42 33 51 31 48 16 53 16 54 18 55 35 56 24 37 26 40 20 27 5 28 12 14 11 13 33 51 35 56 27 41 35 56 36 57 27 41 32 49 26 40 24 37 32 49 29 46 26 40 27 41 37 58 22 30 36 57 37 58 27 41 34 52 36 57 17 59 36 57 18 60 17 59 9 12 4 4 0 0 36 57 35 56 18 55 31 48 33 51 32 49 33 51 29 46 32 49 37 58 30 47 22 30 37 58 34 52 28 42 30 47 37 58 28 42 36 57 34 52 37 58 1 1 4 4 3 3 12 15 5 5 7 7 16 20 19 44 17 21 4 23 12 61 13 24 0 0 2 2 8 8 33 51 16 54 35 56</p>
        </triangles>
      </mesh>
    </geometry>
  </library_geometries>
  <library_visual_scenes>
    <visual_scene id="scene">
      <node id="link15_L">
        <instance_geometry url="#geometry">
          <bind_material>
            <technique_common>
              <instance_material symbol="scout_1a1a1a" target="#scout_1a1a1a" />
            </technique_common>
          </bind_material>
        </instance_geometry>
      </node>
    </visual_scene>
  </library_visual_scenes>
  <scene>
    <instance_visual_scene url="#scene" />
  </scene>
</COLLADA>