<?xml version='1.0' encoding='utf-8'?>
<COLLADA xmlns="http://www.collada.org/2005/11/COLLADASchema" version="1.4.1">
  <asset>
    <created>2026-09-14T00:00:00Z</created>
    <modified>2026-09-14T00:00:00Z</modified>
    <unit name="metre" meter="1" />
    <up_axis>Z_UP</up_axis>
  </asset>
  <library_effects>
    <effect id="scout_1a1a1a_effect">
      <profile_COMMON>
        <technique sid="common">
          <lambert>
            <emission>
              <color>0 0 0 1</color>
            </emission>
            <ambient>
              <color>0.05 0.05 0.05 1</color>
            </ambient>
            <diffuse>
              <color>0.1 0.1 0.1 1</color>
            </diffuse>
          </lambert>
        </technique>
      </profile_COMMON>
    </effect>
  </library_effects>
  <library_materials>
    <material id="scout_1a1a1a" name="scout_1a1a1a">
      <instance_effect url="#scout_1a1a1a_effect" />
    </material>
  </library_materials>
  <library_geometries>
    <geometry id="geometry" name="link22_L">
      <mesh>
        <source id="positions">
          <float_array id="positions_array" count="102">-0.00293448358 0.00163038215 -0.00203371164 -0.00373820588 -0.00255619059 -0.00503059756 -0.00463213585 -0.032469593 -0.00499934703 -0.00292546605 0.00165767665 -0.0079650199 -0.00286571728 -0.0317086801 -0.0100567751 -0.00268291822 -0.0314658582 0.000217357388 -0.000642800762 -0.00437778933 -0.0103552761 -0.00234492798 -0.0363546535 -0.00796065107 -0.00295566139 -0.0357250609 -0.00194793171 -0.000305265421 -0.00499530509 0.000630253693 -0.000461569987 0.00577996438 -0.00205903291 1.23339514e-05 0.00618773373 -0.00794083159 0.0057056495 -0.000382764672 -0.0114722075 0.000695701921 -0.0303812567 -0.010381218 0.00595770171 -0.000296398881 0.00137174304 0.000341538398 -0.0343252756 -0.000168821018 -0.00137675123 -0.0360633358 -0.00907426421 -0.000727649371 -0.0374530293 -0.00373150175 -0.00120368472 -0.0364290662 -0.00119115924 0.00125580293 -0.0373619758 -0.00727414945 0.00430415478 0.00783972815 -0.00798107684 0.00756539218 -0.0197582301 -0.00919712521 0.00207812502 -0.0355653502 -0.00879015215 0.00715437019 -0.0195756294 -0.000556001149 0.00397614995 0.00779492222 -0.00203089695 0.00647686236 0.00669055851 -0.00792680215 0.00187372556 -0.0371149331 -0.00327764708 0.0062497789 0.00707958778 -0.00211189548 0.00313609303 -0.0356681086 -0.00209748629 0.00983362552 -0.00289158174 -0.00921753142 0.00323224743 -0.0361052491 -0.00665409118 0.00983237661 -0.0028892241 -0.000781709678 0.00889863446 -0.0190893095 -0.00397943612 0.0108909626 -0.0038158067 -0.00500265835</float_array>
          <technique_common>
            <accessor source="#positions_array" count="34" stride="3">
              <param name="X" type="float" />
              <param name="Y" type="float" />
              <param name="Z" type="float" />
            </accessor>
          </technique_common>
        </source>
        <source id="normals">
          <float_array id="normals_array" count="144">-0.811673403 0.300607771 0.500820518 -0.998098671 0.0615185201 -0.00381568144 -0.985576034 -0.169101104 -0.00668998575 -0.80478406 0.312261313 -0.504792571 -0.591576874 -0.148721084 -0.792413294 -0.547071099 -0.106347419 0.830303192 -0.424553096 0.0758751184 -0.902218163 -0.633625627 -0.693078876 -0.343744367 -0.796440423 -0.575643063 0.185250416 -0.390952736 0.0694236755 0.917788804 -0.67461127 0.738138795 0.00711909356 -0.623938143 0.781389773 -0.0114574842 -0.239992946 0.297503859 -0.924064279 0.177581251 0.197152466 -0.964155495 0.154817671 -0.13271299 -0.978988647 0.204530299 0.204755336 0.957205653 -0.246104673 0.284376115 0.926586568 0.172350466 -0.316012681 0.932969093 -0.650210381 -0.371811658 -0.662557602 -0.231994271 -0.964557767 0.125725895 -0.489701688 -0.370000929 0.789488137 -0.187915489 -0.712269545 0.676283896 -0.0120402202 -0.639621615 -0.768595636 0.218424574 -0.91526401 -0.338500321 0.012723404 0.392620504 -0.919612586 0.7336151 -0.175658211 -0.65647012 0.466346651 -0.450948656 -0.761029601 0.63259995 -0.161454052 0.7574628 -0.0215988047 0.383057714 0.923471868 -0.390923142 0.92034632 0.0119082816 0.323295444 0.395626783 -0.859627545 0.389261961 -0.880362093 0.270994008 0.264079839 0.40332967 0.876120448 0.686410666 -0.521794796 0.50652796 0.503842711 0.0542554371 -0.862089813 0.428548515 0.903170347 -0.0250901729 0.300804317 0.953389823 0.0237611402 0.342560619 0.939460695 0.00811491814 0.467949063 0.882813692 -0.0407879241 0.793670237 -0.568188429 -0.217369542 0.512136877 0.0533497557 0.857245386 0.973233461 -0.205018535 0.103845984 0.996490061 0.0834099948 -0.00709041907 0.924184024 0.381066442 -0.0259279069 0.923205495 0.38192153 0.042749919 0.968742132 0.132649302 -0.209625557 0.963608503 0.147391513 0.22301203 -0.359299213 0.933134913 -0.0127797574</float_array>
          <technique_common>
            <accessor source="#normals_array" count="48" stride="3">
              <param name="X" type="float" />
              <param name="Y" type="float" />
              <param name="Z" type="float" />
            </accessor>
          </technique_common>
        </source>
        <vertices id="vertices">
          <input semantic="POSITION" source="#positions" />
        </vertices>
        <triangles material="scout_1a1a1a" count="64">
          <input semantic="VERTEX" source="#vertices" offset="0" />
          <input semantic="NORMAL" source="#normals" offset="1" />
          <p>0 0 1 1 2 2 0 0 3 3 1 1 4 4 2 2 3 3 2 2 5 5 0 0 6 6 4 4 3 3 7 7 8 8 2 2 5 5 9 9 0 0 8 8 5 5 2 2 7 7 2 2 4 4 10 10 11 11 3 3 11 12 6 6 3 3 6 6 12 13 4 4 12 13 13 14 4 4 14 15 9 9 5 5 10 16 0 0 9 9 12 13 6 6 11 12 5 5 15 17 14 15 16 18 7 7 4 4 7 7 17 19 8 8 8 20 18 21 5 5 14 15 10 16 9 9 13 14 16 22 4 4 7 7 19 23 17 19 20 24 12 13 11 12 12 13 21 25 13 14 22 26 16 22 13 14 17 19 18 21 8 8 23 27 14 15 15 17 14 15 24 28 10 16 15 17 5 5 18 21 24 29 11 11 10 10 20 24 25 30 12 13 21 25 22 26 13 14 22 26 19 23 16 22 19 23 7 7 16 22 26 31 17 19 19 23 27 32 24 28 14 15 18 21 28 33 15 17 29 34 21 25 12 13 20 35 24 36 27 37 27 37 25 38 20 35 19 23 30 39 26 31 17 19 26 31 18 21 26 31 28 33 18 21 23 27 31 40 14 15 25 30 29 34 12 13 31 40 27 32 14 15 2 2 1 1 3 3 30 39 22 26 21 25 22 26 30 39 19 23 28 33 32 41 23 27 33 42 25 43 27 44 33 42 29 45 25 43 28 33 26 31 30 39 31 46 33 42 27 44 32 41 30 39 21 25 0 0 10 10 3 3 32 41 31 46 23 27 30 39 32 41 28 33 32 41 29 45 33 42 29 45 32 41 21 25 31 46 32 41 33 42 11 11 24 29 20 47 23 27 15 17 28 33</p>
        </triangles>
      </mesh>
    </geometry>
  </library_geometries>
  <library_visual_scenes>
    <visual_scene id="scene">
      <node id="link22_L">
        <instance_geometry url="#geometry">
          <bind_material>
            <technique_common>
              <instance_material symbol="scout_1a1a1a" target="#scout_1a1a1a" />
            </technique_common>
          </bind_material>
        </instance_geometry>
      </node>
    </visual_scene>
  </library_visual_scenes>
  <scene>
    <instance_visual_scene url="#scene" />
  </scene>
</COLLADA>