<?xml version='1.0' encoding='utf-8'?>
<COLLADA xmlns="http://www.collada.org/2005/11/COLLADASchema" version="1.4.1">
  <asset>
    <created>2026-09-14T00:00:00Z</created>
    <modified>2026-09-14T00:00:00Z</modified>
    <unit name="metre" meter="1" />
    <up_axis>Z_UP</up_axis>
  </asset>
  <library_effects>
    <effect id="scout_1a1a1a_effect">
      <profile_COMMON>
        <technique sid="common">
          <lambert>
            <emission>
              <color>0 0 0 1</color>
            </emission>
            <ambient>
              <color>0.05 0.05 0.05 1</color>
            </ambient>
            <diffuse>
              <color>0.1 0.1 0.1 1</color>
            </diffuse>
          </lambert>
        </technique>
      </profile_COMMON>
    </effect>
  </library_effects>
  <library_materials>
    <material id="scout_1a1a1a" name="scout_1a1a1a">
      <instance_effect url="#scout_1a1a1a_effect" />
    </material>
  </library_materials>
  <library_geometries>
    <geometry id="geometry" name="link22_R">
      <mesh>
        <source id="positions">
          <float_array id="positions_array" count="102">-0.00373764802 0.00254822196 -0.00499308482 -0.00433032913 0.0324252769 -0.00314685982 -0.0044968063 0.0317162536 -0.00611681119 -0.00291282334 0.0313606784 -0.0101618078 -0.00284498325 -0.00130520645 -0.00838561542 -0.00275259488 -0.00242141634 -0.00203846744 0.00454601878 -0.00788930058 -0.00796730909 0.00565218879 -0.00768714538 -0.00204020855 0.000770295272 -0.00666572247 -0.00204407051 -0.0024629652 0.0307493489 0.000332069845 0.00244173128 0.0291588083 -0.0101989349 0.00538744358 0.000467566453 -0.0114470562 -0.00286183157 0.0358567536 -0.00234378083 -0.00326354662 0.0349742323 -0.00810241327 -0.000280505628 0.00492610829 0.000639015343 -0.00173931883 0.0355002172 -0.000653663592 -0.000222696399 -0.00593323307 -0.00797628239 0.0059652226 0.00028153864 0.00137173734 -0.00157748442 0.0361925624 -0.00890700798 0.00252287369 0.0293473192 0.000129041728 -0.00068317441 0.0373346955 -0.00272366568 -0.00124998624 0.0373678915 -0.00673217839 0.00177209149 0.0356661491 -0.00113334658 0.00230089831 0.0358530506 -0.00859995745 0.00271046604 0.0364674181 -0.00240094075 0.00787189882 0.0195671301 -0.00877809618 0.00972294249 0.00275251828 -0.00941081345 0.00658764597 -0.00649942132 -0.00792433787 0.00787045807 0.0195736438 -0.00122505589 0.00206327322 0.0371109284 -0.00627360819 0.00983658433 0.0029038405 -0.000790621969 0.00353307836 0.0356731713 -0.00626220135 0.010868568 0.00382459001 -0.00500805816 0.00884834677 0.0191922206 -0.00498476438</float_array>
          <technique_common>
            <accessor source="#positions_array" count="34" stride="3">
              <param name="X" type="float" />
              <param name="Y" type="float" />
              <param name="Z" type="float" />
            </accessor>
          </technique_common>
        </source>
        <source id="normals">
          <float_array id="normals_array" count="159">-0.997309625 -0.0704171211 0.0203698967 -0.950868309 0.17928347 0.252402186 -0.982965589 0.1134459 -0.144598171 -0.900769293 0.0806243271 -0.426748604 -0.950793803 -0.292559385 -0.101981051 -0.784196496 -0.360801011 0.504835069 -0.304651141 -0.952460587 0.00255450653 -0.204323336 -0.976293802 0.0714312494 -0.518038452 -0.854721785 0.0329672955 -0.857578814 0.0614583641 0.510667682 0.0251806229 0.146161392 -0.988940239 0.29092145 0.153177246 -0.944405317 0.12096896 -0.17395106 -0.977296054 -0.758200228 0.575107336 0.307219803 -0.818474948 0.444826424 -0.363631904 -0.399990857 -0.0729535893 0.913610995 -0.785122216 0.238207847 0.571699321 -0.662699103 -0.748114169 -0.0339876078 -0.31646046 -0.148411855 -0.93692404 -0.219787583 -0.309090257 -0.925287306 -0.194263384 -0.312000543 0.930009365 0.209611326 -0.206733227 0.955680132 0.0661025718 0.127635136 0.989615977 -0.653784931 0.602211237 -0.458156019 0.334945917 0.160870925 0.928402781 0.110168375 0.200159654 0.973549724 -0.144649729 0.935266137 0.323038191 -0.692767501 0.716422617 -0.0825335756 0.461110532 0.246045709 0.852548301 0.110495567 0.766082287 0.633173525 -0.198955417 0.781617939 0.591176867 0.456866384 0.551852465 -0.697661817 0.0343802273 -0.387121618 -0.921387434 0.0964655578 0.225123256 -0.969543159 -0.0822284147 -0.38954255 0.917330444 0.614684105 0.681427777 0.397265136 0.105921455 0.952342689 -0.286049128 0.114312492 0.866679907 -0.485590935 0.762437582 0.167422637 -0.625026822 0.44368875 -0.046336703 -0.894982219 0.343585402 -0.375949681 -0.860587537 0.755739808 0.169164345 0.632645786 0.397217989 0.900731623 -0.175785229 0.497917086 -0.0308276322 0.866676569 0.620512128 -0.329138488 0.711781263 0.858646989 0.490495086 -0.148794949 0.966579676 -0.141537353 -0.213754311 0.996271312 -0.0862355977 -0.00262517086 0.807907045 -0.58892864 -0.0211960971 0.86247164 -0.503703475 0.0492487773 0.966349483 -0.162899256 0.199079305 0.978990614 0.203896597 0.001876925 0.562186539 -0.823433399 -0.0768356994</float_array>
          <technique_common>
            <accessor source="#normals_array" count="53" stride="3">
              <param name="X" type="float" />
              <param name="Y" type="float" />
              <param name="Z" type="float" />
            </accessor>
          </technique_common>
        </source>
        <vertices id="vertices">
          <input semantic="POSITION" source="#positions" />
        </vertices>
        <triangles material="scout_1a1a1a" count="64">
          <input semantic="VERTEX" source="#vertices" offset="0" />
          <input semantic="NORMAL" source="#normals" offset="1" />
          <p>0 0 1 1 2 2 3 3 4 4 2 2 4 4 0 0 2 2 4 4 5 5 0 0 6 6 7 7 8 8 9 9 1 1 5 5 3 10 10 11 11 12 12 13 13 14 1 1 13 14 2 2 1 1 14 15 9 9 5 5 9 9 12 13 1 1 13 14 3 3 2 2 15 16 12 13 9 9 16 17 5 5 4 4 11 12 4 18 3 10 4 18 11 12 16 19 8 20 17 21 5 5 17 21 14 15 5 5 14 15 17 21 9 22 1 1 0 0 5 5 18 23 3 3 13 14 19 24 15 25 9 22 20 26 21 27 12 13 17 21 19 24 9 22 19 24 22 28 15 25 22 29 20 26 15 30 20 26 12 13 15 30 18 23 13 14 21 27 23 31 10 11 3 10 11 12 6 32 16 19 23 31 3 10 18 33 7 34 17 21 8 20 24 35 20 26 22 29 21 36 23 31 18 37 23 31 25 38 10 11 10 11 26 39 11 12 27 40 6 32 11 12 16 17 8 8 5 5 19 24 28 41 22 28 20 26 29 42 21 36 21 36 29 42 23 31 26 39 27 40 11 12 30 43 19 24 17 21 7 44 30 43 17 21 22 28 28 41 24 35 24 35 29 42 20 26 26 39 10 11 25 38 30 43 28 41 19 24 31 45 23 31 29 42 26 46 32 47 27 48 32 47 7 49 27 48 32 47 30 50 7 49 28 41 33 51 24 35 31 45 29 42 24 35 23 31 31 45 25 38 31 45 33 51 25 38 31 45 24 35 33 51 26 46 33 51 32 47 33 51 30 50 32 47 26 46 25 38 33 51 28 41 30 50 33 51 16 17 6 6 8 8 21 27 13 14 12 13 6 52 27 48 7 49</p>
        </triangles>
      </mesh>
    </geometry>
  </library_geometries>
  <library_visual_scenes>
    <visual_scene id="scene">
      <node id="link22_R">
        <instance_geometry url="#geometry">
          <bind_material>
            <technique_common>
              <instance_material symbol="scout_1a1a1a" target="#scout_1a1a1a" />
            </technique_common>
          </bind_material>
        </instance_geometry>
      </node>
    </visual_scene>
  </library_visual_scenes>
  <scene>
    <instance_visual_scene url="#scene" />
  </scene>
</COLLADA>