<?xml version='1.0' encoding='utf-8'?>
<COLLADA xmlns="http://www.collada.org/2005/11/COLLADASchema" version="1.4.1">
  <asset>
    <created>2026-09-14T00:00:00Z</created>
    <modified>2026-09-14T00:00:00Z</modified>
    <unit name="metre" meter="1" />
    <up_axis>Z_UP</up_axis>
  </asset>
  <library_effects>
    <effect id="scout_1a1a1a_effect">
      <profile_COMMON>
        <technique sid="common">
          <lambert>
            <emission>
              <color>0 0 0 1</color>
            </emission>
            <ambient>
              <color>0.05 0.05 0.05 1</color>
            </ambient>
            <diffuse>
              <color>0.1 0.1 0.1 1</color>
            </diffuse>
          </lambert>
        </technique>
      </profile_COMMON>
    </effect>
  </library_effects>
  <library_materials>
    <material id="scout_1a1a1a" name="scout_1a1a1a">
      <instance_effect url="#scout_1a1a1a_effect" />
    </material>
  </library_materials>
  <library_geometries>
    <geometry id="geometry" name="link14_R">
      <mesh>
        <source id="positions">
          <float_array id="positions_array" count="99">0.0197011437 0.0144220833 -0.00394033128 0.0192392822 0.0145967575 -0.00860069692 0.0160552952 0.0155086908 -0.00275758002 0.0153335594 0.0154216485 -0.00976821687 0.008755791 0.0134154484 -0.00801631249 0.0094113145 0.0134379687 -0.00197596056 0.0166087616 0.0142251952 -0.000746934849 0.0166264083 0.0144182257 -0.0109086828 0.0218453966 0.0118128322 -0.00353830005 0.0223081987 0.0109477891 -0.00811037235 0.0196402837 0.0113919396 -0.0110158585 0.0120496843 0.0119533464 -0.0122013455 0.00725563616 0.011474059 -0.0109630683 -0.00397781702 0.00325727882 -0.00952027459 -0.00390011072 0.00330602261 -0.00244964682 0.00717570959 0.0099168364 0.000248462893 0.0182146952 0.0106510231 -0.000516009808 0.0219783615 0.00955632981 -0.00334846182 0.0016215439 0.00472968817 -0.0128745865 0.00175389426 0.00414117519 0.00114118622 -0.00510601047 -0.00168065366 -0.00953350775 -0.00515940972 -0.00169231184 -0.00250436552 0.00380721246 0.00323162647 0.00155440404 0.00362886162 0.00342325773 -0.0134703908 0.0215420984 0.00894935802 -0.00886533316 0.0098340679 -0.00354235363 -0.001459967 0.0102456203 -0.00140466378 -0.0114487596 0.00416542822 -0.00311224908 -0.0129638296 0.00432642596 -0.00629947335 0.00024884491 0.00559983496 -0.0087955799 -0.00354429614 -0.000208685364 -0.00836262479 -0.00909235794 -0.000142074743 -0.00838265289 -0.00290205376 0.00533063291 -0.00857790373 -0.0100786025</float_array>
          <technique_common>
            <accessor source="#positions_array" count="33" stride="3">
              <param name="X" type="float" />
              <param name="Y" type="float" />
              <param name="Z" type="float" />
            </accessor>
          </technique_common>
        </source>
        <source id="normals">
          <float_array id="normals_array" count="144">0.574004948 0.785030484 0.232906625 0.537040055 0.791727185 -0.291129023 0.0287265945 0.96153897 0.273162156 -0.0599588305 0.931232333 -0.359459758 -0.455181748 0.881429255 -0.126063585 -0.385501236 0.830532432 0.402000785 0.198128715 0.575097978 0.793730021 0.216511756 0.603766978 -0.767194927 0.775024474 0.630608737 -0.0408616811 0.804464877 0.416705549 -0.423311621 0.603806138 0.279258996 0.746614039 0.518058598 0.139780164 -0.84384644 -0.0546653643 0.384499907 -0.921505034 -0.435611039 0.699215949 -0.566868603 -0.65179497 0.515465081 -0.556290448 -0.648799717 0.523246408 0.552514315 -0.271688014 0.479346067 0.834513605 0.413558304 -0.00106555643 0.910477042 0.928200483 -0.369447857 0.0441829376 0.966278315 -0.257366955 -0.00827408396 0.993921697 0.0659825578 0.0881247148 -0.4048132 0.288797081 -0.867595851 -0.37970078 0.231927767 0.895565093 0.578070343 -0.105971575 0.809076428 -0.420344323 -0.125072375 -0.898703277 -0.433134198 -0.126126125 0.892461181 -0.0386066847 -0.0103633115 0.999200761 -0.0970863774 0.0155228879 -0.995154917 0.79847163 -0.415373117 -0.435784638 0.62123698 -0.54409039 0.563941658 0.46535185 -0.383586586 -0.797689795 -0.0320528261 -0.276339412 -0.960525453 0.0586802103 -0.505842149 0.86062789 0.361206204 -0.900283754 0.242938682 -0.292531192 -0.397574157 -0.869689763 -0.418003619 -0.362978607 0.832778156 -0.802729785 -0.596342623 0.000561391935 -0.803685308 -0.595052779 -0.00146256457 -0.806321323 -0.591435015 -0.00710641686 -0.972857833 0.23140274 -0.00059480482 -0.971812487 0.235740408 0.0026414264 -0.96968168 0.244206831 0.00897329114 0.387764156 -0.653811455 -0.649745762 -0.0444029197 -0.998519063 -0.0314340219 -0.057109721 -0.998203695 -0.0181062594 -0.0472934134 -0.977483034 0.205645964 -0.799816251 -0.600207984 0.00666442933 -0.974850655 0.222747922 -0.00703634135</float_array>
          <technique_common>
            <accessor source="#normals_array" count="48" stride="3">
              <param name="X" type="float" />
              <param name="Y" type="float" />
              <param name="Z" type="float" />
            </accessor>
          </technique_common>
        </source>
        <vertices id="vertices">
          <input semantic="POSITION" source="#positions" />
        </vertices>
        <triangles material="scout_1a1a1a" count="62">
          <input semantic="VERTEX" source="#vertices" offset="0" />
          <input semantic="NORMAL" source="#normals" offset="1" />
          <p>0 0 1 1 2 2 1 1 3 3 2 2 4 4 5 5 3 3 5 5 2 2 3 3 6 6 0 0 2 2 1 1 7 7 3 3 8 8 9 9 0 0 9 9 1 1 0 0 5 5 6 6 2 2 6 6 8 10 0 0 10 11 7 7 1 1 11 12 3 3 7 7 10 11 1 1 9 9 12 13 3 3 11 12 13 14 14 15 4 4 14 15 5 5 4 4 5 5 15 16 6 6 6 6 16 17 8 10 17 18 9 19 8 20 13 14 4 4 12 13 12 13 18 21 13 14 19 22 15 16 14 15 15 16 5 5 14 15 16 17 17 23 8 10 10 11 11 12 7 7 18 21 12 13 11 12 18 21 20 24 13 14 21 25 19 22 14 15 22 26 6 6 15 16 23 27 11 12 10 11 23 27 18 21 11 12 19 22 22 26 15 16 17 18 24 28 9 19 9 9 24 28 10 11 25 29 17 23 16 17 26 30 27 31 10 11 23 27 20 24 18 21 22 26 28 32 16 17 28 32 25 29 16 17 17 18 29 33 24 28 12 13 4 4 3 3 24 28 26 30 10 11 27 31 20 24 23 27 27 31 30 34 20 24 31 35 28 32 21 25 28 32 19 22 21 25 25 29 29 33 17 18 30 36 21 37 20 38 22 26 19 22 28 32 13 39 21 40 14 41 29 33 32 42 24 28 27 31 32 42 30 34 28 32 29 33 25 29 32 42 26 30 24 28 26 30 32 42 27 31 32 43 29 33 30 44 29 33 31 45 30 44 31 45 29 33 28 32 22 26 16 17 6 6 23 27 10 11 27 31 30 36 31 46 21 37 13 39 20 47 21 40</p>
        </triangles>
      </mesh>
    </geometry>
  </library_geometries>
  <library_visual_scenes>
    <visual_scene id="scene">
      <node id="link14_R">
        <instance_geometry url="#geometry">
          <bind_material>
            <technique_common>
              <instance_material symbol="scout_1a1a1a" target="#scout_1a1a1a" />
            </technique_common>
          </bind_material>
        </instance_geometry>
      </node>
    </visual_scene>
  </library_visual_scenes>
  <scene>
    <instance_visual_scene url="#scene" />
  </scene>
</COLLADA>