<?xml version='1.0' encoding='utf-8'?>
<COLLADA xmlns="http://www.collada.org/2005/11/COLLADASchema" version="1.4.1">
  <asset>
    <created>2026-09-14T00:00:00Z</created>
    <modified>2026-09-14T00:00:00Z</modified>
    <unit name="metre" meter="1" />
    <up_axis>Z_UP</up_axis>
  </asset>
  <library_effects>
    <effect id="scout_1a1a1a_effect">
      <profile_COMMON>
        <technique sid="common">
          <lambert>
            <emission>
              <color>0 0 0 1</color>
            </emission>
            <ambient>
              <color>0.05 0.05 0.05 1</color>
            </ambient>
            <diffuse>
              <color>0.1 0.1 0.1 1</color>
            </diffuse>
          </lambert>
        </technique>
      </profile_COMMON>
    </effect>
  </library_effects>
  <library_materials>
    <material id="scout_1a1a1a" name="scout_1a1a1a">
      <instance_effect url="#scout_1a1a1a_effect" />
    </material>
  </library_materials>
  <library_geometries>
    <geometry id="geometry" name="link18_L">
      <mesh>
        <source id="positions">
          <float_array id="positions_array" count="102">0.00157386926 -0.0370897353 0.000147266066 -0.00423489511 -0.0382443741 0.000259264547 -0.00330020511 -0.0457668118 -0.00071455515 -0.0032900183 0.00214030407 -0.00211672601 -0.00311978348 0.00226077181 -0.00800538715 -0.00622052653 -0.0402465649 -0.00439123251 -0.005754048 -0.0405409522 -0.00747116935 -0.00506459409 -0.0448117666 -0.00201164 -0.000589001284 -0.00505716633 0.000629754155 9.17244543e-05 -0.00467755971 -0.0108993305 -0.00403492246 -0.0398247465 -0.0102729537 -0.00403594598 -0.0463964231 -0.0084143281 0.00322502619 0.00774976332 -0.00805254839 0.00607916899 -0.000284186448 0.00132084545 0.00564816361 0.00813139044 -0.0019324607 -0.00380039425 -0.0468931533 -0.0018384608 0.00672414852 -0.000331621559 -0.0111061763 0.00116008241 -0.0372837633 -0.0102080805 0.00627516722 0.00737253763 -0.00799908768 -0.00237676781 -0.0484409966 -0.0066975439 0.000140837481 -0.0456393138 -0.00084097503 -0.00177353539 -0.0466843247 -0.00909154769 -0.00179909158 -0.0483727045 -0.00277218199 0.00971375313 -0.00253607123 -0.000675114861 0.0110223042 -0.00351176737 -0.00418689521 0.0100638485 -0.00283133984 -0.00895560626 0.00126620475 -0.04578311 -0.0084431516 0.000234680163 -0.0481911078 -0.00252329628 0.00723143341 -0.0255224686 -0.00137032231 0.00722529367 -0.0256169401 -0.008619898 0.00798273925 -0.0258659031 -0.00480174087 0.00170310074 -0.0471916609 -0.00640666159 0.000254791608 -0.0484625325 -0.00709056482 0.00151262339 -0.0469671674 -0.00266001653</float_array>
          <technique_common>
            <accessor source="#positions_array" count="34" stride="3">
              <param name="X" type="float" />
              <param name="Y" type="float" />
              <param name="Z" type="float" />
            </accessor>
          </technique_common>
        </source>
        <source id="normals">
          <float_array id="normals_array" count="159">0.320568204 -0.129625186 0.93831408 -0.537102997 -0.0445378907 0.842340052 0.04193414 -0.122046359 0.991638124 -0.751294315 0.208300695 0.626232982 -0.71508342 0.194383219 -0.671469152 -0.992998302 -0.0771732777 0.0894350111 -0.941747129 -0.101456158 -0.320653945 -0.885635257 -0.302853644 0.352036685 -0.371142596 0.0826996937 0.924885929 -0.31116724 0.0812699869 -0.946873903 -0.840560198 -0.0287617855 -0.540954053 -0.899924457 -0.411954463 -0.142931625 -0.615895092 0.785066485 0.065907456 -0.586525857 0.801864982 0.114017352 -0.654270947 0.756252348 -0.00344308792 0.19515337 0.209369451 0.958164692 -0.245652869 0.33855623 0.90831399 -0.0946931392 0.322893441 -0.941686273 -0.765304208 -0.643321991 0.0211242437 -0.670672953 -0.353079647 0.652328551 -0.660902023 -0.269963384 0.700234473 0.27719 0.201493725 -0.939449847 0.282776415 -0.11235714 -0.952582479 0.0202651378 -0.116327889 -0.993004084 0.0627562776 0.376433879 -0.924315512 -0.464865923 -0.885301828 0.0118470937 0.319254845 -0.343034655 0.883404553 -0.0276032146 -0.494768679 -0.868586183 -0.307212651 -0.47656253 -0.823716283 -0.26667887 -0.960821927 0.075521946 0.00642144307 -0.634835839 0.77262038 0.052104108 -0.716875374 0.695251644 -0.0391377024 -0.557914913 0.828974783 0.783265531 0.118803486 0.610230207 0.886351347 0.404763132 0.224829152 0.992612243 0.096380271 0.0737005174 0.907314301 0.400558472 -0.127803266 0.843097985 0.0962963477 -0.529067814 0.603574216 -0.341648996 -0.720398605 -0.167286664 -0.774294317 -0.61031425 0.171097323 -0.53790766 0.825458109 0.768806756 -0.158848971 0.619437814 0.123895593 0.986118495 -0.110545099 0.775412261 -0.159035668 -0.611100197 0.978745341 -0.204746157 0.0116881309 0.832690358 -0.529034317 -0.163552761 0.312364936 -0.657672584 -0.68548876 0.0215917546 -0.999284387 0.0310565308 0.0815551355 -0.99489218 0.0594834685 0.787037909 -0.481229722 0.385991305 0.654770374 -0.752747238 0.0681713074 0.693507969 -0.718992829 0.0457823426 -0.55130583 0.81735462 0.16731219</float_array>
          <technique_common>
            <accessor source="#normals_array" count="53" stride="3">
              <param name="X" type="float" />
              <param name="Y" type="float" />
              <param name="Z" type="float" />
            </accessor>
          </technique_common>
        </source>
        <vertices id="vertices">
          <input semantic="POSITION" source="#positions" />
        </vertices>
        <triangles material="scout_1a1a1a" count="64">
          <input semantic="VERTEX" source="#vertices" offset="0" />
          <input semantic="NORMAL" source="#normals" offset="1" />
          <p>0 0 1 1 2 2 3 3 4 4 5 5 4 4 6 6 5 5 6 6 7 7 5 5 7 7 1 1 5 5 1 1 3 3 5 5 1 1 8 8 3 3 9 9 10 10 4 4 10 10 6 6 4 4 11 11 7 7 6 6 3 12 12 13 4 14 8 8 13 15 3 3 13 15 14 16 3 3 12 17 9 9 4 4 10 10 11 11 6 6 11 11 15 18 7 7 15 19 2 20 7 7 7 7 2 20 1 1 1 1 0 0 13 15 16 21 9 9 12 17 16 21 17 22 9 9 17 22 10 23 9 9 13 15 8 8 1 1 18 24 16 21 12 17 19 25 15 18 11 11 2 2 20 26 0 0 21 27 11 28 10 23 17 22 21 27 10 23 22 29 15 18 19 25 15 30 20 26 2 31 22 32 20 26 15 30 13 15 23 33 14 34 23 33 24 35 14 34 24 35 18 36 14 34 24 35 25 37 18 36 25 37 16 21 18 36 17 22 26 38 21 27 19 39 11 28 21 27 22 32 27 40 20 26 28 41 23 33 13 15 0 0 28 41 13 15 14 42 18 42 12 42 28 41 24 35 23 33 29 43 25 37 24 35 25 37 29 43 16 21 29 43 17 22 16 21 28 41 0 0 20 26 28 41 30 44 24 35 31 45 26 38 29 43 30 44 29 43 24 35 32 46 19 39 21 27 32 46 21 27 26 38 29 43 26 38 17 22 31 45 32 46 26 38 32 47 22 29 19 25 32 47 27 48 22 29 33 49 28 41 20 26 27 40 33 49 20 26 32 50 33 49 27 51 31 45 33 49 32 50 33 49 30 44 28 41 33 49 31 45 30 44 31 45 29 43 30 44 3 12 14 52 12 13</p>
        </triangles>
      </mesh>
    </geometry>
  </library_geometries>
  <library_visual_scenes>
    <visual_scene id="scene">
      <node id="link18_L">
        <instance_geometry url="#geometry">
          <bind_material>
            <technique_common>
              <instance_material symbol="scout_1a1a1a" target="#scout_1a1a1a" />
            </technique_common>
          </bind_material>
        </instance_geometry>
      </node>
    </visual_scene>
  </library_visual_scenes>
  <scene>
    <instance_visual_scene url="#scene" />
  </scene>
</COLLADA>