<?xml version='1.0' encoding='utf-8'?>
<COLLADA xmlns="http://www.collada.org/2005/11/COLLADASchema" version="1.4.1">
  <asset>
    <created>2026-09-14T00:00:00Z</created>
    <modified>2026-09-14T00:00:00Z</modified>
    <unit name="metre" meter="1" />
    <up_axis>Z_UP</up_axis>
  </asset>
  <library_effects>
    <effect id="scout_1a1a1a_effect">
      <profile_COMMON>
        <technique sid="common">
          <lambert>
            <emission>
              <color>0 0 0 1</color>
            </emission>
            <ambient>
              <color>0.05 0.05 0.05 1</color>
            </ambient>
            <diffuse>
              <color>0.1 0.1 0.1 1</color>
            </diffuse>
          </lambert>
        </technique>
      </profile_COMMON>
    </effect>
  </library_effects>
  <library_materials>
    <material id="scout_1a1a1a" name="scout_1a1a1a">
      <instance_effect url="#scout_1a1a1a_effect" />
    </material>
  </library_materials>
  <library_geometries>
    <geometry id="geometry" name="link13_L">
      <mesh>
        <source id="positions">
          <float_array id="positions_array" count="111">0.00264303666 0.0165330395 -0.0145477019 -0.00321112666 0.0164757743 -0.0146168675 0.00325235748 0.0167698637 -0.00729701808 -0.00255718525 0.0165824182 7.72544299e-05 0.00312276743 0.0164724942 0.00014043205 0.0055205198 0.0158207677 -0.0136654815 -0.0094333319 0.0135977939 0.000268734177 -0.0122279413 0.0110321958 -0.0147260297 -0.0122163622 0.0110495407 0.000311538315 0.00877782889 0.0146519532 -0.00270490977 0.00238165492 0.0146166934 0.000930422626 0.0025298039 0.0146532282 -0.015321942 -0.00684885727 0.0153563945 -0.000182892458 0.0127791846 0.0113119986 -0.00266037695 0.0238752179 -0.00152279472 -0.00155954342 0.0249284692 -0.00138588727 -0.0119706076 0.0239481218 -0.00310706021 -0.013225521 0.0100722956 0.0135106258 -0.0121692913 -0.00328899804 -0.00182035216 -0.0153506584 0.0226926915 0.00206157938 -0.00365360337 0.0217037555 0.00317107351 -0.010486491 -0.00750703737 0.0150545472 -0.0143416179 0.023958629 -0.0104015423 0.000141006443 0.0254601333 -0.00121252611 -0.00401298748 0.0239243098 -0.01062393 -0.0145742763 0.0220582318 -0.0134826945 -0.0144892661 0.00143600884 -0.00808540639 -0.00252508791 0.0221917704 -0.0134215448 0.000107546068 -0.00377220125 -0.00280830031 0.000515177147 -0.00994977821 0.00403797161 -0.0147935683 -0.00286245416 -0.00212927232 0.000937932171 -0.00371599686 -0.00287274178 -0.0148969321 -0.0102134375 0.00444874633 0.000396295305 0.0174614359 -0.0136927487 -0.00170660217 0.0160056651 -0.0135779753 -0.012008111 0.00165669154 -0.00832511298 -0.0115805166 0.0132731767 -0.0129503831 -0.00355778169</float_array>
          <technique_common>
            <accessor source="#positions_array" count="37" stride="3">
              <param name="X" type="float" />
              <param name="Y" type="float" />
              <param name="Z" type="float" />
            </accessor>
          </technique_common>
        </source>
        <source id="normals">
          <float_array id="normals_array" count="198">0.102720514 0.99386102 -0.0410939343 -0.172019348 0.985072911 -0.00638242252 0.166973889 0.98596108 -0.00066242239 -0.138732865 0.990293443 0.00849057641 0.148185223 0.988063633 0.0420876555 0.345158547 0.93765837 -0.0407716669 -0.625284374 0.780394077 0.00211260607 -0.652582824 0.757675052 -0.0080144424 -0.675315499 0.737528861 -0.000330741022 0.487258583 0.873255968 -0.00176240574 -0.0715862215 0.270763606 0.959980428 0.0882537439 0.205273181 0.974717498 0.219511285 0.376053482 0.900221407 0.127550155 0.220708504 -0.966963649 -0.0717789978 0.183386952 -0.980416775 0.188010022 0.360287905 -0.913698435 -0.194565892 0.50230366 0.842517138 -0.0744746625 0.133225739 0.988283575 0.47852689 0.489149451 0.72920835 0.503805935 0.611705422 0.60991478 0.588205457 0.295006305 0.752984464 0.363738358 0.324256986 -0.87324214 0.650890052 0.483824283 -0.585026681 0.474209338 0.207650885 -0.855573833 0.577570438 0.722057819 -0.380847633 -0.129831761 -0.168760359 -0.977068901 -0.0676311702 0.0526137352 -0.996322155 0.697376728 0.645757854 0.310905844 0.701922953 0.668605506 -0.245501071 -0.148987278 0.265883297 -0.952422619 -0.0565414503 0.0280624758 0.998005807 0.0800317228 0.0375933126 0.99608314 0.828028142 0.112965107 0.549188793 0.815406263 0.48717168 0.312692165 0.64739579 0.760332882 -0.0526548214 0.100403398 0.0326106809 -0.994412243 -0.0647691339 -0.200432777 -0.977564156 -0.478600532 -0.812574446 0.332662463 -0.0555864796 -0.185962275 0.980983257 -0.229374126 -0.353706568 0.906796098 -0.114528984 -0.0358091891 -0.992774308 -0.10902717 -0.177085787 0.978137851 -0.220414922 -0.382364243 -0.897337675 0.93127197 -0.364008367 -0.0151787894 0.990478635 -0.135715351 -0.0230967496 0.931697905 -0.363219023 0.0033163242 -0.0935039818 -0.0225326903 0.995363891 0.993866444 -0.0898685977 -0.0644443184 0.859510601 -0.511101961 0.00403682608 0.83730185 -0.546714485 -0.00536965718 -0.159555823 -0.908109784 0.387141526 0.024052646 -0.999680459 -0.0077779321 0.0558349006 -0.998433292 0.0036719495 -0.485813826 0.87406075 -0.00167115859 -0.422574699 0.906328022 0.000321567728 -0.731598139 -0.681732595 0.0022144462 -0.86355114 -0.504251838 -0.00308732851 -0.729780257 -0.683681726 0.000197277754 -0.269095778 -0.679515541 -0.682529151 -0.26914683 -0.680006146 -0.682020307 -0.566629529 -0.823969424 -0.00231909263 -0.140652657 -0.989866614 -0.0195160154 -0.302103937 -0.939727187 0.160143897 -0.87248981 -0.488629371 0.0016917031 -0.952521086 -0.304420441 -0.00563921407 -0.95691967 -0.290350854 0.00107175263</float_array>
          <technique_common>
            <accessor source="#normals_array" count="66" stride="3">
              <param name="X" type="float" />
              <param name="Y" type="float" />
              <param name="Z" type="float" />
            </accessor>
          </technique_common>
        </source>
        <vertices id="vertices">
          <input semantic="POSITION" source="#positions" />
        </vertices>
        <triangles material="scout_1a1a1a" count="70">
          <input semantic="VERTEX" source="#vertices" offset="0" />
          <input semantic="NORMAL" source="#normals" offset="1" />
          <p>0 0 1 1 2 2 1 1 3 3 2 2 3 3 4 4 2 2 5 5 0 0 2 2 6 6 7 7 8 8 9 9 2 2 4 4 3 10 10 11 4 12 9 9 5 5 2 2 11 13 1 14 0 15 3 10 12 16 6 17 13 18 9 19 4 12 10 11 14 20 4 12 14 20 13 18 4 12 5 21 15 22 0 15 15 22 16 23 0 15 16 23 11 13 0 15 17 24 15 22 5 21 9 9 17 24 5 5 18 25 7 26 11 13 7 26 1 14 11 13 10 11 3 10 6 17 14 20 19 27 13 18 9 9 20 28 17 24 7 26 21 29 1 14 6 17 8 30 10 11 14 20 10 11 22 31 22 32 23 33 14 20 23 33 19 27 14 20 20 28 9 9 13 34 15 22 24 35 16 23 20 28 15 22 17 24 25 36 18 25 11 13 26 37 27 38 28 39 29 40 7 26 18 25 30 41 10 11 8 30 11 13 16 23 24 35 19 27 23 33 20 28 23 33 15 22 20 28 31 42 29 40 18 25 24 43 23 44 22 45 32 46 30 41 8 30 27 38 10 11 30 41 15 47 23 44 24 43 22 45 27 48 24 43 27 48 25 49 24 43 32 46 28 39 30 41 33 50 25 51 27 52 22 31 10 11 27 38 25 36 31 42 18 25 3 3 21 53 12 54 28 55 29 56 31 57 27 38 30 41 28 39 34 58 35 59 25 36 35 59 31 42 25 36 35 60 34 61 36 62 26 37 33 50 27 38 26 37 36 62 33 50 31 57 35 60 28 55 35 60 26 37 28 55 6 6 21 53 7 7 32 63 7 64 29 56 36 62 26 37 35 60 21 53 6 6 12 54 7 64 32 63 8 65 19 27 20 28 13 34 33 50 34 61 25 51 3 3 1 1 21 53 28 55 32 63 29 56 24 35 25 36 11 13 34 61 33 50 36 62</p>
        </triangles>
      </mesh>
    </geometry>
  </library_geometries>
  <library_visual_scenes>
    <visual_scene id="scene">
      <node id="link13_L">
        <instance_geometry url="#geometry">
          <bind_material>
            <technique_common>
              <instance_material symbol="scout_1a1a1a" target="#scout_1a1a1a" />
            </technique_common>
          </bind_material>
        </instance_geometry>
      </node>
    </visual_scene>
  </library_visual_scenes>
  <scene>
    <instance_visual_scene url="#scene" />
  </scene>
</COLLADA>