<?xml version='1.0' encoding='utf-8'?>
<COLLADA xmlns="http://www.collada.org/2005/11/COLLADASchema" version="1.4.1">
  <asset>
    <created>2026-09-14T00:00:00Z</created>
    <modified>2026-09-14T00:00:00Z</modified>
    <unit name="metre" meter="1" />
    <up_axis>Z_UP</up_axis>
  </asset>
  <library_effects>
    <effect id="scout_1a1a1a_effect">
      <profile_COMMON>
        <technique sid="common">
          <lambert>
            <emission>
              <color>0 0 0 1</color>
            </emission>
            <ambient>
              <color>0.05 0.05 0.05 1</color>
            </ambient>
            <diffuse>
              <color>0.1 0.1 0.1 1</color>
            </diffuse>
          </lambert>
        </technique>
      </profile_COMMON>
    </effect>
  </library_effects>
  <library_materials>
    <material id="scout_1a1a1a" name="scout_1a1a1a">
      <instance_effect url="#scout_1a1a1a_effect" />
    </material>
  </library_materials>
  <library_geometries>
    <geometry id="geometry" name="pelvis">
      <mesh>
        <source id="positions">
          <float_array id="positions_array" count="516">-0.0642857403 -0.0992791802 -0.0296855625 -0.0691670179 -0.108156502 -0.0542447604 -0.0601681545 -0.121630415 -0.0380888954 -0.020771971 -0.150274411 -0.0455656089 0.021473743 -0.150137842 -0.0453135036 0.0127343638 -0.140225202 -0.039663706 0.0460617803 -0.0834592059 -0.0127964327 0.0589901842 -0.0883903652 -0.0197999477 0.0469283909 -0.0646744519 -0.0058171358 -0.0673390254 0.11268127 -0.0749820769 -0.0671353787 -0.113529213 -0.0745349154 -0.0538652427 -0.0754368231 -0.0775979385 -0.0470555276 -0.105590805 -0.0783236101 -0.0458246805 -0.123682804 -0.0761375427 -0.0478675775 -0.0917044878 -0.0176702738 -0.051041346 -0.107829764 -0.0292212274 -0.0433580689 -0.115660958 -0.0220081508 -0.0489137135 -0.0673708618 -0.00683069183 -0.0512783341 0.0524707511 -0.0761002675 -0.0396819711 -0.0393804386 -0.0764358416 -0.0479555167 -0.0536553711 -0.0851814672 -0.0455222838 -0.0566559918 -0.0781826377 0.0672160536 0.115757555 -0.0502640121 0.0571581163 0.130488306 -0.074448064 0.0427248739 0.142729819 -0.0470908843 0.0220336467 0.050572142 -0.00162795186 0.0416868329 0.0348081142 -0.00161232706 0.0461276695 0.0633955225 -0.00534564862 -0.0515292548 -0.136105224 -0.0474217311 -0.0371386744 -0.144931719 -0.0745305121 -0.0361264907 -0.12777403 -0.0381917432 -0.0258522164 -0.12605086 -0.0764999464 -0.000222223316 -0.144400403 -0.0772531256 -0.0255936477 -0.133278266 -0.0226737391 -0.0154547011 -0.128220424 -0.0106230183 -0.0331351236 -0.116782323 -0.0108034378 -0.0427925996 -0.0973854661 -0.00974930171 -0.0429507606 -0.0756139681 -0.00975384377 -0.0415991656 -0.0671468973 -0.0765164793 -0.0160863344 -0.043357674 -0.0765299648 -0.0317452438 -0.0441287719 -0.0777063295 -0.0370222107 -0.0415110551 -0.0851246342 -0.0197129529 -0.0517992452 -0.0018565706 -0.0420001224 -0.034704946 -0.0018023022 0.0557314046 -0.134133786 -0.056116119 0.0512752049 -0.134302571 -0.0433464423 -0.0167062525 -0.139146581 -0.0397627838 -0.00400158158 -0.0312921777 -0.0768669099 0.00271883467 -0.153370678 -0.0721890405 0.00408265507 -0.135250613 -0.0164320022 0.00639023911 -0.141221687 -0.0242912658 -0.0509558246 -0.0140035311 0.00527764251 -0.0606088005 -0.0108630667 0.00405285321 -0.0533644557 -0.0115009816 0.00124137232 -0.0230329223 -0.0487748981 0.00526413321 -0.0414571874 -0.0316057429 0.00518917851 0.0560788214 -0.130680576 -0.07516893 0.0683487803 -0.111925364 -0.0546362326 -0.0426394418 0.0197447222 0.00400110567 -0.0162491966 -0.0378979146 0.00268543768 -0.0333723165 -0.0177308656 0.00543248374 0.00471111527 -0.035536591 0.00793545227 0.0170236081 -0.0512821339 0.00533843227 0.0088270884 -0.0413466655 0.0030394888 0.0489962064 0.103924111 -0.0786869973 0.0486799143 0.116984561 -0.0767386854 0.0509739704 0.0538476966 -0.0760071203 -0.0576406159 0.0869616196 -0.0762285292 -0.0452178605 0.11113397 -0.078714624 -0.0438097492 0.0662334561 -0.077538237 -0.0517531894 0.100320391 -0.0240552519 -0.0649520978 0.103655174 -0.0308970995 -0.0481644832 0.0665071234 -0.0064731976 -0.0439180881 0.0776640698 -0.00975186285 -0.04228618 0.125220761 -0.0761575699 -0.0605302751 0.121026613 -0.0377064981 -0.0376225933 0.126932099 -0.0382452682 -0.0534892865 0.135103777 -0.0482106097 -0.0474018566 0.137966543 -0.0746817663 -0.0396851227 0.0396238714 -0.0765110925 -0.0490056314 0.0514434129 -0.0845684335 -0.0370206945 0.0409688465 -0.0848962367 -0.0298468452 0.0467342176 -0.0777404532 -0.043880228 0.0566611588 -0.0797100067 -0.0423389561 0.112353086 -0.0177915897 -0.0454936773 0.0917348787 -0.075758405 -0.0384689942 0.125282258 -0.024202954 -0.0375895388 0.111048736 -0.00958631374 -0.0273498464 0.126657248 -0.016784586 -0.00911323819 0.151515082 -0.0445949286 -0.0326913036 0.147571921 -0.0514188111 -0.0205949266 0.150243655 -0.0736393929 -0.0190728176 0.135740772 -0.0782760158 -0.0126427282 0.132362723 -0.0759871155 -0.0143353157 0.130129367 -0.00959245767 -0.00416489039 0.153591096 -0.0502719097 -0.00755221723 0.141920924 -0.0403727442 -0.0142104933 0.139280424 -0.0249186363 -0.0073257871 0.134555697 -0.0163530447 0.00841830764 0.0370657444 -0.079264164 -0.00339977606 0.029687535 -0.0763222724 0.0670386106 0.110190496 -0.0752099827 0.023486834 0.150400713 -0.0744083375 0.0108684981 0.141249135 -0.0779652148 -0.0529440418 0.0128699234 0.00444461685 -0.035454262 0.0407184623 0.00515773892 -0.0416331924 0.0348531827 -0.0012746416 -0.0143332938 0.0496801026 0.00516013848 -0.0330215506 0.0182769485 0.005329384 -0.0550379902 -0.131499782 -0.0751887709 -0.016880976 0.0521620028 -0.00187471753 -0.0116532547 0.033019688 0.00684779696 0.0110848481 0.0395625271 0.00304304529 0.0213667266 0.0299059059 0.00777912559 0.0210044943 0.0506453924 0.00544255227 0.0228653084 -0.126001686 -0.00963255949 0.0267117638 -0.127628461 -0.0174203068 0.0323795937 -0.0442918204 -0.0791739747 0.0293182172 -0.0507352464 -0.0759505779 0.0330873169 -0.146293685 -0.0730162263 0.0282141361 -0.131073549 -0.0794670805 0.0359437838 -0.131974548 -0.0759115741 0.0371247455 -0.127433077 -0.038320601 0.0385967903 -0.125073373 -0.024217844 0.0126424097 -0.132360965 -0.0759862587 0.0444216095 -0.102276154 -0.0756840929 0.0477482565 -0.105876215 -0.0792758688 0.056099657 -0.100685485 -0.0759455264 0.0425449312 -0.111360379 -0.0179003049 0.0401789024 -0.105655059 -0.00955476705 0.0438434668 -0.0576732382 -0.0796005875 0.0405092649 -0.0370299183 -0.000972607697 0.0369853079 -0.0407292135 -0.0848942101 0.049333401 -0.0518386252 -0.0845332369 0.0502518937 -0.0521087833 -0.0759045631 0.0378751718 -0.0394522212 -0.0758310333 0.0175399724 -0.0518729575 -0.00145597721 0.0643179491 -0.110112175 -0.0330705382 0.0671955347 -0.108519077 -0.0750018358 0.0366906896 -0.0220638793 0.00281889597 0.0486647412 -0.0250495188 0.00352969719 0.0346029513 -0.0087674344 0.00692858407 0.052906286 -0.0113169281 0.00477417186 0.0214638468 0.046692349 -0.0764213279 0.0131483339 0.138613954 -0.0227960199 0.0179880802 0.127486989 -0.0114039183 0.0292450842 0.133640587 -0.0391690731 0.032056421 0.0454655588 -0.0783535242 0.0229019877 0.127068296 -0.0762056783 0.0336861163 0.116241753 -0.00951061212 0.0424755216 0.108684249 -0.0166295916 0.0290097799 0.130689248 -0.022615511 0.0587167144 0.122148991 -0.0378688537 0.0396988504 0.0392957479 -0.0763110891 0.037388768 0.0406301245 -0.0849642456 0.0472428799 0.0540520474 -0.0850854367 0.0448117256 0.0578334443 -0.0784050599 0.0415782966 0.0671678782 -0.0764966905 0.0588116832 0.0880257115 -0.0194960441 0.0453405268 0.0821722075 -0.0107468311 0.0478661656 0.0923062861 -0.0179686714 0.0510789566 0.107899837 -0.0293628946 0.042699866 0.117376782 -0.0225050002 0.0661668479 0.103993073 -0.035113398 0.0317197591 0.0273762383 0.00301138638 0.0464274213 0.0276953094 0.00484923273 0.0492633134 0.0104474537 0.00542623363 0.0529280715 0.0100317905 0.000542579684 0.0605773218 0.010835899 0.00383988651 0.0606537648 -0.0109938979 0.00430836994 -0.0683845356 0.113126606 -0.0557193421 -0.0606484227 0.0109769711 0.00421213359</float_array>
          <technique_common>
            <accessor source="#positions_array" count="172" stride="3">
              <param name="X" type="float" />
              <param name="Y" type="float" />
              <param name="Z" type="float" />
            </accessor>
          </technique_common>
        </source>
        <source id="normals">
          <float_array id="normals_array" count="957">-0.951945603 -0.0744575933 0.29707858 -0.970636368 -0.228311256 0.0757566094 -0.889563322 -0.434737176 0.140287906 -0.107500181 -0.457765192 0.88255012 0.0967544466 -0.424368382 0.90030551 0.0537892953 -0.45294109 0.889916301 0.204597041 -0.220751256 0.953629375 0.771674037 -0.140954018 0.620202541 0.407811135 -0.174800292 0.896177948 -0.946652412 0.31346789 -0.0747465491 -0.943751454 -0.329832047 -0.0233230665 -0.670268476 -0.13380149 -0.729957044 -0.369532228 -0.402607769 0.837468147 -0.422417372 -0.385592967 0.820293665 -0.199104697 -0.492049158 0.847493351 0.0566412732 -0.565952182 0.822490036 -0.839384198 -0.171530902 0.515762866 -0.810317993 -0.404426396 0.424056649 -0.741552889 -0.513387203 0.4318946 -0.463459998 -0.18420212 0.86676085 -0.219161853 -0.00699156662 0.975663483 -0.874638677 0.253932178 0.412947476 0.928636312 0.354193479 0.110370271 0.738553524 0.673444629 -0.0317966454 0.424845666 0.801641166 0.420568109 0.0319046825 0.222547546 0.974399626 0.0914345309 0.114972882 0.989151657 0.402534723 0.143558159 0.904077888 -0.219114453 -0.975266755 0.0290448945 -0.69144994 -0.721925974 0.0268315692 -0.419029683 -0.907843173 -0.0153281949 -0.338157594 -0.644171655 0.686070144 -0.105699271 -0.394848585 0.912645757 0.311398536 0.39956063 0.862196147 -0.643128097 -0.75308603 0.138735846 -0.457201153 -0.80137229 0.385706604 -0.266923845 -0.765827775 0.585029483 -0.504537642 -0.773848355 0.382884532 -0.773652494 -0.301972657 0.55702275 -0.88544023 -0.316600025 0.340235263 -0.843943179 -0.00601907168 0.536398828 0.0578770638 0.00807539374 -0.998291075 0.0822627991 -0.0414716713 -0.995747447 0.0495103523 0.0212885886 -0.99854672 0.0228791907 -0.0407970399 -0.99890548 -0.0367032029 -0.283889085 0.95815438 0.0354050696 -0.0595121868 -0.997599483 0.0186310597 -0.0295598395 -0.99938935 0.550699294 -0.582925379 -0.5974347 0.621729195 -0.586755455 -0.518816769 0.57800597 -0.585126996 -0.568801761 -0.69118619 0.623968899 -0.364588112 0.505957127 0.860726953 -0.0561824478 -0.0315648876 -0.253137171 0.966915309 -0.456504881 -0.0402011685 0.888812244 0.700380325 -0.711304724 0.0592708439 0.64201957 -0.736125112 0.214314446 0.246611238 -0.967543244 0.0551630557 -0.0913214311 -0.434010834 0.896267235 0.00611099973 0.020533273 -0.999770522 0.0289251283 -0.484196186 -0.874481201 -0.0622172095 -0.139854804 -0.988215387 -0.00453990046 -0.404968917 -0.914319158 0.0304649118 -0.752265036 0.658155859 0.11031007 -0.942047298 0.316825837 -0.235562027 -0.882670581 -0.406697929 -0.615995586 -0.781777561 0.0968155414 -0.773638427 -0.555993676 0.303898931 -0.730596602 -0.616122901 0.294314861 -0.857202232 -0.463695228 0.224033713 -0.855672598 -0.460356742 0.236423373 0.753550589 -0.646664858 -0.118262552 0.962916255 -0.2636334 0.0573563688 -0.00169860909 -0.0185241811 0.999826968 -0.000726853497 0.0243693851 0.999702752 0.0578044876 0.00296699046 0.9983235 -0.607653975 -0.792414963 0.0532457717 -0.0344763175 -0.0460159406 0.998345613 0.0822808817 0.18256709 0.979744434 -0.0306707881 -0.030975353 0.999049485 0.0278928746 -0.370833039 0.928280592 0.269384623 -0.949129879 0.163047373 -0.0587913468 -0.928399444 0.366903275 -0.0538013354 -0.938113511 0.342123389 -0.0284063928 0.201326311 0.979112267 -0.0502498783 0.174552843 0.983364761 0.166768819 -0.563605428 0.809034705 0.0131935626 -0.999749184 0.0180982016 0.996548712 0.0353388377 -0.0751119107 -0.111922465 -0.0118973441 -0.993645728 -0.139133438 -0.0302962046 -0.989810109 0.12474329 0.131054267 -0.983495772 -0.511953413 0.390866011 0.764936209 -0.334665507 0.413096845 0.846965134 -0.464523882 0.169129029 0.869260013 -0.243610114 0.267844856 0.932155192 -0.149016246 0.124514841 -0.980963945 -0.358231664 0.134325773 -0.923919201 -0.65665561 0.264843047 -0.706159711 -0.197323412 0.516614795 0.833170235 -0.0760684088 0.366370738 0.927354336 -0.729979813 0.68329823 -0.0152641879 -0.61376524 0.784258425 -0.0907242224 -0.666927159 -0.699997962 -0.255364597 -0.711382926 -0.680559158 -0.175424039 -0.629630923 -0.710590899 -0.314046949 0.589526534 -0.80565697 0.0580974333 0.352050036 0.428846687 -0.831956267 0.319122255 0.305550605 -0.897106349 0.404133409 0.441428721 -0.801134706 0.10012088 0.113612637 -0.988467515 -0.739096403 -0.663200915 -0.117902465 -0.233928084 -0.0391253792 -0.971466362 -0.401424885 -0.0774415433 -0.91261214 -0.179066062 -0.0256970748 -0.983501375 -0.755858302 0.402562588 0.516354203 0.939836442 0.0383677855 0.339463323 -0.683375657 0.655142903 0.322157592 -0.737603307 0.423563063 0.525866628 -0.467735678 0.687542558 0.555435479 -0.653865695 0.756176949 0.0256140456 -0.301504999 0.664655089 0.683614135 -0.0877756402 0.770681739 0.631145895 -0.36820212 0.885159612 0.284463793 -0.219181821 0.972332776 -0.0807979703 0.0323309973 0.0424748287 -0.998574257 0.0795777589 -0.194988102 -0.977572024 -0.406813502 0.85421145 0.323767811 0.025311023 0.984228671 0.175080925 -0.103142783 0.117273286 -0.987728953 -0.0302151088 0.398492217 0.916673899 -0.273622274 0.911235452 0.307864815 -0.111622013 0.992837071 0.0426038206 -0.0637013316 0.82614398 0.55984664 -0.0544649698 0.298876911 -0.952736139 -0.0183144119 0.155529529 -0.987661481 -0.000767417019 -0.105921626 -0.994374156 0.0802911073 0.0284193177 -0.996366262 0.127995387 0.133582607 -0.982737422 0.0891566426 0.218940705 -0.971656322 -0.0167878848 -0.174725741 -0.984474003 0.0033193382 0.00787691493 0.999963462 -0.805946529 0.497963101 0.320129544 0.0341027118 -0.0666747838 0.997191787 0.0110608581 0.0312853232 0.999449313 -0.106951073 0.0364726819 0.993595123 -0.739289522 -0.673140943 -0.0182281341 -0.565874457 0.802690387 -0.188346073 -0.0247911047 0.079773657 0.996504664 -0.354049593 0.834317923 0.422566473 -0.168922991 0.908692479 0.381763071 -0.20115605 0.907574356 0.368571639 0.979815185 0.193511575 -0.0501544513 0.0291270558 0.115900062 0.992833734 0.259111851 0.384703696 0.885925591 0.0332317799 0.998835921 0.0349637158 0.275798291 -0.95982939 0.0516030006 -0.281945795 -0.954112172 0.100878693 0.0149839874 -0.611828268 0.790848732 0.500913978 -0.763847947 0.40696618 0.477261841 -0.737420499 0.477945715 -0.204917192 -0.100294925 -0.97362715 -0.141700521 -0.210249335 -0.967324257 0.39042747 -0.920462191 -0.0177682582 0.102830216 -0.307679147 -0.945917249 0.295001715 -0.550647616 -0.780872107 0.362722367 -0.377750933 -0.851901829 0.251454681 -0.654930174 -0.712626874 0.132855207 -0.412394941 0.90126574 0.669420302 -0.66411829 0.332901359 0.62564522 -0.776972532 0.0698698536 -0.107664451 0.175221756 -0.978624403 -0.426230967 0.0670582205 -0.902125478 -0.247947469 0.274935305 -0.928941667 0.0529605933 -0.0611774325 -0.99672085 0.119699202 -0.413718402 0.902501643 -0.589837849 0.227878362 -0.774701715 0.471954137 -0.231116265 -0.85079056 0.21079357 -0.0231306367 -0.977256894 0.672717392 -0.443604589 0.592170775 0.817181706 -0.350647748 0.457449645 0.90540731 -0.184102193 0.382549375 -0.35325712 -0.234300241 -0.905711234 0.463580132 -0.0477433056 0.884767771 0.658825696 -0.0041003963 0.752284408 -0.483796805 -0.43336606 -0.760351539 -0.337120146 -0.402365029 -0.851147652 0.68344897 -0.723736405 -0.0954105407 -0.644984961 0.762917936 -0.0441666692 0.6819067 0.726245165 -0.0870123506 0.695514262 0.706193805 -0.132477075 0.704517543 0.68990767 -0.16638048 0.668841183 0.741856098 -0.0479686856 0.0133663248 -0.294816822 0.95546031 0.137202829 -0.478318363 0.867402375 0.145794436 -0.489483923 0.859737992 0.451790988 0.0530603342 -0.890544534 0.132821247 0.0112716947 -0.991075933 -0.0694283992 -0.0748606101 -0.994774163 0.974820554 -0.205007002 -0.0877326503 -0.566090107 0.786365449 -0.247328401 0.284509122 -0.952961922 0.104489855 -0.069007203 0.0404996425 0.996793747 0.530935585 -0.618302464 0.579490662 -0.06001148 -0.00303565618 0.998193085 0.264276803 -0.27639553 0.923993111 0.14475596 -0.0731406957 0.986760437 0.52265662 -0.587840557 0.617473543 -0.0208245236 -0.0258210711 0.99944967 -0.0641158596 0.215647981 -0.974363923 0.209455416 0.916753352 0.340134919 0.31035015 0.69076103 0.653094172 0.0984258652 0.782731414 0.614527345 0.0019730574 0.357375622 -0.93395865 0.135500073 0.507147789 0.851140916 -0.151031137 0.203249827 -0.967408478 0.274794519 -0.702091455 -0.656928897 0.0687307715 -0.277806014 -0.958175302 -0.479557306 0.0446115769 0.876375854 -0.0223625395 0.257906973 0.965910912 -0.538352132 -0.537379682 -0.649153352 0.587688625 0.799636126 -0.123305365 0.545344293 0.737136841 0.399034917 0.557400584 0.565968513 0.60744071 -0.635539412 -0.770390987 0.050866358 -0.563814163 0.458742827 -0.686781347 -0.577063084 0.540837705 -0.611958086 -0.550213158 0.397324324 -0.734437764 -0.582278192 0.598223507 -0.550527632 0.756805956 -0.573442578 -0.313701093 0.763710201 -0.57030499 -0.30248794 0.769453228 -0.567563474 -0.292939186 -0.218347996 0.0341118947 -0.975274622 -0.20355992 0.127934381 -0.970667899 0.589361668 0.775975764 -0.224754184 0.663146734 0.247559264 0.706364453 0.210441068 0.241246 0.947372615 0.00299571338 0.0613195524 -0.998113692 0.728099942 0.294463933 0.619000375 0.722219169 0.223301202 0.654626667 0.763854027 0.217382997 0.607677281 0.796596169 0.216030106 0.564593256 0.127653763 0.149360076 -0.980508089 0.136051729 0.474058956 0.869918406 0.716209114 0.5665645 0.407491267 0.50745821 0.858764112 0.0707836822 0.827575982 0.405217648 0.388479859 0.259365141 0.965739131 -0.00881031435 0.75165844 -0.57567507 -0.321881622 0.341660649 -0.0367630906 -0.93910408 -0.0753016397 -0.0199946519 -0.996960342 0.311021864 0.508877337 0.802688777 0.891343534 0.201828077 0.4059214 0.95178932 -0.191479489 0.239651114 0.0714191347 -0.0137240505 -0.997351944 -0.0606921613 -0.167622313 0.983981311 0.42713362 0.721846044 0.544513702 -0.121000402 -0.0982319266 0.987780035 0.440975249 0.131400496 0.887848377 -0.123042278 -0.0399278775 0.991597891 -0.0510147661 -0.0139058335 0.998601079 0.893352568 0.385196328 -0.231397897 0.629436612 0.767282367 0.122830488 0.642035246 0.713667154 0.280124724 0.62351495 0.777424932 0.082701765 0.642390728 0.703763783 0.303398579 -0.0512474738 0.991105795 -0.122812815 0.796830773 0.150590077 0.585135281 0.121615246 -0.000251145742 0.992577314 0.0591022 0.0216251723 0.998017669 -0.0779051483 -0.00606640568 -0.996942341 -0.0748870671 0.0293867737 -0.996758938 -0.962067902 0.08994288 0.257556975 -0.0579536073 -0.0526948087 -0.996927619 -0.0189252496 0.00347176893 -0.999814868 0.0456684381 0.0175095368 -0.998803198 -0.0779464021 -0.000952699862 -0.996957123 0.0229179077 0.0974826217 -0.994973302 0.025226593 -0.0509873517 -0.998380661 0.0519509353 -0.00190689182 -0.998647809 0.0372283384 -0.00578342192 -0.999290049 0.0294634346 0.0518119819 -0.998222113 -0.0809753314 -0.124992043 -0.988847792 -0.285154521 0.0201535448 -0.958269656 -0.614712715 0.113201983 -0.780585408 -0.451162785 0.0658718124 -0.890007317 0.00270652189 -0.0647242814 -0.997899532 -0.880715132 0.431803316 0.194645211 -0.954879999 0.293143392 0.0476567484 -0.0162918512 0.121836625 -0.992416441 -0.361324698 0.00614457717 -0.932419837 -0.0678974167 0.109066024 -0.991712928 -0.285411447 0.0340983532 -0.957798302 -0.00210924144 0.130351976 -0.991465509 0.00867784861 -0.0028723306 0.999958217 -0.00663206354 -0.0111375535 0.999915957 -0.0277258046 -0.0528661683 0.998216629 -0.0665133595 -0.0871344656 0.993973613 0.460601181 -0.0225300509 -0.887321234 0.173078358 -0.0642509386 -0.98281008 0.00316281104 -0.085222587 -0.996356905 0.653660357 -0.586239636 -0.478592932 0.501061916 -0.0159186218 -0.865265012 -0.242205963 0.00863736775 -0.970186412 -0.0195910819 -0.0679593384 -0.997495711 -0.0146653503 0.0232500155 0.999622107 -0.0205500126 0.0586283505 0.998068333 0.0457321852 -0.0288200974 0.998537898 0.00513111474 -0.00593134435 0.999969244 0.00667327736 0.0903824717 0.995884776 0.677124143 -0.143740237 -0.721693635 0.397406489 -0.0182977151 -0.917460263 0.0522903837 -0.157409608 -0.986148 0.307617843 -0.0570812263 -0.949796259 -0.0508059412 -0.194129258 -0.979659438 0.040848542 0.999155641 -0.00440631574 -0.103791498 0.0171047319 0.994452 -0.0283587538 -0.00734136766 0.999570847 0.978605449 0.097688213 0.181075588</float_array>
          <technique_common>
            <accessor source="#normals_array" count="319" stride="3">
              <param name="X" type="float" />
              <param name="Y" type="float" />
              <param name="Z" type="float" />
            </accessor>
          </technique_common>
        </source>
        <vertices id="vertices">
          <input semantic="POSITION" source="#positions" />
        </vertices>
        <triangles material="scout_1a1a1a" count="340">
          <input semantic="VERTEX" source="#vertices" offset="0" />
          <input semantic="NORMAL" source="#normals" offset="1" />
          <p>0 0 1 1 2 2 3 3 4 4 5 5 6 6 7 7 8 8 9 9 10 10 1 1 11 11 12 11 13 11 14 12 0 13 2 14 14 12 2 14 15 15 14 16 15 17 16 18 17 19 0 13 14 12 18 20 11 20 13 20 19 21 20 21 21 21 22 22 23 23 24 24 25 25 26 26 27 27 3 28 28 29 29 30 2 14 28 31 3 3 30 32 2 14 3 3 12 33 31 33 32 33 15 15 2 14 30 32 15 17 30 34 16 18 33 35 16 18 30 34 34 36 16 18 33 35 35 37 16 18 34 36 14 16 16 18 35 38 36 39 14 16 35 38 37 40 14 16 36 39 11 41 38 42 12 43 11 41 21 44 38 42 37 45 17 19 14 12 21 44 39 46 38 42 21 44 40 47 39 46 40 48 21 49 41 50 19 51 41 51 20 51 19 52 40 52 41 52 42 53 43 54 17 19 44 55 45 56 4 57 46 58 30 32 3 3 47 59 39 46 40 47 48 60 29 61 32 62 5 5 46 58 3 3 34 36 33 35 49 63 49 63 33 35 50 64 51 65 52 65 53 65 54 66 55 67 43 68 51 69 53 70 55 67 55 67 53 70 43 68 56 71 57 72 44 55 58 73 51 74 55 75 54 66 43 68 42 76 59 77 55 75 54 78 60 79 55 75 59 77 61 80 60 79 59 77 62 81 54 82 42 83 63 84 59 77 54 78 63 84 54 78 62 85 61 80 59 77 63 86 3 28 29 30 48 87 64 88 65 88 66 88 67 89 68 90 69 91 70 92 71 93 72 94 73 95 70 92 72 94 74 96 68 97 67 98 75 99 71 93 70 92 76 100 75 99 70 92 77 101 78 102 9 9 79 103 80 104 81 105 82 106 79 106 81 106 80 107 83 108 81 109 83 108 82 110 81 109 18 111 80 104 79 103 67 112 83 113 18 114 83 108 69 91 82 110 67 89 69 91 83 108 84 115 70 92 73 95 68 116 85 116 69 116 86 117 70 92 84 115 87 118 84 115 73 95 87 118 88 119 84 115 86 117 76 120 70 92 86 117 84 115 88 119 77 121 89 122 90 123 89 122 77 121 75 99 90 123 91 124 78 102 92 125 93 126 68 97 87 118 94 127 88 119 91 124 90 123 95 128 74 96 92 125 68 97 78 129 92 125 74 96 89 122 75 99 76 100 96 130 89 122 76 100 76 120 97 131 96 132 86 117 97 131 76 120 97 131 86 117 88 119 97 131 88 119 98 133 78 129 91 134 92 125 89 122 95 128 90 123 82 110 99 135 100 136 101 137 65 138 102 139 103 140 93 126 92 125 94 127 98 133 88 119 91 134 102 139 92 125 58 73 104 141 51 74 105 142 106 142 104 142 105 143 104 141 58 73 107 144 58 73 108 145 28 29 10 10 109 146 105 147 110 147 106 147 105 143 58 73 107 144 107 144 108 145 111 148 105 149 107 150 110 151 22 22 101 152 23 23 112 153 107 144 111 148 113 154 112 153 111 148 107 150 114 155 110 151 5 156 50 64 46 157 115 158 34 36 49 63 115 159 49 63 116 160 117 161 118 162 39 46 4 57 48 87 119 163 32 62 119 164 48 60 120 165 121 166 32 167 122 168 5 5 4 4 116 160 49 63 50 64 116 160 50 64 123 169 122 170 50 64 5 156 123 169 50 64 122 170 124 171 125 172 120 173 56 174 119 164 32 62 44 55 119 163 56 71 45 175 122 168 4 4 125 172 126 176 120 173 120 165 126 177 121 166 126 177 127 178 121 166 128 179 116 160 123 169 7 7 123 169 122 170 116 160 129 180 115 159 129 180 116 160 128 179 44 55 4 57 119 163 6 181 129 180 128 179 130 182 126 176 125 172 131 183 27 27 26 184 118 162 130 182 125 172 117 161 132 185 130 182 132 185 133 186 130 182 134 187 130 187 133 187 117 161 130 182 118 162 135 188 132 188 117 188 134 189 132 190 135 191 132 190 134 189 133 192 131 183 136 193 8 8 137 194 122 168 45 175 7 7 128 179 123 169 7 7 6 6 128 179 137 194 7 195 122 168 130 196 127 178 126 177 134 197 127 178 130 196 32 62 29 61 13 198 138 199 57 72 56 71 138 199 22 22 57 72 80 200 18 200 83 200 62 81 42 83 136 201 62 85 139 202 63 84 62 81 136 201 131 203 140 204 139 202 62 85 139 205 61 80 63 86 141 206 61 80 139 205 140 207 62 81 131 203 142 208 139 202 140 204 82 110 143 209 99 135 144 210 98 133 145 211 94 212 145 211 98 133 102 139 103 213 92 125 98 133 144 210 97 131 89 122 96 130 146 214 89 122 24 24 95 128 143 209 147 215 99 135 99 216 147 217 100 136 72 94 106 218 110 219 148 220 103 220 64 220 145 221 149 221 150 221 102 139 65 138 103 213 151 222 144 210 145 211 24 24 89 122 146 214 24 24 146 214 152 223 153 224 147 224 154 224 147 225 155 226 154 227 156 228 155 226 147 225 155 229 153 230 154 231 143 209 157 232 147 215 157 232 156 233 147 215 156 234 66 234 155 234 158 235 159 236 27 27 103 140 148 237 93 126 150 238 149 239 159 240 150 238 159 240 160 241 103 213 65 138 64 242 152 223 146 214 161 243 162 244 145 211 150 238 162 244 151 222 145 211 151 222 162 244 146 245 146 245 162 244 161 246 24 24 23 23 102 247 155 229 66 248 153 230 64 249 66 249 156 249 64 250 156 233 157 232 158 235 160 251 159 236 152 223 158 235 163 252 162 244 150 238 161 246 161 246 150 238 160 241 161 243 160 251 158 235 161 243 158 235 152 223 24 24 152 223 22 22 22 22 163 252 57 72 57 72 163 252 137 253 17 19 8 8 42 53 134 197 101 137 138 254 28 29 2 2 10 10 22 22 152 223 163 252 114 255 107 144 112 153 113 154 164 256 112 153 114 255 112 153 164 257 164 258 113 154 141 206 165 259 164 257 166 260 26 261 165 261 167 261 114 262 26 263 25 264 26 263 114 262 165 265 114 255 164 257 165 259 166 260 139 202 142 208 168 266 167 266 166 266 165 267 166 267 167 267 168 268 166 260 142 208 169 269 168 268 142 208 10 270 9 271 18 114 108 145 58 73 55 75 60 79 108 145 55 75 50 64 33 35 46 157 8 8 17 19 6 6 117 161 39 46 47 59 17 19 72 94 71 272 29 61 109 273 13 198 13 198 109 273 10 270 10 270 18 114 13 198 18 114 9 271 67 112 9 271 78 129 74 96 67 112 9 271 74 96 18 274 21 44 11 41 40 47 19 275 82 110 18 274 19 275 21 44 47 59 40 47 100 136 19 275 18 274 79 276 19 275 79 276 82 110 40 47 82 110 100 136 135 277 47 59 100 136 134 197 135 277 153 278 135 277 100 136 153 278 100 136 147 217 153 278 153 278 66 279 134 197 121 280 127 178 56 174 56 174 127 178 138 254 134 197 138 254 127 178 101 137 66 279 65 138 102 139 23 281 101 137 12 282 32 62 13 198 158 235 7 7 137 253 72 94 17 19 106 218 48 87 4 57 3 28 53 283 104 284 106 285 118 162 125 172 39 46 38 42 124 171 12 43 39 46 125 172 38 42 38 42 125 172 124 171 12 43 124 171 31 286 1 1 10 10 2 2 144 210 151 222 146 245 71 272 75 287 170 288 124 171 120 173 32 289 52 290 171 291 53 292 53 292 171 291 104 293 71 272 0 0 17 19 91 124 95 128 102 247 77 101 170 288 75 287 78 102 77 101 90 123 96 132 144 210 146 245 37 45 6 6 17 19 135 277 117 161 47 59 6 6 37 45 36 294 115 295 36 294 34 296 35 297 34 296 36 294 140 298 26 299 167 300 1 1 170 288 9 9 41 50 21 49 20 301 131 302 26 299 140 298 42 53 8 8 136 193 1 1 71 272 170 288 43 303 53 283 106 285 31 286 124 171 32 289 102 247 95 128 24 24 27 27 131 183 8 8 159 236 72 94 27 27 170 288 77 101 9 9 148 237 64 250 93 126 93 126 64 250 157 232 93 126 157 232 68 97 68 97 157 232 85 304 85 304 157 232 143 209 85 304 143 209 69 91 69 91 143 209 82 110 137 253 45 56 44 55 57 72 137 253 44 55 138 199 101 152 22 22 32 62 121 280 56 174 8 8 158 235 27 27 141 206 113 154 61 80 113 154 60 79 61 80 111 148 108 145 60 79 111 148 60 79 113 154 144 210 96 132 97 131 159 236 73 95 72 94 71 272 1 1 0 0 149 305 145 306 73 95 73 95 94 307 87 308 94 307 73 95 145 306 158 235 8 8 7 7 115 295 129 309 36 294 36 294 129 309 6 6 106 218 17 19 43 54 142 310 140 310 167 310 168 311 169 312 167 313 167 313 169 312 142 314 27 27 72 94 110 219 110 219 25 25 27 27 137 253 163 252 158 235 29 30 28 29 109 146 110 151 114 155 25 315 52 316 51 74 104 141 52 316 104 141 171 317 134 197 66 279 101 137 33 35 30 34 46 157 159 236 149 305 73 95 139 202 166 260 164 257 139 318 164 318 141 318</p>
        </triangles>
      </mesh>
    </geometry>
  </library_geometries>
  <library_visual_scenes>
    <visual_scene id="scene">
      <node id="pelvis">
        <instance_geometry url="#geometry">
          <bind_material>
            <technique_common>
              <instance_material symbol="scout_1a1a1a" target="#scout_1a1a1a" />
            </technique_common>
          </bind_material>
        </instance_geometry>
      </node>
    </visual_scene>
  </library_visual_scenes>
  <scene>
    <instance_visual_scene url="#scene" />
  </scene>
</COLLADA>