<?xml version='1.0' encoding='utf-8'?>
<COLLADA xmlns="http://www.collada.org/2005/11/COLLADASchema" version="1.4.1">
  <asset>
    <created>2026-09-14T00:00:00Z</created>
    <modified>2026-09-14T00:00:00Z</modified>
    <unit name="metre" meter="1" />
    <up_axis>Z_UP</up_axis>
  </asset>
  <library_effects>
    <effect id="scout_1a1a1a_effect">
      <profile_COMMON>
        <technique sid="common">
          <lambert>
            <emission>
              <color>0 0 0 1</color>
            </emission>
            <ambient>
              <color>0.05 0.05 0.05 1</color>
            </ambient>
            <diffuse>
              <color>0.1 0.1 0.1 1</color>
            </diffuse>
          </lambert>
        </technique>
      </profile_COMMON>
    </effect>
  </library_effects>
  <library_materials>
    <material id="scout_1a1a1a" name="scout_1a1a1a">
      <instance_effect url="#scout_1a1a1a_effect" />
    </material>
  </library_materials>
  <library_geometries>
    <geometry id="geometry" name="R_hand_base_link">
      <mesh>
        <source id="positions">
          <float_array id="positions_array" count="369">0.00384660927 -0.104491673 0.041949451 -0.00953836739 -0.0801797584 0.041259259 0.00359699386 -0.120658182 0.0427230448 -0.00450249668 -0.121504754 0.0426318608 -0.00936367828 -0.114518538 0.041400075 0.0118459109 -0.132952154 0.0332664326 0.00143826636 -0.139146432 0.0358782336 0.0118580619 -0.135461852 0.0101577993 -0.0208141264 -0.0706765503 0.0326277353 -0.0175218266 -0.0707970038 0.0366759039 0.00398882665 -0.0746639147 0.0395554714 -0.00990619324 -0.0708555803 0.040449135 0.00782024954 -0.12489482 0.0421228521 0.00747723365 -0.0892955512 0.039840918 0.00775605906 -0.0719991624 0.0378883779 0.00536267413 -0.0593199134 0.037404649 -0.0146352714 -0.0722865015 0.0387032852 -0.00600114744 -0.12620914 0.0416428857 -0.00957473181 -0.0565393679 0.0386118814 -0.0131725445 -0.0563402772 0.037572816 -0.00942243822 -0.121831581 0.0406273268 0.00957480073 -0.127214715 0.0412203372 0.0114082647 -0.125125393 0.0400679819 -0.0167863686 -0.0561877191 0.0357281677 0.00881965924 -2.86392385e-08 0.0246009436 0.000100756959 9.58212798e-09 0.0260420255 -0.0196927767 -0.0670922101 0.0342383571 -0.00843747333 -2.2646222e-07 0.0246763676 -0.0171663612 -4.04360947e-07 0.0197031125 0.0107624754 -0.084914647 0.0369754061 0.0206813086 -0.00777432695 0.0180853941 0.0150741963 -1.88254216e-05 0.0213864893 -0.0251243245 2.44635231e-07 0.00712090638 0.0259851757 4.57263383e-07 -0.00238361605 8.59341162e-05 2.28146853e-08 -0.0260432214 -0.0108188167 -0.122232229 0.0374328867 -0.0067514223 -0.135479853 0.0354648121 -0.00450634351 -0.137761667 0.0357021205 -0.00207002414 -0.138869524 0.0358363576 -0.0193082523 -0.0575453155 0.0337403193 0.0110859778 -0.12936978 0.0391316228 0.0137028182 -0.126559407 0.0370834619 0.0206273142 3.67174835e-07 0.016014114 -0.0223569684 -0.0699369311 0.0287494976 -0.0117608113 -0.122648247 0.0324671343 -0.0125674866 -0.124578372 0.0108216079 -0.00461202115 -0.140204251 0.000478377013 -0.00657383492 -0.138104364 0.00291230297 -0.00670837797 -0.137426794 -0.0302457865 -0.0213354267 -0.0595840476 0.0310544148 -0.0220961981 -1.38169453e-05 0.0138484119 0.0261031147 -0.00801172666 0.00868216902 -0.0226666331 -0.0713929087 0.0258585755 0.0140924687 -0.130476132 0.0306355692 0.012576744 -0.131229207 0.0350925215 0.0138779804 -0.128541484 0.0354430825 -0.0260392148 -0.00799712911 0.00888320059 0.0251242761 5.50943014e-07 0.00712087797 -0.0246875919 -0.068710722 -0.00530610932 -0.00200473983 -0.141301706 0.00410071528 0.00126566133 -0.14102371 0.0135437502 0.0144327115 -0.132015362 0.0116961608 0.0151789151 -0.126176476 0.0318180472 0.0270416327 -0.0153887756 0.00475092093 0.0274317209 -0.00801045448 3.52982369e-07 -0.0274045747 -0.0168945659 0.00172337412 0.00119433552 -0.14159283 -0.00481843436 0.026545234 -0.0271485802 0.0011137682 -0.0259850416 1.22000097e-06 -0.00238360162 -0.0274420772 -0.00807015039 -1.9658205e-06 0.027280895 -0.0156252701 -0.00354782236 -0.0271255467 -0.0174797401 -0.00417680945 -0.0122410478 -0.124945298 -0.017720161 -0.0205793083 -0.0684789047 -0.0229947921 -0.0114184376 -0.124323495 -0.0335308015 0.0117557961 -0.135681376 -0.0275422037 0.0143486988 -0.132533416 -0.00708419504 0.0144383516 -0.131354928 -0.0258901864 0.016040558 -0.127590656 0.000667352288 -0.0237295814 -0.0608730726 -0.0128000025 -0.0260387473 -0.00769501412 -0.00872225501 -0.0104128774 -0.11918094 -0.0372164659 -0.0202506091 -0.0528378449 -0.0235824082 -0.0102476273 -0.124134392 -0.0367270112 0.00131600618 -0.141085058 -0.0304237306 0.0136371572 -0.131762043 -0.0293955561 0.00596590061 -0.0745821074 -0.0370350294 0.0101224435 -0.0687711164 -0.034767516 0.00788414199 -0.0790269971 -0.0366419591 -0.0241067801 -4.32133662e-10 -0.00973977149 0.02669774 -0.00809999928 -0.00616365904 0.0241067801 -4.32133662e-10 -0.00973977149 -0.00737101957 -0.128808558 -0.0372172333 -0.00331794587 -0.140422314 -0.0303788204 -0.0103967031 -0.109735295 -0.0375992097 -0.0207352489 -0.00744615961 -0.0179319233 -0.015143496 -0.0513468273 -0.0298291072 -0.0102168033 -0.0733509436 -0.036815349 0.011395283 -0.133266345 -0.0325635821 0.00941246282 -0.129822627 -0.0365966409 -0.0206272677 7.34735806e-07 -0.0160140675 0.0256823599 -0.00915303454 -0.00994464569 0.0206273068 4.40691991e-07 -0.0160141028 0.0141331311 -0.127028912 -0.0309237055 0.0132175814 -0.128909618 -0.0322940014 0.0209107958 -0.00859244447 -0.0180225838 -0.0150398649 -8.71530574e-06 -0.0213255342 0.00870048814 -0.128810346 -0.0373532474 0.0125222793 -0.125324622 -0.0340457857 0.0138275139 -0.100643404 -0.0328084789 0.0121537056 -0.094147943 -0.0347493701 0.0149378236 -3.18350721e-05 -0.0215477236 -0.00323824398 -0.0720706061 -0.0383534394 -0.00544796558 -0.123968564 -0.038592577 -0.00879948214 -0.0668197721 -0.0369844362 -0.00847551879 1.584431e-07 -0.0247379243 0.00601303717 -0.124006122 -0.0386062302 0.00969153922 -0.0948422849 -0.0365867056 0.00673948415 -0.0598898903 -0.0353037119 0.00805768371 -9.27526742e-07 -0.0248994045 -0.0032194159 -0.0649083853 -0.0377455093 0.00665243901 -0.10716103 -0.0381562226 -0.000107451015 -0.0646590814 -0.0375110954</float_array>
          <technique_common>
            <accessor source="#positions_array" count="123" stride="3">
              <param name="X" type="float" />
              <param name="Y" type="float" />
              <param name="Z" type="float" />
            </accessor>
          </technique_common>
        </source>
        <source id="normals">
          <float_array id="normals_array" count="453">0.161684543 0.0584774427 0.985108376 -0.184010625 0.0464539267 0.981825888 0.0686833188 -0.0236026831 0.997359276 -0.152768031 -0.0819759816 0.984856248 -0.517678916 -0.0393753275 0.854668438 0.657351315 -0.716028512 0.23493059 0.276624471 -0.697032809 0.661531627 0.649141014 -0.759718239 0.0380026773 -0.873278797 -0.0649548322 0.482871622 -0.669921696 0.00324249291 0.742424667 0.213028789 0.100925051 0.971819341 -0.140684724 0.101398841 0.984848261 0.232522652 -0.124096915 0.964641452 0.429697633 0.0765719488 0.899720371 0.506928384 0.102603927 0.855859816 0.325777769 0.150384307 0.933409572 -0.479406983 0.0426915102 0.876553714 -0.345444918 -0.323946655 0.880753279 -0.0843208507 0.176532656 0.980676413 -0.358097613 0.175391778 0.917062581 -0.696818411 -0.191072375 0.691328764 0.368343771 -0.283139288 0.885525286 0.67208159 -0.0296177845 0.739884555 -0.555044353 0.164684191 0.815355659 0.32009539 0.182021365 0.929735005 0.0158979613 0.219758764 0.975424707 -0.779600859 0.0337066837 0.625369012 -0.322594076 0.241889611 0.915107906 -0.639685631 0.210326478 0.73930037 0.677995861 0.0728482679 0.731447041 0.763707757 0.107576437 0.636535704 0.57026279 0.158534318 0.806019366 -0.000531587808 0.999999762 0.000369597721 5.37193e-06 1 -8.04918727e-06 0.000227545126 1 1.62612268e-05 -0.917590082 -0.239721283 0.317115426 -0.772711754 -0.516270876 0.369297981 -0.339656234 -0.46451503 0.817838252 -0.116078585 -0.443619937 0.888665915 -0.746810138 0.122857869 0.6535905 0.580076396 -0.470820963 0.664709687 0.866269886 -0.137300372 0.480338454 0.79492563 0.176312268 0.580523193 -0.964243174 -0.0686787963 0.255965412 -0.956380785 -0.262380153 0.128422752 -0.951150179 -0.307703644 0.0251364969 -0.571658075 -0.820468605 0.00618896401 -0.821583748 -0.569662154 0.0220263842 -0.757590652 -0.580483317 -0.298488766 -0.898751616 0.0640654117 0.433752418 -0.83405602 0.169893354 0.524868429 0.939381063 0.0901954398 0.330799043 -0.985149145 -0.129765213 0.112437256 0.890212655 -0.444409221 0.100109063 0.722790778 -0.575400889 0.382736564 0.886242032 -0.321026236 0.333941907 -0.950879991 0.182846174 0.24978894 -0.945810139 0.105443113 0.307123721 0.944639623 0.185715824 0.270491362 -0.99050504 -0.117765769 -0.0709290877 -0.240229502 -0.969889581 0.0400500745 -0.573671937 -0.816843271 0.0605611019 0.17483598 -0.982225239 0.0683079138 0.892659426 -0.448956281 0.0399673618 0.977026045 -0.152500644 0.14887464 0.987241507 -0.0268816054 0.156944603 0.995753348 0.0903936028 0.0174439289 -0.997633696 -0.0146388253 0.0671764091 0.184478626 -0.982824385 -0.00488266954 0.996254981 -0.0843847767 0.018847283 -0.979694426 0.183670521 -0.0803989768 -0.995935202 0.0899549872 0.00459868088 0.978697658 0.18876712 -0.0807330385 0.991350651 -0.0367782488 -0.125981376 -0.987667978 -0.019306602 -0.15536809 -0.953371227 -0.300422966 -0.028798081 -0.916516781 -0.0487170964 -0.397018433 -0.939370453 -0.251837581 -0.232725158 0.674352765 -0.718028843 -0.172287419 0.876344442 -0.481655866 -0.00529817119 0.946644604 -0.308338821 -0.0937612131 0.978237629 -0.207483858 -0.00126459228 -0.972294033 -0.0493317693 -0.228496477 -0.940047741 0.0949475393 -0.327559412 -0.920358598 -0.0722750053 -0.384338856 -0.858141243 0.0261557829 -0.51274699 -0.896994531 -0.243668884 -0.368817449 0.246642083 -0.759573877 -0.601843119 0.893298328 -0.355429113 -0.275114894 0.268416375 0.0654787272 -0.961075008 0.567798376 0.0781554133 -0.819449067 0.389280409 0.0500681326 -0.919757545 -0.908077121 0.177851975 -0.379163027 0.972627401 0.0935941488 -0.212687686 0.910663009 0.174897403 -0.374304354 -0.420217305 -0.407956332 -0.810548604 -0.205700144 -0.548857093 -0.810211897 -0.840031981 -0.0161856804 -0.542295337 -0.764771342 0.119858943 -0.633055031 -0.690636158 0.0886738822 -0.717745543 -0.531787097 0.0296854451 -0.846357644 -0.142027691 -0.989663184 -0.019871844 -0.415585369 -0.909294963 -0.0217125174 0.631650388 -0.549473345 -0.546897471 0.453311771 -0.388666958 -0.802151144 -0.788200378 0.167898014 -0.592072964 0.921027124 0.0655422881 -0.383944273 0.788840115 0.169365048 -0.590801775 0.943381369 -0.0945464745 -0.317950487 -0.0845288858 -0.993476987 0.0765395463 -0.250454098 -0.965336919 0.0734671727 0.844155192 -0.203908503 -0.495805711 0.762370169 0.101511478 -0.639129996 -0.567932308 0.162342757 -0.806906223 0.325648785 -0.294366181 -0.898499548 0.782430291 -0.0512276255 -0.620627582 0.841473103 -0.0082658371 -0.540235817 0.703832388 0.0283264071 -0.709801137 0.560235798 0.148245737 -0.814959526 -0.0339764431 0.0420187488 -0.998538971 -0.147075534 -0.121357225 -0.98165226 -0.183391437 0.00664162077 -0.983017504 -0.315900356 -0.0553525575 -0.947176337 -0.389227808 0.110649601 -0.914471626 -0.356703848 -0.111081049 -0.927590072 -0.311743349 0.17451112 -0.934003174 0.185759962 -0.0819402486 -0.979172647 0.478712827 0.0273190588 -0.87754643 0.342710257 0.13741678 -0.929336488 0.29850319 0.159698054 -0.940952897 -0.000920793507 0.179359213 -0.983783245 -0.059406653 0.134613946 -0.989115715 0.271677226 0.0171390567 -0.962235808 0.142581433 0.119309425 -0.982565939 -0.000287762989 0.99999994 -0.000306556845 -0.00259206747 0.999992788 -0.00278072827 9.35254429e-05 1 -3.9472754e-05 0.0038126146 0.999990225 0.00223151781 0.000776338566 0.999999702 3.23172681e-05 -0.0111775575 0.999912143 0.00712112989 -0.000596290687 0.999999702 0.000425557839 -0.00141816353 0.999961972 -0.00860675145 0.00319162547 0.999975562 0.00621949369 0.00010905676 1 -1.18815678e-05 0.000371576403 0.999999583 0.000802725262 -7.35277208e-05 1 -1.6516331e-05 0.000632259529 0.999998927 -0.00130085868 0.00526025565 0.999933183 -0.010292287 -0.00170642673 0.999917567 0.0127236051 -3.0481202e-05 1 1.77284528e-05 0.00044292165 0.999999881 -0.000175319306</float_array>
          <technique_common>
            <accessor source="#normals_array" count="151" stride="3">
              <param name="X" type="float" />
              <param name="Y" type="float" />
              <param name="Z" type="float" />
            </accessor>
          </technique_common>
        </source>
        <vertices id="vertices">
          <input semantic="POSITION" source="#positions" />
        </vertices>
        <triangles material="scout_1a1a1a" count="242">
          <input semantic="VERTEX" source="#vertices" offset="0" />
          <input semantic="NORMAL" source="#normals" offset="1" />
          <p>0 0 1 1 2 2 1 1 3 3 2 2 4 4 3 3 1 1 5 5 6 6 7 7 8 8 4 4 9 9 10 10 11 11 1 1 12 12 0 0 2 2 3 3 12 12 2 2 13 13 10 10 0 0 13 13 14 14 10 10 14 14 15 15 10 10 16 16 4 4 1 1 16 16 9 9 4 4 17 17 12 12 3 3 4 4 17 17 3 3 13 13 0 0 12 12 16 16 1 1 11 11 18 18 19 19 11 11 19 19 16 16 11 11 20 20 17 17 4 4 21 21 22 22 12 12 19 19 23 23 16 16 23 23 9 9 16 16 22 22 13 13 12 12 24 24 25 25 15 15 25 25 18 18 15 15 26 26 8 8 9 9 21 21 12 12 17 17 17 17 6 6 21 21 19 19 27 27 23 23 27 27 28 28 23 23 22 22 29 29 13 13 29 29 14 14 13 13 30 30 31 31 14 14 31 31 15 15 14 14 32 32 33 33 34 34 27 27 18 18 25 25 27 27 19 19 18 18 8 8 35 35 20 20 35 35 36 36 20 20 36 36 17 17 20 20 36 36 37 37 17 17 37 37 38 38 17 17 38 38 6 6 17 17 23 23 39 39 9 9 39 39 26 26 9 9 6 6 40 40 21 21 21 21 40 40 22 22 40 40 41 41 22 22 30 30 14 14 29 29 42 42 31 31 30 30 43 43 35 35 8 8 35 35 44 44 36 36 44 44 45 45 36 36 46 46 47 47 48 48 39 39 49 49 26 26 49 49 8 8 26 26 41 41 30 30 22 22 30 30 29 29 22 22 28 28 39 39 23 23 50 50 39 39 28 28 51 51 42 42 30 30 41 41 51 51 30 30 52 52 44 44 43 43 44 44 35 35 43 43 50 50 49 49 39 39 7 7 53 53 5 5 53 53 54 54 5 5 5 5 54 54 6 6 54 54 40 40 6 6 55 55 41 41 40 40 54 54 55 55 40 40 32 56 56 57 50 50 56 57 49 49 50 50 57 58 42 42 51 51 49 49 43 43 8 8 45 45 47 47 36 36 52 52 45 45 44 44 52 52 58 59 45 45 59 60 37 61 46 46 46 46 36 36 47 47 60 62 7 7 6 6 61 63 53 53 7 7 55 55 62 64 41 41 62 64 63 65 41 41 63 65 51 51 41 41 64 66 57 58 51 51 63 65 64 66 51 51 56 57 65 67 43 43 65 67 52 52 43 43 65 67 58 59 52 52 49 49 56 57 43 43 66 68 7 7 60 62 18 18 10 10 15 15 53 53 55 55 54 54 67 69 63 65 62 64 68 70 69 71 32 56 69 71 56 57 32 56 69 71 65 67 56 57 33 72 57 58 64 66 63 65 70 73 64 66 67 69 70 73 63 65 69 71 71 74 65 67 71 74 58 59 65 67 72 75 48 48 45 45 48 48 47 47 45 45 73 76 74 77 58 59 74 77 72 75 58 59 72 75 45 45 58 59 7 7 75 78 76 79 75 78 77 80 76 79 78 81 67 69 62 64 53 53 62 64 55 55 53 53 78 81 62 64 79 82 73 76 58 59 68 70 80 83 69 71 80 83 71 74 69 71 71 74 79 82 58 59 81 84 74 77 73 76 79 82 80 83 73 76 80 83 82 85 73 76 81 84 83 86 74 77 84 87 75 78 66 68 75 78 7 7 66 68 75 78 85 88 77 80 77 80 78 81 76 79 78 81 61 63 76 79 78 81 53 53 61 63 86 89 87 90 88 91 89 92 80 83 68 70 90 93 33 72 64 66 70 73 90 93 64 66 90 93 91 94 33 72 78 81 77 80 67 69 77 80 70 73 67 69 71 74 80 83 79 82 92 95 93 96 48 48 74 77 83 86 48 48 83 86 92 95 48 48 94 97 81 84 73 76 82 85 94 97 73 76 80 83 95 98 82 85 95 98 96 99 82 85 96 99 97 100 82 85 97 100 94 97 82 85 72 75 74 77 48 48 84 101 59 60 93 102 75 78 98 103 85 88 98 103 75 78 84 87 99 104 98 103 84 87 100 105 80 83 89 92 101 106 91 94 90 93 70 73 101 106 90 93 101 106 102 107 91 94 77 80 103 108 70 73 85 88 103 108 77 80 100 105 95 98 80 83 59 60 6 109 38 110 98 103 104 111 85 88 105 112 102 107 101 106 103 108 101 106 70 73 92 95 84 87 93 96 106 113 95 98 100 105 106 113 96 99 95 98 92 95 107 114 99 104 84 87 92 95 99 104 107 114 108 115 99 104 99 104 104 111 98 103 104 111 103 108 85 88 101 106 109 116 105 112 109 116 110 117 105 112 110 117 87 90 105 112 103 108 109 116 101 106 108 115 109 116 103 108 105 112 111 118 102 107 112 119 113 120 94 121 113 120 81 122 94 121 97 100 114 123 94 121 114 123 112 119 94 121 113 120 83 124 81 122 115 125 114 123 106 113 114 123 96 99 106 113 114 123 97 100 96 99 108 115 103 108 104 111 108 115 104 111 99 104 92 95 83 124 113 120 113 120 107 114 92 95 113 120 116 126 107 114 116 126 117 127 107 114 117 127 110 117 107 114 110 117 108 115 107 114 110 117 109 116 108 115 87 90 118 128 111 118 118 128 119 129 111 118 117 127 87 90 110 117 117 127 88 91 87 90 116 126 113 120 112 119 34 130 120 131 115 125 120 131 114 123 115 125 120 131 112 119 114 123 121 132 117 127 116 126 121 132 88 91 117 127 86 89 118 128 87 90 122 133 112 119 120 131 86 89 121 132 112 119 122 133 86 89 112 119 121 132 116 126 112 119 86 89 88 91 121 132 118 128 122 133 119 129 122 133 34 130 119 129 122 133 120 131 34 130 86 89 122 133 118 128 10 10 1 1 0 0 8 8 20 20 4 4 87 90 111 118 105 112 115 134 106 135 89 136 106 135 100 137 89 136 68 138 32 32 89 136 32 32 50 139 28 140 24 141 31 142 25 143 31 142 42 144 25 143 57 145 33 33 42 144 102 146 111 147 34 34 111 147 119 148 34 34 32 32 28 140 25 143 28 140 27 149 25 143 33 33 91 150 102 146 115 134 89 136 32 32 25 143 42 144 33 33 33 33 102 146 34 34 34 34 115 134 32 32 32 32 25 143 33 33 59 60 38 110 37 61 46 46 37 61 36 36 18 18 11 11 10 10 66 68 60 62 59 60 76 79 61 63 7 7 93 102 59 60 46 46 93 102 46 46 48 48 84 101 66 68 59 60 59 60 60 62 6 109 24 24 15 15 31 31</p>
        </triangles>
      </mesh>
    </geometry>
  </library_geometries>
  <library_visual_scenes>
    <visual_scene id="scene">
      <node id="R_hand_base_link">
        <instance_geometry url="#geometry">
          <bind_material>
            <technique_common>
              <instance_material symbol="scout_1a1a1a" target="#scout_1a1a1a" />
            </technique_common>
          </bind_material>
        </instance_geometry>
      </node>
    </visual_scene>
  </library_visual_scenes>
  <scene>
    <instance_visual_scene url="#scene" />
  </scene>
</COLLADA>