<?xml version='1.0' encoding='utf-8'?>
<COLLADA xmlns="http://www.collada.org/2005/11/COLLADASchema" version="1.4.1">
  <asset>
    <created>2026-09-14T00:00:00Z</created>
    <modified>2026-09-14T00:00:00Z</modified>
    <unit name="metre" meter="1" />
    <up_axis>Z_UP</up_axis>
  </asset>
  <library_effects>
    <effect id="scout_1a1a1a_effect">
      <profile_COMMON>
        <technique sid="common">
          <lambert>
            <emission>
              <color>0 0 0 1</color>
            </emission>
            <ambient>
              <color>0.05 0.05 0.05 1</color>
            </ambient>
            <diffuse>
              <color>0.1 0.1 0.1 1</color>
            </diffuse>
          </lambert>
        </technique>
      </profile_COMMON>
    </effect>
  </library_effects>
  <library_materials>
    <material id="scout_1a1a1a" name="scout_1a1a1a">
      <instance_effect url="#scout_1a1a1a_effect" />
    </material>
  </library_materials>
  <library_geometries>
    <geometry id="geometry" name="right_elbow_roll_link">
      <mesh>
        <source id="positions">
          <float_array id="positions_array" count="219">8.02499198e-05 -0.0304198712 -0.0139958886 0.000598977786 -0.016684154 -0.0298194513 0.038616959 -0.0347790122 -0.0325653665 0.0295148771 -0.0243693609 -0.00930053648 0.0176596306 -0.0255412385 -0.00716902735 0.0337723643 -0.0251566619 -0.0204077791 0.0506637506 -0.0243833791 -0.0140904002 0.0492212437 -0.0227297749 -0.00740785198 0.0424230695 -0.0257362723 -0.0108371573 0.0589606501 -0.0294550192 -0.0229308121 0.0653435886 0.0157714169 -0.0188678801 0.0706794485 -0.026453875 0.000635303557 0.0851266682 -0.0350420885 -0.0172750931 0.0819385797 -0.0334279649 0.00140273536 0.0604857616 -0.0330708921 -0.0309699066 0.0921855494 -0.0323150568 -0.0135718612 0.0874928832 -0.0328215882 0.00175506226 0.0861452594 -0.0327812657 -0.00301858387 0.100902714 -0.0331034362 0.00478768954 0.0371292531 -0.0272515621 0.0142289074 0.0214998014 -0.0246692225 0.0108133741 0.0295191575 -0.0229884144 0.00936844572 0.034317486 -0.0251356065 0.0206079911 0.0465483032 -0.0241731703 0.0142260417 0.045792751 -0.0247750543 0.00682145264 0.0517904647 -0.0246364474 0.0124694556 0.061926432 0.0154847745 0.0223234519 0.0589088872 -0.0295807198 0.023010442 0.0612028353 -0.0328960456 0.030589683 0.0808507055 -0.0349701829 0.0195484683 0.00146344176 0.0329859965 -0.0103663839 0.0215323195 0.0356266499 -0.019869674 0.00136910751 0.0169154629 -0.0302832741 0.0365409032 -0.0346182659 0.0313366875 0.0992700011 0.0325662941 -0.00801537 0.0975899324 0.0349744707 -0.00846338179 0.0977284089 0.032846164 0.00932321511 0.0481391735 0.0290442146 -0.032094717 0.0597591288 0.0332198031 -0.0315677486 0.0700222105 0.0307467431 -0.0149006937 0.0816700608 0.0341497995 -0.0191564392 0.000130495784 0.0307991616 0.0133469915 0.0234008543 0.0359006822 0.0217643622 0.0270536002 -0.0314455405 -0.0193254501 0.0294578318 -0.0316956602 0.0194412023 0.043996498 0.0346949026 0.0341349542 0.07174474 0.0282735992 -0.000445414189 0.0625761375 0.0327193066 0.030296294 0.0636238828 0.0294145625 0.022253925 0.0712081194 0.0159999467 0.00348200509 0.0872373804 0.0329840928 0.00224728324 0.0857543722 0.0327177122 -0.00319495378 0.0823348761 0.0349774398 0.0184472799 4.1813968e-05 -0.030010622 0.0151598603 0.000601556501 -0.00871334039 0.0131217027 0.00152743212 -0.00744457589 -0.0135945212 0.00204997114 -0.0147987921 0.0316070691 0.00107413204 0.0155686373 0.0306938644 0.00104644964 0.015028581 0.0049431962 0.0816989243 0.0331775583 0.000287250761 0.059752319 0.03572952 -0.0151913865 0.00170605385 -0.0351008028 0.00129526865 0.016683666 -0.0315911397 0.0044875592 0.0576250926 -0.0177767426 -0.0277758725 0.0432340056 -0.0176732354 -0.0316607505 0.0491662994 0.0154368225 -0.0309824441 0.0351221673 0.0341224261 -0.0313386805 0.0567075238 0.0360636003 0.019114133 0.057634376 -0.0177010857 0.0267435797 0.0365886763 -0.0224362463 0.000421945064 0.0379759446 0.0355034955 2.98244254e-06 0.0437797047 0.0155250523 0.0324264728 0.0383959971 -0.0178948641 0.032195881</float_array>
          <technique_common>
            <accessor source="#positions_array" count="73" stride="3">
              <param name="X" type="float" />
              <param name="Y" type="float" />
              <param name="Z" type="float" />
            </accessor>
          </technique_common>
        </source>
        <source id="normals">
          <float_array id="normals_array" count="474">-0.297760993 -0.859106898 -0.416261554 -0.37472707 -0.694028318 -0.61473918 -0.0438661352 -0.991017759 -0.126331359 0.0475179441 -0.991298556 0.122756936 0.142471865 -0.987043798 0.0737989768 -0.000490988255 -0.999946296 0.0103493826 -0.0905196294 -0.962145805 0.257063419 -0.0223152097 -0.971592784 0.235604599 -0.00292829424 -0.998302996 0.0581597164 0.894239545 -0.0867599621 -0.439099461 0.818251014 -0.0275246967 -0.574201763 0.921489418 -0.060744442 -0.383624047 -0.0702427179 -0.994782925 0.0739787966 0.0477284864 -0.998680651 -0.0189462006 0.0205834154 -0.999762535 0.00715128379 0.481385022 -0.0584280342 -0.874559641 -0.612278938 -0.772950351 0.166319743 0.462262481 -0.849003911 -0.255941033 0.146468967 -0.98905468 -0.0178247783 0.25905779 -0.960583985 -0.100833811 0.0341458619 -0.998476624 0.0433415659 0.0292862114 -0.7282902 -0.684642792 0.00153182552 -0.943214774 -0.332179934 -0.0314366855 -0.952736139 0.30216819 0.0151451211 -0.993719399 -0.110870816 -0.014405122 -0.99976939 -0.0159251504 -0.143869177 -0.981821239 -0.123809189 0.889595568 -0.0491634011 0.454095513 0.731256962 -0.0461751334 0.680537343 0.885984421 -0.0523009039 0.460756212 0.441567093 0.591486752 0.674656928 -0.370860666 0.723609567 -0.582109571 -0.383556366 0.728917956 -0.567065418 -0.378065109 0.726650953 -0.573624551 0.0755901933 -0.946938694 0.312399119 -0.0771225616 -0.983488381 0.163715318 -0.00195616228 -0.999089301 -0.042622637 0.812974691 0.578887701 0.0629383326 0.332030356 -0.881671906 -0.335276663 0.30288592 -0.897795796 -0.31972301 0.158005878 -0.975077212 -0.155751616 0.535686553 0.222163796 -0.814667523 -0.239607811 0.967906892 0.0757912621 -0.0542864464 0.998274088 0.0224024002 -0.166400909 0.985761464 0.0241893474 0.0829290748 0.988587141 -0.125770554 -0.047180973 0.998842418 0.00937034469 -0.0493976176 0.998762429 0.0057844501 -0.365652919 0.670042694 0.646019161 -0.385027796 0.60182029 0.699689865 -0.361657351 0.682367921 0.635277867 0.953699052 -0.256235719 -0.15748471 0.960846186 -0.17285943 -0.216550723 -0.0203897525 -0.925692916 0.377725869 0.915574193 -0.0132150957 0.401931942 0.418694079 0.902100861 0.104447469 0.981848955 -0.0921418965 0.165778384 -0.224828511 0.962830663 -0.149697289 -0.286082149 0.953034103 -0.0994130969 -0.186167091 0.98251456 0.00263995724 0.512162685 0.0236560274 0.858562648 -0.999774516 -0.00717514195 0.0199871678 -0.99983263 0.0108937779 0.0146974884 -0.99966532 0.025671171 0.00319617102 -0.99983108 0.0173533224 0.00605686661 -0.996942163 8.40876746e-05 0.0781427398 -0.999594808 -0.019891087 0.0203617718 -0.998505354 0.0444193557 0.0318430029 -0.998686314 -0.0440886058 -0.0261129327 -0.999773562 -0.0100569809 -0.0187529698 -0.999692619 0.00215694937 -0.0246989578 -0.999970615 0.00602779351 0.00473802304 0.0626927391 -0.994218528 0.0871727094 0.148038432 -0.951963246 0.268049657 0.385125458 -0.743499458 0.546705544 0.00962624792 0.998276293 0.0578944348 0.0263279881 0.997721255 -0.062121693 0.0450296775 0.998620749 0.0269978866 -0.94785583 -0.318683088 0.00322360359 -0.139359698 -0.990060925 0.0189258084 -0.309490919 -0.831415772 0.461479396 -0.372988313 -0.658018351 0.654134274 0.775302052 0.531705976 0.340874642 -0.0342192762 0.00397730386 -0.999406457 0.0609783977 0.0572026633 -0.996498644 -0.0777056143 -0.0119806137 -0.996904373 0.0544514544 0.213875428 -0.975342155 0.565813303 0.00082016713 -0.824532986 0.297324032 -0.0314934105 -0.954257071 0.309719324 0.00819811691 -0.95079267 -0.0303502101 -0.0214781649 -0.999308527 -0.0443593711 0.0349345058 -0.998404622 0.56200844 -0.485130906 0.669921279 0.283171296 -0.950156689 0.130446374 0.631239712 -0.203914329 -0.748301685 0.729059994 -0.0145316897 -0.684295535 0.574513972 -0.289421767 -0.765616536 0.0453506745 0.974164486 0.221239492 0.0301721487 0.992229939 0.120703675 0.0029113912 0.999149621 -0.0411279909 0.0449320115 0.988352418 -0.145398289 0.202682614 0.972493351 0.114788674 0.0384310856 0.987731874 -0.151356548 0.016933959 0.998065293 -0.0598243549 0.113284893 0.0920368582 -0.989290535 0.566040218 0.010156923 0.824315071 0.373419881 0.191071972 -0.907771528 -0.130904406 -0.989758492 -0.0569400601 -0.268545538 -0.934507668 0.233620852 -0.100215927 -0.994922698 0.00924992189 0.108746871 0.0546422824 0.992566526 -0.0252888873 0.999221146 -0.0302911587 0.940576315 0.0654977858 0.333205938 0.737674415 -0.0555401258 0.672868311 0.980555892 0.159543797 0.114262566 0.965971947 -0.0541548021 -0.252913862 0.111526959 0.989623129 0.0905971453 0.0227507167 0.996713698 0.0777443275 0.102810815 -0.994604051 0.0138808563 -0.430048615 0.901324332 -0.0516972169 0.961267591 0.171045497 -0.216120392 0.87376982 -0.457710803 -0.164399356 0.607243896 0.00731798401 -0.794481754 0.759002805 0.0640332699 -0.64793092 0.227707967 -0.0370507464 0.973024309 0.205742508 -0.978599846 0.00351837976 -0.206474319 -0.95226413 0.224858716 0.126036569 -0.0462709889 0.990945876 -0.0283349566 0.00168042723 0.999597073 -0.040533632 0.00359156705 0.999171734 0.0805919021 0.0125580654 0.996668041 0.254745483 -0.0833527818 0.963409066 0.01202178 0.248012945 0.96868211 -0.390489876 0.731715918 -0.558667541 -0.00420213584 0.136709034 -0.990602314 -0.0140876202 -0.999889255 0.00480051897 0.0530882068 -0.998416901 0.0185833387 -0.0576487854 -0.996149361 0.0660531372 0.0308725331 -0.99934715 -0.0187643524 0.153626934 -0.932958484 -0.325556755 0.618573666 -0.0175174531 -0.785531521 -0.358501852 0.691753507 0.626860082 0.0207860321 0.99975574 -0.00751316501 -0.0218626671 0.999610364 -0.0173522625 0.0106607946 0.999625087 0.0252188127 -0.00287705893 0.9999668 -0.00762600126 0.0511253029 0.998453617 0.0218319558 0.196210727 0.972239137 0.127485007 0.395515561 0.879409194 0.264965951 -0.102385931 0.990592659 -0.0907924175 0.183615208 0.909051955 -0.374045491 0.000678704004 0.999979258 0.00640957989 0.11305315 -0.990568757 -0.0774115175 0.0935248062 0.993877113 -0.0588335916 -0.208934277 -0.928922832 -0.305694103 -0.12792784 -0.914794385 -0.38312614 -0.11292287 -0.903897285 0.412575066 -0.222734332 -0.921081185 0.319372624</float_array>
          <technique_common>
            <accessor source="#normals_array" count="158" stride="3">
              <param name="X" type="float" />
              <param name="Y" type="float" />
              <param name="Z" type="float" />
            </accessor>
          </technique_common>
        </source>
        <vertices id="vertices">
          <input semantic="POSITION" source="#positions" />
        </vertices>
        <triangles material="scout_1a1a1a" count="150">
          <input semantic="VERTEX" source="#vertices" offset="0" />
          <input semantic="NORMAL" source="#normals" offset="1" />
          <p>0 0 1 1 2 2 3 3 4 4 5 5 6 6 7 7 8 8 9 9 10 10 11 11 12 12 13 13 14 14 14 15 15 15 12 15 12 16 16 16 17 16 15 17 18 18 12 19 19 20 20 21 21 22 22 23 19 20 23 24 23 24 24 25 25 26 11 27 26 28 27 29 18 30 28 30 29 30 30 31 31 32 32 33 28 34 33 35 29 36 34 37 35 37 36 37 37 38 38 39 39 40 40 41 35 41 34 41 41 42 42 43 30 44 9 45 43 46 44 47 45 48 42 49 41 50 39 51 46 52 10 10 47 53 45 53 48 53 49 54 26 28 11 27 48 55 46 55 39 55 39 56 47 56 48 56 50 57 35 58 51 59 52 60 47 60 36 60 53 61 54 62 55 63 0 64 53 61 55 63 53 61 56 65 54 62 56 65 57 66 54 62 1 67 0 64 55 63 57 66 41 68 58 69 41 68 30 70 58 69 32 71 55 63 58 69 30 70 32 71 58 69 58 69 54 62 57 66 59 72 51 73 35 74 35 75 60 76 59 77 32 71 1 67 55 63 53 61 0 64 61 78 58 69 55 63 54 62 2 2 61 79 0 0 53 80 33 35 56 81 62 82 43 82 4 82 32 83 2 84 1 85 14 86 2 84 63 87 64 88 63 87 2 84 65 89 64 88 2 84 2 84 32 83 65 89 32 83 66 90 65 89 37 91 65 89 66 90 4 92 43 92 5 92 13 13 12 12 17 93 44 94 20 95 22 96 42 43 47 97 67 98 67 98 47 97 52 99 67 98 59 77 60 76 60 76 35 75 40 100 52 101 36 101 35 101 38 102 66 103 60 76 27 104 44 104 22 104 27 29 26 28 68 105 7 106 11 106 8 106 11 107 25 26 8 8 8 8 5 5 6 6 8 8 25 26 24 25 5 5 8 8 3 3 11 108 7 7 6 6 3 3 8 8 69 109 43 110 9 110 5 110 50 57 59 77 52 99 33 35 53 80 61 79 60 76 66 103 70 111 67 98 60 76 70 111 63 87 64 88 65 89 49 54 46 112 48 113 52 99 35 58 50 57 14 114 63 114 9 114 11 11 10 10 49 115 13 116 17 117 9 45 29 118 12 19 18 18 12 119 29 119 16 119 68 120 28 120 27 120 10 10 9 9 63 87 65 89 10 10 63 87 62 121 4 121 20 121 65 89 39 122 10 10 44 94 62 123 20 95 26 28 71 124 68 105 3 3 69 109 4 4 24 25 23 24 19 20 4 4 69 109 21 22 20 125 4 4 21 22 69 109 19 20 21 22 22 23 20 126 19 20 71 124 72 127 68 105 56 128 71 124 57 129 56 128 33 130 72 127 45 131 57 129 71 124 56 128 72 127 71 124 28 132 68 105 33 130 68 105 72 127 33 130 19 20 69 109 24 25 8 8 24 25 69 109 32 33 31 32 66 133 66 90 38 134 37 91 29 36 33 35 13 13 2 2 33 35 61 79 33 35 2 2 14 14 13 13 33 35 14 14 36 135 47 136 59 72 50 137 36 135 59 72 36 135 50 137 51 73 47 136 39 40 59 72 34 138 36 135 51 73 40 139 34 138 39 40 38 39 40 139 39 40 39 40 34 138 51 73 39 40 51 73 59 72 37 140 39 122 65 89 45 48 41 50 57 141 60 76 40 100 38 102 30 44 42 43 31 142 28 143 18 144 16 145 16 145 18 144 17 117 15 146 17 117 18 144 9 45 17 117 15 146 27 147 28 148 13 116 16 145 13 149 28 143 27 147 13 116 9 45 44 47 27 147 9 45 15 146 14 150 9 45 62 151 44 47 43 46 66 103 42 43 70 111 70 111 42 43 67 98 16 152 29 36 13 13 42 43 66 103 31 142 26 28 48 113 45 131 46 52 49 115 10 10 71 124 26 28 45 131 42 43 45 153 47 97 23 24 25 26 27 154 22 155 23 24 27 154 27 154 25 26 11 107 5 156 9 157 6 6 9 157 11 108 6 6 49 54 48 113 26 28 59 77 67 98 52 99</p>
        </triangles>
      </mesh>
    </geometry>
  </library_geometries>
  <library_visual_scenes>
    <visual_scene id="scene">
      <node id="right_elbow_roll_link">
        <instance_geometry url="#geometry">
          <bind_material>
            <technique_common>
              <instance_material symbol="scout_1a1a1a" target="#scout_1a1a1a" />
            </technique_common>
          </bind_material>
        </instance_geometry>
      </node>
    </visual_scene>
  </library_visual_scenes>
  <scene>
    <instance_visual_scene url="#scene" />
  </scene>
</COLLADA>