<?xml version='1.0' encoding='utf-8'?>
<COLLADA xmlns="http://www.collada.org/2005/11/COLLADASchema" version="1.4.1">
  <asset>
    <created>2026-09-14T00:00:00Z</created>
    <modified>2026-09-14T00:00:00Z</modified>
    <unit name="metre" meter="1" />
    <up_axis>Z_UP</up_axis>
  </asset>
  <library_effects>
    <effect id="scout_1a1a1a_effect">
      <profile_COMMON>
        <technique sid="common">
          <lambert>
            <emission>
              <color>0 0 0 1</color>
            </emission>
            <ambient>
              <color>0.05 0.05 0.05 1</color>
            </ambient>
            <diffuse>
              <color>0.1 0.1 0.1 1</color>
            </diffuse>
          </lambert>
        </technique>
      </profile_COMMON>
    </effect>
  </library_effects>
  <library_materials>
    <material id="scout_1a1a1a" name="scout_1a1a1a">
      <instance_effect url="#scout_1a1a1a_effect" />
    </material>
  </library_materials>
  <library_geometries>
    <geometry id="geometry" name="right_shoulder_yaw_link">
      <mesh>
        <source id="positions">
          <float_array id="positions_array" count="597">-0.0394184999 -0.016391404 -0.187735602 -0.037570145 -0.0102250567 -0.190827042 -0.0340551771 -0.0199424289 -0.187872007 -0.0382389687 -0.0172367357 -0.167632401 -0.0318119526 -0.0198862944 -0.171956703 -0.0332378522 -0.0284435954 -0.18854183 -0.0319141448 -0.0274099652 -0.174274758 -0.0259702783 -0.028734142 -0.179000184 -0.0313838497 -0.0162993763 -0.208575249 -0.0393218882 -0.00736759463 -0.130478412 -0.0307449419 -0.0172508582 -0.133085325 -0.033378318 -0.016898239 -0.0786005706 -0.0271716751 -0.019043142 -0.102792926 -0.0392295942 -0.00728053739 -0.0680452362 -0.0358105302 -0.00997558702 -0.200780362 -0.0345964767 -0.0202347394 -0.0334630869 -0.00776687963 -0.0361951664 -0.0430526547 -0.0241974033 -0.0314387791 -0.0333828107 -0.0258609876 -0.024157526 -0.0723807365 -0.010837594 -0.0379829742 -0.0258030742 -0.0173473097 -0.0358838066 -0.000685398409 -0.028240284 -0.0285499915 -0.000601387175 -0.0270353239 -0.0209526382 -0.198477343 -0.0277398415 -0.0193942692 -0.20497638 -0.0265344717 -0.027799746 -0.202785358 -0.0160918161 -0.0197073761 -0.215363503 -0.0222844668 -0.0246860385 -0.203366265 -0.0219947901 -0.0291421451 -0.209787607 -0.0169383269 -0.0172504019 -0.22173287 -0.0138944127 -0.0293604676 -0.200588048 -0.0153385885 -0.0152227888 -0.213909924 -0.0149479071 -0.0279644169 -0.214648575 -0.0292011611 -0.0279868376 -0.186478183 -0.0177119821 -0.0318242833 -0.1872022 -0.0116844159 -0.0299979579 -0.162286192 -0.0268546883 -0.0194071345 -0.158329412 -0.0261582267 -0.027665088 -0.160357788 -0.0224153921 -0.0289490782 -0.154662088 -0.0137412241 -0.0279205032 -0.15482454 -0.0146785872 -0.0177551359 -0.146442443 -0.0129377265 -0.0287313722 -0.1489131 -0.0160439108 -0.0135534406 -0.217457369 0.00561810797 -0.0318878368 -0.20586583 -0.0392819755 0.0167114995 -0.074967809 -0.0358298495 0.0245415345 -0.0703258291 -0.0332359485 0.00787776709 -0.0721768588 -0.00493348157 -0.0398814417 -0.00139104342 0.00866080541 -0.0380768329 -0.0297194719 -0.00464551942 -0.0195636787 -0.219300732 -0.00118179305 -0.0258398335 -0.220829293 0.000581658736 -0.0143395718 -0.221185416 -0.00505527155 -0.0172087606 -0.226698011 0.00126152555 -0.018497128 -0.223919854 0.0104661491 -0.0294806231 -0.210843608 0.00162486651 -0.0284924973 -0.214317262 -0.00913811661 -0.0206496138 -0.148176104 -0.00216038269 -0.0185699314 -0.142091408 0.00149300718 -0.0273972806 -0.143016547 -0.00336373062 -0.0289746709 -0.144892678 0.0440302119 -0.0170654617 -0.20825313 0.0438118167 0.0290126465 -0.209036425 0.0496076718 -0.0088330498 -0.197491229 -0.027967995 -0.0219656378 0.00277226442 -0.037206579 -0.0142352488 0.00109487167 -0.0108340494 -0.0345849842 0.00283919019 -0.0378530808 0.0243786275 -0.194179729 0.0315769389 0.0259487964 -0.0709337071 0.026646832 0.0316830426 -0.0748058558 0.0316653028 0.0285674036 -0.0514491722 0.0495811738 0.024741238 -0.197440684 0.0359751396 0.0173875131 -0.0105120651 0.0320343971 0.0245614145 -0.00646043057 -0.0354317911 0.0088489987 -0.0766606629 -0.0377620533 0.012722631 -0.00927822758 -0.0390511863 0.00792533904 -0.000919292448 -0.0396599472 -0.00227341172 0.00227866042 -0.0361787304 0.0155264102 -0.00367951603 -0.0336348899 0.00459071016 -0.00745785376 0.0512219481 -0.0170356482 -0.172186732 0.0439216867 0.0312600844 -0.15515101 0.0459201038 -0.0170060415 -0.158845991 -0.039454788 0.0308675561 -0.187410906 -0.0322198234 0.0289904308 -0.190931544 -0.031879887 0.0298036896 -0.207825124 -0.0357017741 0.0262119155 -0.0777507052 -0.0331216939 0.0363231525 -0.124453239 -0.0395014025 0.030287521 -0.153995067 -0.0316300429 0.0311071575 -0.073895283 -0.0289542582 0.0299694464 -0.0399311036 -0.0317778103 0.0241809189 -0.00785343722 -0.0315482691 0.024335729 -0.00053316995 -0.0360817127 0.0361257941 -0.192681789 -0.02727421 0.0393634588 -0.204232827 -0.0341155231 0.0377824791 -0.158982188 -0.0333398394 0.0304291714 -0.155357406 -0.0342761986 0.0371824466 -0.150616929 -0.0207069833 0.0343520828 -0.000917523925 -0.00908531342 0.0332357958 -0.224914804 -0.0227196701 0.030969983 -0.218022525 -0.0257355999 0.0398728587 -0.128467619 -0.0138973733 0.0396247506 -0.0659503862 -0.0207601357 0.0356313772 -0.0400862992 0.0262212493 -0.0276038907 -0.210464343 0.0277945492 -0.0291941669 -0.20580329 0.0179851316 0.0229881611 -0.133193791 0.019209791 0.0350155085 -0.131198317 0.0240428429 0.0296904594 -0.13469778 -0.00103593769 0.0399335437 -0.218844146 0.0204271879 -0.0344064385 -0.0221481211 0.0160837881 -0.0372249261 -0.000720244658 0.0352650732 -0.00529985223 -0.0726086721 0.0253163632 0.0258426201 -0.104778312 0.0338446498 0.0197674427 -0.0761617944 -0.00799132138 0.0389004685 0.000928725582 0.00196451158 0.0399943963 -0.00158219587 -0.0237856675 0.0270633958 0.00291330949 0.0522034802 0.0287381317 -0.186688632 0.0507888384 0.0326269642 -0.171485856 0.010829106 -0.032243073 -0.0573412776 0.0242283866 -0.0277021714 -0.0586740151 0.00704988232 -0.0293698888 -0.221840918 0.015193671 -0.0190525167 -0.220994264 0.0139322998 -0.0170299355 -0.227381557 0.0117669124 -0.0151931541 -0.220370248 0.0143042793 -0.028176168 -0.219453201 0.0220315494 -0.0291840732 -0.156842098 0.0101995375 -0.0319590606 -0.157653838 0.00895750616 -0.0280218851 -0.14293091 0.0104962736 -0.0280970186 -0.148925394 0.0150465965 -0.0181887839 -0.141828775 0.0152008384 -0.0288510993 -0.144504115 0.0196845327 -0.0153740654 -0.104398981 0.0114116985 -0.0204981435 -0.0980172679 0.0112587987 -0.017646445 -0.12013942 0.029805975 -0.0321213007 -0.186004609 0.0309035424 -0.0286812615 -0.16379565 0.0246918462 -0.0159647726 -0.215713531 0.0267170966 -0.0278710891 -0.21526368 0.0320250988 -0.0171198919 -0.220032126 0.0280649271 -0.0143647036 -0.218630701 0.022454273 -0.0171738025 -0.225063428 0.0343855172 -0.0296917427 -0.210240602 0.0345300175 -0.028732134 -0.154574469 0.0206787363 -0.0210089162 -0.147709236 0.0268469509 -0.0285324622 -0.148693815 0.0264802594 -0.0117569547 -0.138389945 0.0282357335 -0.0188348647 -0.148171514 0.033495605 -0.0140914489 -0.0682612583 0.0317456834 -0.0237541385 -0.0436093882 0.0323582813 -0.0241921917 -0.000681888894 0.0130993379 0.0396059416 -0.0564184189 0.0160524901 0.0370918363 -0.108593918 0.0113318516 0.0397987068 -0.138797536 0.020719992 0.024033431 -0.136961192 0.0172046758 0.0377087332 -0.136677861 0.022967061 -0.00858173333 -0.131184012 0.0234532896 -0.00569975795 -0.113368884 0.0392717943 -0.0279014576 -0.203402236 0.0376111344 -0.0203431472 -0.207883388 0.0447809696 -0.01773802 -0.191527396 0.0420822129 -0.0290904921 -0.192822158 0.0440493785 -0.0236703046 -0.187491909 0.0388209857 -0.0288590565 -0.184932411 0.0417002589 -0.0275818221 -0.176025659 0.0454645902 -0.0296128672 -0.181551322 0.0457734913 -0.0202069506 -0.173476398 0.0401841179 -0.0211716145 -0.166986048 0.0420234688 -0.0292125456 -0.170576379 0.0435357057 -0.0174646527 -0.16353102 0.0401345901 -0.0276694596 -0.161729991 0.0384131148 -0.015363886 -0.149395272 0.0389245525 -0.0107234251 -0.0477131829 0.0404456109 -0.00545691093 -0.00142624485 0.00932611059 0.0300283749 -0.22843872 0.0515391789 -0.0164310075 -0.187108383 0.0151466187 -0.0331848674 0.00287007145 0.0356914327 -0.0101176873 0.00290524261 0.0180942621 0.0378173925 -0.222451583 0.0341565982 0.0397426896 -0.209512502 0.0217397306 0.0366881453 -0.0623304136 0.0165846013 0.036421001 -0.000367440603 0.0227862746 0.0262200478 -0.12599507 0.0308214352 0.0313185453 -0.220846042 0.0272580255 0.00848685578 -0.0719771385 0.0309973862 0.00842212047 -0.0757203326 0.0259330887 0.0303904824 -0.000444149162 0.0342288017 0.0221095178 -0.00236406247 0.0388571993 0.0379611626 -0.156220645 0.0427628905 0.0399595238 -0.187241986 0.0389761068 0.0140031744 -0.0513165891 0.0339410231 0.00460177893 -0.00719200401 0.0385793298 0.0103236912 -0.00621660892 0.0348571725 0.0154513782 0.00210439786 0.0462970622 0.034231104 -0.201269478 0.0492757298 0.0361345559 -0.190180868 0.0446788929 0.0289311111 -0.190930113 0.0162979569 0.032244768 0.00289313472 0.0123063177 -0.0328933708 -0.185248643 -0.000402554724 -0.0328381099 -0.177748337</float_array>
          <technique_common>
            <accessor source="#positions_array" count="199" stride="3">
              <param name="X" type="float" />
              <param name="Y" type="float" />
              <param name="Z" type="float" />
            </accessor>
          </technique_common>
        </source>
        <source id="normals">
          <float_array id="normals_array" count="1083">-0.265798241 -0.367201447 -0.891355336 -0.510361791 -0.859907806 0.0094567379 -0.713379145 -0.696422338 0.0780132264 -0.5521034 -0.833771408 -0.00266571133 -0.328543395 -0.940390587 0.0878905207 -0.990468144 -0.0806194693 0.11168392 -0.989716113 -0.102976389 0.0992869213 -0.972092748 -0.0796280205 0.220669717 -0.962418079 -0.0679388642 0.26293689 -0.184182703 -0.981913507 0.0438470356 -0.167198867 -0.983754337 0.0653603524 0.0703220516 -0.997472167 -0.0102002239 -0.935702443 -0.128109023 -0.328708142 -0.827627659 -0.114824772 -0.549406707 -0.905023456 -0.383391023 -0.184238598 -0.944560826 -0.327475071 0.0237684157 -0.991785884 -0.026935868 -0.125040919 -0.399711519 -0.915647626 0.0426628552 -0.759662509 -0.647961974 -0.0553008616 -0.221461251 -0.970819354 -0.0920037627 -0.970122933 -0.24197267 -0.017627269 -0.938702583 -0.173698515 -0.297768801 -0.845433712 -0.533299267 -0.0288745128 -0.149353132 -0.971425593 -0.184461161 -0.55970484 -0.82432425 -0.0849710703 -0.517711282 -0.84613061 -0.126641303 -0.230521277 -0.969694972 -0.0809416845 -0.438069493 -0.898933172 -0.00377107738 -0.717520416 -0.696467698 0.00986092258 -0.460113138 -0.864940286 -0.200435176 -0.40738526 -0.865405321 -0.291737616 -0.484714836 -0.84279573 -0.233980492 -0.96196419 0.0361046866 -0.270779043 -0.989508033 -0.121533953 0.0781238526 -0.975983143 0.0603136942 -0.20933032 -0.336926818 -0.887897253 -0.313239127 0.557771206 -0.669893026 0.490035355 -0.72940731 -0.108555906 -0.675411463 -0.469976485 0.0462476909 -0.881466508 -0.759546995 0.0949203297 -0.643489361 -0.643441498 -0.278169334 -0.713165343 -0.332644045 -0.893862188 -0.300596565 -0.543464124 -0.700928092 0.461894542 0.980809033 -0.0659706071 -0.183470652 0.980780005 -0.0675078928 -0.183066279 0.979075193 -0.108681284 -0.172046781 0.00219924957 -0.995088398 -0.098965764 0.0928615555 -0.990099132 -0.105263442 0.00726339035 -0.988918364 -0.148282424 -0.471702367 -0.140716255 -0.870457232 -0.834921241 -0.0370043106 -0.549124002 -0.860335886 0.0381915644 -0.508294761 -0.443426162 -0.871236801 -0.210522398 0.0410920791 -0.995460927 -0.085842669 -0.0854510665 -0.995897532 -0.029768886 0.120433532 -0.338493049 -0.933229983 -0.331481278 -0.93503952 -0.125782773 -0.202858493 -0.95970118 -0.194479004 -0.236055538 -0.962340176 0.134830073 -0.166364193 -0.983204484 0.0750462413 -0.837619066 -0.123237796 0.532171726 -0.879764974 -0.182068214 0.439163625 -0.697836578 -0.151250288 0.700105309 -0.329657137 -0.943394482 -0.0365106352 0.10905987 -0.960285604 -0.256821811 -0.0336219817 -0.999367476 -0.0115829352 -0.0139689324 -0.999683142 0.020939393 -0.596576333 -0.1644741 0.785522103 -0.49566108 -0.264800847 0.827164173 0.980082095 -0.00761129241 -0.198446959 -0.0747218654 -0.93147099 -0.356059551 0.677997112 0.245090455 -0.693001091 0.617890477 0.181170374 -0.765106976 0.779347837 0.374747694 -0.502176344 -0.0923110098 -0.995587528 -0.0168582741 0.172601268 -0.978726387 -0.110920787 -0.33829844 0.281709343 -0.897883058 -0.366238087 0.0751176178 -0.927484214 -0.357866764 -0.00871857442 -0.933731973 -0.391671807 0.0606804825 -0.918101907 -0.428252935 -0.544407487 0.721262693 -0.901284993 0.125361472 -0.414692491 -0.262690663 -0.743255198 -0.615276575 -0.113932736 -0.975246608 -0.189508364 -0.19550392 -0.934799135 -0.296527833 0.11364495 -0.982107997 -0.150162145 0.204737216 -0.18392688 0.961381078 -0.243793577 -0.797341049 0.552097797 0.0114491563 -0.991958082 0.126048133 0.253816575 -0.965089858 -0.0646429732 0.0127356397 -0.996111989 0.0871707574 -0.31881389 -0.144483373 0.93674022 -0.435319275 -0.097094208 0.895025074 -0.137363851 -0.159309566 0.977625489 0.779793501 -9.14491393e-05 -0.626036823 0.739709437 0.242728174 -0.627624869 0.944213331 -0.00692478148 -0.329261601 0.106857777 -0.763050437 0.637444437 0.117955662 -0.816307783 0.565445006 0.134359539 -0.890465617 0.434762508 -0.132638976 -0.90672797 -0.400313944 0.144055218 -0.930431485 0.336964965 -0.241834641 -0.219040364 0.945271015 -0.325838715 -0.188378438 0.926467836 -0.355909705 -0.42439729 0.832595468 -0.113728307 -0.410865217 0.904574871 -0.302512735 -0.565362751 0.76736629 -0.0159790926 -0.641540229 0.766922951 -0.959674299 -0.00783536863 -0.281004995 0.854385674 0.512600601 -0.0852393508 0.722578883 0.685152352 -0.0919025466 0.773243785 0.634104133 0.00243879366 0.939529896 0.00125728117 -0.342464566 0.908267736 0.416873425 0.0355848782 0.761403561 0.646661997 0.0457482748 0.828261197 0.470961481 -0.303609312 -0.922072887 0.384561449 0.0435217023 -0.986874104 0.15951553 0.0251844916 -0.981685221 0.187311381 0.0347642601 -0.997079909 -0.0763623118 -0.000664651045 0.847371042 0.338474572 -0.409142196 -0.905319333 0.405905724 0.125049695 0.978143454 -0.000873128301 0.207929343 0.791797221 0.28981334 0.537648022 0.872475684 -0.00128452829 0.488655895 -0.162123471 0.692878604 -0.702591836 -0.641532421 0.766720355 0.0240010526 -0.867931247 0.490832478 0.0760185048 -0.643896401 0.761762142 0.0715256929 -0.984379411 0.175062075 0.0187198464 -0.760130525 0.0493366271 0.647894681 -0.865758359 0.0866346732 0.492906541 -0.885769308 0.0948453471 0.454331458 -0.707981706 0.0332789347 0.705446303 -0.635514915 -0.0131733213 -0.771976173 -0.87234962 0.484424621 0.0658708438 -0.708912373 0.702361226 0.0642797351 -0.798691452 0.601090193 0.0279727466 -0.795477092 0.60534811 0.027745273 -0.744243979 0.517315149 -0.422475934 -0.422201216 0.856144488 -0.297930777 -0.794909477 0.257787615 -0.549239933 -0.482537419 -0.446058691 -0.753783286 -0.874486804 -0.483324945 -0.0408641472 -0.499853849 0.866090477 0.00578230107 -0.521401942 0.853233397 -0.0115242861 -0.82870096 0.559348822 0.0195857212 -0.809170246 0.587504327 0.00906922761 0.182895154 0.450140536 0.874026835 -0.592996597 0.803192079 0.0568993613 -0.192853495 0.545695424 -0.815490067 -0.992597044 -0.118288398 -0.027550023 -0.707087278 0.701144874 0.0917789787 -0.512948573 0.857573807 0.0380905606 -0.232413173 0.762063801 -0.604353249 -0.580673635 0.343567848 -0.738091648 -0.21108681 0.97696346 0.0313806757 -0.170234382 0.985007823 0.0279263444 -0.467994988 0.882443607 0.0476863645 0.0845187083 -0.986964703 -0.13695702 -0.0566880852 -0.986824512 -0.151538357 0.00846505165 -0.990156174 -0.139710605 -0.429611206 0.190203354 -0.88275528 -0.0809464008 0.920153797 -0.383098811 0.507071555 -0.860434055 -0.0503160581 0.384790152 -0.923004031 0.000390298694 0.966667235 -0.127796963 -0.221861094 0.933405757 0.323991209 -0.154218644 0.955774009 0.223236144 -0.191472426 -0.224743992 0.974052966 0.0266636703 0.0518304929 0.998327792 0.0255981367 -0.484031856 0.303726226 0.820648253 -0.623169601 0.267625779 0.734871507 -0.16910623 0.028441757 0.985187352 -0.274317801 0.302052259 0.912969947 -0.34861362 0.547196567 0.760949731 -0.0401193053 0.32187295 0.945932448 0.990238845 0.135943845 -0.0307616051 0.974192023 0.0573561043 0.218312085 0.154917926 -0.958990753 -0.237354442 0.527001858 -0.823683679 -0.209318593 -0.106754981 -0.991441548 -0.0751468986 0.0559938885 -0.852239847 -0.520146072 0.122957267 -0.687186658 -0.715999961 0.0296585821 -0.915495932 -0.40123263 -0.0648099706 0.132320732 -0.989085913 0.396267414 -0.139427483 -0.907486737 0.0548878312 0.038551718 -0.997748017 0.169141322 -0.429631144 -0.887022138 -0.00187628833 -0.953450024 -0.301545173 0.751216471 0.657341421 0.0598004386 0.375467062 -0.139253393 -0.9163149 -0.155551299 0.398884058 0.903711975 0.0674132779 -0.155002698 0.98561126 -0.00860877614 -0.9991014 0.0415008515 0.0821754038 -0.989187479 0.121471435 -0.0482975952 -0.997459531 0.0523622781 0.32830289 -0.169688866 0.929205537 -0.0615552813 -0.992690384 -0.103811257 0.382264227 -0.112808019 0.917141438 0.637443542 -0.744007945 -0.20029445 0.186339825 -0.956760108 -0.223355353 0.232801318 -0.970259368 -0.0663344711 0.092129603 -0.99554044 -0.0202808119 0.105208226 -0.992943108 0.0547281019 0.0490045957 -0.99383533 0.0994476378 0.461316437 -0.0105530303 -0.887172937 0.328842968 0.428089291 -0.841784894 0.449141473 0.0336051509 -0.892828465 -0.307653785 -0.743943036 0.593209863 -0.230730399 -0.815733075 0.5304178 -0.177217543 -0.835845709 0.519572794 0.138024911 -0.988154829 -0.0670760199 -0.0925579071 -0.994652808 0.0458134227 -0.0666132793 -0.995262682 0.0708159581 0.0645549521 -0.997884989 -0.0076331608 0.382900298 -0.024717696 0.923458934 -0.000831665122 -0.99874711 0.0500353873 0.40626809 -0.0352296047 0.913074553 0.358438909 -0.828133225 0.430948853 0.260378957 -0.932361543 0.250808269 0.250829816 -0.760535061 0.598891318 0.302257866 -0.786336541 0.538808882 0.844845116 -0.484961271 -0.225940853 0.754869699 -0.650602937 -0.0829911828 0.698674858 -0.546080351 0.462222517 0.177960232 0.984014332 0.00677851262 0.645197868 0.763814449 -0.0175284147 0.114255063 0.99195981 0.0544194169 -0.406685561 -0.123296708 0.90520978 0.0213766135 -0.9654966 0.259536773 -0.0145679507 -0.949714065 0.312779456 0.0515713096 -0.899546027 -0.433771014 0.0888951272 -0.913057327 -0.398025036 0.030823227 -0.890952945 -0.453048378 0.9252913 -0.154212922 0.346488625 0.771801531 -0.350326061 0.530654371 0.786689401 -0.0605987646 0.614367664 0.511601925 -0.845713317 -0.151764527 0.974363923 -0.195661128 -0.11104805 0.12265195 -0.991048813 -0.0527135246 0.781220794 -0.046748884 -0.62250191 0.661590338 -0.0394602828 -0.748826504 -0.0033266088 -0.875138521 -0.483861059 -0.561384976 -0.82664448 0.0388047174 0.931834161 -0.0103234304 -0.362737536 0.555257618 -0.815558493 -0.162951827 0.425917834 -0.864303291 -0.267532766 0.397974402 -0.824724793 -0.401802748 0.938340545 -0.190136939 -0.288729936 0.946564257 -0.145170748 -0.287995785 0.741592646 -0.587547481 0.323771924 0.768657207 -0.63683033 -0.0601098947 0.966864467 -0.213966727 -0.139252976 0.982711792 0.169359893 -0.0747984946 0.00991586316 -0.999261558 0.0371223316 -0.00838294625 -0.998264968 0.0582815222 -0.213136002 -0.955088735 0.205860406 0.288842291 -0.641574919 -0.710599601 0.761155188 -0.111190021 0.638967514 0.897774875 0.00873721577 0.440368026 0.905267656 0.0175455473 0.424479246 0.88606286 -0.427043945 -0.180349976 0.593337774 -0.535462022 0.601024747 0.985425532 0.091012992 -0.143712059 0.747279048 -0.0721786767 0.660578728 0.447388858 -0.0678165704 0.891764581 0.700403571 -0.070756264 0.710231245 0.0895748511 -0.992282033 0.0857480541 0.78862679 -0.157963246 0.594235122 -0.133742005 -0.980719328 -0.142487466 0.972947538 0.140764326 0.18318972 0.831859648 -0.352850765 -0.42837584 0.519314766 -0.83589226 0.177753508 0.23022531 -0.956694722 0.178133383 0.523074925 -0.784151554 0.333914578 0.301248401 -0.890559375 0.340812892 -0.00923805218 -0.99473381 0.102074802 0.960021198 -0.263133973 -0.0954975039 0.926224172 -0.0955919921 0.364651889 -0.32504192 0.0159708094 -0.945564747 0.0569732971 0.279869139 -0.958346128 -0.223051175 -0.00727838092 -0.974779546 0.515928686 -0.599758267 -0.611643314 0.535819709 -0.519079089 -0.665923476 0.519930243 -0.585504234 -0.621978641 0.644269586 -0.762335062 0.061335247 0.689531922 -0.718301356 0.0926761031 0.432779551 -0.892890751 0.124289654 0.499078631 -0.652447581 -0.570291758 0.998144925 -0.0141295176 -0.0592207536 0.164565638 -0.371581078 0.913698852 0.230815142 -0.615876317 0.753273368 0.46007207 -0.140558034 0.876685321 0.181936532 0.746820033 -0.639655292 0.356812179 0.869332969 -0.34197256 0.398421645 0.88147366 0.253504127 0.492354959 0.870256543 -0.0154955229 0.399982721 0.915740728 0.0378518365 0.800073922 0.312961817 0.511797488 0.985720515 0.167274505 0.0193461664 0.36423856 0.00392630789 -0.931297421 0.12439841 -0.0101128118 -0.992180824 0.514059722 0.314505398 -0.798015654 0.591022193 0.00113219104 -0.806654513 0.770082176 0.185307175 0.610438108 -0.729120135 0.576096952 -0.369453758 0.807069778 0.584425509 0.0841739029 0.704520762 0.104170002 0.701996565 0.551031947 -0.086693503 -0.829968691 0.175811678 -0.00581803964 0.98440665 0.621407628 0.782486796 0.0395852588 0.710523546 0.702542186 0.0398849212 0.450744063 0.829016209 0.331001401 0.311391175 0.950179756 -0.0139266523 0.932760179 -0.0354558341 -0.358749658 -0.38329345 0.0964346603 0.918578506 -0.516218185 -0.0203620195 0.856215 0.974955261 0.207811072 -0.0792265236 0.757570744 0.0485070683 0.650948226 0.900954783 0.101525202 -0.421868652 -0.527083397 0.291169226 0.798375547 -0.126709327 0.265630305 -0.955711901 0.735303938 0.424154967 0.5286026 0.5925349 0.201060429 0.780049443 0.966088176 0.212326676 0.146938667 -0.767432153 0.19240208 -0.611579359 -0.806406379 0.180465311 -0.56315279 -0.715926409 0.205870941 -0.667133033 0.550156891 0.761550725 -0.342590064 0.468788177 0.878002167 -0.0966947004 0.561848104 0.812547326 0.155220881 -0.996578515 -0.0102202995 -0.0820170864 0.396049351 0.878507972 -0.267149061 0.242301434 0.888616979 -0.389422566 0.525407016 0.838569462 -0.144043967 0.841482401 -0.522810042 -0.136297345 0.870381713 -0.479974896 -0.10981705 0.906989038 -0.415150523 -0.070858717 0.475413322 -0.214643732 -0.853176534 0.9308815 0.365257829 -0.00681192102 0.210829914 0.597774446 0.773444533 0.107036218 0.683412671 0.722142935 0.160414234 0.334297657 0.928715408 0.402893901 0.414234161 0.816141248 -0.319921583 0.0494331606 0.946153522 -0.933996975 -0.356951624 0.0153360609 0.0175349396 -0.999740601 -0.0145366341 -0.0520867072 -0.99806571 0.0339378864 -0.710528672 -0.703668237 5.55583501e-05 -0.0623492822 -0.994139493 0.0883130282 -0.689563215 0.211933061 -0.692522109 -0.743813634 0.0570637174 -0.665946722 0.504944563 0.0619004369 0.86092931 -0.528614759 -0.00862051081 -0.848818064 -0.0182994232 -0.999255896 0.0339532532 0.0222511012 -0.999616146 -0.0165070929 0.733015656 -0.00263335602 0.680206716 0.860553384 -0.505935013 -0.0589712448 0.926764071 -0.37280938 -0.0460596792 0.628821194 0.777094364 -0.0266136881</float_array>
          <technique_common>
            <accessor source="#normals_array" count="361" stride="3">
              <param name="X" type="float" />
              <param name="Y" type="float" />
              <param name="Z" type="float" />
            </accessor>
          </technique_common>
        </source>
        <vertices id="vertices">
          <input semantic="POSITION" source="#positions" />
        </vertices>
        <triangles material="scout_1a1a1a" count="394">
          <input semantic="VERTEX" source="#vertices" offset="0" />
          <input semantic="NORMAL" source="#normals" offset="1" />
          <p>0 0 1 0 2 0 2 1 3 2 0 3 4 4 3 2 2 1 2 5 5 6 6 7 4 8 2 5 6 7 7 9 6 10 5 11 1 12 8 13 2 14 9 15 0 16 3 2 9 15 3 2 10 17 11 18 10 17 12 19 13 20 9 15 11 18 14 21 8 13 1 12 13 20 11 18 15 22 16 23 17 24 18 25 19 26 17 24 16 23 17 24 19 26 20 27 20 27 21 28 17 24 22 29 8 30 23 31 22 32 23 33 24 34 23 31 8 30 25 35 26 36 24 36 27 36 24 37 25 38 27 39 23 40 25 38 24 37 25 35 8 30 28 41 29 42 26 42 27 42 28 43 30 44 25 45 29 46 27 47 31 48 25 38 31 49 27 39 2 50 22 32 5 51 22 29 2 52 8 30 22 32 24 34 5 51 32 53 5 11 24 54 29 55 24 55 26 55 33 56 7 9 29 57 7 9 5 11 32 53 34 58 7 9 33 56 35 59 3 2 4 4 35 59 10 17 3 2 35 60 4 8 6 7 35 60 6 7 36 61 35 60 36 61 37 62 38 63 37 64 36 65 38 63 36 65 7 9 39 66 10 17 35 59 39 67 35 60 37 62 39 67 37 62 40 68 18 25 11 18 12 19 16 23 18 25 12 19 11 18 18 25 17 24 17 24 15 22 11 18 41 69 30 44 28 43 42 70 33 56 29 57 43 71 44 72 45 73 19 26 46 74 20 27 46 74 19 26 47 75 25 38 30 76 48 77 25 38 48 77 49 78 30 76 50 79 48 77 50 80 51 80 52 80 50 81 52 81 49 81 50 79 49 78 48 77 42 70 29 57 53 82 54 83 31 48 49 84 40 85 37 64 38 63 55 86 39 86 40 86 56 87 39 87 55 87 57 88 58 89 34 90 56 91 58 92 57 93 59 94 60 95 61 96 41 97 28 98 50 99 30 100 41 100 50 100 50 99 28 98 51 101 62 102 63 103 21 104 64 105 21 104 20 106 62 102 21 104 64 105 64 105 20 106 46 107 1 12 65 108 14 21 66 109 67 110 68 111 61 96 60 95 69 112 70 113 68 111 71 114 43 71 45 73 72 115 73 116 43 117 74 118 74 118 13 20 75 119 74 118 43 117 13 20 73 120 76 120 77 120 74 118 76 121 73 116 78 122 79 123 80 124 81 125 82 125 65 125 65 126 82 126 83 126 84 127 85 128 86 129 38 63 7 9 34 58 84 127 86 129 43 117 87 130 72 131 45 132 87 130 84 133 72 131 44 134 87 134 45 134 44 135 43 117 73 116 88 136 44 135 73 116 88 136 73 116 89 137 90 138 76 121 74 118 90 138 89 137 76 121 91 139 92 140 83 141 82 142 81 142 91 142 82 143 91 143 83 143 93 144 91 145 81 146 93 144 81 146 86 147 93 148 86 148 94 148 85 128 95 149 86 129 95 150 94 150 86 150 95 151 93 151 94 151 87 152 85 128 84 127 96 153 88 136 89 137 97 154 98 155 92 140 83 141 92 140 98 155 93 144 99 156 92 140 95 149 99 156 93 144 85 128 99 156 95 149 85 128 100 157 99 156 87 152 101 158 85 128 53 159 102 160 103 161 101 158 100 157 85 128 96 153 101 158 88 136 104 162 105 162 106 162 107 163 97 154 92 140 47 75 108 164 109 165 110 166 111 167 112 168 113 169 114 170 100 157 96 153 113 169 101 158 90 171 74 172 75 173 115 174 90 171 75 173 96 175 90 171 115 174 115 174 113 176 96 175 116 177 117 178 78 122 47 75 118 179 119 180 118 179 47 75 16 23 47 75 19 26 16 23 109 165 46 74 47 75 54 83 49 84 120 181 121 182 52 183 51 184 49 185 121 186 120 187 52 183 121 182 49 188 121 182 51 184 122 189 122 190 123 190 121 190 121 186 124 191 120 187 125 192 34 192 126 192 127 193 56 91 57 93 128 194 34 90 125 195 127 196 57 88 34 90 129 197 56 91 127 193 127 196 128 194 130 198 129 197 127 193 130 199 131 200 132 201 133 202 134 203 42 70 53 159 135 204 126 205 134 203 121 186 136 206 124 191 123 207 136 207 121 207 136 206 137 208 124 191 138 209 139 210 140 211 102 160 124 212 137 213 102 160 141 214 103 161 103 161 134 203 53 159 135 204 125 195 126 205 125 195 135 204 142 215 143 216 129 197 130 199 144 217 130 198 128 194 143 216 130 199 144 218 145 219 129 220 143 221 145 219 143 221 146 222 144 217 125 195 142 215 119 180 132 201 131 200 147 223 119 180 131 200 148 224 108 164 119 180 149 225 108 164 148 224 149 225 109 165 108 164 150 226 151 227 152 228 153 229 106 229 154 229 139 210 123 230 122 231 136 232 123 233 139 234 139 210 122 231 140 211 155 235 133 236 145 237 131 200 133 202 155 238 156 239 131 200 155 235 147 223 131 200 156 239 110 166 147 223 156 239 157 240 103 161 141 214 141 214 102 160 137 213 137 208 158 241 141 242 158 243 136 232 139 234 158 244 139 244 138 244 158 241 157 245 141 242 59 246 158 247 138 248 158 241 159 249 160 250 158 241 160 250 157 245 161 251 162 251 160 251 59 246 159 252 158 247 159 249 161 253 160 250 103 254 135 254 134 254 163 255 162 256 164 257 162 258 161 258 164 258 165 259 166 260 167 261 163 262 165 262 167 262 164 263 165 263 163 263 161 264 165 264 164 264 168 265 146 266 142 267 142 215 135 204 169 268 168 265 142 267 169 269 169 268 135 204 167 270 166 260 169 271 167 261 166 272 168 272 169 272 165 273 168 274 166 275 146 266 144 218 142 267 145 219 146 222 170 276 170 276 146 222 168 274 80 277 170 276 168 274 148 224 119 180 147 223 171 278 148 224 147 223 171 278 172 279 149 225 149 225 148 224 171 278 96 153 89 137 90 138 110 166 171 278 147 223 97 280 173 281 51 282 174 283 161 284 159 285 174 286 165 273 161 287 78 288 165 273 174 286 78 288 168 274 165 273 80 277 168 274 78 288 159 285 61 289 174 283 174 290 116 177 78 122 12 19 10 17 133 202 175 291 64 105 46 107 175 291 46 107 109 292 176 293 175 291 149 225 172 279 176 293 149 225 107 163 177 294 97 154 107 163 178 295 177 294 152 228 151 227 154 296 150 226 179 297 151 227 114 170 180 298 150 226 106 299 181 300 155 235 88 136 101 158 87 152 67 110 112 168 111 167 173 281 140 301 122 302 111 167 156 239 181 300 173 281 182 303 140 301 182 303 138 304 140 301 153 305 154 305 104 305 106 306 153 306 104 306 105 307 111 167 181 300 67 308 183 308 184 308 183 309 67 309 66 309 112 310 67 310 184 310 71 114 185 311 186 312 177 294 182 303 173 281 152 228 187 313 188 314 154 296 106 299 187 313 154 296 187 313 152 228 154 315 105 315 104 315 106 299 105 307 181 300 151 227 111 167 105 307 151 227 67 110 111 167 179 297 67 110 151 227 179 297 68 111 67 110 180 298 179 297 150 226 68 111 179 297 180 298 180 298 185 311 68 111 40 316 58 92 55 317 112 168 171 278 110 166 112 168 189 318 171 278 71 319 190 319 70 319 71 320 186 320 190 320 191 321 70 321 190 321 186 322 191 322 190 322 186 323 192 324 191 325 191 325 172 279 189 318 191 325 192 324 172 279 47 75 119 180 108 164 182 303 59 94 138 304 66 326 112 327 184 328 66 109 68 111 189 318 70 113 191 325 189 318 185 311 71 114 68 111 177 294 178 295 182 303 178 295 60 95 182 303 178 295 193 329 60 95 188 314 193 329 178 295 188 314 194 330 193 329 187 313 117 331 194 330 187 313 194 330 188 314 117 331 187 313 79 123 187 313 106 299 79 123 0 16 81 332 1 12 195 333 116 334 69 335 79 123 78 122 117 178 194 336 195 337 193 338 194 339 116 339 195 339 194 340 117 178 116 177 180 341 114 342 113 176 180 341 113 176 196 343 185 344 196 343 192 324 186 323 185 344 192 324 180 341 196 343 185 344 172 279 192 324 176 293 132 201 12 19 133 202 87 152 44 135 88 136 21 28 15 22 17 24 111 167 110 166 156 239 73 345 77 345 89 345 63 346 13 20 15 22 107 163 92 140 99 156 42 70 197 347 33 56 134 203 126 205 197 347 126 205 34 58 198 348 34 58 33 56 198 348 42 70 134 203 197 347 33 56 197 347 198 348 126 205 198 348 197 347 58 92 56 91 55 317 32 53 24 54 7 9 24 54 29 57 7 9 36 65 6 10 7 9 40 349 38 63 34 58 58 89 40 350 34 90 128 194 127 196 34 90 125 195 144 217 128 194 66 326 184 328 183 351 66 109 189 318 112 168 9 15 13 20 86 129 86 129 13 20 43 117 89 352 77 352 76 352 75 119 13 20 63 346 14 21 65 108 83 141 81 332 65 108 1 12 163 255 167 270 135 204 162 256 163 255 135 204 162 256 135 204 103 161 16 23 132 201 118 179 83 141 8 13 14 21 72 353 84 353 43 353 91 145 93 144 92 140 98 155 8 13 83 141 145 237 106 299 155 235 51 282 173 281 122 302 144 218 146 266 143 216 97 280 51 282 28 354 97 280 28 354 98 155 175 291 109 292 149 225 152 228 99 156 100 157 100 157 150 226 152 228 173 281 97 154 177 294 178 295 107 163 188 314 188 314 107 163 99 156 188 314 99 156 152 228 59 94 182 303 60 95 8 13 98 155 28 354 39 66 56 355 10 17 133 202 10 17 56 355 56 355 129 220 133 202 124 212 102 160 53 159 120 181 124 212 53 159 160 356 162 256 103 161 157 240 160 356 103 161 54 83 120 181 53 159 31 48 54 83 53 159 29 46 31 48 53 159 133 202 129 220 145 219 170 357 80 124 79 123 116 177 61 96 69 112 25 38 49 78 31 49 9 15 10 17 11 18 150 226 100 157 114 170 81 332 0 16 9 15 9 15 86 129 81 332 181 300 156 239 155 235 136 206 158 241 137 208 132 201 16 23 12 19 118 179 132 201 119 180 113 169 100 157 101 158 106 299 145 237 79 123 170 357 79 123 145 237 61 358 159 252 59 246 154 296 151 227 105 307 68 111 70 113 189 318 21 28 63 346 15 22 171 278 189 318 172 279 193 338 195 337 60 359 174 290 61 96 116 177 60 360 195 333 69 335 62 102 64 105 196 343 175 291 176 293 64 105 64 105 176 293 192 324 64 105 192 324 196 343 75 173 63 103 62 102 75 173 62 102 115 174 115 174 62 102 196 343 113 176 115 174 196 343</p>
        </triangles>
      </mesh>
    </geometry>
  </library_geometries>
  <library_visual_scenes>
    <visual_scene id="scene">
      <node id="right_shoulder_yaw_link">
        <instance_geometry url="#geometry">
          <bind_material>
            <technique_common>
              <instance_material symbol="scout_1a1a1a" target="#scout_1a1a1a" />
            </technique_common>
          </bind_material>
        </instance_geometry>
      </node>
    </visual_scene>
  </library_visual_scenes>
  <scene>
    <instance_visual_scene url="#scene" />
  </scene>
</COLLADA>