<?xml version='1.0' encoding='utf-8'?>
<COLLADA xmlns="http://www.collada.org/2005/11/COLLADASchema" version="1.4.1">
  <asset>
    <created>2026-09-14T00:00:00Z</created>
    <modified>2026-09-14T00:00:00Z</modified>
    <unit name="metre" meter="1" />
    <up_axis>Z_UP</up_axis>
  </asset>
  <library_effects>
    <effect id="scout_1a1a1a_effect">
      <profile_COMMON>
        <technique sid="common">
          <lambert>
            <emission>
              <color>0 0 0 1</color>
            </emission>
            <ambient>
              <color>0.05 0.05 0.05 1</color>
            </ambient>
            <diffuse>
              <color>0.1 0.1 0.1 1</color>
            </diffuse>
          </lambert>
        </technique>
      </profile_COMMON>
    </effect>
  </library_effects>
  <library_materials>
    <material id="scout_1a1a1a" name="scout_1a1a1a">
      <instance_effect url="#scout_1a1a1a_effect" />
    </material>
  </library_materials>
  <library_geometries>
    <geometry id="geometry" name="right_hip_pitch_link">
      <mesh>
        <source id="positions">
          <float_array id="positions_array" count="300">-0.0569267869 -0.000410848064 -0.0479010828 -0.0407905318 0.0163044948 -0.0506636873 -0.0342370197 -0.00172454969 -0.0542795882 -0.054645434 -0.0474246293 0.00096579513 -0.0415393934 -0.0452045351 0.0174573045 -0.0438828282 -0.043951191 -0.0198326558 -0.0571593307 -0.0490928851 0.00776095642 -0.0569009036 -0.0316412263 -0.0347520597 -0.0390521213 -0.0525495484 -0.019274123 -0.053405147 -0.0269889347 -0.0363436341 -0.0517906919 -0.00412774412 -0.0191311426 -0.0533661097 0.0125397211 -0.010448995 -0.043510709 0.00181069842 -0.0478809662 -0.052725587 -0.00614580559 -0.0445475057 -0.0419970788 -0.0229392238 -0.0418157801 0.0183416139 -0.0295573082 0.0486462153 0.0272847507 -0.0232869815 0.0488908701 0.0216845851 0.0204613656 0.0515394546 -0.046317026 -0.0342221037 -0.0254857726 -0.0382083505 -0.00378687098 -0.0498804338 -0.0379272588 -0.0178100839 -0.0518728048 -0.0167070664 -0.00816161186 -0.0540080927 -0.0368009657 0.00153869891 -0.0531137772 -0.0347467475 -0.000627710717 -0.0474885441 -0.0387105569 0.00258092303 -0.0483457856 -0.0155545389 -0.0514062122 0.0197448172 -0.0153461536 -0.0489228107 -0.0255911499 -0.0451312587 -0.031464193 0.034003973 -0.0539535061 -0.024422938 0.0383014493 -0.047468219 -0.00660812994 0.0453260131 0.0170821231 -0.0377240069 0.0529508553 -0.0146814147 -0.0342196934 0.0553926975 0.0170495361 -0.0583950952 0.0286049545 0.0169400778 0.00394293526 0.0658353418 -0.0515125319 0.00746651506 -0.0147470208 -0.0434259884 0.0427671857 -0.021074269 -0.0526332222 0.0380481929 -0.0249709524 -0.0403915532 0.0285164863 -0.039391607 -0.0530643612 0.0447332561 -0.00704334117 -0.0380831212 0.0328336842 -0.0438989177 -0.0419612713 0.0523142368 0.0101412404 -0.0436374135 0.0436635651 0.0195867606 -0.0378098823 0.0507998168 -0.0192881264 -0.0158021618 0.0393275358 -0.0383981541 -0.0156544019 0.0546488725 0.0141219739 -0.0423937477 0.0228130482 0.0418928675 -0.0525607578 0.0181598999 0.0415007323 -0.0543575548 0.0375856087 0.0268488321 -0.055567421 0.0245449729 0.0425300263 -0.0370285101 0.0372560062 0.0406366326 -0.036683809 0.00721922005 0.0468265712 -0.0331313685 0.00777042098 0.0531483069 -0.0390412845 0.00157001824 0.0504862145 -0.0337055475 0.00693907449 0.0487510413 -0.0369318612 -0.00933130644 0.0536928736 -0.0180780962 0.0528277904 0.0492831394 -0.015430646 0.0154475607 0.0535348877 -0.0145696215 0.0127972988 0.0632933825 0.0190733597 0.0658111051 0.0488040261 0.0180077497 -0.00569924107 -0.0659904554 -0.014208369 -0.0455995575 -0.0461100452 -0.0141793769 0.00182756153 -0.0667373165 0.026880255 -0.0538875125 0.0144296698 0.018303372 -0.0556517355 0.00274037942 0.023563832 -0.044066865 -0.0328363813 -0.0164630432 0.0422807001 -0.0518800132 0.0237347689 0.0589049086 -0.0465508625 -0.00150007545 0.0689083859 -0.0535343476 0.0178150237 0.0268295817 -0.0490103364 0.0270282254 0.0328996964 -0.0450643376 0.0214161593 -0.0169551093 -0.0525190048 0.0178303737 0.0572130941 -0.00954858121 0.0286280271 0.0546012186 -0.00636593346 0.0360601991 0.0689681321 -0.0406987183 0.0485812016 0.062676236 -0.0199945699 0.0198284201 0.0555159263 0.00821459107 0.0272531901 0.0445585698 0.0315310583 -0.000365562475 0.0707680658 -0.0370252132 0.0362240374 0.0702951252 -0.00248390622 -0.0362901948 0.0702492818 0.00249330769 -0.0497329347 0.0651728287 -0.0190026537 0.000367193978 0.0707839951 0.0370015092 -0.0289766155 0.0655607209 0.0448114574 0.0525699928 0.0650859103 0.0074328552 -0.0262717772 0.0643685237 -0.0455316156 0.0409681685 0.0660175085 0.0345675461 -0.0512300171 0.0641536564 0.0171213616 -0.0146331368 -0.0635382012 -0.0144397067 -0.0146144433 -0.0595943667 0.0238671135 -0.0154418116 -0.0265946202 0.0476096235 -0.0569698624 0.0427189469 -0.0242039859 -0.052955009 0.0208265651 -0.0407459177 -0.0569267832 -0.0202681124 0.0428486243 -0.0366801769 -0.044874575 0.0333133265 0.0179258771 -0.0608551279 -0.0260595065 0.0234051906 0.0616430975 0.04586206 -0.0517327636 -0.00497625023 0.0221426878 -0.0518824607 0.00906880386 0.0202318504 -0.0463323109 0.00680897618 0.00100469042 0.0369393677 0.0584837608 0.00677909888</float_array>
          <technique_common>
            <accessor source="#positions_array" count="100" stride="3">
              <param name="X" type="float" />
              <param name="Y" type="float" />
              <param name="Z" type="float" />
            </accessor>
          </technique_common>
        </source>
        <source id="normals">
          <float_array id="normals_array" count="744">-0.428454578 0.0239597727 -0.903245568 -0.457198501 0.303174853 -0.836094797 -0.270653605 -0.000477567955 -0.962676704 -0.223777056 0.973516881 0.046783492 -0.599536061 -0.73910594 -0.307048738 0.563409925 0.716567159 0.411218643 0.489288896 0.733660996 0.471527249 0.237013623 0.620440662 0.747581363 -0.76180017 -0.354457885 0.542236149 0.297318429 -0.0538197309 0.953260303 0.259105682 0.161160663 0.952308536 0.205858618 0.463869482 0.861653864 0.0138224866 -0.0586618967 0.998182237 -0.708975494 -0.478439271 -0.518121243 -0.930884898 -0.259344906 -0.257281065 -0.917033434 -0.170612291 -0.360473514 0.757741988 -0.0768785775 0.648009837 -0.268421561 -0.756158352 -0.596803486 0.255944043 0.451368392 0.85484457 0.356872827 0.135305896 -0.924301982 0.478463531 0.132911995 -0.867990255 0.454747677 0.164438203 -0.875308275 -0.221035585 0.279337525 -0.934405565 0.175536394 -0.0458805785 -0.983403265 -0.117427967 -0.98806721 0.0996687636 0.0372614749 -0.998467922 0.0409065969 0.137053028 -0.989115119 -0.0535513237 -0.998683929 -0.0510209985 -0.005223474 -0.971005499 -0.236848757 0.0324183516 -0.950160325 -0.307828605 0.049365133 0.401689142 0.756945491 -0.515440941 0.450600177 0.751889825 -0.481270373 0.465108931 0.749824703 -0.470570475 0.334289789 0.759462833 -0.558091879 -0.121246681 0.402004093 -0.907574773 0.000168068756 -0.570678055 0.821173847 -0.0382883698 -0.511168063 0.858627498 -0.00215102267 -0.916971207 0.398947567 -0.0393641219 -0.0124360248 0.999147534 0.74470526 -0.251606077 0.618149221 0.232256293 -0.871392429 0.43212533 0.23442325 -0.79924196 0.553405821 0.216906652 -0.574778855 0.789037883 0.235572219 -0.927039742 0.291724175 0.847949684 0.210671991 0.486414075 -0.803880215 -0.560346842 -0.199469358 0.9268682 -0.017273888 0.374989271 0.0892378166 -0.152711138 -0.984233677 0.745614588 0.144138038 -0.650602162 -0.99353224 0.0904128999 -0.0686962828 -0.925751448 0.208420157 -0.315507978 -0.991177201 0.0363900512 -0.127450004 -0.983508825 0.180631131 -0.00909602176 -0.996069968 0.0833544582 0.0299448911 -0.434067875 -0.882441103 -0.18133612 0.778114259 0.626662195 -0.042809248 -0.993906617 -0.0927040055 -0.0596286952 -0.0921671763 0.9449628 -0.313927531 0.0525469631 0.881732583 -0.468813896 -0.36067751 0.62355566 -0.693606615 0.0372837894 0.968874454 0.244728908 0.171682701 -0.45934847 -0.871506751 0.184391081 -0.324712694 -0.927664578 0.0225775205 -0.704298794 -0.709544539 0.68441534 -0.718234897 -0.125356644 -0.363532662 0.799888492 0.477516919 -0.602426231 0.663887024 0.443098903 -0.00293256016 0.768980026 0.639266074 -0.522370875 0.756144524 0.394175291 0.746512473 -0.552099049 -0.371356755 -0.385284036 0.378415227 0.841640115 -0.20459716 0.374956697 0.904183328 -0.304134846 0.168207601 0.937661052 -0.0885696486 0.20006901 0.975770354 -0.0030500514 0.237561151 0.971367776 -0.046670109 -0.731041372 -0.680735171 -0.714657724 0.574363589 0.399212658 -0.860634446 0.206086084 0.465657413 0.138278499 0.377749979 0.915523887 -0.443791509 0.172778904 0.879315972 0.0328877009 -0.296429724 -0.954488277 0.649115801 0.727483749 -0.2222974 -0.98734957 -0.070163697 0.142189413 -0.995448649 -0.0769042522 -0.0562826954 -0.997522652 -0.04729091 0.0520784147 -0.996358693 -0.0304078106 0.0796536952 -0.0903248787 0.2935808 0.951657355 -0.073250182 0.105411507 0.991727173 -0.0638205633 0.291162938 0.954542339 -0.994252384 -0.0786765963 -0.0726096928 0.03305199 -0.466969818 -0.883655369 0.068171747 -0.650178611 -0.756716847 -0.0717929602 -0.397770405 -0.914671779 0.464795768 -0.859844029 -0.211265475 -0.443726242 -0.778931081 0.443140358 0.45310241 -0.669222176 0.588931084 0.0405480005 0.214768931 -0.975822806 0.222152695 0.137410656 -0.965280533 0.0525591522 0.301756531 -0.951935172 0.2226336 -0.114276402 -0.968181372 0.0876368359 0.279900849 -0.956020534 0.333780617 0.102542855 -0.93705678 0.901594937 -0.19596684 0.385646909 0.965173841 -0.191774219 0.17793861 0.923461199 -0.195736334 0.330010176 -0.25236547 0.766749859 -0.590259492 0.336141825 0.815464258 -0.471197069 0.211668685 -0.937340498 0.276747406 0.139142767 0.304885685 -0.942169845 0.142966285 0.306600749 -0.941040158 0.131489977 0.301439285 -0.944375336 -0.17568326 -0.455434918 -0.872762501 0.17277731 -0.559406698 -0.810686231 -0.0203252155 -0.65373987 -0.756446302 0.668176949 -0.495775372 -0.554748952 -0.681893647 0.55407232 0.477519602 0.485607773 0.840487599 0.240344852 -0.0553186685 0.9954198 -0.0779699013 0.172805086 0.984403193 0.0329971761 0.150538906 0.986564875 -0.0634648427 -0.19043085 0.981623113 0.0123363324 -0.217829406 0.970086753 -0.107154436 -0.00642906409 0.97682786 0.213929906 -0.148544654 0.970954657 0.187567428 0.259137064 0.964589 0.0491537638 -0.0951583982 0.989912152 -0.104970351 -0.185277551 0.968804657 -0.164589569 0.11972931 0.991221786 0.0560741574 0.0918702558 0.961374342 0.259459525 -0.286159039 0.952451706 0.104636423 -0.325644255 0.124761879 -0.937224805 -0.972878158 -0.062312182 -0.222767219 -0.988047898 0.00865493342 -0.153903931 -0.992302299 -0.0877708793 -0.0873637199 -0.994440198 -0.0883221552 -0.0573396645 -0.99759239 -0.0674588457 -0.0160845853 -0.994756281 -0.0944112092 0.0393257439 -0.995542228 -0.0883455276 0.033025559 -0.9971838 -0.0378134996 0.0647655129 -0.997158527 -0.028094627 0.069896929 0.319362879 0.152725741 -0.935244441 -0.113900945 -0.677864134 -0.726310432 0.981020868 0.0942641348 -0.169447228 -0.434566706 0.785162091 -0.441216826 -0.269328624 -0.58113265 -0.76794982 0.999716163 0.0201427452 -0.0127227725 0.989178538 0.144558132 0.0250753537 0.999080956 -0.0177201275 -0.0390286706 0.999167204 -0.0208033398 -0.0351007804 -0.321558386 -0.560362995 0.763278186 -0.53691572 -0.650125623 0.537641346 -0.192692161 -0.664758742 0.721779466 -0.99999851 0.00163330173 -0.000572912162 -0.999768674 0.0202385262 0.0072827735 -0.999999583 -0.000900698185 -0.000197037487 -0.998191714 0.0299085546 -0.0521422476 -0.99811703 0.0529080778 0.0310338419 -0.999945104 0.01031294 -0.0018449442 -0.999635637 0.0193498004 0.0188186709 -0.117249124 -0.981922388 0.148596987 0.161088049 0.760669291 0.628834486 0.28393954 0.680631757 0.675365686 -0.363783062 0.922283947 0.130591929 -0.0496962443 0.157574609 0.986255825 -0.0222017262 -0.292194158 0.956101298 0.0201246478 -0.472230077 0.881245553 -0.0176779144 -0.934788465 0.35476476 0.0782283992 -0.908980072 -0.409433126 0.00408519199 -0.98716557 -0.159647956 0.223507956 -0.409354895 0.88457489 -0.965705454 -0.258168787 0.0276024565 -0.973959923 -0.226712018 -0.00191707478 -0.926901698 -0.370519847 0.0597353987 -0.927791774 -0.357459188 0.106889375 -0.720657468 -0.692939997 -0.0220661182 -0.648356736 -0.760459661 -0.0365326069 -0.40929392 -0.909289479 -0.0753072873 0.998600304 0.052620858 -0.00533493422 -0.414747864 0.0167236235 0.909782708 -0.457295835 0.0643155873 0.886985898 0.545115411 -0.0249509402 0.837989628 0.623227835 0.100281417 0.775584102 0.794558227 0.0388327464 0.605944872 0.192155346 -0.733306706 0.652179062 0.993290305 0.103126422 -0.0523385778 0.982212067 -0.0399054736 -0.183485702 0.998131096 -0.0274830293 -0.0545799136 0.999581039 0.0283394307 -0.00588530395 0.0984923616 -0.132082477 -0.98633337 -0.999384284 0.0339398794 0.00889663957 -0.998759091 0.0432997495 0.0246059131 -0.901349723 0.106475867 -0.419799507 -0.697618604 0.708444893 0.106930159 0.996353507 0.0789987668 0.0322319306 0.963481665 -0.0550657995 0.262051284 0.986180007 -0.0723396093 0.14905028 0.972816408 -0.0222869683 0.230502784 0.994877756 -0.0533994772 -0.0858294517 -0.757192552 -0.653040528 -0.0140523165 -0.020033313 -0.999719977 0.0125928624 0.0381475575 -0.999252021 -0.0063342019 -0.00360470801 -0.999967217 0.00725070853 -0.0929249078 0.164805964 0.981938899 0.999821603 0.0138950227 0.0127925137 0.999664724 -0.0182852354 0.0183317997 0.1241225 0.298104197 -0.946428835 -0.0811698064 0.267694354 0.960078776 -0.420700073 0.0115226908 0.907126606 0.988865852 -0.0900665969 0.118458033 0.979163587 -0.200873926 0.0298045799 0.995385945 -0.0848928243 0.0447220914 0.954268932 -0.296125382 0.0409941934 0.952145457 -0.302716285 0.0422128327 0.615893006 -0.442026407 -0.652141452 0.782654881 -0.365781307 -0.503642142 0.771674156 -0.372199297 -0.515739024 0.543104529 -0.464695215 -0.699353874 -0.17799072 0.364353567 0.914092898 0.970764756 -0.190372363 0.146199182 0.998411894 -0.0455820188 -0.0331055596 0.182274491 -0.968307555 0.170752674 0.30444774 -0.948544323 0.0870359689 0.323515147 -0.943319559 0.0740687549 0.64064759 0.751157403 -0.159163892 0.992192447 -0.0618648194 -0.108291022 0.973882556 -0.0777291134 -0.21333304 0.997177958 -0.0367648229 -0.0654560402 0.998967469 -0.0314315408 -0.032803297 0.999931157 -0.0111943241 -0.00352430949 0.998163283 0.00403205492 0.0604468845 0.994449437 0.0265154112 0.101819411 0.923232377 0.0956514776 0.3721461 0.98424536 -0.165058792 -0.0633768588 0.0930792987 -0.995363951 -0.0242252275 0.999431193 -0.0286453385 -0.0177969057 0.997401476 -0.0717393979 0.00661652209 0.0250339899 -0.989367545 0.143265933 0.389243662 -0.920814455 0.0242910814 0.388839841 -0.920963228 0.0251052901 0.295661479 -0.945019662 0.139721662 0.301882178 -0.942301989 0.144686162 0.281055331 -0.951104879 0.128091469 0.151311576 -0.445602775 0.882350802 0.168926507 -0.985462427 -0.0181017648 0.128598616 -0.982432783 -0.135234118 0.0893017277 -0.966068327 -0.242357507 -0.0391548946 -0.833478034 -0.551163554 0.344627202 -0.921517849 0.178988621</float_array>
          <technique_common>
            <accessor source="#normals_array" count="248" stride="3">
              <param name="X" type="float" />
              <param name="Y" type="float" />
              <param name="Z" type="float" />
            </accessor>
          </technique_common>
        </source>
        <vertices id="vertices">
          <input semantic="POSITION" source="#positions" />
        </vertices>
        <triangles material="scout_1a1a1a" count="204">
          <input semantic="VERTEX" source="#vertices" offset="0" />
          <input semantic="NORMAL" source="#normals" offset="1" />
          <p>0 0 1 1 2 2 3 3 4 3 5 3 6 4 7 4 8 4 3 5 5 6 9 7 10 8 11 8 9 8 12 9 13 10 14 11 15 12 16 12 17 12 5 6 14 11 9 7 5 13 18 14 14 15 2 16 19 16 20 16 21 17 19 17 2 17 22 18 19 18 21 18 23 19 20 20 19 21 23 22 21 22 20 22 24 23 23 19 19 21 25 24 8 25 26 26 27 27 5 28 4 29 28 30 4 31 3 32 27 27 18 14 5 28 27 33 4 31 28 30 28 34 29 34 27 34 30 35 31 36 32 37 30 35 33 38 31 36 34 39 11 39 10 39 35 40 36 41 37 42 35 40 38 43 36 41 2 44 1 44 24 44 24 45 22 45 2 45 22 46 24 46 19 46 1 47 23 19 24 23 1 48 39 48 23 48 35 49 37 50 12 51 13 10 9 7 14 11 40 52 35 49 41 53 23 54 22 54 21 54 23 55 2 55 22 55 39 56 2 56 23 56 42 57 43 58 39 59 42 57 44 60 43 58 45 61 46 62 47 63 40 64 47 64 38 64 48 65 41 66 47 67 48 65 49 68 41 66 50 69 51 69 52 69 53 70 50 71 52 72 49 73 48 74 50 71 45 61 47 63 41 75 41 66 49 68 40 76 51 77 50 77 54 77 48 74 54 78 50 71 54 79 53 70 52 72 48 80 53 80 54 80 48 81 51 81 53 81 53 70 49 73 50 71 51 82 49 82 53 82 55 83 56 84 57 85 55 86 57 87 58 88 55 83 44 89 56 84 0 0 39 59 1 1 59 90 60 91 61 92 62 93 63 93 64 93 15 94 63 94 62 94 16 95 15 95 62 95 65 96 66 97 61 98 65 96 67 99 66 97 66 97 59 100 61 98 68 101 69 101 70 101 59 102 66 103 68 104 71 105 69 105 68 105 72 106 69 106 71 106 38 43 35 40 40 107 39 108 43 109 21 110 20 111 21 112 26 113 66 114 73 114 74 114 75 115 17 115 76 115 75 116 76 116 72 116 57 87 33 38 58 88 77 117 78 118 73 119 79 120 77 117 80 121 81 122 79 120 82 123 78 118 81 122 83 124 83 124 73 119 78 118 73 119 67 125 77 117 77 117 67 125 84 126 77 117 84 126 80 121 85 127 81 122 58 128 58 128 81 122 82 123 86 129 79 120 80 121 82 123 79 120 86 129 84 130 67 130 65 130 21 131 61 132 60 133 60 133 26 134 21 131 60 133 87 135 26 134 87 135 88 136 25 137 88 136 31 138 25 137 87 135 25 137 26 134 31 138 56 84 89 139 31 138 57 85 56 84 89 139 25 137 31 138 73 140 66 97 67 99 20 111 26 113 8 141 70 142 59 142 68 142 39 59 0 0 90 143 0 0 20 111 7 144 91 145 34 146 13 147 34 146 10 148 13 147 92 149 6 150 93 151 7 152 92 153 0 154 92 153 48 155 47 156 7 152 6 157 92 153 0 154 92 153 90 158 47 156 90 158 92 153 25 24 93 159 8 25 49 160 56 161 44 60 20 111 0 0 2 2 90 143 40 162 42 57 56 163 54 164 89 165 88 166 32 37 31 36 94 167 87 168 60 91 33 38 57 87 31 36 91 169 13 10 12 9 37 42 91 169 12 9 21 131 43 170 61 132 61 132 43 170 65 171 65 171 43 170 84 172 43 170 44 173 84 172 55 174 84 175 44 176 37 42 36 41 91 169 11 177 34 146 91 145 48 178 92 179 52 72 54 79 52 72 92 179 85 180 58 181 95 182 39 59 90 143 42 57 40 162 44 60 42 57 93 151 25 183 89 165 46 184 29 185 96 186 46 184 96 186 97 187 92 149 93 151 54 164 29 188 46 62 45 61 98 189 18 14 27 27 98 189 27 27 45 190 27 27 29 191 45 190 98 189 45 190 41 53 98 189 41 53 35 49 18 14 98 189 12 51 98 189 35 49 12 51 18 14 12 51 14 15 90 143 47 192 40 162 83 124 81 122 85 127 46 184 97 187 47 193 33 194 15 195 17 196 95 182 33 194 17 196 95 182 17 196 75 197 84 175 55 174 82 198 84 199 82 200 80 201 51 202 54 164 56 163 38 203 11 177 36 204 33 194 95 182 58 181 44 60 40 162 49 160 79 120 81 122 78 118 79 120 78 118 77 117 39 108 21 110 2 205 7 144 20 111 8 141 55 86 58 88 82 206 94 167 32 37 87 168 87 168 32 37 88 166 52 72 51 207 48 178 33 194 30 208 15 195 63 209 15 195 32 210 30 208 32 210 15 195 32 210 94 211 63 209 64 212 63 209 94 211 94 213 59 214 70 215 70 215 64 216 94 213 49 217 51 202 56 163 71 218 68 104 66 103 10 148 9 219 13 147 75 220 72 221 99 222 94 167 60 91 59 90 74 223 73 119 83 124 64 224 70 225 69 226 64 224 69 226 62 227 69 226 72 228 62 227 62 227 72 228 16 229 72 228 76 230 16 229 76 230 17 231 16 229 91 145 36 204 11 177 28 232 96 186 29 185 54 164 93 151 89 165 86 233 80 201 82 200 11 177 96 186 9 234 3 235 9 234 96 186 11 177 97 187 96 186 28 232 3 235 96 186 11 177 38 203 97 187 47 193 97 187 38 203 6 236 8 25 93 159 74 237 83 238 72 221 72 221 83 238 99 222 83 239 95 240 75 241 75 242 99 242 83 242 66 243 74 244 71 245 72 246 71 245 74 244 83 239 85 247 95 240</p>
        </triangles>
      </mesh>
    </geometry>
  </library_geometries>
  <library_visual_scenes>
    <visual_scene id="scene">
      <node id="right_hip_pitch_link">
        <instance_geometry url="#geometry">
          <bind_material>
            <technique_common>
              <instance_material symbol="scout_1a1a1a" target="#scout_1a1a1a" />
            </technique_common>
          </bind_material>
        </instance_geometry>
      </node>
    </visual_scene>
  </library_visual_scenes>
  <scene>
    <instance_visual_scene url="#scene" />
  </scene>
</COLLADA>