<?xml version='1.0' encoding='utf-8'?>
<COLLADA xmlns="http://www.collada.org/2005/11/COLLADASchema" version="1.4.1">
  <asset>
    <created>2026-09-14T00:00:00Z</created>
    <modified>2026-09-14T00:00:00Z</modified>
    <unit name="metre" meter="1" />
    <up_axis>Z_UP</up_axis>
  </asset>
  <library_effects>
    <effect id="scout_1a1a1a_effect">
      <profile_COMMON>
        <technique sid="common">
          <lambert>
            <emission>
              <color>0 0 0 1</color>
            </emission>
            <ambient>
              <color>0.05 0.05 0.05 1</color>
            </ambient>
            <diffuse>
              <color>0.1 0.1 0.1 1</color>
            </diffuse>
          </lambert>
        </technique>
      </profile_COMMON>
    </effect>
  </library_effects>
  <library_materials>
    <material id="scout_1a1a1a" name="scout_1a1a1a">
      <instance_effect url="#scout_1a1a1a_effect" />
    </material>
  </library_materials>
  <library_geometries>
    <geometry id="geometry" name="right_elbow_pitch_link">
      <mesh>
        <source id="positions">
          <float_array id="positions_array" count="261">-0.0424903035 0.000942996587 -0.00107573054 -0.0318130627 -0.000780207221 -8.34704042e-05 -0.0234149229 -0.00303708203 -0.0234720651 0.0149089461 -0.00603004359 -0.0384314172 -0.0367294252 -0.0066780136 0.000631129427 -0.0215010941 -0.00186789245 -0.0385427177 -0.00042295031 -0.00356407766 -0.0333434902 -0.0206561685 0.00819334108 -0.040166717 -0.0110943802 0.000653449271 -0.0124763241 -0.0179776289 -0.00364258396 0.00824508071 -0.0211332683 -0.00414095446 -0.00995662808 -0.028714126 0.000164863683 0.0323410854 -0.0434068888 0.00970029831 0.0133491233 -0.0225166045 -0.00248364708 0.0230445508 -0.0292594582 0.00957656186 0.0341878571 0.003046158 -0.00689971773 0.0365448259 -0.0102756908 -0.00442169374 0.0219491888 -0.00997824781 0.00203359942 0.0120482426 -0.0434087478 0.0127820708 -0.0117184548 0.00063749071 0.00226016273 -0.0419757925 -0.00100754155 0.00194353028 0.0434696749 0.00824132748 0.0051888912 0.0451373793 0.0137083726 -0.00306044798 0.0165903438 0.0256256629 -0.00592089491 -0.0264965929 0.023034269 -0.00125582656 -0.0186554324 0.0476720072 -0.00313702575 -0.0240441263 0.0639075935 -0.000954625371 -0.0240911935 0.0415844657 -0.00441077119 0.0130563304 0.0493521169 -0.00138475362 0.0048413258 0.0724741444 0.00296021323 0.00115696283 0.0692231283 0.0017493146 -0.0172049161 0.1207911 -0.000290802884 -0.0177935939 0.119460568 0.00569656538 0.00682879705 0.0248638168 -0.00267253653 0.0275154356 0.000369422371 -0.00280106533 0.0329494514 0.0461074896 0.0103380773 -0.0427556746 0.0165440086 0.00411817618 -0.018248992 0.0131967822 0.00324698165 0.00917494297 0.0093986094 0.000359971891 -0.0178221017 0.0148590095 -0.00480234483 -0.0117228283 0.0515718535 0.00383190904 -0.0367294885 0.0485326834 0.00824948493 -0.0200136099 0.0472439155 0.000577778264 -0.0181244854 0.0904436111 -0.00118669122 -0.0195667092 0.0733455718 0.00157334888 -0.022671463 0.0494296141 0.0660877749 -0.0177699532 0.118924804 0.0556161068 -0.0340187252 0.0506622829 0.0442927778 -0.0414959118 0.0638856515 0.0235963948 -0.0454790704 0.0711711422 0.0141753685 0.0123579679 0.063511394 0.0206556935 0.0124196075 0.0657229722 0.0217925701 -0.0328705721 0.0504630171 0.0579904988 -0.0313200131 0.0704163611 0.0514450707 -0.0356025174 0.0708183795 0.0637555718 -0.00453971559 0.072181046 0.00955421105 -0.0322900899 0.0856501088 0.0229844041 -0.039308466 0.0652529597 0.0592124052 -0.00737341633 0.0891265869 0.00350567931 -0.0158332344 0.0900203884 0.013257646 0.0144424001 0.120153166 0.038859684 -0.0440340899 0.119437538 0.0194297992 -0.0401537679 0.0710201561 0.0142506333 0.0190390851 0.0592558831 0.0474432483 0.0172671918 0.122718334 0.0294725075 -0.0198457781 0.122780643 0.0371067002 -0.002321081 0.0386744514 -0.00153322332 0.00344328582 0.0202399772 0.00248329481 0.0191514827 0.0257575158 -0.00709110545 0.0155180693 0.0562495142 0.0138182286 0.0218878873 0.0483415425 0.00836073142 0.00290875649 0.050012283 -0.000564462563 0.0104274871 0.0498155169 0.045433525 0.00746001909 0.0694445744 0.0448134094 0.0196580365 0.0662596226 0.0316476747 0.0145866126 0.063499026 0.0483348593 0.0199978687 0.0498627871 0.0605492108 0.0102172419 0.0504228026 0.0626015216 0.00132936705 0.070332028 0.0430678315 0.0142923454 0.119404174 0.0463685393 0.0202462655 0.119080596 0.0156505387 0.0157746449 0.102654561 0.0424634591 0.0200591739 -0.0199001022 -0.00490270695 1.61026528e-05 -0.0112516209 -0.00318473461 -0.0237066429 0.119326368 0.0654368028 -0.00515890494 0.10267093 0.0431581251 -0.0420105606 0.0491409227 0.0417325832 -0.0317379087</float_array>
          <technique_common>
            <accessor source="#positions_array" count="87" stride="3">
              <param name="X" type="float" />
              <param name="Y" type="float" />
              <param name="Z" type="float" />
            </accessor>
          </technique_common>
        </source>
        <source id="normals">
          <float_array id="normals_array" count="714">0.160765752 0.986861348 -0.0160961598 0.0416516662 0.999006689 -0.0158342682 -0.0817425251 0.981459379 -0.173365593 0.0157803725 -0.999024272 -0.041249752 -0.0272991415 -0.999348223 0.0236202236 -0.111547217 -0.980180383 -0.163718 0.557218492 0.643416464 0.524902701 0.110337175 0.816524982 0.566668093 0.425186843 0.715100765 0.554839611 0.46957764 -0.882479012 -0.0269740056 0.581169188 -0.805407047 -0.116455443 0.420599639 -0.905969679 -0.0481137335 -0.821271777 -0.304557234 0.482449561 -0.864856005 -0.448328167 0.225889251 -0.874619186 -0.481526673 -0.0563319027 -0.101726204 0.977248669 0.186109647 0.493998975 0.723781109 -0.481773764 0.475634277 0.746728539 -0.464939326 0.590902925 0.703956127 -0.394055158 -0.0449007675 -0.997827113 0.0482182838 -0.242511645 -0.933869004 0.262824565 0.211389795 0.975346386 -0.063354142 0.633604169 -0.738549531 -0.230413586 0.64925158 -0.645895541 -0.401610881 -0.86330235 -0.413043529 -0.290006995 -0.808115184 -0.183804065 -0.559612274 0.714884102 0.497325212 0.491536677 0.70529139 0.513157368 0.489115149 -0.783188581 -0.0344382524 -0.620829821 0.0752823725 0.811028838 0.580142081 0.585412562 0.708988428 -0.39322713 0.996168673 0.0868079066 0.0105980914 -0.817635655 -0.156114072 0.554166377 0.0451018214 0.875174463 -0.481700629 -0.239260077 -0.442003489 0.864515781 -0.29612568 -0.200406492 0.933888018 -0.282531261 -0.26784572 0.921105206 -0.144929886 -0.771267056 -0.619792283 -0.0746882185 -0.834314287 -0.546206295 -0.0666951984 -0.818683326 -0.570358932 -0.221974552 -0.499725938 0.83725822 -0.131758481 0.788935959 0.600183129 -0.0493303463 0.85110867 -0.522666752 0.0902536586 -0.939692497 -0.329897463 0.0759788901 -0.997106075 -0.00259418692 -0.143522888 0.98507452 -0.0950229242 -0.313334495 0.864167154 -0.393746942 -0.0843004435 0.99611026 -0.0256475825 0.119179234 -0.961840153 -0.246292278 0.143850163 -0.959765732 0.241157234 -0.417419791 0.73169899 -0.538866699 0.0385227725 0.912784219 -0.406621367 -0.0332494937 -0.156539053 -0.987111926 -0.0254854579 -0.197106123 -0.980050862 -0.031110717 -0.167772129 -0.985334814 0.233857095 0.734713137 -0.636794627 0.342490494 0.761695266 -0.550018668 0.356419921 0.764133155 -0.537648022 -0.021753585 -0.216399983 -0.976062417 -0.772144854 -0.61116308 0.173988402 0.0607495382 -0.00212299218 0.998150766 0.0693227127 0.996601284 0.0444998033 -0.10520649 0.990264595 -0.0911464393 0.109520927 0.986602783 -0.120913647 -0.147641078 0.786142707 0.600151479 0.983881533 0.000232247956 0.178821355 0.9722808 -0.0448907018 0.229466602 0.948263764 -0.0838999227 0.306197077 -0.176047862 0.340271831 -0.923700273 -0.165344536 0.793700039 0.585407078 0.170416102 0.983265877 -0.0643935725 0.122458741 0.990742981 -0.0585852079 0.168197498 0.984425664 -0.0511445366 -0.0242007785 0.965005875 -0.261109114 0.0304322112 0.765475512 -0.642745018 -0.0266399402 0.397304118 -0.917300224 -0.25426057 0.55538094 0.791772425 -0.284111619 0.530552447 0.798620522 -0.247189969 0.561088979 0.789985001 -0.645293653 -0.762254 -0.050644692 0.0851162598 -0.350710601 0.93260777 0.01394952 0.990401864 0.137512162 0.268350959 -0.689280629 -0.672963619 0.210359231 -0.726394892 -0.65429306 -0.0730650127 0.991586268 0.10685581 -0.0148767326 -0.975109935 0.221222281 -0.112380214 -0.950401187 0.290014267 -0.21952866 -0.906000495 0.361898094 -0.876025498 -0.478896409 -0.0568994284 -0.883907855 -0.463466048 0.0624985062 -0.861535132 -0.464358836 -0.205251232 0.20145832 -0.604713261 -0.770542979 0.196389005 -0.601586998 -0.774289668 0.195288017 -0.600904882 -0.77509737 -0.985769033 0.160602584 0.0496606864 -0.995339811 0.0818433166 -0.0509932563 -0.971567929 0.169051558 0.165762737 -0.499552369 0.807540178 -0.313570321 -0.843948126 -0.458462805 0.278502017 -0.668414056 -0.568865001 0.479181916 -0.752781868 -0.526091456 0.395660549 0.35499531 -0.697888255 -0.622037232 0.465943903 -0.882167757 0.0683841184 0.184817329 -0.958150029 0.218611613 0.26683864 -0.947107136 0.178283945 -0.0165101215 -0.951568425 0.306993365 -0.91544348 -0.374394596 0.147620752 -0.203757286 0.594747484 0.777662158 -0.00434268033 0.00781082502 -0.999960065 0.0196929108 0.175650701 -0.984255552 0.0592174344 -0.197594956 -0.978493512 -0.746930182 -0.231456533 0.623316228 0.115386173 -0.741502285 -0.660954177 0.997715175 -0.0271210354 -0.0618775375 0.99663192 -0.0634624287 0.0519356728 0.994433463 0.101264969 0.0291125383 0.996800363 -0.0382166468 -0.0702037811 0.998241246 0.0281300992 0.0521830656 0.22244297 -0.903725147 0.36578685 -0.172594428 -0.795304716 -0.581120968 0.248769715 -0.224840477 -0.94210422 -0.231890216 -0.941164255 -0.245838821 -0.0431330614 0.98426795 0.171336487 -0.0572954342 0.966448307 0.250389606 0.102032423 0.87102586 0.480524004 -0.248710677 0.775347173 -0.580499589 0.835811794 0.532452583 -0.133838966 -0.398916721 0.694240272 -0.599079192 0.505689025 -0.0356953964 0.861977041 -0.445572376 0.782352328 -0.435189694 -0.320872247 0.671426952 -0.668002069 0.339982957 -0.615807354 0.710769176 0.428300232 -0.640977979 0.636950612 0.43019256 -0.6384902 0.638172925 0.13001743 -0.394083083 0.909831822 -0.0122520765 0.642884314 0.765865326 0.130164444 -0.179857418 -0.97504282 0.732028067 -0.105556376 -0.673047423 0.677133441 -0.0440508425 -0.734540582 0.64502275 0.0837169066 -0.759563804 -0.195273757 0.856791973 -0.477258503 0.684125364 0.050004594 -0.727648258 0.967328072 -0.250073165 0.0417109244 0.995232821 0.0772895068 -0.0594806187 0.990554273 -0.00916044787 0.136815071 -0.268879384 0.106381938 0.957280934 -0.484724104 0.149000138 0.861882567 -0.118011154 -0.764134049 -0.634170771 -0.0866617933 -0.775158167 -0.625795126 -0.141420424 -0.755281568 -0.639960945 0.0998767614 -0.638152361 0.763404369 0.236248136 -0.0592545718 0.969884396 0.186528146 -0.0730331168 0.979731321 -0.0227298066 -0.132779375 0.99088496 -0.988612592 -0.0714193657 -0.132455394 -0.999372661 -0.0275332816 -0.0222745612 -0.998874485 -0.0299153328 -0.0368085019 -0.987603843 -0.0695508048 -0.140717402 0.28771767 0.282851666 -0.914993703 0.236936867 -0.0595049784 0.969701052 -0.986559927 -0.096704036 -0.131711364 -0.681065917 0.50159663 0.533432245 -0.20518145 0.868805468 -0.450641423 -0.0497445762 -0.998710632 0.01012656 0.0611665547 -0.0827159286 0.994694293 0.0999182984 -0.425575048 0.899389923 -0.0202662535 0.0535400473 0.998360038 0.0581549928 -0.998304188 0.00260085613 -0.314295262 0.567079723 0.76134032 -0.0126253003 0.999705493 -0.0207255818 -0.0438307449 0.998989463 -0.00994545314 0.049928762 0.998414755 0.0259829182 0.999583364 0.0199835114 -0.0208254755 -0.397049218 0.906573892 0.143093139 -0.0774772614 0.969104588 0.234165579 0.990546525 0.0479568355 0.128521189 0.992625892 0.121176265 0.00318374229 -0.0259515326 0.980568409 0.194453329 0.0472096726 0.97628808 -0.211264834 -0.0465511009 0.919217408 -0.390988946 -0.0244129896 0.354306668 -0.934810579 0.0704011545 -0.944214523 0.321718276 -0.34963876 0.936854839 -0.00746222399 -0.302851468 0.950573683 -0.0684886873 0.608711481 0.753854692 -0.247332618 -0.993344903 0.0364052244 0.109272763 -0.992857993 0.0459509231 0.110097535 -0.994882643 0.0631935522 0.0788359195 -0.994462371 0.0818902701 -0.0658675879 -0.0997115076 0.981262207 -0.164869964 -0.118553072 0.975303471 -0.186355412 -0.314062029 0.948513806 -0.0410683118 -0.461222976 0.884659708 0.0681947917 0.631755888 -0.0712147206 0.77188921 0.633773506 -0.0685063452 0.770479083 0.638820589 -0.0616766177 0.766879559 -0.999897838 0.0136653027 -0.00419046311 -0.985642076 0.115198776 -0.123445883 -0.977330744 -0.0243498925 0.210313231 -0.996721387 -0.0114923883 0.0800902694 -0.0796521157 0.994737923 -0.0644357949 -0.954538107 -0.100878909 -0.280500323 -0.978179932 -0.0581996515 -0.199441284 -0.984547913 -0.00433937274 -0.175061584 0.0431895591 0.779059172 0.625460982 0.0905401409 0.718638122 0.689464808 0.0254563913 0.799560845 0.600045323 0.0958573595 -0.985597968 0.139312565 -0.220627755 -0.958329558 -0.18146044 -0.128223687 -0.160868317 0.97861129 -0.0140808364 0.981776834 -0.189515054 -0.729323864 -0.506794691 -0.459614843 -0.691953599 -0.515709281 -0.505216956 -0.974086702 -0.17831479 0.139136598 -0.985282123 -0.124414422 0.117218457 -0.937618852 -0.294103265 0.185402796 -0.990349889 -0.0917866826 0.103838034 0.0430388786 -0.146854445 0.988221347 0.984894514 0.0410146527 0.168227851 -0.973395944 0.0106020719 0.228884086 -0.934690595 0.0189012755 0.354959488 0.715481222 -0.698569357 0.00935641211 0.190645054 -0.598016083 -0.778480113 0.640192509 -0.0598065257 0.765882969 0.479861319 0.123707883 -0.86857897 0.989333451 -0.0578613766 0.133683905 0.92948091 -0.0668144152 0.36276862 0.997643113 -0.0683965459 -0.00548933214 0.99884963 -0.0479389355 0.00115490914 0.996684372 -0.0808060467 -0.00952348858 0.999429941 -0.0332370102 0.00592502672 -0.0576192997 -0.784530699 -0.617407143 -0.897435009 0.0185072329 0.440758258 0.722203195 -0.255127579 -0.642909348 -0.111541398 -0.708708644 0.696627975 0.912923157 0.0137789501 -0.407898843 0.430654764 0.769143045 0.472181648 0.109078623 0.692674458 0.712954402</float_array>
          <technique_common>
            <accessor source="#normals_array" count="238" stride="3">
              <param name="X" type="float" />
              <param name="Y" type="float" />
              <param name="Z" type="float" />
            </accessor>
          </technique_common>
        </source>
        <vertices id="vertices">
          <input semantic="POSITION" source="#positions" />
        </vertices>
        <triangles material="scout_1a1a1a" count="182">
          <input semantic="VERTEX" source="#vertices" offset="0" />
          <input semantic="NORMAL" source="#normals" offset="1" />
          <p>0 0 1 1 2 2 3 3 4 4 5 5 2 6 6 7 7 8 8 9 9 10 10 11 11 12 12 13 4 14 0 0 13 15 1 1 14 16 13 17 0 18 15 19 11 20 4 4 9 21 16 21 10 21 9 10 17 22 16 23 18 24 5 25 4 14 7 8 18 26 0 27 0 27 2 6 7 8 18 24 7 28 5 25 7 8 6 7 19 29 12 30 14 16 0 18 18 31 12 31 0 31 12 13 11 12 14 32 17 22 9 10 8 9 14 16 20 33 13 17 21 34 14 35 11 36 22 37 16 38 17 39 21 34 11 36 15 40 6 7 23 41 19 29 24 42 25 42 23 42 26 43 27 44 3 3 28 45 29 46 30 47 31 48 32 49 27 44 20 33 33 50 34 51 7 52 35 53 5 54 6 55 36 56 23 57 35 53 3 58 5 54 37 59 38 59 39 59 36 60 38 60 24 60 37 61 24 62 38 63 35 64 19 29 23 41 40 65 41 66 42 67 41 68 25 68 24 68 35 64 23 41 25 69 43 70 44 71 29 72 45 73 46 74 47 75 48 76 40 77 43 78 49 79 50 79 51 79 52 80 48 80 53 80 44 71 43 70 40 81 3 82 35 83 26 43 42 84 30 47 44 71 54 85 52 86 53 87 51 88 48 89 55 90 48 91 56 92 55 93 51 94 53 95 48 96 13 17 20 33 34 51 54 97 53 97 57 97 58 98 55 99 43 100 58 101 44 101 55 101 29 102 44 103 59 104 59 104 44 103 58 105 59 106 58 98 43 100 56 107 48 76 43 78 26 43 35 83 31 48 35 108 60 109 61 110 50 111 62 111 63 111 35 83 61 112 31 48 61 113 32 114 31 115 64 116 32 114 61 113 65 117 32 114 64 116 37 118 39 118 42 118 37 119 22 37 17 39 20 120 14 120 21 120 37 119 66 121 22 37 67 122 34 123 33 124 21 125 33 50 20 33 67 126 33 126 68 126 21 125 69 127 33 50 70 128 67 128 68 128 68 129 69 127 71 130 33 50 69 127 68 129 27 131 21 132 15 133 69 134 21 132 27 131 71 135 70 135 68 135 70 136 28 136 66 136 72 137 63 138 28 139 28 45 62 140 29 46 50 141 73 141 62 141 74 142 73 142 50 142 46 143 61 113 60 144 75 145 76 146 69 134 54 147 63 148 77 149 69 134 27 131 32 150 78 151 74 152 49 153 78 154 49 155 62 156 73 157 78 154 62 156 63 158 73 158 74 158 63 159 74 152 78 151 73 157 54 160 78 154 54 161 57 161 78 161 62 140 43 162 29 46 59 163 62 163 49 163 79 164 69 134 80 165 81 166 69 134 79 164 3 3 15 19 82 167 15 19 4 4 82 167 82 167 4 4 3 3 39 168 38 168 83 168 16 169 39 170 83 171 27 44 26 43 31 48 16 172 83 172 8 172 10 173 16 173 8 173 67 122 37 61 34 123 37 61 17 174 13 15 37 61 13 15 34 123 79 175 65 117 84 176 76 177 84 178 45 73 43 162 62 140 59 179 30 47 42 84 28 45 47 75 85 180 35 108 46 74 45 73 84 178 38 181 8 181 83 181 24 62 37 61 67 122 41 182 24 62 70 183 24 62 67 122 70 183 24 184 23 57 36 56 25 185 41 186 35 187 41 186 86 188 35 187 13 15 17 174 1 1 1 1 17 174 8 189 6 190 8 189 38 191 1 1 8 189 2 2 6 190 2 2 8 189 6 190 38 191 36 192 52 193 86 194 48 195 45 196 47 197 86 188 47 197 35 187 86 188 72 198 45 196 86 188 76 199 45 196 72 198 22 200 39 170 16 169 63 201 57 202 50 203 50 203 57 202 53 95 50 203 53 95 51 94 84 204 75 205 79 206 54 85 77 207 52 86 37 119 42 208 66 121 50 209 49 153 74 152 39 170 66 210 28 45 55 90 44 211 51 88 44 211 30 212 51 88 49 213 30 214 29 215 30 214 49 213 51 216 85 180 47 75 46 74 7 217 19 217 35 217 40 65 86 218 41 66 70 219 71 220 72 198 39 170 22 200 66 210 40 81 42 84 44 71 41 221 70 221 66 221 60 109 35 108 85 180 55 93 56 92 43 222 40 223 48 195 86 194 28 139 63 138 62 224 65 117 80 225 32 114 28 45 42 84 39 170 64 116 61 113 46 143 65 117 64 116 84 176 46 143 84 176 64 116 42 67 41 66 66 226 52 227 72 228 86 229 52 227 77 230 72 228 73 231 63 148 54 147 72 198 71 220 69 232 76 199 72 198 69 232 72 137 77 233 63 138 29 234 59 234 49 234 72 137 28 139 70 235 27 44 15 19 3 3 57 236 63 236 78 236 81 166 75 145 69 134 79 164 75 145 81 166 80 165 69 134 32 150 60 109 85 180 46 74 12 13 18 24 4 14 84 204 76 237 75 205 79 175 80 225 65 117</p>
        </triangles>
      </mesh>
    </geometry>
  </library_geometries>
  <library_visual_scenes>
    <visual_scene id="scene">
      <node id="right_elbow_pitch_link">
        <instance_geometry url="#geometry">
          <bind_material>
            <technique_common>
              <instance_material symbol="scout_1a1a1a" target="#scout_1a1a1a" />
            </technique_common>
          </bind_material>
        </instance_geometry>
      </node>
    </visual_scene>
  </library_visual_scenes>
  <scene>
    <instance_visual_scene url="#scene" />
  </scene>
</COLLADA>