<?xml version='1.0' encoding='utf-8'?>
<COLLADA xmlns="http://www.collada.org/2005/11/COLLADASchema" version="1.4.1">
  <asset>
    <created>2026-09-14T00:00:00Z</created>
    <modified>2026-09-14T00:00:00Z</modified>
    <unit name="metre" meter="1" />
    <up_axis>Z_UP</up_axis>
  </asset>
  <library_effects>
    <effect id="scout_1a1a1a_effect">
      <profile_COMMON>
        <technique sid="common">
          <lambert>
            <emission>
              <color>0 0 0 1</color>
            </emission>
            <ambient>
              <color>0.05 0.05 0.05 1</color>
            </ambient>
            <diffuse>
              <color>0.1 0.1 0.1 1</color>
            </diffuse>
          </lambert>
        </technique>
      </profile_COMMON>
    </effect>
  </library_effects>
  <library_materials>
    <material id="scout_1a1a1a" name="scout_1a1a1a">
      <instance_effect url="#scout_1a1a1a_effect" />
    </material>
  </library_materials>
  <library_geometries>
    <geometry id="geometry" name="right_wrist_pitch_link">
      <mesh>
        <source id="positions">
          <float_array id="positions_array" count="192">0.0130111463 -0.0314689539 -0.00984975137 0.000143293131 -0.0296142045 -0.0115869762 -0.00125261222 -0.0263846926 -0.0203227587 4.25247708e-05 -0.0241284575 0.00685577607 -0.00312250736 -0.0206156541 0.00843228493 -0.00198054686 -0.0328895859 0.00382188032 0.0405396074 -0.0253151339 0.029838901 0.0392697789 -0.0267108623 -0.00978517812 -0.00182527816 0.0224942062 0.00585364131 -0.00917250942 0.012009996 0.0298607033 0.00519761862 0.0287359152 0.0298804212 -0.00416131224 0.0325995982 -0.000706347637 0.00156746351 0.032895118 0.00391095877 -0.000845854462 -0.0311459545 -0.017589489 0.00303409179 0.0270301513 -0.021715831 0.00766525371 0.0224031098 -0.0223851055 0.0070056105 -0.023862021 -0.0221442003 0.00911331363 0.0233567022 -0.0292260163 -0.00153847726 -0.022696808 -0.00844222307 -0.000458284805 -0.0321388021 0.0142824166 0.0526042134 -0.00190902292 -0.021686038 0.0527635813 -0.00101419725 -0.00980293378 0.0391246751 -0.0263809524 -0.0212737713 0.00553393038 -0.0293259621 -6.27696063e-05 0.0023934897 -0.0260478947 0.019564813 0.0113830762 -0.00438073091 0.029677039 0.00574161345 -0.000918195467 0.0304931402 0.00351676764 -0.00662111165 0.029297404 -0.000372453942 -0.0328380428 -0.00413333345 0.00241937255 0.0331497565 -0.00305605493 -0.000966230233 0.0231207293 -0.00776836043 0.020870069 0.0332988165 -0.00984211639 0.0157589074 0.0334378593 -0.0211960115 0.00590258092 0.0277933795 -7.04048434e-05 0.0324515998 -0.0230384748 -0.0291684866 0.0461169444 -0.00114068505 -0.021744715 0.0325320549 -0.0225736778 -0.0222130083 0.0443704501 0.0209021904 -0.00976878684 0.0399386622 0.0254610367 0.0298969597 0.00954121258 0.0150886541 0.0289269518 0.0170490574 0.011570897 0.0303453058 0.0200121757 0.0195369758 0.0291420408 0.035592664 0.0284477677 -0.0214787014 0.051113192 0.0126629081 -0.0208553728 0.0231855717 -0.0337171219 -0.0211577062 -0.0113190338 -0.00764743658 -0.00976466201 -0.00819205679 -0.0151733477 0.0299408697 0.0137678925 -0.0198410191 0.029486062 0.0322475657 -0.0148932394 0.0286881737 0.0241233148 -0.0134537481 0.0305754077 -0.0104990192 0.0107768662 -0.00988239702 -0.0135043124 0.0069710305 -0.0213039014 0.0289901644 0.00305643445 0.0300096162 0.0225528795 -0.00806265324 0.0301923621 0.0366160646 0.00611826917 0.0294958111 0.0516050011 0.00152843411 0.0299246833 0.00755521934 -0.0221950784 -0.0291862171 -0.0073236227 -7.01833551e-06 -0.0227473211 0.033312168 0.0229750238 -0.0220208894 0.00985583849 -0.0300148763 0.0298881065 0.013145715 0.00490731234 0.0303786863 0.0200835969 2.66140387e-06 0.0299415756 0.046304699 0.00303684524 -0.0292688794 0.0311581362 0.0228061751 -0.029163463</float_array>
          <technique_common>
            <accessor source="#positions_array" count="64" stride="3">
              <param name="X" type="float" />
              <param name="Y" type="float" />
              <param name="Z" type="float" />
            </accessor>
          </technique_common>
        </source>
        <source id="normals">
          <float_array id="normals_array" count="384">-0.245798007 -0.960365772 -0.131456748 -0.0904052034 -0.938728034 -0.332590669 -0.184797004 -0.95920074 -0.213971883 0.235080734 -0.366083592 0.900399864 0.0846986398 -0.343458027 0.935341001 0.473178267 -0.383852601 0.792943537 0.161456004 -0.986032069 0.0408990979 -0.0446175672 -0.997731328 0.0504130572 0.254158437 -0.964654863 0.0696023777 -0.731519282 0.681803882 -0.00479997508 -0.940397263 0.336043447 0.0522286668 -0.401160091 0.912947476 0.0748164356 -0.60225147 0.332049459 0.725972652 0.98698324 -0.00789314508 -0.160629496 -0.0407336615 0.0664559305 -0.996957541 -0.0682730749 0.0755582377 -0.994801342 -0.101535663 -0.188562542 -0.976798177 -0.981384695 0.0150913233 -0.191458419 -0.995897472 0.0317450389 -0.0847378597 -0.978603482 0.0128835225 -0.205351382 -0.182381287 -0.443317533 0.877614141 -0.738288522 -0.433171809 -0.517003119 0.976095974 -0.217315257 0.00327368849 0.995232761 -0.0842428729 0.0491420142 0.883037925 -0.469135553 -0.0124858366 0.561097383 -0.383574009 0.73351258 0.942738712 -0.256546706 -0.213137254 -0.0044626561 -0.0626234412 0.998027265 0.019388942 -0.103949554 0.994393587 0.0213226192 -0.0240333211 0.999483764 -0.98001647 -0.0167266484 -0.198211968 -0.861544728 -0.505411744 -0.0479546599 -0.987758636 -0.0952267274 -0.123550683 -0.329143286 0.490300626 -0.807013035 -0.672334194 0.740180373 -0.00999036618 0.0456818826 0.998176277 0.0394625366 -0.416526347 0.893518686 0.167720318 0.718360424 0.0820848644 -0.690811336 0.885200918 -0.46484834 -0.0183123946 0.851707995 -0.523481309 -0.0236822143 0.860262811 -0.469270885 -0.199330583 0.844085455 -0.535576701 0.0260259919 0.751002252 0.657992065 0.0551547222 0.911505103 0.410776705 0.020518247 -0.0168432798 0.0257303119 0.999527037 -0.0120514017 0.0995863974 0.994955957 -0.00350349536 -0.00352750858 0.999987662 0.241544187 0.965538561 -0.0969108418 0.489517033 0.868491113 0.0780786797 0.908985913 0.398280412 0.12295232 -0.288872302 -0.954798579 -0.0700887665 -0.915461063 -0.399815917 0.0455884933 -0.961412787 -0.272631913 -0.0368411802 -0.960063815 -0.279767156 -0.00279794727 -0.899984896 -0.431659669 0.060804192 -0.00168039417 0.00910185184 0.999957144 0.0348268747 0.00457723904 0.999382854 0.0651963577 -0.143621668 0.987482786 -0.926153123 0.372565001 0.0586152375 -0.781748533 0.623288035 -0.0195254777 -0.55474627 -0.831829488 0.0177846141 0.0586846955 0.00872677937 0.998238444 -0.0604983196 0.0267660432 0.99780935 -0.00300680613 -0.0103649283 0.999941766 0.90946579 -0.414960772 0.0260671712 -0.0478430465 -0.0112766679 0.998791218 -0.044246871 0.0639544427 0.996971428 0.80061841 0.587165952 0.119357996 -0.904124856 -0.339711457 -0.259141624 -0.0327623561 -0.972009599 -0.232645601 0.0362228341 -0.99924475 0.0140656019 -0.0179996416 -0.983409703 -0.18050307 -0.183811814 -0.0614843741 -0.981036663 0.00633584708 -0.0892959386 -0.995984972 -0.175820917 -0.178014636 -0.968193054 0.065279372 0.0718260184 -0.995278656 0.00170437666 0.0814361125 -0.996677101 0.0511784963 0.0722607076 -0.996071875 -0.187152758 0.0372824781 -0.981623054 0.0658817366 0.0403896645 -0.997009635 0.0325473063 0.0145301828 -0.999364555 0.01160431 0.0216318145 -0.999698639 0.0659032688 -0.0818354562 -0.994464517 0.0478604995 -0.160342678 -0.985900402 -0.237333119 -0.968289733 0.078025192 -0.424196422 -0.904400706 -0.0460087731 -0.519390464 -0.82684952 -0.215762392 -0.0735450089 0.996914208 0.0274436753 0.642631948 -0.235843107 -0.728973389 -0.99698329 0.0340408124 -0.0697537512 -0.969680309 0.0446929932 0.24025546 0.23768878 -0.940405488 0.243190259 0.0504742824 -0.99654156 0.0660095513 -0.891052127 0.024097288 0.453260899 0.0263135415 -0.0346124731 0.999054313 -0.00629715389 -0.0259029884 0.999644637 -0.000828776043 -0.00165688444 -0.999998271 0.000681847159 -0.000897031685 -0.999999344 0.00016072733 0.0010565297 -0.999999404 -0.00136572553 -0.000390207162 -0.999998987 0.00302879489 0.00765251415 -0.999966145 -0.58662957 0.807764292 0.0581599958 -0.985299706 -0.156045124 0.069529742 0.858573258 -0.457030326 -0.232325807 0.417708248 -0.908040166 -0.0313513428 -0.611432076 -0.789106429 0.058837574 -0.86759305 0.248110756 0.430956274 0.463606924 -0.881659865 0.0880025849 0.0250415653 0.999200284 -0.0311726499 -0.0161015298 0.99415642 0.106741473 0.0143324286 0.999885619 0.00483087311 0.923255861 -0.380746156 0.0512933694 -0.436679095 0.895840526 -0.0823474526 0.852585137 0.483408898 0.198530629 0.768809915 0.590345979 -0.245810762 0.801127076 0.578209817 -0.154495224 -0.0239841435 0.990820587 0.133038938 0.848366976 0.453586042 0.273007751 0.898887515 0.438175619 -0.00182959915 -0.914671242 -0.329076052 0.23470287 -0.960278928 -0.269338459 -0.07294631 0.0276881363 -0.0656530708 0.997458279 0.0523810573 -0.0122069642 0.998552561 0.0378647894 0.0214033425 0.999053657 -0.0290104467 -0.0295449458 0.999142349 0.0124438601 0.0347055905 0.99932009 0.63396728 -0.0628271922 0.77080363 0.232356608 0.969360352 0.0796928033</float_array>
          <technique_common>
            <accessor source="#normals_array" count="128" stride="3">
              <param name="X" type="float" />
              <param name="Y" type="float" />
              <param name="Z" type="float" />
            </accessor>
          </technique_common>
        </source>
        <vertices id="vertices">
          <input semantic="POSITION" source="#positions" />
        </vertices>
        <triangles material="scout_1a1a1a" count="124">
          <input semantic="VERTEX" source="#vertices" offset="0" />
          <input semantic="NORMAL" source="#normals" offset="1" />
          <p>0 0 1 1 2 2 3 3 4 4 5 5 6 6 0 7 7 8 8 9 9 10 10 11 11 12 8 12 12 12 2 13 1 13 13 13 14 14 15 15 16 16 17 17 16 18 15 19 0 20 18 20 1 20 4 21 3 21 19 21 20 22 21 23 22 24 23 25 3 3 5 5 3 26 24 26 19 26 25 27 26 28 27 29 5 30 4 31 28 32 11 33 29 33 30 33 30 34 31 35 32 36 30 37 29 37 33 37 22 24 21 23 7 38 34 39 35 40 36 41 37 42 38 43 21 23 39 44 40 45 41 46 32 47 31 35 42 48 37 42 43 49 42 48 2 2 44 50 0 0 18 51 45 52 2 53 46 54 45 52 4 31 4 31 45 52 18 51 47 55 48 56 49 57 28 32 4 31 18 51 50 58 30 34 51 59 24 60 46 54 4 31 52 61 53 62 49 57 54 63 52 61 48 56 52 61 49 57 48 56 21 23 6 64 7 38 50 58 9 10 8 9 54 63 48 56 55 65 55 65 48 56 6 66 48 56 47 55 6 66 33 67 29 67 12 67 51 68 2 53 45 52 56 69 34 70 16 71 45 52 46 54 9 10 14 14 16 16 57 72 16 16 44 73 2 74 15 15 14 14 58 75 58 75 14 14 32 76 42 77 58 75 32 76 2 74 57 72 16 16 14 14 57 72 51 78 42 77 43 79 35 80 58 75 42 77 35 80 35 80 43 79 20 81 20 81 22 82 35 80 35 80 22 82 36 83 44 73 16 16 22 82 22 82 16 16 36 83 59 84 46 54 24 60 0 7 23 85 18 86 51 78 57 72 2 74 11 87 12 87 29 87 28 88 18 88 23 88 17 17 56 89 16 18 51 90 45 52 50 58 7 8 0 7 44 91 16 71 34 70 36 92 4 93 19 93 24 93 52 61 60 94 61 95 53 62 52 61 61 95 25 27 53 62 61 95 60 94 25 27 61 95 34 96 56 97 17 98 34 96 17 98 62 99 17 98 63 100 62 99 14 101 51 59 30 34 13 102 18 51 2 53 21 23 20 22 43 49 35 40 34 39 62 103 7 8 44 91 22 104 24 60 3 105 59 84 40 45 52 61 41 46 52 61 40 45 60 94 26 28 60 94 40 45 53 62 25 27 47 55 49 57 53 62 47 55 27 29 47 55 25 27 26 28 25 27 60 94 27 106 26 106 39 106 26 28 40 45 39 44 54 63 41 46 52 61 28 107 23 107 5 107 50 58 45 52 9 10 0 7 6 6 59 84 63 108 17 109 58 110 43 49 37 42 21 23 55 111 6 64 21 23 10 11 33 112 8 9 30 34 33 112 31 35 32 36 14 101 30 34 62 113 63 114 58 115 58 110 17 109 15 116 31 35 37 42 42 48 33 112 10 11 31 35 58 115 35 117 62 113 38 43 55 118 21 23 13 102 1 119 18 51 30 120 8 120 11 120 0 7 59 84 23 85 10 121 9 122 39 44 10 121 39 44 41 46 9 122 27 29 39 44 27 29 9 122 46 123 54 63 38 124 41 46 27 29 46 123 47 55 46 123 59 125 47 55 55 65 38 124 54 63 41 46 38 124 10 121 6 66 47 55 59 125 12 126 8 126 33 126 31 35 10 11 38 127 23 85 59 84 3 105 38 127 37 42 31 35 50 58 8 9 30 34</p>
        </triangles>
      </mesh>
    </geometry>
  </library_geometries>
  <library_visual_scenes>
    <visual_scene id="scene">
      <node id="right_wrist_pitch_link">
        <instance_geometry url="#geometry">
          <bind_material>
            <technique_common>
              <instance_material symbol="scout_1a1a1a" target="#scout_1a1a1a" />
            </technique_common>
          </bind_material>
        </instance_geometry>
      </node>
    </visual_scene>
  </library_visual_scenes>
  <scene>
    <instance_visual_scene url="#scene" />
  </scene>
</COLLADA>