<?xml version='1.0' encoding='utf-8'?>
<COLLADA xmlns="http://www.collada.org/2005/11/COLLADASchema" version="1.4.1">
  <asset>
    <created>2026-09-14T00:00:00Z</created>
    <modified>2026-09-14T00:00:00Z</modified>
    <unit name="metre" meter="1" />
    <up_axis>Z_UP</up_axis>
  </asset>
  <library_effects>
    <effect id="scout_1a1a1a_effect">
      <profile_COMMON>
        <technique sid="common">
          <lambert>
            <emission>
              <color>0 0 0 1</color>
            </emission>
            <ambient>
              <color>0.05 0.05 0.05 1</color>
            </ambient>
            <diffuse>
              <color>0.1 0.1 0.1 1</color>
            </diffuse>
          </lambert>
        </technique>
      </profile_COMMON>
    </effect>
  </library_effects>
  <library_materials>
    <material id="scout_1a1a1a" name="scout_1a1a1a">
      <instance_effect url="#scout_1a1a1a_effect" />
    </material>
  </library_materials>
  <library_geometries>
    <geometry id="geometry" name="right_hip_roll_link">
      <mesh>
        <source id="positions">
          <float_array id="positions_array" count="594">-0.034804631 -0.0374121778 -0.417876333 -0.0356560685 -0.0301939268 -0.429046154 -0.027835574 -0.0390192904 -0.432991773 -0.0286225509 -0.0319834203 -0.441593468 -0.0381058492 -0.0309667084 -0.392654657 -0.0332056582 -0.042861104 -0.375927418 -0.0391851477 -0.0381079987 -0.298420161 -0.038473215 -0.0391848087 -0.356443077 -0.0323393978 -0.0458590016 -0.299192578 -0.0436630212 -0.0405284166 -0.254558921 -0.0366594791 -0.0473344326 -0.255127937 -0.0393116884 -0.0300058722 -0.334557295 -0.0089816656 -0.0348365717 -0.449827939 -0.016540844 -0.0300145466 -0.449067354 -0.0555225052 -0.0398667939 -0.209511533 -0.0462847054 -0.0445551239 -0.232046053 -0.0528204627 -0.0463004373 -0.194809392 -0.0616284721 -0.0390721969 -0.181666493 -0.0619211532 -0.0429914594 -0.153437793 -0.0540632047 -0.0476732664 -0.138225645 -0.0654199645 -0.0354425013 -0.138976365 -0.05980023 -0.041842889 -0.0950662643 -0.0528614819 -0.0477590933 -0.0950431302 -0.0411270149 -0.0489906482 -0.0824986547 -0.0495787673 -0.0395256579 -0.0801600739 0.0255490635 -0.0187189225 -0.0278624725 0.0280335918 -0.0260012355 -0.0275548976 0.0269131064 -0.0353522114 -0.0065213195 -0.0612191223 0.0168324374 -0.0926294997 -0.0648360699 -0.00808945578 -0.108617112 -0.00911620073 -0.0524425469 -0.207789317 0.0550030507 0.0468720049 -0.235856637 0.0449236967 0.0496536233 -0.184137642 0.0484762341 0.0475288592 -0.150184333 -0.011155366 -0.0540641733 -0.0841266438 -0.0358104594 -0.0424908623 -0.0753490329 -0.0160629191 -0.049454093 -0.0774385184 0.0260779671 -0.0452555753 -0.0752495751 -0.0379573666 0.0308424905 -0.392221481 -0.0331130922 0.0381317101 -0.426395714 -0.0353444703 0.0306001008 -0.431408316 -0.0413087271 0.0414875709 -0.291898161 -0.039291136 0.0303692501 -0.335413396 -0.0333694033 0.0449296124 -0.346376479 -0.039935559 0.0479044579 -0.254510701 -0.0143345576 -0.0292657614 -0.383817285 -0.0142928148 0.0292240381 -0.384079665 -0.00836128928 -0.0286550913 -0.374058455 -0.0280606207 0.0314375423 -0.441962928 -0.0133202616 0.0358602032 -0.448631942 -0.0169430859 0.0308140218 -0.449254364 -0.0394378491 0.0186412334 -0.0759640858 -0.0236082431 0.0291780531 -0.347347319 -0.0294320807 0.028968446 -0.358594894 -0.0295774285 -0.0291637667 -0.358712435 0.0110044554 0.0380631946 -0.445050806 -0.0513176769 0.0175695363 -0.08095029 -0.0596446432 0.0278328806 -0.0978586301 -0.0566714108 0.0417522937 -0.213276356 -0.0555653535 0.0467955582 -0.199035287 -0.046889022 0.0433415957 -0.248357877 -0.0635688156 0.0417966805 -0.180698842 -0.061287649 0.0449031852 -0.116660744 -0.0664062575 0.0404370613 -0.142291069 -0.0335871615 0.0311870184 -0.0980473161 -0.0595044941 0.0439788066 -0.110709161 -0.0649124607 0.0385152884 -0.114304125 -0.0477079451 0.048178643 -0.182578519 -0.0397782661 0.0535379089 -0.18926698 -0.0286763627 0.0495858118 -0.212149888 -0.0435026512 0.0582583509 -0.174229249 -0.035270445 0.0583969802 -0.194096431 -0.0447365455 0.0488547347 -0.145026341 -0.0437750444 0.0528498851 -0.153389409 -0.0421007536 0.0586048812 -0.150874451 -0.0215491559 0.0533008538 -0.126303375 -0.026831802 0.0486558639 -0.120821878 -0.0220172014 0.0587511957 -0.128304854 -0.0219192728 0.0527648628 -0.207111448 -0.0237672422 0.0599703826 -0.203013197 -0.0175227411 0.0593211763 -0.180697545 0.0179329906 0.0463494807 -0.110081367 -0.00797924213 0.0527673699 -0.212010548 -0.00957343448 0.0597878173 -0.20914489 0.018629618 0.0501046553 -0.216210365 0.0146870734 0.052995991 -0.210550964 0.0138666024 0.0595596842 -0.207799137 0.0140787624 0.0586494058 -0.124052711 0.00666593667 0.0529395379 -0.121208347 0.0151020885 -0.0317052975 -0.449370652 0.00768955145 -0.03781268 -0.445920974 0.0275430493 0.0215617325 -0.0779825374 0.0270552728 0.0150929512 -0.0739317909 0.0283309445 -0.0315021463 -0.443733692 0.0415964462 -0.0397613943 -0.422334254 0.042340897 -0.0317071639 -0.430219203 0.0488663577 -0.0302459095 -0.416133434 0.0496657491 -0.0362743475 -0.411448151 0.0489958934 -0.0442818329 -0.352625757 0.052365724 -0.0301387813 -0.381577522 0.055843059 -0.034874972 -0.320495844 0.0522005968 -0.0307185501 -0.399998754 0.049999848 -0.0419526063 -0.312763542 0.0277254228 -0.0168063976 -0.0723480433 0.0319167376 -0.0457959883 -0.0718076006 0.0281748381 -0.050133165 -0.000916732883 0.0298389234 -0.0451108366 -0.0417161211 0.031868387 -0.0500487648 -0.0245572794 0.0268261041 0.0152557455 -0.0339929424 0.039512597 -0.0504570864 -0.0807929859 0.0554447137 -0.0469209403 -0.0448137186 0.0501722842 -0.0495028235 -0.0141888577 0.0480754115 -0.0449773297 0.0120158708 0.042127151 -0.048622638 0.0147808306 0.0619909838 -0.0443356149 -0.126073882 0.0507603586 -0.0459058918 -0.229217112 0.0606413186 -0.0380545035 -0.219812974 0.0552247018 -0.0473216549 -0.131166518 0.063111417 -0.0387837179 -0.0608821847 0.0559682995 -0.0424293317 -0.0202523842 0.0556375608 -0.0123931477 -0.0100924494 0.0626154765 0.017167747 -0.0508866347 0.0670329779 -0.0323863365 -0.114490509 0.0307427496 0.0484277271 -0.124549061 0.0631009415 0.0444746949 -0.115063973 0.0584470704 0.0419310853 -0.274988383 0.0535582043 0.0443458036 -0.303600669 0.0294236094 -0.00553856278 0.0500587858 0.0280096084 0.0170193911 0.0465968177 0.0279286336 -0.0231201611 0.0434561484 0.0404554643 -0.0329702906 0.0365339145 0.028128298 -0.0413920358 0.0278912932 0.0389771983 -0.0168191846 0.0454753414 0.0172797125 0.0303637479 -0.448909551 0.029289335 0.0315127969 -0.442985326 0.0363003872 0.0369552039 -0.433733404 0.0379852019 0.0393644571 -0.426183283 0.0432634838 0.0300866123 -0.427813262 0.0477118976 0.040000692 -0.404448807 0.0503526591 0.0317243449 -0.412857413 0.0476672649 0.0443183444 -0.352363706 0.0511296093 0.0403519645 -0.375110894 0.0551934205 0.0393326506 -0.337192088 0.052438356 0.0300619788 -0.381445885 -0.0011145802 0.0594782978 -0.162083283 0.0115718171 0.0599528328 -0.174634397 0.0224532392 0.0595351234 -0.194836751 0.0251145493 0.0530635938 -0.128482372 0.0367919579 0.0490240455 -0.204420045 0.0337914675 0.0585660264 -0.196106195 0.0334958322 0.0530311577 -0.197497413 0.0408722721 0.0587217808 -0.148721516 0.0342233367 0.0253317151 -0.0897159427 0.0114599532 0.03238694 -0.0979755744 0.0356397852 0.0200278107 -0.0634258017 0.0285580419 0.0192474667 -0.0568192527 0.0615826622 0.0188910831 -0.0828965455 0.0252680052 -0.0460250117 -0.315920919 0.0289852414 0.0286919642 -0.0444673672 0.0567964837 0.0242562033 -0.0490721278 0.0434059724 0.0580688678 -0.174544573 0.0431663543 0.0531450175 -0.149608716 0.0285520162 0.0496255532 0.00166336913 0.0458168313 0.0498727299 0.00634447299 0.0515540428 0.0467348509 -0.0184286423 0.0633110628 0.0300145689 -0.100266583 0.0604518466 0.0169191808 -0.0646807328 0.0664660186 0.0150094526 -0.0889190435 0.0643998906 0.042010244 -0.169549465 0.0605513677 0.0428680517 -0.23132585 0.0671543628 0.0391483717 -0.113838464 0.0581605248 0.0366066732 -0.0228143167 0.0516632497 0.0461152084 0.00256805355 0.0281178225 0.0460686497 0.0193600208 0.026325874 0.0322049372 -0.0127932187 0.0266946182 0.0340156779 0.0105300527 0.0281057116 0.0453835391 -0.0205888543 0.0407277942 0.0292821955 0.0390078016 0.0362470746 0.0140240109 0.0475086644 0.0280454624 0.0312219951 0.0382381044 0.039216198 0.0422578044 0.0270918459 0.045838397 0.038824819 0.0254483838 -0.066382207 -0.00942889228 -0.153758422 -0.0480937362 -0.0115701053 -0.245636344 -0.041913569 -0.0145739997 -0.284562349 -0.02352391 -0.0289058592 -0.347494632 -0.00157135737 -0.0476958156 -0.311058044 0.0224211458 -0.0517582335 -0.196292847 -0.0618303418 -0.0111455526 -0.193649441 -0.0288053192 -0.0292247366 -0.373710901 -0.0288391244 0.0292124655 -0.373279482 -0.00815608818 0.0286538079 -0.37400806 -0.00132931361 0.0481863432 -0.296870798 0.0266763382 -0.00764527451 0.0351030268 0.0261983927 0.021029802 0.0280287303 0.0263487734 -0.0299671087 0.017453339 0.0466791131 -0.0281846821 -0.374008387 0.0467249714 0.0282556918 -0.374039084</float_array>
          <technique_common>
            <accessor source="#positions_array" count="198" stride="3">
              <param name="X" type="float" />
              <param name="Y" type="float" />
              <param name="Z" type="float" />
            </accessor>
          </technique_common>
        </source>
        <source id="normals">
          <float_array id="normals_array" count="993">-0.775247753 -0.62006253 -0.120471589 -0.828819692 -0.487091571 -0.275317401 -0.417456746 -0.857857227 -0.299684554 -0.508809209 -0.668123364 -0.542885244 -0.924004614 -0.380445838 -0.0384241454 -0.481375515 -0.871536255 -0.0932856053 -0.751121163 -0.657572567 -0.0584403053 -0.892335296 -0.450312167 -0.0309307463 -0.432482988 -0.900125921 -0.0522667766 -0.888960361 -0.421834528 -0.178339779 -0.410620391 -0.90727967 -0.0907442272 -0.998514235 -0.0491967611 -0.0234303549 -0.184515074 -0.86964941 -0.457890898 -0.395743787 -0.498756081 -0.771122038 -0.89688462 -0.389282256 -0.209898189 -0.680979311 -0.712282777 -0.170059919 -0.479852527 -0.872875869 -0.0884829983 -0.91529876 -0.382075101 -0.127462715 -0.756869555 -0.652631164 -0.0349425897 -0.356072605 -0.934443176 0.00531890849 -0.968248904 -0.249320179 0.0182611905 -0.845109582 -0.432225257 0.314596802 -0.454319179 -0.870766103 0.188043848 -0.316338897 -0.828690052 0.461738616 -0.592969716 -0.290198535 0.751113653 -0.994028807 -0.0942505077 -0.0549875014 -0.985350966 -0.149170294 -0.0826537758 -0.992488205 -0.113461874 -0.0457550846 -0.873261034 0.138178736 0.467249155 -0.98802942 -0.032642547 0.150772303 -0.0516723655 -0.998244107 -0.0289591849 0.35788402 0.933154643 -0.033784654 0.333009452 0.942788482 -0.0159568563 0.176991299 0.984075844 0.0163943861 -0.0251698326 -0.957962692 0.285786629 -0.194843844 -0.319327325 0.92739743 -0.0489315242 -0.640201926 0.766646743 -0.0513436757 -0.602266014 0.796642661 -0.949585199 0.306861132 -0.0642201602 -0.589614034 0.783932209 -0.19443652 -0.824950039 0.461539388 -0.32624957 -0.938430011 0.334470659 -0.0864780098 -0.998045206 -0.0532820709 -0.0326608121 -0.722081482 0.689051509 -0.06169606 -0.630346596 0.766572058 -0.12259876 0.852989435 -0.0029500362 -0.521919847 0.853781283 -0.00264478754 -0.520625114 0.85310185 -0.00290674181 -0.521736324 -0.505934298 0.693588853 -0.51280117 -0.238963678 0.893968821 -0.379099101 -0.47628963 0.436119199 -0.763510466 -0.180640772 0.473985285 0.861804426 -0.886935472 0.000768260623 0.461892754 -0.976284266 0.000761007017 0.216491327 -0.976344764 0.00035402854 0.216219336 0.0911115929 0.844336689 -0.528009713 -0.54145962 0.3388367 0.769422591 -0.600489259 0.550857604 0.579627991 -0.73867327 0.65140152 -0.173314333 -0.477460533 0.873925388 -0.0910266936 -0.637022972 0.755737543 -0.151863232 -0.5879215 0.808167517 -0.0348370411 -0.528253138 0.834388375 0.157304332 -0.903868854 0.427719861 -0.00876498781 -0.0481349602 0.777487218 0.627053976 -0.0705356747 0.869103253 0.489575595 -0.919984221 0.302677274 0.249029011 -0.772001386 0.467544764 0.430599362 -0.816020668 0.520247877 -0.251897603 -0.769016743 0.50466907 -0.392329425 -0.727689087 0.523299813 -0.443425238 -0.906708539 0.41483441 -0.0761055574 -0.833749354 0.433114827 -0.342452228 -0.948619187 0.313101947 0.0457041189 -0.938583076 0.338771224 0.0655429065 -0.963864923 0.263596922 0.0384852961 -0.314182281 0.627354681 0.71254164 -0.207754597 0.976993859 0.0481770635 -0.145857319 0.929883838 0.337700576 -0.430953622 0.317367107 0.844723105 -0.642275512 0.514429748 0.568193853 -0.645850837 0.481231362 0.592699766 -0.707072079 -0.0454184227 -0.705681384 -0.697183371 0.00390767213 -0.716882169 -0.428774089 0.341685623 -0.836303592 -0.234019652 0.932642579 -0.274613529 -0.177025691 0.922005236 -0.344337344 -0.196405217 0.91210413 -0.359848708 -0.513477683 0.307694852 -0.801039636 -0.0235281307 0.999682188 0.00904997997 -0.0303381924 0.998948753 0.0343662277 -0.0683988258 0.997419834 0.0218010414 0.0691425577 0.816850901 0.572690129 -0.118024707 0.368030399 -0.922292709 -0.202422842 0.330682278 -0.921777725 -0.0791918486 0.622223079 -0.77882421 0.0890146345 0.981474757 -0.169657469 0.279742658 0.384299755 -0.879805505 0.0153353307 0.999881685 -0.00121844956 0.0100990701 0.999928534 -0.00639554532 -0.132672399 0.531798422 0.836414039 -0.050610546 0.758784533 0.649372458 0.0896273851 -0.570074856 -0.816689432 0.241248921 -0.682497621 -0.689924657 0.0870335996 -0.86324662 -0.497222662 0.0681266263 0.877743423 0.474262804 -0.0154664023 0.262726665 0.964746356 -0.00124899962 0.153896138 -0.988086224 0.334873527 -0.775866508 -0.534687638 0.432596534 -0.845642626 -0.312647969 0.646676779 -0.548354447 -0.530204237 0.928563893 -0.143056244 -0.342496783 0.843771935 -0.492437154 -0.213435173 0.520122588 -0.852681279 -0.0490628444 0.963483036 0.265568763 -0.0342584029 0.943426013 -0.329699278 -0.03529514 0.91511637 0.402649045 -0.0208758023 0.488379061 -0.872429252 -0.0187898036 0.959715188 -0.268718034 -0.0820814893 -0.967822433 -0.0274608452 0.250131369 -0.535767496 -0.0549087711 0.842578351 -0.510948896 -0.0578841642 0.857659996 -0.714569271 -0.690195918 -0.114106767 -0.950073302 -0.308803976 -0.0447308831 -0.71956861 -0.686041713 -0.107553609 -0.338650763 -0.154739231 -0.928101003 -0.316873074 -0.893597841 0.317921877 -0.670200825 -0.741117358 0.0396985523 0.525825083 -0.849325955 0.0464051366 0.0744357407 -0.997007608 -0.020859357 0.158433244 -0.987360001 0.00437256321 0.482125759 -0.873194277 0.071319595 -0.0198871642 -0.995457649 0.0931049585 0.829809308 -0.464078337 0.3099159 0.252135307 -0.901367903 0.352084845 0.723784626 -0.689846396 -0.0157400835 0.345970184 -0.93720746 -0.0441223904 0.900254428 -0.431762666 -0.0558831282 0.295358926 -0.955235541 -0.0169761647 0.937142551 -0.33774063 0.0877221078 0.932017207 -0.326280713 0.157749042 0.974779189 -0.0248919334 0.221778989 0.990345895 -0.0120198047 0.138096169 0.980851471 -0.194723368 0.00363722909 0.217792496 0.933484316 0.284909606 0.441511869 0.839196086 0.317517221 0.634992421 0.771270037 -0.0438989215 0.55129534 0.832428515 -0.0560024492 -0.962981939 -0.0190962236 0.268888652 -0.996644974 0.0217865668 0.0788929462 -0.995093822 -0.0408642963 0.0901024491 0.0681153387 -0.66750294 0.741485059 -0.00884594768 -0.819044888 0.573661208 0.0332225002 -0.487314075 0.872594535 0.605454206 -0.22582081 0.763171136 0.271603465 -0.082682848 0.95885092 0.227877051 0.561120689 -0.795748472 0.0210652482 0.167066008 -0.985720634 0.0115110623 0.114263952 -0.993383706 0.316922039 0.674365938 -0.666926503 0.225596726 0.879945278 -0.418093741 0.054723762 0.990923584 -0.122783199 0.772583604 0.301704586 -0.558649182 0.773111641 0.44556275 -0.451411307 0.732321441 0.175231591 -0.658026695 0.769263387 0.522517979 -0.367707461 0.555776596 0.818966985 -0.142847821 0.8112005 0.506250501 -0.292684406 0.320766509 0.945124745 -0.0620324612 0.816447675 0.571032465 -0.0856456012 0.654649973 0.752280951 -0.0742074251 0.998140693 0.00994676165 -0.0601347201 0.992527425 0.102827266 -0.0656948984 0.121300057 0.911299467 -0.393471152 0.272435009 0.400785029 -0.874728858 -0.00339871692 0.999986827 0.00384782767 -0.102049269 0.991912067 -0.0754748508 0.0524590835 0.998588204 -0.00834727939 0.366848558 -0.0128859375 0.930191398 -0.994032502 -0.0155221457 0.107974544 0.179368645 0.971237004 -0.156606257 0.695870042 0.239109561 -0.67719382 0.0838770643 0.996409714 -0.0115028648 0.66497618 0.148463711 -0.73195982 0.410803199 0.860151172 -0.302292317 0.690909445 0.162280932 0.704492092 0.724658728 0.261869818 0.637411892 0.540515959 0.60093087 0.588833213 0.562601924 0.571161985 0.597706437 0.314289212 0.806479275 0.500812829 0.100496389 0.883875012 0.45679912 0.0153372455 0.776066124 0.630464971 -0.797925889 0.361972779 0.481964737 -0.472661704 0.777504265 -0.414822906 -0.373644531 0.878834605 -0.296714604 -0.291035116 0.93525219 -0.201499239 0.0952073783 0.982157171 -0.162181631 0.0955226049 0.939269006 0.329619676 0.101416215 -0.994749665 -0.0137071209 -0.540358663 0.67734164 -0.499220192 0.0442662984 0.855822325 -0.515372276 0.0674505755 0.878349423 -0.473236442 0.856727242 0.416462779 -0.304264933 0.913598955 0.387496561 -0.123220652 0.926224828 0.368039846 0.0815736949 0.773829877 0.582702458 0.248284444 0.759214103 0.604246616 0.241826192 0.743767262 0.204729095 0.636314631 -0.0334857032 0.999417543 -0.00657703122 0.325604409 0.926221132 0.189990059 0.434124708 0.861915171 -0.261988372 0.402901351 0.683006227 0.609239638 0.75216645 0.625754714 0.206583291 0.703908861 0.700166941 0.119492814 0.780694008 0.529319644 0.332170933 0.117853709 0.986515522 -0.113567613 0.733120501 0.649015784 -0.203255489 0.749942482 0.648739219 -0.129319981 0.699878097 0.650212049 -0.295626223 0.591783822 0.805783451 -0.0224711988 0.602090299 0.797774494 -0.032297045 0.598114371 0.576111317 0.55709517 0.938001812 0.345671862 -0.0257608984 0.848495603 0.491583794 0.19596073 0.999703348 -0.00147472462 -0.0243113153 0.998242557 -0.00992554892 0.0584232286 0.148270845 0.988093972 -0.0410618596 0.796669304 0.604357839 -0.00834309869 -0.99494338 0.0947742835 0.0332492031 -0.996894658 0.0735973045 -0.0280078743 -0.996199667 0.0843981653 0.0215225033 -0.993578494 0.11313308 -0.00163899292 -0.993249178 0.10415674 -0.0510625802 0.921517372 0.0194188375 0.387851357 0.44288671 0.193721771 0.875398934 0.0139913559 0.363818139 0.931364894 0.109236926 0.598949134 0.793301463 0.000716793002 0.629810452 0.776748538 0.195700869 0.798412144 0.56942004 0.508800149 0.692277789 0.511736095 -0.0390850343 0.917279005 0.396322519 -0.998064578 -0.0358145349 -0.0508367047 -0.976581812 -0.0364829935 -0.21203059 -0.994730949 -0.0349203274 -0.096389465 -0.611784697 -0.00860839151 -0.790977478 -0.633871973 0.00104122725 -0.773437262 -0.628030956 -0.00153461308 -0.778186798 -0.606057048 -0.0110714491 -0.795344114 -0.0114765884 -0.998815775 -0.0472793393 0.100197546 -0.994661987 -0.0246582758 -0.982192039 -0.0378816612 -0.184021264 0.934393883 -0.103234172 0.340955734 -0.0114127453 0.999276936 -0.0362672806 0.0140608056 0.996445119 -0.0830624551 0.00591620011 0.994185686 -0.107516326 -0.00170223636 0.999796629 -0.0200946275 0.293661952 0.955349863 -0.0326999314 -0.248389527 0.968406916 0.0221512616 0.0155714219 0.999534905 -0.0262195785 -0.120076172 0.992239416 -0.0322893932 -0.0801341534 0.996735275 -0.00986396242 0.0224611387 0.999380231 -0.0271053296 -0.0120598935 0.998865247 -0.0460734144 -0.0649423227 0.997170985 -0.0378481597 -0.340394646 0.885214269 -0.317060232 -0.118333161 0.992905974 -0.0116178095 -0.0916867256 0.995785415 -0.00223331666 -0.0612564199 0.998070836 0.010109459 -0.979419649 0.00471403403 -0.201779321 -0.591758668 0.0039278199 -0.806105614 -0.572582901 -0.00326908682 -0.819840312 -0.577112675 -0.0015809231 -0.816663027 -0.596117437 0.00558247091 -0.802877843 -0.880011618 -0.00248227199 0.474945724 0.85389775 -0.00259982096 -0.52043426 -0.996545076 -0.0813536122 -0.016718816 -0.0106190415 0.997870505 -0.0643559694 -0.00272026774 0.999204278 -0.0397923775 -0.159999073 -0.987081409 -0.00840024278 -0.0442324951 -0.998158753 0.0415043943 -0.0970405117 -0.995135605 0.0169771202 -0.118645646 -0.992474735 -0.0302831102 0.0138164442 -0.996996939 -0.0761987865 -0.0142756365 -0.999274135 -0.0353179835 0.0177110508 -0.99469918 -0.101291239 0.0291335024 -0.999563813 0.00484435121 0.369177312 -0.92644459 -0.0735426098 -0.0827216506 -0.996446788 0.0158388708 0.0433948748 -0.99905163 0.0035702202 -0.0759561583 -0.996965408 -0.0170463547 -0.0261625443 -0.998931527 -0.0380965956 -0.0362422355 -0.998778403 -0.0335884877 -0.189582214 -0.959799707 -0.206985772 -0.990065396 0.0123106902 -0.140067831 -0.970354736 0.00947132707 -0.241499498 -0.051833339 0.998276651 -0.0275145806 -0.0721021518 0.997225881 -0.0184886549 -0.174795955 0.984603643 -0.00141327351 -0.0438083969 0.998970091 -0.0118128275 -0.0263583977 0.999648392 0.00287871459 -0.00972310454 0.999832511 0.0155051453 0.0197847411 0.999788761 -0.00556358323 0.00684230775 0.99979496 0.0190575402 0.0338623524 0.999394953 0.00794392545 0.0299328379 0.999533236 -0.00611063186 -0.0158543997 0.915985763 -0.400897443 -0.996905982 -0.0135069452 0.0774337426 -0.996328294 0.0432129763 0.0739093199 -0.996730268 -0.0723628774 0.0359497443 -0.996874094 0.0476772003 -0.0629997402 -0.00803006347 0.966745317 -0.255614936 0.000186172474 0.00018595015 -0.99999994 0.000154124631 0.000155025104 -1 -0.000569669064 -0.000543410191 -0.999999702 0.00090142031 0.000876138976 -0.999999225 -0.792070448 0.00229040068 -0.610425353 -0.798609257 0.000551604608 -0.601849616 -0.792749703 0.00211096345 -0.609543681 -0.799462259 0.000322884909 -0.600716233 0.998536766 -0.00134769222 -0.0540606678 0.998238981 0.00709564472 -0.0588948317 0.998772085 -0.0046378877 -0.04932357 -0.99495697 -0.0853193477 0.0527374074 -0.993769705 0.0764947757 -0.0810573176 -0.999085426 0.00477084797 0.0424922146 -0.994451523 0.066303663 0.0816700161 0.95781827 0.00320095592 0.287356734 -0.995324612 -0.08390598 -0.0478407666 -0.00717495568 -0.970214963 -0.242139399 -0.998763442 0.00214478094 -0.0496689081 -0.999185503 -0.000280150794 -0.0403512269</float_array>
          <technique_common>
            <accessor source="#normals_array" count="331" stride="3">
              <param name="X" type="float" />
              <param name="Y" type="float" />
              <param name="Z" type="float" />
            </accessor>
          </technique_common>
        </source>
        <vertices id="vertices">
          <input semantic="POSITION" source="#positions" />
        </vertices>
        <triangles material="scout_1a1a1a" count="392">
          <input semantic="VERTEX" source="#vertices" offset="0" />
          <input semantic="NORMAL" source="#normals" offset="1" />
          <p>0 0 1 1 2 2 1 1 3 3 2 2 4 4 0 0 5 5 6 6 7 7 8 8 8 8 7 7 5 5 6 6 8 8 9 9 9 9 8 8 10 10 1 1 0 0 4 4 4 4 7 7 11 11 2 2 3 3 12 12 13 13 12 12 3 3 14 14 9 9 15 15 16 16 17 17 14 14 18 18 17 17 16 16 19 19 18 18 16 16 20 20 18 18 21 21 19 19 21 21 18 18 22 22 21 21 19 19 21 21 22 22 23 23 24 24 21 21 23 23 25 25 26 26 27 27 28 28 29 29 21 21 19 19 16 16 30 30 31 31 32 32 33 33 23 23 22 22 34 34 16 16 14 14 15 15 16 16 15 15 10 10 35 35 24 24 23 23 36 36 35 35 23 23 37 37 35 35 36 36 38 38 39 39 40 40 41 41 39 39 38 38 41 41 38 38 42 42 43 43 39 39 41 41 41 41 44 44 43 43 45 45 46 46 47 47 39 39 48 48 40 40 39 39 49 49 48 48 49 49 50 50 48 48 51 51 24 24 35 35 52 52 53 53 54 54 39 39 55 55 49 49 56 56 57 57 28 28 56 56 51 51 57 57 58 58 59 59 60 60 59 59 58 58 61 61 62 62 59 59 61 61 63 63 62 62 61 61 64 64 65 65 57 57 62 62 63 63 66 66 65 67 66 66 28 28 65 67 28 28 57 57 65 67 62 62 66 66 59 59 44 44 60 60 67 68 68 69 69 70 70 71 71 72 68 69 70 71 67 68 72 73 72 73 73 74 70 71 74 75 70 71 73 74 70 71 68 69 67 68 74 75 73 74 72 73 75 76 72 77 76 78 77 79 74 80 72 81 68 82 71 83 78 84 68 85 78 86 69 87 71 83 79 88 78 84 80 89 79 90 71 91 77 79 72 81 75 76 65 65 81 92 76 78 23 23 34 34 36 36 79 88 82 93 78 84 79 88 83 94 82 93 78 86 82 95 69 87 82 95 84 96 69 87 83 94 85 97 82 93 79 90 86 98 83 99 80 89 86 98 79 90 87 100 77 79 75 76 87 100 75 76 88 101 76 78 88 101 75 76 81 92 88 101 76 78 12 102 89 103 90 104 91 105 51 51 92 106 21 21 24 24 28 28 13 107 89 107 12 107 89 103 93 108 90 104 94 109 90 104 93 108 95 110 94 109 93 108 95 110 96 111 97 112 97 112 98 113 94 109 99 114 100 115 101 116 100 115 98 113 97 112 100 115 102 117 98 113 96 111 101 118 97 112 42 42 11 11 41 41 37 37 36 36 34 34 103 119 37 120 104 121 105 122 106 123 107 124 25 125 108 125 26 125 109 126 104 127 37 37 107 124 106 123 104 127 110 128 107 129 109 130 111 131 105 132 107 129 112 133 113 134 111 131 102 117 114 135 115 136 116 137 114 135 102 117 10 10 15 15 9 9 114 135 117 138 115 136 114 135 118 139 110 128 118 139 119 140 110 128 118 139 120 141 119 140 119 140 111 131 110 128 119 140 112 133 111 131 120 141 118 139 121 142 66 66 29 29 28 28 116 137 122 143 114 135 33 33 123 144 124 145 125 146 126 147 31 31 127 148 128 149 129 150 130 151 131 152 113 134 131 152 105 132 113 134 130 151 113 134 112 133 130 151 129 153 131 152 132 154 129 153 130 151 132 154 127 155 129 153 55 55 133 156 49 157 50 158 49 157 133 156 55 55 134 159 133 156 55 55 135 160 134 159 55 55 136 161 135 160 135 162 137 163 134 164 136 165 138 166 139 167 136 165 137 163 135 162 136 165 139 167 137 163 138 166 140 168 141 169 109 126 107 124 104 127 140 168 142 170 141 169 141 169 142 171 143 172 141 169 143 172 139 167 126 147 142 170 140 168 142 170 126 147 125 146 82 95 85 173 84 96 83 94 86 174 85 97 144 175 145 176 146 177 94 109 95 110 97 112 81 92 123 144 88 101 87 178 88 178 147 178 92 179 37 120 103 119 85 173 148 180 84 96 86 174 149 181 85 97 146 177 149 182 86 98 149 181 150 183 85 97 85 173 150 184 148 180 145 176 149 182 146 177 144 185 149 185 145 185 151 186 87 187 147 188 147 189 88 101 123 144 152 190 153 191 91 105 92 192 154 192 91 192 155 193 154 194 92 195 154 196 156 197 91 105 157 198 98 113 102 117 155 193 158 199 154 194 158 200 159 201 154 196 81 92 124 145 123 144 149 181 32 202 150 183 150 184 32 32 148 180 149 181 160 203 32 202 160 203 151 204 161 205 160 203 161 205 33 206 151 186 147 188 161 207 161 205 147 189 123 144 123 144 33 206 161 205 162 208 163 209 164 210 156 197 165 211 152 190 156 212 166 213 167 214 159 201 166 215 154 196 121 216 166 217 159 218 31 31 168 219 169 220 31 31 124 145 168 219 165 211 170 221 124 145 164 210 121 216 159 218 164 210 171 222 121 216 164 210 172 223 171 222 163 209 172 223 164 210 170 224 167 225 122 143 167 226 166 226 121 226 165 211 167 214 170 221 165 211 156 212 167 214 124 145 170 227 168 219 173 228 174 229 175 230 173 228 162 231 176 232 177 233 178 234 132 154 178 234 128 235 127 155 178 234 127 155 132 154 177 236 179 237 128 235 177 236 128 235 178 234 180 238 181 239 163 209 163 209 181 239 172 223 179 237 177 236 180 238 181 239 180 238 177 236 173 240 163 209 162 208 182 241 20 20 29 29 183 242 184 243 9 9 20 20 21 21 29 29 52 244 185 245 11 246 42 247 52 244 11 246 152 190 165 211 153 191 98 113 186 248 94 109 94 109 186 248 5 5 90 104 94 109 2 2 94 109 5 5 2 2 2 2 5 5 0 0 187 249 186 248 157 198 182 241 188 250 20 20 130 251 112 133 132 154 132 154 112 133 120 141 14 14 17 17 188 250 45 252 47 253 99 254 45 252 99 254 95 255 99 254 101 256 96 257 99 254 96 257 95 255 45 252 95 255 93 258 189 259 45 252 4 260 45 252 89 261 13 262 45 252 93 258 89 261 1 263 45 252 13 262 45 252 1 263 4 260 1 263 13 262 3 264 189 259 4 260 54 265 4 260 11 266 54 265 11 266 185 267 54 265 14 14 188 250 9 9 188 250 183 242 9 9 180 238 163 209 173 240 188 250 17 17 20 20 16 16 10 10 30 30 104 127 106 123 103 119 86 98 80 89 146 177 37 37 51 51 35 35 51 51 37 37 92 106 41 41 184 243 60 268 22 22 19 19 34 34 166 215 156 197 154 196 20 20 17 17 18 18 186 248 187 249 30 30 46 269 45 270 189 271 190 272 46 269 189 271 185 273 52 52 54 54 102 117 115 136 187 249 46 46 191 274 47 47 27 27 26 26 105 275 26 26 106 123 105 275 140 168 43 276 192 277 53 278 52 279 42 280 190 281 53 278 42 280 191 282 46 283 143 284 143 284 46 283 134 285 139 286 143 284 137 287 137 287 143 284 134 285 134 285 46 283 133 288 46 283 190 281 38 289 133 288 46 283 50 290 190 281 42 280 38 289 40 291 46 283 38 289 46 283 40 291 50 290 40 291 48 292 50 290 63 63 61 293 182 241 30 30 8 8 186 248 5 5 7 7 4 4 187 249 157 198 102 117 58 294 60 268 183 242 63 63 29 29 66 66 122 143 118 139 114 135 188 250 58 294 183 242 61 293 58 294 188 250 62 62 76 78 72 77 118 139 122 143 167 225 24 24 51 51 56 56 192 277 44 295 69 296 59 59 62 62 67 297 51 51 91 105 64 64 153 191 64 64 91 105 65 65 76 78 62 62 57 57 51 51 64 64 71 91 70 298 80 89 70 298 74 299 80 89 144 175 80 89 74 299 144 175 74 299 77 300 151 301 144 175 87 302 149 303 144 175 160 304 144 175 77 300 87 302 160 304 144 175 151 301 61 293 188 250 182 241 192 277 69 296 84 96 148 180 32 32 31 31 119 140 120 141 112 133 176 305 164 210 158 200 28 28 24 24 56 56 186 248 98 113 157 198 193 306 194 307 25 25 195 308 193 306 25 25 25 25 27 27 195 308 194 307 175 230 174 229 25 25 194 307 174 229 25 25 174 229 108 309 99 254 47 253 196 310 102 117 100 115 116 137 196 311 191 312 197 313 191 312 196 311 47 314 100 115 97 112 101 118 114 135 110 128 117 138 34 34 19 19 30 30 187 249 109 130 34 34 30 30 187 249 34 34 90 104 2 2 12 12 115 136 117 138 187 249 109 126 37 37 34 34 117 138 109 130 187 249 143 315 99 316 197 317 99 316 196 318 197 317 103 119 106 123 26 26 44 44 41 41 60 60 113 134 105 132 111 131 142 171 100 115 143 172 100 115 99 114 143 172 109 130 117 138 110 128 122 143 100 115 168 319 169 320 168 319 100 115 125 321 100 115 142 171 125 321 169 320 100 115 29 29 63 63 182 241 60 268 184 243 183 242 122 143 116 137 100 115 144 175 146 177 80 89 121 142 118 139 167 225 67 297 62 62 72 77 26 26 108 309 103 119 111 131 107 129 110 128 131 322 193 306 195 308 108 309 174 229 176 232 103 119 108 309 158 323 155 324 103 119 158 323 92 179 103 119 155 324 174 229 173 228 176 232 194 307 193 306 179 325 176 232 158 323 108 309 175 230 194 307 179 325 173 228 175 230 179 325 128 149 179 325 193 306 129 150 128 149 193 306 129 150 193 306 131 322 195 308 27 27 131 322 27 27 105 275 131 322 181 326 132 154 120 141 11 11 7 7 6 327 184 243 6 327 9 9 6 327 184 243 11 11 139 167 138 166 141 169 197 328 191 282 143 284 55 55 39 39 43 276 55 55 43 276 136 161 138 166 136 161 43 276 43 276 140 168 138 166 84 96 148 180 31 31 140 168 192 277 84 96 156 197 152 190 91 105 189 329 54 54 53 53 190 330 189 329 53 53 30 30 10 10 8 8 44 295 59 59 69 296 59 59 67 297 69 296 140 168 84 96 31 31 11 11 184 243 41 41 160 203 33 206 32 202 176 305 162 208 164 210 165 211 124 145 81 92 121 142 171 222 120 141 164 210 159 201 158 200 65 65 64 64 81 92 140 168 31 31 126 147 124 145 31 31 33 33 81 92 153 191 165 211 153 191 81 92 64 64 125 146 31 31 169 220 122 143 168 319 170 224 173 240 179 237 180 238 132 154 181 326 177 233 192 277 43 276 44 295 186 248 8 8 5 5 120 141 172 223 181 326 172 223 120 141 171 222</p>
        </triangles>
      </mesh>
    </geometry>
  </library_geometries>
  <library_visual_scenes>
    <visual_scene id="scene">
      <node id="right_hip_roll_link">
        <instance_geometry url="#geometry">
          <bind_material>
            <technique_common>
              <instance_material symbol="scout_1a1a1a" target="#scout_1a1a1a" />
            </technique_common>
          </bind_material>
        </instance_geometry>
      </node>
    </visual_scene>
  </library_visual_scenes>
  <scene>
    <instance_visual_scene url="#scene" />
  </scene>
</COLLADA>