<?xml version='1.0' encoding='utf-8'?>
<COLLADA xmlns="http://www.collada.org/2005/11/COLLADASchema" version="1.4.1">
  <asset>
    <created>2026-09-14T00:00:00Z</created>
    <modified>2026-09-14T00:00:00Z</modified>
    <unit name="metre" meter="1" />
    <up_axis>Z_UP</up_axis>
  </asset>
  <library_effects>
    <effect id="scout_1a1a1a_effect">
      <profile_COMMON>
        <technique sid="common">
          <lambert>
            <emission>
              <color>0 0 0 1</color>
            </emission>
            <ambient>
              <color>0.05 0.05 0.05 1</color>
            </ambient>
            <diffuse>
              <color>0.1 0.1 0.1 1</color>
            </diffuse>
          </lambert>
        </technique>
      </profile_COMMON>
    </effect>
  </library_effects>
  <library_materials>
    <material id="scout_1a1a1a" name="scout_1a1a1a">
      <instance_effect url="#scout_1a1a1a_effect" />
    </material>
  </library_materials>
  <library_geometries>
    <geometry id="geometry" name="right_hip_yaw_link">
      <mesh>
        <source id="positions">
          <float_array id="positions_array" count="285">-0.0545812733 0.00316786929 -0.0144231264 -0.0465626195 -0.00548351649 -0.030021036 -0.0529220551 -0.00188863301 0.0159761105 -0.029251324 0.00313936453 -0.0464571677 -0.0015729703 -0.00616358081 -0.0553201139 -0.0514286868 -0.00725733861 0.0660745949 -0.0499354824 0.00166937313 0.0748404339 -0.0430450551 -0.0288230386 0.0720874444 -0.0159251969 -0.0497719757 0.0719362199 0.0229013991 -0.0470054001 0.07229653 0.023113979 -0.0481861457 0.0777595863 -0.00702273846 0.000377018179 0.0537596866 -0.0273583774 0.00124361808 0.0477809794 -0.0306638721 -0.00575583754 0.0451418236 0.00657303538 -0.000808751618 0.054227259 -0.032045085 -0.0169160347 0.0789232627 -0.0230158698 0.0289679728 0.0790952817 -0.051069241 0.0199265666 0.0773589164 -0.0642610937 0.0366672613 -0.00862631388 -0.041851677 0.0347816534 -0.0497530811 -0.0615902096 0.00482598692 -0.0236442294 -0.0442726575 0.0556729436 -0.0226449948 -0.0538132153 0.0372581035 -0.00782848056 -0.0541255139 0.0529361889 0.00866915658 -0.0217404496 0.00374611793 -0.0612968542 -0.0354106687 0.0676493868 -0.0275054332 -0.0325538367 0.0592869706 -0.0354780033 -0.0465501845 0.0564263985 -0.000149830361 -0.010667908 0.0678722039 -0.0435260944 -0.00919300131 0.0570397936 -0.0472322181 0.0184805188 0.0029938342 -0.0540769584 -0.0376405269 0.0369467512 -0.0401664451 -0.0191324763 0.0526362136 -0.0515107997 -0.00539089972 0.03720567 -0.053918086 -0.0636953339 0.00355148478 0.0115710422 -0.0617344528 0.0352648608 0.0217805635 -0.0499777272 0.0203061253 0.0456038192 -0.048297815 0.00264773797 0.0443533063 0.0251106899 0.0592432134 -0.042078726 0.028603103 0.0675769001 -0.0348918624 0.0446409695 -0.00529757515 -0.0331723243 -0.0400237776 0.0374138765 0.0509603322 -0.0478665307 0.037151318 0.0262416173 -0.0408778414 0.0572329722 0.0248311609 -0.0352818407 0.052902367 0.0408605672 -0.0322214365 0.0672649592 0.0325897597 -0.0199725889 0.0370803587 0.0508735254 -0.0311914347 0.0407086164 0.0699830875 -0.0232579634 0.0562206246 0.0421560556 -0.00904786028 0.0599987395 0.0469583534 0.0354253799 0.0360865071 -0.0542177893 0.0166377164 0.0042087757 -0.0623033568 -0.0103956265 0.0364759341 -0.0641388521 0.00818114448 0.052803427 0.0550418869 0.0129956976 0.0570570491 0.0456220508 0.0348656625 0.0673652217 0.031666521 0.0497554056 0.0031428081 -0.0228266101 0.0537112355 0.00312433089 0.0154291475 0.0524867214 -0.00559561001 0.0135818906 0.0321018547 -0.00599371037 0.0440658666 0.0272207279 0.00126756879 0.0479200743 0.0506111197 0.00259641721 0.0494518392 0.0493445806 0.0231413636 0.0775838643 0.0475087725 -0.0222820472 0.0743534788 0.0167728122 0.0545918047 -0.043961633 0.0273310598 0.0530464165 -0.0472270064 0.0424034745 0.0564801842 -0.0230521318 0.05050705 0.052811671 -0.0191435106 0.0455200858 0.0623305254 -0.00320560392 0.0142918639 0.00243209279 0.0746275708 0.0541515127 0.0371007882 0.00701506156 0.0494626872 0.0369736291 -0.0225827731 0.0508169234 0.0166111384 0.0435983986 0.0423662439 0.0351387225 0.0514312871 0.0311614666 0.0594261885 0.036203403 -0.00042133173 -0.018609263 0.0726889446 0.000267828349 -0.0170534253 0.052733697 0.0437612943 0.0564520881 0.0206290875 0.0323179364 0.0367605798 0.0457206666 0.0593510456 0.0364430621 0.0243750047 0.0324009769 0.0404877812 0.0698079467 0.0488131009 0.0528536364 0.0256031398 0.0646823272 0.00494584721 0.0135383168 -0.0203978848 0.0486172326 0.0745666623 -0.0171868782 -0.05104018 0.0778105631 0.0241620596 0.047015205 0.0747598186 0.0326587334 0.019155927 0.0794932172 -0.0483382605 -0.0245106164 0.0777376369 0.0530256256 0.00378785119 -0.0381163172 0.0606676191 0.035984572 -0.0229107514 0.00977299083 -0.0360490158 0.0794893578 -0.000480895804 0.0677775443 0.00616144203 0.0269785598 0.0370035172 -0.047686629 -0.0146124 0.00189362047 0.0748447925 0.0498502068 0.00238178112 0.073816061</float_array>
          <technique_common>
            <accessor source="#positions_array" count="95" stride="3">
              <param name="X" type="float" />
              <param name="Y" type="float" />
              <param name="Z" type="float" />
            </accessor>
          </technique_common>
        </source>
        <source id="normals">
          <float_array id="normals_array" count="651">-0.432356387 -0.898924112 -0.0707348585 -0.783748925 -0.618168294 -0.0600462593 -0.46026203 -0.88275665 0.0943376943 -0.730199814 0.364776194 -0.577708006 -0.416436881 -0.547485292 -0.725837529 0.889061689 0.236302182 -0.392084986 0.069210127 -0.977817059 -0.19769606 0.0714077875 -0.974358678 -0.213368401 0.0711741224 -0.974739969 -0.211698353 -0.105342321 -0.650663614 0.752023816 -0.283818185 -0.218042031 0.933758497 -0.120476216 -0.929402471 0.34885028 -0.00509278243 -0.869319737 0.494223863 -0.0436542071 -0.0164052434 0.998911977 -0.0540930405 0.131665617 0.989817202 -0.0813098997 0.0546668433 0.995188534 -0.864799678 0.153017938 -0.478233218 -0.67009753 -0.0208081137 -0.741981328 -0.812386036 0.0276349504 -0.582464814 -0.864025056 0.20873107 -0.458139777 -0.919515073 0.208105415 -0.333442897 -0.926420212 0.263999134 -0.268421412 -0.359853566 -0.0649017543 -0.930748701 -0.930106044 0.0311564449 -0.365967244 -0.467115194 0.521302104 -0.714176118 -0.187269524 0.358074009 -0.914720237 -0.460911959 0.468343914 -0.753799796 -0.341502666 -0.775940359 -0.530370176 -0.141049117 0.429940224 -0.891771555 -0.382928371 -0.200327307 -0.901795328 -0.105173513 0.298900992 -0.948470712 -0.999905944 -0.0126474425 0.00529967481 -0.989304721 0.0144429198 0.145146579 -0.957464755 0.0067475182 0.288471282 -0.961120307 0.137808397 0.239283428 -0.991910398 -0.0912395269 0.088256143 -0.997001588 -0.0381649025 0.0673143566 -0.941726565 0.329345912 0.0684274137 0.165204763 0.495617598 -0.852684319 0.176166713 0.599486649 -0.780756712 0.976973414 -0.208389178 0.0457923226 0.338626772 -0.649070263 -0.681204617 -0.15126209 0.987081826 0.0528134368 -2.28238514e-05 0.99779582 -0.0663593188 -0.118542343 0.992438793 0.0318272486 -0.780234218 0.278632641 0.559998572 -0.837897182 0.505331397 0.206321225 -0.683416009 0.670081019 0.289713591 -0.547346771 0.836896122 -0.0040546963 -0.571596444 0.450288892 0.685942769 -0.745805204 0.657213569 0.108834691 -0.659017682 0.751074791 0.0397784784 0.00740899891 0.988869965 -0.148597702 -0.654434741 0.714135885 0.248445392 -0.784499824 0.615052283 0.0791877881 -0.867471278 0.038153071 0.496022075 -0.653168321 -0.164201155 0.73919487 -0.297772974 0.766878724 0.568531632 -0.555022836 -0.153380901 0.817571998 -0.362612993 0.833202779 0.417474568 0.528679967 0.0309812091 -0.848255634 0.262880355 -0.0108794002 -0.964767098 -0.113533191 0.0352169387 -0.992909849 -0.0130498959 0.820960879 0.570835292 0.306098342 0.79917419 0.517324328 0.0252038538 0.870412171 0.491678208 0.158839181 0.931910157 0.326057673 -0.00343811349 0.990858853 0.134858668 0.897989333 -0.430063039 -0.0930641443 0.97640419 -0.148885876 -0.156422183 0.92924273 -0.35194701 -0.112433188 0.980885327 -0.102735251 -0.16525571 0.00272759143 -0.997439861 0.0714584365 0.306083202 -0.277600259 0.910632312 0.811905205 -0.177887216 0.556026995 0.757969558 0.176152483 0.62805444 0.770217717 0.13338013 0.623678148 0.810732424 -0.228067145 0.539164484 0.987839282 0.0259721242 0.153293863 0.931523561 0.355401367 0.0771602988 0.995876789 -0.0458169952 0.0782960281 0.107943028 0.987112403 -0.118141614 0.101552106 0.985224426 -0.137913063 0.124923058 0.970974147 -0.2039693 0.137459531 0.149937138 -0.979093313 0.487792492 0.804677784 -0.338455588 0.752816319 0.549346685 -0.362609625 0.735658407 0.238453344 -0.633992672 -0.765203059 0.274058372 -0.582542896 0.498142749 -0.670268476 -0.550085366 0.645844996 0.403266817 -0.64827472 0.482450813 0.824801326 -0.294862688 0.446198702 0.890465379 -0.0893204659 0.432259709 0.898004532 -0.0820942372 0.0713036358 -0.995815873 0.0571536049 0.0698486716 -0.995664001 0.0614354946 0.131706312 -0.985526383 0.106729671 0.935289264 0.0789305717 -0.344969571 0.976743519 0.214284003 -0.00738196867 0.892982781 0.0247399826 -0.449410439 0.947408378 0.143217117 0.286192685 0.492861539 0.870083928 0.00643875124 -0.0512999184 -0.705507755 0.706843019 0.164487153 0.652491212 0.739729106 0.407366067 0.30239144 0.86174953 0.871560931 -0.46983844 -0.140119314 0.82011503 -0.571967304 -0.0162713062 0.870344996 -0.473186284 -0.136360809 0.331996322 -0.840075374 0.429012656 0.092007935 0.993915915 -0.060544569 0.0557600223 0.99785018 0.0344364569 0.482526749 0.874579668 0.0477320142 0.476203263 0.864893198 0.15871416 0.392997712 0.891155422 0.226704314 0.919503748 -0.392022163 -0.0288347527 0.9161551 -0.247111276 0.315588176 0.496219724 0.833717942 0.24224022 0.990842998 0.0524074771 0.124433026 0.948851049 0.105181053 0.297688812 0.833215058 0.155733809 0.530565381 -0.687415063 0.351298034 -0.635649502 -0.641968489 0.713584185 0.280488938 0.704992235 -0.687048614 -0.175926626 0.0690191686 -0.978104174 -0.196337938 0.104333594 0.0392828546 0.993766248 0.0297240634 0.185684696 0.982159674 0.0692274347 0.0543910414 0.996117055 -0.0377215892 0.229195148 0.972649276 0.148999482 -0.0536290891 0.987381935 -0.712774515 -0.681991696 -0.163828522 -0.586186945 -0.756771266 -0.289278716 -0.594575167 -0.759784043 -0.263075322 -0.779062271 -0.540894568 -0.317009509 0.817528188 -0.0413681716 -0.574400842 0.948206782 0.0218525771 -0.316901237 0.0391715094 -0.0531737097 0.997816682 -0.029318884 -0.06426543 0.997502089 0.0920360759 -0.0406311899 0.994926333 -0.0614085682 -0.0240301546 0.997823417 0.752213717 0.0262591187 -0.658395767 -0.3726331 0.925430477 -0.0687242299 -0.262859762 0.908619821 -0.324522465 0.15441291 0.132156432 -0.979127824 0.0818669572 0.374075741 -0.92377764 0.0671537742 0.613171577 -0.787090242 -0.360979915 0.930112898 -0.067701295 -0.00272651063 0.999984741 0.00480356533 -0.000105578809 0.999979734 0.00636127545 0.744903982 0.00274654641 -0.667165995 -0.419702977 -0.907530189 -0.0154374288 -0.105825707 -0.988197803 0.110752232 -0.0757858232 -0.993891001 0.0802323744 -0.0370026268 -0.999091089 0.0211621802 0.00634905417 -0.999476194 -0.0317332223 -0.983102739 -0.0589418635 0.173305631 -0.966096163 -0.196037456 0.168010369 -0.0555013902 0.998379707 -0.0125498241 -0.0793865025 0.996779919 -0.0112972111 -0.799165905 -0.428277224 -0.421796769 0.00875404477 0.0197937079 -0.999765754 0.000987770618 0.0662020221 -0.997805774 0.0153253805 0.0515637621 -0.998552084 0.0262056869 0.0353294313 -0.99903208 -0.000446974038 0.089818418 -0.99595803 -0.00605248241 0.0949622542 -0.995462477 0.0129790856 0.0224708375 -0.999663234 0.0212985296 0.0397053398 -0.998984396 -0.0228391606 -0.0196116138 -0.999546766 0.115164302 0.993346453 0.00023363471 0.00895868707 0.983359873 -0.181447327 -0.989894688 -0.119235612 0.0767554343 0.189129457 0.0239685401 -0.981659591 0.107961953 0.189235389 -0.975978553 0.00333013991 0.999812961 0.0190498307 -0.141950995 0.980506301 -0.135857612 0.000126546496 0.997456551 -0.0712772459 -0.0232199337 0.996541739 -0.0797831267 -0.146497086 0.976792693 -0.156251803 0.0432855114 0.995686889 -0.0820607916 0.0846469924 0.995321989 -0.0465724841 0.091193594 0.995207131 -0.0353059396 0.0546139851 0.995823324 -0.0731653497 0.162322894 -0.986699462 -0.00868928898 0.0493645556 -0.998761833 0.00615767715 0.146146625 -0.989236712 -0.00720082084 0.0200358834 0.598801672 -0.800646722 -0.000638362137 0.502090037 -0.864815116 0.00100153219 0.510017693 -0.860163331 0.0258417763 0.624685943 -0.780448377 -0.778641284 0.136818066 0.612371206 0.542249441 0.380598873 0.74907279 0.0875196904 -0.398728281 0.912883401 -0.296330899 0.28930223 0.910215497 0.90097934 -0.323081911 -0.289576173 0.958632946 0.282356232 0.0360256396 0.0591029227 -0.988327503 -0.140412301 -0.0960709974 -0.991430283 -0.0885233358 -0.0253503099 -0.997682452 -0.0631432682 -0.13296856 -0.98805958 -0.0778306648 0.0360558219 -0.987427115 -0.153908119 0.0622840039 -0.997293115 -0.0390783697 0.106476478 -0.994130492 -0.0191669185 -0.0574890748 -0.997041523 0.0510214269 -0.00161704014 -0.999959469 -0.00885960832 -0.22743085 -0.972773135 0.0445826352 -0.0441481769 -0.998978615 0.00962447934 0.00799078308 -0.999938309 -0.00771503663 0.0193817094 -0.99979496 -0.00586450333 0.000268512696 -0.999998629 0.00161822373 -0.995130181 0.0938122347 -0.0302522015 0.66989547 0.725356162 0.158424839 -0.863304913 -0.473180354 -0.17551364 -0.823642612 -0.562481701 -0.0722993463 -0.864611804 -0.469149709 -0.179846987 -0.887791574 -0.354021788 -0.294099748 0.839306355 -0.271414816 0.471061409 0.040868789 0.0757376477 -0.996289909</float_array>
          <technique_common>
            <accessor source="#normals_array" count="217" stride="3">
              <param name="X" type="float" />
              <param name="Y" type="float" />
              <param name="Z" type="float" />
            </accessor>
          </technique_common>
        </source>
        <vertices id="vertices">
          <input semantic="POSITION" source="#positions" />
        </vertices>
        <triangles material="scout_1a1a1a" count="186">
          <input semantic="VERTEX" source="#vertices" offset="0" />
          <input semantic="NORMAL" source="#normals" offset="1" />
          <p>0 0 1 1 2 2 0 3 3 3 1 3 3 4 4 4 1 4 5 5 6 5 7 5 8 6 9 7 10 8 11 9 12 10 13 11 11 9 13 11 14 12 15 13 16 14 17 15 18 16 19 17 20 18 21 19 22 20 23 21 19 17 24 22 20 18 25 23 26 23 27 23 25 24 28 25 26 26 29 27 21 27 26 27 3 28 30 28 4 28 31 29 32 29 33 29 28 25 29 30 26 26 20 31 34 32 35 33 36 34 37 35 5 36 17 37 36 34 5 36 38 38 28 25 39 39 37 40 6 40 5 40 36 34 35 33 37 35 4 41 30 41 40 41 35 42 41 43 42 44 41 45 35 33 36 34 23 46 43 47 27 48 23 46 44 49 43 47 27 48 45 50 25 51 41 43 46 52 42 44 17 37 47 53 41 54 44 49 42 55 46 56 44 49 48 57 43 47 45 58 43 58 49 58 48 57 49 59 43 47 50 60 51 61 52 62 53 63 48 57 44 49 48 57 53 63 54 64 49 65 55 66 45 67 43 47 45 50 27 48 56 68 57 69 40 70 57 69 58 71 40 70 14 12 13 11 59 72 60 73 14 73 59 73 57 74 60 75 59 76 57 74 59 76 58 77 61 78 62 79 63 80 29 81 64 82 65 83 28 25 38 38 29 30 64 84 29 30 38 38 39 85 66 86 38 87 31 88 22 20 21 19 66 89 64 89 38 89 30 90 56 90 40 90 66 91 67 92 65 83 39 85 68 93 66 86 39 85 55 66 68 93 60 94 69 95 14 96 67 97 70 98 71 99 72 100 73 101 62 79 54 102 49 102 48 102 55 66 54 103 74 104 69 105 75 106 76 107 74 108 54 108 77 108 78 109 73 101 79 110 80 111 73 101 78 109 80 111 62 79 73 101 66 91 77 112 81 113 68 114 77 114 66 114 55 115 74 115 68 115 74 116 77 116 68 116 72 100 62 79 61 78 82 117 72 100 61 78 79 118 73 119 72 100 31 88 21 19 32 120 17 37 83 121 47 53 9 122 63 122 10 122 10 8 84 123 8 6 62 124 85 125 86 126 85 125 83 127 16 14 83 127 17 15 16 14 63 128 62 124 86 126 16 14 86 126 85 125 7 129 8 130 84 131 7 129 84 131 87 132 88 133 89 134 82 117 90 135 84 136 10 137 10 137 63 128 90 135 87 138 84 136 15 13 63 128 86 126 90 135 17 15 87 138 15 13 84 136 90 135 15 13 67 97 71 99 65 139 67 92 66 91 81 113 53 63 81 113 77 112 53 63 77 112 54 64 21 140 23 46 27 48 29 141 32 141 21 141 65 142 32 143 29 144 21 140 27 48 26 145 52 62 24 22 19 17 39 85 25 146 91 147 65 139 71 99 92 148 0 0 2 2 34 149 37 150 34 149 2 2 37 150 2 2 12 151 12 151 93 152 37 150 93 152 6 153 37 150 37 35 35 33 34 32 5 36 87 154 17 37 22 155 42 55 23 46 17 37 41 54 36 34 42 44 22 156 18 157 42 44 18 157 35 42 44 49 23 46 42 55 87 132 5 158 7 129 25 146 45 67 91 147 91 147 45 67 55 66 39 85 91 147 55 66 65 83 64 82 66 91 52 62 51 61 24 22 8 159 7 160 75 161 9 162 8 159 75 161 7 160 6 163 93 164 63 165 9 162 75 161 7 160 93 164 75 161 69 166 94 167 63 165 75 161 69 166 63 165 70 168 78 109 79 110 46 52 41 43 47 169 47 169 80 111 46 52 78 109 46 52 80 111 18 170 20 31 35 33 92 171 33 172 65 142 15 13 90 135 86 126 15 13 86 126 16 14 32 143 65 142 33 172 79 118 72 100 82 117 25 146 39 85 28 173 31 174 33 175 52 176 22 156 31 174 18 157 31 174 19 177 18 157 33 175 92 178 52 176 52 176 19 177 31 174 71 179 70 168 89 180 70 168 79 110 89 180 52 176 92 178 50 181 71 179 89 180 50 181 92 178 71 179 50 181 82 182 61 183 57 184 80 185 47 186 83 187 80 185 83 187 85 188 13 189 12 189 2 189 82 117 89 134 79 118 55 66 49 65 54 103 81 190 53 190 78 190 53 191 46 191 78 191 46 192 53 63 44 49 51 61 50 60 88 133 14 193 69 105 76 107 81 194 70 98 67 97 30 195 3 196 24 197 34 149 20 198 0 0 20 198 24 197 3 196 0 0 20 198 3 196 24 197 51 199 30 195 51 199 88 200 30 195 88 200 82 182 57 184 88 200 57 184 56 201 30 195 88 200 56 201 12 151 11 202 93 152 69 95 60 94 61 183 61 183 60 94 57 184 61 183 94 203 69 95 13 11 2 204 1 205 59 72 13 11 1 205 58 206 59 72 40 207 59 72 1 205 4 208 40 207 59 72 4 208 61 209 63 209 94 209 80 111 85 210 62 79 76 211 75 212 93 213 93 213 11 214 76 211 81 215 78 215 70 215 76 216 11 216 14 216 89 134 88 133 50 60</p>
        </triangles>
      </mesh>
    </geometry>
  </library_geometries>
  <library_visual_scenes>
    <visual_scene id="scene">
      <node id="right_hip_yaw_link">
        <instance_geometry url="#geometry">
          <bind_material>
            <technique_common>
              <instance_material symbol="scout_1a1a1a" target="#scout_1a1a1a" />
            </technique_common>
          </bind_material>
        </instance_geometry>
      </node>
    </visual_scene>
  </library_visual_scenes>
  <scene>
    <instance_visual_scene url="#scene" />
  </scene>
</COLLADA>