<?xml version='1.0' encoding='utf-8'?>
<COLLADA xmlns="http://www.collada.org/2005/11/COLLADASchema" version="1.4.1">
  <asset>
    <created>2026-09-14T00:00:00Z</created>
    <modified>2026-09-14T00:00:00Z</modified>
    <unit name="metre" meter="1" />
    <up_axis>Z_UP</up_axis>
  </asset>
  <library_effects>
    <effect id="scout_1a1a1a_effect">
      <profile_COMMON>
        <technique sid="common">
          <lambert>
            <emission>
              <color>0 0 0 1</color>
            </emission>
            <ambient>
              <color>0.05 0.05 0.05 1</color>
            </ambient>
            <diffuse>
              <color>0.1 0.1 0.1 1</color>
            </diffuse>
          </lambert>
        </technique>
      </profile_COMMON>
    </effect>
  </library_effects>
  <library_materials>
    <material id="scout_1a1a1a" name="scout_1a1a1a">
      <instance_effect url="#scout_1a1a1a_effect" />
    </material>
  </library_materials>
  <library_geometries>
    <geometry id="geometry" name="right_shoulder_pitch_link">
      <mesh>
        <source id="positions">
          <float_array id="positions_array" count="264">0.028514456 -0.0365298539 -0.0363229811 0.017361939 -0.0243123956 -0.0218789671 0.0214919094 -0.0202458296 -0.0117233936 0.0188300386 -0.106851913 -0.0209685396 -0.036878109 -0.0893506929 -0.0414732248 0.017255798 -0.0858122036 -0.0430080406 -0.0253784973 -0.0185394697 -0.0276753251 -0.0384245738 -0.0409708768 -0.0362797715 -0.0302258972 -0.050326284 -0.0483489521 -0.0374546647 -0.0259246062 -0.0209649261 -0.0296570882 -0.00654289173 -0.0271085892 -0.0404137969 -0.0150509914 -0.00464079715 -0.0257721487 -0.0406287163 -0.0370706655 -0.0313355066 0.00182993 -0.0223626252 -0.0328835882 -0.019095324 -0.0307295769 -0.0398786664 -0.000496344757 -0.00598829053 0.0148911066 -0.0206891727 0.00716189109 0.0226736553 -0.0282620676 0.0159621574 -0.0214714911 -0.0245426428 -0.018465329 0.0182519834 -0.00136602542 -0.0201441329 0.0180997904 -0.0382341407 -0.045231346 -0.0136036631 -0.02227268 -0.0120420791 -0.017023772 -0.030493075 -0.0354380496 -0.0217376016 -0.0159237608 -0.00116494449 -0.0357844457 -0.10983751 -0.00439577363 -0.00333436136 -0.019396998 -0.0221237969 0.00536328135 -0.00323812477 -0.0149411988 0.00105112884 -0.0413738936 -0.0405132845 -0.0155270817 -0.057607986 -0.0489239432 0.00790356193 -0.0232124869 -0.0165742934 -0.016694339 -0.0193942785 0.00294846948 0.0131170452 -0.0378202982 -0.0434238836 -0.0342390612 -0.0254074987 0.0274203736 -0.0372427553 -0.0490649901 0.0378836505 -0.0324806012 -0.00181034626 0.0257218145 -0.0302364007 -0.0933145359 0.0270767119 -0.0379982628 -0.0810069218 0.0307033472 -0.0340303481 -0.0224188063 0.0222017355 -0.0331998318 -0.0345152244 0.0172489621 -0.0170752686 -0.0358843394 0.0308641419 -0.0216375906 -0.0279703457 0.016089594 -0.00389052997 -0.0275880434 0.0147140063 -0.0156505387 -0.0302621312 0.0210353173 -0.011536954 -0.0553827398 0.0338692591 -0.0162745602 -0.020493811 0.00792370457 -0.0207817219 -0.0211064629 0.0153968474 -0.0172935631 -0.0240248833 0.0064678099 -0.0109220855 -0.0199107341 0.0106920041 -0.0031701799 -0.0243040938 0.0205862094 0.0128832962 -0.0205089729 -0.0197162889 0.0131116947 -0.0278775953 0.0156393368 0.00805875845 -0.0254308078 0.0217487924 0.0181147009 0.00184975401 0.0157039836 -0.0167063102 0.00222422788 0.0173154622 -0.0136631774 -0.00276409299 -0.0104266023 0.0118592996 0.00295061944 -0.0105651096 0.0129878381 -0.0627015829 -0.0482558124 0.000272342702 -0.0151725933 -0.00633838261 0.00018004392 -0.0135495085 -0.0274481308 0.0105050988 -0.0177296977 -0.0113092484 0.0215574801 -0.0235469621 0.0246282555 0.0169384331 -0.0462662093 -0.0424557216 0.0284608621 -0.0996369496 0.00128385169 0.0165603664 -0.101902433 0.000915787357 0.023443019 -0.101215057 -0.0133294389 -0.0313807353 -0.00333538232 0.0242724568 0.0112396535 -0.0587964542 0.0363851823 0.0158033948 -0.0592637435 0.0406036191 0.0184114669 -0.0471534468 0.0295152292 0.0284185726 -0.0580074042 0.0327999182 0.0185844097 -0.0710628778 0.0326838531 0.0190461781 -0.00512755802 0.0188338626 0.0177937597 -0.099674724 0.0163571313 0.0291491766 -0.0824984908 0.0224598832 0.0181888379 -0.086579062 0.0301265158 0.00480360398 -0.0012087397 0.0142046064 -0.0361246467 -0.042064108 -0.0474244468 -0.0343752503 -0.0674644709 -0.048515249 0.0146154705 -0.0669463649 -0.0518954806 0.0251761638 -0.0657794774 -0.0455386452 -0.0240243319 -0.0729212463 -0.0495569743 -0.0305982921 -0.0674571395 0.0380101278 0.0332153626 -0.0821892023 -0.0227503125 0.0352636501 -0.0477474704 -0.0191329736 -0.0154656861 0.00170026685 -0.0179892369 0.0226945281 -0.0935108885 -0.030847216 -0.0123938695 -0.00201856927 0.0118459351 0.0285800546 -0.0358428992 0.019469697</float_array>
          <technique_common>
            <accessor source="#positions_array" count="88" stride="3">
              <param name="X" type="float" />
              <param name="Y" type="float" />
              <param name="Z" type="float" />
            </accessor>
          </technique_common>
        </source>
        <source id="normals">
          <float_array id="normals_array" count="753">-0.114779726 0.71299535 -0.691710413 0.372481555 0.766654968 -0.522970021 0.464194059 0.740862072 -0.485435069 0.460787475 -0.717774808 -0.521990657 -0.074647218 -0.651822686 -0.754688621 0.367174804 -0.523565173 -0.768805683 0.581216633 -0.563302517 0.58726275 0.493720353 -0.546594739 0.676368535 0.446173579 -0.534760296 0.717607498 0.636975706 -0.569681525 0.519350469 0.856762946 -0.458193958 0.236676082 0.79193759 -0.590455174 0.155555606 0.905851722 -0.257928014 0.336014539 -0.840914011 -0.199055538 0.503230095 -0.859001338 -0.187348321 0.476463318 -0.935457766 -0.198190823 0.29264167 -0.875201166 0.234036401 -0.423379153 -0.704797745 0.456865907 -0.542709589 -0.838214636 0.294936925 -0.458702981 0.359923303 0.910853446 0.201993197 0.751632452 0.659170151 0.0233102161 0.697035968 0.714325964 0.0622840449 0.0108014373 0.786175668 -0.617908716 -0.0397842489 0.746949017 -0.663689971 -0.0620222688 0.736509204 -0.673578084 0.109564222 0.852717876 -0.510752261 -0.923934579 -0.303170919 0.233307183 0.156495482 0.901147187 -0.404280692 0.0133979861 0.507415652 -0.86159724 -0.00054017175 0.513786197 -0.857918084 0.0641212687 0.392494082 -0.917516708 0.612769902 0.7368595 -0.285571694 0.534002364 0.819898963 -0.206414908 0.657163084 0.675925255 -0.333559304 0.475054502 0.86694175 -0.150782123 -0.0976975933 -0.872304916 -0.479102641 -0.133267641 -0.719237745 0.681862772 -0.296633303 -0.250021309 0.921682179 -0.267844826 -0.181560189 0.946200311 0.111522548 0.732015014 -0.672098756 0.0214201175 0.457568705 -0.888916194 0.0578339398 0.412048459 -0.909324646 0.0837562904 0.982082903 -0.168813676 0.0501409397 0.997255981 -0.0544645041 -0.242477491 -0.332138389 0.911530972 -0.0545886457 -0.632130086 0.772937 -0.714014053 0.222524241 -0.663827479 -0.27945888 -0.958464861 -0.0569895282 0.488998801 -0.832428813 0.260657817 0.00619968772 -0.535720706 0.844372451 0.0487029254 -0.332309037 0.941912293 -0.919478536 0.224586129 0.322676748 -0.9960078 0.037002895 0.0812355578 -0.992971122 0.0449942462 0.109470904 -0.969183445 0.0887648314 0.229791641 -0.704930186 -0.569247484 0.423120201 0.972744584 -0.0019731475 -0.231870949 0.973926961 0.0207733829 -0.225908622 0.97081697 0.144898474 -0.191098928 0.624818981 0.332198799 -0.706572831 -0.504473388 -0.816265941 -0.281454235 0.0763199404 0.0416425504 0.996213436 0.0320147835 -0.891509414 -0.451869398 0.0697369576 -0.870234787 -0.487676293 0.0215581171 -0.896899521 -0.441708595 0.660788298 0.294117719 0.690545857 0.641442597 0.629518926 0.438471496 0.639466643 0.629872382 0.440843672 0.631824195 0.631172836 0.449909955 0.629607856 0.631530523 0.452507585 -0.724663734 -0.647113383 0.236868605 0.928377628 -0.123372607 -0.350562602 0.850292504 -0.028698219 -0.525527477 0.919842482 -0.110221267 -0.376485199 -0.454026192 -0.0332482308 -0.890367806 -0.986219108 0.132916436 0.0985141546 0.0260553006 0.954466343 0.297178626 0.0638328195 0.948568702 0.310068935 -0.000502742943 0.987931788 0.154888779 0.961054385 -0.197742954 -0.193060085 0.00239225803 0.919376254 0.393372029 0.0505484119 0.973899424 0.2212798 0.126305401 0.968784094 0.213317528 0.0765443072 -0.711690366 -0.698310673 -0.00328398566 -0.804499924 -0.593943715 -0.0184883513 -0.490551203 -0.871216238 0.98001045 0.023339605 0.197572172 0.00695870537 -0.99946326 0.0320124701 0.114585266 -0.993336916 -0.0123268105 -0.0132637229 -0.996625543 -0.0810040161 -0.0937798545 -0.87580812 0.473461151 -0.0247144364 0.567581773 0.822946012 -0.0347726271 0.573586702 0.818406463 -0.0154274739 0.561959863 0.827020645 -0.089103207 -0.769303381 -0.632639647 0.0316469036 0.876632571 0.480118603 -0.100832373 0.95747453 0.270324469 -0.13329196 0.984334826 0.115404598 0.154726937 -0.673507929 0.722804725 -0.0426281728 0.319760948 -0.946538866 0.259230524 0.962378323 0.0814092457 0.363978505 0.930978835 -0.0282509681 0.447923362 0.89158839 0.0665940344 0.16654107 0.973316133 -0.157860175 0.793104589 0.572067082 -0.209103733 -0.281452954 0.184339523 -0.941702247 -0.564600706 0.674033284 -0.476345688 -0.392880499 0.773603559 -0.497174442 -0.353415191 0.791206837 -0.499088556 -0.630240202 0.624055684 -0.461900264 0.99135828 -0.0965056121 0.0888560712 0.996806741 -0.0506794378 0.0617086254 0.989262938 -0.109647371 0.0966244191 0.122323617 0.656629503 -0.744227588 -0.843095064 0.476122916 0.24999547 -0.928992629 0.278373212 0.243887469 -0.751854718 0.57227242 0.327442735 -0.945149541 0.201888919 0.256774634 0.0651367381 0.366323352 -0.928204954 0.0746725276 0.942049026 0.32705912 0.184001192 -0.979626 0.0804767087 0.242201835 -0.963776588 0.111682624 0.472040832 -0.861625135 0.186492965 0.960543513 -0.105438843 -0.257368922 -0.0081413649 0.557497144 0.830138922 -0.0592999645 -0.302513808 -0.951298535 -0.477032483 0.867599905 0.140393898 0.00913612638 0.98984319 0.141869739 -0.79005152 -0.30786854 -0.530127883 0.982626498 -0.0877873451 0.163519278 0.96173507 0.00596711645 0.273916215 0.978646278 -0.205470458 0.00577773247 -0.137736112 0.61056149 0.779899657 -0.0567133389 0.715644896 0.696158051 -0.0828526169 0.683865309 0.724888682 -0.0470876694 0.249309674 0.967278361 0.150619254 0.424203694 0.892952979 -0.181317747 0.127910778 0.975070596 -0.0420984551 0.914993644 -0.401266009 0.234875172 -0.261514276 -0.936185837 0.233902186 -0.261041611 -0.936561286 0.236177981 -0.26214692 -0.935680985 0.181748405 -0.975216568 0.126174986 0.602053881 -0.431610048 0.67174685 0.348586112 -0.481497824 0.804143965 0.318211973 -0.803243399 0.503528714 -0.326724708 0.942863882 0.0652586743 -0.233165964 0.967679203 0.0960760787 -0.577997923 0.815568209 -0.0276925713 -0.998184025 -0.0292844679 -0.0526410043 -0.992483556 0.000412442459 -0.122377254 -0.892765522 -0.0422251001 -0.448538423 -0.703438461 0.608086765 0.367974013 0.23870337 -0.105572514 -0.9653368 -0.0251714289 0.340465426 -0.939920068 -0.023908183 0.999714017 -0.000510007376 0.748210788 -0.104975313 -0.655103683 0.0370392278 -0.931928873 0.360744536 -0.0241656117 -0.644143522 0.764522851 -0.623620152 -0.378269225 0.684112728 0.429978579 0.111024633 0.895986557 -0.999245286 -0.0375603698 -0.00990198832 -0.999650776 -0.0258501619 -0.00549079385 0.766622186 -0.165078446 0.620515585 0.439249188 -0.338267773 0.832247019 -0.0605967008 0.768554568 -0.636908114 -0.0156708732 -0.998549998 0.0515007228 0.0774170309 0.323895425 0.942920148 -0.074819237 0.19303295 0.9783355 0.00868118927 0.0219256207 0.999721885 0.0399528667 0.252625674 0.96673888 0.909647584 -0.413835585 -0.0357962474 0.106025219 -0.988921285 0.103890754 0.023010239 -0.979560673 0.19982861 0.124126859 -0.986747205 0.104510598 -0.0808112249 -0.208748415 -0.974624872 -0.133582354 -0.0750704855 -0.988190353 -0.215342611 -0.215207547 0.952529907 -0.340376914 -0.0577527322 0.938513815 -0.191584855 0.927778482 0.320191056 0.271350414 0.260922939 -0.926438451 0.938799858 -0.277785361 -0.203691185 0.983684182 0.154151186 -0.0927513018 0.989460647 -0.101689942 0.10308633 0.65528214 -0.597448051 0.462234974 -0.131769389 0.988683105 0.0717112273 -0.0300312899 0.998789728 0.038951654 0.22456798 0.938414872 -0.262577087 0.297806412 0.92895937 -0.219876781 0.476424366 0.875859618 -0.0767450556 0.0239332002 0.989634573 -0.141600013 -0.892692804 0.442470431 0.0855539069 -0.251508534 -0.349373221 0.902597249 0.569311798 -0.787195385 0.237081215 0.40200159 0.901172221 -0.162121385 0.655624032 0.160197154 0.73789835 0.258865029 0.924438119 -0.280005515 0.703191876 -0.513098657 -0.492190003 -0.0344256125 0.741192579 0.670409143 0.0971288979 -0.994340837 0.0430379659 0.0871368796 -0.996127605 0.0117043201 -0.459604561 -0.729453444 -0.506617486 -0.200844035 -0.00163097656 -0.979621887 -0.273062766 0.141168177 -0.951581955 -0.147307724 -0.101262428 -0.983893454 -0.0655892938 -0.24465929 -0.967388153 0.0508612096 -0.998310983 -0.0280765165 0.075606443 0.147012517 0.986240864 0.14639312 0.364016503 0.919815779 -0.187859133 0.673604965 -0.714818358 -0.656728685 0.5018273 -0.562918127 0.111166179 -0.975346923 0.190631613 -0.0414884835 -0.974699914 -0.219633371 -0.0326661691 0.55096817 -0.833886683 -0.0241889264 0.583818972 -0.811523438 0.0298588127 0.767430723 -0.640436172 0.0431101136 0.805582702 -0.590912879 0.146759078 0.421099246 0.895062685 -0.946142554 0.323555171 -0.0112377983 -0.05691275 -0.190044001 0.980124593 0.95488131 0.27455011 0.11324285 0.999238014 0.0145113776 0.0362330154 0.949814618 0.226452306 -0.215804487 0.882508218 -0.45859617 -0.104253218 0.860808492 0.381555229 -0.336785227 -0.66519171 0.743875623 -0.0645685643 0.72529465 0.68703258 -0.0439755544 0.658459246 0.750005901 -0.062630266 0.896094024 0.443476379 0.0185541026 0.910959423 0.41168198 0.0259017274 0.324143857 -0.791461527 0.518188536 0.161986962 -0.958709598 0.233743742 0.249751747 -0.925173879 0.28579241 0.702201366 -0.708742797 0.0678002238 0.997438371 -0.0430097915 0.0571562722 0.570845544 0.65538311 -0.494579017 -0.303774923 0.905145288 0.297376454 0.991627276 0.128899425 -0.00776553201 0.107861005 0.937216699 0.331648737 0.221416429 0.528707922 0.819416046 0.206998244 0.539036512 0.816450477 0.0507759154 0.942554593 0.330170691 0.967095435 0.0524271727 -0.248953372 0.09013699 -0.126645386 -0.987844229 -0.0119954189 -0.912715852 -0.408418804 0.981886923 -0.0817304477 0.170933366 0.232855633 -0.260532975 -0.936963618 -0.237399325 -0.967370749 -0.0885180309 -0.16127193 -0.985166907 -0.0586307906 -0.0890527815 0.967062533 -0.238452688 -0.182305872 0.827083111 0.531693578</float_array>
          <technique_common>
            <accessor source="#normals_array" count="251" stride="3">
              <param name="X" type="float" />
              <param name="Y" type="float" />
              <param name="Z" type="float" />
            </accessor>
          </technique_common>
        </source>
        <vertices id="vertices">
          <input semantic="POSITION" source="#positions" />
        </vertices>
        <triangles material="scout_1a1a1a" count="196">
          <input semantic="VERTEX" source="#vertices" offset="0" />
          <input semantic="NORMAL" source="#normals" offset="1" />
          <p>0 0 1 1 2 2 3 3 4 4 5 5 6 6 7 7 8 8 6 6 9 9 7 7 10 10 11 11 9 12 8 13 12 14 6 15 13 16 14 17 15 18 16 19 17 20 2 21 9 22 12 23 7 24 18 25 12 23 9 22 18 26 6 15 12 14 18 25 9 22 11 27 14 28 19 29 20 30 6 31 21 32 22 33 23 34 21 32 6 31 24 35 4 4 3 3 25 36 26 37 10 38 22 39 27 40 28 41 22 39 29 42 27 40 22 39 21 43 29 42 25 36 6 44 22 45 23 46 25 46 21 46 30 47 21 48 25 36 31 49 22 45 28 50 6 44 25 36 10 38 32 51 15 52 33 53 34 54 15 52 32 51 35 55 36 55 24 55 11 56 37 57 38 58 37 59 39 59 38 59 40 60 39 60 37 60 41 61 40 61 38 61 42 62 39 63 40 64 41 65 39 65 43 65 44 66 45 67 42 68 45 67 39 69 42 68 23 70 18 26 30 47 46 71 23 72 44 73 45 74 40 74 37 74 45 75 23 75 40 75 45 76 47 77 23 78 46 71 44 73 42 79 42 80 41 81 46 82 45 83 48 84 39 85 30 86 46 86 21 86 46 82 41 81 21 43 47 87 45 88 44 89 22 45 49 90 25 36 50 91 41 92 43 93 47 87 51 94 48 84 52 95 53 96 34 97 54 98 26 98 55 98 27 40 56 99 28 41 57 100 49 101 58 102 57 100 59 103 49 101 17 20 16 19 60 104 27 40 31 105 56 99 29 106 31 107 27 108 29 106 49 109 31 107 20 110 1 111 61 112 57 100 2 21 59 103 59 113 2 113 29 113 16 114 29 115 50 116 16 114 59 117 29 115 14 28 13 118 19 29 48 119 45 119 37 119 62 120 63 121 64 122 11 56 65 123 37 57 50 91 43 93 66 124 39 85 51 94 66 125 46 126 38 126 40 126 41 81 29 42 21 43 41 81 50 127 29 42 51 128 50 128 66 128 17 129 67 130 68 131 30 132 11 133 46 134 69 135 68 136 70 137 51 138 60 138 50 138 51 139 71 140 60 141 72 142 63 121 62 120 73 143 74 144 72 145 75 146 52 147 55 148 4 149 76 150 77 151 16 114 50 116 60 152 20 30 78 153 76 154 47 77 57 155 23 78 78 153 79 156 5 5 24 157 72 145 35 158 2 159 58 159 49 159 9 160 6 160 10 160 24 161 36 162 15 52 36 162 33 53 15 52 4 149 24 161 15 52 76 150 4 149 15 52 70 163 73 143 69 164 12 23 8 165 7 24 30 47 25 36 59 166 60 167 33 168 67 169 60 167 32 170 33 168 67 169 35 158 74 144 58 171 26 171 57 171 10 172 26 173 54 174 59 166 25 36 49 90 20 30 76 154 14 28 80 175 77 176 78 153 67 169 81 177 35 158 58 178 1 178 19 178 41 179 38 179 39 179 61 180 0 180 79 180 23 70 30 47 44 89 67 130 70 163 68 131 82 181 83 182 73 183 72 145 62 184 73 143 78 153 5 5 80 175 15 185 34 97 13 186 19 187 55 188 52 189 23 70 6 15 18 26 4 4 77 176 80 175 84 190 55 188 19 187 19 187 13 186 84 190 26 191 25 191 57 191 81 177 33 168 36 192 64 122 63 121 3 193 63 194 72 194 3 194 61 195 79 195 20 195 20 30 79 156 78 153 18 25 11 27 30 196 5 5 85 197 3 3 76 154 78 153 77 176 46 134 11 133 38 198 65 199 10 172 86 200 86 200 10 172 54 174 13 186 34 97 84 190 53 96 84 190 34 97 85 197 5 5 79 156 23 201 46 201 40 201 37 202 65 203 75 204 75 204 48 205 37 202 75 206 65 199 86 200 34 207 60 167 71 208 1 1 0 0 61 209 14 17 76 210 15 18 72 145 24 157 3 211 47 87 44 89 16 212 52 213 75 214 53 215 75 214 86 216 53 215 34 207 71 208 52 217 48 218 75 218 57 218 28 50 56 219 31 49 87 220 69 221 73 183 2 21 17 20 87 220 0 222 2 21 83 182 82 181 0 222 83 182 79 156 0 222 82 181 2 21 87 220 83 182 85 197 79 156 82 181 64 223 85 197 82 181 64 223 82 181 73 183 62 224 64 224 73 224 55 148 26 225 75 146 49 90 22 45 31 49 53 226 86 227 54 228 53 226 54 228 84 229 16 212 30 47 59 166 58 230 19 231 26 232 85 197 64 223 3 3 81 177 36 192 35 158 10 10 65 233 11 11 20 110 19 234 1 111 58 235 2 2 1 1 2 236 49 236 29 236 47 87 16 212 51 94 71 237 19 237 52 237 87 220 73 183 83 182 48 238 57 155 47 77 74 144 70 163 67 130 74 144 35 158 72 145 34 207 32 170 60 167 68 136 87 239 17 240 16 212 44 89 30 47 16 19 57 100 51 241 57 242 75 242 51 242 66 125 43 243 39 85 57 100 16 19 2 21 42 62 40 64 41 244 67 169 33 168 81 177 60 245 67 130 17 129 51 139 75 246 71 140 19 231 71 247 75 248 19 231 75 248 26 232 23 78 57 155 25 249 73 143 70 163 74 144 48 84 51 94 39 85 69 135 87 239 68 136 5 5 4 4 80 175 54 250 55 250 84 250</p>
        </triangles>
      </mesh>
    </geometry>
  </library_geometries>
  <library_visual_scenes>
    <visual_scene id="scene">
      <node id="right_shoulder_pitch_link">
        <instance_geometry url="#geometry">
          <bind_material>
            <technique_common>
              <instance_material symbol="scout_1a1a1a" target="#scout_1a1a1a" />
            </technique_common>
          </bind_material>
        </instance_geometry>
      </node>
    </visual_scene>
  </library_visual_scenes>
  <scene>
    <instance_visual_scene url="#scene" />
  </scene>
</COLLADA>