<?xml version='1.0' encoding='utf-8'?>
<COLLADA xmlns="http://www.collada.org/2005/11/COLLADASchema" version="1.4.1">
  <asset>
    <created>2026-09-14T00:00:00Z</created>
    <modified>2026-09-14T00:00:00Z</modified>
    <unit name="metre" meter="1" />
    <up_axis>Z_UP</up_axis>
  </asset>
  <library_effects>
    <effect id="scout_1a1a1a_effect">
      <profile_COMMON>
        <technique sid="common">
          <lambert>
            <emission>
              <color>0 0 0 1</color>
            </emission>
            <ambient>
              <color>0.05 0.05 0.05 1</color>
            </ambient>
            <diffuse>
              <color>0.1 0.1 0.1 1</color>
            </diffuse>
          </lambert>
        </technique>
      </profile_COMMON>
    </effect>
  </library_effects>
  <library_materials>
    <material id="scout_1a1a1a" name="scout_1a1a1a">
      <instance_effect url="#scout_1a1a1a_effect" />
    </material>
  </library_materials>
  <library_geometries>
    <geometry id="geometry" name="right_ankle_pitch_link">
      <mesh>
        <source id="positions">
          <float_array id="positions_array" count="150">-0.0108817676 -0.0035422002 -0.0136765623 0.0108648967 0.00140176527 -0.0124000292 0.0109108426 -0.00656231353 -0.0167416241 -0.016223412 -0.0125665134 0.00391258067 -0.016555883 -0.0125665134 0.00372062856 -0.0189706776 -0.0129317883 0.00159429223 -0.0123275109 -0.0129190916 0.00606878148 -0.0160239432 -0.0125665134 0.00402774382 -0.0157574695 -0.0125624398 0.0041803997 -0.0154789863 -0.0125665134 0.00434004609 -0.0152795175 -0.0125665134 0.00445753848 -0.0148633504 -0.012569041 0.00469636219 -0.0133233368 -0.0125294896 0.00558246765 -0.0140036559 -0.012546354 0.00519385841 -0.0125725344 -0.0124971773 0.00601888401 0.0109826699 0.0202631839 -0.0296323076 -0.0109935869 -0.0202814639 -0.0296 -0.010978193 0.0193372983 -0.0299870167 0.0108970301 0.00757085346 -0.0206266306 -0.0108975302 0.00639238674 -0.0237158462 0.0108895833 0.00325865252 -0.0263714772 -0.00527821016 -0.0128937392 -0.00532496767 -0.0054966663 0.0128401471 -0.00545285409 -0.00584317232 -0.0128690824 0.00487729069 -0.0108755175 -0.00110842101 -0.0274480656 0.0108615663 -0.00494542113 -0.0257927962 -0.00488532521 0.0128671834 0.00584766455 0.004914077 -0.0128490664 0.00581925269 -0.0108573372 0.00513689732 -0.0143800173 0.0109363832 -0.0135963913 -0.022375226 -0.0108875195 -0.0131731061 -0.0213303044 -0.0108999051 -0.0075716679 -0.0206266437 0.00549191795 -0.0128476666 -0.00545764854 0.00573787745 -0.0129225887 0.010841595 0.00513756741 0.0129236029 0.0106882146 -0.00358875142 0.0129265618 0.0110868318 0.0109148361 -0.0129488129 0.0158306584 0.0106849624 0.0129938824 0.0162786879 -0.0109457448 0.0136819612 -0.022520287 -0.0189961754 0.0129068578 0.00222130632 0.00584590249 0.0128803346 0.0048714513 0.0113386726 0.0128888236 -0.00180464785 0.0108879358 0.0132746911 -0.021708589 0.00529850833 0.0128734028 -0.00530412793 -0.0114225168 0.0128838308 -0.0066425046 0.0113475928 -0.0128800534 -0.00148063328 0.0109968763 -0.0195668023 -0.0298843086 -0.0039223372 -0.0128629347 0.0110005997 -0.0112126144 -0.0129207335 -0.00687774038 -0.0173503477 -0.0125466855 0.00326065044</float_array>
          <technique_common>
            <accessor source="#positions_array" count="50" stride="3">
              <param name="X" type="float" />
              <param name="Y" type="float" />
              <param name="Z" type="float" />
            </accessor>
          </technique_common>
        </source>
        <source id="normals">
          <float_array id="normals_array" count="390">0.0545190386 0.47147575 -0.880192161 -0.0277706366 0.362667739 -0.931504667 -0.035812024 0.5727337 -0.818958819 -0.500510931 -0.284171283 0.817762494 -0.253413558 -0.863466263 0.43612799 -0.340327889 -0.780011654 0.525127411 -0.485402286 -0.247192711 0.838618159 -0.499886215 0.0121283121 0.866006136 -0.496099621 -0.0789275765 0.864670813 -0.475314736 -0.316432595 0.820942342 -0.484688133 -0.294797242 0.823511958 0.213948727 0.907158375 -0.362339169 -0.487618357 -0.209012315 0.847668707 -0.480204731 -0.227582991 0.847118318 -0.487377435 -0.19242242 0.851725817 -0.49484998 -0.110903576 0.861872315 0.00690876693 -0.00454158662 -0.999965847 -0.00354977697 0.00112727296 -0.999993086 0.0165607203 -0.00977314822 -0.999815106 -0.0418158993 -0.799036086 0.59982729 0.0289878696 -0.521249354 0.852911949 -0.0456526093 -0.421638906 0.90561384 0.998433173 0.00875036046 0.0552682765 0.999314368 -0.0245903805 -0.0276793633 0.999636471 -0.00269367383 0.026827151 0.022444712 -0.343335092 0.938944757 -0.0633741841 0.0704349056 0.99550122 -0.499926507 0.00214857585 0.866065145 0.0871168301 0.0342966169 -0.995607555 -0.0462814495 -0.0165324751 -0.998791635 0.042974703 0.0174795277 -0.998923242 0.0766959339 -0.0807632208 -0.993778169 -0.0453085452 -0.867295384 -0.495727628 0.0322902352 -0.964190483 -0.263237625 0.0723319948 -0.98844111 -0.133237764 0.0209902395 -0.764786124 0.643942237 0.0285603274 -0.775418282 0.630801737 0.0164917763 -0.758348763 0.651640415 0.0492660068 0.864010155 -0.501058161 0.00570351304 0.00225317781 0.999981225 -0.0071710404 -0.00325424201 0.999969006 0.0122965211 0.00507351942 0.999911547 0.04044386 0.811530471 0.58290875 -0.0412312895 0.950071692 0.309295595 0.0755103528 0.723700345 0.685970843 0.0225616321 -0.00134433981 0.999744534 0.0456337146 0.00698792282 0.998933792 -0.236867815 0.0042449655 0.971532643 -0.696824551 -0.017413998 0.717030227 -0.693847895 -0.0185804423 0.719881833 -0.706979215 -0.0133939106 0.707107484 -0.709705412 -0.0123036494 0.704391062 -0.0190969966 0.7624982 0.646708429 -0.0433181636 0.796318769 0.603324056 -0.0341071449 0.783770919 0.620112777 -0.569496572 -0.0032617515 0.821987271 -0.999646187 0.00315042213 0.0264113229 -0.99936986 0.024181392 -0.0259826742 -0.998103559 0.0342638232 -0.0511396714 -0.00755678164 0.999959052 0.00498296833 0.010739998 0.999547124 0.0281105135 -0.00235269917 0.999728441 0.023185432 0.00704435632 0.999157786 0.0404238701 0.00244039157 0.999695539 0.0245523974 -0.000281635148 0.999518514 0.0310263038 -0.00505131809 0.999968112 -0.00618955912 -0.0025942158 0.999966562 -0.00775467791 -0.00695771258 0.999951303 -0.00700203655 0.000859046762 0.999942005 -0.0107331807 0.00480617303 0.99998349 -0.00314847124 0.0029241282 0.999950647 -0.00949561503 -0.0137567678 -0.00607144134 0.99988693 0.999987006 -0.00499187596 0.00105902168 0.999483287 0.00367956725 0.0319315419 0.999965847 0.00824733917 -0.000583603629 0.999651372 0.00842554774 0.0250232723 0.997928798 -0.0351083092 -0.0539024584 -0.0131325936 0.00632155966 -0.999893785 -0.00280364393 -0.999972463 -0.00687482348 0.00682983221 -0.999883056 -0.0136817647 -0.00604596687 -0.999952853 -0.00759962434 -0.00226970878 -0.999995947 0.00171632681 0.00371422502 -0.99999249 -0.0011131186 0.00669943681 -0.999962389 -0.00551052438 0.00471847551 -0.999988854 0.000232589504 -0.0109256664 -0.999908745 0.00794388913 -0.0160659067 -0.99957186 0.024452813 -0.0200297758 -0.999085665 0.0377705954 -0.754252434 0.0110722277 -0.65649116 -0.737499535 0.000157480565 -0.675347567 -0.743697107 0.00415314548 -0.668503881 -0.760163367 0.0150124673 -0.649558485 -0.999888659 -0.0136584472 -0.00601316709 -0.999979436 -0.00577187119 0.00279905717 -0.998806357 -0.01657933 -0.0459457785 -0.998582721 -0.0237254295 -0.0476411991 -0.999919832 0.00233363779 0.0124455318 -0.999995053 -0.00245906343 0.00197549863 -0.999951124 0.00730785029 -0.00666182349 -0.999964833 -0.00491264649 0.00679299841 -0.999488175 0.00118985982 0.0319684334 -0.999416888 0.00649672374 -0.0335214771 -0.999094903 0.00618274929 -0.0420856588 0.999983907 0.000121948695 0.00566876959 0.999910235 -0.00296812039 0.0130666159 0.99992317 -0.00132207398 0.0123244729 0.999982476 -0.00127998122 0.00578195881 0.999574304 -0.00170097314 -0.0291256513 -0.0825529844 -0.797154725 -0.598104835 -0.00747879595 -0.999592662 0.0275417939 0.00213524722 -0.999952376 0.00952073839 0.00329356128 -0.999932289 0.0111617334 -0.090504162 -0.0333877541 -0.995336235 -0.0767228231 0.981442094 0.175741404 -0.998525321 -0.00782905146 0.0537208915 0.999926329 0.00636001257 0.0103402073 0.999809921 0.00295437733 0.0192726925 0.999925852 0.010934785 -0.00536418054 0.999732614 0.0159368459 -0.0167549662 -0.254866511 -0.00182459701 0.966974497 -0.500485182 0.00218753074 0.865742326 -0.506062448 -0.00218131742 0.862494111 0.0934107751 0.170261323 0.980961502 -0.714782894 -0.0176707152 0.699123085 -0.612871051 -0.00702054659 0.790151775 0.094933629 0.973480999 -0.208140284 -0.299283803 -0.823820233 0.481403589 -0.497326881 0.0899117813 0.862891555 0.0334632508 -0.78216958 0.622166336 -0.0105967168 0.750000596 0.661352277</float_array>
          <technique_common>
            <accessor source="#normals_array" count="130" stride="3">
              <param name="X" type="float" />
              <param name="Y" type="float" />
              <param name="Z" type="float" />
            </accessor>
          </technique_common>
        </source>
        <vertices id="vertices">
          <input semantic="POSITION" source="#positions" />
        </vertices>
        <triangles material="scout_1a1a1a" count="104">
          <input semantic="VERTEX" source="#vertices" offset="0" />
          <input semantic="NORMAL" source="#normals" offset="1" />
          <p>0 0 1 1 2 2 3 3 4 4 5 5 3 3 5 5 6 6 7 7 3 3 6 6 8 8 7 7 6 6 9 9 8 8 6 6 10 10 9 9 6 6 11 11 9 11 10 11 11 12 10 10 6 6 12 13 13 14 6 6 14 15 12 13 6 6 15 16 16 17 17 18 18 19 19 20 20 21 21 22 22 23 23 24 24 25 25 26 20 21 8 8 9 9 11 27 23 28 26 29 27 30 28 31 1 1 0 0 18 32 28 33 19 34 16 35 29 36 30 37 0 0 2 2 31 38 32 39 22 40 21 41 31 42 25 43 24 44 33 45 34 46 35 47 33 48 36 49 37 50 33 48 37 50 34 51 19 20 24 25 20 21 15 52 17 53 38 54 39 55 8 8 11 27 40 56 32 57 27 58 41 59 42 60 43 61 42 60 38 62 43 61 38 62 44 63 22 64 41 59 43 61 40 65 38 62 22 64 43 61 34 66 37 67 40 65 35 68 34 66 40 65 39 69 35 68 26 70 22 64 39 69 26 70 41 59 40 65 37 67 40 65 26 70 35 68 32 39 43 71 22 40 41 72 37 73 45 74 36 75 45 74 37 73 23 24 22 23 26 76 15 16 46 77 16 17 36 78 33 79 27 80 33 79 47 81 23 82 27 80 33 79 23 82 47 81 6 83 23 82 5 84 23 82 6 83 45 85 36 78 32 86 29 87 45 85 32 86 32 86 36 78 27 80 44 88 48 89 5 90 44 88 5 90 39 91 38 92 19 93 28 94 38 92 28 94 44 95 16 96 30 97 31 98 17 99 16 96 24 100 30 97 48 101 31 98 24 100 19 93 17 99 48 101 44 95 0 102 44 95 28 94 0 102 31 98 24 100 16 96 0 102 31 98 48 101 38 92 17 99 19 93 18 103 20 104 15 105 42 106 41 72 1 107 1 107 18 103 42 106 15 105 42 106 18 103 28 33 18 32 1 108 30 109 29 87 32 86 48 110 30 109 21 111 30 109 32 86 21 111 5 84 48 110 23 82 23 82 48 110 21 111 26 29 40 112 27 30 31 42 2 113 25 43 40 56 43 114 32 57 39 69 22 64 44 63 46 115 15 105 25 116 29 117 46 115 25 116 1 107 41 72 45 74 1 107 45 74 2 118 45 74 29 117 2 118 20 104 25 116 15 105 2 118 29 117 25 116 47 119 33 45 35 47 35 47 39 120 47 119 47 119 39 120 6 121 6 122 39 122 14 122 14 15 39 55 11 27 12 13 14 15 11 27 39 55 5 123 49 124 13 125 12 125 11 125 11 12 6 6 13 14 49 126 5 5 4 4 3 3 7 7 8 8 49 124 4 127 8 8 4 127 3 3 8 8 39 55 49 124 8 8 46 128 29 36 16 35 38 54 42 129 15 52</p>
        </triangles>
      </mesh>
    </geometry>
  </library_geometries>
  <library_visual_scenes>
    <visual_scene id="scene">
      <node id="right_ankle_pitch_link">
        <instance_geometry url="#geometry">
          <bind_material>
            <technique_common>
              <instance_material symbol="scout_1a1a1a" target="#scout_1a1a1a" />
            </technique_common>
          </bind_material>
        </instance_geometry>
      </node>
    </visual_scene>
  </library_visual_scenes>
  <scene>
    <instance_visual_scene url="#scene" />
  </scene>
</COLLADA>