<?xml version='1.0' encoding='utf-8'?>
<COLLADA xmlns="http://www.collada.org/2005/11/COLLADASchema" version="1.4.1">
  <asset>
    <created>2026-09-14T00:00:00Z</created>
    <modified>2026-09-14T00:00:00Z</modified>
    <unit name="metre" meter="1" />
    <up_axis>Z_UP</up_axis>
  </asset>
  <library_effects>
    <effect id="scout_1a1a1a_effect">
      <profile_COMMON>
        <technique sid="common">
          <lambert>
            <emission>
              <color>0 0 0 1</color>
            </emission>
            <ambient>
              <color>0.05 0.05 0.05 1</color>
            </ambient>
            <diffuse>
              <color>0.1 0.1 0.1 1</color>
            </diffuse>
          </lambert>
        </technique>
      </profile_COMMON>
    </effect>
  </library_effects>
  <library_materials>
    <material id="scout_1a1a1a" name="scout_1a1a1a">
      <instance_effect url="#scout_1a1a1a_effect" />
    </material>
  </library_materials>
  <library_geometries>
    <geometry id="geometry" name="right_shoulder_roll_link">
      <mesh>
        <source id="positions">
          <float_array id="positions_array" count="417">-0.0695581585 -0.0107484218 -0.0789096653 -0.0724907443 -0.0239251629 -0.0874963105 -0.0663344562 -0.0162054319 -0.0833648741 -0.0677877814 -0.0117863566 -0.0854439735 -0.0704123378 -0.0101363277 -0.0867342427 -0.0651922598 -0.0136141386 -0.0817878544 -0.0644411668 -0.0179577209 -0.0862330273 -0.0648578331 -0.0194183066 -0.0848944113 -0.0496328585 -0.00831399113 -0.0888610706 -0.060315866 -0.0251020063 -0.0806362256 -0.0594789945 -0.0241949949 -0.0864907578 -0.078656733 0.0130943134 -0.0878812447 -0.0690841675 -0.00584407523 -0.0862348452 -0.0684093535 -0.0087006595 -0.0830371827 -0.0524056591 0.000854425307 -0.0787480846 -0.0677456558 0.00517334463 -0.0804673061 -0.0557440147 -0.0414035097 -0.125498012 -0.0717516541 -0.0235316567 -0.142684475 -0.0391504243 -0.040789362 -0.140593857 -0.0643877238 -0.0178873278 -0.139989093 -0.0380772054 -0.0479246341 -0.0820370764 -0.0409083106 -0.0348001942 -0.085400857 -0.0535034277 -0.0301119164 -0.0796263739 -0.0431936383 -0.0307761747 -0.0802755281 -0.0343898088 -0.0445165299 -0.1287366 -0.0395261459 -0.0370769314 -0.0781440437 -0.016648395 -0.0331612937 -0.070873037 -0.0249462351 -0.030024346 -0.0775110722 -0.0174205415 -0.0377796218 -0.0827196985 -0.0324941911 -0.00194508885 -0.0820943713 -0.0376421623 0.00058057654 -0.0792337134 -0.0318346284 -0.00260721869 -0.0793812126 -0.0291055255 0.000125305756 -0.0804452896 0.00413785921 -0.0285492763 -0.0614126176 -0.021419879 -0.0249916986 -0.143111065 -0.0118678501 -0.0393967591 -0.141688585 -0.0153454095 -0.0356329381 -0.0903900191 -0.0153475087 -0.0372741707 -0.122711763 -0.00245293858 -0.0245486386 -0.10147205 -0.0156967379 -0.0317205451 -0.0781528726 -0.0108091487 -0.0209971014 -0.0863470733 -0.0165218655 -0.0314218551 -0.086246796 -0.0154768992 -0.0300542861 -0.0801453292 -0.0120629044 -0.0281284619 -0.0801768452 -0.00435757358 -0.0318456627 -0.091924198 -0.00252612145 0.0297533162 -0.0763228089 -0.014345265 0.0316621736 -0.0310076568 -0.0189152416 0.0333043151 -0.071623221 0.00114623096 -0.023775937 -0.122364603 0.0122533413 -0.0117955608 -0.130513355 0.0103187319 -0.00864143297 -0.0664518476 -0.0177805834 0.0425052457 -0.142148718 0.00326503091 0.02972137 -0.0578863472 0.00429232465 0.02378539 -0.140591279 0.00843398646 -0.0124133537 -0.0875528604 -0.00581034692 -0.022740325 -0.0856943354 -0.00380257354 -0.0303216875 -0.0775938258 -0.00976636447 0.0339583196 0.0290731471 -0.0120768892 -0.0102668758 0.0444739163 -0.00324777025 0.041045066 0.0217485856 -0.00679342588 -0.00492206262 -0.0800320208 -0.00359207089 -0.0190549996 -0.0792347342 0.00240363623 -0.0272629075 -0.0741904303 -0.00172216957 -0.0148926238 -0.083315663 -0.00229593343 -0.0155305639 -0.0748045146 0.000195615561 -0.0125355152 -0.0742403865 0.00826806948 -0.0236199219 -0.0371279791 -0.0144675281 -0.0334085375 -0.0298975892 -0.00138464209 -0.0176728647 -0.0390559733 -0.00135645422 0.0103025353 -0.0155004933 -0.00363218691 -0.0190218631 -0.0185285769 -0.00254047546 -0.0206917878 0.000194475026 -0.000703182828 -0.030406002 0.0346120708 -0.0119749764 -0.0446087569 0.00631307531 0.00590059906 -0.0398159623 -0.00823797472 0.0041650706 -0.0278671663 0.026719017 0.00514252763 -0.0339797698 0.000743719225 -0.00317629194 -0.0195183363 0.0198988337 8.27375698e-05 -0.00727889594 0.0174011141 0.000839615823 0.0105403969 0.0423797406 0.00528662046 -0.0104011903 -0.140896589 -0.0778678507 0.00899382867 -0.141557768 -0.0537179522 0.0239646714 -0.141890511 -0.0689234659 0.0105280494 -0.0855272263 -0.066550605 0.0161730628 -0.0790962726 -0.0677972287 0.0104127852 -0.083084099 -0.0661977306 0.0173239801 -0.0863029882 -0.0608905144 0.0193413794 -0.0827418417 -0.0671847835 0.0134037565 -0.0840086117 -0.0521991365 0.0144505436 -0.0877175257 -0.0592754446 0.0261315238 -0.0848869383 -0.0562413149 0.0286386535 -0.0790104195 -0.0569910333 0.0270724837 -0.08364629 -0.0517819785 0.031715218 -0.0859143808 -0.0455125272 0.0329351388 -0.0811980888 -0.0560431443 0.0284505729 -0.0852079391 -0.0530238114 0.0306688976 -0.0846877545 -0.060923323 0.0356206894 -0.141390175 -0.0547813401 0.0415506326 -0.0871412084 -0.0399763696 0.0447113216 -0.128333509 -0.022374196 0.0348238572 -0.0859272107 -0.0346973985 0.0447099544 -0.0768280625 -0.0358494781 0.00270559546 -0.0804673433 -0.0339995772 0.000812427606 -0.0864626318 -0.030948149 0.00144846586 -0.0865051374 -0.0326699615 0.013216624 -0.0792656913 -0.0215121247 0.0285676345 -0.0788193196 -0.0189617611 0.0062430664 -0.0796535537 -0.0137717919 0.0131528312 -0.0795006678 -0.029234197 0.0411295556 -0.140846848 0.0107924137 -0.0132247927 -0.0146705257 -0.0243194047 0.0161364432 -0.145849839 0.00680126576 0.0238706861 -0.0245320518 -0.00160498347 0.0171494186 -0.039592348 0.000238585024 0.0314787254 -0.000568158051 -0.00248335372 0.0200996362 -0.00154093502 0.00862102862 0.0155184083 -0.0880539268 -0.01293795 0.0412627384 -0.0138112037 0.00378484488 0.0335207097 -0.0273726266 0.00530440779 -2.12801151e-05 0.0332301818 0.00458730198 0.0365435742 0.00175888313 -0.00261015026 0.010154495 0.0144101884 0.00443483237 0.0254129861 0.0234628506 -0.00109566026 0.00292062527 0.0425001606 0.00434981752 -0.0314111449 -0.0283838511 0.00898551848 -0.0237465966 -0.0211205725 0.00986484904 -0.0191260371 -0.0246238038 0.0115345009 -0.0211351439 0.0239096023 0.0099110622 -0.0211190898 0.00897143967 0.00179782161 -0.0113120358 -0.0167735945 0.00880267099 0.00736752432 0.018294856 0.012373955 0.00135805365 0.0228087399 0.00458366657 0.0133734317 -0.0749704689 0.0114784548 0.00911997259 -0.0548367016 0.00903302152 0.0147969471 -0.0149705801 0.0104723433 0.0333466157 0.00511707878 0.00585887628 0.0180435926 -0.0739085004 0.00873233564 0.0227360986 -0.0379223004 0.0088475477 0.0198534317 0.0125571433</float_array>
          <technique_common>
            <accessor source="#positions_array" count="139" stride="3">
              <param name="X" type="float" />
              <param name="Y" type="float" />
              <param name="Z" type="float" />
            </accessor>
          </technique_common>
        </source>
        <source id="normals">
          <float_array id="normals_array" count="1344">0.163974643 -0.563927472 0.809381306 0.266880482 -0.611480534 0.744893491 0.247571766 -0.603200197 0.758193731 -0.433260411 0.0155029492 0.901135445 -0.193368688 -0.0441601239 0.980131865 -0.3038086 -0.00685961172 0.952708364 -0.229673684 0.492945313 -0.839198947 -0.23888123 0.489574075 -0.838601828 -0.367091656 0.635757565 -0.679011047 -0.558159769 0.641513824 0.52622962 0.382655203 -0.65426296 0.65231508 -0.852582872 -0.516617417 0.0787965432 -0.903601766 -0.249539807 -0.348186404 -0.809896767 -0.585712314 0.0317536443 0.48873812 -0.581244707 0.650607109 0.491339684 -0.600504041 0.630856752 0.488937497 -0.582642972 0.649205089 0.486338258 -0.565204859 0.666347146 -0.485379726 0.66062665 -0.57269448 0.256899029 -0.589622498 0.765733778 0.239173725 -0.365084171 0.899727464 0.224580124 -0.24640812 0.942786753 -0.558113754 -0.819076955 -0.13274768 0.693830729 0.570164561 -0.439899176 0.586597264 0.571705163 -0.573634744 0.518083096 0.565119803 -0.642051041 -0.971045732 0.0668110922 -0.229361013 0.128235012 0.47372666 -0.871285737 -0.219173089 -0.0296312105 0.975235939 -0.0210104696 -0.0660528019 0.997594893 -0.767522216 -0.508596539 -0.390178442 -0.82263428 -0.446416795 -0.352114886 -0.799411416 -0.474031806 -0.36910066 -0.621096611 -0.555968881 0.552392602 -0.964706123 0.0108874962 -0.263103694 -0.549724579 -0.677257359 -0.489004493 0.259151697 -0.679127336 0.68675071 -0.132939577 0.715872407 -0.685458779 0.537353694 -0.798163414 0.272371471 -0.498513669 0.864397407 -0.0655842349 0.117801823 -0.040274594 0.992220104 -0.00789311994 0.0429167636 -0.999047458 0.157555461 0.172564715 -0.972315609 0.182009056 -0.0718449503 -0.980668664 0.0778251216 -0.0266613271 -0.996610463 -0.466802657 -0.870621443 -0.155285627 -0.857255876 -0.501360774 -0.117259376 -0.159073427 -0.93007654 -0.331139326 0.196113378 -0.0143122338 -0.980476797 -0.0444125235 -0.0511557497 -0.997702658 0.203917637 0.0796589553 -0.975741804 0.00163520838 -0.999084949 0.0427382179 -0.856635332 -0.514580011 0.0371922366 -0.32002604 -0.847987831 0.422492594 0.022886876 0.252839059 0.967237592 -0.485176027 -0.750267684 -0.44911316 -0.0364479907 0.741032958 0.670478761 -0.0864274576 -0.87385571 -0.478441685 0.455715925 0.830829501 0.319445282 -0.0789269358 -0.394791335 0.915374398 -0.510109603 -0.835949659 -0.20242621 0.483160615 0.560020447 -0.673002899 -0.305368155 -0.93343848 -0.188262835 -0.00599402934 0.0671815127 0.997722745 0.133142635 0.0650590137 0.988959253 0.0701452792 0.104576983 0.992039979 0.298274964 0.875969827 -0.379089594 -0.0929282382 -0.0636191517 0.993638217 -0.0111445272 -0.0304154307 0.999475241 -0.384102672 -0.350092411 0.854342103 0.00376374274 -0.987253428 -0.159111485 -0.175940797 -0.203536674 0.963129103 -0.257798404 -0.337081671 0.905492067 -0.0571480989 0.0851311907 -0.994729519 -0.941362143 -0.25860402 -0.216705561 -0.367754459 -0.159055814 0.916219354 0.0881543159 0.763084829 -0.640258014 0.125011191 0.662390888 -0.738654554 0.0658666417 0.621112347 -0.780948758 -0.190460622 -0.207805589 -0.959448576 0.0285845343 -0.0146209374 -0.99948442 -0.00827725045 0.742172658 -0.670157611 0.480836689 0.871560037 0.0958081484 0.413035035 0.0483420752 -0.909431219 0.282982707 0.097743094 -0.954131603 0.449684232 -0.0248566121 -0.892841637 0.0663913563 0.0797233656 0.994603634 0.189679682 0.185977116 0.964071631 0.246842489 0.127543196 0.960625589 -0.386993647 -0.12873511 0.913051605 0.00705717411 -0.070297718 -0.997501075 0.0357391424 -0.0747110471 -0.996564567 0.816576123 -0.572598696 0.0730349794 0.903096378 -0.40936619 0.129754841 0.654984891 -0.753262758 0.0599172264 0.65544498 -0.753349781 0.0534420125 -0.179599032 0.969229221 0.168341681 -0.165841803 0.971292794 0.170548424 -0.216345191 0.962740064 0.162253976 0.9298383 -0.332016587 0.158637255 0.00442137336 0.601089299 -0.79916966 0.954470694 0.285406142 -0.0867702514 0.960913599 -0.255176991 -0.107376747 0.993533731 -0.0476713404 -0.103044406 -0.0551585518 0.976278663 -0.20937413 -0.128428727 0.0346945636 -0.991111696 -0.0133304624 0.0479975864 -0.998758495 -0.242545262 0.415626138 -0.876599491 0.384175211 -0.360366404 0.850026727 0.503839731 -0.391860098 0.769799471 0.314053893 -0.619827867 0.719154775 0.505752504 -0.269266337 0.819579184 0.760047138 -0.537792027 0.364839822 0.740333438 -0.489063412 0.46121949 0.623210549 -0.382372111 0.682202458 -0.358244419 0.646102369 0.673953056 -0.262338072 0.657354057 0.70644486 0.0391225554 0.649864256 0.75904274 -0.258976132 -0.965194166 -0.0364904255 -0.33423838 -0.941289544 -0.0475255251 -0.220186099 -0.974959135 -0.0311900489 0.6302917 -0.772223532 0.0800203905 0.770092905 -0.637475908 0.0241126511 0.941164196 -0.224699467 -0.252428412 0.957176447 -0.286293656 0.0430019572 0.346816987 0.934520245 -0.0799368992 0.586133003 0.810016334 0.0179348849 0.859907627 0.499746829 -0.10398075 0.195253 -0.797640622 -0.570653737 0.434939563 -0.460685968 0.773689866 0.569994688 -0.40023765 0.717576385 -0.123165414 0.976447225 0.17714718 -0.0341818519 0.607729673 -0.793408036 0.122735359 0.63693279 0.761086464 0.602623641 0.23418197 0.762891591 -0.798738718 -0.0364016406 0.600575864 -0.731373847 0.68192482 0.00841602404 -0.0719696805 -0.862003744 -0.501766801 -0.173260272 -0.740133822 -0.649756014 0.955323756 -0.209371492 -0.208614737 0.943067193 -0.320257455 -0.0897745341 0.954153478 -0.0605200492 -0.293135554 0.525909007 -0.132195383 -0.840204775 0.906867027 -0.421182364 -0.0140582426 -0.991978347 0.112071067 -0.0584725142 0.805602551 0.509385049 -0.302541554 -0.464519739 0.225107744 0.856474102 -0.0112637887 0.517573178 0.855564833 0.92357862 -0.381930918 0.0336341523 -0.0937353969 -0.441444546 -0.892379045 0.078251496 0.347528934 -0.934398413 -0.386143476 0.801527143 -0.456560493 -0.999289751 0.0371114574 -0.00653402135 -0.996626794 0.0794619843 -0.020514112 -0.995427132 0.0706067905 0.0643392503 0.625792027 -0.736055553 0.258082479 0.439765453 -0.860625386 0.256769031 0.540277719 -0.800610721 0.259079993 -0.564067423 0.798788726 -0.209199816 -0.581391513 0.813142776 -0.027977081 -0.467630744 0.883923709 0.000601949054 -0.868173003 0.133639157 -0.477929026 0.798924029 0.100150004 0.593034863 0.438180745 -0.183443189 0.879969418 0.631629407 -0.167400852 0.756981671 0.493566811 -0.858337581 -0.140172556 0.799934089 -0.204464927 -0.564180374 -0.152258769 -0.942657053 0.297009975 -0.0310968012 0.0279589016 -0.999125242 -0.0453389995 0.0404892042 -0.998150766 -0.73098278 -0.0867448226 -0.676860034 -0.730216563 -0.150402173 -0.666455567 -0.692602396 -0.413678348 -0.590907872 -0.485138625 0.139676511 0.863209665 0.00561957248 0.687458336 0.72620213 0.974015474 0.000228400633 -0.226481289 0.974457443 -0.000825453724 -0.224570721 0.976487041 -0.00582167692 -0.215497553 -0.973665118 0.036644578 0.22501877 -0.994238317 0.106478855 0.0123450188 -0.993567944 0.110836007 -0.0231977366 -0.95222646 -0.00531278318 0.305346578 -0.906065941 -0.0901271328 0.413426697 0.1527538 -0.0300434884 0.987807512 0.372792274 -0.0437201336 0.926884294 0.833075106 -0.380016387 -0.401961982 0.451774061 -0.3623918 -0.815213084 0.302855402 -0.2458141 -0.920789897 0.309183329 -0.338066369 -0.88888514 0.459893018 -0.378822714 -0.803113818 -0.218995109 0.298443317 0.928963244 -0.262704313 0.456669867 0.849964142 -0.19037208 0.214410201 0.958011866 -0.2980088 -0.298609704 0.906654835 -0.855946481 0.516661823 0.0204008147 -0.871663332 0.466448665 -0.150428116 -0.772821605 0.590299368 -0.233009458 -0.872115314 0.488030046 0.0352358371 0.604460061 -0.510249197 -0.611779273 -0.101978242 -0.792687833 0.6010378 -0.771441519 0.626909256 0.108916394 0.97707969 -0.00733335549 -0.212747365 0.324105978 -0.0327634029 0.945453286 0.547066331 0.131064177 0.82676512 0.437291354 0.04728356 0.898075998 -0.764948368 0.631762326 0.125420734 0.556213915 -0.367732048 -0.745251119 0.40946728 -0.351765215 -0.84178251 -0.233403131 0.932051241 -0.277134448 -0.461574256 0.482459694 -0.744433939 0.166332304 -0.162876457 -0.972525001 0.185607716 -0.123774789 0.974797189 -0.5874089 0.756065607 0.288644493 -0.59537077 0.797760189 0.0954581946 -0.461501092 0.715765834 0.524114549 -0.544263959 0.837859154 0.0420568623 -0.845331311 0.53249377 -0.0431900062 -0.80110532 -0.114660524 -0.587437809 0.631500602 -0.111240074 0.76735431 0.377190471 -0.151502445 0.913659871 0.477110296 -0.137884483 0.867959499 -0.517333984 0.852871299 0.070541285 0.467641413 -0.679550707 -0.565263033 -0.344005138 0.928887427 0.137217268 0.267923921 -0.957306564 -0.108539961 0.16726172 -0.985375643 0.0325323492 0.329146236 -0.923122346 -0.198765814 -0.6115641 0.784056485 -0.106041454 -0.451065242 0.892467439 0.00647693779 -0.137157813 0.979517221 -0.14742367 0.736512125 -0.0878437608 0.670696139 0.0114426045 -0.104142971 0.994496524 -0.0258887149 -0.0426322818 0.998755336 0.0107305087 -0.0368855372 0.999261856 -0.595935225 0.802569091 -0.0272776503 0.104455307 -0.987668991 0.116615184 -0.321995586 0.0239897817 0.94643718 -0.249968186 0.0444197692 0.967234612 -0.453254163 -0.0270860903 0.890969694 0.0251491573 0.55023104 0.834633648 -0.0376466922 -0.549882412 -0.834393263 -0.573829889 -0.105486095 0.812152684 0.68488884 -0.69839555 -0.207776055 0.419380099 -0.820483744 0.388492972 -0.0241685249 -0.0105138002 0.999652624 -0.00409051636 0.086209923 0.99626857 0.0415851586 0.0193010978 -0.998948514 0.0973467976 0.0839276761 -0.991705477 -0.474991262 0.660976887 0.580941319 -0.987084866 -0.0509985909 -0.151863888 0.288356602 0.0222108942 -0.957265437 0.805450022 -0.469568789 0.361601204 0.459476739 -0.774478853 -0.434814513 0.953025937 -0.0448386148 0.299551398 0.0129813142 0.0424643904 0.999013662 -0.0273366999 0.0384818129 -0.998885334 0.0164355282 -0.0546288565 -0.998371482 -0.0279187579 -0.0395641141 0.998826921 -0.117218584 0.0661181435 0.990902722 -0.0747626424 0.0781500861 -0.994134367 -0.0722074285 -0.753014386 -0.654030085 -0.556326151 -0.451434046 0.697644949 -0.57258749 -0.493566245 0.654626548 -0.59389782 -0.556748271 0.580789745 -0.152819723 0.907622397 -0.390982956 0.956868887 -0.287471294 -0.0419789962 0.950611472 -0.308493942 -0.0341958404 0.988191962 -0.145776838 -0.0471775793 0.0407888144 -0.00234222435 -0.999165058 0.957384884 -0.149101645 -0.247351736 -0.529666126 -0.388925612 0.75378418 0.0222377852 0.0669424608 -0.997509003 0.131206527 -0.0297744386 -0.990907848 -0.583649039 0.81184572 -0.0161352456 -0.631903231 0.769824147 0.0898279473 -0.579507887 0.812480867 0.0636035725 -0.857591808 0.507299423 -0.0847560763 -0.78752023 0.59062916 0.175980181 -0.897800207 0.41214022 -0.155226529 -0.857434511 0.506780624 -0.0893279314 -0.968897283 0.237660632 -0.0689596087 -0.0122349588 0.102548972 -0.994652689 -0.0888576955 -0.1861808 -0.978489161 0.133631498 0.0607255064 -0.989168882 -0.0183329545 -0.0521852784 0.998469114 -0.433218926 -0.750515819 0.499046445 -0.197690189 -0.967178404 0.159638658 -0.00836259872 -0.872820675 0.487969398 -0.178391829 -0.932969272 0.312641561 -0.507432759 0.769388139 -0.388012797 -0.213074222 0.21401234 0.953309 -0.633613527 0.286048889 -0.7188254 -0.638216257 0.308795989 -0.705212772 -0.613533676 0.203512892 -0.762993395 -0.274846733 -0.952379763 -0.132030338 0.39052844 0.91533643 -0.0982175916 0.388558239 0.916144907 -0.0984936953 0.384259969 0.917891443 -0.0990936011 -0.874405622 0.106103711 0.473452061 -0.918608069 0.225736126 0.324349254 0.232699737 -0.330657601 -0.91461271 -0.594244063 -0.598631084 0.53713578 -0.551694512 0.415273577 0.723312497 -0.896176994 -0.180124789 0.405489594 -0.497829854 -0.714847982 -0.491078228 -0.627414405 0.758623779 0.175616458 -0.614759743 -0.567895889 -0.547325134 -0.514989138 0.835068405 0.193512231 -0.392773062 -0.804489613 -0.445562333 -0.880080998 0.470294595 0.065424569 0.969604492 -0.188561693 -0.155921921 0.435186774 -0.461098671 0.77330488 -0.817776322 0.278764397 -0.503519952 -0.855660498 0.406605601 -0.320182681 -0.73576802 0.656924665 -0.164606586 -0.652946293 0.382893622 -0.653493404 -0.916327596 -0.35762015 0.180143178 0.978378952 -0.195974872 -0.0660941005 -0.370822132 0.419987351 -0.828312457 -0.0392148718 -0.996789932 -0.0697996989 -0.771132827 0.157358542 0.616921723 0.936824977 -0.11338599 0.330911785 -0.124731377 0.926980078 0.353765547 -0.18307665 0.93451786 0.305220157 0.0766787603 0.962083578 0.261754662 -0.999130011 -0.036018841 0.0210219342 -0.991244793 0.112973109 0.0683435425 -0.952340305 0.303477168 0.0308149494 0.140144169 0.962331653 0.232975185 0.00839735474 0.999855638 -0.0147702983 0.97494781 0.0930326283 0.202043772 0.978156269 0.133352906 0.159459531 0.943997025 0.119648613 0.307495981 -0.953103781 -0.249899313 0.170714721 0.715088665 -0.651533544 0.253283054 -0.789870083 -0.602930546 0.11216069 0.44089371 0.674065351 -0.592662334 0.254081368 -0.25857389 -0.93197757 0.252314538 -0.264255822 -0.930863142 0.294213206 -0.11728403 -0.94851625 -0.372087061 0.275611937 -0.886334717 -0.74662137 -0.122352131 0.653900981 0.962375224 0.0684957951 0.262949169 0.912834406 0.327912092 -0.243324816 0.92333287 0.342377543 -0.17387943 0.985697329 0.151413858 -0.0739905462 -0.657407165 -0.750590265 0.0665587038 0.372964919 -0.892195165 0.254725128 0.303572237 -0.76820761 0.563649714 0.369643003 -0.887082636 0.276493043 0.394308567 0.913771451 -0.097685881 0.958381116 0.283596605 -0.0328426063 -0.0913511068 -0.655309141 0.749816537 -0.818514466 -0.557646751 0.138073102 0.957319558 0.226281345 0.179822251 -0.237212658 -0.955754936 0.17396155 -0.957528651 -0.28290087 0.0557316244 -0.604379117 0.696576178 -0.386662036 0.536210656 -0.718179166 -0.443505108 0.202770472 -0.409484357 -0.889497995 -0.758857727 -0.301846236 -0.577082157 -0.788241327 0.549790978 0.276415557 0.786822081 0.414621562 0.457165182 -0.984193802 -0.176824614 -0.00978096668 -0.98640573 -0.164316729 -0.00194461725 0.143050551 0.0892601833 -0.98568207 -0.0397143029 -0.0216853097 -0.998975754 0.058087185 0.797632277 -0.600340426 -0.996142507 0.00812456198 0.0873731971 -0.961426854 -0.274623007 -0.0155130411 -0.998192489 -0.0577657595 -0.016577838 0.283766687 -0.0584620349 -0.957109511 0.985566199 -0.167593524 -0.0239100363 0.995316744 -0.0964320973 0.00674138498 0.397353888 -0.917633176 -0.00769506954 0.0924156606 -0.0395609215 0.99493432 -0.0243833251 0.150264785 0.988345027 -0.0799078569 0.24056001 0.967339456 -0.0120102111 0.0832012668 0.996460378 0.0364670567 0.0281018727 0.998939633 0.0400096066 -0.0025303429 0.999196112 -0.0555764958 -0.97044903 -0.23481892 0.0147741027 -0.954952538 -0.296390533 -0.244195133 -0.968064606 -0.0567416288 -0.43193838 -0.708960354 0.557498395 -0.095585458 0.443295926 -0.891264379 -0.464219898 0.882280588 -0.0779796541 0.300851256 -0.930887878 -0.207210571 -0.310488343 -0.950515926 0.0107900565 0.0742634982 0.741368055 -0.666977048 -0.428984761 -0.125010654 0.894619703 -0.332171887 0.943208873 0.00434576534 -0.292286873 0.956092894 0.0213256143 -0.36727035 0.930050969 -0.0108488947 -0.402350932 0.915108085 -0.0262844041 -0.126073763 0.575218797 0.808225632 -0.934569657 -0.298179597 0.194083735 0.991916418 -0.107497565 -0.067424871 0.935746491 0.342829674 -0.0827422664 -0.98504132 0.0368576236 -0.168330297 -0.648629367 -0.547109008 -0.529104531 0.646483362 -0.34773773 0.679071188 -0.00965171214 0.0369269215 -0.999271333 -0.224899441 -0.973149359 -0.0489956811 0.155197233 0.987173915 0.0374360532 0.72393769 -0.684650242 0.0846655145 0.14512673 0.98913008 0.0236624964 -0.999712288 -0.00429053046 0.0235988218 -0.999690771 -0.00509047229 0.0243408233 -0.999823272 -0.00548523711 0.0179811902 -0.999616802 0.0219581705 -0.0168536045 -0.375430942 -0.924973369 -0.058956746 -0.124570392 0.945449948 0.301009268 -0.437856764 0.898041844 -0.0424532443 -0.657177567 0.457589149 -0.598940551 -0.942530155 0.187799662 0.276347846 -0.941070676 0.287072659 0.178816304 -0.957831681 0.127016455 0.25773114 0.601277232 0.796316028 -0.0659280419 -0.7933653 0.608709276 -0.00667286338 -0.0193106588 0.00908766314 0.999772251 -0.00227576401 -0.0314060152 0.999504089 0.00948679447 -0.0111882538 0.999892414 0.00741175422 0.0149961477 0.999860108 -0.00562305609 -0.0646168813 0.997894287 0.0103251785 0.0489275903 0.998748958 -0.00571788102 -0.127025291 0.99188298 0.0244806483 0.0618334636 0.997786224 0.0274828468 0.03045661 0.999158204 0.0241218563 -0.0200700164 0.999507546 -0.518654883 -0.854140401 -0.0379646383 -0.842305481 0.53635335 -0.053352762 -0.996648669 0.0789870098 -0.0212727189 -0.999129772 -0.0387672372 -0.0153874345 -0.999372721 -0.0272710361 -0.0225926824 -0.999976635 0.000459439703 -0.00682190154 -0.998685837 -0.0240452792 -0.0452590585 -0.0470474921 0.998693407 -0.0199506413 0.118886255 -0.0339941271 -0.992325783 0.309675694 -0.0791500434 -0.947542191 0.245614991 -0.0640150234 -0.96725142 0.113503143 -0.0327166654 -0.992998838 -0.173736453 0.864960432 0.470806837 0.780478358 0.59708631 0.185314536 -0.855858803 -0.39869228 -0.329469472 0.945712566 -0.195242122 0.259823591 -0.126513347 -0.0196861438 -0.991769552 -0.833883643 -0.222484395 -0.505112588</float_array>
          <technique_common>
            <accessor source="#normals_array" count="448" stride="3">
              <param name="X" type="float" />
              <param name="Y" type="float" />
              <param name="Z" type="float" />
            </accessor>
          </technique_common>
        </source>
        <vertices id="vertices">
          <input semantic="POSITION" source="#positions" />
        </vertices>
        <triangles material="scout_1a1a1a" count="358">
          <input semantic="VERTEX" source="#vertices" offset="0" />
          <input semantic="NORMAL" source="#normals" offset="1" />
          <p>0 0 1 1 2 2 3 3 4 4 1 5 0 6 5 7 1 8 6 9 1 9 7 9 2 2 1 1 6 10 0 11 2 12 7 13 8 14 5 15 2 16 8 14 2 16 6 17 1 8 5 7 8 18 8 19 3 20 1 21 0 11 7 13 9 22 6 23 5 24 10 25 7 26 5 26 6 26 2 27 5 27 7 27 1 5 4 4 11 28 11 28 4 4 12 29 0 30 11 31 12 32 13 33 4 33 3 33 13 34 3 34 0 34 13 35 0 30 12 32 8 19 14 36 3 20 4 37 14 37 8 37 14 38 0 38 3 38 13 39 14 39 4 39 8 40 12 29 4 4 0 6 14 41 5 7 13 42 15 43 14 44 16 45 17 46 18 47 19 48 18 49 17 50 16 45 20 51 1 52 9 53 1 53 21 53 21 54 1 54 20 54 22 55 9 55 21 55 1 56 22 56 10 56 23 57 22 57 1 57 10 58 22 58 21 58 10 59 7 59 1 59 10 60 9 22 7 13 5 24 23 61 10 25 10 60 23 62 9 22 8 63 6 64 10 65 9 66 23 66 1 66 22 67 0 68 9 69 24 70 16 45 18 47 25 71 22 67 20 72 22 73 23 73 20 73 20 74 23 74 21 74 26 75 25 71 20 72 21 76 27 77 28 78 14 41 29 79 27 80 14 81 30 81 29 81 30 82 31 82 29 82 29 83 32 84 27 85 32 86 31 87 27 88 26 75 20 72 33 89 34 90 35 91 18 49 36 92 28 93 37 94 36 92 37 94 38 95 26 96 39 97 25 98 40 99 28 93 36 92 39 100 28 78 27 77 41 101 42 102 39 103 27 104 42 104 41 104 27 105 43 106 42 107 44 108 41 109 36 110 44 108 40 111 41 109 43 112 39 113 44 114 42 115 43 116 40 117 45 118 46 119 47 120 38 95 37 94 48 121 33 122 49 123 50 124 51 125 52 126 53 127 44 128 36 128 38 128 54 129 55 130 44 114 39 97 26 96 56 131 39 100 56 132 28 78 55 133 40 117 43 116 55 130 43 112 44 114 57 134 58 134 59 134 60 135 40 135 56 135 26 136 61 136 43 136 26 137 43 137 56 137 56 138 40 138 55 138 55 139 61 140 56 141 62 142 56 142 61 142 63 143 61 140 55 139 64 144 63 144 56 144 60 145 65 145 63 145 64 146 65 146 60 146 62 147 61 147 26 147 64 148 61 140 63 143 66 149 67 149 68 149 60 150 63 150 40 150 54 151 40 151 63 151 69 152 70 153 71 154 72 155 73 156 74 157 75 158 76 159 73 160 77 161 78 161 76 161 79 162 58 163 72 164 35 165 80 166 49 123 36 167 39 167 27 167 81 168 82 169 17 50 40 170 44 171 42 172 15 173 11 173 0 173 15 174 83 174 11 174 83 175 15 176 12 177 84 178 15 179 0 180 84 178 85 181 15 179 84 178 83 182 85 181 86 183 83 184 12 29 85 185 83 185 86 185 85 186 87 187 15 43 11 188 88 189 85 186 11 190 85 191 86 192 83 193 88 193 11 193 84 194 88 195 83 196 84 194 86 197 88 195 87 187 88 189 86 198 88 189 87 187 85 186 89 199 87 199 86 199 86 197 84 194 90 200 13 201 12 177 15 176 90 202 87 203 89 204 91 205 90 200 84 194 90 206 92 207 87 187 91 208 92 208 90 208 93 209 86 209 90 209 87 187 92 207 94 210 95 211 90 202 89 204 95 212 93 213 90 214 91 215 95 212 92 216 92 217 95 217 89 217 96 218 92 219 89 220 96 221 93 213 95 212 91 215 96 221 95 212 94 210 92 207 96 222 91 215 94 223 96 221 93 224 94 225 91 226 97 227 98 228 99 229 93 230 96 218 89 220 93 231 89 232 100 233 91 234 101 234 93 234 94 225 93 224 100 235 98 236 93 237 101 238 102 239 89 239 14 239 89 240 30 240 14 240 30 241 89 241 8 241 102 242 30 242 8 242 8 243 103 243 102 243 104 244 89 232 103 245 14 44 105 246 102 247 103 248 8 248 29 248 105 249 104 249 31 249 102 247 105 246 31 250 102 251 106 251 30 251 104 252 29 252 8 252 104 253 105 253 29 253 105 246 32 84 29 83 32 86 102 254 31 87 105 246 107 255 32 84 107 255 27 105 31 256 108 257 32 86 107 258 108 259 107 255 31 256 106 260 94 260 100 260 47 261 101 262 106 263 99 229 51 125 109 264 33 265 54 266 110 267 105 246 106 268 107 255 100 269 47 269 106 269 101 262 47 261 52 270 111 271 80 272 34 90 44 273 48 274 37 275 112 276 113 277 69 278 114 279 112 276 69 278 114 279 69 278 115 280 109 281 51 282 53 283 32 86 108 257 106 284 116 285 45 285 100 285 117 286 46 287 118 288 117 289 52 289 46 289 118 290 46 290 112 290 58 291 119 292 75 293 120 294 117 286 118 288 59 295 52 296 117 297 114 279 115 280 121 298 122 299 114 279 121 298 57 300 123 300 58 300 58 301 73 301 72 301 59 302 58 302 79 302 61 303 64 303 60 303 120 294 57 304 117 286 57 305 59 305 117 305 57 304 120 294 122 306 73 160 76 159 124 307 76 308 70 308 125 308 125 309 124 307 76 159 63 310 65 310 56 310 54 129 63 311 55 130 65 312 54 313 56 314 27 315 40 315 36 315 66 316 64 316 62 316 110 267 74 317 33 265 70 318 126 318 124 318 126 319 70 319 68 319 126 320 68 320 124 320 110 267 127 321 74 317 71 322 128 323 110 324 50 325 54 326 33 327 129 328 110 324 54 329 129 330 69 331 71 332 110 324 129 328 71 322 31 333 103 333 29 333 74 157 127 334 72 155 75 335 77 335 76 335 71 336 78 336 128 336 121 337 130 338 78 339 130 340 128 340 78 340 119 341 77 341 75 341 131 342 79 162 127 321 72 164 127 321 79 162 132 343 52 344 133 345 134 346 132 346 133 346 134 347 115 348 69 349 135 350 52 296 59 295 53 127 52 126 116 351 124 352 125 352 70 352 45 353 136 353 137 353 135 354 133 345 52 344 138 355 115 355 134 355 24 70 20 51 16 45 118 356 112 356 120 356 114 279 120 357 112 276 115 358 138 358 121 358 130 338 121 337 138 359 57 304 122 306 123 360 135 354 79 162 131 342 120 361 114 279 122 299 59 362 79 162 135 354 81 363 1 52 11 364 102 254 32 86 106 284 87 187 14 44 15 43 14 41 27 80 23 365 23 365 5 7 14 41 43 106 27 105 60 366 107 255 60 366 27 105 21 76 23 367 27 77 54 326 50 325 116 368 49 369 110 370 50 325 56 371 43 106 60 366 18 47 35 165 24 70 1 52 81 363 17 46 65 372 132 373 129 330 132 373 69 331 129 330 35 165 33 122 20 51 1 52 17 46 16 45 69 349 132 374 134 347 86 183 12 29 8 40 89 375 86 183 8 40 10 65 21 376 8 63 21 376 28 377 40 378 40 378 104 244 8 63 40 378 54 379 104 244 8 63 21 376 40 378 54 379 116 380 104 244 74 381 73 382 67 383 49 123 133 345 110 267 110 267 133 345 127 321 127 321 133 345 131 342 133 345 135 354 131 342 46 384 113 384 112 384 46 385 137 385 113 385 33 122 35 165 49 123 136 386 113 386 137 386 26 387 33 387 74 387 67 383 26 388 74 381 75 389 73 389 58 389 62 390 64 390 56 390 62 391 26 392 67 393 67 393 66 394 62 391 68 395 67 395 124 395 70 396 76 396 78 396 70 397 78 397 71 397 36 398 41 101 39 103 48 399 44 399 38 399 98 236 11 190 86 192 86 192 93 237 98 236 42 172 44 171 39 400 40 111 27 401 41 109 82 169 19 48 17 50 19 48 34 90 18 49 82 169 81 168 97 402 35 91 34 90 80 272 80 272 111 271 53 283 109 281 53 283 111 271 97 402 109 281 82 169 109 281 111 271 82 169 100 403 45 118 47 120 98 228 101 404 99 229 61 405 39 113 43 112 47 406 46 406 52 406 106 268 60 366 107 255 104 244 116 380 100 233 89 232 104 244 100 233 45 407 64 408 113 409 64 408 68 410 113 409 113 409 68 410 69 152 68 410 70 153 69 152 45 118 137 411 46 119 67 412 73 160 124 307 37 275 28 413 44 273 119 292 58 291 123 414 78 415 77 416 119 417 122 299 121 298 78 415 119 417 122 299 78 415 103 418 89 418 102 418 11 419 98 228 97 227 84 420 0 68 91 421 91 421 0 68 30 422 0 68 22 67 31 423 0 68 31 423 30 422 22 67 25 71 31 423 106 424 91 421 30 422 25 71 39 425 31 423 106 424 101 426 91 421 39 425 61 427 60 428 39 425 60 428 31 423 60 428 108 429 31 423 66 430 68 430 64 430 11 419 97 227 81 431 97 227 99 229 109 264 101 404 51 125 99 229 34 90 19 48 111 271 19 48 82 169 111 271 56 314 54 313 44 273 133 432 116 368 50 325 134 433 133 432 50 325 130 434 138 435 134 433 130 434 134 433 110 370 130 434 110 370 128 436 134 433 50 325 110 370 65 437 129 328 54 329 132 438 65 439 64 440 64 440 45 441 132 438 31 442 104 442 103 442 44 273 28 413 56 314 49 123 53 127 116 351 24 70 35 165 20 51 116 351 133 345 49 123 87 187 94 210 14 44 106 268 105 246 94 210 14 44 94 210 105 246 51 125 101 404 52 126 45 443 113 443 136 443 132 444 45 444 116 444 52 445 132 445 116 445 80 166 53 127 49 123 108 446 60 366 106 268 119 447 123 360 122 306</p>
        </triangles>
      </mesh>
    </geometry>
  </library_geometries>
  <library_visual_scenes>
    <visual_scene id="scene">
      <node id="right_shoulder_roll_link">
        <instance_geometry url="#geometry">
          <bind_material>
            <technique_common>
              <instance_material symbol="scout_1a1a1a" target="#scout_1a1a1a" />
            </technique_common>
          </bind_material>
        </instance_geometry>
      </node>
    </visual_scene>
  </library_visual_scenes>
  <scene>
    <instance_visual_scene url="#scene" />
  </scene>
</COLLADA>