<?xml version='1.0' encoding='utf-8'?>
<COLLADA xmlns="http://www.collada.org/2005/11/COLLADASchema" version="1.4.1">
  <asset>
    <created>2026-09-14T00:00:00Z</created>
    <modified>2026-09-14T00:00:00Z</modified>
    <unit name="metre" meter="1" />
    <up_axis>Z_UP</up_axis>
  </asset>
  <library_effects>
    <effect id="scout_1a1a1a_effect">
      <profile_COMMON>
        <technique sid="common">
          <lambert>
            <emission>
              <color>0 0 0 1</color>
            </emission>
            <ambient>
              <color>0.05 0.05 0.05 1</color>
            </ambient>
            <diffuse>
              <color>0.1 0.1 0.1 1</color>
            </diffuse>
          </lambert>
        </technique>
      </profile_COMMON>
    </effect>
  </library_effects>
  <library_materials>
    <material id="scout_1a1a1a" name="scout_1a1a1a">
      <instance_effect url="#scout_1a1a1a_effect" />
    </material>
  </library_materials>
  <library_geometries>
    <geometry id="geometry" name="torso_link">
      <mesh>
        <source id="positions">
          <float_array id="positions_array" count="1506">-0.0522673242 -0.0314808376 -0.00393274985 -0.0569507368 -0.0135208722 0.00882368814 -0.0442941114 -0.0287902728 0.000995818409 -0.0722505972 -0.0853544101 0.0148397852 -0.0683603361 -0.0758202225 0.0137333758 -0.0554349609 -0.103403531 0.0144327348 -0.0707250163 -0.10158512 0.0779402256 -0.070726335 -0.102048099 0.0882870108 -0.0680235848 0.100222044 0.0844180584 0.0711579472 0.0687594712 0.393753469 0.0684902072 0.100459516 0.0846445039 0.0703528672 0.102485009 0.473627388 0.0718313232 -0.0113898385 0.553719342 0.0679688528 0.0145551395 0.556373119 0.0771861747 -0.0173346847 0.551460743 -0.0556111373 -0.0917982236 0.00507196458 -0.0355487131 -0.091747947 0.00351215573 -0.0558567457 0.0502171144 0.476942211 0.0258216839 0.0506012589 0.485835075 0.0543480776 0.0489818305 0.479419947 -0.0584520288 -0.0776676983 0.00500163902 -0.0483711213 -0.0682788342 0.00503935944 -0.032874953 -0.0724208951 0.00681072287 -0.0593519583 -0.0648640841 0.0169213284 -0.0462103188 -0.0576578006 0.0175671931 -0.0674513504 -0.030925747 0.0178033747 -0.069678098 -0.063083522 0.0199238677 -0.0491127819 -0.0368222967 0.0132611878 -0.0540791303 -0.000373082992 0.0144644463 -0.0542440154 0.0214741193 0.00144010375 -0.0293067954 -0.0978358686 0.0141185345 -0.0239108168 -0.0690125972 0.0149555262 -0.0287603457 -0.0464178473 0.0129957534 0.0047792783 -0.0552496463 0.0129735377 -0.0215096474 -0.0499478877 0.000969829562 -0.00250899605 -0.0185929406 0.746955395 0.0286849532 -0.0408956409 0.749448121 0.024756467 -0.00909810793 0.759245157 0.0262683798 0.019963827 0.604264915 0.0570494123 0.0300950091 0.591585755 0.042948924 0.0332577825 0.592965841 -0.0718617141 -0.040654704 0.379943579 -0.0706132874 -0.0541419871 0.383072644 -0.0707665011 -0.0609877072 0.395884782 -0.0425043032 -0.0319191888 0.483323723 -0.0554789193 -0.0491595902 0.478426307 -0.0408747718 -0.0504076965 0.485372096 -0.0559124164 -0.0319245011 0.476958662 -0.0358165279 -0.12556532 0.398891985 -0.0229906421 -0.139397606 0.388470799 -0.0383751616 -0.134101182 0.409275442 -0.0366210826 -0.147299498 0.410664588 -0.0384937674 -0.138071075 0.42763567 -0.0342073739 -0.126442164 0.436454117 -0.0265356917 -0.144107804 0.428291142 -0.0328048132 -0.137600318 0.443143189 -0.0367345177 -0.106887653 0.429323405 -0.0329453796 -0.106955171 0.385451585 -0.0707527325 -0.102889568 0.47397247 -0.0397168398 -0.0353452563 0.486734331 -0.0395284109 -0.048506707 0.50686276 -0.0217651222 -0.156654686 0.390230328 -0.0163906012 -0.152104512 0.396579742 -0.0242392421 -0.149415344 0.40705207 -0.0229953229 -0.134262666 0.452652514 -0.0192151982 -0.10622707 0.449814588 -0.017287666 -0.121309862 0.452251226 -0.0330930203 -0.105144568 0.378299683 -0.00815170258 -0.11299523 0.373148978 -0.00317803188 -0.106536061 0.364515513 -0.0221338067 -0.0471873581 0.516251028 -0.0225217119 -0.0321408473 0.482833326 -0.0216297451 -0.0280612521 0.515942216 -0.00876023527 -0.140836015 0.382056713 0.00533529371 -0.157444432 0.38493669 0.0151985651 -0.153310031 0.391366869 -0.00345564331 -0.133244082 0.460622102 -0.0380250588 -0.0274577718 0.521075249 -0.0329330862 -0.0434785672 0.536926389 -0.0207586847 -0.0271592364 0.532722414 -0.0175916962 -0.0438439064 0.535863519 -0.00777736865 -0.0366609395 0.701892495 0.0163537394 -0.0666919723 0.703396738 -0.024421325 -0.0332403816 0.712926805 -0.0311013386 0.0111289909 0.714700162 -0.0233508106 -0.00615902338 0.731765687 -0.0331152081 -0.0279989745 0.530981302 -0.0283418372 -0.0351225473 0.485755026 -0.0185121931 -0.0252608359 0.539943397 -0.0127746928 -0.0199991241 0.546971381 0.011074977 -0.12122567 0.454643637 -0.0310010985 -0.0247182883 0.5408957 -0.0164235421 -0.0301164705 0.578977466 -0.0266984776 -0.0369515121 0.557340443 -0.0104529876 -0.0119259721 0.584850669 0.0426010862 -0.0320782997 0.485410422 0.0242540054 -0.0316825472 0.485094726 0.0225624777 -0.0274445694 0.517150462 0.0297543928 0.0986624509 0.013946604 -0.0250954442 0.098315455 0.0325428024 -0.0275694635 0.0974936113 0.0139512848 0.00141045207 -0.0486008711 0.729113162 0.0957382545 -0.053056296 0.668686569 0.0848614275 -0.0490669012 0.637058556 0.0835090131 -0.0494283363 0.672226429 -0.00220877631 -0.0327979811 0.571485579 -0.00286769052 -0.0143176159 0.574676931 -0.00684030261 -0.0294992458 0.584260881 0.0598745495 -0.0686815754 0.717980027 0.090700306 -0.0461569987 0.731940746 0.0597514771 -0.0515197739 0.742191195 -0.0389811806 0.047885146 0.509748876 -0.0407216474 0.0504247695 0.485631615 -0.0435529314 0.0318204015 0.483452827 0.126198173 -0.0384434946 0.695278704 0.122245163 0.0407995842 0.691893995 0.123869695 0.0408592001 0.700735867 -0.0497150533 0.0344936997 0.0122234011 -0.0444941707 0.0307273809 9.23661282e-05 -0.0620296039 0.0692450106 0.0135124857 -0.0266165026 0.0699213222 0.0135271354 -0.0457907319 0.056849923 0.0173522439 -0.0670893416 0.0702398121 0.0196974464 -0.0589093305 0.0427204072 0.0188158192 -0.0584002435 0.079428561 0.00316970306 -0.0355487131 0.0722520724 0.00351215154 -0.0572482012 0.101207674 0.0142228603 -0.0702292994 0.0903297067 0.0149206156 -0.0484888069 0.0957304537 0.00485162251 -0.0225572083 0.0490980856 0.00127141853 -0.0248574689 0.0494078808 0.0129661579 -0.034531571 0.0918192714 0.0050497693 -0.0720349699 0.0144025981 0.404251546 -0.0719079226 0.022285644 0.378011048 -0.0706655905 0.00463976618 0.392041713 -0.0717647448 -0.0121032167 0.397565573 -0.0716248006 0.032274127 0.399327517 0.0280078109 -0.00530781457 0.541000187 0.0336930528 -0.0393717065 0.550177813 0.0213274937 -0.0438518189 0.535093009 -0.0712641925 0.053898599 0.381730109 -0.0712384731 0.041360911 0.378653586 -0.0725613683 0.0500159226 0.404069543 -0.0225096568 0.0723161474 0.0319045521 -0.00299442047 0.071414955 0.014718595 0.0420136265 0.0319467112 0.485023201 0.0241820645 0.0317727774 0.485334039 -0.0217431728 0.0322379433 0.482716918 -0.0377160311 0.0271344166 0.522875309 -0.021080276 0.0279853232 0.51823926 -0.00296459626 0.014522667 0.574653089 -0.00110288325 0.0327160358 0.573191106 -0.0186921917 0.0250309203 0.5399822 0.020558767 0.0139169246 0.549741328 0.0225111879 0.0405845717 0.547094882 0.0158007629 0.0125769237 0.573764741 -0.0387355462 0.133961111 0.42654565 -0.0353132449 0.134276897 0.40232408 -0.0385829769 0.106657833 0.425776929 -0.0340332687 0.126574099 0.436422735 -0.0395279117 0.14474304 0.417309999 -0.0322908498 0.138804406 0.443349183 -0.0326827541 0.152230829 0.40511474 -0.0249701049 0.149444953 0.407933205 0.0539745539 -0.01020387 0.0131632704 0.051028844 0.0177923273 0.00149587484 0.0486626141 0.0258426405 0.0127621386 -0.0252957977 0.0507339388 0.48559159 -0.0208901782 0.0466187224 0.521340966 -0.0384196937 0.0343923829 0.484531432 -0.020670075 0.108200692 0.37522763 -0.0363169275 0.106010072 0.393983781 -0.0224371962 0.13983801 0.388384342 -0.00695840688 0.112726606 0.372387499 -0.0225105379 0.124646008 0.450383246 -0.0184890591 0.106354602 0.449705809 -0.0121121779 0.12117523 0.454037398 -0.00949207973 0.141587257 0.382706016 -0.0177494101 0.137135848 0.450506061 -0.0240343455 0.156195983 0.393735528 0.0216569696 0.105623633 0.368688226 -0.00399460597 0.13318041 0.460784286 0.00509639457 0.137573063 0.451512426 -0.0343140028 0.0285326745 0.529066801 -0.0207962729 0.0273318011 0.532417119 -0.0280525591 0.0349109434 0.486374885 -0.00916933455 0.0173317436 0.555671036 -0.0216959044 0.0130629865 0.570048273 -0.021479385 0.0330831073 0.567835927 -0.0304782186 0.039525941 0.546030641 -0.0306055341 0.025136292 0.540341318 -0.0115058348 0.0118801929 0.583484709 -0.0130449831 0.0280734599 0.585440218 0.0708931312 0.0264507588 0.575217843 0.0596462116 0.0213567615 0.567949891 0.063628085 0.0341175795 0.575971663 -0.0196346492 0.0393824726 0.711851418 -0.0223352071 0.0145103475 0.705338478 -0.0232769419 0.0426295139 0.536117613 -0.0350749455 0.0435183384 0.532191336 0.0193943046 0.0519174933 0.0130300187 0.0225501563 0.0497216992 0.00100083346 -0.0122914379 0.0390547626 0.550001621 -0.00111165235 0.0102005992 0.573754549 -0.00026768836 0.0248882156 0.603634894 0.00442413567 0.0249941722 0.584949553 0.0236617401 -0.135402784 0.452161103 0.00504895346 -0.135360986 0.454872787 0.030462034 -0.13751182 0.44207105 0.0100036683 0.0470030047 0.698250294 0.0276055671 -0.0977601334 0.0140072703 -0.025292689 -0.0984655246 0.0323395059 0.0253830105 -0.0984938666 0.0325154364 0.0358919688 -0.0720854029 0.00329021993 0.0345337614 -0.0918235779 0.00505024521 0.0271561015 -0.0704362169 0.0133433715 0.0381844081 -0.0396815762 0.0131400386 0.0231543686 -0.0486882329 0.00116307207 0.0485443287 -0.0956045389 0.00478391023 0.0539535172 -0.103898928 0.0153054483 0.0704244822 -0.10272418 0.0772272199 0.0681587756 -0.100104742 0.0844240785 0.0587535352 -0.0877357647 0.00618416024 0.0570054799 -0.0642371178 0.0135163674 0.0700628906 -0.0905013606 0.0149875442 0.0573766865 -0.0725902021 0.00708206277 0.0463308617 -0.0568971336 0.0184996463 0.0654131621 -0.0634981319 0.0215629041 0.0492855199 -0.0218273979 0.00138531299 0.0858820379 0.000803744595 0.555313528 0.078231968 0.0163098034 0.551078141 0.0698808283 -0.0744646192 0.0146639794 0.05585647 -0.05021156 0.476947218 0.0565483831 -0.0319634825 0.475784242 0.0712409094 0.101976365 0.0772257969 0.0688992441 -0.0293649081 0.0170736685 0.0120505299 -0.140294358 0.382995903 0.0176985282 -0.150568649 0.400336057 0.0259734448 -0.145838097 0.423632175 0.0199817326 -0.108819529 0.375796199 0.0250787158 -0.147769287 0.38986671 0.0349626467 -0.147985995 0.408251613 0.0346050672 -0.136174262 0.402694851 0.0391164087 -0.142303973 0.427019447 0.025777692 -0.137014776 0.390369445 0.0348260142 -0.12717396 0.434791803 0.0222654529 -0.123049758 0.450158954 0.0363660604 -0.106652193 0.394593418 0.0184906591 -0.106350318 0.449706107 0.0385839641 -0.106653728 0.425775796 0.0387662426 -0.135893211 0.413842618 0.0328300893 -0.0329678245 0.482592881 0.0415548831 -0.0502018109 0.483982891 0.0394591875 -0.0470116809 0.515889227 0.0361766815 -0.0286698882 0.530848384 0.0241604261 -0.0288098175 0.529322445 0.0716518164 -0.0278904308 0.39794299 0.0725745261 -0.0464623123 0.402505308 0.0704327151 -0.0388925187 0.382187337 0.0715442821 -0.0513887256 0.381243289 0.0711086988 -0.017845422 0.381022006 0.0724700615 -0.00944642443 0.403230608 0.0703850612 0.0010171656 0.399131984 0.0717869401 0.0074153631 0.376818419 0.000488418562 -0.0245690346 0.60352093 0.00786742847 -0.0091423979 0.604029357 -0.00867187884 -0.0114530753 0.592550635 0.0244159624 -0.023368055 0.603223979 0.00333138835 0.159511492 0.385114133 0.00962935109 0.139579192 0.381652832 0.0321536884 0.0140229641 0.551908612 0.0360699296 -0.064283751 0.727488577 0.0212323926 -2.74536796e-05 0.531719029 0.0179714989 -0.0386594683 0.550969958 0.0290033109 -0.0438967198 0.533778191 -0.00922779925 0.010293575 0.588664412 -0.0224338993 -0.0133464644 0.569762468 0.022447357 0.0271315258 0.517351449 0.0398016125 0.0274134185 0.517878413 0.0216098167 0.10658861 0.448506474 0.0136312498 -0.0326698311 0.570141613 0.0147844898 -0.0139375357 0.572718322 0.025552487 -0.0292342529 0.583046496 0.0256463997 -0.0133995404 0.577995121 0.0296488479 -0.0105353324 0.575142741 0.0304802954 -0.0336114988 0.567258 0.0287955198 -0.0248886682 0.592727542 0.0401511826 -0.0318737216 0.595298052 0.0510200635 -0.0271089301 0.595524251 -0.000455993257 -0.0106462836 0.573876143 0.0120081669 -0.00748791732 0.57219553 0.0324905254 -0.00609426154 0.592359483 0.0167746898 0.0016145187 0.55385989 0.0303664189 -0.00866217446 0.599154472 0.0259076152 -0.0106670419 0.591399789 0.0384156518 -0.00926373154 0.581682026 0.0292340368 0.0105927587 0.576320171 0.00491058268 0.0111395931 0.604222715 0.0287831016 0.00617988827 0.600537777 0.028343264 0.00483804382 0.671249807 0.0359445661 -0.0118382275 0.66436404 0.0286855884 -0.012782082 0.684346318 0.0628023148 -0.0661194921 0.685057163 0.0287119914 -0.0117205307 0.550051689 0.0595294535 -0.0499067232 0.684804201 0.0398173854 -0.027337851 0.517423451 0.0383102149 -0.0411282182 0.531421781 0.0517796166 -0.027098652 0.578568041 0.0424453951 -0.0300181732 0.689136565 0.0416144021 -0.0226374697 0.680251122 0.0630699024 -0.0287769753 0.683506906 0.0517712198 -0.0174647905 0.665774822 0.0200051665 -0.00693984097 0.694325209 0.110884622 -0.0534301437 0.699730992 0.0798530281 -0.0720431954 0.684662104 0.0517490543 -0.0208436046 0.585117817 0.0357624814 -0.000548171171 0.597542942 0.0134258801 0.00649135327 0.572200656 0.0703969747 -0.0540155731 0.670049548 0.0701560751 -0.0441671424 0.582247078 0.0670049638 -0.0359471068 0.583547413 0.05857547 -0.0115621788 0.566927254 0.0631264672 -0.0246039983 0.565837443 0.0713066533 -0.0267421454 0.574964583 0.0602515824 -0.0328070223 0.580547154 0.0722616911 -0.0337572657 0.589084744 0.0683589354 -0.0127833653 0.570692241 0.0687218979 -0.0124490466 0.673891246 0.0393464155 0.00919959601 0.580564678 0.057648018 0.0122746425 0.568136752 0.0755893663 -0.0227703005 0.566136599 0.0658323541 -0.0151497861 0.557848692 0.0555079989 -0.0027903025 0.658145785 0.0729813278 -0.0661158636 0.65373379 0.0745475069 -0.0621490218 0.618381143 0.0853049979 -0.069610551 0.655632019 -0.0224426463 -0.0715185478 0.0324853361 0.0852940455 -0.0623725839 0.607773721 0.0737001896 -0.0499284863 0.623117387 0.0665019304 -0.0347732231 0.573330462 0.0816533193 -0.043610014 0.571520209 0.0830456018 -0.0371082425 0.594890356 0.0710366815 -0.0195794012 0.561808228 0.0733092502 -0.0251085404 0.559006274 0.0673841909 -0.0234182104 0.559701443 0.0729772225 -0.0229874421 0.557548225 0.0730992779 -0.0198644269 0.555456281 0.0714633837 -0.015090744 0.556082785 0.0856355429 -0.0197453927 0.55564779 0.0758922771 -0.0201755185 0.557137549 0.0716274157 -0.0275762491 0.564426243 0.0814242437 -0.013437408 0.570142925 0.0717500895 -0.000306597532 0.554908216 0.0720003322 -0.0138501264 0.56397748 0.0740286782 -0.00421242276 0.552472472 0.0758510381 0.0178463291 0.554939508 0.0721931234 0.0125815431 0.565532506 0.0715931579 0.00761770923 0.568478167 0.0819213539 0.00676256511 0.679100871 0.0693535656 0.0116163483 0.674127042 0.0944011584 -0.063024357 0.641611874 0.104498073 -0.0630874932 0.676052392 0.0698954016 -0.103472039 0.0350546241 0.0915519968 -0.048945602 0.590761483 0.104625672 -0.0372124761 0.67673105 0.104639985 -0.0256008636 0.733789682 0.0865047127 -0.00112941698 0.750324428 0.0732224807 -0.0323367491 0.749371052 -0.0565044768 0.0318836011 0.47577104 0.105941981 -0.0350615568 0.686672747 0.115178972 -0.0376971178 0.692728281 0.112048842 0.00189895346 0.727987528 0.0230540261 -0.0698886961 0.0321047008 -0.071251817 -0.102092281 0.0351709239 0.0328927115 0.0724255666 0.00678388309 0.0237003639 0.0695278198 0.0153262606 0.0355456024 0.091731891 0.00350824255 0.0456747673 0.0591327734 0.0164099354 0.0552582964 0.0740877837 0.00335380505 0.0610455722 0.0663631409 0.0168372151 0.0600141287 0.0994019881 0.0139682833 0.055554416 0.0914195031 0.00483802473 0.0728570744 0.0794763491 0.0146893999 0.0709277391 0.102954417 0.0345120281 0.0237545371 0.111046769 0.380030751 0.0156843737 0.135935321 0.454732001 0.0172625426 0.121302687 0.452584714 0.0214561857 0.140262246 0.387497276 0.0218928922 0.0455114618 0.529645741 0.0241392907 0.0288793817 0.529778719 0.0346981473 0.126978129 0.435611397 0.0380241498 0.108878314 0.426300108 0.0291532464 0.136481896 0.446056694 0.0256321579 0.147702962 0.417890579 0.0391170979 0.142440245 0.42585054 0.0223589838 0.151337028 0.39286837 0.0353041552 0.135323778 0.403556526 0.0328262784 0.14906022 0.402015924 0.0280411243 0.0343553461 0.484358341 0.0397643223 0.0354066081 0.485759288 0.0409198888 0.0499020666 0.486983925 0.0370434821 0.10651087 0.395838857 -0.0664381459 -0.0676546171 0.0347444974 0.0388970785 0.139240846 0.414190888 0.0565576404 0.0325044543 0.476589143 0.0715617687 0.0170000587 0.397368193 0.0724979341 0.0325435475 0.395558655 0.070790492 0.0321537666 0.381498128 0.0714531317 0.0532054715 0.382479489 0.0715975165 0.0526983738 0.393732756 0.00281480444 -0.0711623728 0.014239179 0.0131752063 0.0329348855 0.569951296 0.00955307856 0.0211866833 0.585031867 0.0248231813 0.0306013357 0.581447363 0.0249757096 0.025565559 0.595643342 0.00858309399 0.0346613936 0.74556458 -0.014695053 0.0138541469 0.740049899 0.0116552189 0.00787601899 0.756119907 0.0259580389 0.0144243203 0.578187346 0.0319226421 0.00646965066 0.591742337 0.0264475197 0.0108719841 0.592998862 0.0329400636 0.0185905173 0.682496369 0.0302857738 0.0228030793 0.691904724 0.0342747346 0.0376251899 0.5534392 0.0387158878 0.027482599 0.756669044 0.0250942335 0.0439743772 0.532971025 0.0352238119 0.0279972441 0.531847835 0.0382871032 0.0432072356 0.530382931 0.0373137891 0.000717837538 0.537183285 -0.0256417319 -0.0505335554 0.485269189 -0.0688768774 0.0292980392 0.0169658903 0.0531715043 0.0204349123 0.584874332 0.0450660512 0.0199291557 0.585774422 0.0411847085 0.0151294954 0.663850069 0.0553224236 -0.00679793861 0.759823263 0.0547285005 0.0229915958 0.677357614 0.0548638329 0.0310022943 0.686030209 0.0360348746 0.0417851061 0.541656971 0.0120762559 0.0645619258 0.704014063 0.0636928007 0.0667420849 0.684625387 0.0523351915 0.072595112 0.694730103 0.0585592166 0.0121433763 0.662965834 0.0758128762 0.0205995589 0.56509608 0.0666651279 0.0295779426 0.566827893 0.0662724599 0.0337920412 0.578993142 0.0637889579 0.0397606306 0.582621753 0.0702650547 0.0538423955 0.669626534 0.0570131317 0.0521759614 0.685679078 0.0366818607 0.054047931 0.740250587 0.0671363845 0.0610245429 0.729592323 0.0428834073 0.0688004419 0.719609976 0.0826197043 0.0720563829 0.680651069 0.0810523853 0.0127634592 0.570009232 0.0719220191 0.0203436874 0.556313872 0.0710446835 0.018958183 0.561880052 0.0696920678 0.0223077163 0.557515919 0.0731307492 0.0238069836 0.558194101 0.0722051039 0.0270784255 0.561408758 0.0789420679 0.0263042916 0.555547774 0.0717907771 0.0348634683 0.58935678 0.071483016 0.029837748 0.563996494 0.0822932497 0.0311623346 0.587276459 0.0825670213 0.0477705188 0.577474117 0.0753215253 0.0617621541 0.614275396 0.0837205499 0.0452398956 0.617040575 0.0737156272 0.0506546535 0.626950204 0.101630919 0.0237857755 0.73728025 0.106462017 0.0454853885 0.716712475 0.0750204772 0.039754983 0.746048629 0.0855875537 0.0624869131 0.608187497 0.086709477 0.0506305918 0.661276996 0.10312783 0.0381421372 0.674992204 0.0875048488 0.0276636388 0.563721418 0.0914518833 0.049278345 0.590592325 0.0968458503 0.0506272539 0.670281172 0.0952231586 0.0638968199 0.652848542 0.108684443 0.0610061809 0.681136727 0.105844259 0.0367717482 0.685670137 0.066330649 -0.0677552074 0.0348202474 -0.0720674843 -0.011099047 0.378057688 -0.0710082054 -0.0142002627 0.33817184 -0.0713464767 -0.0301699731 0.398882598 -0.0715893432 0.0136364251 0.339614809 -0.0714167356 9.72094349e-05 0.340135336 0.0230045523 0.0727500021 0.0323228277 0.0675121993 0.0307557844 0.0176304411 0.0590114556 -0.0424812548 0.0186893195 0.0255122148 -0.0504216924 0.486139655 0.0254336372 0.0985290855 0.032421276 -0.0701823458 0.103134885 0.0771455318 0.0700329766 -0.103272282 0.473798037 -0.0710999891 0.0692541897 0.380747765 -0.0713360086 0.102167755 0.473485082 -0.0716076791 0.070736073 0.405948102 0.0026034324 0.0516839139 0.72541362 -0.0702001527 0.103251256 0.0347791165 0.112718552 0.010778144 0.692197919 0.0717020705 0.00641196687 0.349844128 0.0720511675 0.0033491347 0.326428711 0.0280078519 0.00530779315 0.54099983 0.0712749735 -0.0140686007 0.33843109 0.0702080801 -0.0674506351 0.384773821</float_array>
          <technique_common>
            <accessor source="#positions_array" count="502" stride="3">
              <param name="X" type="float" />
              <param name="Y" type="float" />
              <param name="Z" type="float" />
            </accessor>
          </technique_common>
        </source>
        <source id="normals">
          <float_array id="normals_array" count="3717">0.262010813 0.603321016 -0.753229141 -0.157460585 -0.0502015576 -0.986248434 -0.389330178 0.0521405078 -0.919621348 -0.102629967 -0.0732438937 -0.992019355 -0.999880672 0.0041607935 0.0148769375 -0.999940276 0.010389505 -0.003392071 -0.988262594 0.00836387463 0.152535558 0.999532938 0.0301892869 -0.00474193739 0.983491182 0.000298248342 0.180955872 0.999803305 0.0155505361 0.0123118348 -0.500612974 -0.0545649379 -0.863949835 -0.705746472 0.0116798263 -0.708368182 -0.545156658 -0.179989338 -0.818784535 0.0243635178 -0.705341816 -0.708448529 -0.0588051043 -0.627273977 -0.776575387 0.0976394862 -0.764073133 -0.637698054 -0.00620943448 0.998738766 -0.0498228148 0.0178454462 0.986275256 -0.164142087 0.0334487967 0.994197786 -0.102234557 -0.736383319 -0.245904595 -0.630293965 -0.66919297 -0.138172388 -0.73012954 -0.777259886 -0.329703897 -0.53587538 -0.797978699 -0.385671049 -0.463128269 0.0350186378 0.0839357302 -0.995855629 0.150790751 0.146008283 -0.977723777 0.020321006 0.0620319918 -0.997867286 -0.606240273 0.637005031 -0.476127476 -0.443602681 0.601050079 -0.664797306 -0.499197483 0.571360946 -0.651420414 -0.461498737 0.642935574 -0.611271381 -0.221129313 0.0783526003 -0.972091913 -0.250041068 -0.208219573 -0.945581317 -0.114145212 0.0630666316 -0.991460264 -0.949289143 -0.304140061 0.0796803981 -0.96806103 0.122951992 0.218496233 -0.962582827 0.133366838 0.235897377 -0.969495833 0.120071948 0.213683218 0.1658355 -0.809984565 -0.562515438 0.276538521 0.716454327 -0.640483856 0.283944964 0.718826652 -0.634557724 0.264735788 0.712550819 -0.649758637 0.294338763 0.722053885 -0.626101375 0.482303888 -0.807594061 -0.339374095 -0.463631064 -0.740137219 -0.487076163 -0.509916842 -0.840367734 -0.183757544 -0.345884413 -0.716885805 -0.605341852 -0.619786799 -0.115826972 -0.776175499 0.853969693 -0.0294791553 -0.519486964 0.736756623 -0.089282237 -0.670237482 0.910518289 -0.124850944 -0.394168347 0.900803208 -0.128106758 -0.414900333 -0.252426445 -0.958939433 0.129290387 -0.422458291 -0.906311631 0.011325961 -0.529406965 -0.290681571 0.797014713 -0.169751257 -0.507877469 0.844538331 -0.158896118 -0.132451326 0.978370428 0.192179129 0.484317511 0.853524268 0.204347238 0.560952842 0.802230716 0.19578144 0.50636822 0.839798093 -0.99919951 -0.0379794724 0.0125634391 -0.998300076 -0.053640496 -0.0227950942 -0.999897897 -0.0139642553 -0.00303907855 -0.426213324 0.064434506 0.902324975 -0.332312882 0.0232095588 0.942883611 -0.424286485 0.0626891255 0.90335542 -0.290221632 0.0251109637 0.956629932 -0.881446898 -0.205637231 -0.425164282 -0.627674103 -0.204933107 -0.75101769 -0.97328639 -0.0757199377 -0.216748893 -0.921822488 -0.15968588 -0.353190809 -0.979541481 0.168301582 0.110331424 -0.887601316 0.129348755 0.442077756 -0.443156511 -0.845494211 0.297912419 -0.156306639 -0.939085603 0.306082457 -0.187036097 -0.93420893 0.30376178 -0.173014835 -0.926886082 0.333088666 -0.814146519 0.219842821 0.537433267 -0.952141106 0.0736169368 0.296661228 -0.457081467 -0.868484378 -0.19186309 -0.0969292596 -0.995174229 0.0152620692 -0.0597617589 -0.996981442 0.0495630614 -0.801027417 -0.141740322 -0.581605315 0.99586457 -0.0714868456 -0.0560661927 0.989352643 -0.107698135 -0.097889781 0.967606604 -0.20705685 -0.144447088 -0.553296089 -0.198230445 -0.809053838 0.0545638315 -0.908832848 0.413576573 0.101677574 -0.85239923 0.512910545 -0.0662350357 -0.97612083 0.20688422 -0.599846959 0.278591901 0.75004679 -0.719033301 0.0767482296 0.69072485 -0.41801843 0.214626819 0.882720768 -0.188800335 -0.975260437 -0.114984997 -0.176185653 -0.764563262 -0.620001376 -0.00784512516 -0.798511326 -0.601928711 0.990435839 -0.0546726771 -0.126679823 0.989664912 -0.126106605 -0.0682679862 0.98885113 -0.0412766971 -0.143072143 -0.0168317985 0.984509945 -0.174519002 -0.00695825089 0.999223292 0.0387867652 0.00875135418 0.998281121 -0.0579504259 -0.194069773 -0.255243033 -0.94720006 -0.0613690503 -0.220869869 -0.973370612 0.200073928 -0.937484562 0.284768611 0.0654582083 -0.881992936 0.466694444 -0.17058681 0.425620049 0.888677537 -0.180908471 -0.266375095 -0.946739912 -0.973802447 -0.03836881 0.224135265 -0.98958075 -0.0453745797 0.136642382 -0.96013552 -0.023197284 0.278570741 -0.971086085 -0.108296253 0.212752864 -0.977729678 -0.104026645 0.182272121 -0.959820569 -0.135975629 0.245469108 -0.443947375 -0.236812249 -0.864193678 -0.367525786 -0.360931456 -0.857119203 -0.587285399 -0.19492279 -0.785557747 0.957499027 -0.0427851602 -0.285245568 -0.876290977 0.17195347 0.450051248 -0.733661652 -0.47372219 0.487163097 -0.810858905 -0.142130524 0.567720711 0.0449116975 -0.986561358 0.157097399 0.035100203 -0.986314178 0.161097124 0.0428095274 -0.986517727 0.157956019 0.0332434326 -0.98625499 0.161851853 0.0625571609 -0.211063638 0.975468457 0.0640111342 -0.212160215 0.97513622 0.0635029301 -0.211776987 0.975252748 -0.0147320833 0.981787205 -0.18941173 -0.0188142974 0.959975302 -0.279452145 -0.0550172143 0.203617066 0.977503538 0.179354668 0.173386797 0.968384683 0.931697667 -0.0274774842 -0.362193942 0.941296637 -0.101114146 -0.322081685 0.910089195 -0.179012895 -0.373753965 0.92689991 -0.141357616 -0.347670227 0.910285592 -0.178119257 -0.373702675 0.0187107418 0.999533832 -0.0241240952 0.00922089349 0.998284101 -0.0578255765 0.00524469744 0.9899652 -0.141213909 0.00815492589 -0.999952197 0.00539502781 0.0172933433 -0.999326646 0.03236036 0.0203717407 -0.998932958 0.0414474085 -0.52033484 -0.679133236 0.517715871 -0.317152411 -0.914415777 0.251511753 0.289926946 0.956818759 0.0209830645 0.914692521 -0.0181893092 -0.403740972 0.036614988 -0.963256478 0.26607582 -0.00520366291 -0.954487681 0.298205018 -0.0178575777 -0.951296031 0.307761252 -0.899616539 -0.0391553268 -0.434921741 -0.870127797 -0.0793654397 -0.486393601 -0.937588036 0.0264486056 -0.346740693 -0.809236288 -0.147273511 -0.568724096 0.0444903001 -0.964601696 0.259931028 0.133928761 -0.930522323 0.340868443 0.480536491 -0.616382241 0.623824954 0.156210467 -0.641264558 0.751250982 -0.9874084 0.0627890751 0.145197108 -0.986408174 0.14005135 0.0859335288 -0.988923728 0.0956390202 0.113503329 0.821909904 -0.394488901 0.410904676 0.935374975 0.307930797 -0.173931837 0.894105315 0.38778618 0.224048272 -0.961274207 0.135733381 0.23985061 -0.588549078 0.696428061 -0.410606861 -0.597213328 0.656476676 -0.460841179 -0.642274559 0.60894537 -0.465477139 0.00591193419 -0.288827151 -0.957363009 -0.0433428809 -0.0359867625 -0.998411894 -0.123263098 -0.00379088474 -0.992366791 -0.0434524417 0.0190844685 -0.998873174 -0.155597001 0.175980493 -0.972018719 -0.530537784 -0.790141761 -0.30692938 -0.197403029 -0.663031936 -0.722094655 -0.969720066 0.149357915 -0.193223342 -0.111750111 0.0228896663 -0.993472695 -0.08241833 0.0344655178 -0.996001661 -0.233848661 -0.0260328129 -0.971924424 -0.53864193 0.403784543 -0.739474773 -0.278698802 0.950267136 -0.138993934 -0.314709961 0.94519794 -0.0869394839 0.108640216 0.89913553 -0.423972458 0.171422288 0.815913022 -0.552177846 0.133330241 0.869799912 -0.475048631 0.215888873 0.738020599 -0.639310241 0.785235405 0.00783589762 -0.619147778 0.926370382 0.0551498681 -0.372553885 0.758477271 0.0294806585 -0.651032388 0.891446173 0.0377567187 -0.451550812 -0.999763727 -0.013871802 -0.0167359468 -0.999918163 -0.0111414632 -0.00628972752 -0.99908042 -0.00351532106 -0.0427312218 -0.999905646 0.000734418631 0.0137178088 -0.997807801 -0.00599685125 -0.065906547 0.778413653 -0.0388892666 -0.626545966 -0.998736084 0.0087088393 -0.0495013371 -0.999826431 0.0105428081 -0.0153606432 -0.99985534 0.00280900137 -0.0167768374 -0.0568199567 0.991562188 -0.11651586 -0.037368495 0.994813859 -0.0945988074 -0.00555959623 0.995177627 -0.097931698 0.00619469676 -0.996309042 -0.0856148601 0.00714735407 -0.976236284 -0.216591015 0.000896562706 -0.999896944 0.0143273957 -0.00614146609 -0.979407251 -0.201801181 0.0170479808 -0.997555435 -0.0677677169 -0.00081856933 -0.981042922 -0.193788856 -0.888412654 0.126373097 0.441308111 -0.888586998 0.115910701 0.443821937 -0.849628448 0.0192522034 0.52703023 -0.974050939 0.0168865342 0.225698113 0.980134904 -0.0527866185 0.191178352 0.953145027 0.0549122766 0.297488123 0.950178087 0.0630315468 0.305268139 -0.497465849 -0.0258411244 0.86709857 -0.502861679 -0.0306071471 0.863824844 -0.504016161 -0.0316303186 0.863114834 -0.98570925 0.0205230918 0.167200625 -0.909503043 0.111636877 -0.400426596 -0.969424605 -0.0487001389 0.240508258 -0.851473391 -0.117011681 0.511176407 -0.989958346 0.00712416694 -0.141179889 -0.793453038 -0.039477393 0.607349813 -0.850463271 0.200214505 -0.486442566 -0.094721064 0.941024601 0.324808657 0.0439588428 0.924993932 0.377430618 0.126397088 0.856396317 0.500608742 0.963950992 -0.00939448923 -0.265913874 0.993409157 0.11286255 0.0200069919 0.983967006 0.146138489 0.102237172 0.990384817 0.133958876 -0.0345387235 0.978647828 0.0285674594 -0.203549266 0.980211079 0.0518946052 -0.191031992 -0.0638830066 -0.0134341987 0.997866988 0.00394856138 -0.0678966045 0.997684538 -0.0894390196 0.00721265329 0.995966196 -0.506842434 0.246319443 -0.826097727 -0.762932241 0.207722381 -0.612197518 -0.594887495 0.228240982 -0.770723641 -0.12872307 0.109068513 -0.985664487 -0.547152102 -0.0511667356 0.835467875 -0.42734018 -0.229224607 0.87454927 -0.219631001 -0.198660925 0.955141902 -0.249358937 0.28545782 -0.925383151 -0.455307841 0.0819091275 0.886558294 -0.601365209 0.242182925 -0.761385143 0.114766367 0.881425023 0.458168685 -0.15918301 -0.131726205 -0.978421688 -0.605108082 -0.0377707332 0.79524684 -0.0248220023 0.9126302 0.408031911 0.0114722569 0.937703431 0.347247273 -0.0283241738 0.952755272 0.30241546 0.0342035033 0.987698913 0.152581066 0.0493269227 0.986736298 0.154655367 -0.0543663539 0.988694668 0.139739513 -0.0168225523 -0.954408109 -0.298030376 -0.0371176898 -0.950213134 -0.30938217 -0.90851599 0.0555901416 0.414135724 -0.945097685 -0.014468343 0.326467603 -0.876722932 0.00786707085 0.480931401 0.925989449 0.144042805 -0.348991781 0.919213891 0.156527758 -0.361310035 0.913255095 0.150045857 -0.378749818 -0.850373924 -0.0370654389 0.524871767 0.352728575 0.416629642 -0.837855756 -0.736478388 0.0396831483 -0.675296068 -0.51216644 0.278568745 -0.812456131 -0.550976574 0.0885180533 -0.829812825 -0.0222737417 0.958585083 0.283933908 -0.0209775213 0.986613333 -0.161722228 -0.014688828 0.982950926 -0.183280408 -0.791160405 -0.0727601051 0.607265294 -0.860511899 0.0293967389 0.50858146 -0.0126647186 0.965872586 0.258707762 0.0186252743 -0.970008075 -0.242358014 0.929529071 0.128440291 -0.34565708 0.472669512 0.126441076 -0.872121692 0.0171138849 0.957858145 0.286731333 0.00569303101 0.957463205 0.288499147 0.0152392676 0.957802117 0.28702414 0.00261717825 0.957334995 0.288968652 0.92578131 0.0207829326 -0.377487808 0.907242 0.00329530961 -0.420596153 0.911810577 -0.0106271012 -0.410473555 0.944486618 0.051038567 -0.324561357 0.908018768 0.134228766 -0.396843225 -0.719970107 0.0167235471 -0.693803608 -0.719274879 0.0177938771 -0.694497705 -0.720139325 0.0164625552 -0.693634152 -0.116869912 0.961082518 0.250323355 0.660356998 0.731465578 0.169960901 0.0304666478 -0.974080741 0.224139392 -0.0043889652 -0.946767688 0.321887732 0.10995698 -0.927670658 0.356842518 -0.354529053 0.200150192 -0.913372338 3.58500911e-05 0.999256551 0.038552884 -0.00094491936 0.999361157 0.0357264578 0.000421142642 0.99921304 0.0396631472 -0.933297217 -0.0422951058 -0.35660547 -0.765123487 -0.0216750298 -0.643518686 -0.790948391 -0.0001345778 -0.611882865 -0.898895442 -0.0254147295 -0.437425464 0.416971266 -0.896326959 0.150774494 -0.187423676 -0.772962511 -0.606136441 -0.20994553 -0.732335865 -0.647770882 -0.174486935 -0.794409573 -0.581779778 -0.162093118 -0.813745022 -0.558162093 -0.001568028 -0.999990702 -0.00401290786 -0.00712579023 -0.986273706 0.16496478 0.00892397389 -0.985399604 0.17002365 0.380302995 0.06839443 -0.922329545 0.0675957799 -0.0269772373 -0.997348011 0.104686014 0.134581596 -0.985357106 -0.190996185 0.928551316 -0.31829685 0.504104555 -0.533134222 -0.679445744 0.461016595 -0.536010504 -0.707217395 0.516753316 -0.609327257 -0.601403534 0.51125294 -0.628641605 -0.586029172 0.452674538 0.685121417 -0.570696414 0.353147388 0.336252511 -0.873052776 0.355682135 0.820767581 -0.447024316 0.87567538 -0.469157904 0.114383064 0.73249507 -0.628180504 -0.262374163 0.851347625 -0.52455157 0.00727102486 0.51111269 0.0263656955 -0.859109223 0.441186845 -0.0209454671 -0.897170782 0.721709788 0.172989428 -0.670230985 0.574756444 0.0464892536 -0.817002892 0.629326999 0.418709397 -0.654698431 0.502696872 -0.0356490687 0.863727391 0.567580342 0.0309133623 0.822737455 0.511394382 -0.0270474907 0.858920395 0.991117537 -0.0107016647 0.132557645 0.984785855 0.00828465074 0.173574746 0.986631513 -0.0047605522 0.162897512 0.283622205 0.242040545 -0.927887261 0.322927713 0.208863273 -0.923089266 0.291277379 0.235679105 -0.927153111 0.95910126 -0.03946523 -0.280298471 0.99004519 0.0140649434 0.140045404 0.395640403 -0.427188277 -0.813006043 0.407043546 -0.422411323 -0.809866786 0.60790956 -0.320250332 -0.726557374 0.137726605 -0.980681002 0.138910741 0.0610784777 -0.955499828 0.288599133 0.512619078 -0.205020115 0.833779573 0.371160537 -0.143357739 0.917435765 0.604304016 0.132659018 0.785632372 0.473771155 -0.243215963 -0.846396387 0.24504514 -0.21973753 -0.944281876 -0.0518366881 0.959323466 0.277509421 0.173084557 -0.833857596 -0.524140477 0.155846268 -0.507378042 -0.847513735 0.331880748 -0.943145156 -0.0182307158 0.108659513 -0.990340412 0.0861334205 0.885127306 -0.140146986 -0.443743736 0.894982457 -0.167429656 -0.413489729 0.701487482 -0.0522303954 -0.710765302 0.148788467 -0.914326489 0.376655042 0.703102529 -0.14403367 -0.696348369 0.891096056 0.0570806675 0.45021069 0.617344499 0.161022872 0.770037234 0.827697992 0.0790972188 0.555571496 0.899648428 -0.126248464 -0.41796416 0.447062939 0.230517104 0.864289641 0.961135864 0.0506642498 0.27138707 0.00368295494 0.999993086 -0.000513484294 -0.124341033 0.992008865 0.0213948246 0.736809373 -0.460585743 0.494947165 0.929569781 -0.133512437 -0.343619555 0.334967613 -0.843742907 -0.41939795 0.995693743 -0.0237512849 -0.0896092355 -0.921056151 -0.388950139 0.019323891 -0.891670823 -0.452488124 -0.0133258002 -0.960714221 -0.272642046 0.0519081019 0.000335717807 -0.99605906 0.0886920467 0.439346522 -0.0957170129 0.893203735 0.993812382 -0.00508649647 -0.110955283 0.999505639 -0.0169990566 -0.0264487155 0.999100387 0.0392455757 -0.0160680208 0.99822855 -0.0324302427 -0.0498802289 0.999179125 -0.0316758901 -0.0252530668 0.999801517 0.0196348485 0.00337450975 0.98565048 0.135429144 0.100757644 0.999942243 0.0105222724 0.00218493096 0.985561967 0.101349436 -0.135631293 0.979851425 0.0613917299 -0.190058455 0.0356662869 -0.971323967 0.235069424 -0.0927696675 -0.955536306 0.279900342 -0.0312122554 -0.963262796 0.26674062 -0.630991995 0.109482504 0.768025219 -0.752423823 0.0628950372 0.65566963 -0.698074162 0.104887515 0.708301485 0.0911087468 -0.959158659 0.26779449 0.042838566 0.291805565 -0.955517828 0.229820371 0.252557546 -0.939892173 0.018912565 -0.0269389879 0.999458134 0.0350963436 -0.01575041 0.99925983 0.0143966721 -0.0398150571 0.999103367 -0.0565312691 0.99811852 0.0237400271 -0.0188435037 0.99847132 0.0519614778 -0.122514173 0.992125511 -0.0260251109 -0.146520942 -0.863647163 0.482333034 -0.989245355 -0.00271635759 -0.146240517 -0.996933222 -0.0171416793 -0.0763567016 -0.990766346 -0.0146711925 -0.134784251 -0.0277346708 -0.951814711 0.305417001 0.165155411 -0.177314028 0.970197618 -0.790161669 -0.0400353074 0.611589491 -0.883034945 -0.00725954399 0.469251096 0.0203967746 -0.98960644 -0.142348513 0.0162384454 -0.989961624 -0.14040035 0.0427142717 -0.266372681 0.962923229 0.727058709 0.0494358204 -0.684793174 0.598174274 -0.114446878 -0.793151557 0.632510424 -0.0752458125 -0.770888209 0.430967897 -0.276563495 -0.85894078 0.973176837 -0.0450271145 0.22560899 0.955472231 -0.0906143785 0.280823529 0.971559882 -0.0444635786 0.232582018 0.0654014573 -0.960659087 0.269919842 0.359801948 -0.890304923 0.279105216 -0.442708194 -0.785572648 -0.432301998 -0.50746721 -0.85721153 -0.0875524431 -0.470036 -0.850508451 -0.236011654 0.231832638 -0.566377282 0.790866852 0.185424179 -0.464091927 0.866162002 0.200459734 -0.497340351 0.844078481 -0.039472837 0.954568624 -0.295365334 -0.0601157881 0.951063514 -0.303091198 -0.375876069 0.869019985 0.321747512 -0.323134094 0.9083606 0.26545319 -0.382699132 0.863279164 0.329075128 -0.308796704 0.917616308 0.250249624 -0.588425875 -0.192799136 -0.785228312 -0.588942051 -0.123719588 -0.798649311 -0.594234645 -0.182378069 -0.783341229 0.127865613 -0.991560757 0.021392649 0.591673493 0.0564329326 -0.804200113 0.455295026 -0.029757753 -0.889843225 0.531946898 0.0173648167 -0.846599638 0.000794420077 0.0058427914 0.999982595 -0.000344577275 -0.00395701453 0.999992132 0.6483441 -0.0788712353 0.757251143 0.389451772 0.101622611 0.915423453 0.495652735 0.0395363532 0.867620468 0.293634534 0.142749503 0.945199132 -0.900776327 -0.270203382 -0.3399885 -0.548640609 -0.434159786 -0.714491963 -0.742149949 -0.598613322 -0.301455736 -0.279189467 -0.52688545 -0.802773297 0.889011323 -0.232442304 0.394499034 0.890082359 -0.230948657 0.392958105 0.822822809 -0.311864883 0.47508204 -0.234714851 -0.0384545214 -0.971303344 0.995042205 -0.0114184432 0.0987961963 0.989309072 -0.0201950092 0.144429028 0.99595499 -0.0322529003 0.0838656574 0.00408256333 -0.190796539 -0.981621087 -0.221430779 -0.082642369 -0.971667945 -0.106853351 -0.239259943 -0.965058029 0.319547981 -0.932910979 0.16603063 -0.952379704 -0.0796532258 0.294326842 0.969338298 -0.0683876574 0.236021906 -0.396039337 -0.779838383 -0.48477307 -0.38787511 -0.742453694 -0.546182632 -0.414597601 -0.734378815 -0.537397981 -0.0422561169 -0.579333246 -0.813994765 0.0641755164 -0.632640719 -0.771781862 -0.721682429 -0.645569324 -0.249829486 0.596219957 -0.72736156 0.339804232 0.120813817 -0.988172233 0.0944441855 0.644575953 0.626468897 0.438244849 -0.180067241 -0.612864792 0.769397497 -0.133828685 -0.0215643141 -0.990769863 -0.0341760404 0.0467118956 -0.998323619 -0.00635688053 -0.0107246544 -0.999922276 -0.256832927 -0.694435239 -0.672158122 -0.815413892 -0.173224881 -0.552352488 -0.944481015 0.0494999178 -0.324815959 -0.882656634 -0.0279178843 -0.469188511 -0.432847738 -0.765416384 -0.476214916 0.402043611 0.00928658992 0.915573418 -0.249303609 -0.0079834694 -0.968392491 -0.199857578 -0.0266491864 -0.979462504 -0.667273998 -0.0468087494 -0.743340015 -0.609130561 -0.147442237 -0.779243708 -0.0209450666 -0.977433145 -0.210203946 -0.0703376606 -0.965211332 -0.251832694 0.589610159 0.113535441 0.799668431 0.646676481 0.754568875 0.111513771 0.499384254 0.866108596 -0.0217083208 0.673150539 0.7264117 0.138544008 0.444601357 0.893306792 -0.0658224449 0.244820014 -0.594806314 0.765681803 -0.556997895 -0.4666242 0.687033594 -0.4965913 -0.594537914 0.632393718 -0.503399074 -0.576034725 0.644028962 0.154101327 0.667501688 0.72848767 0.282219589 0.661671102 0.694653451 0.0169433784 0.759130239 0.650718272 0.328151494 -0.938749075 -0.105198868 -0.0131789856 -0.504016161 -0.863593698 -0.586631119 0.110608019 -0.802265406 -0.562156677 0.0499383211 -0.825521648 -0.0999963209 -0.0818400308 -0.991616309 -0.118500307 -0.110269636 -0.986812174 0.0110859601 0.0871113464 -0.996136904 -0.69392848 0.0141495792 -0.71990484 0.00304843741 -0.156413063 -0.987687051 0.489982009 -0.497074097 -0.716124952 -0.265663207 -0.956565261 -0.120024882 -0.24223797 -0.946369946 -0.213786528 0.105991438 -0.987385333 -0.117626823 -0.32850489 -0.938437641 -0.106861211 0.989742994 -0.104150869 -0.0977824479 0.97277838 -0.149933234 -0.176698074 -0.323353976 -0.890673339 -0.319598585 -0.998873115 -0.0474150144 -0.00208644313 -0.991960645 0.0807831287 0.0974071175 -0.996824622 -0.0794671103 0.00506704161 -0.991833866 -0.060299322 -0.112381384 -0.271106094 0.935607493 -0.2261419 -0.242796853 0.964008987 0.108334407 -0.302675575 0.922061026 0.241227925 -0.272818387 0.828754127 -0.48860696 -0.290488631 0.828965187 -0.477946728 -0.457972914 -0.589568555 -0.665334344 -0.384799242 -0.668574572 -0.636347115 -0.29331091 -0.318235815 -0.901495814 -0.566062689 -0.425921947 0.705806971 -0.608238637 -0.346155226 0.714298427 -0.985898316 0.131122753 0.103977673 -0.0648951903 0.862235606 0.502332926 0.0273896307 0.460793257 -0.887084782 0.289020181 -0.678994954 0.674857855 0.295731932 -0.675688267 0.675268829 0.311712295 -0.66762805 0.676097751 -0.321685463 -0.45132792 -0.832359016 -0.615190446 -0.371382058 -0.695425153 -0.573867381 -0.305360168 -0.759889066 -0.0978935435 -0.551819503 -0.828198075 0.917492568 0.276942939 0.285499483 0.997629881 0.0425662287 0.0540623479 0.996694267 0.00833453611 0.0808153227 -0.507212043 -0.392442852 -0.767283916 -0.0650523528 -0.579820752 -0.812142909 -0.128742561 -0.594761133 -0.793526649 -0.263426781 -0.619161487 -0.739760339 0.0179739837 -0.555787027 -0.831130385 -0.360266775 0.489477456 0.794115663 0.276624948 -0.684981287 0.674002469 -0.00875615701 0.998825133 -0.0476623811 0.149804443 -0.89742732 -0.414949149 -0.151694953 0.0129071409 -0.98834306 -0.0298808087 -0.89113158 -0.4527601 -0.653984725 -0.515739381 -0.553459048 -0.0717376322 0.69028008 0.71997714 -0.123785265 0.732067943 0.669890881 -0.0759719536 0.693843722 0.716106892 -0.60324645 -0.593116641 -0.53320384 -0.684194624 0.271611154 0.676834583 -0.611269772 0.234961957 0.75573951 0.91064316 0.18776755 0.368065715 0.591780484 -0.210985318 -0.77799809 0.480197847 -0.688951373 -0.542914391 -0.996485054 -0.082135655 -0.016471535 -0.944499016 -0.305823594 -0.119973138 -0.977424204 -0.192780241 -0.0864738524 0.0656249896 -0.719118953 -0.691781282 0.0521201566 0.531645179 0.845361948 -0.895024717 0.439185351 -0.0777622163 -0.178505346 0.29761973 -0.937847733 0.0158951841 0.677937388 0.734947801 -0.975620151 -0.0167799927 -0.218823701 -0.979689538 0.0389930718 -0.196692452 -0.297853142 -0.0698625967 -0.952051878 0.59911865 -0.0810529068 0.796547115 0.610772848 -0.080023922 0.787751675 0.637283862 -0.0775728226 0.766714931 0.999159694 -0.00865518767 -0.0400629304 0.996531487 -0.0664983243 -0.0500302352 -0.201977894 0.759235203 -0.61868149 -0.667750597 -0.352356106 -0.655709028 -0.517543793 -0.283329517 0.807386398 0.356799245 0.477345705 0.803016424 0.665570855 -0.0747762695 0.742579222 -0.261833996 0.24243708 0.93416661 -0.987517118 -0.143964097 0.0639080629 -0.896519899 0.024598388 0.442320049 -0.337406904 0.00514434371 -0.941344857 -0.45697102 0.0967487693 -0.884204268 -0.309643924 -0.00118907215 -0.950851858 -0.0962975174 -0.949606657 0.298285067 -0.255303681 -0.323282778 -0.911212504 -0.0254362728 0.649452031 0.759976983 -0.679215968 -0.157196626 0.716906488 0.591404796 0.0430589467 -0.805224359 -0.0118860379 0.0732980296 0.997239232 -0.106101878 0.0290496815 0.993930817 0.0468199477 0.100437552 0.993841112 0.818404377 -0.47432977 -0.324384809 0.576083481 -0.0071125133 -0.817359924 0.367811322 -0.000542841619 -0.929900289 0.633971989 0.0105713243 -0.77328372 0.470538497 -0.87085861 -0.142122716 0.447190762 -0.88888365 0.0995304659 0.691288233 -0.68061626 -0.242656171 0.567926824 -0.693403542 -0.443453044 0.551609397 -0.716015577 -0.427841991 0.696362436 -0.514083028 -0.500797391 0.842137158 0.503758073 0.192439243 0.834944546 0.539941609 -0.10644535 0.827489436 0.531501949 0.181016237 0.823301435 0.567420959 0.0144306049 0.817367494 0.52638185 -0.234163508 0.811278462 0.534530818 -0.236862928 0.732795656 -0.457365274 -0.503812969 0.956576467 0.156196296 0.246097878 0.0484988764 -0.282948166 -0.957908213 0.0191977788 -0.262825966 -0.96465224 0.154014364 -0.352669656 -0.922986269 -0.200222999 0.624492109 -0.754930735 -0.147753209 -0.0300313961 -0.988568187 0.676810384 -0.264961749 0.686820865 0.451498717 0.000379429897 0.892271698 0.296923369 -0.355265558 0.886353731 0.439363986 -0.0198792592 -0.89808917 0.943078995 -0.0386988521 0.33030951 0.964590609 0.123605207 0.232995212 0.654558241 0.0165960714 -0.755829394 0.653022468 0.0166383255 -0.757155776 0.653496504 0.0166252982 -0.756746888 0.0108569255 -0.99981302 -0.0159998778 -0.102662429 0.49551487 -0.862511098 0.410847008 0.878327906 -0.244427592 0.127379343 0.990381539 -0.054027237 0.296916336 0.940116823 -0.167394757 0.0714710504 0.997298896 -0.016934596 0.652400076 0.016655406 -0.757691681 -0.830756962 0.0116533907 -0.556513309 -0.721003056 0.0151288398 -0.692766726 0.806007981 0.00324097765 0.591895819 -0.989108562 -0.0822838917 -0.122039296 -0.98293215 -0.044632379 -0.178472281 -0.654370487 -0.599249661 -0.461193085 -0.909694731 0.134979963 -0.392728835 -0.742128551 0.0924626514 -0.663849235 -0.903184474 0.130201787 -0.409029663 -0.864307106 0.0336192027 -0.501839578 0.664906085 0.745945692 0.0382735319 0.712403834 0.655132055 -0.251560748 0.679745376 0.733157814 -0.0206360444 -0.319746286 -0.7378847 -0.594380796 -0.203490317 -0.538494825 -0.817688823 0.0187317785 -0.717752576 -0.696046233 0.059347786 -0.40655598 -0.911696255 0.00729485787 -0.094700478 -0.995479107 -0.0016256643 -0.213570327 -0.976926327 0.00112235325 -0.177250043 -0.984165192 0.361170501 -0.733796775 -0.57541132 0.913150966 -0.000636360724 -0.407620966 0.905045569 0.00827170908 -0.425234139 0.91769731 -0.00584437093 -0.39723736 0.889919996 0.0238019489 -0.455495149 -0.0198300779 0.827824533 -0.56063658 0.0264961924 0.775578916 -0.63069433 -0.00255844509 0.809269011 -0.587432683 0.0562200882 0.737882435 -0.67258364 -0.0819693357 -0.0887579545 -0.992674708 -0.113227382 -0.0745521039 -0.990768135 -0.0710387751 -0.0442887284 -0.996489823 0.746579528 0.463945985 -0.476836562 0.0313351899 0.222162664 0.974505961 0.15997979 0.878722787 -0.44972524 0.648742259 0.394828111 -0.6505723 0.0716968253 0.964343548 0.254756808 0.421961665 -0.0869197398 0.902437449 0.123572715 -0.404417962 0.906187594 0.393484056 -0.184495404 0.900628507 -0.89312309 -0.130752683 0.430389166 -0.893400073 -0.114876613 0.434326619 -0.893448293 -0.107181013 0.436190784 0.604694128 0.262948453 -0.751799881 0.00514037907 -0.999428272 -0.0334164537 -0.992092371 0.0182170235 -0.124180727 -0.995152354 0.0668451563 -0.0721353218 -0.99810338 0.00749869132 -0.0611012019 0.986688852 0.12757954 0.100839578 0.985523462 0.133940443 0.103939518 0.985881269 0.132017553 0.10300263 -0.46851027 0.0891686752 -0.878946543 0.886622608 -0.0694933981 0.457242906 0.744491696 -0.0572181232 0.665175259 0.970878839 -0.0327185169 0.237326309 0.125164509 0.93487817 0.332169592 0.198128164 0.957166672 0.211133227 0.744040847 -0.145565122 0.652084351 0.154782712 0.924297214 0.348879576 0.622574687 0.259087801 -0.738426864 0.898158908 0.0926646963 -0.429795057 0.754675627 0.0628880411 -0.653077126 0.27256158 0.940281689 0.203913078 0.0556333363 0.965844333 0.253080428 -0.0921675339 -0.0895182341 0.991711438 -0.108743355 -0.104713008 0.988539338 -0.0948349312 -0.0919635594 0.991236091 0.486318082 -0.0655245706 0.871321559 0.494821995 -0.0734725073 0.865882754 0.522246242 -0.0718768388 0.849760294 0.0253800265 0.987519443 0.155438676 -0.0791356638 0.989774644 0.11867471 -0.101854444 0.988649487 0.110443719 0.771168947 0.278133839 -0.572660446 0.692002773 0.593096197 -0.4115448 0.2277098 -0.971340477 0.0681613982 -0.232299015 -0.942585468 -0.239937052 0.996823668 0.0702322572 -0.0375501439 0.986634791 -0.0636353418 -0.150007933 0.971027851 -0.174342737 0.163430542 0.54352361 0.838854313 0.0300919916 0.473159522 0.847254217 -0.24141331 0.326952934 -0.0297360066 0.944572687 0.999943018 -0.0103164157 -0.00275492459 0.71187371 -0.128601238 -0.690432847 0.999101698 -0.031838648 -0.0279659927 0.999555647 -0.016654985 -0.0247210376 0.999794245 0.0150156766 -0.0136397351 0.99926579 0.0370478928 -0.00976215582 -0.00343457353 0.982014954 0.188771993 0.00428371364 0.995041966 0.0993634313 0.00389608694 0.994525075 0.104425423 0.0331261419 -0.998883367 0.0336846709 0.0120747713 -0.999927104 0.000180755582 0.0311217308 -0.998868704 0.0359544568 0.205190241 0.810394168 0.548778892 0.103041157 0.852956235 0.511711001 0.339160144 0.73506695 0.587066472 0.465627909 0.640440643 0.61075896 -0.356888324 0.776547909 0.519234061 -0.0169861056 0.0363243781 0.999195695 0.0206940044 0.988596857 0.149157554 -0.0214552544 0.836879969 0.546965837 -0.0844639391 0.902149498 0.423074573 -0.403769523 0.482935131 0.777009547 -0.666444719 0.234475672 0.707723558 -0.336069226 0.112763852 0.935062468 -0.185459927 -0.0657178685 -0.980451822 -0.156733871 0.986270189 -0.0520158149 0.822000504 -0.0831574127 -0.563382685 0.840362012 -0.0237193331 -0.54150629 0.863532186 0.079624109 -0.497968048 -0.0161625631 -0.999768734 0.0141877811 -0.199355751 -0.961796939 0.187627122 -0.224909797 -0.951075733 0.211826608 0.0244078748 -0.999408841 -0.0242128074 0.134082317 0.990953147 0.00581121678 0.479878068 -0.14635691 0.865041435 -0.775043726 0.103879914 -0.623310626 -0.862121165 0.226865634 -0.453077286 -0.735485792 0.0599449687 -0.674883127 -0.885750115 0.275769979 -0.373359978 -0.980430126 -0.00695011485 -0.196744546 -0.118111297 -0.18021825 -0.976509631 0.697273731 -0.0440888926 -0.715447783 0.602507532 0.0381958187 -0.797198713 0.536782086 0.0889240354 -0.839021742 -0.0861543491 0.989888906 0.112682402 0.122819662 0.93573904 0.330617219 0.271100402 0.908079505 0.31921187 -0.0208068751 0.324770838 0.945563853 0.10915722 0.957626879 0.266524792 -0.0913921073 0.957493722 0.273593307 0.183831856 0.947655916 0.261063486 -0.039208591 0.0453111306 -0.998203158 0.0200417675 0.0827483013 -0.996368945 0.194791526 0.191130623 -0.962042272 -0.112603955 0.955201507 0.273697674 0.990858972 0.0189224873 0.133568138 0.983849764 0.00306985108 0.178970009 -0.0106554003 -0.989400744 -0.14481923 -0.00922507979 -0.987391472 -0.15802823 -0.0103219738 -0.988111436 -0.153392345 -0.263605505 -0.0381425843 -0.963876188 0.0797422603 0.369528204 0.925791621 0.0375723466 0.461526066 0.886330664 -0.140270665 0.540494859 0.829571843 -0.840052307 -0.0113273971 0.542387128 -0.902823389 -0.019706998 0.429559708 -0.895849884 -0.0186842326 0.443963766 0.692925453 -0.699889719 -0.17323032 0.675934017 -0.717786014 0.167022064 0.680787921 -0.717081785 -0.149404004 0.66960448 -0.710735619 0.215603188 -0.202775791 0.55555886 0.806372285 -0.551098406 0.0912779048 -0.829432845 -0.306676716 0.14443846 -0.940790594 -0.428158671 0.787835538 -0.442713529 -0.300813705 0.83992821 -0.45169872 -0.702490568 0.576306283 -0.417585969 0.138383269 -0.0696464255 0.987926841 0.0479699299 0.985434771 0.163147941 -0.256713986 0.792407513 0.55334276 0.421436787 -0.164269283 0.891855717 0.125104129 0.805658221 -0.579019666 -0.378183782 0.800423563 -0.465079784 -0.318652332 0.733715296 -0.600102127 0.994960904 0.0172050893 0.0987764522 0.99634403 0.0496380925 0.0695319325 -0.195280463 -0.0549775176 -0.97920531 0.085092634 0.986286998 0.141411439 -0.979399264 0.190913588 -0.0657954067 -0.98313421 0.171843588 -0.0625854507 -0.993102789 0.105425902 -0.0513050668 0.0531505048 0.93910116 0.339505583 -0.382732391 0.353791684 -0.853432715 -0.319242388 0.499806494 -0.805157006 -0.296692938 0.643088043 -0.705982327 -0.975387752 -0.151819125 -0.159905389 -0.977412999 -0.17364125 -0.120468162 -0.976445735 -0.176462159 -0.124156497 0.00421846332 0.306378275 -0.951900482 0.778181255 0.0432305411 -0.626550078 0.748052716 0.0143703101 -0.663483679 -0.426359057 0.227675557 -0.875432312 -0.14750661 0.0108062057 -0.989002049 -0.609134197 0.59206742 0.527647257 -0.601850569 0.3390055 -0.723084509 -0.458699286 0.670132756 -0.583538353 0.0836378187 0.331693739 0.939672291 0.47878933 0.746715724 -0.461710304 0.30126676 0.798274517 -0.521532476 -0.465456873 0.716569781 -0.519497514 -0.416763991 0.779463768 -0.46770072 0.207708687 0.583373964 0.78519547 0.46707359 -0.309266061 0.828369915 0.691124797 -0.687795222 -0.222000659 -0.75040251 0.30156976 -0.588176608 -0.115845524 0.692831039 0.711733758 0.251782238 0.802715302 0.540605128 -0.0752974674 0.93317163 0.351455599 0.154780701 0.98527509 0.072635524 0.0233235415 0.986940444 0.159387961 0.986599863 0.146575227 -0.0716686174 0.98551023 0.155906349 -0.0668045729 0.986214936 0.115664497 -0.118329152 0.228516817 -0.126830801 0.965242982 -0.19742988 0.0462894514 -0.979223549 -0.773269594 0.257692605 -0.579351902 -0.783309102 0.233746901 -0.576011539 -0.802851856 0.182352796 -0.567605853 -0.550608933 0.170826331 -0.817097366 0.0158063751 0.978918135 0.203640446 -0.115476377 -0.00191970926 -0.993308365 -0.923205972 -0.384226233 0.00780809624 -0.161249667 0.00274758064 0.986909807 0.642032146 -0.012317176 0.766578734 0.656051517 -0.0221323092 0.754391551 0.633505046 -0.0402502641 0.772690952 0.993766069 0.0979479551 0.0532471128 0.930404067 0.293405503 0.219684988 0.999281943 0.0378321186 0.00207831268 -0.62729001 0.304816395 -0.716654837 0.614982843 -0.0586471558 0.786356509 0.714770913 0.537984371 0.446850479 -0.0406426527 0.487638921 -0.872098863 -0.448113501 0.534951568 -0.71625495 -0.250943005 0.38029018 -0.890172422 -0.411120057 0.657138884 0.631782234 -0.366072029 0.746122956 -0.556140125 -0.454112947 0.553735554 -0.697967291 -0.74671942 0.315031499 -0.585803032 -0.582941651 -0.762157023 -0.281594902 -0.440453261 0.407927424 -0.799747586 -0.236697853 0.155463323 -0.959064782 0.825326502 0.0707797557 0.560202062 -0.807512701 -0.588469446 0.0403349251 0.0786733851 -0.867792428 0.490659565 0.0932769775 -0.853616476 0.512482464 0.134303764 -0.809200168 0.5719769 0.0311385691 -0.908206642 0.417362005 -0.677727103 0.40167591 -0.615907848 -0.0368561447 -0.779206157 0.625683129 0.270960689 -0.586734474 0.763100863 0.228890777 -0.593149364 0.771869719 0.114312902 -0.663506627 0.739385903 -0.716784775 -0.689460874 0.104227178 0.519118369 0.14300938 -0.842653215 0.958589137 0.0166840404 -0.284303486 0.623309791 0.701657772 -0.345197409 -0.704684138 -0.707394719 -0.0548900403 -0.784593344 -0.087566264 0.613795877 -0.415892571 0.655743062 -0.630106628 0.150068924 -0.614889443 0.774203002 0.553001523 0.622873366 0.553369701 -0.760988176 -0.415930837 -0.497894108 -0.629804075 0.732064188 0.259670675 -0.150238395 -0.77285713 0.616538942 0.432689786 0.658882499 -0.61534816 0.455965042 0.705762148 -0.542213619 -0.430257708 0.76423651 -0.480438262 -0.371035933 0.693481326 -0.617588818 -0.716643691 -0.494289935 0.492035866 -0.707053065 -0.55817014 0.434191287 -0.719626725 -0.457506239 0.522326887 -0.720995069 -0.417615801 0.552958608 -0.18603909 -0.931593597 0.312286466 -0.377088934 -0.918236196 0.121021792 -0.242633373 0.940540433 -0.237723991 0.628668725 0.253811121 0.735088825 0.559701741 0.637737215 0.52917403 0.318538755 0.458128989 0.829849899 -0.995316744 0.0765698627 -0.0590051897 -0.996676803 0.0724657923 -0.0372033231 -0.990695119 0.135950387 -0.00638109911 0.279768467 0.911987603 -0.300013721 0.918739319 -0.175708637 0.353616327 -0.313712299 -0.917037129 -0.246226549 -0.250187069 -0.960309088 -0.123340689 -0.936843038 -0.323913187 -0.131929323 -0.947316587 -0.293384314 -0.128517985 -0.957607687 -0.0823810026 -0.276045084 -0.973488808 -0.13456136 -0.184966996 -0.350848526 -0.860563099 -0.369237721 -0.348500848 -0.858237684 -0.376795948 -0.290894628 0.949780107 -0.11531733 -0.323605239 0.614373803 -0.71960026 -0.202700749 0.00189731049 -0.979238868 0.652407646 0.311333418 -0.690967262 0.600367069 0.439978659 -0.667815924 0.898973942 -0.310408711 0.309018224 0.868497431 -0.437018663 0.2339378 0.625876665 0.582206488 -0.518954694 0.580590308 0.703494489 -0.409890771 0.838609219 -0.510425925 0.19026275 0.657776296 0.0446148887 -0.751890838 0.663234115 0.0519898571 -0.746604025 0.659284949 0.0486021712 -0.750320733 0.401759893 0.909119427 -0.109958433 0.826905549 -0.561690927 0.0270286836 0.778367341 -0.617343843 0.114152655 0.843968272 -0.536328375 0.00833292119 0.648730397 -0.575235248 -0.498250276 0.693752408 -0.5404948 -0.475996792 0.493222922 -0.669448912 -0.555490136 0.434697807 0.874821901 0.213832855 0.303658783 -0.932215989 -0.196887627 0.784746528 -0.455813706 -0.420008063 0.656759024 0.0427212045 -0.752889395 0.370936841 -0.876411855 -0.307096273 0.85702306 0.489558399 -0.160760731 0.984788537 -0.0912265778 -0.147882521 -0.994597256 -0.0473116711 0.0924010724 -0.995785832 0.0566395074 -0.072128363 -0.999398351 0.0339419954 0.00713157514 0.994296134 0.106406242 -0.00727321301 0.953349233 -0.0463446639 0.298290819 0.991612792 0.0434290729 0.12172918 -0.999471068 0.0272769202 -0.0177061614 -0.999813855 -0.0155276833 0.0114500588 -0.999999881 -0.000433086505 -0.000298076513 -0.999920666 -0.0125611294 0.000928845839 0.000895202393 0.998025894 -0.0627975389 0.0434584543 0.989309132 -0.139207751 0.0734692067 0.980391324 -0.182852879 -0.0774463937 -0.0205311626 -0.996785104 -0.0530860834 0.0192651879 -0.998404086 -0.259536475 -0.241514564 -0.935046256 -0.314347476 -0.278564572 -0.907517195 -0.204538733 -0.0280040838 -0.978457808 -0.195098788 0.0868334994 -0.976932168 -0.267311335 0.201153725 -0.942380965 -0.142405182 -0.0457274057 -0.98875165 -0.870226264 0.34214133 -0.354465127 -0.0820451751 0.0876302719 -0.992768586 0.0166450534 0.0787902996 -0.996752262 0.0645719171 0.113486417 -0.991438985 0.0702909827 0.105006352 -0.991984308 0.0853970423 0.0355934203 -0.995711029 -0.185967311 0.0350094363 -0.981932044 0.214269966 0.136326179 -0.967214346 0.09315034 -0.118318729 -0.988596857 0.234557524 -0.03217493 -0.971569657 0.116279364 -0.138685718 -0.983486354 0.246182933 -0.13759239 -0.95940727 0.212686196 -0.119725466 -0.969757915 -0.0203624722 -0.0607003756 -0.997948289 0.0827000737 -0.0560556017 -0.994996727 -0.0335463472 -0.0751254037 -0.996609688 -0.107650578 -0.141696557 -0.984039366 -0.076370962 -0.0989521593 -0.992157221 -0.0914446637 0.464892089 -0.880632281 -0.861909389 -0.055536896 0.50401175 0.658502162 0.0419003814 -0.751411498 0.00226179254 0.00311175478 -0.999992609 0.00865805056 0.0105520198 -0.999906838 0.0109109189 -0.0397523642 -0.999149978 0.00530009856 -0.000574959675 -0.999985814 0.0649229214 -0.182233885 -0.9811095 0.00449894182 0.00311959139 -0.999985039 0.00960911345 -0.00236259168 -0.999951065 -0.00698306644 0.0723500103 -0.997354865 0.00590322074 0.00253077061 -0.999979377 0.999771774 -0.0191060491 -0.00956046768 0.999786675 0.0137964208 0.0153694758 0.999433815 -0.0314412639 -0.0119809536 0.996249259 0.0863654017 -0.00532675674 -0.688605607 0.061067462 -0.722560048 -0.997065067 -0.0512961112 -0.0568328425 0.03910942 -0.05997435 0.997433484 0.0465548001 -0.0530816577 0.997504354 0.00597873563 -0.0905258358 0.995876133 -0.979296505 -0.143822148 0.142455459 -0.976010501 -0.175083205 0.129419252 -0.836155951 -0.160762534 -0.524403095 0.989167273 -0.0423431098 -0.140552998 -0.945094764 -0.0012293997 0.326794028 0.0650857016 -0.212970272 0.974888444 0.961134076 0.155281171 0.228274107 0.00421276083 -0.999971688 -0.00623271056 -0.97672981 -0.210068375 0.0432449877 0.912536263 -0.0281728022 -0.408024341 -0.355016559 0.891883969 0.280189693 0.180949405 0.00288193952 -0.983488202 0.17796436 0.005675958 -0.984020591 0.0460262708 -0.269326955 -0.961948335 -0.509924829 -0.0368855 0.85942781 -0.991857588 0.00642240001 0.127190053 0.97145921 0.177169383 -0.157727525 0.983273923 -0.0200552437 0.181025267 0.914981306 0.150864199 -0.374231488 0.0396350957 0.0786743686 -0.996112168 0.0378800742 0.0777152628 -0.996255696 0.037925981 0.0777403563 -0.996252 0.0355700105 0.0764524862 -0.996438563 0.0669421777 -0.997739255 -0.00593097974 0.12438637 -0.992200017 -0.00819497462 0.0570815988 -0.99712342 0.0498656742 0.0106952041 -0.994501173 0.104177602 0.0934493169 -0.995584071 0.00891856942 -0.999975383 -0.00675179111 0.001899597 -0.99966538 0.0197408758 -0.0167158376 -0.999938428 0.0099680433 0.00487677706 -0.998367667 0.0528609678 -0.0216273442 0.631377995 -0.0191984065 0.77523756 0.644139707 0.0397309437 0.763875306 -0.161418468 -0.326833427 -0.931194901 -0.97290802 0.157763854 -0.168998733 0.98216033 0.187999114 0.0041782246 -0.0200084411 0.999739707 0.0109602138 0.0057941475 -0.999747813 -0.0216977987 0.713831484 0.63200891 -0.301677585 -0.178379416 0.0796271414 0.980734587 -0.00379554369 0.989158392 -0.146803319 -0.965892196 0.00854376331 0.258803427 -0.134434342 0.0508926548 -0.989614725 -0.0849080086 0.0755619258 -0.993519485 -0.107700877 0.0882739052 -0.990256667 0.984424353 0.0823712423 -0.155317858 0.983551204 0.165913135 -0.0714133084 -0.999987483 -0.0023284303 0.00442355406 -0.996112347 0.0512539223 0.0716463402 -0.97686249 0.153813511 0.148596868 -0.994381607 -0.0799566507 0.069369629 -0.0386648551 -0.996583939 -0.0729762316 -0.0830280483 -0.987468779 -0.134208053 -0.492900282 0.725430191 0.480416834 -0.686023891 0.550296724 0.475967109 0.837266564 0.161545992 0.522386432 -0.00126186304 0.999393046 0.0348130018 -0.00782789104 -0.0149940727 -0.999856949 -0.00393433543 -0.00809116289 -0.999959528 -0.000152790046 -0.00138676935 -0.999999046 0.00347448234 0.00504417112 -0.999981225 -0.0420940481 -0.0858634934 -0.995417297 0.967894614 -0.118290946 0.221781939 -0.763780832 -0.169851303 0.622727334 0.0917502418 -0.107409455 -0.989972293 -0.653985441 0.478364229 -0.586063743 -0.532073021 0.00726142852 -0.846667349 -0.986778796 -0.0242498443 0.160248384 0.991361737 -0.000481908384 -0.131155327 0.989668012 0.00102235086 -0.143374354 0.971674502 0.0125092156 -0.235991925 0.969458163 0.0136194043 -0.244878203 0.0449448414 -0.0531970039 0.997572064 0.142839968 -0.0205667503 0.989532113 -0.895985007 0.00567277241 -0.444048136 -0.0171541702 0.134129718 0.990815282 -0.0410369188 0.0724062249 0.996530652 -0.0239346083 0.116686143 0.992880404 -0.0487332232 0.0523468256 0.997439146 0.0147647066 0.98392266 -0.177983627 0.021875564 0.999055862 -0.0375340134 0.00769302482 0.998351336 -0.0568804257 0.0127137052 0.986893654 0.160870314 0.159946531 0.987122118 0.00264391187 -0.996647596 -0.0693393126 -0.043424055 0.0113700023 0.999892414 0.00926678907 -0.0164987594 -0.999563575 0.0245039873 -0.0047301217 -0.999665499 0.0254273359 -0.00647966983 -0.999740422 0.0218437184 -0.0661335364 -0.997730672 0.0126454877 0.671871305 -0.650692225 -0.353819907 0.335210204 -0.0262207557 0.941778421 -0.976975739 -0.0282613616 -0.211470217 -0.977287292 -0.0461202413 -0.206839129 -0.0788203254 -0.996884108 0.00307789934 -0.0132420631 -0.993932366 0.109192736 0.0201240219 -0.968871474 0.246745095 -0.999951363 0.00978189427 -0.00125845661 -0.999810219 -0.00506823184 0.0188115295 -0.999998629 0.00160302268 0.000424709375 -0.998947918 -0.0440292656 0.012826398 0.995682836 -0.0504021458 0.0779446587 0.995428264 -0.0631096214 0.0716923401 -0.0694200918 -0.938205242 -0.339045405 -0.248928204 0.0348599218 -0.967894375 -0.251025081 0.0269319359 -0.967605829 -0.239453658 0.0179163814 -0.970742464 -0.248758912 -0.00674271164 -0.96854198 0.358313918 0.208523795 -0.910015881 0.00333339185 -0.999924183 -0.0118549429 0.0190976728 -0.999009013 0.0402030386 -0.98554498 -0.169184178 -0.00881869812 -0.590701103 0.676718295 -0.439459473 -0.724542737 -0.170879036 0.667711139 0.871545494 0.136856511 -0.470827788 -0.962679207 0.0647856742 -0.262776524 -0.958124518 0.041180294 -0.283375412 -0.947355509 -0.00193682255 -0.320177823 -0.447520196 0.120698474 0.886091173 -0.273953259 0.00848796405 0.961705565 -0.383369833 0.0782528296 0.9202739 -0.0724387243 -0.1977887 -0.977564454 -0.0629292056 -0.927441716 0.368635088 -0.0588205941 -0.961859286 0.267145783 0.565417588 0.0158108138 -0.824653268 0.438080192 -0.108252123 -0.892394125 0.399682343 -0.0329532549 -0.916061163 0.027092237 -0.891135633 -0.45292747 0.372625768 0.00876043085 -0.927940369 -0.96790123 0.101881355 -0.229754999 0.00514988648 0.0182921086 -0.999819398 -0.00242229039 0.00404710649 -0.999988854 0.00096000015 0.0104102483 -0.999945343 0.00894427858 0.0254293904 -0.99963659 0.964372098 -0.093416512 0.247507274 0.820857704 -0.216261029 0.528605521 0.979691923 -0.178328827 -0.091665566 -0.0529263057 -0.0504018702 -0.997325659 0.0673846528 0.0839868039 -0.994185865 -0.00105685997 0.0721295178 -0.997394741 -0.00134966627 0.0621943735 -0.998063147 -0.00131188624 0.0634768754 -0.997982442 -0.00105214457 0.0722894371 -0.997383118 0.0942062587 0.791769207 0.60351193 0.00752985291 -0.0915310681 -0.995773733 -0.0440964922 -0.0551602095 0.997503281 -0.00510791503 -0.154533312 0.987974346 -0.0162795447 -0.126256198 0.991864085 -0.974203765 0.176680788 0.140395671 -0.0570985116 -0.0215886589 0.99813509 0.765729427 -0.0760416687 0.638651788 0.9870134 0.125755697 0.0999503732 -0.992952168 0.0885637105 -0.0787553862 0.575740278 -0.00624789204 -0.817608774 0.996739447 0.0246618968 0.0768261403 0.00588686997 -0.998420537 -0.0558725335 -0.73111558 0.655841291 -0.187995255 -0.975672722 -0.112731434 -0.188027531 -0.0792199746 -0.0776476115 0.993828475 0.623275757 0.768261313 -0.145951644 0.129882857 0.144868523 0.980889142 -0.0149775473 0.0992650986 0.994948268 -0.040563453 0.0543070659 0.997700036 -0.130781576 0.031536635 0.990909517 -0.0210559499 0.113836333 0.993276358 -0.0512168147 -0.0648385659 0.996580541 0.0104478905 0.0187050719 0.999770463 -0.00140501722 -0.00228029909 0.999996424 0.00460752333 0.0083648162 0.999954402 -0.00716764294 -0.0124829728 0.999896407 0.879638076 -0.00069128914 -0.475643128 0.254103571 0.266131997 -0.929841459 0.99999696 -0.00112021167 0.00220983895 0.999847233 -0.012903709 -0.0117916735 0.985118628 -0.0295208916 0.169321716 0.941406667 -0.040489167 -0.334834367 -0.993865013 0.0938721821 -0.0584833808 0.0860819817 -0.0163221713 0.996154368 -0.984562695 -0.0240804963 -0.173367873 0.917324722 -0.343805403 0.200781569 0.974008143 -0.188885078 0.125022277 0.934633493 -0.305437535 0.182121232 -0.219243705 -0.0847578496 -0.971981645 -0.935207605 -0.350840151 -0.0479362793 -0.183116972 -0.0472235866 0.981956244 0.0744295567 -0.995886624 -0.051673308 0.971761584 0.115902863 0.205538213 0.999719501 -0.0202755295 0.0122400867 0.999663413 -0.025736548 -0.00327242725 0.998574734 -0.0490974113 -0.0209265202 0.0488653705 0.998202741 -0.0346907377 -0.378822118 0.0999382734 -0.920057654 -0.965148747 0.143778428 0.218667999 0.977771342 0.0222283155 0.208492517 0.971571386 0.0559163913 0.230048642 0.996222556 0.0531889163 0.0686405152 0.0298722181 -0.965135932 0.260039091 -0.602769256 0.118426092 0.789078295 0.883806944 0.19375293 0.425846338 0.0274288729 0.00742483977 -0.999596179 0.0302172732 0.00831424445 -0.999508798 0.018620681 0.00461539999 -0.999815941 0.0157993045 0.00371552445 -0.999868274 0.0509390607 0.0137307812 0.998607397 0.952953696 0.211574063 0.21706152 -0.927217484 -0.0235495325 0.373782188 -0.0737328678 0.987854481 0.136773542 -0.067970112 -0.0235789847 -0.997408688 -0.99538511 0.0833662376 -0.0475244038 0.377154559 -0.0748768225 -0.923118591 -0.0678062364 0.997666776 -0.00795552041 0.0146138063 0.999768913 -0.0157670174 0.0990529135 0.995075226 -0.00370883849 -0.0229547042 0.999602973 -0.0163389221 0.0659468397 0.996126115 0.0581701323 -0.108171001 0.994027436 0.014438265 -0.0742538199 0.995205522 0.0636584535 0.0282789357 0.993748367 0.108002461 -0.0175116844 0.990622222 0.135502428 -0.1690377 -0.0260954183 -0.985264063 0.738640428 0.0944262668 -0.667453349 -0.897524893 0.0860730708 0.432481855 -0.892907202 -0.138299897 0.42847383 0.983908057 -0.145544931 0.103641525 0.309007406 -0.107623726 -0.944950581 0.205189347 -0.00506634125 -0.978709161</float_array>
          <technique_common>
            <accessor source="#normals_array" count="1239" stride="3">
              <param name="X" type="float" />
              <param name="Y" type="float" />
              <param name="Z" type="float" />
            </accessor>
          </technique_common>
        </source>
        <vertices id="vertices">
          <input semantic="POSITION" source="#positions" />
        </vertices>
        <triangles material="scout_1a1a1a" count="1056">
          <input semantic="VERTEX" source="#vertices" offset="0" />
          <input semantic="NORMAL" source="#normals" offset="1" />
          <p>0 0 1 0 2 0 3 1 4 2 5 3 6 4 7 5 8 6 9 7 10 8 11 9 12 10 13 11 14 12 5 13 15 14 16 15 17 16 18 17 19 18 4 19 20 20 15 21 5 22 4 19 15 21 21 23 22 24 16 25 4 26 23 27 20 28 23 27 21 29 20 28 23 27 24 30 21 29 25 31 24 30 26 32 1 33 0 33 27 33 28 34 29 35 1 36 5 13 16 15 30 37 24 38 22 39 21 40 24 38 31 41 22 39 27 42 0 42 2 42 2 43 32 44 27 45 2 46 1 46 29 46 16 47 22 48 30 49 22 48 31 50 30 49 33 51 32 44 34 52 35 53 36 54 37 55 38 56 39 57 40 58 41 59 42 60 43 61 44 62 45 63 46 64 44 62 47 65 45 63 48 66 49 67 50 68 50 68 51 69 52 70 53 71 50 68 52 70 52 72 51 73 54 74 55 75 52 72 54 74 53 71 52 70 55 76 53 71 56 77 50 68 57 78 56 79 58 80 50 68 57 81 48 66 56 77 57 81 50 68 46 82 59 83 60 84 50 68 61 85 51 69 62 86 51 73 61 87 63 88 51 73 62 86 54 74 51 73 63 88 50 68 49 67 61 85 64 89 53 71 55 76 48 66 57 81 49 67 65 90 53 71 66 91 64 89 66 91 53 71 57 78 67 92 68 93 67 92 69 94 68 93 65 90 56 77 53 71 70 95 71 96 72 97 72 98 71 99 44 100 49 67 73 101 61 85 73 101 74 102 61 85 75 103 62 86 61 87 75 103 61 87 74 104 76 105 66 91 64 89 49 67 68 106 73 101 57 81 68 106 49 67 77 107 60 108 78 109 79 110 70 111 80 112 81 113 82 114 83 115 80 116 70 95 72 97 84 117 83 118 85 119 86 120 59 121 79 122 79 122 59 121 87 123 80 124 88 125 78 126 77 127 89 128 72 98 65 129 66 91 90 130 72 97 89 131 80 116 91 132 92 133 93 134 91 132 94 135 92 133 95 136 96 137 97 138 98 139 99 140 100 141 101 142 83 118 82 143 102 144 103 144 104 144 105 145 80 116 89 131 106 146 91 147 88 148 107 149 106 150 105 151 94 152 106 150 107 149 35 53 85 119 101 142 94 153 91 147 106 146 108 154 109 155 110 156 111 157 112 158 113 159 114 160 115 161 116 162 117 163 29 35 28 34 117 164 118 165 29 166 119 167 120 168 121 169 122 170 121 169 123 171 121 172 122 172 119 172 124 173 125 173 119 173 126 174 124 174 119 174 127 175 126 176 119 177 126 178 128 178 124 178 117 164 129 179 118 165 129 179 117 164 130 180 126 181 100 182 128 183 100 182 131 184 128 183 131 185 100 186 125 187 125 187 100 186 120 188 132 189 133 190 134 191 132 189 134 191 135 192 136 193 133 190 132 189 137 194 138 194 139 194 140 195 141 196 142 197 142 197 141 196 136 193 120 198 143 199 144 200 145 201 146 202 147 203 148 204 113 205 149 206 150 207 151 208 152 209 111 157 113 159 148 210 153 211 154 212 155 213 112 214 17 215 113 216 156 217 157 218 158 219 159 220 156 217 158 219 160 221 157 218 156 217 160 221 156 217 161 222 161 222 156 217 159 220 162 223 157 218 160 221 160 224 163 225 162 226 164 227 165 228 166 229 167 230 168 231 149 232 167 233 112 234 169 235 157 218 170 236 171 237 172 238 173 239 170 236 174 240 159 220 158 219 174 240 158 219 175 241 176 242 174 240 175 241 157 218 172 238 170 236 172 238 177 243 173 239 161 222 159 220 174 240 161 222 174 240 178 244 178 244 174 240 176 242 162 223 179 245 157 218 179 246 162 226 163 225 179 245 177 243 172 238 173 239 180 247 170 236 181 248 178 244 176 242 181 249 182 250 178 251 183 252 184 253 185 254 186 255 187 256 149 206 188 257 189 258 187 259 190 260 188 261 191 262 192 263 188 257 187 259 193 264 194 264 195 264 84 265 196 266 197 267 189 268 198 268 199 268 129 179 200 269 201 270 198 271 152 209 202 272 198 273 202 273 168 273 119 274 125 274 120 274 189 275 188 261 190 260 107 276 92 276 94 276 190 277 191 278 152 279 191 278 150 280 152 279 186 281 151 282 203 283 202 284 151 282 186 281 188 261 192 285 191 262 192 286 151 287 150 288 204 289 151 289 192 289 204 290 205 290 151 290 206 291 207 292 208 293 196 266 209 294 197 267 210 295 211 296 212 297 210 298 213 299 214 300 215 301 213 299 210 298 216 302 33 302 217 302 210 303 214 304 218 305 210 303 218 305 219 306 6 307 220 308 221 309 222 310 218 311 213 312 215 313 223 313 213 313 218 314 222 315 219 316 222 315 224 317 219 316 223 318 225 319 213 312 226 320 227 320 223 320 164 321 216 322 228 323 229 324 14 325 230 326 222 310 225 319 224 327 225 319 231 328 224 327 232 329 233 330 95 331 223 318 231 328 225 319 220 332 234 333 221 334 183 335 199 336 198 337 93 134 78 338 91 132 224 339 231 339 235 339 236 340 75 341 74 342 237 343 62 86 75 103 208 293 207 292 238 344 90 130 76 345 207 346 90 130 207 346 206 347 239 348 236 349 68 106 160 224 161 350 163 225 239 351 68 93 69 94 236 340 240 352 75 341 240 353 237 343 75 103 241 354 237 343 240 353 242 355 241 356 240 357 208 293 238 344 243 358 244 359 240 357 236 349 244 359 242 355 240 357 245 360 246 361 208 362 246 361 90 130 206 347 246 361 206 347 208 362 239 348 244 359 236 349 239 348 247 363 244 359 248 364 90 130 246 361 249 365 248 364 246 361 249 365 246 361 245 360 47 366 71 99 96 137 244 367 250 367 242 367 241 368 250 368 238 368 242 355 250 369 241 356 250 370 243 370 238 370 247 363 250 371 244 359 247 363 249 365 250 371 249 365 245 360 250 371 251 372 252 373 253 374 254 375 255 375 251 375 95 331 252 376 232 329 256 377 257 378 258 379 258 379 257 378 259 380 260 381 261 382 256 377 262 383 261 382 263 384 100 186 99 385 143 386 264 387 92 388 107 389 265 390 266 391 264 392 267 393 264 387 107 389 177 243 268 394 269 395 267 396 265 397 264 398 270 399 153 400 155 401 271 402 101 142 82 143 271 402 36 54 101 142 272 403 97 404 139 405 36 54 271 402 110 156 138 406 273 406 139 406 274 407 137 407 139 407 266 391 275 408 276 409 277 410 146 202 278 411 279 412 176 242 175 241 280 413 281 414 282 415 281 414 283 416 282 415 284 417 282 418 285 419 267 393 107 389 282 420 286 421 267 393 282 420 287 422 267 423 286 424 288 425 267 426 287 427 276 428 289 429 89 128 290 430 291 431 292 432 290 430 293 433 291 431 294 434 295 435 286 436 295 437 294 437 284 437 284 438 296 439 295 440 297 441 265 397 267 396 38 442 297 441 267 396 298 443 267 444 293 445 293 445 267 444 288 446 299 447 300 448 301 449 81 113 302 450 82 114 108 154 271 402 82 143 281 451 273 452 303 453 81 113 304 454 302 450 305 455 306 456 253 457 254 458 306 459 274 460 138 461 274 461 306 461 137 462 274 462 138 462 138 463 284 417 285 419 287 422 286 424 307 464 308 465 301 449 309 466 308 465 309 466 310 467 300 448 311 468 309 466 308 465 312 469 301 449 313 470 108 154 314 471 291 472 293 472 315 472 316 473 291 473 315 473 317 474 289 475 203 476 314 471 108 154 82 143 314 477 82 114 302 450 304 478 318 479 302 480 319 481 287 422 307 464 320 482 287 482 319 482 308 483 310 484 304 454 286 436 321 485 322 486 323 487 307 464 322 488 293 489 324 489 315 489 288 490 324 491 293 492 307 464 286 424 322 488 288 490 320 493 324 491 320 494 288 425 287 427 325 495 315 496 324 497 326 498 315 499 325 500 327 501 309 501 311 501 327 502 310 467 309 466 328 503 329 504 295 435 329 504 321 485 295 435 295 435 321 485 286 436 321 505 330 506 322 507 321 485 13 11 331 508 300 448 332 509 311 468 332 509 327 510 311 468 333 511 334 512 335 513 314 471 302 514 333 511 31 50 336 515 211 516 334 512 319 481 337 517 338 518 319 519 334 520 333 521 318 479 334 520 318 479 338 518 334 520 318 522 103 523 338 524 304 525 104 526 318 522 319 481 339 527 340 528 339 527 330 529 340 528 325 495 320 530 319 531 338 518 325 532 319 519 103 523 341 533 338 524 342 534 343 534 344 534 345 535 342 536 344 537 346 538 344 539 331 540 344 539 346 538 345 541 346 542 347 543 342 544 331 540 14 545 346 538 340 546 343 547 345 541 343 547 340 546 344 548 346 538 348 549 340 546 345 541 346 538 340 546 349 550 345 550 343 550 342 536 345 535 348 551 342 552 348 552 346 552 349 553 346 553 14 553 349 554 348 554 345 554 348 555 349 555 14 555 331 540 344 539 322 556 322 557 330 558 342 559 322 556 344 539 339 560 323 561 322 561 339 561 350 562 330 562 344 562 342 563 350 563 343 563 342 564 330 564 350 564 344 565 330 565 339 565 349 566 340 567 330 568 349 569 350 569 344 569 349 570 344 570 340 570 350 571 349 571 343 571 307 572 323 572 339 572 325 495 324 497 320 530 341 533 351 573 325 500 351 573 326 498 325 500 290 574 292 575 272 403 331 576 352 576 347 576 331 577 12 578 352 579 352 580 353 581 347 543 347 582 14 582 331 582 12 10 14 12 347 583 349 584 347 584 346 584 349 585 12 585 347 585 354 586 352 579 12 578 354 587 12 587 349 587 355 588 354 589 349 566 354 590 230 591 14 592 353 593 321 593 331 593 321 505 353 594 330 506 342 559 331 595 322 557 353 596 331 596 342 596 347 543 353 581 342 544 353 597 356 597 330 597 351 598 357 599 326 600 358 601 310 601 327 601 359 602 358 603 327 604 360 605 361 606 335 513 335 513 334 512 337 517 360 605 335 513 337 607 224 317 362 608 219 316 314 471 335 513 361 606 337 517 319 481 340 528 363 609 337 607 340 610 360 605 337 607 363 609 341 611 360 612 363 613 341 611 103 614 360 612 318 522 104 526 103 523 103 614 102 615 360 612 102 615 361 616 360 612 313 470 109 155 108 154 348 617 363 609 340 610 348 618 341 611 363 613 79 619 78 620 86 621 304 525 364 622 104 526 358 623 304 454 310 484 365 624 366 625 367 626 14 325 229 324 348 627 172 238 157 218 179 245 229 628 351 629 348 618 102 630 364 631 361 632 313 470 314 471 361 606 147 203 113 205 368 633 104 526 364 622 102 634 114 160 313 470 361 606 369 635 370 636 364 637 370 636 114 638 364 637 364 631 114 639 361 632 365 624 109 155 114 160 235 640 231 640 227 640 150 288 191 641 192 286 371 642 365 624 114 160 210 298 212 643 372 644 373 645 3 645 5 645 98 646 374 647 375 648 98 646 376 649 374 647 200 650 166 651 201 652 375 653 374 654 377 655 377 655 374 654 378 656 30 657 210 658 219 659 378 656 379 660 377 655 378 661 380 662 379 663 381 664 380 662 378 661 98 665 380 666 376 667 376 667 380 666 381 668 380 669 382 670 379 671 380 672 383 672 382 672 190 673 152 673 198 673 173 674 384 674 180 674 269 395 384 675 173 239 181 249 385 676 182 250 385 677 181 678 386 679 88 680 105 681 106 682 268 394 387 683 269 395 221 309 7 684 6 307 388 685 146 686 277 687 18 688 388 689 389 690 25 691 4 2 3 1 390 692 279 693 391 694 386 679 279 693 390 692 269 395 387 683 384 675 182 250 392 695 393 696 392 697 386 679 390 692 392 695 394 698 393 696 385 676 392 695 182 250 392 697 385 677 386 679 268 394 395 699 387 683 395 699 396 700 387 683 395 699 397 701 396 700 393 696 397 702 395 703 18 704 398 705 399 706 400 707 145 708 19 709 389 710 399 711 398 712 401 713 180 714 384 675 391 715 279 715 401 715 23 716 402 716 26 716 396 700 391 694 401 717 396 700 403 718 391 694 403 718 390 692 391 694 387 683 401 713 384 675 396 700 401 713 387 683 394 719 390 692 403 718 394 719 392 697 390 692 397 701 403 718 396 700 393 696 403 720 397 702 393 696 394 721 403 720 19 709 145 708 404 722 108 154 110 156 271 402 405 723 262 383 263 384 262 724 405 724 261 724 406 725 405 723 407 726 407 726 408 727 406 725 408 727 409 728 406 725 9 7 409 728 408 727 8 729 10 730 234 731 372 732 410 733 215 734 411 735 151 736 205 737 411 735 205 737 412 738 413 739 411 739 412 739 38 442 204 740 297 441 204 741 38 742 414 743 415 744 416 745 417 746 151 747 317 474 203 476 155 401 418 748 270 399 290 749 317 750 293 751 419 752 317 753 292 754 419 752 298 755 317 753 420 756 328 756 296 756 38 757 267 444 298 443 312 758 421 759 301 760 422 761 421 759 312 758 411 762 388 685 272 403 412 763 205 763 413 763 411 764 413 765 155 766 205 767 414 743 413 768 413 768 414 743 423 769 424 770 415 744 417 746 388 771 154 772 425 773 425 774 426 775 389 776 168 231 202 284 186 281 154 772 388 771 411 777 427 778 428 779 306 456 429 780 46 781 45 782 127 175 119 177 430 783 431 784 432 785 316 786 316 787 419 788 291 789 39 790 419 791 432 792 298 793 419 791 39 790 419 794 316 786 432 785 299 795 433 796 300 448 421 797 433 798 299 799 424 770 37 55 434 800 389 710 426 801 399 711 305 455 427 778 306 456 40 802 414 743 38 742 39 803 38 757 298 443 421 797 435 804 433 798 422 805 436 806 421 797 278 807 145 808 427 778 425 774 427 809 426 775 437 810 427 810 425 810 426 811 427 812 399 813 154 814 423 814 437 814 438 815 439 816 209 294 438 815 440 817 439 816 285 818 303 819 138 820 329 504 13 11 321 485 433 796 441 821 332 509 332 822 441 823 327 604 194 824 442 825 329 504 194 826 193 826 443 826 414 827 194 824 329 504 414 827 195 828 194 824 444 829 432 785 431 784 436 806 435 804 421 797 435 804 359 830 441 831 445 832 195 828 40 833 445 834 40 58 39 57 445 835 432 835 444 835 445 836 39 790 432 792 439 837 446 837 447 837 448 838 449 839 450 840 450 840 451 841 440 842 169 843 112 844 183 845 13 11 12 10 331 508 355 846 13 846 354 846 355 847 352 847 13 847 355 848 230 849 352 850 13 851 230 591 354 590 329 852 356 852 13 852 442 825 356 853 329 504 442 854 355 588 330 568 452 855 357 599 351 598 441 823 359 602 327 604 326 856 357 857 431 858 453 859 454 860 356 861 453 859 356 861 352 580 455 862 230 591 13 851 230 863 453 863 352 863 453 864 230 864 455 864 455 865 456 866 453 867 456 868 455 868 454 868 443 869 457 870 456 866 355 848 458 871 230 849 355 872 454 872 453 872 453 867 458 873 355 874 456 866 458 873 453 867 355 875 456 875 454 875 442 854 456 876 355 588 456 866 457 870 458 873 454 877 194 878 13 879 442 880 194 878 454 877 194 881 455 862 13 851 459 882 431 883 357 884 457 885 460 885 455 885 193 886 195 886 443 886 454 887 460 887 442 887 455 888 460 888 454 888 442 889 455 889 443 889 442 854 443 890 456 876 457 891 455 891 442 891 460 892 457 870 443 869 452 893 459 882 357 884 457 894 442 894 458 894 460 895 458 895 442 895 459 896 444 896 431 896 461 897 459 882 452 893 436 898 358 899 435 804 358 899 359 830 435 804 195 828 460 892 443 869 445 832 462 900 195 828 460 892 462 900 458 901 445 902 444 903 459 904 463 905 445 902 459 904 464 906 459 882 461 897 464 906 465 907 459 882 463 908 462 900 445 832 466 909 467 910 468 911 465 912 463 913 459 914 463 908 469 915 462 900 351 629 229 628 452 916 464 906 446 917 465 907 470 918 446 917 464 906 439 919 463 913 446 920 282 921 283 922 285 818 471 923 447 924 446 917 470 918 471 923 446 917 439 925 451 841 463 908 440 817 451 926 439 816 358 623 471 927 304 454 458 928 472 929 229 324 458 928 229 324 230 326 472 930 452 916 229 628 472 930 461 931 452 916 466 909 468 911 366 625 458 928 462 932 472 929 462 932 473 933 472 929 473 934 461 931 472 930 471 935 470 936 474 937 469 915 473 933 462 932 475 938 473 933 469 915 473 934 475 939 464 940 475 939 470 941 464 940 475 942 474 943 470 944 475 938 469 915 451 841 468 911 467 910 449 839 451 841 476 945 475 938 466 909 371 642 116 162 115 946 477 946 471 946 475 942 476 947 474 943 474 937 476 948 471 935 227 949 478 949 223 949 449 839 467 910 476 945 467 910 466 909 116 162 476 950 116 162 115 161 59 83 78 951 60 84 60 108 77 107 44 952 171 953 158 219 157 218 479 954 135 192 134 191 4 955 25 956 26 957 7 5 479 954 480 958 479 954 481 959 135 192 482 960 7 5 483 961 483 961 7 5 480 958 479 954 134 191 483 961 134 191 482 960 483 961 479 954 483 961 480 958 17 16 167 962 18 17 275 408 266 391 265 390 484 963 375 964 144 200 16 25 15 965 20 966 20 966 21 23 16 25 23 27 26 32 24 30 27 967 25 31 1 968 25 969 430 970 117 971 28 972 25 969 117 971 430 970 123 171 117 971 123 171 121 169 117 971 1 973 25 973 28 973 121 169 120 168 130 974 120 168 144 975 130 974 144 975 375 976 200 977 130 974 117 971 121 169 130 974 144 975 200 977 375 976 377 978 200 977 200 977 377 978 485 979 166 980 200 977 485 979 485 979 235 981 164 982 164 982 166 980 485 979 235 981 486 983 164 982 486 983 226 984 216 985 164 982 486 983 216 985 33 986 216 985 215 987 33 986 215 987 410 988 32 989 33 986 31 990 24 30 27 967 32 989 25 31 27 967 24 30 24 30 32 989 31 990 33 986 410 988 31 990 216 985 226 984 215 987 226 991 223 991 215 991 109 155 313 470 114 160 34 52 32 44 2 43 266 391 276 409 92 992 300 448 309 466 301 449 115 993 471 935 476 948 371 642 114 160 116 162 34 994 2 995 29 996 34 994 29 996 201 997 29 996 118 998 201 997 217 999 34 994 165 1000 34 994 201 997 165 1000 118 998 129 1001 201 997 228 1002 217 999 165 1000 224 1003 382 1004 220 332 220 332 362 1005 224 1003 220 332 382 1004 234 333 382 1004 383 1006 234 333 414 827 328 503 420 1007 487 1008 139 405 97 404 429 1009 59 1010 46 1011 87 1012 429 1013 70 111 341 533 325 500 338 524 149 206 113 205 147 203 14 1014 352 1014 354 1014 72 98 44 100 77 127 78 951 59 83 86 1015 79 110 87 1012 70 111 93 1016 276 409 78 109 187 259 189 258 148 210 78 126 88 125 91 1017 248 364 65 129 90 130 77 127 276 428 89 128 92 992 276 409 93 1016 83 115 84 265 197 267 272 403 388 685 277 687 245 360 243 1018 250 371 98 139 488 1019 99 140 101 142 85 119 83 118 251 372 253 374 254 1020 81 113 83 115 197 267 105 145 89 131 289 1021 40 833 195 828 414 827 438 1022 450 840 440 842 289 475 276 1023 203 476 187 1024 203 476 276 1023 274 460 255 1025 254 458 368 1026 113 216 17 215 6 4 8 6 489 1027 4 955 26 957 402 1028 417 746 35 53 37 55 427 778 296 1029 428 779 37 55 36 54 434 800 286 1030 282 1030 294 1030 124 1031 128 1032 125 1033 128 1032 131 1034 125 1033 239 1035 7 684 221 309 247 1036 239 1035 221 309 490 1037 248 1038 249 1039 247 1036 221 309 249 1039 249 1039 221 309 490 1037 448 838 468 911 449 839 296 1029 284 417 428 779 36 54 367 626 434 800 7 5 482 960 8 6 479 954 7 5 41 59 481 959 479 954 41 59 482 960 134 191 133 190 41 59 7 5 42 60 482 960 133 190 141 196 133 190 136 193 141 196 42 60 7 5 43 61 43 61 7 5 58 1040 482 960 141 196 491 1041 141 196 140 195 491 1041 8 6 482 960 491 1041 58 1040 492 1042 132 189 43 61 58 1040 481 959 481 959 41 59 43 61 481 959 58 1040 132 189 481 959 132 189 135 192 492 1042 8 6 491 1041 492 1042 491 1041 493 1043 492 1042 493 1043 142 197 132 189 492 1042 142 197 493 1043 491 1041 142 197 491 1041 140 195 142 197 132 189 142 197 136 193 316 1044 315 1045 326 856 306 456 428 779 284 417 274 460 139 1046 255 1025 368 633 145 201 147 203 375 648 488 1047 98 646 149 232 147 1048 167 230 17 16 112 1049 167 962 429 780 45 782 232 1050 166 651 165 1051 201 652 169 235 185 1052 167 233 238 344 207 292 54 74 237 343 238 344 63 88 63 88 62 86 237 343 238 344 54 74 63 88 341 611 348 618 351 629 97 138 305 1053 95 136 148 210 189 258 199 1054 290 1055 280 1056 105 1057 111 157 148 210 199 1054 415 744 424 770 448 838 199 1058 183 845 111 1059 184 1060 168 1061 185 1062 187 259 275 408 192 263 178 251 163 225 161 350 85 119 416 745 84 117 129 179 130 180 200 269 46 1063 60 108 44 952 183 845 112 844 111 1059 410 733 336 1064 31 1065 168 231 186 281 149 232 202 272 152 209 151 208 300 448 433 796 332 509 37 55 424 770 417 746 494 1066 196 1067 416 745 438 815 209 294 196 266 196 1067 494 1066 438 1022 352 1068 14 1068 13 1068 210 295 30 1069 211 296 372 1070 212 1071 336 1072 212 1071 211 1073 336 1072 466 909 365 624 371 642 317 474 290 1055 289 475 213 312 225 319 222 310 214 1074 213 312 218 311 284 417 294 1075 282 418 275 408 204 1076 192 263 227 1077 226 984 486 983 194 881 443 1078 455 862 382 670 224 1079 485 979 235 1080 485 1080 224 1080 369 1081 364 1082 477 1083 364 1082 471 1084 477 1083 73 101 236 349 74 102 35 53 417 746 416 745 490 1085 404 722 232 1086 232 1087 404 1087 233 1087 429 1088 487 1089 71 1090 487 1089 96 1091 71 1090 380 1092 126 1093 383 1094 383 1094 126 1093 489 1095 126 1093 495 1096 489 1095 234 731 383 1094 489 1095 31 50 211 516 30 49 97 404 96 1097 487 1008 236 349 73 101 68 106 95 136 233 1098 96 137 233 1098 47 366 96 137 47 366 44 100 71 99 473 934 464 940 461 931 5 1099 219 1100 362 1101 373 1102 5 1099 6 307 220 308 6 307 362 1101 362 1101 6 307 5 1099 143 199 484 963 144 200 143 386 120 188 100 186 221 334 234 333 10 8 216 322 217 1103 228 323 490 1085 11 1104 404 722 290 574 273 1105 280 1106 35 53 416 745 85 119 7 684 239 1035 69 1107 490 1037 58 80 65 1108 248 1038 490 1037 65 1108 7 684 69 1107 67 92 56 79 65 1108 58 80 7 684 67 92 58 80 58 80 67 92 57 78 107 389 280 1109 282 420 127 1110 3 1111 489 1027 489 1027 495 1112 127 1110 6 4 489 1027 3 1111 3 1111 373 1113 6 4 35 53 101 142 36 54 95 1114 253 457 252 1115 290 1055 105 1057 289 475 460 892 195 828 462 900 196 1067 84 117 416 745 203 1116 187 256 186 255 139 405 273 1105 272 403 422 1117 197 267 209 294 209 294 447 1118 436 1119 447 1118 471 927 436 1119 81 113 197 267 312 1120 304 454 81 113 308 483 471 927 358 623 436 1119 312 1120 308 483 81 113 436 1119 422 1117 209 294 197 267 422 1117 312 1120 314 471 333 511 335 513 187 259 276 409 275 408 386 679 176 242 279 412 413 765 418 1121 155 766 430 970 122 170 123 171 487 1122 232 1050 252 1123 253 374 306 1124 254 1020 495 1125 126 1125 127 1125 272 403 273 1105 290 574 339 527 319 481 307 464 284 417 138 463 306 456 275 408 297 1126 204 1076 266 391 92 992 264 392 367 626 36 54 110 156 146 202 145 201 278 411 317 750 298 1127 293 751 265 390 297 1126 275 408 318 479 333 521 302 480 494 1066 416 745 415 744 423 1128 418 1129 413 1130 177 243 179 245 268 394 366 625 434 800 367 626 154 1131 153 1132 423 1133 79 619 80 1134 78 620 451 841 450 840 449 839 64 1135 207 292 76 1136 365 624 466 909 366 625 95 1114 305 455 253 457 369 1137 477 1138 496 1139 33 1140 34 1140 217 1140 496 1139 370 1141 369 1137 270 1142 418 1129 423 1128 99 1143 488 1144 484 1145 143 1146 99 1143 484 1145 281 451 280 1147 273 452 190 1148 198 1148 189 1148 70 95 429 1149 71 96 489 1095 8 729 234 731 378 656 376 1150 381 1151 378 656 374 654 376 1150 98 1152 100 1153 126 1154 126 1154 380 1155 98 1152 163 225 395 703 179 246 395 703 268 1156 179 246 219 659 5 1157 30 657 148 204 149 206 187 256 232 1050 487 1122 429 780 18 1158 167 1159 147 1160 208 362 243 1018 245 360 185 1062 168 1061 167 1161 379 671 382 670 485 979 485 979 377 978 379 671 146 1162 18 1158 147 1160 173 239 177 243 269 395 430 1163 119 1163 122 1163 389 690 398 1164 18 688 146 686 388 685 18 1165 3 1166 127 1166 25 1166 430 1167 25 1167 127 1167 368 633 404 1168 145 201 4 26 402 1169 23 27 198 1170 168 1061 184 1060 18 704 399 706 400 1171 77 107 78 109 276 409 478 1172 231 328 223 318 251 1173 487 1173 252 1173 329 504 328 503 414 827 367 626 109 155 365 624 11 1174 492 1175 17 1176 19 1177 11 1174 17 1176 404 722 11 1104 19 709 58 1178 490 1085 45 63 490 1085 232 1086 45 63 58 1178 45 63 47 65 492 1175 58 1178 17 1176 58 1178 47 65 17 1176 47 1179 233 1180 368 1181 233 1180 404 1182 368 1181 47 1183 368 1183 17 1183 183 335 198 337 184 1184 263 384 261 382 260 381 10 8 497 1185 498 1186 296 1029 427 778 423 1187 497 1185 10 8 408 727 10 8 9 7 408 727 407 726 405 723 263 384 407 726 263 384 497 1185 408 727 407 726 497 1185 164 227 228 1188 165 228 448 838 494 1066 415 744 484 1189 488 1047 375 648 434 800 468 911 424 770 429 1009 87 1190 59 1010 411 762 292 575 317 1191 238 344 237 343 241 354 251 1192 255 1193 487 1194 372 732 336 1064 410 733 411 1195 317 474 151 747 393 696 395 703 163 225 182 250 393 696 178 251 178 251 393 696 163 225 272 403 292 575 411 762 450 840 438 1022 494 1066 227 1196 231 1196 478 1196 270 1197 423 1133 153 1132 181 678 176 242 386 679 283 1198 281 1198 303 1198 499 1199 425 1199 154 1199 11 9 490 1200 261 382 9 7 11 9 409 728 221 334 10 8 500 1201 409 728 11 9 406 725 406 725 11 9 405 723 10 8 498 1186 500 1201 405 723 11 9 261 382 498 1186 497 1185 500 1201 221 334 500 1201 501 1202 261 382 490 1200 257 378 259 380 500 1201 258 379 256 377 261 382 257 378 258 379 500 1201 260 381 500 1201 497 1185 263 384 263 384 260 381 500 1201 260 381 256 377 258 379 500 1201 259 380 501 1202 257 378 490 1200 501 1202 501 1202 259 380 257 378 490 1200 221 334 501 1202 400 1203 19 18 18 17 476 945 451 841 449 839 499 1204 154 1204 437 1204 299 1205 301 1205 421 1205 54 74 207 292 64 1135 64 1135 55 75 54 74 420 1206 296 1029 423 1187 423 1187 414 1207 420 1206 427 778 145 808 400 1208 210 298 372 644 215 301 107 389 105 1209 280 1109 209 294 439 816 447 1118 437 1210 425 1210 499 1210 155 213 154 212 411 1211 90 130 66 91 76 105 494 1066 448 838 450 840 277 1212 278 1213 305 1214 277 1212 305 1214 97 1215 305 455 278 807 427 778 138 1216 303 1216 273 1216 437 1217 423 1187 427 778 414 743 205 767 204 741 291 789 419 788 292 1218 277 687 97 404 272 403 283 922 303 819 285 818 441 831 433 798 435 804 463 913 465 912 446 920 424 770 468 911 448 838 169 1219 183 252 185 254 349 566 330 568 355 588 442 825 330 1220 356 853 353 581 352 580 356 861 468 911 434 800 366 625 400 1221 399 813 427 812 326 856 431 858 316 1044 295 440 296 439 328 1222 10 730 8 729 170 1223 180 1224 10 730 170 1223 10 730 180 1224 401 1225 171 1226 170 1223 8 729 10 730 401 1225 11 1227 171 1226 8 729 158 1228 8 729 492 1229 158 1228 11 1227 401 1225 279 1230 492 1229 11 1227 279 1230 175 1231 158 1228 492 1229 492 1229 279 1230 175 1231 304 454 471 927 364 1232 425 1233 389 1233 388 1233 356 1234 454 1234 13 1234 88 680 80 1235 105 681 235 981 227 1077 486 983 451 841 469 915 463 908 139 1236 487 1194 255 1193 467 910 116 162 476 945 496 1139 477 1138 115 1237 114 1238 370 1141 496 1139 114 1238 496 1139 115 1237 367 626 110 156 109 155</p>
        </triangles>
      </mesh>
    </geometry>
  </library_geometries>
  <library_visual_scenes>
    <visual_scene id="scene">
      <node id="torso_link">
        <instance_geometry url="#geometry">
          <bind_material>
            <technique_common>
              <instance_material symbol="scout_1a1a1a" target="#scout_1a1a1a" />
            </technique_common>
          </bind_material>
        </instance_geometry>
      </node>
    </visual_scene>
  </library_visual_scenes>
  <scene>
    <instance_visual_scene url="#scene" />
  </scene>
</COLLADA>