<?xml version='1.0' encoding='utf-8'?>
<COLLADA xmlns="http://www.collada.org/2005/11/COLLADASchema" version="1.4.1">
  <asset>
    <created>2026-09-14T00:00:00Z</created>
    <modified>2026-09-14T00:00:00Z</modified>
    <unit name="metre" meter="1" />
    <up_axis>Z_UP</up_axis>
  </asset>
  <library_effects>
    <effect id="scout_1a1a1a_effect">
      <profile_COMMON>
        <technique sid="common">
          <lambert>
            <emission>
              <color>0 0 0 1</color>
            </emission>
            <ambient>
              <color>0.05 0.05 0.05 1</color>
            </ambient>
            <diffuse>
              <color>0.1 0.1 0.1 1</color>
            </diffuse>
          </lambert>
        </technique>
      </profile_COMMON>
    </effect>
  </library_effects>
  <library_materials>
    <material id="scout_1a1a1a" name="scout_1a1a1a">
      <instance_effect url="#scout_1a1a1a_effect" />
    </material>
  </library_materials>
  <library_geometries>
    <geometry id="geometry" name="wrist_yaw_link">
      <mesh>
        <source id="positions">
          <float_array id="positions_array" count="171">-0.0169392545 -0.0138997305 -0.0309187118 -0.021119304 0.00219586771 -0.0432391502 -0.0111610601 -0.0174823105 -0.038871944 0.0627545267 -0.0010068824 -0.012823971 0.0342446975 -0.0124948835 -0.0082492372 0.0620934106 -0.0118797394 -0.00273575494 0.0559057593 0.0178239979 -0.00429673633 0.0632965341 0.00758477766 -0.0156124132 0.054823406 -0.00181063893 -0.020159008 -0.00721185235 0.0190525185 -0.0380483642 -0.0153590618 0.0143700903 -0.0311499033 0.0553018339 -0.0191488378 -0.00307440362 0.0602677763 -0.012248422 0.000531708647 0.0543397106 -0.0162728038 0.0129385674 0.0553437918 -0.0293001756 -0.000203861797 0.0351642184 -0.0290148761 -0.0314768441 0.0540501215 -0.0140460217 -0.0250342153 -0.0179777797 0.0120162806 0.0414255224 -0.0146879852 -0.0156731512 0.0311801899 -0.0151213799 -0.0145706208 0.0402806513 0.0575736761 0.000187651589 -0.0120461723 0.059911523 -0.00102005887 -0.0120543037 0.0626717806 -0.017672902 0.00867328793 0.062390428 -0.00996241346 -0.0178586282 0.0625783429 0.0192738865 -0.0020892513 0.0340355784 0.0070842132 -0.0105895652 0.0359510146 0.0149854049 0.0401080586 0.0539877564 0.00303420774 0.0284639392 0.0531407036 0.0246270001 0.0174475107 0.0624782518 0.00338033331 0.0196835529 0.0627966002 -0.00935943238 0.0090340171 0.0579698831 -0.012049092 0.000756086782 0.060080722 0.0006309413 0.0121797379 0.059308026 -0.000179146955 0.015345308 0.0626728162 0.0107484311 0.00733984588 0.0555760413 0.0010350605 0.0190351903 0.0361200273 0.0106159607 -0.0420743339 0.03590893 -0.0152169131 -0.0399927646 0.0351302624 0.0291930102 -0.0313476287 0.0544092618 0.0136041418 -0.0251549724 0.0591183789 0.00072381919 -0.0180100165 0.0602215864 0.0188672245 0.000625606626 0.0603577904 0.012241249 -0.000215143024 0.0574314371 0.0172180887 0.00894955639 0.0351774693 0.0291664805 0.031612806 0.0576203614 0.000193536805 0.0120352395 0.0341119021 -0.00528633595 0.0111314915 -0.0112362327 -0.00539823715 0.0350177884 -0.0169689897 0.0138933482 0.0309235528 -0.0065295836 0.00986437593 0.0337858982 0.0350829698 -0.0290950518 0.0316348299 0.0539996549 -0.0165846553 0.0229397416 0.0532822609 0.0275299866 -0.0101730106 0.00952275656 0.00741482852 0.0341928713 0.00729250396 -0.00920831598 0.0346234888 0.0334661976 0.0114489831 0.00899278186 0.0357830487 -0.00993541069 0.0423001908</float_array>
          <technique_common>
            <accessor source="#positions_array" count="57" stride="3">
              <param name="X" type="float" />
              <param name="Y" type="float" />
              <param name="Z" type="float" />
            </accessor>
          </technique_common>
        </source>
        <source id="normals">
          <float_array id="normals_array" count="513">-0.797209203 -0.483624041 -0.361338139 -0.157326326 0.676814497 0.719145715 -0.0351397619 0.729511142 -0.683065712 -0.226793811 0.643871367 -0.73074913 -0.28255412 0.61219126 -0.738501847 -0.669567943 0.658328295 -0.343922287 0.760140598 -0.630046368 0.158832893 0.647035658 -0.634162843 -0.423299313 0.620438635 -0.536650956 -0.571892977 0.675098777 -0.366339266 -0.64034152 -0.992004514 -0.0825347677 -0.0954726562 -0.993726492 -0.0983956158 -0.0531595275 -0.993840754 -0.105285794 -0.0345745459 0.0842298493 0.140405104 0.986504793 0.10049744 0.108876579 0.988962173 0.214208007 -0.159587368 0.96366322 0.543121696 -0.804735184 -0.239624918 0.0510793291 0.756897748 -0.65153414 0.156685039 0.295931667 0.942270815 -0.381030321 -0.817383349 -0.432088405 -0.363221556 -0.821288764 -0.439948767 -0.472121626 -0.791559994 -0.387987107 0.326010078 0.311108321 0.892708838 0.663361788 0.087303929 0.74318856 0.648196161 0.386442721 0.65612787 0.35270983 -0.431093723 0.830514252 0.0206558947 0.942900836 -0.332432538 -0.249233484 0.937124431 -0.24429597 0.054580193 0.972674251 -0.225667536 -0.461403847 0.872767329 -0.15932253 -0.741170883 0.671254218 -0.00913711637 -0.891913295 -0.10388615 -0.440111667 -0.887030602 -0.0991494879 -0.450939059 -0.946255267 -0.170752466 -0.274671674 -0.831313074 -0.0517428592 -0.553390741 0.619656146 -0.299771935 0.725370944 0.337171108 0.204149395 -0.919042289 0.626069427 -0.245716587 -0.740040839 0.379095316 0.52736485 -0.76037693 0.667781949 0.324383259 -0.66995734 0.394158781 0.0799165219 -0.91556114 0.380639285 0.0898230076 -0.92035079 0.367421865 0.099401176 -0.924727321 -0.243372589 -0.958389044 -0.149198428 0.0691461861 0.959853947 0.271844149 -0.758397222 0.0666810423 -0.648372769 -0.0880157873 0.982338727 0.165117711 -0.24249433 0.963931799 0.109690316 0.0880660266 0.971082151 0.221909538 0.624093056 0.426307201 0.654805362 0.264570385 -0.93676573 0.229068771 0.163267598 -0.972749949 0.164624423 0.222980142 -0.953510165 0.202727094 0.291077077 -0.924592853 0.245768607 0.751560628 -0.270612776 -0.601602316 -0.957665026 -0.0555280708 0.282478869 -0.706896424 -0.703037024 0.0776942149 -0.319462508 0.944217205 0.07998503 0.0212358162 0.571859002 -0.820077062 0.314840168 0.089775987 -0.944889367 0.333196789 -0.0999599472 -0.937543571 0.110093921 -0.113646701 -0.987402558 0.278647751 0.959791124 -0.0340065919 0.0145688737 -0.315557927 -0.948794484 -0.00998686161 -0.268990725 -0.963091016 -0.00835878123 0.0112773217 -0.999901474 -0.259846568 -0.960040271 0.103934608 -0.921668231 0.054659456 0.384109378 0.995039463 -0.0140435258 -0.0984845385 0.999992073 0.00378815737 -0.00121936505 0.999863863 0.00847938936 0.0141555928 0.996167421 -0.0302587878 -0.0820664763 0.99861598 0.0125284242 0.0510797724 0.99941653 0.00254375557 0.0340610556 0.99000144 0.0196032058 0.139688358 0.979797125 -0.0168441962 0.199283287 0.92434305 0.11979752 0.362268567 0.947714448 0.117789753 0.29658547 0.826536119 0.558557987 -0.0696491003 0.969891965 0.240628228 -0.0375190675 0.901561558 0.432161927 -0.020563297 0.971440673 0.231757343 -0.0509072132 0.994913578 0.0480822027 -0.0885156766 -0.0429578722 0.486841351 -0.872433484 0.998399794 -0.0524607114 0.0211131927 0.998746514 -0.0481974073 0.0135050025 0.998624325 -0.0498099439 0.0163820479 0.998179376 -0.0547762923 0.0252478551 0.874002099 -0.34369722 0.343500406 0.786015511 0.603978574 0.131869033 0.767023206 0.638100028 -0.0671097264 0.785962939 0.604764342 0.128539428 0.771105111 0.541293442 0.335258514 0.999613762 -0.0122022396 0.0249683969 0.999759614 0.0078787161 0.0204611924 0.999691486 0.00457362644 0.0244128611 0.99988544 -0.0150720356 0.00138590555 0.999787569 -0.0143689346 -0.0147780627 -0.973898351 0.22678037 0.00962442439 -0.0178019628 -0.0854528993 -0.996183157 -0.0127128959 0.108960301 -0.993964791 -0.0121441483 -0.999925435 -0.00128592958 0.554009557 -0.546859026 0.627709091 -0.691386342 0.629444063 0.354662001 -0.0221061315 -0.332177848 -0.942957699 0.074630484 -0.107820071 -0.991365254 0.0343634263 -0.201671153 -0.978850305 -0.955512583 -0.291979849 0.0417552218 0.655535042 -0.47764647 0.58491677 0.615243196 -0.516140282 0.595881641 0.626469731 -0.667203605 0.402957886 -0.991020501 -0.077401869 -0.109029092 0.317940623 -0.207346603 0.92516005 -0.0177583396 0.0790366158 0.996713519 0.00616096565 0.00250877766 0.999977887 0.0100690965 -0.00221390347 0.999946833 0.00737804733 0.00103806728 0.999972224 0.00154061045 0.00809164625 0.999966085 -0.0184316747 0.351922333 -0.9358477 -0.0263306461 -0.141962707 0.989521742 0.00965382718 -0.486625135 0.873557568 0.58281076 0.687657237 -0.432965517 0.703061461 0.513926566 -0.49151203 0.658452153 0.587296188 -0.470663309 -0.482020795 -0.621669888 -0.617399812 -0.269158036 -0.936167061 0.226152912 0.416413069 0.0633607805 -0.906965017 -0.9993366 -0.0252250414 -0.026268037 -0.999260604 -0.0283085313 0.0260167643 -0.999336958 -0.03438944 -0.0119568938 -0.999307215 -0.0369544663 0.00441639684 -0.998988509 0.0296082906 -0.0338432267 -0.999151409 0.00621453812 -0.0407170169 0.0960641652 0.119149692 0.988218129 -0.998213649 0.0413156301 0.0431565568 -0.998901665 0.0408879034 0.022884123 -0.505191088 -0.779559851 -0.370227516 0.25357914 -0.258067399 0.932254672 -0.267180383 0.914128602 0.304932088 0.0669505 -0.123938695 -0.990028679 0.218382329 0.683430612 0.696585774 -0.0256728567 0.99950546 0.0181584917 0.0943011492 0.946520329 -0.308555543 -0.861339808 0.195801914 0.468780696 0.229412869 -0.947291851 -0.223624378 0.00502653094 -0.525399029 -0.850841105 0.0790656656 -0.965653837 0.247510299 0.0542143919 -0.9742769 0.218735769 0.0998188406 -0.957288682 0.27135691 0.265096009 0.787163377 0.556864381 -0.0613223203 -0.417894244 -0.906423748 0.428892404 0.832597852 -0.350474149 -0.279938668 0.949339509 0.142789632 0.107059449 0.932120025 -0.34596315 0.636118829 0.588431656 -0.499100149 0.218805492 0.974122465 0.0566527918 0.317689031 0.942830145 0.100722209 0.131011724 0.991218388 0.0179442987 0.0908277631 0.995866537 0.000351500552 0.489498854 -0.87065351 0.0485112928 -0.361522824 0.344979405 0.866193056 -0.0547377542 0.0684452355 -0.996152103 0.0593845546 0.304442108 -0.950677931 -0.0436664037 -0.06673491 -0.996814787 0.0715915188 -0.200337231 -0.977107823 -0.0935585722 -0.726250231 -0.681034029 0.678386986 0.0459716283 -0.733265102 -0.256626368 0.532221437 0.806773365 -0.00731583592 0.513592482 0.85800302 0.133944392 -0.941187739 0.31020084 -0.0489503443 -0.865804613 -0.497982174</float_array>
          <technique_common>
            <accessor source="#normals_array" count="171" stride="3">
              <param name="X" type="float" />
              <param name="Y" type="float" />
              <param name="Z" type="float" />
            </accessor>
          </technique_common>
        </source>
        <vertices id="vertices">
          <input semantic="POSITION" source="#positions" />
        </vertices>
        <triangles material="scout_1a1a1a" count="130">
          <input semantic="VERTEX" source="#vertices" offset="0" />
          <input semantic="NORMAL" source="#normals" offset="1" />
          <p>0 0 1 0 2 0 3 1 4 1 5 1 6 2 7 3 8 4 9 5 1 5 10 5 11 6 12 6 13 6 14 7 15 8 16 9 17 10 18 11 19 12 20 13 4 14 21 15 22 16 11 16 23 16 6 2 24 17 7 3 25 18 3 18 7 18 22 19 13 20 12 21 26 22 27 23 28 24 13 25 22 25 29 25 30 26 12 27 31 28 12 27 30 26 5 29 29 30 32 30 33 30 32 31 30 32 33 33 32 31 34 34 30 32 35 35 13 35 33 35 36 36 16 9 37 37 38 38 39 39 36 36 37 37 16 9 15 8 40 40 7 41 23 42 3 43 20 43 40 43 3 44 40 44 21 44 41 45 24 45 42 45 41 46 43 47 24 48 44 49 26 22 28 24 35 50 45 51 32 52 29 53 35 50 32 52 6 54 41 54 34 54 41 55 42 55 34 55 34 56 42 56 7 56 6 57 43 47 41 46 30 58 46 58 33 58 47 59 48 60 49 61 33 62 45 62 35 62 37 63 2 64 1 65 50 66 19 66 18 66 0 67 10 67 1 67 8 68 11 69 14 70 14 70 16 71 8 68 14 70 13 72 51 73 27 74 51 73 13 72 13 72 35 75 27 74 35 75 43 76 28 77 27 74 35 75 28 77 43 78 6 79 28 80 52 81 28 80 6 79 52 81 6 79 39 82 6 79 8 68 39 82 16 71 39 82 8 68 11 83 31 83 12 83 3 84 5 85 23 86 23 86 7 87 3 84 24 88 43 88 7 88 34 89 7 90 43 91 29 92 34 89 43 91 30 93 34 94 29 95 30 93 29 95 22 96 22 96 23 97 30 93 5 98 30 98 23 98 47 59 49 61 53 99 47 59 53 99 54 100 15 101 14 101 50 101 11 102 5 102 31 102 11 103 22 103 5 103 32 104 45 105 55 106 23 107 21 107 40 107 51 108 50 109 14 110 1 65 36 36 37 63 48 111 18 11 17 10 56 112 26 22 17 113 0 114 15 115 38 116 0 114 38 116 10 117 9 118 38 38 36 36 19 119 50 120 56 112 21 121 23 122 8 123 11 124 8 124 23 124 0 125 2 125 15 125 8 126 7 41 40 40 15 127 50 128 4 129 50 128 46 130 4 129 38 131 15 127 25 132 4 129 25 132 15 127 20 13 25 133 4 14 50 128 44 134 55 135 44 134 38 131 55 135 38 131 25 132 55 135 46 130 50 128 55 135 50 109 51 108 56 112 22 19 12 21 5 136 4 14 3 137 21 15 9 138 10 138 38 138 55 106 45 105 46 139 6 140 55 140 42 140 5 141 4 142 31 28 13 143 29 143 33 143 45 144 33 144 46 144 4 142 30 26 31 28 37 63 15 145 2 64 16 9 36 36 39 39 56 112 17 113 19 119 55 146 25 147 7 148 3 149 25 149 20 149 34 150 32 104 55 106 21 121 8 123 20 151 48 152 17 152 44 152 56 112 51 108 27 23 30 26 4 142 46 153 52 154 39 39 38 38 44 155 28 156 52 157 44 155 52 157 38 158 20 159 8 159 40 159 42 160 24 160 6 160 11 69 13 72 14 70 50 161 18 162 54 100 44 163 50 161 53 99 50 161 54 100 53 99 48 164 44 163 53 99 53 165 49 165 48 165 18 166 48 60 47 59 18 162 47 59 54 100 43 167 35 167 29 167 17 113 26 22 44 168 55 146 7 148 42 169 56 112 27 23 26 22 34 170 55 170 6 170 9 118 36 36 1 65</p>
        </triangles>
      </mesh>
    </geometry>
  </library_geometries>
  <library_visual_scenes>
    <visual_scene id="scene">
      <node id="wrist_yaw_link">
        <instance_geometry url="#geometry">
          <bind_material>
            <technique_common>
              <instance_material symbol="scout_1a1a1a" target="#scout_1a1a1a" />
            </technique_common>
          </bind_material>
        </instance_geometry>
      </node>
    </visual_scene>
  </library_visual_scenes>
  <scene>
    <instance_visual_scene url="#scene" />
  </scene>
</COLLADA>