<?xml version='1.0' encoding='utf-8'?>
<COLLADA xmlns="http://www.collada.org/2005/11/COLLADASchema" version="1.4.1">
  <asset>
    <created>2026-09-14T00:00:00Z</created>
    <modified>2026-09-14T00:00:00Z</modified>
    <unit name="metre" meter="1" />
    <up_axis>Z_UP</up_axis>
  </asset>
  <library_effects>
    <effect id="scout_1a1a1a_effect">
      <profile_COMMON>
        <technique sid="common">
          <lambert>
            <emission>
              <color>0 0 0 1</color>
            </emission>
            <ambient>
              <color>0.05 0.05 0.05 1</color>
            </ambient>
            <diffuse>
              <color>0.1 0.1 0.1 1</color>
            </diffuse>
          </lambert>
        </technique>
      </profile_COMMON>
    </effect>
  </library_effects>
  <library_materials>
    <material id="scout_1a1a1a" name="scout_1a1a1a">
      <instance_effect url="#scout_1a1a1a_effect" />
    </material>
  </library_materials>
  <library_geometries>
    <geometry id="geometry" name="L_hand_base_link">
      <mesh>
        <source id="positions">
          <float_array id="positions_array" count="129">-0.00252178032 -0.0671080798 0.0381619781 -0.00744179357 -0.127122939 0.0380161926 0.00826151017 -0.128184304 0.0379954651 0.0079980446 -0.0697056055 0.0361971669 -0.00988287479 -0.0684573576 0.0367982201 -0.010357393 -0.122778267 0.0373728685 0.0122796176 -0.0961788818 0.0349660367 0.0138141885 -0.130210817 0.0314053595 0.00813076273 -2.77684791e-07 0.024869334 -0.00474290783 2.72763174e-07 0.0260344204 -0.00562781328 -0.139452487 0.030185217 0.0013228826 -0.141084 0.0304223895 -0.0211615618 -0.0637326315 0.0224182848 0.0267627928 6.49460389e-06 -2.64350786e-09 -0.00972412713 -1.0374888e-05 -0.0255746953 0.00143483025 -0.139146477 -0.0358822569 -0.00521445228 -0.140122473 -0.00370750297 -0.00572041841 -0.137392923 -0.0356366038 -0.0191738345 -2.9091012e-05 0.0182887372 -0.0277115107 -0.00867954642 0.00364184985 0.019527778 -0.000148340725 0.0182973631 0.0117074279 -0.135148212 0.0304474421 0.0275739878 -0.0120026786 0.00507001439 -0.0105892085 -0.0565262288 -0.0385423265 0.00685266638 -0.0685318038 -0.0384111255 -0.00962195266 -0.077435866 -0.0411471389 0.00122400571 -0.141550541 -0.00383768417 -0.0258582029 1.56718295e-06 0.00477307336 -0.0246876311 -0.0687104911 0.0053060283 -0.0117879119 -0.124816142 0.0298780538 0.0154265175 -0.130792588 -0.00343659753 0.0117442748 -0.13380757 -0.0328191631 -0.0118456772 -0.124290369 -0.0322083533 0.0272691436 -0.00766016403 -0.00527665392 -0.022581365 -0.0706491023 -0.0276860222 -0.0251681674 -0.000136007788 -0.00890146662 0.0143740177 -0.127617761 -0.0354833268 0.00435349857 -0.119914778 -0.0427373461 -0.0210105553 -0.0658962578 -0.0328640826 -0.00738802226 -0.124044508 -0.0419976041 0.0101281032 -0.127622887 -0.0411659703 0.0170533024 -1.33581334e-05 -0.0206355862 -0.0173773579 -0.064443849 -0.0368309841</float_array>
          <technique_common>
            <accessor source="#positions_array" count="43" stride="3">
              <param name="X" type="float" />
              <param name="Y" type="float" />
              <param name="Z" type="float" />
            </accessor>
          </technique_common>
        </source>
        <source id="normals">
          <float_array id="normals_array" count="201">-0.00036031715 0.101806976 0.994804084 -0.0642319694 -0.20064126 0.977556825 0.368663222 -0.256588668 0.893448174 0.439711004 0.083871752 0.89421463 -0.505906403 0.0649134517 0.86014241 -0.195345208 0.0135947829 0.980640292 0.706672788 0.014766396 0.707386374 0.884858549 -0.252267212 0.391645998 0.311044127 0.16099672 0.936659813 -0.199268043 0.182621777 0.962778032 -0.156211182 -0.545832813 0.823203862 0.031458322 -0.556678712 0.830132067 -0.901690662 -0.0161559545 0.432079732 -0.913528442 -0.241935298 0.327006221 0.00312862848 0.999992013 0.00249124062 0.00243926328 0.99999553 0.00173771277 -0.00240745023 0.999995708 -0.00168520596 -0.236918718 -0.968366086 -0.0783368275 -0.219452202 -0.97515738 -0.0301468726 -0.239841178 -0.967599213 -0.0789175704 -0.729324996 0.121835023 0.673231959 -0.986349404 0.0740904137 0.14705582 0.746880889 0.117220953 0.654544294 0.460015684 -0.537988484 0.706366777 0.974143028 0.026171878 0.224411219 -0.91355288 -0.394607306 0.0985198095 -0.750642419 -0.4293814 0.502162933 -0.156874254 0.193241507 -0.968528867 0.427161425 0.116043024 -0.896697938 -0.195639178 0.0522848815 -0.979281187 -0.227434903 -0.973659635 0.0161338337 -0.21702987 -0.975681663 -0.0307130069 -0.958132207 0.17501992 0.22660704 -0.990607977 -0.114115663 0.0753225908 -0.94927913 -0.28285113 0.137347594 0.496204317 -0.868143618 0.0103907986 0.54416132 -0.838746727 -0.0198090635 0.747608542 -0.663631737 0.0259687528 0.907365441 -0.420276165 -0.00747546833 0.69371891 -0.671894073 -0.259446263 0.975402355 0.220393375 0.00413100282 -0.939034462 -0.275624335 -0.205537006 -0.918327391 -0.395773381 -0.00618545013 0.953401327 0.100474797 -0.284483194 -0.969303846 -0.107218139 -0.22125636 -0.909920156 -0.384978741 -0.154391125 -0.919225633 0.131594911 -0.371088922 0.897170782 -0.241486266 -0.36982286 0.503322482 -0.825615644 -0.255000532 0.125875622 -0.0262266658 -0.991699278 -0.862627685 0.0218976922 -0.505365193 -0.508138299 -0.230988115 -0.829722822 0.470601052 -0.284777075 -0.835126758 0.843568087 0.112008721 -0.525211275 -0.706893146 0.198293924 -0.67895627 -0.597411811 0.0967768803 -0.796073675 -0.138312295 -0.440081954 -0.887241542 -0.0817779228 -0.414751053 -0.906252682 0.173906952 0.221811026 -0.959456205 0.17687206 0.222401142 -0.958777368 0.0231395215 0.999577165 0.017608257 -0.0200853013 0.999736965 -0.011071546 -0.00360998791 0.999992609 -0.00131900259 0.000316313934 0.999999344 -0.00111089495 -0.00166018645 0.99999547 0.00251003471 -0.000256998028 0.999994457 -0.00331215491 -0.229016721 -0.973283529 0.016447559</float_array>
          <technique_common>
            <accessor source="#normals_array" count="67" stride="3">
              <param name="X" type="float" />
              <param name="Y" type="float" />
              <param name="Z" type="float" />
            </accessor>
          </technique_common>
        </source>
        <vertices id="vertices">
          <input semantic="POSITION" source="#positions" />
        </vertices>
        <triangles material="scout_1a1a1a" count="82">
          <input semantic="VERTEX" source="#vertices" offset="0" />
          <input semantic="NORMAL" source="#normals" offset="1" />
          <p>0 0 1 1 2 2 3 3 0 0 2 2 4 4 5 5 0 0 5 5 1 1 0 0 6 6 3 3 2 2 7 7 6 6 2 2 8 8 9 9 0 0 10 10 11 11 1 1 4 4 12 12 5 13 9 9 4 4 0 0 3 3 8 8 0 0 8 14 13 15 14 16 15 17 16 18 17 19 4 4 18 20 12 12 18 20 19 21 12 12 9 9 18 20 4 4 3 3 20 22 8 8 21 23 2 2 11 11 2 2 21 23 7 7 22 24 6 6 7 7 22 24 20 22 6 6 3 3 6 6 20 22 10 25 1 26 5 13 23 27 24 28 25 29 11 30 16 18 26 31 18 20 27 32 19 21 28 33 5 13 12 12 28 33 29 34 5 13 29 34 10 25 5 13 11 35 26 36 21 37 30 38 7 7 21 37 31 39 21 37 26 36 13 40 20 22 22 24 29 34 32 41 10 25 32 41 16 42 10 25 19 21 28 33 12 12 31 39 30 38 21 37 33 43 13 40 22 24 19 21 34 44 28 33 34 44 32 41 28 33 32 41 29 34 28 33 17 45 16 42 32 41 35 46 19 21 27 32 36 47 30 38 31 39 26 36 15 48 31 39 30 38 22 24 7 7 24 28 37 49 25 29 38 50 34 44 35 46 34 44 19 21 35 46 30 38 36 47 22 24 38 50 32 41 34 44 32 41 39 51 17 45 40 52 31 39 15 48 33 43 41 53 13 40 22 24 36 47 33 43 39 51 32 41 38 50 14 54 38 50 35 46 36 47 41 53 33 43 42 55 38 50 14 54 40 52 36 47 31 39 17 56 39 51 15 57 39 51 40 52 15 57 36 47 40 52 41 53 40 52 24 28 41 53 23 27 42 55 14 54 42 55 25 29 39 51 37 49 40 52 39 51 37 49 24 28 40 52 25 29 42 55 23 27 24 28 14 58 41 59 37 49 39 51 25 29 39 51 38 50 42 55 24 28 23 27 14 58 8 14 20 60 13 15 35 61 27 62 14 16 13 15 41 63 14 16 18 64 9 65 8 14 14 16 27 62 8 14 27 62 18 64 8 14 15 17 26 31 16 18 11 30 10 66 16 18 1 1 11 11 2 2</p>
        </triangles>
      </mesh>
    </geometry>
  </library_geometries>
  <library_visual_scenes>
    <visual_scene id="scene">
      <node id="L_hand_base_link">
        <instance_geometry url="#geometry">
          <bind_material>
            <technique_common>
              <instance_material symbol="scout_1a1a1a" target="#scout_1a1a1a" />
            </technique_common>
          </bind_material>
        </instance_geometry>
      </node>
    </visual_scene>
  </library_visual_scenes>
  <scene>
    <instance_visual_scene url="#scene" />
  </scene>
</COLLADA>