<?xml version='1.0' encoding='utf-8'?>
<COLLADA xmlns="http://www.collada.org/2005/11/COLLADASchema" version="1.4.1">
  <asset>
    <created>2026-09-14T00:00:00Z</created>
    <modified>2026-09-14T00:00:00Z</modified>
    <unit name="metre" meter="1" />
    <up_axis>Z_UP</up_axis>
  </asset>
  <library_effects>
    <effect id="scout_1a1a1a_effect">
      <profile_COMMON>
        <technique sid="common">
          <lambert>
            <emission>
              <color>0 0 0 1</color>
            </emission>
            <ambient>
              <color>0.05 0.05 0.05 1</color>
            </ambient>
            <diffuse>
              <color>0.1 0.1 0.1 1</color>
            </diffuse>
          </lambert>
        </technique>
      </profile_COMMON>
    </effect>
  </library_effects>
  <library_materials>
    <material id="scout_1a1a1a" name="scout_1a1a1a">
      <instance_effect url="#scout_1a1a1a_effect" />
    </material>
  </library_materials>
  <library_geometries>
    <geometry id="geometry" name="left_shoulder_yaw_link">
      <mesh>
        <source id="positions">
          <float_array id="positions_array" count="138">-0.0383890048 -0.0114898197 -0.00297117303 -0.0381847434 -0.0211861189 -0.073518984 -0.0234100688 -0.0316417404 0.00122649118 -0.0364859253 -0.0381024331 -0.15643996 0.0066478448 -0.04065134 0.00111857813 -0.00301826117 -0.0342624933 -0.227374583 -0.0366601199 -0.0389744006 -0.191384405 -0.0322367586 -0.0304360837 -0.208201647 0.0225598142 -0.0373150297 -0.224698603 -0.0281773619 0.0209327135 -0.1580351 -0.0383024476 0.017842764 -0.182181835 -0.0393193029 0.00540701021 -0.117329381 -0.0286688134 0.0186816603 -0.10030406 -0.028552385 0.0313172601 0.000243754519 -0.0228940789 0.025590118 -0.208145425 -0.0314996168 0.015042739 -0.208789125 -0.0144017888 0.0165020358 -0.22199516 -0.0341435373 0.0277356245 -0.181784883 -0.00948781706 0.0289011616 -0.150694355 -0.00943046622 0.0182410013 -0.145192206 -0.0151187535 0.0364176817 -0.0390306711 0.00644319411 0.0252566859 -0.222975478 0.011449744 0.0274377931 -0.144665405 0.0448247232 -0.0392160639 -0.203930452 0.0385198183 0.0204629768 -0.214071363 0.0528549105 -0.0312949829 -0.181943834 0.0264992695 -0.0338614993 -0.0713546947 0.0144529939 -0.038297575 -0.1340563 0.020997392 -0.0269159842 -0.130587116 0.0359286107 -0.0198927075 -0.0722485408 0.0370645747 -0.0150614344 -0.00211215485 0.0423829332 -0.0369118527 -0.154833063 0.0393088534 0.0139509942 0.00066142634 0.0245290399 0.0165424198 -0.224814191 0.0222866442 0.0174138993 -0.144443497 -0.00824535452 0.033547435 -0.190956622 0.0377810784 0.0273093395 -0.202445 0.0171699189 0.03455282 -0.0458828509 0.0203742962 0.0360195264 0.000795892731 0.0435176454 0.0173333175 -0.156226695 0.0195924416 0.00853856094 -0.129009545 0.0352329127 0.0270653553 -0.15491648 0.0154617401 0.0178481992 -0.106314786 0.0373413302 0.0128690917 -0.0603996105 0.0443760306 0.0268019494 -0.181375116 0.052671928 0.0149862915 -0.183845982</float_array>
          <technique_common>
            <accessor source="#positions_array" count="46" stride="3">
              <param name="X" type="float" />
              <param name="Y" type="float" />
              <param name="Z" type="float" />
            </accessor>
          </technique_common>
        </source>
        <source id="normals">
          <float_array id="normals_array" count="294">-0.97779578 -0.200736865 0.0601676032 -0.953937709 -0.296509206 0.0456630699 -0.813022077 -0.576705635 0.0800358802 -0.997450292 -0.0713009909 -0.00300933258 0.17793496 -0.981162548 0.0752274096 -0.286344349 -0.956058323 0.0629239008 -0.0120537253 -0.999875069 0.0102244206 -0.13672559 -0.957706332 -0.253189087 -0.0995754674 -0.987657905 -0.120898902 -0.424751222 -0.757229328 -0.496175468 -0.0345736519 -0.993226588 -0.110930614 -0.597943485 0.746071637 0.292985708 -0.820321441 0.498573869 0.280172795 -0.956604481 0.291389167 0.00042499142 -0.729898572 0.680649519 -0.062962465 -0.914233744 0.405187041 -0.000327856746 -0.822439253 0.444010556 -0.355595618 -0.468432397 0.766371191 -0.439597905 -0.699409664 0.378500462 -0.606270194 -0.384051472 0.312659949 -0.868762493 -0.567234337 -0.0263605975 -0.823134482 -0.843178928 0.370115697 -0.389953494 -0.255893886 0.803800344 0.537050545 -0.30604139 0.368823856 0.877671719 -0.594231606 0.79810226 -0.0996075049 -0.549424708 0.818322003 0.168764919 0.0145877479 0.913609028 -0.406332046 0.0427942984 0.180675626 0.982611299 0.830570579 0.00311409659 -0.556904614 0.813216448 0.107898034 -0.571871459 0.926075757 0.0226900801 -0.376654893 0.63042748 -0.775893331 -0.0234678145 0.0299723744 -0.999109566 -0.0296933614 0.868678689 -0.476191163 -0.13652584 0.953516006 -0.27641362 -0.120011345 0.907119513 -0.418691218 0.0428006537 0.601233304 -0.796236932 0.0672701225 0.681945324 -0.227280393 0.695193648 0.529281676 -0.510823429 0.67743659 0.832549155 -0.073362641 0.549071729 0.997847259 -0.0633811131 -0.0168415233 -0.0721529648 0.0603169762 -0.995568097 -0.0314027406 0.0607456788 -0.997659147 0.300849319 0.299563527 0.90540123 0.876198649 -0.462476164 -0.135616139 -0.0752584636 0.993576527 -0.0845092759 0.161204726 0.964096069 -0.211025745 -0.0138078621 0.991466761 -0.129626632 0.051638931 0.998263299 -0.0283516161 -0.028188711 0.998715103 0.0421134755 -0.0953619331 0.995135605 -0.0247220546 0.265080601 0.814139903 -0.516631842 0.283254981 0.721250653 -0.632110894 0.288696855 0.80733192 0.514654517 0.63698554 -0.0560991764 -0.768831789 0.440894306 0.318973541 0.838968456 0.605566025 0.768887758 -0.205186322 0.61125493 0.763480246 -0.208483547 0.670284867 0.724647343 -0.160014018 0.685623348 0.718026578 -0.119827107 0.0672866553 0.99456805 0.0794160143 0.0133569669 0.999896526 -0.00533879269 0.104337178 0.994208097 0.0257688016 0.993303239 -0.00104785804 -0.115531825 0.75306958 0.606855035 0.254191339 0.874456167 0.257091105 0.411376506 0.812133074 0.582923949 0.0252898689 0.466114581 0.283990473 0.837906063 0.743816793 0.66679728 -0.0460210666 0.758339763 0.650866389 -0.0359677486 0.938691854 -0.002081129 0.34475103 0.963384211 0.261627287 -0.0586689673 0.788008034 0.557297826 -0.261653334 -0.992435873 -0.0151181547 -0.121829532 -0.968520403 0.012314599 -0.248629406 -0.993060112 -0.00972147472 -0.117205232 0.0146729844 -0.99968195 0.0205120817 0.000495396322 -0.999986351 -0.00520479167 -0.968443394 0.0124815693 -0.248920977 -0.0504334196 0.00609932374 0.998708785 -0.0464281999 0.0098913135 0.998872638 0.0270714667 -0.0353863016 0.999006987 -0.279614598 -0.00785211474 0.960080206 0.030411832 0.0895363539 0.995519161 0.0730808452 -0.0661723092 0.995128334 -0.00988281611 -0.0145715298 0.999844968 0.180414334 0.977901876 -0.105634317 0.0840049312 0.996399462 -0.0114556784 0.0149415415 0.993506014 -0.11279428 0.00501311803 0.992724776 -0.120301291 0.0262258984 0.99963367 -0.00669186516 0.966141164 0.049650576 -0.253191799 0.966133893 0.0495528542 -0.253238708 0.984342575 0.00744053302 0.176108971 0.680651963 -0.0264583826 -0.732129037 0.750580549 0.000934476499 0.660778344 -0.202310249 0.00462171761 -0.979310572 0.103354633 -0.00591359381 -0.994626999</float_array>
          <technique_common>
            <accessor source="#normals_array" count="98" stride="3">
              <param name="X" type="float" />
              <param name="Y" type="float" />
              <param name="Z" type="float" />
            </accessor>
          </technique_common>
        </source>
        <vertices id="vertices">
          <input semantic="POSITION" source="#positions" />
        </vertices>
        <triangles material="scout_1a1a1a" count="88">
          <input semantic="VERTEX" source="#vertices" offset="0" />
          <input semantic="NORMAL" source="#normals" offset="1" />
          <p>0 0 1 1 2 2 2 2 1 1 3 3 4 4 2 5 3 6 5 7 6 8 7 9 8 10 6 8 5 7 9 11 10 12 11 13 12 14 9 11 11 13 13 15 11 13 0 0 10 16 14 17 15 18 12 14 11 13 13 15 15 18 16 19 7 20 15 18 14 17 16 19 17 21 14 17 10 16 18 22 9 11 19 23 20 24 12 14 13 15 17 25 10 12 9 11 14 17 21 26 16 19 22 27 18 22 19 23 23 28 24 29 25 30 26 31 4 4 27 32 28 33 29 34 26 31 30 35 4 4 26 31 25 36 31 36 23 36 28 37 27 38 31 39 30 35 26 31 29 34 32 40 30 35 29 34 21 41 33 42 16 19 22 27 19 23 34 43 27 44 28 33 26 31 35 45 36 46 21 26 37 47 20 48 13 49 13 49 38 50 37 47 24 51 33 52 21 26 39 53 34 53 40 53 23 28 33 54 24 29 21 26 36 46 24 51 41 55 22 27 34 43 40 56 42 57 43 58 37 59 43 58 42 57 22 60 41 61 44 62 43 63 32 40 29 34 41 64 39 65 44 66 39 67 41 55 34 43 38 68 32 69 43 58 39 65 25 70 45 71 43 58 37 59 38 68 36 72 44 66 45 71 39 65 45 71 44 66 11 13 3 3 1 1 10 73 7 74 6 75 36 72 45 71 24 29 1 1 0 0 11 13 10 73 3 3 11 13 31 76 27 32 3 6 23 77 31 76 3 6 3 6 6 8 23 77 7 74 10 73 15 78 13 79 2 80 32 81 2 80 13 79 0 82 2 80 4 83 30 84 2 80 30 84 32 81 13 79 32 81 38 85 14 17 17 25 35 45 17 25 9 11 18 22 17 25 18 22 35 45 35 45 21 26 14 17 19 86 9 87 42 88 9 87 12 89 42 88 19 86 42 88 34 90 12 89 20 48 37 47 23 77 6 8 8 10 3 3 10 73 6 75 42 88 12 89 37 47 43 63 29 34 40 91 28 92 40 91 29 34 34 93 42 93 40 93 33 54 23 28 8 94 31 39 40 95 28 37 16 19 5 96 7 20 44 62 36 46 35 45 22 60 44 62 35 45 18 22 22 60 35 45 5 96 16 19 33 42 5 96 33 42 8 97 4 4 3 6 27 32 31 39 39 65 40 95 25 30 24 29 45 71 39 65 31 39 25 70</p>
        </triangles>
      </mesh>
    </geometry>
  </library_geometries>
  <library_visual_scenes>
    <visual_scene id="scene">
      <node id="left_shoulder_yaw_link">
        <instance_geometry url="#geometry">
          <bind_material>
            <technique_common>
              <instance_material symbol="scout_1a1a1a" target="#scout_1a1a1a" />
            </technique_common>
          </bind_material>
        </instance_geometry>
      </node>
    </visual_scene>
  </library_visual_scenes>
  <scene>
    <instance_visual_scene url="#scene" />
  </scene>
</COLLADA>