<?xml version='1.0' encoding='utf-8'?>
<COLLADA xmlns="http://www.collada.org/2005/11/COLLADASchema" version="1.4.1">
  <asset>
    <created>2026-09-14T00:00:00Z</created>
    <modified>2026-09-14T00:00:00Z</modified>
    <unit name="metre" meter="1" />
    <up_axis>Z_UP</up_axis>
  </asset>
  <library_effects>
    <effect id="scout_1a1a1a_effect">
      <profile_COMMON>
        <technique sid="common">
          <lambert>
            <emission>
              <color>0 0 0 1</color>
            </emission>
            <ambient>
              <color>0.05 0.05 0.05 1</color>
            </ambient>
            <diffuse>
              <color>0.1 0.1 0.1 1</color>
            </diffuse>
          </lambert>
        </technique>
      </profile_COMMON>
    </effect>
  </library_effects>
  <library_materials>
    <material id="scout_1a1a1a" name="scout_1a1a1a">
      <instance_effect url="#scout_1a1a1a_effect" />
    </material>
  </library_materials>
  <library_geometries>
    <geometry id="geometry" name="left_hip_roll_link">
      <mesh>
        <source id="positions">
          <float_array id="positions_array" count="138">-0.0347426422 -0.0305341575 -0.35375011 -0.0306323264 -0.0356349163 -0.443826705 -0.0382187478 -0.0435163938 -0.341685623 0.0568308942 -0.0275337603 -0.0949873179 0.0661907941 -0.043399848 -0.113131218 0.0632453486 -0.0152910035 -0.0608774237 -0.0545469522 0.0474364087 -0.0820599496 -0.0650537983 -0.0399897173 -0.109035775 -0.0443097614 -0.0180341303 -0.0761963725 0.00756670535 -0.0533495247 -0.118757442 -0.0324838869 -0.0533918738 -0.132266521 0.0275771804 -0.0199561957 -0.0750216022 -0.000862470595 -0.0513700061 -0.216989413 -0.00561538013 -0.0595452115 -0.212784782 -0.0457242951 -0.0523550808 -0.182135224 -0.0416721255 0.0370153263 -0.270304829 -0.0343952514 0.0477822833 -0.272829711 -0.0352136195 0.0350077115 -0.439497262 -0.0426175594 -0.0463106297 -0.264926195 -0.0669638664 0.0335786231 -0.161508277 0.0308016669 0.0501178689 -0.0758862272 -0.004393782 0.0555892102 -0.0880604461 0.00392651372 -0.0596508011 -0.169318095 0.0417242907 -0.05178589 -0.190697953 0.0450272858 -0.0456160605 0.023834629 0.0290077236 -0.0533099137 0.00514121726 0.0561268255 -0.0458205119 -0.0170539841 0.0279076677 -0.0240305401 -0.0479834192 0.0588023476 0.045952592 -0.0290849153 0.0334382094 -0.000107326741 0.0555605255 0.0531644747 0.0294352733 -0.37645638 0.0479988828 0.0371431522 -0.419335574 0.0514614247 0.0433458462 -0.355498612 0.027611902 0.0497492887 0.0149391424 0.0664070696 0.039014861 -0.126444772 0.0532485619 0.0460859276 -0.227926552 0.0454386361 0.0491005592 0.016358139 0.0468124449 -0.0407492667 -0.418547004 0.0222453456 -0.0360995494 -0.446208596 -0.0652712882 -0.044214759 -0.17477268 0.0435430631 -0.0534045808 -0.147051498 0.0522093847 -0.0425769649 -0.379137665 -0.0200177189 0.0281959232 -0.378822416 0.0193226878 0.0358210467 -0.447976112 -0.0346411951 0.0319009796 -0.342370331 -0.0118915262 -0.0292640738 -0.377911121</float_array>
          <technique_common>
            <accessor source="#positions_array" count="46" stride="3">
              <param name="X" type="float" />
              <param name="Y" type="float" />
              <param name="Z" type="float" />
            </accessor>
          </technique_common>
        </source>
        <source id="normals">
          <float_array id="normals_array" count="291">-0.9586519 0.0825032592 -0.27235952 -0.97628659 0.20901008 -0.0563848913 -0.991169155 0.0742448643 -0.109869994 -0.224833414 -0.839949787 0.493897021 -0.548472703 -0.748893678 0.371935397 -0.0114949904 -0.995518506 -0.0938657448 -0.960301399 0.0298260916 0.277365446 -0.976618171 -0.00410844618 0.214942038 -0.818854511 -0.0770967677 0.568799913 0.0128599592 -0.89241755 0.451027185 -0.143212542 -0.908843219 0.391783327 -0.183637798 -0.967366874 0.174580798 0.029500721 -0.977753699 0.207671523 0.0173373483 -0.851632237 0.523852944 -0.612065136 -0.0500654355 -0.789220989 -0.945019364 0.295551896 -0.139955387 -0.450248033 0.889349699 -0.0795856491 -0.832058907 0.553361475 -0.0383279175 -0.0134676825 -0.99826169 -0.0573776811 -0.267264962 -0.963574171 -0.00970852748 -0.0888762847 -0.994730949 -0.0511008054 -0.901161194 0.428720355 -0.0640891492 -0.23962976 0.970578611 -0.0235532224 -0.0665958077 0.823902607 0.562804997 0.0227797832 -0.999328971 0.028682014 -0.00347483507 -0.999992549 -0.00166644377 0.122636005 -0.991506279 -0.043309059 0.41772005 -0.595696867 -0.686043143 -0.988685966 0.00666907849 -0.149851829 0.337402642 -0.936424613 0.0962728113 0.0397393294 -0.913879275 -0.404036403 0.174837083 -0.896871567 0.406267673 0.981280684 0.013976885 0.192075118 0.958726645 0.0197000131 0.283646137 0.973927975 0.00134568661 0.226853535 -0.48523739 -0.579830647 0.654477775 0.993526638 0.113470241 0.00542017072 0.96982336 0.23194094 -0.0751399249 0.9987216 0.0447005183 -0.0236003306 -0.999215186 -0.0279464778 0.028071871 -0.999276161 0.0303923003 -0.0228782259 -0.999673486 0.0194049757 0.0166245047 0.0742681697 0.996680915 -0.0333371386 0.145439163 0.989365458 -0.00184771221 0.150945574 0.988540232 -0.00192036608 0.562901795 0.826380193 -0.0154073369 0.378131539 0.925451875 -0.0235665068 -0.0389711447 0.62842834 0.776890635 -0.0289790947 -0.997566462 -0.0634138286 -0.0428350866 -0.995222092 -0.0877389163 -0.0122657726 -0.996890903 -0.0778337345 -0.0418821424 -0.994614482 -0.0948047563 0.0408453718 0.997533143 -0.0570902415 -0.990457237 0.00194736023 -0.137806803 0.259240478 -0.964508295 0.0501810536 -0.37325269 -0.927542448 0.0186382346 0.994857967 0.00890508294 0.100887552 0.999981403 0.0020131343 -0.00575597631 0.0314615518 -0.998356283 -0.0479051508 0.072401613 -0.989807308 -0.122635871 -0.176718816 -0.982347965 -0.0613428317 0.0475660227 -0.991563022 -0.120583035 0.243441209 -0.949085534 -0.19993268 -0.0710441396 -0.992675602 -0.0977132842 -0.665718138 -0.74593693 -0.0199362617 -0.00650404766 0.996856749 -0.0789573863 0.00264573283 0.999901891 -0.0137562677 -0.998173773 0.0417363793 0.0436720289 -0.997903466 -0.0259408727 0.0592940152 -0.0743499622 0.077417545 0.994222641 -0.0490082316 0.049473051 0.997572362 -0.0436519235 0.04356746 0.998096406 -0.0159885529 0.0130718341 0.999786735 0.999383032 0.017134374 -0.0306584779 -0.10328158 -0.855049729 -0.508156359 -0.149169639 -0.86729604 -0.474916846 -0.972324312 0.0567129962 -0.226647392 0.999965549 0.000438833114 -0.00829176046 0.954192162 0.0227881055 0.29832539 0.00689207669 0.0114875399 -0.999910235 0.031669993 0.0367698409 -0.998821795 0.00903063081 0.0136698456 -0.99986577 -0.023096472 -0.0191189367 -0.999550402 -0.0174420122 0.997432053 -0.0694628358 -0.00982340891 0.997827649 -0.0651418567 -0.0191045571 0.999452651 -0.0270085931 -0.00930995494 0.998720706 -0.0497017801 0.203637183 0.978889823 0.0175111033 0.195823729 0.980622351 0.00573385181 0.103418596 0.99349153 -0.0477411561 -0.0198920704 0.995690525 -0.0905794352 -0.120195143 0.990837753 -0.061592672 -0.876895487 0.0147471102 -0.480454773 -0.71894902 -0.112554424 -0.685889065 -0.705262661 -0.708704352 -0.0185122695 -0.998748541 0.0461943299 0.0191686302 0.959176242 -0.00871812087 0.28267464</float_array>
          <technique_common>
            <accessor source="#normals_array" count="97" stride="3">
              <param name="X" type="float" />
              <param name="Y" type="float" />
              <param name="Z" type="float" />
            </accessor>
          </technique_common>
        </source>
        <vertices id="vertices">
          <input semantic="POSITION" source="#positions" />
        </vertices>
        <triangles material="scout_1a1a1a" count="88">
          <input semantic="VERTEX" source="#vertices" offset="0" />
          <input semantic="NORMAL" source="#normals" offset="1" />
          <p>0 0 1 1 2 2 3 3 4 4 5 5 6 6 7 7 8 8 9 9 7 10 10 11 11 12 8 13 3 3 12 14 13 14 14 14 15 15 16 16 17 17 12 18 14 19 18 20 16 16 15 15 19 21 16 16 19 21 6 22 20 23 21 23 6 23 22 24 13 25 23 26 12 27 23 27 13 27 19 21 15 15 18 28 24 29 25 29 26 29 27 30 11 12 5 5 3 3 9 9 4 31 28 32 24 33 26 34 24 35 29 35 25 35 30 36 31 37 32 38 33 39 20 40 27 41 33 42 28 43 20 44 28 43 34 45 35 46 36 47 33 47 29 47 18 20 2 48 12 18 12 18 2 48 37 49 2 48 1 50 38 51 37 49 2 48 38 51 33 42 36 52 28 43 7 7 19 21 39 53 23 26 40 54 22 24 22 24 40 54 9 9 22 24 9 9 10 11 13 25 22 24 14 19 22 24 10 11 14 19 7 10 39 55 10 11 28 32 5 56 34 57 41 58 4 31 40 54 30 59 42 60 43 61 31 62 30 59 43 61 43 61 42 60 17 63 42 60 44 64 17 63 32 65 16 16 21 66 39 53 19 21 18 28 5 56 28 32 26 34 6 22 21 66 16 16 25 67 29 68 27 41 27 41 29 68 33 39 8 13 7 10 3 3 6 69 8 70 20 71 8 70 11 72 20 71 40 54 4 31 9 9 6 6 19 21 7 7 41 73 30 36 32 38 3 3 7 10 9 9 15 15 2 2 18 28 23 26 12 18 41 58 27 30 26 74 25 75 15 15 44 76 2 2 5 5 26 74 27 30 3 3 5 5 11 12 40 54 23 26 41 58 34 57 4 77 32 38 4 77 41 73 32 38 4 77 34 57 5 56 24 33 28 32 29 78 21 66 35 46 32 65 42 79 30 80 41 81 42 79 41 81 45 82 20 44 35 46 21 66 12 18 37 49 41 58 16 16 32 65 31 83 16 16 31 83 17 84 31 83 43 85 17 84 45 86 41 87 37 88 45 86 37 88 38 89 45 86 1 90 0 91 1 90 45 86 38 89 42 92 45 93 0 0 2 2 44 76 0 0 15 94 17 63 44 64 14 19 39 55 18 20 32 65 35 46 34 45 35 46 20 44 28 43 14 19 10 11 39 55 42 92 0 0 44 76 11 95 27 41 20 40 28 32 36 96 29 78</p>
        </triangles>
      </mesh>
    </geometry>
  </library_geometries>
  <library_visual_scenes>
    <visual_scene id="scene">
      <node id="left_hip_roll_link">
        <instance_geometry url="#geometry">
          <bind_material>
            <technique_common>
              <instance_material symbol="scout_1a1a1a" target="#scout_1a1a1a" />
            </technique_common>
          </bind_material>
        </instance_geometry>
      </node>
    </visual_scene>
  </library_visual_scenes>
  <scene>
    <instance_visual_scene url="#scene" />
  </scene>
</COLLADA>