<?xml version='1.0' encoding='utf-8'?>
<COLLADA xmlns="http://www.collada.org/2005/11/COLLADASchema" version="1.4.1">
  <asset>
    <created>2026-09-14T00:00:00Z</created>
    <modified>2026-09-14T00:00:00Z</modified>
    <unit name="metre" meter="1" />
    <up_axis>Z_UP</up_axis>
  </asset>
  <library_effects>
    <effect id="scout_1a1a1a_effect">
      <profile_COMMON>
        <technique sid="common">
          <lambert>
            <emission>
              <color>0 0 0 1</color>
            </emission>
            <ambient>
              <color>0.05 0.05 0.05 1</color>
            </ambient>
            <diffuse>
              <color>0.1 0.1 0.1 1</color>
            </diffuse>
          </lambert>
        </technique>
      </profile_COMMON>
    </effect>
  </library_effects>
  <library_materials>
    <material id="scout_1a1a1a" name="scout_1a1a1a">
      <instance_effect url="#scout_1a1a1a_effect" />
    </material>
  </library_materials>
  <library_geometries>
    <geometry id="geometry" name="left_hip_yaw_link">
      <mesh>
        <source id="positions">
          <float_array id="positions_array" count="87">-0.024972029 -0.063283816 -0.0398285501 -0.0486424603 -0.0594397411 -0.0132429339 0.00110277184 -0.0560617149 -0.0521669425 -0.0443720222 -0.0361565389 -0.0421195254 -0.0277590733 -0.000989394146 -0.0556259826 -0.00415046187 -0.0357383117 -0.0640119463 -0.044390019 -0.00113518385 0.0400222167 -0.0632130429 0.000667091517 -0.00179612334 -0.0494631454 -0.0343310609 0.0349359214 0.0433866009 -0.0562781207 -0.02710253 -0.0341462754 -0.0580047481 0.040200945 -0.0121174585 -0.0370065793 0.0558656938 0.0051483498 -0.00211993861 0.0602768622 0.050940793 -0.00241402118 0.0378470607 0.020215746 -0.0681187883 -0.035824772 0.0377154984 -0.00188685895 -0.0507549867 0.0417763889 -0.0588829517 0.0326098129 -0.0666377321 -0.0367295444 0.00201811362 0.0412798673 -0.0364992917 0.0379823968 0.0637577623 -0.0365071408 0.00476778997 -0.0541778728 -0.00285108318 0.0769941062 0.0520110726 0.0148095554 0.0749293417 0.0392525196 -0.0404125601 0.073195748 -0.00475765998 0.00418071076 0.0681530088 0.0626124367 -0.00102931354 -0.000177192094 -0.029268302 -0.0438045114 0.0745716542 0.010924208 0.0508524552 0.0768006146 -0.0312271286 0.0430657156 0.0730950758 0.045872476 -0.0362642631 -0.0460434593</float_array>
          <technique_common>
            <accessor source="#positions_array" count="29" stride="3">
              <param name="X" type="float" />
              <param name="Y" type="float" />
              <param name="Z" type="float" />
            </accessor>
          </technique_common>
        </source>
        <source id="normals">
          <float_array id="normals_array" count="231">-0.443245173 0.742635667 -0.502021849 -0.666455388 -0.249859169 -0.702429771 -0.667325318 0.029429188 -0.744184732 -0.438988656 -0.380810827 -0.813800991 -0.411195755 -0.587678969 -0.696815193 -0.908045471 0.0756465793 0.411984295 -0.895352006 0.102991559 0.433286935 -0.897751033 0.0980294123 0.429457039 0.47713396 -0.345856071 -0.807915092 0.476848006 -0.347343177 -0.807445765 0.477723032 -0.342769533 -0.80888176 -0.49184373 -0.126642257 0.861424088 -0.0224974118 0.999725342 -0.00656256406 -0.00320174382 0.934029579 -0.357181311 -0.057838954 0.991397083 -0.117415801 -0.0383115597 -0.824983656 -0.563856542 0.0750244781 0.281811923 -0.956531942 0.244187787 0.0765798911 -0.966699481 0.161021873 0.18082422 -0.970244586 0.478346884 -0.339467198 -0.809905112 0.539786339 -0.841510534 -0.022153277 0.310314387 -0.948147893 0.0687063485 0.113610424 -0.992016613 0.0547335222 -0.883175552 0.126933426 0.451540589 0.954698503 -0.176981822 0.239224106 0.904765427 -0.218373761 0.365667045 0.886623263 -0.079495281 0.455609113 -0.952459037 0.182892993 -0.243663639 0.247938901 -0.349640429 0.903481007 0.311970145 -0.215196669 0.925399959 0.114233106 -0.57773453 0.808191538 0.970883608 -0.226740003 0.0772918314 0.967063725 -0.249187127 0.0518989302 -0.892441392 0.0358570144 -0.449736208 -0.866673589 0.0932273269 -0.490087271 -0.992878795 0.0978709981 -0.0679190159 0.0689249933 -0.641973972 0.763622105 0.0543297641 0.902476192 -0.427299708 -0.427674085 -0.671736181 -0.604868114 0.664224565 0.366160065 -0.65171504 0.952766955 0.0718858242 0.295072168 -0.80973196 -0.509710133 0.290740043 0.0223071855 -0.0455073118 0.998714924 0.0230782591 -0.0353368744 0.99910897 -0.00137069146 -0.001385379 0.999998093 0.0149606615 -0.0348269418 0.999281347 -0.00718680257 0.00732981227 0.999947309 0.044376716 -0.963452637 -0.264177561 -0.0280743074 -0.993311167 -0.112003334 -0.013057203 -0.987761199 -0.155426323 0.0660219416 -0.955717564 -0.286783993 0.083612524 -0.958728731 -0.271750271 0.0152441673 0.999669075 -0.0207221601 0.0137362313 0.99986136 0.00940916315 0.0141481766 0.999635816 -0.0229798201 0.0138769252 0.999848783 0.0104827341 0.0735258237 0.157752857 -0.984737515 0.0889416486 0.152490988 -0.984294593 -0.0165164955 0.103687271 -0.994472802 -0.0558272339 0.0883956328 -0.99451977 -0.172909096 0.87312603 -0.455799699 -0.17675665 0.00477165822 -0.984243035 -0.112288073 0.139665768 0.983811378 0.0833266452 -0.996097207 0.0291034039 -0.0100699812 -0.999948561 -0.00123510393 -0.838465452 -0.488987267 0.240556002 0.337198496 -0.0488429591 -0.940165699 0.914543509 0.0428990684 -0.402206153 0.928858817 0.175702438 -0.326113403 0.922881246 0.0962194204 -0.372869939 0.896935165 -0.0325071998 -0.440965474 -0.0536668748 -0.994136035 0.0938798264 -0.110256128 -0.992866039 0.0453943685 -0.107699886 -0.992761731 0.0531490594 0.822633088 -0.115382619 0.556741953 -0.139267579 0.990213096 0.00908732042 0.705899835 -0.708212435 -0.0118590156</float_array>
          <technique_common>
            <accessor source="#normals_array" count="77" stride="3">
              <param name="X" type="float" />
              <param name="Y" type="float" />
              <param name="Z" type="float" />
            </accessor>
          </technique_common>
        </source>
        <vertices id="vertices">
          <input semantic="POSITION" source="#positions" />
        </vertices>
        <triangles material="scout_1a1a1a" count="54">
          <input semantic="VERTEX" source="#vertices" offset="0" />
          <input semantic="NORMAL" source="#normals" offset="1" />
          <p>0 0 1 0 2 0 3 1 4 2 5 3 3 1 5 3 2 4 6 5 7 6 8 7 2 8 5 9 9 10 8 11 10 11 11 11 6 12 12 13 13 14 0 15 2 15 14 15 4 16 15 17 5 18 2 8 9 10 14 19 9 20 16 21 14 22 7 6 17 23 8 7 13 24 18 25 19 26 6 27 8 27 20 27 16 28 18 29 11 30 13 24 21 31 22 32 3 1 17 33 7 34 3 35 1 35 8 35 10 36 16 28 11 30 7 34 4 2 3 1 23 37 12 13 6 12 2 4 1 38 3 1 9 39 5 39 19 39 13 24 22 32 18 25 13 24 19 26 24 40 25 41 20 41 8 41 25 42 22 43 20 44 21 45 26 46 22 43 11 47 18 48 22 49 22 49 25 50 11 47 25 50 8 51 11 47 4 52 7 53 15 54 15 54 7 53 24 55 24 55 7 53 6 12 24 55 6 12 13 14 26 56 21 57 23 58 27 59 26 56 23 58 21 60 12 13 23 37 27 59 23 58 20 61 27 62 20 44 26 46 3 63 8 63 17 63 19 64 5 64 28 64 8 65 1 65 10 65 15 17 28 66 5 18 19 67 28 68 15 69 15 69 24 70 19 67 14 22 16 21 10 71 0 72 14 22 1 73 14 22 10 71 1 73 16 74 19 26 18 25 6 12 20 75 23 37 12 13 21 60 13 14 9 20 19 76 16 21 26 46 20 44 22 43</p>
        </triangles>
      </mesh>
    </geometry>
  </library_geometries>
  <library_visual_scenes>
    <visual_scene id="scene">
      <node id="left_hip_yaw_link">
        <instance_geometry url="#geometry">
          <bind_material>
            <technique_common>
              <instance_material symbol="scout_1a1a1a" target="#scout_1a1a1a" />
            </technique_common>
          </bind_material>
        </instance_geometry>
      </node>
    </visual_scene>
  </library_visual_scenes>
  <scene>
    <instance_visual_scene url="#scene" />
  </scene>
</COLLADA>