<?xml version='1.0' encoding='utf-8'?>
<COLLADA xmlns="http://www.collada.org/2005/11/COLLADASchema" version="1.4.1">
  <asset>
    <created>2026-09-14T00:00:00Z</created>
    <modified>2026-09-14T00:00:00Z</modified>
    <unit name="metre" meter="1" />
    <up_axis>Z_UP</up_axis>
  </asset>
  <library_effects>
    <effect id="scout_1a1a1a_effect">
      <profile_COMMON>
        <technique sid="common">
          <lambert>
            <emission>
              <color>0 0 0 1</color>
            </emission>
            <ambient>
              <color>0.05 0.05 0.05 1</color>
            </ambient>
            <diffuse>
              <color>0.1 0.1 0.1 1</color>
            </diffuse>
          </lambert>
        </technique>
      </profile_COMMON>
    </effect>
  </library_effects>
  <library_materials>
    <material id="scout_1a1a1a" name="scout_1a1a1a">
      <instance_effect url="#scout_1a1a1a_effect" />
    </material>
  </library_materials>
  <library_geometries>
    <geometry id="geometry" name="left_wrist_pitch_link">
      <mesh>
        <source id="positions">
          <float_array id="positions_array" count="72">-0.00602474343 -0.0180242155 -0.00777060771 -0.0125995129 -0.00156752393 -0.0227915701 0.0057342872 -0.0251394901 -0.0231179334 -0.00458645355 0.0218436923 -0.00825938582 0.00131997105 0.0279463232 0.013657609 0.00202124915 0.0322061777 0.00030789178 0.00223410968 0.0264920592 -0.0223127995 0.0508216843 -0.00284852344 -0.0220771637 0.0534906909 0.00524519943 -0.00973289367 0.0382161215 -0.0272610988 -0.00977817737 0.022065822 0.0324536376 0.0311182737 0.0253387485 0.0337294899 -0.00978181325 0.00483350363 -0.0282802247 -0.00657891249 0.0437637381 -0.0233531576 0.0298317149 0.0360678993 0.0246906783 -0.0242200326 0.00736324908 -0.0292849932 0.0299269389 0.0234859772 0.00990228262 0.0293967854 0.00773752062 0.00357542629 0.0292791612 -0.0162749123 0.0040508043 0.0295679141 0.0152292149 -0.0124919694 0.0287884399 0.0332910903 -0.0044493 0.0282887015 0.0362197496 -0.0239973366 -0.0246943962 0.00148657151 -0.0293096621 0.00187927287 0.0490667075 0.0125516756 0.0299626626</float_array>
          <technique_common>
            <accessor source="#positions_array" count="24" stride="3">
              <param name="X" type="float" />
              <param name="Y" type="float" />
              <param name="Z" type="float" />
            </accessor>
          </technique_common>
        </source>
        <source id="normals">
          <float_array id="normals_array" count="168">-0.706073821 -0.6535815 -0.272563666 -0.753173649 -0.581546307 -0.307462692 -0.71599853 -0.65345782 -0.245639995 -0.828203559 0.556248784 0.0683096126 -0.622307479 0.741410315 0.251085818 -0.875479639 0.471807271 0.104562379 -0.851139188 0.454436123 -0.262773484 0.890626192 -0.4546161 0.010447165 0.937491298 -0.345481873 0.0418607555 0.87723273 -0.466958672 -0.111410528 0.653635442 0.756808519 -0.00125260826 0.674735367 0.737431109 0.0304567739 0.708793283 0.700663745 0.0817456171 -0.648697793 -0.716575086 -0.256342202 0.103528835 -0.994340181 0.0238605924 0.0800175443 -0.994268 -0.0709103495 0.02489914 -0.998000026 -0.0581035912 0.708408058 0.700293601 0.0880160853 0.163616732 -0.985773623 -0.0384700932 0.00883984566 -0.06651593 0.997746229 0.00242862455 -0.0742824674 0.997234285 0.0107161636 -0.0457238816 0.998896658 -0.89956671 0.0377880149 0.435145795 -0.959003329 0.0311440416 -0.281678289 -0.316077888 0.716082513 -0.622350812 -0.683511674 0.67998749 0.265384376 0.0189658981 0.026425546 0.99947083 -0.0308150686 -0.00436787587 0.999515533 0.0272342451 -0.982349157 -0.185063377 0.0144513799 -0.978387594 -0.206273809 0.198353544 -0.979285181 -0.0406985022 0.00620518625 0.0108987074 -0.999921381 -0.037354853 0.0130492896 -0.999216855 -0.0387160257 0.0119251283 -0.999179065 -0.0049917982 0.0097267814 -0.999940217 0.0220670849 -0.0224739742 0.999503851 -0.0450406671 -0.0535149239 0.997550726 0.0216750428 0.0586416349 0.998043776 -0.048481185 0.0545482486 0.997333467 0.814482272 -0.534388542 -0.225937098 0.980011404 -0.145238876 0.135953188 0.960000157 -0.277773738 0.0352336057 0.58902669 0.803909361 -0.0823241249 -0.828302681 -0.544636667 0.131474793 -0.839712977 -0.524238348 0.141620323 -0.883771181 -0.42955777 0.185549557 0.0159788076 0.852793872 -0.522003174 0.00246232352 0.015758777 -0.999872804 0.162199542 0.0101193152 -0.986706078 -0.351193786 0.895382464 0.273775816 -0.0535935946 0.998201787 0.0268496908 -0.174645349 0.978935242 0.105758213 -0.627612114 -0.703267992 -0.333941936 0.807057738 0.398464143 -0.435756892 -0.360216975 0.923668385 0.13069199 -0.810762227 -0.573649764 0.116578862</float_array>
          <technique_common>
            <accessor source="#normals_array" count="56" stride="3">
              <param name="X" type="float" />
              <param name="Y" type="float" />
              <param name="Z" type="float" />
            </accessor>
          </technique_common>
        </source>
        <vertices id="vertices">
          <input semantic="POSITION" source="#positions" />
        </vertices>
        <triangles material="scout_1a1a1a" count="44">
          <input semantic="VERTEX" source="#vertices" offset="0" />
          <input semantic="NORMAL" source="#normals" offset="1" />
          <p>0 0 1 1 2 2 3 3 4 4 5 5 1 6 3 6 6 6 7 7 8 8 9 9 10 10 8 11 11 12 2 2 12 13 0 0 13 14 12 15 9 16 14 17 11 12 8 11 12 15 13 14 15 18 16 19 10 20 17 21 1 22 0 22 3 22 18 23 3 23 0 23 3 24 5 24 11 24 3 3 18 25 4 4 16 19 19 26 20 27 2 28 21 29 12 15 15 18 22 30 12 15 21 31 2 32 6 33 21 31 6 33 14 34 9 16 12 15 21 29 10 20 18 35 17 21 17 21 18 35 19 26 10 20 16 19 23 36 20 27 23 36 16 19 18 35 15 37 19 26 20 27 15 37 13 38 13 38 23 36 20 27 15 37 20 27 19 26 21 39 7 7 9 9 23 40 13 41 8 8 17 21 19 26 16 19 10 10 23 42 8 11 15 43 0 44 22 45 11 46 14 46 6 46 6 33 2 32 1 47 9 9 8 8 13 41 21 31 14 34 7 48 10 49 4 4 18 25 10 49 11 50 5 51 22 52 0 0 12 13 8 53 7 53 14 53 11 54 6 54 3 54 5 51 4 4 10 49 18 55 0 44 15 43</p>
        </triangles>
      </mesh>
    </geometry>
  </library_geometries>
  <library_visual_scenes>
    <visual_scene id="scene">
      <node id="left_wrist_pitch_link">
        <instance_geometry url="#geometry">
          <bind_material>
            <technique_common>
              <instance_material symbol="scout_1a1a1a" target="#scout_1a1a1a" />
            </technique_common>
          </bind_material>
        </instance_geometry>
      </node>
    </visual_scene>
  </library_visual_scenes>
  <scene>
    <instance_visual_scene url="#scene" />
  </scene>
</COLLADA>