<?xml version='1.0' encoding='utf-8'?>
<COLLADA xmlns="http://www.collada.org/2005/11/COLLADASchema" version="1.4.1">
  <asset>
    <created>2026-09-14T00:00:00Z</created>
    <modified>2026-09-14T00:00:00Z</modified>
    <unit name="metre" meter="1" />
    <up_axis>Z_UP</up_axis>
  </asset>
  <library_effects>
    <effect id="scout_1a1a1a_effect">
      <profile_COMMON>
        <technique sid="common">
          <lambert>
            <emission>
              <color>0 0 0 1</color>
            </emission>
            <ambient>
              <color>0.05 0.05 0.05 1</color>
            </ambient>
            <diffuse>
              <color>0.1 0.1 0.1 1</color>
            </diffuse>
          </lambert>
        </technique>
      </profile_COMMON>
    </effect>
  </library_effects>
  <library_materials>
    <material id="scout_1a1a1a" name="scout_1a1a1a">
      <instance_effect url="#scout_1a1a1a_effect" />
    </material>
  </library_materials>
  <library_geometries>
    <geometry id="geometry" name="left_shoulder_pitch_link">
      <mesh>
        <source id="positions">
          <float_array id="positions_array" count="90">0.0307226572 0.0878835842 0.0257969555 0.0187475123 0.065243043 0.0404281467 0.0322897024 0.0554749742 0.0322184786 0.0197347961 0.0876523852 0.032508716 0.0237317178 -0.00318836141 0.0230240282 0.0347214341 0.0666504875 0.00766142039 0.0200913716 -0.00480450597 -0.0198840406 0.0317914821 0.0307661705 -0.0319852307 -0.0333490148 0.0924912915 0.0285095032 -0.0336150602 0.0660275742 0.0397408456 -0.0395961106 0.0607734658 0.0333956629 -0.0337689295 0.00209244015 0.0245816577 -0.0320155136 0.0899268389 -0.0428263731 -0.0345147364 0.0731207654 -0.0502219349 -0.0392506942 0.0925620645 -0.0313735679 -0.0155024258 -0.00652219309 0.0161234848 0.0194112528 0.0580836684 -0.0531333983 0.0319272876 0.0906874165 -0.0332729444 0.0307262838 0.102561116 -0.00570590934 0.0192299522 0.109000564 0.00226983475 -0.0332499854 0.105064824 0.0085848039 -0.0325853266 0.106816575 -0.0177924372 -0.0391818732 -0.00240451819 -0.00982639939 -0.0325877145 -0.00424360624 -0.0208828002 0.0312675089 0.0617752448 -0.046149008 -0.039751593 0.054184828 -0.0438022204 -0.0335062146 0.0503880791 -0.0500840656 -0.0396929085 0.0898427591 0.0195412096 0.0188329332 0.0930306762 -0.0425000153 -0.0395279154 0.101708695 -0.00481538707</float_array>
          <technique_common>
            <accessor source="#positions_array" count="30" stride="3">
              <param name="X" type="float" />
              <param name="Y" type="float" />
              <param name="Z" type="float" />
            </accessor>
          </technique_common>
        </source>
        <source id="normals">
          <float_array id="normals_array" count="177">0.540806055 0.235749573 0.807434797 0.24851957 0.07001324 0.966093242 0.480598927 -0.0684922412 0.874261677 0.250976622 0.312690526 0.916097939 0.0458044596 -0.321335435 0.945856988 0.999262691 0.00923795067 0.0372665189 0.989899814 0.109008595 0.0906395242 0.994788706 -0.0680561513 0.0759196132 0.940757751 -0.332334071 -0.0672969818 0.990733802 -0.134355232 -0.0198806711 0.976283729 -0.216284618 0.00953974947 -0.0157132391 0.37533024 0.926757932 -0.00622803345 0.390722394 0.920487463 -0.767028272 0.109712675 0.632163584 -0.725528657 -0.0131333107 0.688066661 -0.639458954 -0.17591542 0.74842906 -0.361137718 0.586497962 -0.7249825 -0.878615618 0.1447092 -0.455075711 -0.862948537 0.39416042 -0.316160351 -0.0982596949 -0.946909547 0.306116641 -0.162515238 -0.658319473 0.734985888 0.255839139 -0.101144388 -0.961413622 0.457710385 -0.405227661 -0.791385949 0.0922419503 -0.464627862 -0.880688548 0.998082519 0.0465550758 -0.0407908447 0.992903531 0.117437519 0.0187364332 0.387043685 0.772142529 0.503977299 0.26391232 0.951571882 0.157674596 0.157838598 0.807928026 0.567749321 0.0124305878 0.834926546 0.550221026 -0.413060665 0.855881453 0.311203808 -0.374821901 0.891051292 -0.25600034 -0.24764657 -0.96612072 0.0726771057 0.014188095 -0.468827158 -0.883175969 0.997960746 -0.00362179405 -0.0637278855 -0.104355581 -0.994454384 -0.0130519876 0.625053704 0.70752728 0.329716653 -0.978982449 -0.151168853 -0.13689898 -0.977812529 -0.122611329 0.169850379 -0.999212861 -0.0248996802 0.0308813192 -0.919248998 -0.0797415078 -0.385515988 -0.752937913 -0.202551067 -0.626145005 -0.837622941 -0.285402179 -0.465761125 -0.803498089 0.370699614 0.465803146 -0.799411893 0.441505641 0.407447428 -0.0244570021 0.208840936 -0.977643728 -0.0170132201 -0.265026897 -0.964090943 0.261049539 0.64653039 -0.716834426 0.299975932 0.895452857 -0.328905195 0.397392094 0.848958611 -0.348351508 0.46493417 0.282910466 -0.838926613 0.583383083 0.319279701 -0.746809602 -0.677778184 0.734473169 0.0341446213 0.0363960527 -0.999269068 -0.0116908299 0.0792469084 -0.996378899 0.0308055356 -0.0162257534 -0.23063907 0.972904086 0.553607941 -0.338238806 -0.760994613 -0.999903738 -0.00854049437 -0.0109343184 -0.999976993 0.00500882464 -0.00457995199</float_array>
          <technique_common>
            <accessor source="#normals_array" count="59" stride="3">
              <param name="X" type="float" />
              <param name="Y" type="float" />
              <param name="Z" type="float" />
            </accessor>
          </technique_common>
        </source>
        <vertices id="vertices">
          <input semantic="POSITION" source="#positions" />
        </vertices>
        <triangles material="scout_1a1a1a" count="56">
          <input semantic="VERTEX" source="#vertices" offset="0" />
          <input semantic="NORMAL" source="#normals" offset="1" />
          <p>0 0 1 1 2 2 0 0 3 3 1 1 4 4 2 2 1 1 5 5 0 6 2 7 6 8 7 9 4 10 7 9 2 7 4 10 1 1 8 11 9 12 9 13 10 14 11 15 12 16 13 17 14 18 15 19 4 4 11 20 5 5 2 7 7 9 16 21 7 22 6 23 17 24 18 25 5 5 18 25 0 6 5 5 0 26 19 27 3 28 19 27 8 29 3 28 20 30 19 27 21 31 11 20 22 32 15 19 23 33 16 21 6 23 24 34 5 5 7 9 23 35 15 19 22 32 18 36 19 27 0 26 20 30 8 29 19 27 1 1 11 20 4 4 22 37 11 38 10 39 25 40 26 41 23 42 10 14 8 43 27 44 25 40 23 42 22 37 13 45 16 21 26 46 17 24 5 5 24 34 28 47 19 27 18 48 17 49 28 47 18 48 28 47 24 50 16 21 21 31 19 27 28 47 17 51 24 50 28 47 27 44 8 43 20 30 12 16 21 31 28 47 20 30 29 52 27 44 12 16 28 47 13 45 28 47 16 21 13 45 26 41 25 40 13 17 13 17 25 40 14 18 10 14 9 13 8 43 14 18 21 31 12 16 15 19 6 53 4 54 14 18 29 52 21 31 1 1 3 3 8 11 1 1 9 55 11 20 26 46 16 21 23 33 29 52 20 30 21 31 24 56 7 22 16 21 25 40 22 37 10 39 27 57 29 58 10 39 25 40 10 39 29 58 29 58 14 18 25 40 23 35 6 53 15 19</p>
        </triangles>
      </mesh>
    </geometry>
  </library_geometries>
  <library_visual_scenes>
    <visual_scene id="scene">
      <node id="left_shoulder_pitch_link">
        <instance_geometry url="#geometry">
          <bind_material>
            <technique_common>
              <instance_material symbol="scout_1a1a1a" target="#scout_1a1a1a" />
            </technique_common>
          </bind_material>
        </instance_geometry>
      </node>
    </visual_scene>
  </library_visual_scenes>
  <scene>
    <instance_visual_scene url="#scene" />
  </scene>
</COLLADA>