<?xml version='1.0' encoding='utf-8'?>
<COLLADA xmlns="http://www.collada.org/2005/11/COLLADASchema" version="1.4.1">
  <asset>
    <created>2026-09-14T00:00:00Z</created>
    <modified>2026-09-14T00:00:00Z</modified>
    <unit name="metre" meter="1" />
    <up_axis>Z_UP</up_axis>
  </asset>
  <library_effects>
    <effect id="scout_1a1a1a_effect">
      <profile_COMMON>
        <technique sid="common">
          <lambert>
            <emission>
              <color>0 0 0 1</color>
            </emission>
            <ambient>
              <color>0.05 0.05 0.05 1</color>
            </ambient>
            <diffuse>
              <color>0.1 0.1 0.1 1</color>
            </diffuse>
          </lambert>
        </technique>
      </profile_COMMON>
    </effect>
  </library_effects>
  <library_materials>
    <material id="scout_1a1a1a" name="scout_1a1a1a">
      <instance_effect url="#scout_1a1a1a_effect" />
    </material>
  </library_materials>
  <library_geometries>
    <geometry id="geometry" name="left_elbow_pitch_link">
      <mesh>
        <source id="positions">
          <float_array id="positions_array" count="69">-0.0108651407 0.001992048 -0.0166850369 -0.0395347141 0.00403819745 0.0144836344 -0.0209880397 0.00341441552 -0.0400302447 0.0222729295 0.00329214707 -0.0354876518 0.0708209202 -0.00230595912 -0.0216073338 0.047617346 -0.00315790204 -0.0185451452 0.0749038011 -0.00178954552 -0.0229017008 0.066013135 -0.0173971374 -0.0421100892 0.0901776478 -0.0104545625 -0.0350839198 0.0559363887 -0.00520311901 0.0168840978 0.0686534047 -0.00998847466 0.00889146421 0.115858927 -0.0012807654 -0.020150343 0.118706465 -0.044178009 -0.0443598814 0.071939528 -0.0127346944 0.0201422162 -0.00297424942 0.00172468764 0.0177263878 0.12166404 -0.0461679734 0.0196571443 0.0539542735 -0.0578637496 0.0152029116 0.0103651565 0.00472730678 0.0351548083 0.0639120713 -0.0488188155 0.0111840805 0.0710227191 -0.0530902818 0.0149247237 0.0663412809 -0.0332276821 0.0148231117 0.0706310794 -0.059835054 0.00218296191 0.0569990166 -0.0551609769 -0.0367097855</float_array>
          <technique_common>
            <accessor source="#positions_array" count="23" stride="3">
              <param name="X" type="float" />
              <param name="Y" type="float" />
              <param name="Z" type="float" />
            </accessor>
          </technique_common>
        </source>
        <source id="normals">
          <float_array id="normals_array" count="228">-0.0372696854 -0.999199867 -0.0145129682 -0.0749498829 -0.996276617 0.0426076911 -0.0361669883 -0.998325646 -0.0451429561 -0.0811223909 -0.996661723 -0.00919519179 0.00378965633 -0.932856619 -0.360228002 -0.0245562438 -0.899458408 -0.436315894 0.0368342623 -0.962737978 -0.267915666 0.0933061913 -0.793411374 0.601491809 0.0926728174 -0.793319702 0.601710558 0.0463421643 -0.785654783 0.616927028 -0.768206537 0.588179052 -0.252792537 0.0462431274 -0.969444513 -0.240912572 -0.0637679398 0.810799241 -0.581840396 0.164111227 0.493068099 -0.854371905 0.342190206 0.926307559 0.157671064 0.477137893 0.849660754 0.224535093 0.515445828 0.821573436 0.243583038 0.498125941 0.810919225 0.30705145 -0.419355363 -0.872508347 -0.250739515 -0.369378388 -0.89422673 -0.252820343 -0.57739383 -0.780906498 -0.238330558 -0.0725797191 -0.994984567 -0.0688323751 -0.0655373633 -0.990763426 0.11871247 0.994969666 0.0904034898 -0.0431572534 0.209964186 0.0233014487 -0.977431357 0.410957992 0.554460347 0.723662436 0.40254724 0.57504648 0.712233961 0.375831753 0.634587765 0.67531389 0.131655216 -0.519944429 -0.843993306 -0.718446851 0.351985782 -0.599950135 0.516690493 0.117441073 -0.848079324 0.467596322 0.105718881 -0.877597392 0.502712905 0.114101566 -0.856890023 0.458949894 0.103656426 -0.882394671 0.583752394 -0.269701362 0.765829206 -0.971322536 -0.0606745481 0.229893625 -0.996686161 -0.00330221024 0.0812759697 -0.999596119 0.0201135483 0.0200774409 -0.493411273 0.26087898 0.829751432 -0.247638568 0.859410942 -0.447311968 0.941755474 -0.00788296573 0.336205959 -0.961981833 -0.0735648498 0.263019383 -0.0605263039 -0.0295742266 0.997728407 -0.123988643 -0.992283344 -0.000740957039 0.0846400037 0.992603004 -0.0870364979 0.0796747357 0.62401396 0.777340651 -0.614172339 -0.753698885 -0.233945012 -0.0581383072 -0.993559003 -0.097264789 0.133751914 -0.798519433 0.586921751 0.117162064 0.992665827 0.0297929253 0.0172199514 -0.987457633 0.156942204 -0.0125840334 -0.98374778 0.179114476 -0.580083609 -0.35989669 0.730737567 0.758443654 -0.0887055472 0.645673752 0.0228917152 0.999373376 -0.0269973446 0.0197703838 0.999474227 -0.0256974623 -0.00794829801 0.999868333 -0.0141452672 -0.760321379 -0.620546877 0.191919088 0.163912028 0.984594882 0.0608753376 -0.262975812 -0.952751517 0.152013958 -0.114592783 -0.0473312102 -0.992284358 -0.981574535 0.174380168 0.0781219006 -0.972017109 0.234345287 0.0162779633 -0.979709148 0.190791905 0.061387714 -0.983910024 0.127527013 0.125131443 -0.3662422 -0.0102166673 -0.930463493 0.171641693 -0.984352648 -0.0398625843 0.170474499 -0.984610379 -0.0384823531 0.171456397 -0.984393775 -0.039643418 -0.248098031 -0.968732119 0.00233343686 -0.225315467 -0.974196494 -0.0131972143 0.172694713 -0.98411721 -0.0411082432 0.372069776 0.642339408 0.670047939 0.306785405 0.941398859 0.140181839 -0.0623295158 0.786254168 0.614751458 0.0391700678 0.998661637 -0.0337732174</float_array>
          <technique_common>
            <accessor source="#normals_array" count="76" stride="3">
              <param name="X" type="float" />
              <param name="Y" type="float" />
              <param name="Z" type="float" />
            </accessor>
          </technique_common>
        </source>
        <vertices id="vertices">
          <input semantic="POSITION" source="#positions" />
        </vertices>
        <triangles material="scout_1a1a1a" count="54">
          <input semantic="VERTEX" source="#vertices" offset="0" />
          <input semantic="NORMAL" source="#normals" offset="1" />
          <p>0 0 1 1 2 2 0 0 2 2 3 3 4 4 5 5 6 6 6 7 7 8 8 9 9 10 4 10 7 10 6 6 10 11 4 4 4 12 8 12 7 12 3 13 11 13 12 13 10 14 8 15 4 16 9 17 10 17 6 17 13 18 9 19 6 20 0 0 9 21 14 22 12 23 11 23 15 23 9 24 13 24 16 24 17 25 9 26 11 27 18 28 19 28 16 28 16 29 13 29 20 29 18 30 20 31 19 32 20 31 13 33 19 32 21 34 20 34 18 34 13 35 21 36 19 37 10 38 16 38 20 38 19 39 21 39 16 39 10 40 20 40 21 40 13 35 10 41 21 36 9 42 16 42 15 42 0 0 3 3 17 43 0 44 17 44 5 44 4 45 0 45 5 45 6 20 8 46 13 18 0 0 4 47 9 21 6 7 5 48 7 8 5 49 14 49 9 49 5 50 17 51 14 22 3 52 22 52 5 52 5 53 22 53 7 53 17 54 2 55 1 56 22 57 21 57 18 57 16 58 21 58 22 58 7 59 10 59 9 59 3 60 12 60 22 60 10 61 7 62 22 63 10 61 22 63 18 64 10 65 18 65 16 65 22 66 12 67 15 68 3 3 5 69 9 70 3 3 9 70 17 43 22 66 15 68 16 71 15 72 11 27 9 26 1 1 14 22 17 51 1 1 0 0 14 22 8 15 10 14 13 73 11 74 3 74 2 74 17 54 11 75 2 55</p>
        </triangles>
      </mesh>
    </geometry>
  </library_geometries>
  <library_visual_scenes>
    <visual_scene id="scene">
      <node id="left_elbow_pitch_link">
        <instance_geometry url="#geometry">
          <bind_material>
            <technique_common>
              <instance_material symbol="scout_1a1a1a" target="#scout_1a1a1a" />
            </technique_common>
          </bind_material>
        </instance_geometry>
      </node>
    </visual_scene>
  </library_visual_scenes>
  <scene>
    <instance_visual_scene url="#scene" />
  </scene>
</COLLADA>