<?xml version='1.0' encoding='utf-8'?>
<COLLADA xmlns="http://www.collada.org/2005/11/COLLADASchema" version="1.4.1">
  <asset>
    <created>2026-09-14T00:00:00Z</created>
    <modified>2026-09-14T00:00:00Z</modified>
    <unit name="metre" meter="1" />
    <up_axis>Z_UP</up_axis>
  </asset>
  <library_effects>
    <effect id="scout_1a1a1a_effect">
      <profile_COMMON>
        <technique sid="common">
          <lambert>
            <emission>
              <color>0 0 0 1</color>
            </emission>
            <ambient>
              <color>0.05 0.05 0.05 1</color>
            </ambient>
            <diffuse>
              <color>0.1 0.1 0.1 1</color>
            </diffuse>
          </lambert>
        </technique>
      </profile_COMMON>
    </effect>
  </library_effects>
  <library_materials>
    <material id="scout_1a1a1a" name="scout_1a1a1a">
      <instance_effect url="#scout_1a1a1a_effect" />
    </material>
  </library_materials>
  <library_geometries>
    <geometry id="geometry" name="left_shoulder_roll_link">
      <mesh>
        <source id="positions">
          <float_array id="positions_array" count="132">-0.00123731466 -0.0429906324 0.0105587179 -0.0426222198 -0.0456855036 -0.0810677111 -0.0391915254 -0.0459300727 -0.130233049 -0.0131562846 -0.0418260694 0.0165494736 -0.0433753729 -0.0419084318 -0.14501746 -0.0181053504 -0.0434972346 -0.129931301 -0.0662001595 -0.034097556 -0.0896085873 -0.00788396876 -0.0344832949 -0.145026848 0.0112898247 0.00612910558 0.0290275812 -0.00155825121 0.0103960689 0.042955488 0.00507016713 -0.0154578779 0.0359389521 -0.0610454455 -0.0376937948 -0.130650222 0.0019915239 -0.0296528768 -0.129658356 0.00531178946 0.0271421708 0.0278210733 -0.00180916127 -0.0316603929 0.0306691732 -0.01352078 -0.0160889383 0.0424130261 -0.0795270503 -0.00961999688 -0.0885719061 -0.0752540827 -0.0154383918 -0.145608261 -0.0786468238 -0.0142330443 -0.13044557 0.0115842102 -0.0076857442 -0.130252391 0.00941407867 -0.000934992742 -0.145029366 0.00713521987 -0.0367387794 0.00586626958 -0.0029474739 -0.0130882235 0.0423231348 -0.00717213145 0.0340817422 -0.145028815 0.0106653897 0.0117801884 -0.130349159 0.0118035823 -0.0245470647 0.00916409865 0.00802480243 -0.0281744394 0.0208706241 -0.0784057081 0.0134589337 -0.129689395 -0.0696682334 0.0234885346 -0.145013571 -0.000779521361 0.0329663455 -0.128868997 -0.0135099394 0.0152598051 0.0415975377 -0.0784377605 0.0127473241 -0.088504605 -0.0634047315 0.0363589041 -0.130462408 -0.0434309766 0.0419089608 -0.145013645 -0.0200367123 0.0440049209 -0.130086958 0.0114692273 -0.0111089321 0.0258341338 -0.0676530749 0.0321820267 -0.0889213756 -0.0391812809 0.0459474213 -0.130231515 0.01138636 0.0285729859 -0.00106932444 -0.00299288938 0.0347484052 0.0281795003 -0.0131764458 0.0405504592 0.0211094096 0.000488503196 0.0426842943 0.0071883467 -0.0444608629 0.045590952 -0.084578 0.010320955 0.0241646059 0.0197926499</float_array>
          <technique_common>
            <accessor source="#positions_array" count="44" stride="3">
              <param name="X" type="float" />
              <param name="Y" type="float" />
              <param name="Z" type="float" />
            </accessor>
          </technique_common>
        </source>
        <source id="normals">
          <float_array id="normals_array" count="165">0.358714342 -0.907822669 0.217214152 -0.244696304 -0.967021942 0.0706561357 -0.0978587866 -0.987106383 -0.126667678 -0.381222397 -0.823910952 0.41933313 -0.210003287 -0.921737969 -0.326033294 0.31452781 -0.933761775 -0.170766577 -0.710130453 -0.688191533 0.14868471 0.576098204 -0.759619534 -0.30180952 0.919074893 0.0774518326 0.386396825 0.36574164 0.200881675 0.908779204 0.706443667 -0.264558822 0.656464696 -0.587959945 -0.786318004 -0.18975538 0.777879536 -0.603110373 -0.176525474 0.700806856 0.479674757 0.52799803 0.286460012 -0.692537069 0.662067235 0.0125496341 -0.357148707 0.933963239 -0.885633945 -0.152065054 0.438781023 -0.954003394 -0.204785645 0.21895276 -0.732498586 -0.634116352 -0.247673735 -0.9504233 -0.293094039 -0.10388165 0.970018029 -0.200498492 -0.13735114 0.95123136 -0.0237067137 -0.307565987 0.783939362 -0.614891887 0.0857149065 0.315923333 -0.232230052 0.919924796 0.00454619387 0.00545100076 -0.999974787 0.00681744376 0.000114145623 -0.999976754 0.00192343886 0.00112296175 -0.999997497 0.941818237 0.284956098 -0.178264976 0.974566281 -0.213253289 0.0688739419 0.803860009 -0.480418295 0.350724041 -0.950197995 0.26726371 -0.160293072 -0.954125583 0.0577761196 -0.293779403 -0.808913112 0.500169992 -0.309013844 0.721807599 0.675557673 -0.150385067 0.592673957 0.743165731 -0.310551614 -0.00578141911 0.362523317 0.931956768 -0.88526839 0.144989163 0.441902786 -0.942841649 0.256245553 0.213044196 -0.618361235 0.769854605 -0.157965854 -0.00101991941 0.01093385 -0.99993968 -0.199641362 0.931482732 -0.304110527 0.275329173 0.94394207 -0.182118759 0.954748809 -0.116405934 0.273686588 -0.73000443 0.66579026 0.154326975 -0.109757937 0.98582381 -0.126903743 0.936631799 0.349685848 0.0209928993 0.271682084 0.715693891 0.643405795 -0.176395193 0.62100476 0.763700068 -0.403881401 0.828941464 0.386957109 0.443425268 0.885525525 0.138630927 -0.27184844 0.959543407 0.0733138099 0.914270818 0.335118711 0.227605507 0.0066588209 -0.00697072037 -0.999953508 0.00351790735 -0.0180791672 -0.999830365 -0.0119304676 0.0169853903 -0.999784529</float_array>
          <technique_common>
            <accessor source="#normals_array" count="55" stride="3">
              <param name="X" type="float" />
              <param name="Y" type="float" />
              <param name="Z" type="float" />
            </accessor>
          </technique_common>
        </source>
        <vertices id="vertices">
          <input semantic="POSITION" source="#positions" />
        </vertices>
        <triangles material="scout_1a1a1a" count="84">
          <input semantic="VERTEX" source="#vertices" offset="0" />
          <input semantic="NORMAL" source="#normals" offset="1" />
          <p>0 0 1 1 2 2 0 0 3 3 1 1 4 4 5 5 2 2 6 6 1 1 3 3 7 7 5 5 4 4 8 8 9 9 10 10 1 1 11 11 2 2 2 2 11 11 4 4 12 12 0 0 5 5 9 9 8 8 13 13 11 11 1 1 6 6 14 14 3 3 0 0 14 14 15 15 3 3 15 16 16 17 3 3 16 17 6 6 3 3 11 11 17 18 4 4 12 12 5 5 7 7 16 17 18 19 6 6 18 19 11 11 6 6 11 11 18 19 17 18 19 20 12 12 20 21 12 12 7 7 20 21 12 12 21 22 0 0 21 22 14 14 0 0 22 23 15 15 14 14 23 24 20 25 17 26 24 27 19 20 20 21 25 28 26 29 21 22 18 19 27 30 17 31 27 30 28 32 17 31 29 33 24 27 23 34 24 27 20 21 23 34 19 20 21 22 12 12 10 10 22 23 14 14 9 9 15 15 22 23 9 9 30 35 15 15 30 36 16 17 15 16 30 36 31 37 16 17 27 30 32 38 28 32 16 17 27 30 18 19 16 17 31 37 27 30 33 39 23 24 17 26 33 40 34 41 23 34 34 41 29 33 23 34 25 28 21 22 19 20 25 28 35 42 26 29 32 38 33 40 28 32 31 37 36 43 27 30 36 43 32 38 27 30 37 44 34 41 33 40 38 45 24 27 29 33 38 45 19 20 24 27 10 10 9 9 22 23 9 9 39 46 30 35 39 46 40 47 30 35 40 48 31 37 30 36 26 29 14 14 21 22 32 38 37 44 33 40 38 45 29 33 41 49 8 8 35 42 25 28 40 48 36 43 31 37 41 49 29 33 34 41 8 8 10 10 35 42 26 29 10 10 14 14 42 50 37 44 32 38 42 50 32 38 36 43 39 46 41 49 40 48 42 50 41 49 37 44 42 50 40 48 41 49 41 49 34 41 37 44 13 13 39 46 9 9 40 48 42 50 36 43 43 51 8 8 38 45 13 13 43 51 41 49 13 13 8 8 43 51 10 10 26 29 35 42 41 49 39 46 13 13 17 26 7 52 4 53 20 25 7 52 17 26 25 28 19 20 38 45 38 45 8 8 25 28 0 0 2 2 5 5 28 54 33 39 17 26 43 51 38 45 41 49</p>
        </triangles>
      </mesh>
    </geometry>
  </library_geometries>
  <library_visual_scenes>
    <visual_scene id="scene">
      <node id="left_shoulder_roll_link">
        <instance_geometry url="#geometry">
          <bind_material>
            <technique_common>
              <instance_material symbol="scout_1a1a1a" target="#scout_1a1a1a" />
            </technique_common>
          </bind_material>
        </instance_geometry>
      </node>
    </visual_scene>
  </library_visual_scenes>
  <scene>
    <instance_visual_scene url="#scene" />
  </scene>
</COLLADA>