<?xml version='1.0' encoding='utf-8'?>
<COLLADA xmlns="http://www.collada.org/2005/11/COLLADASchema" version="1.4.1">
  <asset>
    <created>2026-09-14T00:00:00Z</created>
    <modified>2026-09-14T00:00:00Z</modified>
    <unit name="metre" meter="1" />
    <up_axis>Z_UP</up_axis>
  </asset>
  <library_effects>
    <effect id="scout_1a1a1a_effect">
      <profile_COMMON>
        <technique sid="common">
          <lambert>
            <emission>
              <color>0 0 0 1</color>
            </emission>
            <ambient>
              <color>0.05 0.05 0.05 1</color>
            </ambient>
            <diffuse>
              <color>0.1 0.1 0.1 1</color>
            </diffuse>
          </lambert>
        </technique>
      </profile_COMMON>
    </effect>
  </library_effects>
  <library_materials>
    <material id="scout_1a1a1a" name="scout_1a1a1a">
      <instance_effect url="#scout_1a1a1a_effect" />
    </material>
  </library_materials>
  <library_geometries>
    <geometry id="geometry" name="left_elbow_roll_link">
      <mesh>
        <source id="positions">
          <float_array id="positions_array" count="66">0.0827673748 -0.0331755839 0.00224804715 0.0587405451 -0.0335018039 0.0297898669 0.0375633053 -0.0392580517 -0.0251848698 0.104356468 -0.0331488997 -0.00362683134 0.100604035 -0.0350683965 -6.01422398e-05 0.0966611654 0.0349417701 -0.0101248398 0.100448206 0.0341073945 0.00405126764 0.0917708501 0.0330778509 -0.0140486369 0.0590917803 0.0254838094 -0.0199174117 0.0630337074 -0.0281640813 0.0278914534 0.072353743 -0.0281670317 -0.0125583587 0.0332705006 -0.0274597313 -0.0380965695 -0.00283655454 -0.0332824662 0.0144112241 0.000276697101 0.0335104652 0.0149115659 0.00854186062 0.0248783194 -0.0283609051 0.0188619904 0.0265790094 -0.00898870081 0.0521367602 0.0261314642 0.0248511955 0.0939747691 0.032826934 0.0126745338 0.0883935243 -0.0328685194 -0.000100413519 0.0832173899 0.0330262519 0.00246208743 0.0883944035 0.0328763537 0.000101503021 0.0827727616 0.0335125141 -0.00226024189</float_array>
          <technique_common>
            <accessor source="#positions_array" count="22" stride="3">
              <param name="X" type="float" />
              <param name="Y" type="float" />
              <param name="Z" type="float" />
            </accessor>
          </technique_common>
        </source>
        <source id="normals">
          <float_array id="normals_array" count="210">0.0826284587 -0.994754434 0.060300611 0.0190333687 -0.997452915 0.0687413961 0.0124425059 -0.994970977 0.0993875265 0.575058579 0.222278938 0.787337124 0.583711147 -0.164794847 0.795062244 0.556205153 0.329949856 0.762737751 0.471171021 -0.864154696 -0.176732808 0.194978938 -0.980081558 -0.0377275087 0.237742603 -0.971200883 -0.0157266669 0.95778054 0.227280498 0.176068217 0.953525066 0.236473814 0.186735183 0.940386295 0.262171924 0.216655165 -0.825436473 0.0426904596 -0.56287843 -0.906837761 -0.411512613 -0.0911186114 0.0243114214 0.999647319 -0.0106847044 0.379548103 0.129439861 -0.916072369 0.156517074 0.251611978 -0.955088377 0.333362788 0.156642556 -0.929694772 0.184745014 -0.93330431 -0.307916075 0.28265366 -0.670817196 -0.685646594 0.204566002 -0.902952552 -0.377927899 0.285031438 -0.658518374 -0.696498871 -0.550407767 -0.699341297 -0.456040621 -0.0753446296 0.976970792 0.199627876 0.0426386483 0.895745397 0.442517936 0.0338819735 0.904336452 0.425473392 -0.0190160181 0.967480063 -0.252231389 -0.098248668 0.940785706 -0.324452579 -0.104928352 0.932559073 -0.34543255 -0.0967510715 0.921643376 -0.375782788 0.0202938132 0.981212556 -0.191859543 -0.147736803 0.988376439 0.0358580351 0.235564142 0.912208259 -0.335239679 0.0755303875 0.961152792 0.265481621 0.00424663536 0.999977231 -0.0052493955 0.029967349 0.997963727 0.0563057587 -0.0755029097 0.969921291 -0.231413171 0.339636594 0.937301278 0.0781873986 -0.186032519 0.927442431 -0.324410945 0.0927451998 -0.994928181 0.0389395878 0.0662137866 -0.964976847 0.253841281 0.212058455 -0.976932466 -0.0251815766 0.098177202 -0.995070994 -0.0139617762 0.130109906 -0.990440965 -0.045805499 0.139039785 -0.988111973 -0.0655947924 -0.317490816 -0.687972069 -0.652605593 0.122231022 -0.98352325 -0.133197352 0.427673429 -0.72131747 -0.544790387 0.547151029 0.0204723161 -0.836783469 0.968103886 0.20255284 0.147469342 -0.207104996 0.197332203 0.958210588 -0.185773209 0.0177267957 0.982432723 -0.194345936 0.00867994595 0.980894625 -0.202633634 0.0299151354 0.978797555 -0.211734071 0.474232137 0.854559898 0.404712111 -0.904969931 -0.131291732 -0.377034336 -0.541104317 0.751698852 0.219614297 -0.974825919 0.0385222137 -0.0326334797 -0.99265337 0.116508961 -0.138036251 -0.97779876 -0.157656416 -0.173377857 -0.965866208 -0.192464516 -0.432160318 0.505135536 0.747044504 -0.15277952 -0.838431954 0.52315414 -0.0633453205 0.986032367 0.154037595 0.0177777372 0.998298466 0.0555351116 0.0407012068 0.975496411 0.216217756 -0.105315901 0.994438767 -0.000222084753 -0.018621156 0.989545286 -0.143015414 0.581573546 -0.186107874 0.791919231 -0.0433142073 0.998848915 0.0206075162</float_array>
          <technique_common>
            <accessor source="#normals_array" count="70" stride="3">
              <param name="X" type="float" />
              <param name="Y" type="float" />
              <param name="Z" type="float" />
            </accessor>
          </technique_common>
        </source>
        <vertices id="vertices">
          <input semantic="POSITION" source="#positions" />
        </vertices>
        <triangles material="scout_1a1a1a" count="48">
          <input semantic="VERTEX" source="#vertices" offset="0" />
          <input semantic="NORMAL" source="#normals" offset="1" />
          <p>0 0 1 1 2 2 3 3 1 4 4 5 5 6 6 7 7 8 8 9 9 10 10 11 11 12 12 12 13 12 14 13 11 13 13 13 8 14 15 14 16 14 11 15 14 16 8 17 4 18 2 19 3 20 11 21 3 20 2 19 2 22 12 22 11 22 6 23 13 24 16 25 13 26 5 27 7 28 13 26 7 28 8 29 14 30 13 26 8 29 16 25 17 31 6 23 11 32 10 32 3 32 10 33 18 34 3 35 9 36 3 35 18 34 9 37 0 37 10 37 18 34 0 38 9 36 15 39 8 40 19 41 20 42 17 43 16 44 20 45 16 45 19 45 6 7 17 43 7 8 16 46 15 39 19 41 0 47 2 47 10 47 10 48 11 15 8 17 8 9 16 49 9 10 9 50 16 51 13 52 9 50 12 53 1 54 9 50 13 52 12 53 7 8 17 43 20 42 8 40 21 55 19 41 21 56 8 56 20 56 20 42 8 57 7 8 1 1 12 58 2 2 18 59 1 1 0 0 4 60 1 1 18 59 10 61 2 61 18 61 2 62 4 62 18 62 5 63 13 64 21 65 13 64 6 66 19 67 19 67 21 65 13 64 3 3 9 68 1 4 20 69 5 63 21 65 6 66 5 63 20 69 20 69 19 67 6 66</p>
        </triangles>
      </mesh>
    </geometry>
  </library_geometries>
  <library_visual_scenes>
    <visual_scene id="scene">
      <node id="left_elbow_roll_link">
        <instance_geometry url="#geometry">
          <bind_material>
            <technique_common>
              <instance_material symbol="scout_1a1a1a" target="#scout_1a1a1a" />
            </technique_common>
          </bind_material>
        </instance_geometry>
      </node>
    </visual_scene>
  </library_visual_scenes>
  <scene>
    <instance_visual_scene url="#scene" />
  </scene>
</COLLADA>