<?xml version='1.0' encoding='utf-8'?>
<COLLADA xmlns="http://www.collada.org/2005/11/COLLADASchema" version="1.4.1">
  <asset>
    <created>2026-09-14T00:00:00Z</created>
    <modified>2026-09-14T00:00:00Z</modified>
    <unit name="metre" meter="1" />
    <up_axis>Z_UP</up_axis>
  </asset>
  <library_effects>
    <effect id="scout_1a1a1a_effect">
      <profile_COMMON>
        <technique sid="common">
          <lambert>
            <emission>
              <color>0 0 0 1</color>
            </emission>
            <ambient>
              <color>0.05 0.05 0.05 1</color>
            </ambient>
            <diffuse>
              <color>0.1 0.1 0.1 1</color>
            </diffuse>
          </lambert>
        </technique>
      </profile_COMMON>
    </effect>
  </library_effects>
  <library_materials>
    <material id="scout_1a1a1a" name="scout_1a1a1a">
      <instance_effect url="#scout_1a1a1a_effect" />
    </material>
  </library_materials>
  <library_geometries>
    <geometry id="geometry" name="left_knee_link">
      <mesh>
        <source id="positions">
          <float_array id="positions_array" count="144">0.0479146801 0.0408582166 -0.126703069 0.0475321151 0.036876224 -0.0321089849 0.0492435805 0.027163934 0.0134891896 -0.0471822582 0.034176413 -0.23520416 -0.0469800532 -0.0347195603 -0.234837964 -0.0491005443 -0.0333526023 -0.181324929 0.0475840978 -0.0368804149 -0.0322534703 0.0478749499 -0.0409328379 -0.125149772 0.0492027774 -0.0272807125 0.013315957 0.0448139459 0.0436712839 -0.113329872 -0.00567054749 0.0248966832 -0.407564133 0.00688897027 0.0216804259 -0.411687255 -0.00436700508 0.0217791926 -0.410961181 0.0447972678 -0.0436769612 -0.112938583 0.0419757031 0.043566376 -0.22007364 0.0252130758 0.0277379435 0.0437618978 0.0387892984 0.027680954 0.0321350805 -0.0032324926 -0.0228587184 -0.41099605 0.0423300266 0.0365490951 -0.281879067 0.0449660979 0.0404964574 -0.224832341 0.0368901007 -0.0276956931 0.0346068293 -0.0368034057 0.0432552285 -0.11199794 0.0136783067 0.027772883 0.0445835106 0.0221571084 -0.0277308393 0.0449579619 0.0420599841 -0.0435539968 -0.219728485 0.0422912091 -0.0366474986 -0.28179872 0.04507358 -0.0404521525 -0.223391816 -0.0425080135 0.0419241004 -0.163116142 -0.0351810418 0.0436892472 -0.222234264 -0.0420248322 0.0415691137 -0.225113481 -0.014106879 0.0275408663 0.00718902238 0.0124031343 -0.0277370345 0.0436481051 -0.0368045755 -0.0432551131 -0.112001635 -0.00995589327 -0.021730125 -0.406427085 -0.0102937315 0.0223513171 -0.405489057 -0.0445994698 0.0347777233 -0.115429014 -0.0436914451 -0.0336003378 -0.106606692 -0.0346996859 0.0267226193 -0.0480833389 -0.0482758917 0.0342599191 -0.170834139 0.0123159327 -0.0253477991 -0.405786127 0.0117632961 0.0253079962 -0.407149374 -0.0140800169 -0.0275791157 0.00716078933 0.00803182833 -0.0232638512 -0.411000401 -0.00725847576 -0.025131952 -0.405365944 -0.0425080135 -0.0419241004 -0.163116142 -0.0360449255 -0.0433619544 -0.225969195 -0.0420375355 -0.0415619276 -0.225384682 -0.0340247154 -0.0269565824 -0.0463072136</float_array>
          <technique_common>
            <accessor source="#positions_array" count="48" stride="3">
              <param name="X" type="float" />
              <param name="Y" type="float" />
              <param name="Z" type="float" />
            </accessor>
          </technique_common>
        </source>
        <source id="normals">
          <float_array id="normals_array" count="267">0.903881073 0.427428633 -0.0174283292 0.969446957 0.244887918 0.0142294252 0.971552551 0.00482691405 0.236774787 -0.993052304 0.00178045931 -0.117660373 -0.992252469 -0.00357222883 -0.124186464 -0.948423922 -0.316932052 0.00679353578 0.972085476 -0.234251782 0.0132622709 0.902853787 -0.429626226 -0.016623022 0.970773757 -0.00924634747 0.239818349 0.731127143 0.681741238 0.0261154268 -0.30670023 0.838219047 -0.450914472 -0.00890031736 0.775121629 -0.631749392 -0.328648597 0.34013927 -0.881076276 0.7217924 -0.691602051 0.0265006423 0.686184406 0.726530492 -0.036116112 0.0418628901 0.990417838 0.131605685 0.173889101 0.971235633 0.162677526 0.012032209 0.993975818 0.108936936 0.36718142 0.912454247 0.180568576 -0.0545538329 -0.00309807109 -0.99850601 -0.278952867 -0.0139654679 -0.96020323 0.64707768 0.757963836 -0.082348235 0.659506321 0.748573303 -0.0684798956 0.739030898 -0.00661312276 0.673639119 -0.00441229995 0.99911958 0.0417205393 -0.42319724 0.900154173 0.103085324 -0.0407565236 0.991232336 0.125687614 0.144124284 -0.976983547 0.157261983 0.0104916329 -0.993930101 0.109512158 0.345233977 -0.920758784 0.181704983 0.018976612 -0.992123723 0.123816162 0.692697585 -0.720221996 -0.0380827114 0.666035235 -0.741613865 -0.0800374225 0.676732302 -0.73341614 -0.0642971918 -0.233408511 0.972378731 0.000105058309 -0.139073029 0.988770068 -0.0547031388 -0.55760324 0.826875627 -0.0731803924 -0.268937051 0.946929216 0.176062375 -0.879324019 0.0020366814 0.476219624 -0.806363285 0.00335763744 0.591411054 -0.802674472 0.00838969927 0.596358359 -0.437202752 -0.894793689 0.0905428752 -0.00468197791 -0.999103963 0.0420643017 -0.0511087216 -0.991449475 0.120065942 -0.977384686 -0.00322577031 -0.211444467 -0.977369428 -0.00298941974 -0.211518362 -0.929056346 0.351495683 0.115347624 -0.930760026 -0.338607311 0.137952298 -0.969089329 -0.000289250689 0.246710017 -0.701613128 0.696496606 -0.150437564 -0.809483469 0.586210668 0.0330680646 -0.948506474 0.316302687 0.0169741604 -0.621835589 0.752988577 0.215240926 0.990548372 0.000254515238 -0.137163535 0.909006357 -0.00225417851 -0.416776091 0.892918468 0.00437579956 -0.45019719 -0.271171063 -0.946267009 0.17619592 -0.0205881298 -0.930964112 -0.364529818 -0.386365533 -0.859734952 -0.334032208 -0.0331779905 -0.91829586 -0.394502074 -0.224606752 -0.974449158 -0.000804096053 -0.152108476 -0.986019671 -0.0680309162 -0.563816369 -0.823413134 -0.0640459135 0.764663994 -0.00765445037 -0.644383729 0.678964436 0.00604566699 -0.734146237 -0.835137725 -0.547902763 0.0484513938 -0.612417519 -0.760828674 0.214673102 -0.692294896 -0.706190765 -0.148399234 -0.666819215 0.547528923 -0.505533516 -0.967033863 -0.00383459008 0.254619032 -0.880897284 -0.000671682879 0.473307043 0.381208777 0.0124859372 0.924404681 0.236707702 -0.012588474 0.971499383 -0.656650245 -0.643418968 -0.393474966 -0.516120672 -0.599937558 -0.611305475 -0.576302409 -0.0111280708 -0.817160726 0.0486276075 0.014166154 0.998716533 -0.0165131148 0.964757502 -0.262621969 0.00171111675 0.99853462 -0.0540892333 -0.00092967588 -0.0153043736 -0.99988246 0.776224434 0.00151905545 0.630454838 0.00112662266 -0.998640239 -0.0521186516 0.990530849 -0.000676019059 -0.13728863 -0.00927140377 -0.981576681 -0.190843657 0.999276757 0.000650239817 -0.0380199701 0.999282002 -6.39182981e-05 -0.0378877893 0.0139698079 -0.994884312 -0.100050464 -0.133074433 -0.0136427106 0.991012156 0.0108484104 0.994698703 -0.102258474</float_array>
          <technique_common>
            <accessor source="#normals_array" count="89" stride="3">
              <param name="X" type="float" />
              <param name="Y" type="float" />
              <param name="Z" type="float" />
            </accessor>
          </technique_common>
        </source>
        <vertices id="vertices">
          <input semantic="POSITION" source="#positions" />
        </vertices>
        <triangles material="scout_1a1a1a" count="92">
          <input semantic="VERTEX" source="#vertices" offset="0" />
          <input semantic="NORMAL" source="#normals" offset="1" />
          <p>0 0 1 1 2 2 3 3 4 4 5 5 6 6 7 7 8 8 9 9 1 1 0 0 10 10 11 11 12 12 6 6 13 13 7 7 0 0 14 14 9 9 15 15 16 16 1 17 16 16 2 18 1 17 11 19 17 20 12 12 18 21 14 14 19 22 2 2 20 23 8 8 1 17 9 24 21 25 22 26 15 15 1 17 21 25 22 26 1 17 20 27 6 28 8 29 20 27 23 30 6 28 24 31 25 32 26 33 27 34 21 25 28 35 29 36 27 34 28 35 30 37 22 26 21 25 30 38 31 39 22 40 6 28 32 41 13 42 31 43 6 28 23 30 31 43 32 41 6 28 33 44 3 3 34 45 35 46 36 47 37 48 29 36 3 49 27 50 3 49 38 51 27 50 38 51 35 46 27 50 35 46 21 25 27 50 37 52 30 37 21 25 18 53 39 54 40 55 31 43 41 56 32 41 42 57 43 58 17 59 32 41 44 60 45 61 44 60 46 62 45 61 40 55 42 63 11 64 7 7 24 31 26 33 37 52 21 25 35 46 36 47 44 65 32 41 36 47 5 5 44 65 41 56 47 66 32 41 5 5 4 67 44 65 4 67 46 62 44 65 38 51 5 5 35 46 10 10 29 36 28 35 10 10 34 68 29 36 34 68 3 49 29 36 2 2 7 7 0 0 30 38 47 69 41 70 15 71 23 72 20 23 47 66 36 47 32 41 34 68 10 10 12 12 33 73 43 58 4 67 43 58 46 62 4 67 43 58 45 61 46 62 33 73 17 74 43 58 33 75 34 68 12 12 17 20 33 75 12 12 15 71 22 76 23 72 10 10 40 77 11 11 0 0 19 22 14 14 9 24 14 78 21 25 14 78 28 35 21 25 11 19 42 79 17 20 2 2 16 80 20 23 45 61 24 81 32 41 24 81 13 42 32 41 30 38 41 70 31 39 33 44 4 4 3 3 18 53 25 82 39 54 42 57 39 83 43 58 19 84 0 0 26 85 0 0 7 7 26 85 26 85 25 82 18 53 18 53 19 84 26 85 16 80 15 71 20 23 7 7 13 13 24 31 40 55 39 54 42 63 25 86 24 81 45 61 45 61 43 58 39 83 39 83 25 86 45 61 2 2 8 8 7 7 35 46 5 5 36 47 30 38 37 48 47 69 38 51 3 3 5 5 22 76 31 87 23 72 14 78 18 88 28 35 18 88 40 77 10 10 10 10 28 35 18 88 37 48 36 47 47 69</p>
        </triangles>
      </mesh>
    </geometry>
  </library_geometries>
  <library_visual_scenes>
    <visual_scene id="scene">
      <node id="left_knee_link">
        <instance_geometry url="#geometry">
          <bind_material>
            <technique_common>
              <instance_material symbol="scout_1a1a1a" target="#scout_1a1a1a" />
            </technique_common>
          </bind_material>
        </instance_geometry>
      </node>
    </visual_scene>
  </library_visual_scenes>
  <scene>
    <instance_visual_scene url="#scene" />
  </scene>
</COLLADA>