<?xml version='1.0' encoding='utf-8'?>
<COLLADA xmlns="http://www.collada.org/2005/11/COLLADASchema" version="1.4.1">
  <asset>
    <created>2026-09-14T00:00:00Z</created>
    <modified>2026-09-14T00:00:00Z</modified>
    <unit name="metre" meter="1" />
    <up_axis>Z_UP</up_axis>
  </asset>
  <library_effects>
    <effect id="scout_1a1a1a_effect">
      <profile_COMMON>
        <technique sid="common">
          <lambert>
            <emission>
              <color>0 0 0 1</color>
            </emission>
            <ambient>
              <color>0.05 0.05 0.05 1</color>
            </ambient>
            <diffuse>
              <color>0.1 0.1 0.1 1</color>
            </diffuse>
          </lambert>
        </technique>
      </profile_COMMON>
    </effect>
  </library_effects>
  <library_materials>
    <material id="scout_1a1a1a" name="scout_1a1a1a">
      <instance_effect url="#scout_1a1a1a_effect" />
    </material>
  </library_materials>
  <library_geometries>
    <geometry id="geometry" name="left_hip_pitch_link">
      <mesh>
        <source id="positions">
          <float_array id="positions_array" count="81">-0.0573690049 -0.0376273505 -0.0365293548 -0.0384645276 -0.000349587906 -0.048083283 -0.0413085967 -0.0519196689 -0.021131264 -0.0344979502 -0.00125227263 -0.0485065132 -0.0335876904 0.00240488746 -0.050734628 -0.0565481447 0.0113935107 -0.0462605841 0.0014996255 -0.0545453802 -0.0536899902 -0.037800055 -0.00193225266 0.0505683199 -0.0537855737 0.0403421856 0.0362475514 -0.0368778929 -0.0042083445 0.051710099 -0.0542024858 -0.0370511785 0.0324374028 -0.00523570227 -0.0404311158 0.057801906 -0.0353935845 -0.00624336302 0.0506845266 -0.0341317803 -0.00375734991 0.0486231968 -0.0447227731 -0.030683944 0.0419183038 -0.0184315797 0.0477104783 0.0413923785 -0.0395635702 0.0139883822 -0.0528178401 -0.0243715048 0.0526832789 -0.034774106 0.0216331854 0.0155206388 -0.0621355549 0.0408972949 -0.0632616878 0.00809840858 0.0224384721 0.0650139824 0.0117752356 0.0203554332 0.00540727982 0.0651283562 -0.0520239435 -0.00699923187 -0.00122934952 -0.0469443761 0.0260190889 0.0417514704 -0.0473138765 0.0403928794 -0.0289860014 -0.0548320897 -0.0657716766 0.0112141063 -0.0495879352 -0.0199974887 -0.0419565216</float_array>
          <technique_common>
            <accessor source="#positions_array" count="27" stride="3">
              <param name="X" type="float" />
              <param name="Y" type="float" />
              <param name="Z" type="float" />
            </accessor>
          </technique_common>
        </source>
        <source id="normals">
          <float_array id="normals_array" count="252">0.381386966 -0.444609702 -0.810472846 -0.157252997 -0.3780469 -0.91233331 -0.240148634 -0.421435326 -0.874483228 -0.315770239 -0.384663254 -0.867365718 0.363861352 0.225650132 0.903707325 0.39451322 0.170614943 0.902911901 0.458529502 0.0425907932 0.887658 -0.28549695 -0.14458476 -0.947410524 -0.300385207 -0.158462882 -0.940562725 -0.322429389 -0.179116324 -0.929492652 -0.500160217 0.537917554 0.678590059 -0.585381627 -0.323078543 -0.743605137 0.308714628 0.116712093 0.943966925 0.938871503 0.328147709 -0.104112379 0.940241337 0.302702814 -0.155939817 0.84742564 0.468562365 0.249637991 -0.625421882 -0.122313946 0.770640492 -0.567112327 -0.173347667 0.805191994 -0.458403021 -0.257374227 0.850661635 0.460234165 0.227319404 -0.858201861 0.329244196 -0.294422835 0.897169709 0.348166436 -0.260081023 0.900631964 0.185288891 -0.517745376 0.835229158 0.455512226 0.231095344 -0.859711289 0.837612331 0.474835575 0.270068079 -0.45671466 -0.0416377224 0.888638318 -0.63303256 0.0567466393 0.772042513 -0.38820079 -0.0760059506 0.918435216 -0.743180692 0.128824219 0.656572044 -0.543520808 0.0263794363 -0.838981092 -0.190210849 0.24970904 0.949455202 -0.930070698 0.245292932 -0.273495615 -0.239186659 0.142988414 0.960387468 0.0244184025 0.186505005 0.982150495 -0.242310002 0.142391503 0.959692955 0.462038904 -0.0163690038 0.886708558 -0.357478142 -0.481889337 -0.799995065 -0.335991114 -0.89795047 0.284244478 -0.0463483073 -0.985273242 0.164585859 -0.203298017 -0.951384783 0.231380314 -0.376603007 0.508835673 -0.774116516 -0.352841437 -0.349116027 -0.868113399 -0.298326671 -0.319821775 -0.899285972 0.302360713 0.326623917 0.895485818 -0.223315746 -0.087205261 -0.970837414 -0.677410185 -0.453618079 -0.579090774 -0.805972695 -0.478477448 -0.348521709 0.78732264 -0.29170981 -0.543165267 0.319694102 0.785690188 -0.529609859 0.991265178 0.130311087 0.0203079898 0.999579191 -0.0279357713 0.00781596825 0.990392625 0.136709496 0.0208076965 0.964294493 0.263060033 0.0305864383 0.999244809 0.0327320471 0.0209397357 0.995287001 -0.0358000621 -0.0901232138 0.988506675 0.0382990837 -0.146245584 0.402450621 0.25233376 -0.879977942 -0.684144437 -0.728381991 0.0374968164 0.754242837 -0.513327599 -0.409404993 -0.288152367 0.953827202 0.0847459286 -0.214555472 0.973406553 0.0802846029 -0.266445845 0.960228741 0.0834710374 -0.717022181 -0.0304211117 0.696386158 -0.998625398 0.0257816054 0.0456351936 -0.78505379 0.516776562 0.341515094 -0.925085664 0.0236427896 -0.379021764 0.0363065749 -0.991152227 0.127667829 0.9702788 0.145924136 0.193041891 0.977019966 0.196961582 0.0814750344 0.996004522 -0.0868743956 0.0206829403 0.254400223 0.640045404 0.724998176 -0.489442229 0.0356167778 -0.871308088 -0.344462991 0.928548455 -0.138358474 0.020935325 -0.988046288 -0.152729273 -0.995975316 -0.0493215919 0.0748365968 -0.996548831 -0.0599432886 0.0574210919 -0.945498765 -0.0339522846 0.323850721 -0.998244762 -0.0554931089 -0.0206864197 -0.998394668 -0.0392369516 -0.0408483557 0.993562818 0.110688843 0.0241009723 0.0379620083 -0.894233644 0.445987791 0.557617366 -0.425256103 0.712895632 -0.436830848 0.101011969 0.893854201 -0.334058523 0.938498378 0.0873252302</float_array>
          <technique_common>
            <accessor source="#normals_array" count="84" stride="3">
              <param name="X" type="float" />
              <param name="Y" type="float" />
              <param name="Z" type="float" />
            </accessor>
          </technique_common>
        </source>
        <vertices id="vertices">
          <input semantic="POSITION" source="#positions" />
        </vertices>
        <triangles material="scout_1a1a1a" count="58">
          <input semantic="VERTEX" source="#vertices" offset="0" />
          <input semantic="NORMAL" source="#normals" offset="1" />
          <p>0 0 1 1 2 2 1 1 3 3 2 2 4 4 1 5 0 6 5 7 6 8 0 9 4 10 0 10 3 10 3 3 6 11 2 2 3 12 0 12 6 12 7 13 8 14 9 15 9 16 10 17 11 18 10 19 12 19 11 19 13 20 7 21 10 22 7 23 12 23 10 23 7 13 9 15 12 24 13 25 14 26 11 27 13 25 10 28 14 26 9 29 15 29 12 29 15 30 8 30 7 30 15 31 13 31 12 31 15 32 9 33 11 34 15 35 7 21 13 20 11 36 12 36 13 36 14 37 2 38 11 39 16 40 5 40 17 40 16 41 1 1 5 42 16 41 3 3 1 1 1 5 4 4 5 43 4 44 6 8 5 7 4 45 16 41 6 46 16 41 4 45 3 3 18 47 19 47 6 47 17 48 20 48 18 48 18 49 20 50 21 51 18 49 21 51 19 52 22 53 23 54 14 55 17 56 6 56 16 56 0 57 2 57 10 57 14 58 10 58 22 58 17 59 8 60 15 61 9 16 8 62 10 17 5 63 0 63 10 63 17 64 5 64 10 64 8 65 17 65 10 65 6 66 11 39 2 38 10 67 2 68 22 53 23 54 22 53 24 69 20 70 15 70 21 70 18 71 6 71 17 71 11 72 6 72 25 72 6 73 19 73 25 73 2 74 24 75 26 76 23 77 2 74 14 78 24 69 22 53 26 79 25 80 19 80 11 80 11 81 19 81 21 81 11 34 21 82 15 32 17 59 15 61 20 83 2 74 23 77 24 75 2 68 26 79 22 53</p>
        </triangles>
      </mesh>
    </geometry>
  </library_geometries>
  <library_visual_scenes>
    <visual_scene id="scene">
      <node id="left_hip_pitch_link">
        <instance_geometry url="#geometry">
          <bind_material>
            <technique_common>
              <instance_material symbol="scout_1a1a1a" target="#scout_1a1a1a" />
            </technique_common>
          </bind_material>
        </instance_geometry>
      </node>
    </visual_scene>
  </library_visual_scenes>
  <scene>
    <instance_visual_scene url="#scene" />
  </scene>
</COLLADA>