<?xml version='1.0' encoding='utf-8'?>
<COLLADA xmlns="http://www.collada.org/2005/11/COLLADASchema" version="1.4.1">
  <asset>
    <created>2026-09-14T00:00:00Z</created>
    <modified>2026-09-14T00:00:00Z</modified>
    <unit name="metre" meter="1" />
    <up_axis>Z_UP</up_axis>
  </asset>
  <library_effects>
    <effect id="scout_1a1a1a_effect">
      <profile_COMMON>
        <technique sid="common">
          <lambert>
            <emission>
              <color>0 0 0 1</color>
            </emission>
            <ambient>
              <color>0.05 0.05 0.05 1</color>
            </ambient>
            <diffuse>
              <color>0.1 0.1 0.1 1</color>
            </diffuse>
          </lambert>
        </technique>
      </profile_COMMON>
    </effect>
  </library_effects>
  <library_materials>
    <material id="scout_1a1a1a" name="scout_1a1a1a">
      <instance_effect url="#scout_1a1a1a_effect" />
    </material>
  </library_materials>
  <library_geometries>
    <geometry id="geometry" name="link15_R">
      <mesh>
        <source id="positions">
          <float_array id="positions_array" count="63">-0.00923409127 -0.00290276948 -0.000428020634 -0.00569356699 -0.00779726868 0.00109484512 -0.00577475224 0.0336537696 -0.000150164575 -0.00887323823 -0.00428405404 -0.0123357605 -0.0103004016 0.00774174416 -0.00411260128 -0.00537130749 0.0344896466 -0.0119380774 0.00613362947 0.0294723604 -0.0122275669 0.00503592333 -0.00912381057 -0.0119411657 0.00250593433 0.0284014419 -0.0130875651 0.00447883829 0.0289545953 0.000949699257 -0.00258466788 -0.00938014966 -0.0131462635 -0.00312128826 0.0355336629 -3.13078599e-05 -0.00257336535 0.0355371833 -0.0119711524 0.00424874015 -0.00976031274 0.000120406054 0.00790918991 0.0331189595 -0.00170671369 0.00886030309 0.0343925953 -0.00629268773 0.00826731045 0.033137463 -0.00975709315 0.00934883207 -0.00431729993 -0.0108254226 0.00923417509 -0.00518475333 -0.00133757992 0.0114982752 -7.90971826e-05 -0.00608096877 0.00914538838 -0.0059074224 -0.00981682446</float_array>
          <technique_common>
            <accessor source="#positions_array" count="21" stride="3">
              <param name="X" type="float" />
              <param name="Y" type="float" />
              <param name="Z" type="float" />
            </accessor>
          </technique_common>
        </source>
        <source id="normals">
          <float_array id="normals_array" count="123">-0.362933218 0.0272648595 0.931416214 -0.0519574657 -0.0028563207 0.998645186 -0.100571737 0.0404472686 0.994107306 -0.891156018 -0.44592914 -0.083595179 -0.993002176 0.0658135861 0.0980572626 -0.984305024 0.158965528 -0.0766392872 -0.985418618 0.167807177 0.0281231031 -0.939619005 -0.334639609 0.0716410503 0.441119969 0.162887275 -0.882542312 0.193745226 -0.0178809874 -0.980888903 0.0733982474 0.0863052011 -0.993561327 -0.115849853 0.0174893383 -0.993112743 -0.091439724 0.0692496747 -0.993399858 0.261606574 0.122119777 0.957417727 -0.531015396 -0.846566737 0.0367065445 0.0427534729 -0.00420831284 -0.999076784 -0.320775121 -0.94686693 -0.0233732965 -0.0116479797 0.134293318 0.990873158 0.0284768976 0.190541863 -0.981265962 0.172635064 -0.0221196245 0.984737456 0.247756749 0.919021845 0.306619436 0.217111975 0.975695014 -0.0296929311 -0.24184449 0.96860522 0.057577718 -0.12004251 0.991822183 -0.0433415994 0.272048891 0.888887584 -0.368603081 0.714078426 -0.16497308 -0.680349827 0.494371146 -0.00538881915 0.869234204 0.757207394 0.174338132 0.629478455 -0.116510056 -0.992687762 0.0315661281 0.0414662249 -0.997890353 -0.0499535426 0.270487338 0.424851835 -0.863908291 0.997662783 -0.0674585924 0.010876717 0.933315694 0.0645972043 -0.35319823 0.99687165 0.0764104873 0.0202077571 0.784251451 -0.618842959 0.0445307642 0.659665167 -0.750792146 0.0339560322 0.802114308 -0.549416244 -0.233996645 0.664274812 -0.459131569 -0.589861989 0.616754174 -0.787154794 -0.00128733122 -0.390079677 0.920754313 -0.00702118501 -0.578805149 0.814582288 0.0379521437</float_array>
          <technique_common>
            <accessor source="#normals_array" count="41" stride="3">
              <param name="X" type="float" />
              <param name="Y" type="float" />
              <param name="Z" type="float" />
            </accessor>
          </technique_common>
        </source>
        <vertices id="vertices">
          <input semantic="POSITION" source="#positions" />
        </vertices>
        <triangles material="scout_1a1a1a" count="38">
          <input semantic="VERTEX" source="#vertices" offset="0" />
          <input semantic="NORMAL" source="#normals" offset="1" />
          <p>0 0 1 1 2 2 3 3 4 4 5 5 2 6 4 4 0 7 5 5 4 4 2 6 6 8 7 9 8 10 8 10 3 11 5 12 1 1 9 13 2 2 1 14 0 7 3 3 10 15 3 11 8 10 10 16 1 14 3 3 9 13 11 17 2 2 5 12 12 18 8 10 1 1 13 19 9 13 14 20 15 21 11 22 15 21 12 23 11 22 15 21 16 24 12 23 7 9 10 15 8 10 6 8 8 10 12 18 17 25 7 9 6 8 13 19 18 26 9 13 9 13 14 27 11 17 13 28 10 16 7 29 16 30 6 8 12 18 13 28 1 14 10 16 19 31 16 32 15 33 18 34 13 35 20 36 17 25 20 36 7 37 19 31 15 33 14 27 19 31 17 25 16 32 18 26 14 27 9 13 18 26 19 31 14 27 18 34 20 36 19 31 20 36 17 25 19 31 17 25 6 8 16 32 7 38 20 36 13 35 5 39 11 22 12 23 5 39 2 40 11 22 0 7 4 4 3 3</p>
        </triangles>
      </mesh>
    </geometry>
  </library_geometries>
  <library_visual_scenes>
    <visual_scene id="scene">
      <node id="link15_R">
        <instance_geometry url="#geometry">
          <bind_material>
            <technique_common>
              <instance_material symbol="scout_1a1a1a" target="#scout_1a1a1a" />
            </technique_common>
          </bind_material>
        </instance_geometry>
      </node>
    </visual_scene>
  </library_visual_scenes>
  <scene>
    <instance_visual_scene url="#scene" />
  </scene>
</COLLADA>