<?xml version='1.0' encoding='utf-8'?>
<COLLADA xmlns="http://www.collada.org/2005/11/COLLADASchema" version="1.4.1">
  <asset>
    <created>2026-09-14T00:00:00Z</created>
    <modified>2026-09-14T00:00:00Z</modified>
    <unit name="metre" meter="1" />
    <up_axis>Z_UP</up_axis>
  </asset>
  <library_effects>
    <effect id="scout_1a1a1a_effect">
      <profile_COMMON>
        <technique sid="common">
          <lambert>
            <emission>
              <color>0 0 0 1</color>
            </emission>
            <ambient>
              <color>0.05 0.05 0.05 1</color>
            </ambient>
            <diffuse>
              <color>0.1 0.1 0.1 1</color>
            </diffuse>
          </lambert>
        </technique>
      </profile_COMMON>
    </effect>
  </library_effects>
  <library_materials>
    <material id="scout_1a1a1a" name="scout_1a1a1a">
      <instance_effect url="#scout_1a1a1a_effect" />
    </material>
  </library_materials>
  <library_geometries>
    <geometry id="geometry" name="link20_R">
      <mesh>
        <source id="positions">
          <float_array id="positions_array" count="57">-0.00349589204 0.0381164253 -0.0104293926 -0.00201219553 -0.0047768415 -0.00807911996 -0.00560032437 0.0382838994 -0.00452663517 -0.00345566426 -0.00191173668 -0.00235422933 -0.00321583846 0.0389961749 0.000382512895 0.00306289271 0.000961990387 -0.0114535019 0.00456754817 0.000328577065 0.00172212417 -0.00321058137 0.0433637723 -0.00126022275 -0.00335248653 0.0434016325 -0.00861809775 0.00470253266 -0.00835394859 -0.00181453093 -0.00157578359 0.0453592949 -0.00553521328 0.00147016114 0.0443217009 -0.00810822193 0.00706873229 0.0244916957 -0.00921010971 0.00570867909 -0.00791695807 -0.00790063106 0.00669180695 0.0240714531 -0.000532501901 0.00176973245 0.0445163399 -0.00220202887 0.00977914408 0.00271552079 -0.00959686842 0.0110501135 0.00366673945 -0.00224960409 0.00846676156 0.0237734914 -0.00377749209</float_array>
          <technique_common>
            <accessor source="#positions_array" count="19" stride="3">
              <param name="X" type="float" />
              <param name="Y" type="float" />
              <param name="Z" type="float" />
            </accessor>
          </technique_common>
        </source>
        <source id="normals">
          <float_array id="normals_array" count="138">-0.941070259 0.0341988392 -0.336477578 -0.971420109 -0.0620438419 -0.229114726 -0.992971957 0.108756535 0.0466767736 -0.974771142 -0.0635731891 -0.21396178 -0.901272357 0.0663861856 0.428136617 -0.897861481 -0.0241465159 0.439615369 -0.500822008 -0.0646178424 -0.863134861 -0.0715826452 -0.149331927 -0.986192644 -0.291790932 -0.279764712 -0.914652824 -0.402945846 -0.187068418 0.895901799 -0.439428657 -0.0573958419 0.896441936 -0.401874244 -0.190475687 0.895665169 -0.906768262 0.383030474 0.176235512 -0.913491011 0.387919903 -0.122688055 -0.479207516 -0.877612352 0.0125203617 -0.613016665 -0.7574929 0.224532887 -0.544187784 -0.831951499 0.108242184 -0.754269063 0.656320751 0.0179243088 -0.341081858 -0.359157383 0.868716955 0.0383472815 0.323030382 -0.945611358 0.178822204 0.215949863 -0.95988971 0.214879364 0.161995828 -0.963111758 0.209838092 0.0692055449 -0.975283861 -0.371140212 -0.919795871 -0.127398953 0.54719913 -0.150867656 0.823293388 0.603014648 0.152455062 0.783026695 0.249938145 0.190920278 0.949252546 0.234184146 0.230677053 0.944428861 0.0951262787 0.350345135 0.931777477 0.0512433834 -0.357819408 -0.932383716 0.282996625 -0.0712021813 -0.956474364 0.0413394719 0.977726102 0.205773592 0.0306145176 0.996483028 -0.0780019835 -0.141450986 0.916660547 0.373798132 0.092979528 0.956724644 -0.275740415 -0.114171095 0.867122471 -0.484833568 0.983577371 -0.134048179 -0.120857865 0.880349576 -0.460802674 0.112452023 0.898844719 -0.43603304 0.0441962816 0.977253854 -0.145251706 -0.154521361 0.57180959 -0.0487056673 0.818939269 0.604546189 -0.29241544 0.740956903 0.971977949 0.203834593 0.117091008 0.951465309 0.307686538 -0.00654000556 0.948598921 0.305860996 -0.0812963694 0.953601718 0.207717061 -0.217939064</float_array>
          <technique_common>
            <accessor source="#normals_array" count="46" stride="3">
              <param name="X" type="float" />
              <param name="Y" type="float" />
              <param name="Z" type="float" />
            </accessor>
          </technique_common>
        </source>
        <vertices id="vertices">
          <input semantic="POSITION" source="#positions" />
        </vertices>
        <triangles material="scout_1a1a1a" count="34">
          <input semantic="VERTEX" source="#vertices" offset="0" />
          <input semantic="NORMAL" source="#normals" offset="1" />
          <p>0 0 1 1 2 2 1 1 3 3 2 2 4 4 2 2 3 5 0 6 5 7 1 8 6 9 4 10 3 11 7 12 2 2 4 4 8 13 0 0 2 2 9 14 3 15 1 16 10 17 8 13 7 12 9 18 6 9 3 11 8 19 11 20 0 21 12 22 5 7 0 21 1 16 13 23 9 14 6 24 14 25 4 26 15 27 7 28 4 26 13 29 1 8 5 7 11 20 12 22 0 21 16 30 5 7 12 22 14 25 15 27 4 26 15 31 10 32 7 33 10 32 11 34 8 35 16 30 13 29 5 7 17 36 9 37 13 38 16 39 17 36 13 38 11 34 10 32 15 31 17 40 6 24 9 41 17 40 14 25 6 24 18 42 15 43 14 25 11 44 18 42 12 45 16 39 18 42 17 36 17 40 18 42 14 25 11 44 15 43 18 42 16 39 12 45 18 42 2 2 7 12 8 13</p>
        </triangles>
      </mesh>
    </geometry>
  </library_geometries>
  <library_visual_scenes>
    <visual_scene id="scene">
      <node id="link20_R">
        <instance_geometry url="#geometry">
          <bind_material>
            <technique_common>
              <instance_material symbol="scout_1a1a1a" target="#scout_1a1a1a" />
            </technique_common>
          </bind_material>
        </instance_geometry>
      </node>
    </visual_scene>
  </library_visual_scenes>
  <scene>
    <instance_visual_scene url="#scene" />
  </scene>
</COLLADA>