<?xml version='1.0' encoding='utf-8'?>
<COLLADA xmlns="http://www.collada.org/2005/11/COLLADASchema" version="1.4.1">
  <asset>
    <created>2026-09-14T00:00:00Z</created>
    <modified>2026-09-14T00:00:00Z</modified>
    <unit name="metre" meter="1" />
    <up_axis>Z_UP</up_axis>
  </asset>
  <library_effects>
    <effect id="scout_1a1a1a_effect">
      <profile_COMMON>
        <technique sid="common">
          <lambert>
            <emission>
              <color>0 0 0 1</color>
            </emission>
            <ambient>
              <color>0.05 0.05 0.05 1</color>
            </ambient>
            <diffuse>
              <color>0.1 0.1 0.1 1</color>
            </diffuse>
          </lambert>
        </technique>
      </profile_COMMON>
    </effect>
  </library_effects>
  <library_materials>
    <material id="scout_1a1a1a" name="scout_1a1a1a">
      <instance_effect url="#scout_1a1a1a_effect" />
    </material>
  </library_materials>
  <library_geometries>
    <geometry id="geometry" name="link13_R">
      <mesh>
        <source id="positions">
          <float_array id="positions_array" count="60">-0.00446539372 0.00198794575 0.000879122701 0.0234498624 0.012455075 0.000392192713 0.0178666059 0.0138505986 -0.00146530499 0.0229569841 0.0131797437 -0.0148962764 -0.0041748411 0.00232295389 -0.0152316215 0.0154113062 0.0135284113 -0.0114577496 0.00170680217 0.00848006085 -0.0107289618 -0.0120903039 -0.0120384358 0.000232164573 -0.0122319609 -0.0110248588 -0.0147191267 -0.00568427658 -0.0160149708 -0.0145080788 -0.0102560688 -0.00452372571 0.000396749063 0.00251494721 -0.0164655671 0.000652895367 -0.00991326198 -0.00398801547 -0.0147957122 0.00159506931 0.0082511818 -0.00268273079 0.00206486206 -0.0163566358 -0.0151960868 -0.00242036232 -0.0167827103 -0.00016018514 0.0250122305 0.000954060873 -0.0119370334 0.0246620886 -3.33604949e-05 -0.00263782241 0.00942836422 -0.0141745871 -0.0120965596 0.00911646616 -0.0144371474 -0.00236512278</float_array>
          <technique_common>
            <accessor source="#positions_array" count="20" stride="3">
              <param name="X" type="float" />
              <param name="Y" type="float" />
              <param name="Z" type="float" />
            </accessor>
          </technique_common>
        </source>
        <source id="normals">
          <float_array id="normals_array" count="144">-0.0527594574 0.104317114 0.993143678 0.0614702739 0.0917028487 0.993887305 -0.176511392 0.499867141 0.847924829 0.230179295 0.972379625 0.0386698768 0.0978579596 0.995120406 -0.0126160448 -0.0145119149 0.999440551 0.0301333722 -0.292255193 0.722035646 -0.627097607 -0.273994982 0.700756848 -0.658685505 -0.270568043 0.69668895 -0.664392591 -0.302674145 0.73386246 -0.608140051 -0.495329142 -0.868496895 0.019030571 -0.604464114 -0.795174122 -0.0481793992 -0.325421602 -0.945463359 -0.0141361561 -0.0806068182 -0.00215534563 0.996743619 -0.0524155572 -0.0536869504 0.997181177 0.0823763236 -0.153233543 0.984750509 -0.154985189 0.987915397 0.00165975268 -0.0549259745 -0.0342159718 -0.997904003 -0.0998391286 0.0220711473 -0.994758785 -0.0127694784 -0.00200095051 -0.999916494 -0.563948452 0.825630009 0.0172388833 -0.570446551 0.821189642 0.0154377688 0.0837446377 -0.11620941 -0.98968792 -0.85986042 0.510515451 -0.00374796824 -0.733675718 0.679491758 0.00329541066 -0.732280135 0.680998743 0.00254750345 0.166319013 -0.107694119 -0.980173409 -0.0944541544 -0.165454596 -0.98168385 -0.131068215 -0.344038695 0.929762602 0.991919637 0.126642257 0.00756175024 0.986815095 0.160027981 -0.0242282171 0.991634667 0.128965139 0.00535879564 -0.956862271 0.290541947 0.000119366909 -0.880441248 0.474027246 0.0110192997 0.287503064 -0.204977885 -0.935588598 0.302333444 -0.221834466 0.927029669 0.995266497 0.0853182822 0.0465339981 0.691910446 -0.721068978 -0.036323525 0.481755406 -0.876194596 -0.0139536401 0.695945859 -0.716361046 -0.0498612933 0.467011571 -0.884206533 -0.00888832379 0.456895471 -0.462631643 -0.759748936 0.153147593 -0.987627268 -0.0337378569 -0.142579079 -0.989570737 -0.0205160752 0.482357413 -0.50707227 0.714289188 0.102238879 -0.994712174 -0.00974028744 -0.280653328 0.665104508 0.692004085 -0.971297026 0.236527309 0.025237266</float_array>
          <technique_common>
            <accessor source="#normals_array" count="48" stride="3">
              <param name="X" type="float" />
              <param name="Y" type="float" />
              <param name="Z" type="float" />
            </accessor>
          </technique_common>
        </source>
        <vertices id="vertices">
          <input semantic="POSITION" source="#positions" />
        </vertices>
        <triangles material="scout_1a1a1a" count="36">
          <input semantic="VERTEX" source="#vertices" offset="0" />
          <input semantic="NORMAL" source="#normals" offset="1" />
          <p>0 0 1 1 2 2 1 3 3 4 2 5 4 6 5 7 3 8 4 6 6 9 5 7 7 10 8 11 9 12 10 13 7 14 0 0 11 15 0 0 7 14 2 5 3 4 5 16 8 17 12 18 4 19 13 20 5 16 6 21 4 19 14 22 8 17 12 23 0 24 4 25 14 22 4 19 3 26 9 27 8 17 14 22 15 28 11 15 7 14 16 29 3 30 1 31 8 32 10 33 12 23 3 26 16 34 14 22 17 35 1 1 11 15 17 36 16 29 1 31 17 37 18 38 16 39 19 40 18 38 17 37 18 41 14 22 16 34 9 12 11 42 15 43 19 44 17 35 11 15 14 45 11 42 9 12 18 38 11 42 14 45 18 38 19 40 11 42 11 15 1 1 0 0 15 43 7 10 9 12 13 20 2 5 5 16 12 23 10 33 0 24 0 0 2 2 13 46 7 47 10 33 8 32 0 24 13 20 4 25 13 20 6 21 4 25</p>
        </triangles>
      </mesh>
    </geometry>
  </library_geometries>
  <library_visual_scenes>
    <visual_scene id="scene">
      <node id="link13_R">
        <instance_geometry url="#geometry">
          <bind_material>
            <technique_common>
              <instance_material symbol="scout_1a1a1a" target="#scout_1a1a1a" />
            </technique_common>
          </bind_material>
        </instance_geometry>
      </node>
    </visual_scene>
  </library_visual_scenes>
  <scene>
    <instance_visual_scene url="#scene" />
  </scene>
</COLLADA>