<?xml version='1.0' encoding='utf-8'?>
<COLLADA xmlns="http://www.collada.org/2005/11/COLLADASchema" version="1.4.1">
  <asset>
    <created>2026-09-14T00:00:00Z</created>
    <modified>2026-09-14T00:00:00Z</modified>
    <unit name="metre" meter="1" />
    <up_axis>Z_UP</up_axis>
  </asset>
  <library_effects>
    <effect id="scout_1a1a1a_effect">
      <profile_COMMON>
        <technique sid="common">
          <lambert>
            <emission>
              <color>0 0 0 1</color>
            </emission>
            <ambient>
              <color>0.05 0.05 0.05 1</color>
            </ambient>
            <diffuse>
              <color>0.1 0.1 0.1 1</color>
            </diffuse>
          </lambert>
        </technique>
      </profile_COMMON>
    </effect>
  </library_effects>
  <library_materials>
    <material id="scout_1a1a1a" name="scout_1a1a1a">
      <instance_effect url="#scout_1a1a1a_effect" />
    </material>
  </library_materials>
  <library_geometries>
    <geometry id="geometry" name="link12_L">
      <mesh>
        <source id="positions">
          <float_array id="positions_array" count="69">0.0404184014 -0.00734139094 -0.00236262567 0.0500149764 -0.0131859407 -0.0116107902 0.00900898222 0.0109828385 -0.00151488045 0.00914894138 0.0110045597 -0.0144546954 0.0017177955 0.0087351324 -0.0163981318 0.047881335 -0.0153555814 -0.0155102015 -0.000211489896 0.00655312883 0.000705198501 0.0540129282 -0.0182958469 -0.00251629623 0.0436502583 -0.0166758429 0.00058066292 0.0383297578 -0.0311151855 -0.0179559663 -0.00377941667 0.00129725714 -0.0171046276 0.045927316 -0.0381488241 -0.0132378945 0.0412871502 -0.0399574265 -0.00229281164 0.0381956995 -0.0390791781 -0.0138428397 0.0234797597 -0.0336361155 -0.0127617 0.0593252853 -0.0246069301 -0.0125638368 0.0592214279 -0.0245762281 -0.00333371246 -0.00372089469 0.0012354271 0.00104376394 0.0380854905 -0.0325150639 0.00193763385 -0.00108713389 -0.0165033042 -0.00200498477 -0.00142553751 -0.0154477814 -0.0143115493 -0.000707941363 -0.018442221 -0.0072001284 0.0252748989 -0.0344490893 -0.00342569244</float_array>
          <technique_common>
            <accessor source="#positions_array" count="23" stride="3">
              <param name="X" type="float" />
              <param name="Y" type="float" />
              <param name="Z" type="float" />
            </accessor>
          </technique_common>
        </source>
        <source id="normals">
          <float_array id="normals_array" count="162">0.531420469 0.846953392 0.016192941 0.649577439 0.756697357 0.0738795549 0.508355975 0.861140847 0.00326050166 -0.291706264 0.95650667 -0.0015496735 -0.605888247 0.795430303 0.0137865115 -0.385356605 0.921432316 0.0496260636 0.515189409 0.597580791 -0.614391625 0.357180506 0.357296646 -0.862995505 0.17639102 0.296761006 -0.938519657 -0.694053829 0.719795763 0.0135393897 0.727615416 0.683002889 0.063896738 0.213921681 0.191413745 0.957913518 0.254942268 0.36996457 0.893381596 0.132005081 0.23823072 0.962195814 0.059983287 0.117900737 0.99121207 0.0377806909 -0.227517232 -0.973040879 0.0809064433 0.141805038 -0.986582756 -0.0316321701 -0.0148457205 -0.999389291 0.127159804 -0.985874891 -0.109000199 -0.18014802 -0.983022749 -0.034828376 -0.15520452 -0.987313092 -0.0335324518 -0.237694278 -0.412135988 -0.87957114 -0.0412636511 -0.457939506 -0.888025165 0.307287127 0.178825483 0.934663594 0.585568249 0.52863276 -0.614538193 0.275527477 -0.0964268446 -0.956444681 0.509020269 0.860726476 0.00695049576 0.288502753 -0.0525799654 0.956034243 -0.825568736 0.56410557 -0.01487152 0.0245776512 -0.292404771 0.955978751 0.249762475 -0.338707685 -0.907136023 -0.98965621 -0.143259466 0.00757208606 -0.987442851 -0.157735214 0.00873035379 -0.989085734 -0.14731659 0.00268755131 -0.171786338 -0.21212168 -0.962025881 -0.448411137 -0.893776715 -0.00951718632 -0.562071741 -0.827085733 -0.00212650327 -0.555958867 -0.784647703 -0.274295002 -0.976827085 -0.213860512 0.00851798337 -0.988850296 -0.148207352 0.0144796232 0.347334445 -0.346005112 0.871572852 0.683371723 -0.719257772 0.125185281 0.665888667 -0.74380976 0.0577874221 0.651307821 -0.758749664 0.00985209178 0.694846153 -0.696395457 0.179505438 -0.272207558 -0.491315931 0.827352226 -0.187650517 -0.223575398 0.956452489 -0.0422220826 -0.0258479118 0.998773813 -0.41604346 -0.909250319 0.0131054418 -0.533521175 -0.804417551 0.261280566 0.773704112 0.633449435 0.0111280093 -0.247731864 -0.55711931 0.792620361 -0.804395139 0.594076693 0.00461783679 0.775345325 0.631502748 0.0066239778</float_array>
          <technique_common>
            <accessor source="#normals_array" count="54" stride="3">
              <param name="X" type="float" />
              <param name="Y" type="float" />
              <param name="Z" type="float" />
            </accessor>
          </technique_common>
        </source>
        <vertices id="vertices">
          <input semantic="POSITION" source="#positions" />
        </vertices>
        <triangles material="scout_1a1a1a" count="42">
          <input semantic="VERTEX" source="#vertices" offset="0" />
          <input semantic="NORMAL" source="#normals" offset="1" />
          <p>0 0 1 1 2 2 3 3 4 4 2 5 1 6 5 7 3 8 6 9 2 5 4 4 7 10 1 1 0 0 8 11 0 12 2 13 6 14 8 11 2 13 5 7 9 15 4 16 9 15 10 17 4 16 11 18 12 19 13 20 14 21 9 15 13 22 7 23 0 12 8 11 15 24 5 7 1 6 9 15 5 7 15 25 1 1 3 26 2 2 16 27 7 23 8 11 17 28 6 9 4 4 8 11 18 29 16 27 11 30 9 15 15 25 10 31 19 32 17 33 20 34 10 17 9 15 14 35 21 36 20 37 21 38 19 32 20 39 18 29 12 40 16 27 12 41 15 42 16 43 12 41 11 44 15 42 4 16 3 8 5 7 13 22 9 15 11 30 22 45 18 29 19 46 17 47 19 46 18 29 6 14 17 47 18 29 21 36 22 48 19 49 14 21 20 34 9 15 7 10 16 50 1 1 14 35 22 48 21 36 12 51 18 29 22 45 13 20 12 19 14 35 8 11 6 14 18 29 10 52 17 28 4 4 10 31 20 39 19 32 16 50 15 53 1 1 12 19 22 48 14 35</p>
        </triangles>
      </mesh>
    </geometry>
  </library_geometries>
  <library_visual_scenes>
    <visual_scene id="scene">
      <node id="link12_L">
        <instance_geometry url="#geometry">
          <bind_material>
            <technique_common>
              <instance_material symbol="scout_1a1a1a" target="#scout_1a1a1a" />
            </technique_common>
          </bind_material>
        </instance_geometry>
      </node>
    </visual_scene>
  </library_visual_scenes>
  <scene>
    <instance_visual_scene url="#scene" />
  </scene>
</COLLADA>