<?xml version='1.0' encoding='utf-8'?>
<COLLADA xmlns="http://www.collada.org/2005/11/COLLADASchema" version="1.4.1">
  <asset>
    <created>2026-09-14T00:00:00Z</created>
    <modified>2026-09-14T00:00:00Z</modified>
    <unit name="metre" meter="1" />
    <up_axis>Z_UP</up_axis>
  </asset>
  <library_effects>
    <effect id="scout_1a1a1a_effect">
      <profile_COMMON>
        <technique sid="common">
          <lambert>
            <emission>
              <color>0 0 0 1</color>
            </emission>
            <ambient>
              <color>0.05 0.05 0.05 1</color>
            </ambient>
            <diffuse>
              <color>0.1 0.1 0.1 1</color>
            </diffuse>
          </lambert>
        </technique>
      </profile_COMMON>
    </effect>
  </library_effects>
  <library_materials>
    <material id="scout_1a1a1a" name="scout_1a1a1a">
      <instance_effect url="#scout_1a1a1a_effect" />
    </material>
  </library_materials>
  <library_geometries>
    <geometry id="geometry" name="link19_L">
      <mesh>
        <source id="positions">
          <float_array id="positions_array" count="63">-0.00885648746 0.00422073808 -0.0123378141 -0.00992663763 -0.00734204566 -0.0092056375 -0.00997579563 -0.00726214284 -0.0029029625 -0.00555540249 -0.0336993709 -0.000116730844 -0.00538115203 -0.0341335125 -0.0118884351 -0.00242068619 -0.0355148464 -0.0119530978 0.00870143156 -0.033628352 -0.0091928076 -0.00287048565 -0.0355720334 -5.28776545e-05 -0.00937223062 0.00215224572 -0.000673248898 -0.00593194459 0.00783042423 0.00110463297 0.00522729382 -0.0291415919 -0.0128252264 0.00473919697 -0.027495062 0.00101799634 -0.00287701329 0.00933591276 -0.0131801739 0.00839914568 -0.0330798216 -0.00197039265 0.0112761669 0.00035151263 -0.00502474094 0.00468029222 0.00947984215 6.33223171e-05 0.00509467721 0.00922173727 -0.0118052652 0.0101298308 0.000816740387 -0.0102454666 0.00879791845 0.00587051734 -0.0106877098 0.00932808686 0.00368481618 -0.00110320433 0.00908940379 0.00591779593 -0.00195564982</float_array>
          <technique_common>
            <accessor source="#positions_array" count="21" stride="3">
              <param name="X" type="float" />
              <param name="Y" type="float" />
              <param name="Z" type="float" />
            </accessor>
          </technique_common>
        </source>
        <source id="normals">
          <float_array id="normals_array" count="114">-0.873025239 0.486802399 -0.0291601699 -0.961832464 -0.0563942529 -0.267764777 -0.966267526 -0.0585216731 0.250803262 -0.606253922 -0.124962308 0.785392046 -0.813989818 -0.080497086 -0.575274527 -0.985195339 -0.16134803 -0.057939671 -0.150251031 -0.988592863 -0.0104300659 0.197697565 -0.979361475 0.0420327447 -0.221811116 -0.974790931 0.0241340268 -0.469896764 -0.0363353603 0.881973207 -0.0624417663 0.0045792968 0.998038113 -0.54256016 0.83895427 0.0422403291 -0.951775551 0.3065494 0.0122785224 -0.107272357 -0.0307662319 -0.993753552 0.326834917 -0.150126979 -0.933081388 -0.0689604059 -0.0405111983 -0.996796548 -0.449083567 -0.893390417 -0.013321423 -0.572284162 -0.819766581 0.0217619315 0.268985868 -0.100820281 0.957852721 -0.334071457 0.942432761 -0.0147220278 0.0458326079 0.000438363 -0.998949051 0.228659272 -0.969941556 0.0832363963 0.0126741333 -0.143148422 0.98962009 0.835320473 -0.220825329 -0.503463864 0.0261026565 -0.166214958 -0.985743999 0.990117431 0.0941765904 0.103914842 0.78539741 -0.183842465 0.591060758 0.210249186 0.0637942776 0.975564241 0.220234498 0.0266856961 -0.975081861 0.79146564 0.0728505179 -0.606856585 0.320653349 0.0251056813 -0.94686383 -0.0933476314 0.99472791 0.0424575992 0.822184324 0.5656358 -0.0637889802 0.694902658 0.12577498 0.708019078 0.658401132 0.752525568 -0.0146027058 0.629830539 0.776715875 0.00509906188 0.798224509 0.511435091 0.318232298 0.0179583076 0.999615848 -0.0211114939</float_array>
          <technique_common>
            <accessor source="#normals_array" count="38" stride="3">
              <param name="X" type="float" />
              <param name="Y" type="float" />
              <param name="Z" type="float" />
            </accessor>
          </technique_common>
        </source>
        <vertices id="vertices">
          <input semantic="POSITION" source="#positions" />
        </vertices>
        <triangles material="scout_1a1a1a" count="38">
          <input semantic="VERTEX" source="#vertices" offset="0" />
          <input semantic="NORMAL" source="#normals" offset="1" />
          <p>0 0 1 1 2 2 3 3 2 2 1 1 0 4 4 5 1 1 5 6 6 7 7 8 8 9 2 2 3 3 9 10 8 9 3 3 9 11 0 0 8 12 0 13 10 14 4 15 4 16 7 8 3 17 11 18 9 10 3 3 9 11 12 19 0 0 12 20 10 14 0 13 6 7 13 21 7 8 11 18 3 3 7 22 10 14 6 23 5 24 6 23 14 25 13 26 15 27 9 10 11 18 16 28 10 14 12 20 17 29 14 25 6 23 13 26 11 18 7 22 16 28 18 30 10 14 18 30 17 29 10 14 9 11 15 31 12 19 18 32 14 25 17 29 19 33 15 27 11 18 16 34 15 35 20 36 5 24 4 15 10 14 18 32 20 36 14 25 19 33 20 36 15 27 17 29 6 23 10 14 14 25 19 33 13 26 20 36 19 33 14 25 13 26 19 33 11 18 0 0 2 2 8 12 1 1 4 5 3 3 4 16 5 6 7 8 16 37 12 19 15 31 18 32 16 34 20 36</p>
        </triangles>
      </mesh>
    </geometry>
  </library_geometries>
  <library_visual_scenes>
    <visual_scene id="scene">
      <node id="link19_L">
        <instance_geometry url="#geometry">
          <bind_material>
            <technique_common>
              <instance_material symbol="scout_1a1a1a" target="#scout_1a1a1a" />
            </technique_common>
          </bind_material>
        </instance_geometry>
      </node>
    </visual_scene>
  </library_visual_scenes>
  <scene>
    <instance_visual_scene url="#scene" />
  </scene>
</COLLADA>