<?xml version='1.0' encoding='utf-8'?>
<COLLADA xmlns="http://www.collada.org/2005/11/COLLADASchema" version="1.4.1">
  <asset>
    <created>2026-09-14T00:00:00Z</created>
    <modified>2026-09-14T00:00:00Z</modified>
    <unit name="metre" meter="1" />
    <up_axis>Z_UP</up_axis>
  </asset>
  <library_effects>
    <effect id="scout_1a1a1a_effect">
      <profile_COMMON>
        <technique sid="common">
          <lambert>
            <emission>
              <color>0 0 0 1</color>
            </emission>
            <ambient>
              <color>0.05 0.05 0.05 1</color>
            </ambient>
            <diffuse>
              <color>0.1 0.1 0.1 1</color>
            </diffuse>
          </lambert>
        </technique>
      </profile_COMMON>
    </effect>
  </library_effects>
  <library_materials>
    <material id="scout_1a1a1a" name="scout_1a1a1a">
      <instance_effect url="#scout_1a1a1a_effect" />
    </material>
  </library_materials>
  <library_geometries>
    <geometry id="geometry" name="link18_L">
      <mesh>
        <source id="positions">
          <float_array id="positions_array" count="57">3.08160124e-05 -0.04466445 -0.000322935812 -0.00423489511 -0.0382443741 0.000259264547 -0.00434276508 -0.0460457318 -0.00119127263 -0.00310582551 0.00142580294 -0.00117185817 -0.00311978348 0.00226077181 -0.00800538715 -0.00635573966 -0.0401061475 -0.00573456474 9.17244543e-05 -0.00467755971 -0.0108993305 -0.00403492246 -0.0398247465 -0.0102729537 -0.0035656176 -0.0466443859 -0.00898325536 0.00558245694 0.0082446672 -0.00805698708 0.00607916899 -0.000284186448 0.00132084545 0.00564816361 0.00813139044 -0.0019324607 0.00910659228 -0.00128458638 -0.0104465215 0.00548477191 -0.0316489153 -0.00958656613 -0.00208583218 -0.0490353741 -0.00472664321 0.0108373193 -0.00339056249 -0.00197331933 0.00107820728 -0.0478984192 -0.00761882681 0.000985837658 -0.0478583872 -0.00252141105 0.00776840048 -0.026301628 -0.00237224973</float_array>
          <technique_common>
            <accessor source="#positions_array" count="19" stride="3">
              <param name="X" type="float" />
              <param name="Y" type="float" />
              <param name="Z" type="float" />
            </accessor>
          </technique_common>
        </source>
        <source id="normals">
          <float_array id="normals_array" count="129">0.388701469 -0.196648031 0.900133729 0.00252184761 -0.0653154552 0.997861505 -0.136815235 -0.17925325 0.974243224 -0.996516109 0.0736868158 0.0390633456 -0.707109272 0.210567653 -0.675024211 -0.993324518 -0.0864584893 -0.076363422 -0.940636575 -0.329035372 0.083297722 -0.943158448 0.00454916432 0.332312316 -0.266088188 0.0851956531 -0.960176408 -0.880555153 -0.0413903259 -0.472132832 -0.910740376 -0.374152243 -0.174819931 -0.57871449 0.812159657 0.0740686953 -0.591964304 0.804430664 0.0496942811 -0.563274503 0.820030808 0.101347744 0.238258779 0.180970475 0.954192042 -0.18518047 0.346074462 0.919750333 -0.230294049 0.161805466 0.959574699 -0.114109598 0.259424984 -0.958998263 0.0036769507 0.122677132 -0.992439806 0.119408607 -0.059499044 -0.991060793 0.184058189 -0.132546768 -0.973937333 -0.81841135 -0.573403239 -0.0375717692 0.226324007 -0.175146192 -0.958176017 -0.0788915977 -0.688314497 0.721109748 -0.0649932548 -0.692449033 0.718533397 0.0957241207 -0.729107916 0.677671432 0.57839793 0.0211754832 0.815479875 0.667200863 0.298067153 0.682641208 0.982145786 0.0926927924 -0.16369991 0.91810894 0.394438773 -0.0386527143 0.911789775 0.410651445 -0.00218685344 0.975055397 0.152525604 -0.161254212 0.232590422 -0.178840324 -0.955990493 -0.3018502 -0.600139916 0.740755379 0.479757965 -0.101541698 0.87150532 0.964038849 -0.227165073 -0.137931526 0.969946384 -0.170418814 -0.173670396 -0.103160828 -0.882101536 -0.459624559 0.349190921 -0.936951637 0.0136866411 0.722824931 -0.231932014 0.650946736 0.953674853 -0.300197601 0.0196384564 0.955562115 -0.294743687 -0.00521841971 -0.60680145 0.794570506 0.0212062001</float_array>
          <technique_common>
            <accessor source="#normals_array" count="43" stride="3">
              <param name="X" type="float" />
              <param name="Y" type="float" />
              <param name="Z" type="float" />
            </accessor>
          </technique_common>
        </source>
        <vertices id="vertices">
          <input semantic="POSITION" source="#positions" />
        </vertices>
        <triangles material="scout_1a1a1a" count="34">
          <input semantic="VERTEX" source="#vertices" offset="0" />
          <input semantic="NORMAL" source="#normals" offset="1" />
          <p>0 0 1 1 2 2 3 3 4 4 5 5 2 6 1 7 5 5 1 7 3 3 5 5 6 8 7 9 4 4 7 9 5 5 4 4 8 10 2 6 5 5 3 11 9 12 4 13 10 14 11 15 3 16 9 17 6 8 4 4 7 9 8 10 5 5 1 1 0 0 10 14 12 18 6 8 9 17 12 18 13 19 6 8 13 19 7 20 6 8 10 14 3 16 1 1 14 21 2 6 8 10 13 19 8 22 7 20 14 23 0 24 2 25 10 14 15 26 11 27 15 28 9 29 11 30 15 28 12 31 9 29 13 19 16 32 8 22 14 23 17 33 0 24 18 34 15 26 10 14 0 0 18 34 10 14 13 35 12 31 15 28 18 36 13 35 15 28 16 37 14 37 8 37 16 38 17 38 14 38 17 39 18 34 0 0 17 40 16 41 18 36 16 41 13 35 18 36 3 11 11 42 9 12</p>
        </triangles>
      </mesh>
    </geometry>
  </library_geometries>
  <library_visual_scenes>
    <visual_scene id="scene">
      <node id="link18_L">
        <instance_geometry url="#geometry">
          <bind_material>
            <technique_common>
              <instance_material symbol="scout_1a1a1a" target="#scout_1a1a1a" />
            </technique_common>
          </bind_material>
        </instance_geometry>
      </node>
    </visual_scene>
  </library_visual_scenes>
  <scene>
    <instance_visual_scene url="#scene" />
  </scene>
</COLLADA>