<?xml version='1.0' encoding='utf-8'?>
<COLLADA xmlns="http://www.collada.org/2005/11/COLLADASchema" version="1.4.1">
  <asset>
    <created>2026-09-14T00:00:00Z</created>
    <modified>2026-09-14T00:00:00Z</modified>
    <unit name="metre" meter="1" />
    <up_axis>Z_UP</up_axis>
  </asset>
  <library_effects>
    <effect id="scout_1a1a1a_effect">
      <profile_COMMON>
        <technique sid="common">
          <lambert>
            <emission>
              <color>0 0 0 1</color>
            </emission>
            <ambient>
              <color>0.05 0.05 0.05 1</color>
            </ambient>
            <diffuse>
              <color>0.1 0.1 0.1 1</color>
            </diffuse>
          </lambert>
        </technique>
      </profile_COMMON>
    </effect>
  </library_effects>
  <library_materials>
    <material id="scout_1a1a1a" name="scout_1a1a1a">
      <instance_effect url="#scout_1a1a1a_effect" />
    </material>
  </library_materials>
  <library_geometries>
    <geometry id="geometry" name="link22_L">
      <mesh>
        <source id="positions">
          <float_array id="positions_array" count="57">-0.00233049341 -0.0325372517 -0.010417941 -0.00463213585 -0.032469593 -0.00499934703 -0.0021125928 0.00444233045 -0.00818566419 -0.00205986737 -0.0337626301 0.00031891957 -0.00344869797 0.000787749945 -0.00243383693 -0.00214796257 -0.0363060161 -0.00870042294 -0.00202438002 -0.0367432088 -0.00156844768 -0.00129652105 0.00447907764 -0.0010119786 0.0057056495 -0.000382764672 -0.0114722075 0.00595770171 -0.000296398881 0.00137174304 0.00223983941 -0.0370652191 -0.00792187359 0.00544186356 0.00782500487 -0.00800125021 0.00756539218 -0.0197582301 -0.00919712521 0.00715437019 -0.0195756294 -0.000556001149 0.00549521251 0.00781045482 -0.00198822119 0.00282317889 -0.0364729427 -0.0023319039 0.0106668686 -0.00336263911 -0.00821471866 0.00983237661 -0.0028892241 -0.000781709678 0.00889863446 -0.0190893095 -0.00397943612</float_array>
          <technique_common>
            <accessor source="#positions_array" count="19" stride="3">
              <param name="X" type="float" />
              <param name="Y" type="float" />
              <param name="Z" type="float" />
            </accessor>
          </technique_common>
        </source>
        <source id="normals">
          <float_array id="normals_array" count="135">-0.917753398 -0.0809103623 -0.388821542 -0.98486042 -0.173055336 0.0100918468 -0.970731616 0.214556322 -0.107915193 -0.378863603 -0.261589319 0.887712479 -0.621826649 0.0373301841 0.782264709 -0.90270412 -0.36546877 -0.227063581 -0.900948107 -0.376335412 0.2160189 -0.273555726 0.183390573 0.944211423 -0.257731229 0.222781882 -0.940182328 -0.292115808 0.167976126 -0.941515982 -0.35601756 0.0583975054 -0.932652771 0.203687072 0.180656552 0.962223887 -0.160272643 -0.985389054 -0.0576293245 -0.0740518421 -0.997254014 0.000841373287 -0.0280920137 -0.99909997 0.031782072 -0.148383066 0.381130576 -0.912535965 0.581433356 0.162602097 -0.797179937 0.281996638 -0.0970457122 -0.954494655 0.263028324 -0.22047627 -0.939258397 0.250765771 -0.260799527 -0.932255387 0.0902592167 -0.409377068 -0.907889664 0.259331465 -0.0947575644 0.961128592 -0.0535045527 0.379722595 0.923551857 -0.420702726 0.90689218 0.0235739294 -0.42374903 0.905341923 0.0281561017 -0.434733927 0.89944154 0.0448474884 0.0707475767 -0.992688656 0.0977959111 0.160826147 -0.526652694 0.834728599 0.318044454 -0.304974735 0.897684872 0.572685659 0.0597006902 -0.817598283 0.512070715 0.0532108136 0.857293546 0.645814121 0.314888269 -0.695535362 0.617845774 0.330878615 0.71329236 -0.971433699 0.221627578 -0.0848394185 0.943703711 -0.330669701 -0.00898961723 0.969890714 -0.217399999 0.109768935 0.882925332 -0.209740162 0.420061857 0.989406168 0.135120913 0.053082861 0.905982077 0.423257887 -0.0070139044 0.911967754 0.409651369 0.022373762 0.98024857 0.153061047 0.125240147 0.940224886 -0.328978539 -0.0880359709 0.946827888 -0.243088454 -0.210772395 -0.87563616 0.473091662 0.0971881375 -0.408784747 0.9126122 0.00583515596</float_array>
          <technique_common>
            <accessor source="#normals_array" count="45" stride="3">
              <param name="X" type="float" />
              <param name="Y" type="float" />
              <param name="Z" type="float" />
            </accessor>
          </technique_common>
        </source>
        <vertices id="vertices">
          <input semantic="POSITION" source="#positions" />
        </vertices>
        <triangles material="scout_1a1a1a" count="34">
          <input semantic="VERTEX" source="#vertices" offset="0" />
          <input semantic="NORMAL" source="#normals" offset="1" />
          <p>0 0 1 1 2 2 1 1 3 3 4 4 5 5 6 6 1 1 3 3 7 7 4 4 6 6 3 3 1 1 5 5 1 1 0 0 2 8 8 9 0 10 9 11 7 7 3 3 5 12 10 13 6 14 11 15 8 9 2 8 8 16 12 17 0 18 10 19 5 20 0 18 13 21 9 11 3 3 9 11 14 22 7 7 14 23 2 24 7 25 12 17 10 19 0 18 15 26 6 14 10 13 6 27 15 28 3 3 16 29 12 17 8 16 13 21 17 30 9 11 11 31 16 29 8 16 17 30 14 32 9 11 1 1 4 33 2 2 15 34 18 35 13 36 16 37 11 38 14 39 17 40 16 37 14 39 18 35 10 41 12 42 4 33 7 43 2 2 18 35 17 40 13 36 10 41 18 35 15 34 16 37 18 35 12 42 17 40 18 35 16 37 2 24 14 23 11 44 13 21 3 3 15 28</p>
        </triangles>
      </mesh>
    </geometry>
  </library_geometries>
  <library_visual_scenes>
    <visual_scene id="scene">
      <node id="link22_L">
        <instance_geometry url="#geometry">
          <bind_material>
            <technique_common>
              <instance_material symbol="scout_1a1a1a" target="#scout_1a1a1a" />
            </technique_common>
          </bind_material>
        </instance_geometry>
      </node>
    </visual_scene>
  </library_visual_scenes>
  <scene>
    <instance_visual_scene url="#scene" />
  </scene>
</COLLADA>