<?xml version='1.0' encoding='utf-8'?>
<COLLADA xmlns="http://www.collada.org/2005/11/COLLADASchema" version="1.4.1">
  <asset>
    <created>2026-09-14T00:00:00Z</created>
    <modified>2026-09-14T00:00:00Z</modified>
    <unit name="metre" meter="1" />
    <up_axis>Z_UP</up_axis>
  </asset>
  <library_effects>
    <effect id="scout_1a1a1a_effect">
      <profile_COMMON>
        <technique sid="common">
          <lambert>
            <emission>
              <color>0 0 0 1</color>
            </emission>
            <ambient>
              <color>0.05 0.05 0.05 1</color>
            </ambient>
            <diffuse>
              <color>0.1 0.1 0.1 1</color>
            </diffuse>
          </lambert>
        </technique>
      </profile_COMMON>
    </effect>
  </library_effects>
  <library_materials>
    <material id="scout_1a1a1a" name="scout_1a1a1a">
      <instance_effect url="#scout_1a1a1a_effect" />
    </material>
  </library_materials>
  <library_geometries>
    <geometry id="geometry" name="link16_R">
      <mesh>
        <source id="positions">
          <float_array id="positions_array" count="57">-0.00372576714 0.0385405608 -0.0104123168 -0.00198462768 -0.00484758988 -0.00803483743 -0.00590591598 0.0393990427 -0.00503230747 -0.00358410692 -0.000758562528 -0.00237003528 0.00574649824 -0.00769344671 -0.00193805399 -0.000818793429 -0.00518520037 -0.000978586264 0.00578122167 -0.00785732828 -0.00790372305 0.00304735405 0.000995306065 -0.011453378 -0.00367653393 0.0433152318 -0.00874352548 -0.00412006536 0.0392997302 6.98766526e-05 0.00117020006 0.0444600619 -0.00794677902 -0.00170646887 0.0453623533 -0.00544173084 0.00126650231 0.0442331396 -0.00213915249 -0.00312800193 0.0440500304 -0.00127698085 0.00635190075 0.000513600186 0.00130676292 0.00784900691 0.0246828701 -0.00834237877 0.00636786781 0.0264004599 -0.000569335767 0.00975096971 0.00281842542 -0.009595952 0.010984567 0.00369321066 -0.00223053666</float_array>
          <technique_common>
            <accessor source="#positions_array" count="19" stride="3">
              <param name="X" type="float" />
              <param name="Y" type="float" />
              <param name="Z" type="float" />
            </accessor>
          </technique_common>
        </source>
        <source id="normals">
          <float_array id="normals_array" count="135">-0.925184488 0.024064878 -0.37875402 -0.959530532 -0.267022431 -0.0894434601 -0.986873686 0.160607189 -0.016902972 -0.970281363 -0.225407049 -0.0880097672 -0.353773087 -0.935032845 0.0236268397 -0.358474523 -0.933356225 0.0184993651 -0.357676983 -0.933644474 0.019370649 -0.505922735 -0.0674232543 -0.859939694 -0.0708902627 -0.143766791 -0.987069249 -0.292808324 -0.282321095 -0.913541496 -0.891372681 0.420402944 -0.169458166 -0.93678391 0.115926579 0.330146819 -0.22121422 -0.187263355 0.957077146 0.226393417 0.162408054 0.96040076 -0.522229314 -0.0588070489 0.850775123 0.324059188 0.945509911 0.0315692835 0.205302671 0.967736125 0.146074116 0.148002565 0.968949497 0.198070884 -0.868331552 0.477674395 0.133519664 -0.858430326 -0.499185383 0.117946081 0.271870315 -0.167378455 0.947666049 -0.361551076 -0.932229459 0.0151325855 -0.705904603 0.708082616 -0.0178240053 0.229371846 0.206469119 -0.951188266 0.256894618 0.163326547 -0.95253849 0.0772273913 0.328242809 -0.941431105 0.267110288 0.0811986625 -0.960238993 0.196677446 0.0842766985 0.976839483 0.0522740558 -0.357710034 -0.932368457 0.231945008 0.163239375 0.958934009 0.279193372 -0.0495961346 -0.958953202 -0.00443879422 -0.367388695 0.93005687 -0.130368724 0.875609517 -0.465093523 0.18510069 0.138595924 0.972897172 0.989017665 -0.111905254 -0.0965467095 0.908519983 -0.417505205 0.0167572629 0.916272223 -0.399667263 -0.0266707856 0.97772032 -0.150995091 -0.145820022 0.0205527972 0.951536596 0.30684799 0.625901043 -0.0457923226 0.778557003 0.701515615 -0.30618 0.643529058 0.971193492 0.220959902 0.0892185122 0.96133703 0.243036121 0.129477948 0.949732482 0.31213665 0.0240619034 0.947409809 0.320006818 -0.00320665212</float_array>
          <technique_common>
            <accessor source="#normals_array" count="45" stride="3">
              <param name="X" type="float" />
              <param name="Y" type="float" />
              <param name="Z" type="float" />
            </accessor>
          </technique_common>
        </source>
        <vertices id="vertices">
          <input semantic="POSITION" source="#positions" />
        </vertices>
        <triangles material="scout_1a1a1a" count="34">
          <input semantic="VERTEX" source="#vertices" offset="0" />
          <input semantic="NORMAL" source="#normals" offset="1" />
          <p>0 0 1 1 2 2 1 1 3 3 2 2 4 4 5 5 6 6 0 7 7 8 1 9 8 10 0 0 2 2 3 3 9 11 2 2 5 12 9 13 3 14 10 15 11 16 12 17 9 11 13 18 2 2 5 19 3 3 1 1 13 18 8 10 2 2 5 12 14 20 9 13 1 21 6 6 5 5 11 22 8 10 13 18 10 23 0 24 8 25 15 26 7 8 0 24 14 20 16 27 9 13 6 28 1 9 7 8 16 27 13 29 9 13 10 23 15 26 0 24 17 30 7 8 15 26 4 31 14 20 5 12 17 30 6 28 7 8 10 32 8 32 11 32 12 33 13 29 16 27 18 34 4 35 6 36 17 37 18 34 6 36 11 16 13 38 12 17 18 39 14 20 4 40 18 39 16 27 14 20 17 37 15 41 18 34 15 41 16 42 18 34 15 41 12 43 16 42 12 43 15 41 10 44</p>
        </triangles>
      </mesh>
    </geometry>
  </library_geometries>
  <library_visual_scenes>
    <visual_scene id="scene">
      <node id="link16_R">
        <instance_geometry url="#geometry">
          <bind_material>
            <technique_common>
              <instance_material symbol="scout_1a1a1a" target="#scout_1a1a1a" />
            </technique_common>
          </bind_material>
        </instance_geometry>
      </node>
    </visual_scene>
  </library_visual_scenes>
  <scene>
    <instance_visual_scene url="#scene" />
  </scene>
</COLLADA>