<?xml version='1.0' encoding='utf-8'?>
<COLLADA xmlns="http://www.collada.org/2005/11/COLLADASchema" version="1.4.1">
  <asset>
    <created>2026-09-14T00:00:00Z</created>
    <modified>2026-09-14T00:00:00Z</modified>
    <unit name="metre" meter="1" />
    <up_axis>Z_UP</up_axis>
  </asset>
  <library_effects>
    <effect id="scout_1a1a1a_effect">
      <profile_COMMON>
        <technique sid="common">
          <lambert>
            <emission>
              <color>0 0 0 1</color>
            </emission>
            <ambient>
              <color>0.05 0.05 0.05 1</color>
            </ambient>
            <diffuse>
              <color>0.1 0.1 0.1 1</color>
            </diffuse>
          </lambert>
        </technique>
      </profile_COMMON>
    </effect>
  </library_effects>
  <library_materials>
    <material id="scout_1a1a1a" name="scout_1a1a1a">
      <instance_effect url="#scout_1a1a1a_effect" />
    </material>
  </library_materials>
  <library_geometries>
    <geometry id="geometry" name="pelvis">
      <mesh>
        <source id="positions">
          <float_array id="positions_array" count="153">-0.0501887351 -0.0715741962 -0.00850041024 -0.0666421652 -0.118749037 -0.0380551852 -0.0502030589 -0.105660751 -0.0250163712 -0.0413989089 0.0485369414 -0.0796578825 -0.0464315526 -0.0583281144 -0.0791463256 -0.0427904315 -0.119339056 -0.0779757947 0.00103027793 -0.155130804 -0.0457460918 -0.0462684706 -0.140567243 -0.0749711245 -0.0256418213 -0.136485696 -0.040047951 -0.0309338477 -0.123804018 -0.0107434597 -0.0139505658 -0.0483345725 0.00312088989 -0.037591476 -0.0305917226 0.00306266523 0.0266093258 -0.136512235 -0.0401912108 -0.0512649678 0.00918230228 0.00327100838 -0.0567099713 -0.0105719408 0.00399014214 0.0152209504 -0.152133569 -0.0750982165 -0.0681410581 0.112980165 -0.0737558231 -0.0459611677 0.112842351 -0.0781501532 -0.0364612341 0.12108542 -0.0156856049 -0.0643551201 0.105616175 -0.0311452094 -0.0493583009 0.0727642775 -0.00900346413 -0.00397195527 0.149188578 -0.0430537015 -0.041960638 0.146285474 -0.0702975616 -0.0010927181 0.141429797 -0.0781816095 -0.0137302103 0.133056819 -0.011814218 0.0647516698 0.121877573 -0.0750291646 0.0479921326 0.109973699 -0.0787500888 0.023486834 0.150400713 -0.0744083375 -0.0693907514 -0.110773742 -0.0715998039 -0.0352557823 0.0425823666 0.00284072221 0.0187693331 0.0456680059 0.00429209461 0.00637431163 -0.138954535 -0.0204141326 0.0352348648 -0.12111938 -0.0136626642 0.0542306229 -0.134563521 -0.0456360243 0.0666605681 -0.120111257 -0.0746251121 0.0637122989 -0.099109754 -0.0268695261 0.0363247618 -0.0436944589 0.00194524624 0.0520710647 0.0769456103 -0.0108273113 0.0358024836 0.0445215218 -0.000724990154 0.0488416776 -0.0731071681 -0.00877697486 0.0492981672 -0.00952135492 0.00275084586 0.0412144735 0.04883435 -0.0794886872 -0.0010475507 0.0340433754 -0.0784761235 0.0210020225 0.136455104 -0.022681484 0.0353441536 0.119113892 -0.0126464758 0.0630807057 0.128126353 -0.0415921211 0.0400943235 0.126762927 -0.0373614766 0.0409223549 -0.0482023507 -0.0797967613 0.0556228384 0.0124870604 0.00529533485 -0.0321537666 -0.0400617048 -0.0791795403 0.042200733 -0.124518245 -0.0777321979</float_array>
          <technique_common>
            <accessor source="#positions_array" count="51" stride="3">
              <param name="X" type="float" />
              <param name="Y" type="float" />
              <param name="Z" type="float" />
            </accessor>
          </technique_common>
        </source>
        <source id="normals">
          <float_array id="normals_array" count="333">-0.606599808 -0.346449852 0.715548158 -0.239458457 -0.514580309 0.823326647 -0.511009693 -0.468803704 0.720480561 -0.13363339 0.0110370386 0.99096936 -0.268507421 -0.962228715 -0.0449406318 -0.645429015 -0.758266091 0.0919447839 -0.509241581 -0.855011761 0.0981220752 -0.158302784 -0.49108991 0.856604278 0.0182332955 -0.337052256 0.941309392 -0.626330256 -0.704448342 0.333860576 -0.38103345 -0.903507292 0.196183786 -0.0289844405 -0.229094535 0.972972572 -0.0484659597 -0.068709068 0.996458769 -0.045875255 -0.194453299 0.979838431 0.169256285 -0.482867956 0.859180331 0.00161328714 0.00432452792 0.999989331 0.0670659542 0.0178303681 0.997589231 -0.181987405 -0.965439439 -0.186567068 -0.199375913 0.0960171372 -0.975207627 -0.125076398 0.10826572 -0.986222327 -0.106254376 -0.00158679974 -0.994337738 -0.363937169 0.222219393 0.904526532 -0.880027294 0.107402995 0.462619215 -0.507954597 0.134324595 0.850846052 -0.486648738 0.781246603 0.390930593 -0.567504466 0.711467683 0.414430201 -0.608290851 0.735231936 0.299025476 -0.157774165 0.277700782 -0.947623134 -0.0438566692 0.307281524 -0.950607538 -0.528895736 0.818995714 0.222520337 -0.456382751 0.887440205 -0.0645339489 0.150552318 0.0894690529 -0.984545231 0.112574421 0.0508022159 -0.992343783 0.0693235993 0.223635942 -0.972204328 -0.791840196 -0.605584681 -0.0790967345 -0.0283560567 0.0264646225 0.999247491 0.0557989255 0.0700011998 0.995985091 -0.00084238511 -0.992355525 -0.123409308 -0.0913427323 -0.995535851 0.0237661209 0.177135229 -0.207198501 0.962128818 0.0237231683 -0.137220085 0.990256488 0.0572579727 -0.433157474 0.899497688 0.587977827 -0.767844439 0.254355937 0.434804887 -0.833056509 0.341996521 0.525300324 -0.79895848 0.292788208 0.479354143 -0.869934976 -0.115899548 0.412262291 -0.911061645 -0.00253933412 0.519922197 -0.832349598 -0.192028672 0.201152757 -0.503576279 0.840207398 0.656612575 -0.725184083 0.207287177 0.359329343 -0.9298805 0.0787699893 0.637027323 -0.00153538212 0.770839691 0.586815715 0.101654485 0.803314209 0.299081504 0.143847346 0.943322957 0.201323792 -0.499764442 0.842439473 0.89443779 -0.133627936 0.426760644 0.472826511 -0.132036284 0.871206939 0.011562679 -0.115434594 -0.993247807 -0.109347209 -0.121718504 -0.986523092 -0.123008847 -0.0648215637 -0.990286291 0.0390933789 -0.174283251 0.983919203 -0.0118800066 -0.0388547294 0.999174237 0.0825925022 0.00172163162 -0.996581912 0.00105956988 -0.02745069 -0.999622583 0.143816009 0.715694666 0.683445752 0.103282019 0.806411982 0.582265019 0.184208199 0.601972044 0.776979446 0.130019471 0.487323821 0.863487363 0.131400108 0.47856313 0.868165493 0.130717933 0.482908368 0.86585927 0.524563193 0.841943264 0.1263524 0.806466699 0.503069818 0.310696304 0.6979267 0.675738394 0.237225354 0.473381519 0.880459726 0.0264700614 0.562908113 0.81707859 -0.124567404 0.262539268 0.957139909 0.122296289 0.887228072 0.364155829 0.283225894 0.129557371 0.490226775 0.861912191 0.979444385 -0.155668601 0.128280878 0.990616918 0.0128917871 0.136058509 0.0881641358 -0.0064649838 -0.996084988 0.148400024 -0.0633860677 -0.986893952 0.286482871 0.34521395 0.893730879 -0.0519113988 -0.0274738707 0.99827373 -0.241652995 -0.0288125072 -0.969934881 -0.846632063 -0.00247993506 0.532172918 0.00303538959 -0.00471849926 -0.999984264 0.00601266697 -0.0110829407 -0.999920487 0.0955190733 -0.125613332 -0.98747021 -0.63993758 0.00737345777 0.76839149 -0.0409823321 -0.00506443949 -0.999147058 0.114456885 -0.0676294714 -0.991123557 -0.0247569215 -0.0116237104 -0.999625921 -0.977417409 0.00345588312 0.211289644 -0.0638289228 0.997810483 -0.0173233878 0.0607402511 0.993940055 0.0916179195 -0.782989681 0.597540796 0.172835603 0.453424424 0.891293883 0.00124857784 0.249072745 -0.0278286394 -0.968084872 -0.996428013 0.00746223936 0.0841159374 -0.995957017 0.00642596325 0.0896009654 -0.0499538332 -0.00143477705 -0.998750508 0.909970224 -0.355956793 0.21271798 0.998795092 0.00795971137 0.0484257117 0.0620704032 0.87877661 0.473179549 -0.0453175008 0.0732244477 0.996285379 0.0193900224 0.0430761129 0.998883605 -0.719029605 0.0250576939 0.694527566 -0.679241121 0.273916751 -0.680882573 0.00884527341 0.350085974 0.936675787 -0.0435234942 0.931678534 -0.360667139</float_array>
          <technique_common>
            <accessor source="#normals_array" count="111" stride="3">
              <param name="X" type="float" />
              <param name="Y" type="float" />
              <param name="Z" type="float" />
            </accessor>
          </technique_common>
        </source>
        <vertices id="vertices">
          <input semantic="POSITION" source="#positions" />
        </vertices>
        <triangles material="scout_1a1a1a" count="98">
          <input semantic="VERTEX" source="#vertices" offset="0" />
          <input semantic="NORMAL" source="#normals" offset="1" />
          <p>0 0 1 1 2 2 3 3 4 3 5 3 6 4 1 5 7 6 8 7 1 1 6 8 2 2 1 1 8 7 9 9 2 2 8 10 0 0 2 2 9 9 10 11 11 12 0 13 12 14 8 7 6 8 13 15 14 16 11 12 6 4 7 6 15 17 16 18 17 19 3 20 18 21 19 22 20 23 21 24 22 25 19 26 22 27 23 28 17 19 19 26 24 29 21 24 18 30 24 29 19 26 25 31 26 32 27 33 22 27 27 33 23 28 1 5 28 34 7 6 29 35 13 15 30 36 12 37 31 38 8 10 32 39 9 40 31 41 32 42 31 43 12 44 33 45 15 46 34 47 33 48 12 14 6 8 35 49 32 42 12 44 33 45 6 50 15 46 36 51 37 52 38 53 35 54 12 14 33 48 35 55 39 56 32 39 15 57 7 58 5 59 36 60 40 61 10 11 3 20 41 62 42 63 43 64 24 65 44 66 27 33 26 32 23 28 45 67 21 68 46 69 43 70 44 71 46 72 45 73 25 74 27 75 46 72 44 71 37 76 46 69 37 77 45 67 34 78 45 79 35 55 0 13 39 56 10 11 47 80 25 31 34 81 38 82 30 36 48 83 28 84 16 18 3 20 31 38 9 9 8 10 0 85 20 23 19 22 5 59 7 58 28 84 28 84 3 20 5 59 16 18 22 27 17 19 3 20 49 86 4 87 49 86 3 20 42 63 47 80 49 86 42 63 47 80 42 63 41 62 47 80 34 81 50 88 25 31 41 62 26 32 20 23 0 85 29 89 14 90 13 91 29 92 47 80 50 88 49 86 4 87 50 88 5 59 49 86 50 88 4 87 19 22 1 93 0 85 22 94 21 95 27 75 22 25 16 96 19 26 21 97 43 70 46 72 39 56 0 13 9 40 36 98 38 98 48 98 10 11 39 56 36 60 28 99 19 22 16 100 11 101 14 90 29 92 5 59 50 88 15 57 27 75 21 95 45 73 37 52 36 51 39 56 23 28 26 32 41 62 23 28 41 62 17 19 17 19 41 62 3 20 34 78 35 55 33 102 34 78 25 103 45 79 15 57 50 88 34 81 40 61 30 36 10 11 30 36 11 12 10 11 30 36 13 15 11 12 43 64 21 104 24 65 19 22 28 99 1 93 20 23 24 105 18 21 24 105 20 23 44 106 37 52 39 56 35 55 9 40 32 39 39 56 29 89 0 85 11 107 40 108 36 108 48 108 37 52 20 23 29 109 29 109 38 53 37 52 35 55 45 79 37 52 29 110 30 110 38 110 47 80 41 62 25 31 37 52 44 106 20 23 40 61 48 83 30 36</p>
        </triangles>
      </mesh>
    </geometry>
  </library_geometries>
  <library_visual_scenes>
    <visual_scene id="scene">
      <node id="pelvis">
        <instance_geometry url="#geometry">
          <bind_material>
            <technique_common>
              <instance_material symbol="scout_1a1a1a" target="#scout_1a1a1a" />
            </technique_common>
          </bind_material>
        </instance_geometry>
      </node>
    </visual_scene>
  </library_visual_scenes>
  <scene>
    <instance_visual_scene url="#scene" />
  </scene>
</COLLADA>