<?xml version='1.0' encoding='utf-8'?>
<COLLADA xmlns="http://www.collada.org/2005/11/COLLADASchema" version="1.4.1">
  <asset>
    <created>2026-09-14T00:00:00Z</created>
    <modified>2026-09-14T00:00:00Z</modified>
    <unit name="metre" meter="1" />
    <up_axis>Z_UP</up_axis>
  </asset>
  <library_effects>
    <effect id="scout_1a1a1a_effect">
      <profile_COMMON>
        <technique sid="common">
          <lambert>
            <emission>
              <color>0 0 0 1</color>
            </emission>
            <ambient>
              <color>0.05 0.05 0.05 1</color>
            </ambient>
            <diffuse>
              <color>0.1 0.1 0.1 1</color>
            </diffuse>
          </lambert>
        </technique>
      </profile_COMMON>
    </effect>
  </library_effects>
  <library_materials>
    <material id="scout_1a1a1a" name="scout_1a1a1a">
      <instance_effect url="#scout_1a1a1a_effect" />
    </material>
  </library_materials>
  <library_geometries>
    <geometry id="geometry" name="R_hand_base_link">
      <mesh>
        <source id="positions">
          <float_array id="positions_array" count="132">-0.00960978679 -0.0773438662 0.0411460735 -0.00733061926 -0.1240336 0.0419884585 0.00434992323 -0.119932361 0.0427386314 -0.0221726205 -0.0691920668 0.0307374503 -0.0179870576 -0.0635065734 0.0363458171 0.0101653961 -0.127618387 0.0411582552 0.00685273251 -0.0685429946 0.0384124406 -0.0104351137 -0.0565422736 0.0385951474 0.017052317 -1.33278763e-05 0.020636946 -0.00461433874 -1.63270624e-06 0.026071623 0.00143826636 -0.139146432 0.0358782336 -0.0171663612 -4.04360947e-07 0.0197031125 -0.0250195637 -5.9777889e-05 0.00914716069 0.0267626364 7.36050197e-06 -2.64350786e-09 0.0055300761 1.96665792e-06 -0.0257354379 -0.011328402 -0.122680344 0.035652943 -0.00572445616 -0.13738741 0.0356539078 -0.0125674866 -0.124578372 0.0108216079 0.0143328477 -0.128360078 0.0352509655 0.0272691082 -0.00764752086 0.00529683987 0.0119889369 -0.133780405 0.0324780084 -0.00521445181 -0.140122443 0.00370865804 -0.0246875919 -0.068710722 -0.00530610932 0.00121952477 -0.141550586 0.00384154241 0.0154197542 -0.130821303 0.00338674895 -0.0276910588 -0.0101508694 -0.00102226133 0.0275747459 -0.0119926762 -0.00506652053 -0.0258825254 -0.000148343999 -0.0076273405 -0.0116967456 -0.124657638 -0.0320522934 -0.00564940227 -0.139442459 -0.0301055666 -0.0212438274 -0.0625182465 -0.0223095901 0.0116904154 -0.135167718 -0.0304405522 0.0138147138 -0.130209357 -0.0314039662 -0.0102370596 -0.122264847 -0.0374819376 0.00131600618 -0.141085058 -0.0304237306 -0.00745694805 -0.12721388 -0.0380094312 -0.0204556696 -9.45775391e-05 -0.0167234764 -0.0101503823 -0.0677067488 -0.036631234 0.00822636392 -0.128157198 -0.0380356498 0.0195294358 -0.000106508072 -0.0182876419 -0.0113107935 -2.56544308e-06 -0.0238596536 0.0122317709 -0.0967618003 -0.0350355841 0.00823236909 -0.0682361573 -0.0359315053 -0.00255259359 -0.0671088994 -0.0381651521</float_array>
          <technique_common>
            <accessor source="#positions_array" count="44" stride="3">
              <param name="X" type="float" />
              <param name="Y" type="float" />
              <param name="Z" type="float" />
            </accessor>
          </technique_common>
        </source>
        <source id="normals">
          <float_array id="normals_array" count="207">-0.202572376 0.0514495447 0.97791481 -0.476081431 -0.232722655 0.848048747 0.124773674 -0.0271365624 0.991814077 -0.929796517 -0.0670842901 0.361908972 -0.646044433 0.0960220471 0.757236004 0.410711199 -0.129496589 0.902522564 0.428437382 0.112207882 0.896577239 -0.173284873 0.196082368 0.965154946 0.631757379 0.164849386 0.757434666 0.224243805 0.20890151 0.95187968 -0.0805921108 -0.413450211 0.906953037 -0.442381799 0.233255938 0.865961909 -0.648886919 0.200723112 0.733931899 -0.00302711944 0.999993861 -0.00174966163 0.00117707427 0.99999845 -0.00131993508 0.00149206689 0.99999845 -0.000903261069 -0.925691009 -0.242764592 0.290106118 -0.914571583 -0.375395954 0.150454834 -0.135369837 -0.437886059 0.888780534 -0.949737489 -0.311982095 0.0258045197 0.889263511 -0.269349396 0.369677365 -0.931648672 0.131495208 0.338732541 0.953163862 0.100723431 0.285190225 0.691111326 -0.678208888 0.249795601 0.569129467 -0.609315932 0.552110255 0.502619565 -0.825446784 0.256926507 0.975329638 0.220705777 -0.0045881113 -0.902101099 -0.431403995 0.0102057299 -0.991130471 -0.111945599 -0.0716139227 0.539919019 -0.841506779 0.0188082308 0.909983158 -0.414606988 0.0056329756 -0.998682618 0.04633753 -0.0220418517 0.974124372 0.0261398759 -0.224495977 -0.95536238 0.0911315084 -0.281029761 -0.933643818 -0.286779225 -0.214632049 -0.910843372 -0.399090171 -0.105315551 -0.902969539 -0.0122142863 -0.429530859 0.746712804 -0.664623678 -0.0263706446 0.884587884 -0.253102571 -0.391718507 -0.898348153 -0.218418941 -0.381134897 0.495411634 -0.868596017 -0.0104059028 -0.801822782 -0.403437823 -0.4408153 -0.763116181 0.0912964121 -0.639780164 -0.511419833 0.0700606406 -0.856470227 -0.22849077 -0.973410189 -0.0162640698 -0.219695255 -0.975101769 0.030174436 -0.230213374 -0.9729985 -0.0166053493 0.367728084 -0.256274045 -0.893923759 0.459575087 -0.5382635 -0.706444025 0.0279898141 -0.560200572 -0.827884018 0.737505078 0.122168876 -0.664199531 -0.237158269 -0.968300521 0.0784220099 -0.240081146 -0.967532694 0.0790030882 -0.0584998392 -0.208545148 -0.976261616 -0.167588234 -0.55250293 -0.816489279 -0.389243543 0.169435397 -0.905417621 0.701478004 0.0154836271 -0.712522864 0.44937098 0.0863254443 -0.889164567 -0.00327984779 0.100266576 -0.994955182 -0.168995231 0.0113364933 -0.985551655 0.199602857 0.176776618 -0.963799119 -0.00271898997 0.999996006 0.000762863026 -0.0101953261 0.999948025 -0.000172042841 -0.0146566611 0.999883831 -0.00417755404 0.00474104378 0.999946892 -0.00915149599 -0.000534664781 0.99999845 -0.00169494597 0.000897113699 0.999998569 0.0014246105 0.0140065728 0.99983269 -0.0117654232 -0.21719797 -0.975641906 0.0307887644</float_array>
          <technique_common>
            <accessor source="#normals_array" count="69" stride="3">
              <param name="X" type="float" />
              <param name="Y" type="float" />
              <param name="Z" type="float" />
            </accessor>
          </technique_common>
        </source>
        <vertices id="vertices">
          <input semantic="POSITION" source="#positions" />
        </vertices>
        <triangles material="scout_1a1a1a" count="84">
          <input semantic="VERTEX" source="#vertices" offset="0" />
          <input semantic="NORMAL" source="#normals" offset="1" />
          <p>0 0 1 1 2 2 3 3 1 1 4 4 1 1 5 5 2 2 4 4 1 1 0 0 6 6 2 2 5 5 7 7 4 4 0 0 8 8 9 9 6 6 9 9 7 7 6 6 1 1 10 10 5 5 7 7 9 11 4 4 9 11 11 12 4 4 12 13 13 14 14 15 3 3 15 16 1 1 15 16 16 17 1 1 16 18 10 10 1 1 15 16 17 19 16 17 18 20 8 8 5 5 8 8 6 6 5 5 12 21 4 4 11 12 18 20 19 22 8 8 12 21 3 3 4 4 20 23 5 24 10 25 20 23 18 20 5 24 13 26 8 8 19 22 17 19 21 27 16 17 3 3 17 19 15 16 3 3 22 28 17 19 23 29 20 23 10 25 24 30 18 20 20 23 12 21 25 31 3 3 25 31 22 28 3 3 26 32 19 22 18 20 27 33 25 31 12 21 28 34 29 35 17 19 29 35 21 27 17 19 30 36 28 34 22 28 28 34 17 19 22 28 20 23 31 37 24 30 31 37 32 38 24 30 24 30 26 32 18 20 25 31 30 36 22 28 33 39 28 34 30 36 34 40 31 37 23 29 31 37 20 23 23 29 26 32 13 26 19 22 24 30 32 38 26 32 25 31 27 33 30 36 28 34 33 39 29 35 33 39 35 41 29 35 27 33 36 42 30 36 36 42 37 43 30 36 37 43 33 39 30 36 34 44 21 45 29 46 38 47 31 48 34 49 26 32 39 50 13 26 21 45 10 51 16 52 35 53 34 49 29 54 40 55 37 43 36 42 34 49 35 53 38 47 38 47 32 38 31 48 26 32 41 56 39 50 41 56 42 57 39 50 32 38 41 56 26 32 43 58 35 53 33 59 37 43 43 58 33 59 41 56 32 38 38 47 42 57 14 60 39 50 38 47 35 53 43 58 14 60 43 58 40 55 43 58 37 43 40 55 38 47 42 57 41 56 42 57 38 47 43 58 42 57 43 58 14 60 6 6 0 0 2 2 40 61 36 62 27 63 12 13 11 64 9 65 40 61 27 63 12 13 9 65 8 66 13 14 13 14 39 67 14 15 14 15 40 61 12 13 12 13 9 65 13 14 7 7 0 0 6 6 34 44 23 68 21 45 21 45 23 68 10 51</p>
        </triangles>
      </mesh>
    </geometry>
  </library_geometries>
  <library_visual_scenes>
    <visual_scene id="scene">
      <node id="R_hand_base_link">
        <instance_geometry url="#geometry">
          <bind_material>
            <technique_common>
              <instance_material symbol="scout_1a1a1a" target="#scout_1a1a1a" />
            </technique_common>
          </bind_material>
        </instance_geometry>
      </node>
    </visual_scene>
  </library_visual_scenes>
  <scene>
    <instance_visual_scene url="#scene" />
  </scene>
</COLLADA>