<?xml version='1.0' encoding='utf-8'?>
<COLLADA xmlns="http://www.collada.org/2005/11/COLLADASchema" version="1.4.1">
  <asset>
    <created>2026-09-14T00:00:00Z</created>
    <modified>2026-09-14T00:00:00Z</modified>
    <unit name="metre" meter="1" />
    <up_axis>Z_UP</up_axis>
  </asset>
  <library_effects>
    <effect id="scout_1a1a1a_effect">
      <profile_COMMON>
        <technique sid="common">
          <lambert>
            <emission>
              <color>0 0 0 1</color>
            </emission>
            <ambient>
              <color>0.05 0.05 0.05 1</color>
            </ambient>
            <diffuse>
              <color>0.1 0.1 0.1 1</color>
            </diffuse>
          </lambert>
        </technique>
      </profile_COMMON>
    </effect>
  </library_effects>
  <library_materials>
    <material id="scout_1a1a1a" name="scout_1a1a1a">
      <instance_effect url="#scout_1a1a1a_effect" />
    </material>
  </library_materials>
  <library_geometries>
    <geometry id="geometry" name="right_shoulder_roll_link">
      <mesh>
        <source id="positions">
          <float_array id="positions_array" count="132">0.000609583396 -0.0427011475 0.00699307863 -0.0415103659 -0.0457619429 -0.0786440596 -0.0423426256 -0.0458408706 -0.129897699 -0.0132385958 -0.0418658778 0.0160578396 0.00531179132 -0.027142169 0.0278210733 0.0114437668 -0.0281488243 0.00438180845 0.00970010925 -0.0150755793 0.0300163068 -0.0251246803 -0.042255111 -0.145016104 -0.0200395919 -0.0440062918 -0.130084768 -0.0662908033 -0.0342955478 -0.0899215341 -0.00299294735 -0.0347483903 0.0281795263 0.00439567165 -0.0197278466 -0.145635411 -0.0600113906 -0.034582898 -0.145030841 -0.0764095858 -0.00513924705 -0.145011202 -0.0134937912 -0.020755982 0.0398041196 -0.0793548897 -0.00969794951 -0.0882308558 -0.0628974885 -0.0362419635 -0.129957691 -0.000780431263 -0.0329669304 -0.128869414 -0.0787383094 -0.0140618496 -0.130263627 0.0106653897 -0.0117801894 -0.130349159 -0.00155811501 -0.010395308 0.0429557003 0.004474096 0.0198897775 -0.145036951 0.0115292678 0.00781599525 -0.130483687 0.0050701648 0.0154578798 0.0359389558 -0.0135207782 0.0160889402 0.0424130261 0.00523566687 0.0241923928 -0.130203456 -0.00294781243 0.0130886333 0.0423230715 -0.0787766427 0.0118417218 -0.0887150988 -0.0698383525 0.0231762622 -0.145010158 -0.0783804357 0.013403886 -0.129841283 -0.0127894543 0.0414789431 -0.131428391 -0.0248604957 0.0422557965 -0.145018384 -0.0512717254 0.0385283157 -0.145003289 -0.0637263879 0.0362175256 -0.130092621 -0.0392080396 0.0459248647 -0.130252317 0.0114304116 0.028052846 0.00381871848 0.000766134181 0.0425939001 0.00596853858 -0.00180914684 0.0316604115 0.030669149 0.0117869005 0.00791976694 0.026376456 -0.013061231 0.0418014489 0.0166014079 -0.0668082908 0.0336209163 -0.0896016732 -0.00270623458 0.0409309454 0.0164579414 -0.0427869856 0.0456411056 -0.0812386572 0.00802480243 0.0281744376 0.0208706316</float_array>
          <technique_common>
            <accessor source="#positions_array" count="44" stride="3">
              <param name="X" type="float" />
              <param name="Y" type="float" />
              <param name="Z" type="float" />
            </accessor>
          </technique_common>
        </source>
        <source id="normals">
          <float_array id="normals_array" count="171">0.464580595 -0.8746472 0.138409406 -0.22718747 -0.971415401 0.0688331425 -0.182192087 -0.971093357 -0.154219642 -0.366802454 -0.847572923 0.383504957 0.711188078 -0.498295784 0.495896012 0.936501861 -0.344693661 0.0644246787 0.872257888 -0.196924046 0.447646111 0.208037689 -0.929106593 -0.305747002 0.305835873 -0.943505287 -0.127523437 -0.70368576 -0.695946813 0.143123537 0.239727795 -0.747374475 0.619646609 -0.00224236725 0.000491544721 -0.999997377 -0.00766477128 -0.00746385939 -0.99994278 -0.00779212592 -0.000374731695 -0.999969542 0.118125811 -0.580602765 0.805572331 -0.880028486 -0.187059268 0.436530232 -0.953156173 -0.20742479 0.22015515 -0.633248746 -0.766373694 -0.108015984 -0.580986679 -0.759117246 -0.293590635 0.848979235 -0.427805513 -0.310188234 0.689473689 -0.701575041 -0.180051297 -0.939365923 -0.308418632 -0.149898782 0.96133846 -0.22449258 -0.159472555 0.603211284 -0.23438704 0.76236397 -0.9478724 -0.108896442 -0.299465299 -0.00436420459 -0.0217655692 -0.999753594 0.844204724 0.432605475 -0.316497892 0.974101841 0.123067662 -0.189683706 0.71211642 0.260675043 0.651873291 -0.163274214 -0.053563673 0.985125601 -0.00167109387 0.351243138 0.936282814 -0.197950169 -0.0693775415 0.977753818 -0.885199904 0.144797117 0.442102879 0.821936846 0.554175079 -0.131566793 0.315912098 0.232246622 0.919924498 -0.946222425 0.246440262 0.20959565 -0.00613744045 0.00395326689 -0.999973357 -0.951639593 0.277054161 -0.132752106 -0.81709075 0.506089389 -0.27610904 0.458914012 0.869056582 -0.184766456 0.210222065 0.938147664 -0.275110126 -0.0037248123 0.00729133328 -0.999966502 -0.626127303 0.767910361 -0.135197356 0.000735844951 0.0103017827 -0.999946654 -0.114134073 0.985167027 -0.12813808 0.940657258 0.336841196 0.041253794 0.471183687 0.875884473 0.103982136 0.287091553 0.689329505 0.665134072 -0.377119988 0.880867481 -0.286099523 0.95363915 0.0714325756 0.2923522 -0.385904908 0.83061713 0.401438147 -0.713817537 0.684449792 0.148300126 0.0831530467 0.930231392 0.357428432 -0.245824456 0.966700375 0.0711387396 0.735905111 0.587411046 0.336737186 0.818000197 0.470766932 0.330536187 0.0108666904 0.015081794 -0.999827206</float_array>
          <technique_common>
            <accessor source="#normals_array" count="57" stride="3">
              <param name="X" type="float" />
              <param name="Y" type="float" />
              <param name="Z" type="float" />
            </accessor>
          </technique_common>
        </source>
        <vertices id="vertices">
          <input semantic="POSITION" source="#positions" />
        </vertices>
        <triangles material="scout_1a1a1a" count="84">
          <input semantic="VERTEX" source="#vertices" offset="0" />
          <input semantic="NORMAL" source="#normals" offset="1" />
          <p>0 0 1 1 2 2 0 0 3 3 1 1 4 4 5 5 6 6 7 7 8 8 2 2 9 9 1 1 3 3 10 10 3 3 0 0 11 11 12 12 13 13 2 2 1 1 9 9 10 10 14 14 3 3 14 15 15 16 3 3 15 16 9 9 3 3 16 17 12 18 2 2 11 19 17 20 7 7 17 20 8 8 7 7 18 21 16 17 9 9 19 22 17 20 11 19 17 20 0 0 8 8 17 20 5 5 0 0 0 0 4 4 10 10 20 23 14 14 10 10 18 21 9 9 15 16 16 17 18 21 12 18 18 21 13 24 12 18 11 11 7 25 12 12 21 26 22 27 11 19 22 27 19 22 11 19 20 23 6 6 23 28 20 29 24 30 14 31 24 32 15 16 14 15 25 33 22 27 21 26 5 5 17 20 19 22 4 4 20 23 10 10 20 29 26 34 24 30 24 32 27 35 15 16 13 13 28 36 11 11 18 21 29 37 13 24 29 37 28 38 13 24 30 39 21 26 31 40 30 39 25 33 21 26 27 35 18 21 15 16 28 36 32 41 11 11 29 37 33 42 28 38 32 41 31 43 11 11 34 44 30 39 31 40 35 45 22 27 25 33 5 5 19 22 22 27 36 46 30 39 34 44 20 23 23 28 26 34 26 34 37 47 24 30 33 42 32 48 28 38 33 42 34 44 32 48 2 2 9 9 16 17 36 46 25 33 30 39 38 49 6 6 5 5 37 47 39 50 24 30 39 50 27 35 24 32 39 50 40 51 27 35 27 35 40 51 29 37 29 37 40 51 33 42 35 45 25 33 36 46 38 49 5 5 35 45 23 28 37 47 26 34 37 47 41 52 39 50 40 51 42 53 33 42 42 53 34 44 33 42 7 7 2 2 12 18 42 53 36 46 34 44 6 6 20 23 4 4 39 50 42 53 40 51 39 50 36 46 42 53 41 52 36 46 39 50 37 47 36 46 41 54 43 55 38 49 35 45 37 47 43 55 36 46 31 40 32 48 34 44 4 4 0 0 5 5 23 28 38 49 43 55 27 35 29 37 18 21 31 43 21 56 11 11 5 5 22 27 35 45 6 6 38 49 23 28 0 0 2 2 8 8 43 55 37 47 23 28 35 45 36 46 43 55</p>
        </triangles>
      </mesh>
    </geometry>
  </library_geometries>
  <library_visual_scenes>
    <visual_scene id="scene">
      <node id="right_shoulder_roll_link">
        <instance_geometry url="#geometry">
          <bind_material>
            <technique_common>
              <instance_material symbol="scout_1a1a1a" target="#scout_1a1a1a" />
            </technique_common>
          </bind_material>
        </instance_geometry>
      </node>
    </visual_scene>
  </library_visual_scenes>
  <scene>
    <instance_visual_scene url="#scene" />
  </scene>
</COLLADA>