<?xml version='1.0' encoding='utf-8'?>
<COLLADA xmlns="http://www.collada.org/2005/11/COLLADASchema" version="1.4.1">
  <asset>
    <created>2026-09-14T00:00:00Z</created>
    <modified>2026-09-14T00:00:00Z</modified>
    <unit name="metre" meter="1" />
    <up_axis>Z_UP</up_axis>
  </asset>
  <library_effects>
    <effect id="scout_1a1a1a_effect">
      <profile_COMMON>
        <technique sid="common">
          <lambert>
            <emission>
              <color>0 0 0 1</color>
            </emission>
            <ambient>
              <color>0.05 0.05 0.05 1</color>
            </ambient>
            <diffuse>
              <color>0.1 0.1 0.1 1</color>
            </diffuse>
          </lambert>
        </technique>
      </profile_COMMON>
    </effect>
  </library_effects>
  <library_materials>
    <material id="scout_1a1a1a" name="scout_1a1a1a">
      <instance_effect url="#scout_1a1a1a_effect" />
    </material>
  </library_materials>
  <library_geometries>
    <geometry id="geometry" name="right_elbow_roll_link">
      <mesh>
        <source id="positions">
          <float_array id="positions_array" count="66">0.040387962 -0.0240209363 -0.0212228522 0.0743345469 0.0291990079 -0.00852258876 0.0594548918 -0.0259820893 0.00809768122 0.0851266682 -0.0350420885 -0.0172750931 0.0819385797 -0.0334279649 0.00140273536 0.0532510839 -0.0367477089 -0.0367224924 0.103273004 -0.032238815 -0.00339063746 0.0874928832 -0.0328215882 0.00175506226 0.0861452594 -0.0327812657 -0.00301858387 0.0531747416 0.0315332934 0.0347209424 0.0595967732 -0.02696779 0.0292200912 0.0103705265 -0.0267940555 0.0299047567 0.0717725456 0.0315471329 -0.0252205282 0.0975899324 0.0349744707 -0.00846338179 0.0977284089 0.032846164 0.00932321511 0.0428629294 0.0375051908 0.0307213366 -0.00492730876 0.0353391655 0.0111006266 0.0872373804 0.0329840928 0.00224728324 0.0149847325 0.030947255 -0.026947042 -0.00178861036 -0.0307232235 -0.0172550008 0.0816989243 0.0331775583 0.000287250761 0.0249105822 -0.0273551773 0.0164871048</float_array>
          <technique_common>
            <accessor source="#positions_array" count="22" stride="3">
              <param name="X" type="float" />
              <param name="Y" type="float" />
              <param name="Z" type="float" />
            </accessor>
          </technique_common>
        </source>
        <source id="normals">
          <float_array id="normals_array" count="216">0.791437745 -0.393126249 -0.468057692 0.835689425 -0.462294638 -0.296490937 0.769019842 -0.365351588 -0.524525225 0.0328160934 -0.99525404 0.0916106328 0.0594176017 -0.964414775 0.257631034 -0.0450194106 -0.993048787 0.108753927 0.247895211 0.838392496 -0.485433787 0.252397627 0.83348459 -0.49152714 0.276862055 0.805192411 -0.524416387 -0.612278938 -0.772950351 0.166319743 0.982897341 0.0227323342 0.182745785 0.936938465 -0.057284303 0.344767779 0.994011164 0.109267384 -0.0015778013 0.0068060304 -0.983670652 0.179849073 -0.00128914288 -0.987457335 0.157880798 0.00289349048 -0.985570133 0.169242769 0.25053069 -0.956054926 -0.152293742 0.205469057 -0.971541703 -0.117852196 0.228963226 -0.963917136 -0.135792375 -0.243601352 0.0511012897 0.968528271 -0.378277183 -0.0336172394 0.92508173 -0.36143899 0.17085132 0.91660881 0.890762925 -0.10717243 0.441650838 -0.240570635 0.969215274 -0.0524167009 0.241648927 0.869780481 0.43021816 0.270363122 0.812619567 0.516287982 0.142423376 0.978029191 0.152231485 -0.866590202 0.161493063 -0.472166747 0.168736264 -0.9775967 0.125828236 0.262090653 -0.942664206 0.206622005 0.233958736 -0.944422424 0.230931967 -0.121191993 0.992495596 -0.0162771568 -0.0170137212 0.996781349 -0.0783417299 0.0068640071 0.998244524 -0.0588280894 -0.953193724 -0.156365767 0.258788466 -0.133850679 0.0671137869 -0.988726318 -0.177301168 0.0417643562 -0.983270049 -0.33834374 -0.0556074195 -0.939378142 0.606394112 -0.289200723 0.74070853 0.0283313375 0.158534527 -0.986946881 0.283171296 -0.950156689 0.130446374 0.00925012585 0.994561255 -0.103741884 0.129181713 0.984715343 0.116823673 0.0584985428 0.996037543 -0.0669864789 -0.00309937331 0.9937585 -0.111509927 -0.422474772 -0.725578725 -0.543185592 0.0604256131 0.996959507 -0.0491989814 0.00486752111 0.951939285 0.306248069 0.0906094164 0.993668497 0.0664292872 0.00920081139 -0.982444048 0.186330482 0.0337567031 0.992203355 -0.119971007 0.847052395 -0.492746294 -0.199256852 -0.1768222 0.0485916361 0.983042598 0.0135228811 -0.0921367705 0.995654523 0.0233526677 -0.997473061 -0.0670983195 0.0202298108 -0.996604383 -0.0798150003 0.0244426671 -0.997736037 -0.0626531094 -0.0576891452 -0.991614938 0.115636379 -0.0727303624 -0.992181897 0.1014167 -0.000298270636 -0.999347329 -0.0361225009 0.120395869 -0.991342306 0.0523951985 -0.0587416887 -0.995976686 0.0676745027 -0.516901135 -0.396568984 0.75864768 0.281194806 -0.943408847 -0.175810218 0.00169115665 0.993502617 -0.113796607 0.0882854909 0.9957183 -0.0274000317 -0.0728500858 0.996346354 0.0445738249 -0.103061698 0.967639506 -0.230330244 -0.0377863012 0.996644139 0.0726126879 0.246997207 0.839360654 -0.484217018 0.0744093359 -0.913703799 0.399510533 0.0283265281 -0.998503208 -0.0467862748</float_array>
          <technique_common>
            <accessor source="#normals_array" count="72" stride="3">
              <param name="X" type="float" />
              <param name="Y" type="float" />
              <param name="Z" type="float" />
            </accessor>
          </technique_common>
        </source>
        <vertices id="vertices">
          <input semantic="POSITION" source="#positions" />
        </vertices>
        <triangles material="scout_1a1a1a" count="48">
          <input semantic="VERTEX" source="#vertices" offset="0" />
          <input semantic="NORMAL" source="#normals" offset="1" />
          <p>0 0 1 1 2 2 3 3 4 4 5 5 5 6 6 7 3 8 3 9 7 9 8 9 2 10 9 11 10 12 6 13 10 14 11 15 12 16 13 17 14 18 9 19 15 20 16 21 1 22 9 11 2 10 17 23 13 23 1 23 15 24 9 25 14 26 18 27 19 27 16 27 20 28 1 29 13 30 13 31 12 32 20 33 16 34 19 34 11 34 18 35 5 36 19 37 12 38 0 38 5 38 5 36 18 35 12 39 4 4 3 3 8 40 15 41 20 33 12 32 15 24 14 26 13 42 17 43 20 33 15 41 12 32 18 44 15 41 15 45 13 45 17 45 4 46 8 47 0 48 11 15 3 49 6 13 3 50 11 50 7 50 12 51 1 1 0 0 11 52 9 19 16 21 11 52 10 53 9 19 21 54 0 55 2 56 5 5 11 57 19 58 4 4 11 57 5 5 14 59 9 60 20 28 17 61 14 59 20 28 14 62 17 62 1 62 9 60 1 29 20 28 12 16 14 18 1 63 16 64 15 41 18 44 10 65 6 66 7 67 7 67 6 66 8 47 0 48 8 47 6 66 7 67 4 46 10 65 10 65 4 46 0 48 21 68 10 65 0 48 6 7 5 6 0 69 7 70 11 57 4 4 21 54 2 56 10 71</p>
        </triangles>
      </mesh>
    </geometry>
  </library_geometries>
  <library_visual_scenes>
    <visual_scene id="scene">
      <node id="right_elbow_roll_link">
        <instance_geometry url="#geometry">
          <bind_material>
            <technique_common>
              <instance_material symbol="scout_1a1a1a" target="#scout_1a1a1a" />
            </technique_common>
          </bind_material>
        </instance_geometry>
      </node>
    </visual_scene>
  </library_visual_scenes>
  <scene>
    <instance_visual_scene url="#scene" />
  </scene>
</COLLADA>