<?xml version='1.0' encoding='utf-8'?>
<COLLADA xmlns="http://www.collada.org/2005/11/COLLADASchema" version="1.4.1">
  <asset>
    <created>2026-09-14T00:00:00Z</created>
    <modified>2026-09-14T00:00:00Z</modified>
    <unit name="metre" meter="1" />
    <up_axis>Z_UP</up_axis>
  </asset>
  <library_effects>
    <effect id="scout_1a1a1a_effect">
      <profile_COMMON>
        <technique sid="common">
          <lambert>
            <emission>
              <color>0 0 0 1</color>
            </emission>
            <ambient>
              <color>0.05 0.05 0.05 1</color>
            </ambient>
            <diffuse>
              <color>0.1 0.1 0.1 1</color>
            </diffuse>
          </lambert>
        </technique>
      </profile_COMMON>
    </effect>
  </library_effects>
  <library_materials>
    <material id="scout_1a1a1a" name="scout_1a1a1a">
      <instance_effect url="#scout_1a1a1a_effect" />
    </material>
  </library_materials>
  <library_geometries>
    <geometry id="geometry" name="right_shoulder_yaw_link">
      <mesh>
        <source id="positions">
          <float_array id="positions_array" count="138">-0.0253192857 -0.0242901724 -0.159155712 -0.0363987833 -0.0220705718 -0.185613766 -0.0295344088 -0.0287449919 -0.177800462 -0.0368866734 -0.0138036665 -0.122865379 -0.0211194512 -0.0377675891 -0.00140555261 -0.033784613 -0.0227438174 0.000446661492 -0.0251231492 -0.0243403204 -0.203149408 -0.0346250422 -0.012275463 -0.203200683 -0.0189502183 -0.0239596721 -0.21379678 -0.00294730719 -0.0170452073 -0.22775209 -0.013775113 -0.024215281 -0.149762124 -0.00163854973 -0.0395289175 -0.032399714 0.00494384859 -0.0276138987 -0.221206024 0.0408699401 -0.0161422919 -0.211276516 0.0425544903 0.0390817076 -0.208093435 0.0527381226 0.0320949666 -0.184685454 0.0378378034 0.0100485282 -0.00811084453 0.0356801488 0.024114199 -0.0692633018 0.0284403563 0.0301869046 0.0006361634 -0.0393267423 0.00781223923 -0.00248288619 -0.0391427428 0.012520331 -0.0738660246 0.05279807 -0.0167478584 -0.182171166 0.0435114577 0.0348845758 -0.155348048 0.0439999402 -0.0167123079 -0.157078207 -0.0330933779 0.0294051599 -0.0726194903 -0.0368601941 0.0375991054 -0.155873939 -0.028137546 0.0281997696 -8.35722531e-05 -0.00793678313 0.0395870879 0.000181402851 0.0240713414 -0.0337604843 0.000503487885 0.030105982 -0.0267621074 -0.151705772 0.00895145442 -0.0336836502 -0.166476652 0.00785193034 -0.027608484 -0.142295361 0.0338252261 -0.0274864975 -0.211106583 0.0391155668 -0.029248083 -0.169065028 0.0123944608 -0.0144381616 -0.134180218 0.0202008076 -0.00817082822 -0.127605766 0.0350298733 -0.0188842863 -0.0638409853 0.0229141563 -0.0161237828 -0.225416884 0.0439916514 -0.0263856295 -0.187252998 0.0400738195 -0.00640553888 0.000987739768 -0.0250194315 0.0389529802 -0.215517879 0.0178562421 0.034316998 -0.227445289 0.0209770873 0.0373080932 -0.0724039748 0.0332469977 0.017985085 -0.0756387189 0.0213769693 0.0363168493 -0.134124339 -0.0381919928 0.0325033367 -0.188918382</float_array>
          <technique_common>
            <accessor source="#positions_array" count="46" stride="3">
              <param name="X" type="float" />
              <param name="Y" type="float" />
              <param name="Z" type="float" />
            </accessor>
          </technique_common>
        </source>
        <source id="normals">
          <float_array id="normals_array" count="270">-0.334931374 -0.918488801 0.210236415 -0.684364378 -0.692412734 0.228495106 -0.818634152 -0.488614142 0.301818341 -0.888450146 -0.446380109 -0.106776163 -0.423107237 -0.906025171 -0.00993369706 -0.899842203 -0.436123043 -0.00898241717 -0.544025838 -0.773315072 -0.325606704 -0.85188663 -0.218167409 -0.476121932 -0.505507946 -0.650745809 -0.566561222 -0.313219517 -0.0254904684 -0.949338615 -0.262333751 -0.964188516 -0.0390063375 -0.594916642 -0.751461208 -0.28527233 -0.114685312 -0.945462048 0.304874986 -0.0926764384 -0.940973103 0.325546682 0.0426450446 -0.992828608 -0.11168167 -0.313010544 -0.657945991 -0.684931695 -0.133650735 -0.944481134 -0.300154716 0.827170014 -0.188712999 -0.529317617 0.789827108 0.0112532265 -0.613226354 0.919191778 -0.00912397541 -0.393704444 0.955518901 0.267209023 0.124831632 0.935743213 0.34039554 -0.0922793522 0.658531845 0.745869517 0.100072682 -0.98920542 0.142088011 0.0358270854 -0.992031813 0.125203088 0.0140383234 0.947436988 0.00420991331 0.319914699 0.854192555 0.0281317122 0.519195199 0.820551097 -0.327265352 0.468607783 -0.80663079 0.585900426 0.0778939277 -0.99642843 0.0798236653 0.0275416076 -0.700271428 0.711378872 0.0596658625 -0.509159982 0.858859718 0.0558219105 0.244613349 -0.9693892 -0.0211871751 0.386374563 -0.760765612 0.521488607 -0.00612520194 -0.98800236 0.15431723 -0.0670003369 -0.967097342 -0.245425582 0.341390967 -0.297366738 -0.891641855 0.328616172 -0.238027632 -0.913977146 0.33914727 -0.286539942 -0.896032393 0.323243916 -0.214540094 -0.921675622 0.0526710078 -0.997437298 -0.0484215952 0.52286607 -0.839971542 0.145116985 0.184042767 -0.706821561 0.683031142 0.337004423 -0.57540834 0.745206892 0.58019644 -0.35541603 0.732838035 0.390011698 -0.904377699 -0.173181713 0.295250416 -0.918345809 -0.263568133 0.732017934 -0.623332262 -0.274966538 0.0402887054 -0.997809649 -0.0524660535 0.783205569 -0.52870208 -0.327205062 0.802990317 -0.50343287 -0.319001466 0.735876024 -0.644852698 0.206522271 0.986861229 -0.0994425863 -0.127342463 0.986195087 -0.157246888 0.0518910624 0.862530351 -0.505108178 0.0301187504 -0.634453952 0.0510838889 -0.771270752 0.227486059 0.0555825867 -0.972193718 0.654728889 -0.719834685 0.230582044 0.898730695 -0.230363011 -0.373116702 0.00194477418 0.999384463 -0.0350278988 0.0978476927 0.99490881 -0.0241316725 0.0281280167 0.961693168 -0.272681326 0.180975899 0.982604742 0.0416614488 0.249641404 0.968337953 -0.000913602125 0.962770641 -0.0451333597 -0.266525239 0.974180877 -0.0473003201 -0.220758468 0.974744916 -0.0573934466 -0.215820059 0.568711817 0.473696023 -0.672442496 0.035860464 0.999219775 0.0165498964 0.182762787 0.980315745 0.0746911317 0.843943655 0.53642261 -0.0031472533 0.384919137 0.00148221245 -0.922949135 0.463988394 0.883675992 0.0618990846 -0.998038352 -0.0358996354 -0.0512897372 -0.981318533 0.0205390174 -0.191290572 0.954253316 0.0165392868 0.298541456 -0.354557455 -0.398814738 0.845716178 0.280511141 -0.956885278 -0.0753928795 -0.59227699 0.799575746 -0.0994316265 0.0119652161 0.999844611 0.0129469289 0.0854258239 -0.902252495 0.422661632 0.692412734 0.086647287 0.716279924 -0.000528521312 -0.035810221 0.999358475 0.0203555916 -0.0437692702 0.998834252 -0.0159448124 -0.00554769952 0.999857485 -0.0428590067 0.00738647534 0.999053836 -0.0390760228 -8.76071408e-06 0.999236226 -0.280471146 0.0410714149 0.958983362 -0.0551472045 0.0141835567 0.998377502 -0.0126938084 -0.000748994178 0.999919176</float_array>
          <technique_common>
            <accessor source="#normals_array" count="90" stride="3">
              <param name="X" type="float" />
              <param name="Y" type="float" />
              <param name="Z" type="float" />
            </accessor>
          </technique_common>
        </source>
        <vertices id="vertices">
          <input semantic="POSITION" source="#positions" />
        </vertices>
        <triangles material="scout_1a1a1a" count="88">
          <input semantic="VERTEX" source="#vertices" offset="0" />
          <input semantic="NORMAL" source="#normals" offset="1" />
          <p>0 0 1 1 2 2 3 3 4 4 5 5 6 6 7 7 8 8 8 8 7 7 9 9 2 10 6 6 8 8 6 6 1 11 7 7 0 0 3 12 1 1 10 13 0 0 2 10 10 13 3 12 0 0 11 14 4 4 3 3 8 8 9 15 12 16 13 17 14 18 15 19 16 20 17 21 18 22 19 23 20 24 3 3 21 25 22 26 23 27 24 28 25 29 20 24 24 28 20 24 19 23 26 30 24 28 19 23 24 28 27 31 25 29 28 32 4 4 11 14 29 33 10 13 30 34 31 35 10 35 29 35 9 36 13 37 12 38 13 37 32 39 12 38 32 40 33 41 12 16 33 41 29 33 30 34 29 33 34 42 31 43 35 44 34 42 29 33 36 45 34 46 35 47 13 48 9 48 37 48 13 17 38 49 32 50 38 51 23 27 33 41 23 27 29 33 33 41 35 44 29 33 23 27 36 52 39 53 28 54 40 55 41 56 9 9 21 57 23 27 38 51 38 49 13 17 21 58 40 59 14 60 41 61 27 62 18 22 42 63 26 30 27 31 24 28 43 64 35 65 44 66 43 67 42 67 17 67 44 68 22 69 14 60 42 70 43 70 44 70 17 21 42 63 18 22 43 64 17 21 36 52 16 20 39 53 17 21 16 20 18 22 39 53 11 14 36 45 28 32 41 56 13 17 37 71 22 69 15 72 14 60 1 73 45 74 7 7 22 26 21 25 15 75 43 64 36 52 35 65 12 16 30 34 2 10 10 13 2 10 30 34 12 16 33 41 30 34 31 76 34 76 10 76 1 11 6 6 2 10 25 29 3 3 20 24 19 23 3 3 5 5 7 7 45 74 40 55 38 77 33 41 32 40 45 78 25 78 40 78 9 9 41 56 37 71 44 68 25 79 27 62 27 62 42 63 44 68 14 60 40 59 25 79 14 60 25 79 44 68 13 17 41 56 14 18 7 7 40 55 9 9 10 13 34 80 3 12 2 10 8 8 12 16 45 74 1 73 3 3 3 3 25 29 45 74 34 46 11 14 3 3 11 14 34 46 36 45 44 81 35 44 22 26 23 27 22 26 35 44 36 52 17 21 39 53 21 58 13 17 15 19 5 82 4 83 18 84 28 85 39 86 4 83 4 83 39 86 18 84 19 87 5 82 26 88 26 88 5 82 18 84 27 89 26 88 18 84</p>
        </triangles>
      </mesh>
    </geometry>
  </library_geometries>
  <library_visual_scenes>
    <visual_scene id="scene">
      <node id="right_shoulder_yaw_link">
        <instance_geometry url="#geometry">
          <bind_material>
            <technique_common>
              <instance_material symbol="scout_1a1a1a" target="#scout_1a1a1a" />
            </technique_common>
          </bind_material>
        </instance_geometry>
      </node>
    </visual_scene>
  </library_visual_scenes>
  <scene>
    <instance_visual_scene url="#scene" />
  </scene>
</COLLADA>