<?xml version='1.0' encoding='utf-8'?>
<COLLADA xmlns="http://www.collada.org/2005/11/COLLADASchema" version="1.4.1">
  <asset>
    <created>2026-09-14T00:00:00Z</created>
    <modified>2026-09-14T00:00:00Z</modified>
    <unit name="metre" meter="1" />
    <up_axis>Z_UP</up_axis>
  </asset>
  <library_effects>
    <effect id="scout_1a1a1a_effect">
      <profile_COMMON>
        <technique sid="common">
          <lambert>
            <emission>
              <color>0 0 0 1</color>
            </emission>
            <ambient>
              <color>0.05 0.05 0.05 1</color>
            </ambient>
            <diffuse>
              <color>0.1 0.1 0.1 1</color>
            </diffuse>
          </lambert>
        </technique>
      </profile_COMMON>
    </effect>
  </library_effects>
  <library_materials>
    <material id="scout_1a1a1a" name="scout_1a1a1a">
      <instance_effect url="#scout_1a1a1a_effect" />
    </material>
  </library_materials>
  <library_geometries>
    <geometry id="geometry" name="right_ankle_roll_link">
      <mesh>
        <source id="positions">
          <float_array id="positions_array" count="210">-0.0662722811 -0.0333741866 0.00123590999 -0.0858010352 -0.0340435877 -0.0258262102 -0.0793175548 -0.0424624905 -0.0223611463 0.154604048 0.0286830924 -0.0134196151 0.169274941 0.00126445154 -0.0160840806 0.173427612 0.0242882241 -0.0232201125 -0.0193528198 -0.0380409062 -0.0391269736 -0.0375999324 -0.0423800945 -0.0230599977 -0.0418554321 -0.0418590643 -0.0426593795 0.0227423385 -0.0351397581 -0.0381489694 0.000837246131 -0.0364443846 -0.022262156 -0.0129980119 -0.0213345923 -0.0136519922 -0.0123618767 -0.0233382732 0.00209282804 0.0145621011 -0.0204187203 -0.00520081772 -0.0410498939 -0.0165154543 0.0278068297 -0.0478530042 -0.0248203892 0.027942976 -0.0255044401 -0.0265696384 0.012228095 -0.0435693674 0.0241259299 0.028439993 -0.0509341955 -0.00350742787 0.0280448906 -0.00720592495 -0.0297918208 -0.0030624799 -0.0690863654 0.0346707925 -0.00273966766 -0.0821291581 0.0421502106 -0.0238153003 -0.0857511535 0.0125444988 -0.0220690276 -0.0536718927 0.0261008535 0.0212887321 0.0318202041 -0.0311937761 -0.00751221972 0.0128212068 -0.021466583 -0.0136860041 -0.0129555529 0.021318268 -0.0137142269 0.0366157778 -0.0176139344 -0.0027035661 0.068056643 -0.041917149 -0.0407490432 0.0436829552 -0.0384794548 -0.0219206251 0.0477385707 -0.0252957176 0.0142127285 -0.0832886323 -0.0406842791 -0.0434340723 0.147610873 -0.00273813028 -0.00794492569 0.102729172 0.00488228723 -5.46001902e-05 0.091092065 -0.0342146829 -0.0013444135 0.153823718 -0.0286459923 -0.0133324722 0.136131242 -0.0395539701 -0.0135547593 0.173196077 -0.0239558108 -0.0217920113 0.0279078297 -0.000437796261 0.0270149969 0.0152407978 -0.0163223818 0.0185976364 0.0279563013 -0.016742887 0.025248047 0.0435611196 -0.0172365364 0.0193665512 0.0632041916 -0.0306448042 0.00864043366 0.0151190506 0.0201777853 -0.00357488426 -0.00873844512 0.029556945 -0.00287129288 -0.0113129728 0.0232740622 0.000956756412 -0.0124946199 0.0376285017 -0.0224206466 0.0314606205 0.0367239378 -0.0226013567 -0.0019834179 0.0353311785 -0.0384447575 0.033482682 0.031123627 -0.00701630814 0.0716950968 0.0422216803 -0.0414107442 0.044594124 0.0374988727 -0.0390372388 0.0125659285 0.0213601254 -0.0138309775 0.0690758899 0.0323519967 0.00599811925 0.109919213 0.0347910635 -0.00626044301 0.135221422 0.0403060876 -0.0145380143 0.0259394273 0.0165901463 0.025672717 0.0145779485 0.0165450089 0.0156448111 0.0478892066 0.0248033833 0.0158746354 0.0367298424 0.0175968893 -0.00210046233 0.0434077121 0.0171588678 0.0194530264 -0.0834394097 0.0405480154 -0.0435539819 -0.0415486544 0.041849602 -0.0425113477 -0.0393865556 0.0427120589 -0.0223573688 0.0658134297 0.0427005067 -0.0222942978 0.172177717 -0.0241993424 -0.0438290723 0.150221422 -0.0338016674 -0.0441726819 0.171936646 0.0240244586 -0.0440870486 0.134450674 -0.0420501083 -0.0429799519 0.13428849 0.0422107428 -0.0425641462</float_array>
          <technique_common>
            <accessor source="#positions_array" count="70" stride="3">
              <param name="X" type="float" />
              <param name="Y" type="float" />
              <param name="Z" type="float" />
            </accessor>
          </technique_common>
        </source>
        <source id="normals">
          <float_array id="normals_array" count="447">-0.647517145 -0.476584524 0.594633281 -0.843682468 -0.349521458 0.407473415 -0.475314587 -0.831647277 0.287121743 0.378713012 0.453552067 0.806763291 0.609072149 0.0143476203 0.792985022 0.884097755 0.0924654752 0.458062559 0.142578319 -0.987786949 -0.0628360659 0.092968002 -0.984872758 0.146227881 0.0673485175 -0.996417046 -0.0511596277 -0.0456287079 -0.995453537 -0.0836078152 0.0567315742 -0.984511256 0.165888995 -0.057581339 0.995135725 0.0799331889 -0.0723591223 0.989028871 0.128786713 -0.0219626166 0.999086738 -0.03665087 0.602311611 -0.190133676 0.775286973 0.505537629 -0.401599854 0.763642132 0.615142703 -0.213400275 0.758985996 -0.468715519 0.113287248 0.876054645 -0.491915494 -0.0138203502 0.870533228 0.0197486728 -0.011879975 0.999734402 0.584675372 -0.157192335 0.795892715 0.371158391 -0.380209595 0.847161174 -0.817381322 0.124181852 0.562553704 -0.946454823 0.133137882 0.294104666 -0.96292448 0.0359451622 0.267365724 -0.729220867 0.0980924815 0.677210987 -0.081075646 -0.922126532 0.378298014 0.0993459895 -0.92841208 0.358024299 0.278516024 -0.453704804 0.846510947 0.00244015362 0.0021298097 0.999994755 0.0034488372 0.0027374893 0.999990284 0.0013246513 0.00145777641 0.999998033 -0.163392588 0.564108491 0.809372902 -0.0453523323 -0.992964566 0.109382465 -0.0946428627 -0.980469823 0.172399521 -0.174282253 -0.918585658 0.354719669 -0.808155894 -0.579827368 0.10336452 0.253448039 -0.0231563356 0.967071831 0.248831317 0.0355576649 0.967893898 0.274894953 -0.146416157 0.95026052 0.422061861 -0.696402848 0.5804196 -0.533796191 -0.0222699512 0.845319867 -0.540912926 -0.0342922173 0.840379238 -0.463790238 -0.0968118981 0.880639553 -0.81454891 0.0844228342 0.573918819 -0.781740367 -0.568754435 0.25573495 0.352257013 0.00773022743 0.935871363 0.348146111 -0.0999741703 0.932094097 0.346116483 -0.133906543 0.928586245 0.146815628 -0.477781832 0.866123378 0.273718476 -0.323569208 0.905748963 0.0766766295 0.223948315 0.971580088 0.326667488 0.341827035 0.881159842 0.553718925 0.208224922 0.806249201 0.123947956 0.979425251 0.15925777 -0.0754508078 0.983943641 0.161746994 0.0635672733 0.994798422 -0.0795943215 0.00906489324 0.286046028 0.958172977 -0.0499243289 0.998310983 -0.0297115445 -0.142998725 0.987403929 -0.0677114874 -0.992521703 -0.00491460133 0.121969394 -0.971674085 0.00238846545 0.236312822 -0.979456365 -0.00515589258 0.201590434 0.0928091034 -0.361315489 0.927813351 0.319853455 0.165645182 0.932874858 0.248223394 0.166815698 0.954231441 0.235876933 0.838588119 0.491052002 0.854330361 -0.0761106461 0.514127195 -0.630589068 0.0383457206 0.775169015 -0.660893381 0.0539208017 0.748540282 -0.992877483 0.00886294059 0.118809551 -0.847616255 -0.010680384 0.53050226 -0.778360307 0.574655712 0.252836019 -0.997142792 0.0749228671 -0.00963625778 -0.990885556 0.00812877808 -0.134460777 -0.989203513 0.0128324432 -0.145985544 0.104531281 0.927398324 0.359173477 -0.103246577 0.931483209 0.348825485 0.062065091 0.00153755047 -0.998070896 0.0776588097 -0.00905552786 -0.996938884 0.0230325013 0.000769595616 -0.999734402 0.0186531898 -0.00144125347 -0.999825001 0.106369838 -0.0159368776 -0.994198918 0.0494241044 -0.00420118868 -0.998769045 -0.0206752475 -0.000730472326 -0.99978596 -0.801920772 -0.116542943 0.585952938 0.0798366368 -0.933982193 0.348286271 0.162408784 -0.920051336 0.356551468 -0.0246993173 0.995581388 0.0905958265 -0.0236312877 0.937074304 0.348329276 0.0829577148 0.984390438 0.155220628 -0.0461937264 0.938535869 0.342076927 0.0422757342 0.937144578 0.346370906 0.00491012586 0.992325902 -0.123552635 0.0662672892 0.996249378 -0.0556401685 -0.0988299921 0.930877984 0.351708412 -0.0890998244 0.985353768 0.145392984 0.0362580009 -0.0133199356 0.99925369 0.241079658 -0.154682159 0.958099186 -0.0606301874 0.00603349414 -0.998142064 -0.0531397499 0.0063900426 -0.998566628 0.386426896 -0.922288179 -0.00766500318 0.18765609 -0.978449643 0.0861482099 0.392255872 -0.919856012 0.000508649973 -0.16194053 0.920337558 0.356025398 -0.0491328202 -0.00819559954 -0.998758614 -0.0195865557 -0.00859297253 -0.999771237 -0.0162180085 0.0125332335 -0.999789953 0.0179465804 -0.00525891455 -0.99982512 -0.0289956536 0.996456146 -0.0789578557 0.446859121 0.00661607552 0.894579887 0.648610055 0.0422277823 0.759948552 0.00456894515 0.00341229513 0.999983728 0.236832663 -0.969119608 0.0686840713 -0.0336346738 -0.0797496513 -0.996247292 0.423092455 -0.905754209 0.0245372579 0.192239344 -0.206139788 0.959453166 -0.0345586576 -0.999193788 0.0204311963 0.0160140581 -0.996939659 0.0765168518 0.0311987028 -0.995678365 0.0874715075 0.10592743 -0.980463505 0.16574268 -0.022506224 -0.999454439 0.0241731461 0.221687943 0.973345101 0.0587689169 -0.100652136 -0.946400523 0.306912392 0.400825202 0.916129649 -0.00675789826 0.394235849 0.918092072 0.0410491899 -0.0240604263 0.336355001 0.941427827 -0.026776908 -0.996511459 -0.0790435001 -0.0347582623 -0.959664047 0.278992414 0.00222912594 -0.991261125 0.131895497 -0.0902933553 -0.995771408 -0.0169238411 -0.0317095965 -0.996467233 0.077765882 -0.129750013 -0.98818171 -0.0816198438 0.999178827 -0.00105364562 -0.0405037478 0.995314658 -0.0202350896 -0.0945478976 0.998432577 -0.00640724786 -0.0556001179 0.993843198 -0.0249949768 -0.107939735 -0.0183966607 0.0455541611 -0.99879247 0.998605967 -0.00335185067 -0.052677013 0.997442365 0.00460385205 -0.0713265538 -0.999354124 -0.0173259564 0.0314823464 -0.999967813 0.00426203478 -0.00679737516 0.330077022 0.112040333 0.937281251 0.023577733 0.995800614 0.0884605572 -0.0251228511 0.999334037 0.0264640246 0.0254258774 0.995655119 0.0895793587 -0.0227911267 0.999365509 0.027370967 0.103854366 0.976750731 0.187542647 0.344905108 0.224435225 0.91141063</float_array>
          <technique_common>
            <accessor source="#normals_array" count="149" stride="3">
              <param name="X" type="float" />
              <param name="Y" type="float" />
              <param name="Z" type="float" />
            </accessor>
          </technique_common>
        </source>
        <vertices id="vertices">
          <input semantic="POSITION" source="#positions" />
        </vertices>
        <triangles material="scout_1a1a1a" count="136">
          <input semantic="VERTEX" source="#vertices" offset="0" />
          <input semantic="NORMAL" source="#normals" offset="1" />
          <p>0 0 1 1 2 2 3 3 4 4 5 5 6 6 7 7 8 8 9 9 10 10 6 6 11 11 12 12 13 13 14 14 15 15 16 16 17 17 18 18 15 19 12 20 16 16 19 21 20 22 21 23 22 24 17 17 23 25 18 18 24 26 19 27 10 10 13 28 12 20 19 21 25 29 26 30 11 31 27 32 13 32 19 32 28 33 29 34 9 9 30 35 24 26 29 34 31 36 2 2 1 1 32 37 33 38 34 39 35 40 36 40 37 40 38 41 39 42 40 43 27 44 24 44 30 44 41 45 27 45 30 45 38 46 40 47 41 48 41 48 30 49 42 50 34 39 41 48 42 50 43 51 44 52 45 53 46 54 47 55 48 56 49 57 44 52 43 51 7 7 2 2 8 8 47 55 50 58 51 59 13 60 52 61 25 62 19 63 24 63 27 63 47 55 51 59 48 56 53 64 54 65 55 66 3 3 55 66 54 65 5 5 4 4 37 67 56 68 57 69 39 42 56 68 39 42 38 41 43 70 52 61 13 60 58 71 49 71 59 71 58 72 59 72 60 72 61 73 31 74 22 24 22 24 31 74 1 75 21 23 61 73 22 24 47 55 44 76 49 77 62 78 8 79 61 80 61 80 8 79 31 81 6 82 48 83 9 84 18 18 1 1 15 85 15 86 7 7 16 87 21 88 20 89 63 90 63 90 20 89 23 91 63 90 23 91 17 92 46 54 44 76 47 55 8 79 48 83 6 82 25 93 11 11 13 13 44 76 63 90 17 92 46 54 48 56 63 90 48 56 62 94 63 90 3 3 54 65 32 37 4 4 3 3 32 37 47 55 53 95 64 96 17 17 15 19 14 97 47 55 64 96 50 58 53 95 47 55 49 77 35 98 37 67 4 4 9 84 51 99 50 100 35 98 4 4 32 37 10 10 7 7 6 6 32 37 54 65 33 38 37 101 36 102 65 103 58 104 53 95 49 77 28 105 50 100 66 106 50 100 67 107 66 106 67 107 65 108 66 106 0 0 15 85 1 1 48 83 8 79 62 78 61 109 21 88 62 94 21 88 63 90 62 94 1 1 18 18 22 24 7 7 19 27 16 87 2 2 7 7 15 86 2 2 15 86 0 0 63 90 44 76 46 54 41 48 34 39 38 46 22 24 18 18 23 25 23 25 20 22 22 24 53 64 60 110 38 46 44 52 17 111 45 53 29 34 10 10 9 9 14 14 45 53 17 111 25 29 52 112 26 30 28 33 68 113 36 102 36 102 29 34 28 33 28 105 66 106 68 114 12 20 14 14 16 16 66 115 36 102 68 113 32 37 34 39 36 116 36 116 35 98 32 37 40 117 39 118 27 119 27 119 39 118 13 120 27 119 41 121 40 117 65 103 36 102 66 115 51 99 9 84 48 83 45 53 14 14 12 20 55 66 69 122 50 58 64 96 55 66 50 58 29 34 42 123 30 35 10 10 29 34 24 26 67 124 69 122 55 66 55 66 5 125 67 124 33 38 38 46 34 39 43 51 59 126 49 57 33 38 53 64 38 46 53 95 55 66 64 96 31 127 8 8 2 2 42 123 29 34 34 128 29 34 36 102 34 128 26 129 52 130 45 131 52 130 43 132 45 131 54 65 53 64 33 38 11 133 26 134 12 135 12 135 26 134 45 136 5 125 55 66 3 3 50 100 69 137 67 107 5 5 37 67 65 138 65 138 67 139 5 5 39 140 57 141 13 60 13 60 57 141 43 70 38 46 60 110 56 142 57 143 56 144 59 145 56 144 60 146 59 145 43 147 57 143 59 145 60 110 53 64 58 148 9 84 50 100 28 105 19 27 7 7 10 10</p>
        </triangles>
      </mesh>
    </geometry>
  </library_geometries>
  <library_visual_scenes>
    <visual_scene id="scene">
      <node id="right_ankle_roll_link">
        <instance_geometry url="#geometry">
          <bind_material>
            <technique_common>
              <instance_material symbol="scout_1a1a1a" target="#scout_1a1a1a" />
            </technique_common>
          </bind_material>
        </instance_geometry>
      </node>
    </visual_scene>
  </library_visual_scenes>
  <scene>
    <instance_visual_scene url="#scene" />
  </scene>
</COLLADA>