<?xml version='1.0' encoding='utf-8'?>
<COLLADA xmlns="http://www.collada.org/2005/11/COLLADASchema" version="1.4.1">
  <asset>
    <created>2026-09-14T00:00:00Z</created>
    <modified>2026-09-14T00:00:00Z</modified>
    <unit name="metre" meter="1" />
    <up_axis>Z_UP</up_axis>
  </asset>
  <library_effects>
    <effect id="scout_1a1a1a_effect">
      <profile_COMMON>
        <technique sid="common">
          <lambert>
            <emission>
              <color>0 0 0 1</color>
            </emission>
            <ambient>
              <color>0.05 0.05 0.05 1</color>
            </ambient>
            <diffuse>
              <color>0.1 0.1 0.1 1</color>
            </diffuse>
          </lambert>
        </technique>
      </profile_COMMON>
    </effect>
  </library_effects>
  <library_materials>
    <material id="scout_1a1a1a" name="scout_1a1a1a">
      <instance_effect url="#scout_1a1a1a_effect" />
    </material>
  </library_materials>
  <library_geometries>
    <geometry id="geometry" name="right_shoulder_pitch_link">
      <mesh>
        <source id="positions">
          <float_array id="positions_array" count="90">0.0194876455 -0.0875663161 0.0326262414 0.0318700038 -0.0866378844 0.0254059546 0.0187447071 -0.0652567819 0.0404281542 0.0322897844 -0.0554757006 0.0322182849 -0.0325811282 0.00434747618 -0.0207746811 -0.0154978931 0.00652409066 0.0161214564 0.0236867107 0.00335074356 0.0228830297 -0.0320184045 -0.0899233818 -0.0428274237 -0.0390003063 -0.0885796994 -0.0366918072 -0.0334181041 -0.0676442683 -0.0513612367 0.0317917541 -0.0307689961 -0.0319874324 0.0201331358 0.00469869003 -0.0199766308 -0.0397767797 -0.0673575476 0.0338049419 -0.0335192382 -0.066078268 0.0397849008 -0.0337692685 -0.00209258078 0.024581302 0.0347001888 -0.0748886093 -0.0109186834 -0.0333652608 -0.0924944654 0.0284878369 0.0190785062 -0.105801433 0.0102445679 0.0307079684 -0.102562964 -0.00583247514 0.0190793425 -0.0596390925 -0.0533825383 -0.0391818732 0.00240451819 -0.00982639845 0.0312672667 -0.0617772639 -0.0461490043 -0.0332497992 -0.105064876 0.00858506374 0.0193187781 -0.106444374 -0.0210004821 -0.0345829949 -0.106939614 -0.00989743974 -0.033769533 -0.0474449992 -0.0490639694 -0.0398266502 -0.0560020544 -0.0436189547 0.0273750853 -0.0883996263 -0.0429283753 -0.0400023349 -0.0965911523 0.0097820498 -0.03359887 -0.103173211 -0.0248570498</float_array>
          <technique_common>
            <accessor source="#positions_array" count="30" stride="3">
              <param name="X" type="float" />
              <param name="Y" type="float" />
              <param name="Z" type="float" />
            </accessor>
          </technique_common>
        </source>
        <source id="normals">
          <float_array id="normals_array" count="156">0.229858458 -0.534151375 0.813540041 0.525118351 -0.52911973 0.66654557 0.247743949 -0.0688325316 0.966377258 0.480620027 0.0682534724 0.87426877 -0.0822016671 0.996596336 0.00621771486 -0.0741266608 0.957611501 0.278362066 0.0322133601 0.999306023 -0.0187030975 0.0467058532 0.322316319 0.945479095 -0.305897534 -0.561746418 -0.768679202 -0.868200064 -0.331763744 -0.369000614 -0.80674088 -0.110805705 -0.580423355 0.996360779 0.0700002536 0.0486330912 0.99006635 0.139350846 -0.0187063813 0.976264715 0.216364816 0.00966565032 0.940810025 0.332132936 -0.0675586835 -0.886810601 -0.0699457228 0.456809044 -0.685928524 -0.0409043357 0.726518393 -0.971111834 0.118648611 0.207036957 0.996213377 -0.0663799644 0.0561479218 0.997238517 -0.0604618378 -0.0431245789 -0.16196914 0.658503532 0.734941602 -0.0156052932 0.231087297 0.972807884 -0.0146839973 -0.643572211 0.765244484 0.268317997 -0.900357544 0.342580944 0.987145483 -0.151667058 -0.050407853 0.436532617 0.403651625 -0.804055095 0.233582065 0.0844858289 -0.968659699 0.0877530873 0.457902402 -0.88466084 -0.252111197 0.96463263 0.0769667253 0.491732448 -0.870373487 0.0254800357 0.0217377823 0.467815965 -0.883558571 0.991530955 -0.0556682572 -0.11733453 -0.0234405845 -0.947616637 0.31854859 -0.978692412 0.148800105 -0.141490921 0.519912422 0.0896944776 -0.849497497 0.269788742 -0.909223616 -0.3170591 -0.0225218032 -0.997600377 -0.0654696971 -0.807593346 0.221568033 -0.546535134 -0.844809473 0.271290064 -0.461192638 -0.924164057 0.0559303053 -0.377878994 0.97440964 -0.163936645 -0.153787732 0.657906353 -0.681972146 -0.319488972 -0.0162256919 -0.143446609 -0.98952502 -0.00124666537 0.329029828 -0.944318712 -0.918652534 -0.358625829 0.165725887 -0.828384817 -0.365518272 0.424470216 -0.465220183 -0.800388694 -0.378084719 0.0887260139 -0.524583995 -0.846722662 -0.747659683 -0.626788557 0.219410688 -0.00513529405 -0.39322868 0.919426382 -0.909553707 -0.411333889 -0.0592995994 -0.00714385044 0.999461532 0.0320256278</float_array>
          <technique_common>
            <accessor source="#normals_array" count="52" stride="3">
              <param name="X" type="float" />
              <param name="Y" type="float" />
              <param name="Z" type="float" />
            </accessor>
          </technique_common>
        </source>
        <vertices id="vertices">
          <input semantic="POSITION" source="#positions" />
        </vertices>
        <triangles material="scout_1a1a1a" count="56">
          <input semantic="VERTEX" source="#vertices" offset="0" />
          <input semantic="NORMAL" source="#normals" offset="1" />
          <p>0 0 1 1 2 2 1 1 3 3 2 2 4 4 5 5 6 6 3 3 6 7 2 2 7 8 8 9 9 10 3 11 10 12 6 13 10 12 11 14 6 13 12 15 13 16 14 17 3 11 1 18 15 19 2 2 14 20 13 21 5 5 14 20 6 7 15 19 10 12 3 11 16 22 17 23 0 0 17 23 1 1 0 0 18 24 15 19 1 18 10 25 19 26 11 27 20 28 14 20 5 5 17 23 18 29 1 1 19 26 4 30 11 27 15 19 21 31 10 12 4 4 20 28 5 5 22 32 17 23 16 22 14 17 20 33 12 15 21 34 19 26 10 25 17 23 23 35 18 29 17 23 22 32 24 36 25 37 20 33 4 38 25 37 26 39 20 33 24 36 23 35 17 23 18 24 27 40 15 19 23 35 27 41 18 29 15 19 27 40 21 31 9 42 25 43 19 26 28 44 16 45 12 15 24 36 29 46 23 35 21 34 27 47 19 26 16 45 28 44 22 48 19 26 7 8 9 42 7 8 27 47 23 35 29 46 7 8 23 35 9 10 26 39 25 37 16 22 2 2 13 49 9 10 8 9 26 39 8 9 24 50 28 44 24 50 8 9 29 46 6 6 11 51 4 4 2 2 6 7 14 20 4 30 19 26 25 43 20 33 26 39 12 15 8 9 28 44 26 39 12 15 26 39 28 44 12 15 16 45 13 16 19 26 27 47 7 8 24 50 22 48 28 44 16 22 0 0 2 2 8 9 7 8 29 46</p>
        </triangles>
      </mesh>
    </geometry>
  </library_geometries>
  <library_visual_scenes>
    <visual_scene id="scene">
      <node id="right_shoulder_pitch_link">
        <instance_geometry url="#geometry">
          <bind_material>
            <technique_common>
              <instance_material symbol="scout_1a1a1a" target="#scout_1a1a1a" />
            </technique_common>
          </bind_material>
        </instance_geometry>
      </node>
    </visual_scene>
  </library_visual_scenes>
  <scene>
    <instance_visual_scene url="#scene" />
  </scene>
</COLLADA>