<?xml version='1.0' encoding='utf-8'?>
<COLLADA xmlns="http://www.collada.org/2005/11/COLLADASchema" version="1.4.1">
  <asset>
    <created>2026-09-14T00:00:00Z</created>
    <modified>2026-09-14T00:00:00Z</modified>
    <unit name="metre" meter="1" />
    <up_axis>Z_UP</up_axis>
  </asset>
  <library_effects>
    <effect id="scout_1a1a1a_effect">
      <profile_COMMON>
        <technique sid="common">
          <lambert>
            <emission>
              <color>0 0 0 1</color>
            </emission>
            <ambient>
              <color>0.05 0.05 0.05 1</color>
            </ambient>
            <diffuse>
              <color>0.1 0.1 0.1 1</color>
            </diffuse>
          </lambert>
        </technique>
      </profile_COMMON>
    </effect>
  </library_effects>
  <library_materials>
    <material id="scout_1a1a1a" name="scout_1a1a1a">
      <instance_effect url="#scout_1a1a1a_effect" />
    </material>
  </library_materials>
  <library_geometries>
    <geometry id="geometry" name="right_hip_pitch_link">
      <mesh>
        <source id="positions">
          <float_array id="positions_array" count="78">-0.0618602671 -0.0445604287 -0.0323261619 -0.0407905318 0.0163044948 -0.0506636873 -0.0342370197 -0.00172454969 -0.0542795882 -0.0382083505 -0.00378687098 -0.0498804338 -0.0149067705 0.014714431 -0.0598649867 -0.0368009657 0.00153869891 -0.0531137772 -0.0347467475 -0.000627710717 -0.0474885441 -0.0387105569 0.00258092303 -0.0483457856 0.00333139091 -0.0473336428 0.0460041687 0.0075030122 -0.0648745745 -0.021771783 -0.0439840034 0.0511741713 -0.0205371659 -0.036683809 0.00721922005 0.0468265712 0.00905557442 0.0216087028 0.0615695566 -0.0545461886 -0.0142135937 0.0465232916 -0.0337055475 0.00693907449 0.0487510413 -0.0451256186 0.032448601 0.0401934013 -0.0555966571 0.0358725451 0.0326182917 -0.0228796862 0.0642752945 0.0477690287 0.0326446965 0.0686298385 0.0435529612 0.0208830889 -0.0204813778 -0.0605195761 -0.0459598824 0.067466557 -0.0368673205 0.0284713078 0.0581397526 -0.0350135975 -0.0489924587 -0.034939196 0.0351043977 -0.0528385267 0.00738666998 -0.000147486498 -0.0460075215 -0.0350641981 -0.0349344872 -0.0465708002 0.00887722708 -0.0476043113</float_array>
          <technique_common>
            <accessor source="#positions_array" count="26" stride="3">
              <param name="X" type="float" />
              <param name="Y" type="float" />
              <param name="Z" type="float" />
            </accessor>
          </technique_common>
        </source>
        <source id="normals">
          <float_array id="normals_array" count="228">-0.576760292 -0.0460715815 -0.81561327 0.771030784 -0.184910998 0.60935992 0.667618334 -0.690199196 0.279125214 -0.0573927499 0.529156625 0.846580982 0.750204623 -0.575410962 -0.325722605 -0.562766969 0.0628551319 -0.824222445 0.175536394 -0.0458805785 -0.983403265 0.31303522 0.135569587 -0.940015852 0.390053064 0.244694471 -0.887684166 -0.393824726 -0.869891584 0.296969175 -0.383327007 -0.877575815 0.287960291 -0.304931015 -0.92638123 0.220986083 0.847949684 0.210671991 0.486414075 -0.803880215 -0.560346842 -0.199469358 0.9268682 -0.017273888 0.374989271 0.0892378166 -0.152711138 -0.984233677 0.928657174 0.287528336 -0.234357238 0.356379598 -0.820870638 -0.446278989 0.778114259 0.626662195 -0.042809248 -0.987408042 -0.150129139 -0.0498658754 0.377202421 -0.301976532 -0.875516117 -0.431870222 0.190548927 0.881577671 -0.520426273 0.204206154 0.829129875 -0.475135475 0.384785593 0.79131937 -0.516602635 0.0600002185 0.854120433 -0.581936002 0.0190353263 0.813011765 -0.245101884 -0.19410494 0.949867547 -0.801789463 -0.586384773 -0.115267254 -0.0326987132 -0.0727655292 0.99681288 0.819495916 0.56430161 -0.0999506637 0.352825791 -0.237663552 -0.905002773 -0.333936274 0.162009314 0.928568542 0.0449040867 0.337711126 0.940178096 -0.802064955 -0.489792436 0.341753155 -0.977723002 0.192789167 -0.0830064192 -0.978915274 0.129206449 -0.158210665 -0.914620459 0.213096067 -0.3435978 -0.489948094 -0.484742194 -0.724552155 -0.170042515 -0.463980794 -0.869371831 -0.214181572 -0.470115572 -0.856222868 0.178392127 0.348417044 -0.9202075 0.0769857466 0.436180323 -0.896560073 0.149922237 0.37400642 -0.915228128 0.254566342 0.276100367 -0.92680341 0.0118012466 -0.4289864 -0.903233886 0.0479447469 0.99696821 -0.0612834394 0.0175089706 0.999348223 -0.0315692499 0.12652798 0.98233372 -0.137880802 -0.0737050846 0.995612979 0.0576394759 -0.461808026 -0.812586904 0.355578154 -0.993354142 0.0971367136 -0.0617417805 -0.967909575 -0.0858672112 -0.236173317 0.0741500929 0.952581286 0.295111328 -0.875241518 -0.391225368 -0.284420371 -0.952328205 0.150493398 0.265372813 0.98596853 -0.0444250405 -0.160911351 0.997503817 0.0460736863 -0.0535108298 0.998274744 -0.0242960919 0.0534529649 -0.999341786 0.0362758115 -6.1812003e-05 -0.999584556 0.0256492142 -0.0131460419 -0.99880892 0.0411208756 -0.0262651686 -0.998352468 0.0573687628 -0.00107805908 -0.996788383 0.0101268189 0.0794376805 0.576655149 0.639974892 -0.507839441 0.895573318 -0.444757164 0.0118112722 0.96782428 -0.226924106 0.108727477 0.968932867 -0.223467395 0.10597834 -0.539945781 0.37967819 -0.751201093 -0.351099223 0.243630499 0.904087126 0.992239296 0.0863460749 0.0894737691 0.990897238 -0.0359112136 0.129742041 0.974787176 -0.148199886 0.166813642 0.980670273 -0.154192448 0.12045972 0.982515514 -0.139306635 0.123518787 0.980259836 -0.128093034 0.150608346 0.976964414 -0.11336869 0.180798441</float_array>
          <technique_common>
            <accessor source="#normals_array" count="76" stride="3">
              <param name="X" type="float" />
              <param name="Y" type="float" />
              <param name="Z" type="float" />
            </accessor>
          </technique_common>
        </source>
        <vertices id="vertices">
          <input semantic="POSITION" source="#positions" />
        </vertices>
        <triangles material="scout_1a1a1a" count="56">
          <input semantic="VERTEX" source="#vertices" offset="0" />
          <input semantic="NORMAL" source="#normals" offset="1" />
          <p>0 0 1 0 2 0 2 1 3 1 0 1 4 2 3 2 2 2 5 3 3 3 4 3 6 4 0 4 3 4 6 5 4 5 0 5 7 6 6 7 3 8 8 9 0 10 9 11 2 12 1 12 7 12 7 13 5 13 2 13 5 14 7 14 3 14 1 15 6 7 7 6 1 16 10 16 6 16 6 17 5 17 4 17 6 18 2 18 5 18 10 19 2 19 6 19 11 20 12 20 13 20 14 21 11 22 13 23 15 24 16 25 11 22 12 26 11 26 8 26 16 27 8 27 11 27 8 28 14 28 13 28 16 29 14 29 8 29 16 30 12 30 14 30 14 21 15 24 11 22 12 31 15 24 14 21 17 32 12 32 18 32 17 33 10 33 12 33 0 34 10 35 1 36 19 37 9 38 4 39 4 40 20 41 21 42 21 42 19 43 4 40 0 44 4 39 9 38 20 45 18 46 21 47 18 46 20 45 17 48 13 49 0 10 8 9 0 34 13 50 10 35 16 51 10 35 13 50 15 52 12 52 10 52 4 53 10 53 20 53 17 54 20 54 10 54 15 55 22 56 23 57 10 58 24 59 22 60 10 58 22 60 15 61 24 59 10 58 25 62 15 63 23 63 16 63 18 64 12 65 21 66 10 67 4 67 2 67 13 68 12 68 16 68 23 57 24 69 25 70 19 71 21 66 9 72 9 72 21 66 8 73 21 66 12 65 8 73 25 70 10 74 23 57 22 56 24 69 23 57 16 75 23 57 10 74</p>
        </triangles>
      </mesh>
    </geometry>
  </library_geometries>
  <library_visual_scenes>
    <visual_scene id="scene">
      <node id="right_hip_pitch_link">
        <instance_geometry url="#geometry">
          <bind_material>
            <technique_common>
              <instance_material symbol="scout_1a1a1a" target="#scout_1a1a1a" />
            </technique_common>
          </bind_material>
        </instance_geometry>
      </node>
    </visual_scene>
  </library_visual_scenes>
  <scene>
    <instance_visual_scene url="#scene" />
  </scene>
</COLLADA>