<?xml version='1.0' encoding='utf-8'?>
<COLLADA xmlns="http://www.collada.org/2005/11/COLLADASchema" version="1.4.1">
  <asset>
    <created>2026-09-14T00:00:00Z</created>
    <modified>2026-09-14T00:00:00Z</modified>
    <unit name="metre" meter="1" />
    <up_axis>Z_UP</up_axis>
  </asset>
  <library_effects>
    <effect id="scout_1a1a1a_effect">
      <profile_COMMON>
        <technique sid="common">
          <lambert>
            <emission>
              <color>0 0 0 1</color>
            </emission>
            <ambient>
              <color>0.05 0.05 0.05 1</color>
            </ambient>
            <diffuse>
              <color>0.1 0.1 0.1 1</color>
            </diffuse>
          </lambert>
        </technique>
      </profile_COMMON>
    </effect>
  </library_effects>
  <library_materials>
    <material id="scout_1a1a1a" name="scout_1a1a1a">
      <instance_effect url="#scout_1a1a1a_effect" />
    </material>
  </library_materials>
  <library_geometries>
    <geometry id="geometry" name="right_elbow_pitch_link">
      <mesh>
        <source id="positions">
          <float_array id="positions_array" count="69">0.0417278223 -0.00223645428 -0.0344468132 -0.0347315148 -0.00381021202 0.00794222392 -0.0148867425 -0.00323857577 -0.0336590409 0.0222664643 -0.00167665374 0.0200605132 0.0904436111 -0.00118669122 -0.0195667092 0.0733455718 0.00157334888 -0.022671463 0.0553215742 0.005257254 0.0173770431 0.065886572 0.0227484237 -0.0431028344 0.0795845315 0.0134170968 0.0140685989 0.063511394 0.0206556935 0.0124196075 0.0791198909 0.0132637238 -0.035295222 0.0710201561 0.0142506333 0.0190390851 0.0542567484 0.05571004 0.0152762495 0.119036302 0.0581809618 -0.0389876403 0.119560987 0.000751944317 0.00285782246 0.122454397 0.0433843955 0.0154887047 0.0596587732 0.00165783335 -0.0201427247 0.0386744514 -0.00153322332 0.00344328582 -0.00943037402 -0.00591312815 0.0414274186 0.0694445744 0.0448134094 0.0196580365 0.0662596226 0.0316476747 0.0145866126 0.0669212639 0.0572440885 0.00226747524 0.0581654087 0.0626345947 -0.0311514586</float_array>
          <technique_common>
            <accessor source="#positions_array" count="23" stride="3">
              <param name="X" type="float" />
              <param name="Y" type="float" />
              <param name="Z" type="float" />
            </accessor>
          </technique_common>
        </source>
        <source id="normals">
          <float_array id="normals_array" count="222">0.0312825702 -0.999277234 -0.0215959158 -0.00166679453 -0.999194145 -0.0401031002 0.017623581 -0.999830484 -0.0053316392 -0.123238005 0.990954697 -0.0531144999 -0.0830328837 0.995748818 -0.0398726836 -0.0179273952 0.999700367 -0.0166679248 0.162456781 0.98655808 -0.0176352412 -0.258210808 0.529601753 0.807990789 -0.40566355 -0.91255635 -0.0517493971 0.234165251 0.54499042 -0.805078924 0.338524491 -0.910845399 0.236139446 0.893539429 -0.448929846 -0.00701570231 -0.791998506 -0.6104514 0.00935142301 0.241397649 0.794958711 0.556567907 -0.751048625 -0.248143658 0.611842036 0.379936337 -0.542467892 -0.749250948 0.996159732 -0.0454335511 -0.0748440847 0.0688973367 -0.997449458 -0.018649051 -0.0317825563 0.999413431 -0.0127531691 -0.0414599068 0.998557508 0.0341173708 -0.0802274346 0.993718982 0.0780135766 -0.211571664 0.973032415 -0.0918987021 0.684125364 0.050004594 -0.727648258 0.967328072 -0.250073165 0.0417109244 0.224075511 0.500956535 0.835962117 0.631580353 0.322913706 0.704863846 0.554104149 0.34933567 0.755601227 0.521376014 0.359083444 0.774097025 -0.494703531 -0.356368184 -0.792634904 -0.992940128 -0.0533348359 0.105949357 0.421520829 0.235363364 -0.875742137 0.66242969 0.310901523 0.681562245 0.939777553 -0.19849363 -0.278241724 -0.33159712 0.806578636 -0.489361107 -0.32529071 0.810186446 -0.487630844 -0.388561577 0.771395802 -0.503952801 0.117842957 -0.158945218 0.980229259 0.0736875162 -0.080514662 0.994025946 0.191488698 -0.290736824 0.937445581 0.0101434486 -0.999083936 -0.0415738709 0.0465131924 -0.998772383 -0.0170364697 0.130200654 0.971177518 0.199654788 0.141718224 0.966675758 0.213199317 0.0918574706 0.983720839 0.154452384 -0.168096513 0.883240819 -0.43775478 -0.121427454 0.081022732 -0.989287972 -0.702955008 -0.128581434 -0.699514925 -0.995181799 -0.0297766961 0.0934157968 -0.947338223 0.16452004 0.274742514 -0.99606657 -0.0536683947 0.0705056861 -0.983231008 -0.175745547 -0.0486854985 0.171539024 0.953401208 0.248194486 -0.622173309 -0.479979634 -0.618481994 -0.167597577 -0.150184229 0.974348903 -0.536253572 -0.302371889 0.788037658 -0.0950255543 -0.708346665 -0.699439108 -0.121384844 -0.711033762 -0.692601383 -0.111143492 -0.710051954 -0.695322514 -0.131830126 -0.711953402 -0.689741373 -0.331780285 0.934630275 -0.128015861 -0.129687056 0.985486567 -0.109533176 -0.210060149 0.970614552 -0.117397405 -0.795596063 0.538050711 0.278439224 -0.0310707707 0.999516606 -0.00108727685 -0.150391161 0.985404491 -0.0797527954 -0.0959830731 0.984367609 -0.147673994 -0.0349165052 0.974524915 -0.221544564 0.344657123 -0.937640965 0.0451765545 0.479729176 -0.165331036 0.861699224 0.127041414 -0.0385888889 -0.991146505 -0.0470044129 0.993798494 -0.100772642 -0.186702013 0.981853127 -0.0332683139 -0.542075574 -0.823278069 -0.168425784 0.00442327792 0.0416955315 0.999120593</float_array>
          <technique_common>
            <accessor source="#normals_array" count="74" stride="3">
              <param name="X" type="float" />
              <param name="Y" type="float" />
              <param name="Z" type="float" />
            </accessor>
          </technique_common>
        </source>
        <vertices id="vertices">
          <input semantic="POSITION" source="#positions" />
        </vertices>
        <triangles material="scout_1a1a1a" count="54">
          <input semantic="VERTEX" source="#vertices" offset="0" />
          <input semantic="NORMAL" source="#normals" offset="1" />
          <p>0 0 1 1 2 2 3 3 0 4 2 5 4 6 5 6 6 6 7 7 0 7 4 7 8 8 9 8 7 8 5 9 4 9 0 9 6 10 5 10 8 10 8 11 5 11 10 11 8 12 10 12 4 12 10 13 7 13 4 13 9 14 11 14 12 14 0 15 13 15 14 15 15 16 14 16 13 16 3 17 2 17 16 17 3 3 17 18 1 19 18 20 6 21 3 3 9 22 19 22 11 22 20 23 19 23 9 23 6 24 18 24 14 24 21 25 20 26 8 27 21 28 8 28 11 28 19 29 21 29 11 29 12 30 19 30 20 30 12 31 20 26 21 25 19 32 22 32 21 32 11 33 4 34 6 35 15 36 6 37 14 38 0 0 18 39 1 1 18 39 0 0 14 40 3 3 1 19 18 20 12 41 13 42 22 43 4 34 11 33 8 44 22 45 13 45 0 45 0 4 3 3 6 21 12 46 21 46 9 46 9 47 21 48 22 49 9 47 22 49 7 50 13 42 12 41 15 51 3 52 16 52 17 52 9 53 8 53 20 53 2 54 17 54 6 54 10 55 5 56 7 57 5 56 16 58 7 57 8 59 16 60 6 61 16 62 8 62 7 62 2 63 1 19 17 18 0 64 16 65 5 66 0 67 6 67 17 67 0 68 7 68 22 68 6 69 12 69 11 69 6 61 16 60 2 70 16 65 0 64 17 71 19 72 12 72 22 72 15 36 12 73 6 37</p>
        </triangles>
      </mesh>
    </geometry>
  </library_geometries>
  <library_visual_scenes>
    <visual_scene id="scene">
      <node id="right_elbow_pitch_link">
        <instance_geometry url="#geometry">
          <bind_material>
            <technique_common>
              <instance_material symbol="scout_1a1a1a" target="#scout_1a1a1a" />
            </technique_common>
          </bind_material>
        </instance_geometry>
      </node>
    </visual_scene>
  </library_visual_scenes>
  <scene>
    <instance_visual_scene url="#scene" />
  </scene>
</COLLADA>