<?xml version='1.0' encoding='utf-8'?>
<COLLADA xmlns="http://www.collada.org/2005/11/COLLADASchema" version="1.4.1">
  <asset>
    <created>2026-09-14T00:00:00Z</created>
    <modified>2026-09-14T00:00:00Z</modified>
    <unit name="metre" meter="1" />
    <up_axis>Z_UP</up_axis>
  </asset>
  <library_effects>
    <effect id="scout_1a1a1a_effect">
      <profile_COMMON>
        <technique sid="common">
          <lambert>
            <emission>
              <color>0 0 0 1</color>
            </emission>
            <ambient>
              <color>0.05 0.05 0.05 1</color>
            </ambient>
            <diffuse>
              <color>0.1 0.1 0.1 1</color>
            </diffuse>
          </lambert>
        </technique>
      </profile_COMMON>
    </effect>
  </library_effects>
  <library_materials>
    <material id="scout_1a1a1a" name="scout_1a1a1a">
      <instance_effect url="#scout_1a1a1a_effect" />
    </material>
  </library_materials>
  <library_geometries>
    <geometry id="geometry" name="right_ankle_pitch_link">
      <mesh>
        <source id="positions">
          <float_array id="positions_array" count="57">-0.0107466439 -0.00769989844 -0.0170007832 0.0108648967 0.00140176527 -0.0124000292 0.0092042964 -0.00663277367 -0.017300291 -0.016379457 -0.0125667704 0.00382228289 -0.0133490954 -0.011915056 -0.004409282 -0.0058111148 -0.0128322253 0.0102279987 -0.0155155798 -0.0125655355 0.00432020519 -0.0148633504 -0.012569041 0.00469636219 0.0120209977 0.0121856034 -0.0260189921 -0.0109935869 -0.0202814639 -0.0296 -0.0111642256 0.0179774575 -0.0293761063 -0.0107365856 0.00316295237 -0.0278176349 -0.00878260285 -0.0125783812 -0.000132545756 -0.0154664703 0.0111722304 -0.00307381363 0.00858758762 -0.0140073625 0.00852169376 0.0087822238 0.0125805279 -0.000146151258 0.00902237184 0.0132172648 0.0136766788 -0.0130412085 -0.01252151 0.00574642047 -0.0173503477 -0.0125466855 0.00326065044</float_array>
          <technique_common>
            <accessor source="#positions_array" count="19" stride="3">
              <param name="X" type="float" />
              <param name="Y" type="float" />
              <param name="Z" type="float" />
            </accessor>
          </technique_common>
        </source>
        <source id="normals">
          <float_array id="normals_array" count="171">-0.064715907 0.568300545 -0.820272088 -0.0559738763 0.553087473 -0.831240773 -0.0409052707 0.526409507 -0.849246621 0.019530477 -0.99723047 -0.0717628598 0.02901976 -0.988819003 -0.14626959 -0.0660457835 -0.997705221 -0.014906209 -0.358746648 0.697152436 0.620708764 -0.359217465 0.696257114 0.621440887 -0.53312242 0.23827 0.811793029 -0.417223781 0.54877311 0.724411786 0.144872636 0.00643635169 -0.989429355 -0.132936537 0.586895347 0.798674941 -0.16448915 0.546669841 0.82103312 -0.241894245 0.437471062 0.866086721 0.446878761 0.0149893034 -0.894468963 0.255691469 -0.192067355 -0.947487235 0.291652769 -0.155979067 -0.943720937 -0.0718413889 0.580555558 -0.811045051 0.321891338 -0.881012082 0.346703947 0.386920333 -0.863681495 0.323027819 -0.0270941406 0.705358386 0.708332896 -0.542530477 0.228749707 0.808290958 -0.480995357 0.261085212 0.836945593 -0.999711275 -0.000513187377 -0.0240227692 0.227085933 0.973780274 0.0135628255 0.24025175 0.970590651 0.0152596105 -0.101145685 0.994247854 -0.0352251008 0.663924754 0.690434754 0.287234783 -0.782593906 -0.42408675 0.455738068 -0.0669296086 0.996753573 -0.0447518714 -0.0525000356 0.997604609 -0.0450417735 0.996109962 -0.0163997095 0.0865790769 0.99664098 -0.0303213485 0.0760746598 0.996458769 -0.0245809983 0.0804096237 0.618257105 0.265598297 0.739740252 0.657674551 -0.395483494 -0.641137302 -0.0814676657 -0.996675432 -0.00105418358 -0.0718392655 -0.995195925 -0.0665146485 -0.98906666 -0.0433779024 -0.140944853 -0.996711314 -0.0139532983 0.0798240751 -0.983822644 -0.0465964936 -0.172979057 -0.996926725 0.0685226396 -0.037970569 -0.946733057 -0.0224696323 -0.321234614 -0.991672933 0.0538358726 -0.116989091 -0.944936514 -0.0681469068 -0.320079595 -0.455803245 -0.678573668 -0.576004505 0.0873258188 -0.966067374 -0.243080214 0.131650537 -0.308125377 -0.942192614 0.854130208 0.369986653 0.365474313 0.982281804 -0.185089305 -0.0294003859 0.100576594 -0.186651304 0.977264345 -0.563513458 0.215295687 0.797558963 -0.475587517 0.367794812 0.799089134 -0.883473337 -0.054107286 -0.465346426 0.0206459574 -0.997237504 -0.0713521838 -0.480780751 0.260734826 0.837178111 -0.497784227 0.0817045793 0.863443851</float_array>
          <technique_common>
            <accessor source="#normals_array" count="57" stride="3">
              <param name="X" type="float" />
              <param name="Y" type="float" />
              <param name="Z" type="float" />
            </accessor>
          </technique_common>
        </source>
        <vertices id="vertices">
          <input semantic="POSITION" source="#positions" />
        </vertices>
        <triangles material="scout_1a1a1a" count="42">
          <input semantic="VERTEX" source="#vertices" offset="0" />
          <input semantic="NORMAL" source="#normals" offset="1" />
          <p>0 0 1 1 2 2 3 3 4 4 5 5 6 6 3 7 5 8 7 9 6 6 5 8 8 10 9 10 10 10 11 11 2 12 8 13 12 14 13 15 14 16 13 17 1 1 0 0 8 18 13 18 11 18 9 19 2 19 4 19 0 20 2 12 11 11 13 21 6 22 7 9 15 23 2 23 14 23 8 24 10 25 15 26 10 27 13 27 2 27 10 28 2 28 15 28 8 24 15 26 16 29 15 26 13 30 16 29 8 31 16 32 14 33 12 34 2 34 13 34 8 35 2 35 9 35 14 36 5 5 12 37 4 4 12 37 5 5 10 38 11 39 13 40 9 41 4 42 0 43 10 38 9 41 11 39 4 42 13 44 0 43 0 43 11 39 9 41 13 45 8 45 1 45 4 4 2 46 12 37 13 15 15 47 14 16 1 48 8 31 14 33 1 49 14 49 2 49 5 50 14 50 16 50 16 51 13 21 5 8 5 8 13 21 17 52 17 52 13 21 7 9 13 44 4 42 18 53 7 9 5 8 17 52 18 54 4 4 3 3 18 55 3 56 6 22 13 21 18 55 6 22</p>
        </triangles>
      </mesh>
    </geometry>
  </library_geometries>
  <library_visual_scenes>
    <visual_scene id="scene">
      <node id="right_ankle_pitch_link">
        <instance_geometry url="#geometry">
          <bind_material>
            <technique_common>
              <instance_material symbol="scout_1a1a1a" target="#scout_1a1a1a" />
            </technique_common>
          </bind_material>
        </instance_geometry>
      </node>
    </visual_scene>
  </library_visual_scenes>
  <scene>
    <instance_visual_scene url="#scene" />
  </scene>
</COLLADA>