<?xml version='1.0' encoding='utf-8'?>
<COLLADA xmlns="http://www.collada.org/2005/11/COLLADASchema" version="1.4.1">
  <asset>
    <created>2026-09-14T00:00:00Z</created>
    <modified>2026-09-14T00:00:00Z</modified>
    <unit name="metre" meter="1" />
    <up_axis>Z_UP</up_axis>
  </asset>
  <library_effects>
    <effect id="scout_1a1a1a_effect">
      <profile_COMMON>
        <technique sid="common">
          <lambert>
            <emission>
              <color>0 0 0 1</color>
            </emission>
            <ambient>
              <color>0.05 0.05 0.05 1</color>
            </ambient>
            <diffuse>
              <color>0.1 0.1 0.1 1</color>
            </diffuse>
          </lambert>
        </technique>
      </profile_COMMON>
    </effect>
  </library_effects>
  <library_materials>
    <material id="scout_1a1a1a" name="scout_1a1a1a">
      <instance_effect url="#scout_1a1a1a_effect" />
    </material>
  </library_materials>
  <library_geometries>
    <geometry id="geometry" name="right_wrist_pitch_link">
      <mesh>
        <source id="positions">
          <float_array id="positions_array" count="75">0.00497319875 -0.0279290918 0.00438843714 0.00156501343 -0.0283513833 0.0142604895 -0.00154170347 -0.034453053 -3.68203473e-05 0.0306633003 -0.0335250497 -0.00972283632 -0.00153847726 -0.022696808 -0.00844222307 -0.000331629883 -0.0297131855 -0.0162020773 0.048985552 0.00182493997 -0.0240025539 0.0527058281 0.0104374634 -0.00951630156 0.0321296863 -0.0271752533 -0.0242916495 0.00408037566 0.0282502566 -0.00614152802 0.020870069 0.0332988165 -0.00984211639 0.00767621212 0.0268831775 -0.0239362027 0.0341496319 0.0241147075 -0.0232152715 -0.0138971061 0.00245512393 -0.0098917326 -0.00216326001 -0.0233387109 0.0311551671 -0.0120744379 0.00270383107 -0.0228024293 0.0405396074 -0.0253151339 0.029838901 -0.000965390413 0.024819836 0.0304656737 0.000877377344 0.0286719389 0.00378986355 0.032035958 0.00417952845 0.029194735 0.0247571152 -0.00978046376 0.0287784226 0.0488651991 0.0188353434 0.0301197506 0.00720481807 -0.0234278832 -0.0235700086 0.0151753193 0.0131339049 0.0286221616 0.006882546 -0.00337741897 0.0293711554</float_array>
          <technique_common>
            <accessor source="#positions_array" count="25" stride="3">
              <param name="X" type="float" />
              <param name="Y" type="float" />
              <param name="Z" type="float" />
            </accessor>
          </technique_common>
        </source>
        <source id="normals">
          <float_array id="normals_array" count="174">0.667946696 -0.716849446 0.199935004 0.862407625 -0.42193526 0.279684991 0.629728854 -0.754431784 0.185133219 -0.223611832 -0.740012527 0.63433367 0.861672878 -0.50159961 0.0769265071 0.926543236 -0.375944644 0.0135390228 0.88693732 -0.455774873 -0.0749095529 -0.559322536 0.818989873 -0.128116548 -0.0669392571 0.990187168 -0.122672223 -0.439748168 0.851622641 -0.285237461 0.88795805 -0.444664568 -0.117490321 0.103825636 0.86498636 -0.490936697 0.721844673 0.497448951 -0.481128663 -0.310185909 -0.599482119 -0.737838626 -0.0485560559 -0.880716383 -0.471148551 -0.0285714511 -0.915281713 -0.401799798 -0.923372865 -0.356088609 0.143469393 -0.912840068 -0.404439986 -0.0561368354 -0.908147991 -0.404291779 0.108698383 -0.875979304 -0.479645193 -0.0509974658 -0.932254314 -0.361744016 0.00657234341 -0.979681551 0.116824791 0.16302149 -0.905457318 0.424135506 0.0160054192 -0.79533416 0.590958416 -0.134950742 0.941907763 -0.335592538 -0.0136918901 -0.95785141 0.219542921 0.185260907 -0.84116888 0.530024946 -0.107277438 -0.0460627154 -0.0079338681 0.99890703 -7.76626985e-05 0.0428441539 0.99908179 -0.0445784628 -0.0377328284 0.998293042 -0.0202030502 0.0476485193 0.998659849 0.0791242793 0.0630951598 0.994866014 -0.922060788 -0.361932814 -0.137144119 -0.956330895 0.0279527418 0.290946454 -0.0137218507 0.010472239 -0.999850988 -0.201590449 -0.360311538 -0.910789192 -0.125235483 -0.0633125156 -0.990104854 -0.139262512 -0.986798167 0.0826757327 -0.218014821 -0.975895226 -0.00990382209 -0.318956763 -0.923157454 -0.214585468 0.750341058 -0.384608924 -0.537646949 0.0214803778 -0.0672136992 0.997507334 0.104173116 0.0252211466 0.99423933 -0.0137448097 0.000357135403 -0.999905467 0.00975416135 0.0187270697 -0.999777079 0.0331665054 0.0573182851 -0.99780488 0.896862388 -0.329069316 0.295552433 -0.0386495516 -0.976443827 0.212281913 -0.0719834417 -0.979840994 0.186359912 0.973737895 -0.184469655 0.133437067 0.586253166 0.795100331 0.155314624 0.582766354 0.810745716 -0.0554499067 0.582069635 0.809465408 -0.0772055462 0.583016038 0.812184989 0.0211621299 0.0189021453 0.976296723 0.215609476 0.0790060908 -0.0627151206 0.994899392 0.116799638 0.957249105 0.264635593 0.580218554 0.806354523 -0.114624612</float_array>
          <technique_common>
            <accessor source="#normals_array" count="58" stride="3">
              <param name="X" type="float" />
              <param name="Y" type="float" />
              <param name="Z" type="float" />
            </accessor>
          </technique_common>
        </source>
        <vertices id="vertices">
          <input semantic="POSITION" source="#positions" />
        </vertices>
        <triangles material="scout_1a1a1a" count="46">
          <input semantic="VERTEX" source="#vertices" offset="0" />
          <input semantic="NORMAL" source="#normals" offset="1" />
          <p>0 0 1 1 2 2 3 3 4 3 5 3 6 4 7 5 8 6 9 7 10 8 11 9 8 6 7 5 3 10 11 9 10 8 12 11 7 12 6 12 12 12 5 13 8 14 3 15 4 16 13 17 5 18 14 19 13 17 1 20 1 20 13 17 4 16 2 21 1 20 4 16 13 22 9 7 15 23 7 5 16 24 3 10 13 22 17 25 18 26 19 27 20 28 21 29 21 29 20 28 16 30 20 28 14 31 16 30 15 32 5 18 13 17 13 22 14 33 17 25 11 34 22 35 15 36 22 35 8 14 5 13 5 13 15 36 22 35 3 37 0 38 4 39 2 40 4 40 0 40 19 27 23 41 20 28 23 41 24 42 20 28 8 43 22 35 11 34 8 43 11 34 6 44 11 34 12 45 6 44 11 9 15 23 9 7 1 1 0 0 14 46 20 28 24 42 14 31 3 37 16 47 14 48 21 49 16 24 7 5 17 50 9 50 18 50 10 51 7 52 12 53 9 7 17 54 10 8 3 37 14 48 0 38 17 55 24 42 23 41 24 42 17 55 14 31 19 27 21 29 23 41 23 41 21 29 17 55 10 8 17 54 21 56 21 57 7 52 10 51 13 22 18 26 9 7</p>
        </triangles>
      </mesh>
    </geometry>
  </library_geometries>
  <library_visual_scenes>
    <visual_scene id="scene">
      <node id="right_wrist_pitch_link">
        <instance_geometry url="#geometry">
          <bind_material>
            <technique_common>
              <instance_material symbol="scout_1a1a1a" target="#scout_1a1a1a" />
            </technique_common>
          </bind_material>
        </instance_geometry>
      </node>
    </visual_scene>
  </library_visual_scenes>
  <scene>
    <instance_visual_scene url="#scene" />
  </scene>
</COLLADA>