<?xml version='1.0' encoding='utf-8'?>
<COLLADA xmlns="http://www.collada.org/2005/11/COLLADASchema" version="1.4.1">
  <asset>
    <created>2026-09-14T00:00:00Z</created>
    <modified>2026-09-14T00:00:00Z</modified>
    <unit name="metre" meter="1" />
    <up_axis>Z_UP</up_axis>
  </asset>
  <library_effects>
    <effect id="scout_1a1a1a_effect">
      <profile_COMMON>
        <technique sid="common">
          <lambert>
            <emission>
              <color>0 0 0 1</color>
            </emission>
            <ambient>
              <color>0.05 0.05 0.05 1</color>
            </ambient>
            <diffuse>
              <color>0.1 0.1 0.1 1</color>
            </diffuse>
          </lambert>
        </technique>
      </profile_COMMON>
    </effect>
  </library_effects>
  <library_materials>
    <material id="scout_1a1a1a" name="scout_1a1a1a">
      <instance_effect url="#scout_1a1a1a_effect" />
    </material>
  </library_materials>
  <library_geometries>
    <geometry id="geometry" name="right_hip_yaw_link">
      <mesh>
        <source id="positions">
          <float_array id="positions_array" count="87">-0.0667901337 0.0366805717 0.00770882098 -0.0471197218 0.0357900858 -0.0416128077 -0.0557767823 0.00156701368 -0.0276081916 -0.0181358457 0.0208909139 -0.0649916381 -0.0148892775 0.056356933 -0.0487215854 0.0281356778 0.0360024646 -0.0561645776 -0.0273434985 0.0679168254 -0.0393493809 -0.0496803746 0.0564690605 -0.0163367689 -0.0548126288 0.00271175103 0.031419728 -0.0487833135 0.0220914707 0.0758511424 -0.0518459231 -0.0115667684 0.0743531138 0.0380732492 0.056235414 -0.037007872 0.0261134375 0.0682016835 -0.0290888455 -0.0396024734 0.0376527719 0.0425390862 -0.0310106855 0.0593282096 0.040113993 -0.0289753564 0.0437096544 0.0743679255 0.0110954735 -0.000860398926 -0.059655793 9.30960741e-05 -0.0071792081 0.0562292486 -0.013104924 0.00104819424 0.0627516434 0.0137560898 0.000629447575 0.0625880361 0.0454185046 0.0595951006 0.0237268973 0.0458083153 0.0355330147 0.0395799354 0.0384977981 0.0398477763 0.0746443346 0.0525995418 -0.00374885974 0.0725692883 0.0618804209 0.00297517329 0.0121170003 0.0487508141 0.000375856238 -0.0374994352 0.0641974509 0.0362768508 -0.00398469251 0.00434183935 -0.0544280522 0.0744613409 0.0166537371 0.0572837703 0.0485827699</float_array>
          <technique_common>
            <accessor source="#positions_array" count="29" stride="3">
              <param name="X" type="float" />
              <param name="Y" type="float" />
              <param name="Z" type="float" />
            </accessor>
          </technique_common>
        </source>
        <source id="normals">
          <float_array id="normals_array" count="234">-0.97550106 -0.182688072 -0.122567147 -0.796275973 -0.0454237275 -0.603225768 -0.868440568 -0.192425832 -0.456928045 -0.458588064 -0.51193738 -0.72637254 -0.189566687 -0.0419934355 -0.980969429 -0.674903214 -0.13967301 -0.724566877 -0.947515368 -0.318975478 0.0216625258 -0.914733052 0.399704278 0.0591606237 -0.963358223 0.267857939 0.0138949696 -0.991561949 0.0859022737 0.0970860571 0.156938881 0.646123827 -0.746923149 0.149862751 0.69910109 -0.699141502 0.141427264 0.640741646 -0.754618049 -0.781662524 0.147405908 0.606032372 -0.386866271 0.918533921 0.0814240351 -0.0684519485 0.990484178 0.119396329 -0.151466921 0.98346138 0.0993050933 -0.728501737 0.675370812 0.114714593 -0.853407979 0.521178007 0.0082614189 0.612363756 0.0321105346 -0.789923787 0.334929973 -0.0658042878 -0.93994242 0.185001418 0.00755181443 -0.982709229 -0.00994561985 0.0777100623 -0.996926367 -0.26974389 0.294172943 -0.916897237 0.218225375 0.357592225 -0.908022821 0.155918956 0.699196339 -0.697720408 0.660960555 0.74061662 -0.120905496 0.687060356 0.716163695 -0.122709304 0.674572587 0.728081286 -0.121858291 0.873480737 0.316468954 0.369971395 0.9414469 0.296916664 0.159744337 0.937469959 0.304172069 0.169202447 0.931617916 0.209213465 0.297183067 -0.527816117 0.630398691 -0.569216609 0.0254483111 -0.00768923806 0.999646544 -0.000160842261 0.0685953945 0.997644544 0.0173818674 -0.0174968969 0.999695837 0.794430673 -0.0107040498 -0.607260466 0.908832788 -0.00976592675 -0.417046338 0.952641308 -0.18352145 -0.242475599 0.06640701 -0.0259952806 0.997453928 0.0143618658 -0.00714403344 0.999871314 0.814945459 0.133652642 -0.56391567 0.0417963937 -0.995197535 -0.0885151774 0.20472315 -0.924477994 -0.321603656 0.0193370786 -0.996713877 -0.0786608905 -0.968406141 -0.231929839 0.0916409045 -0.0083561847 0.999736428 -0.0213823747 -0.883493364 0.380735904 0.272909671 0.00105104758 0.991768956 0.12803629 0.0269723833 0.989511371 0.141914576 0.0127234869 -0.358976454 -0.933259904 -0.299972147 -0.2508367 -0.920379102 0.300529152 -0.319717705 -0.898589313 0.268428594 0.280717164 -0.921490073 0.0567664914 0.977135837 -0.204897851 0.028609436 0.990117729 -0.137289554 0.0448464714 0.983310223 -0.176322937 0.0205558781 0.992814779 -0.11788258 0.00905676559 -0.0215767957 0.999726176 0.168605536 0.632757664 -0.755771101 0.905842364 0.17589663 0.385369927 -0.125768349 0.758562267 -0.639347851 0.0217164326 0.992840707 0.117455073 0.764730275 0.363093585 0.53230691 0.557994008 0.462837577 0.68878448 -0.0054326253 -0.279978901 0.959990799 -0.111471511 0.0135244867 0.99367559 0.0235605612 -0.355212897 0.934488475 -0.165024981 0.174029976 0.970814288 0.6961748 0.707201421 -0.123315826 -0.351004124 -0.639499426 -0.68398577 -0.0800723881 -0.989254594 -0.12232662 -0.0221406892 -0.999288321 -0.0305398442 0.0449650437 -0.998982251 -0.00355501915 -0.0338589773 -0.999339342 0.0132073658 0.0398527049 -0.99906987 0.0164654963 -0.00374002452 -0.999917746 0.0122678969</float_array>
          <technique_common>
            <accessor source="#normals_array" count="78" stride="3">
              <param name="X" type="float" />
              <param name="Y" type="float" />
              <param name="Z" type="float" />
            </accessor>
          </technique_common>
        </source>
        <vertices id="vertices">
          <input semantic="POSITION" source="#positions" />
        </vertices>
        <triangles material="scout_1a1a1a" count="54">
          <input semantic="VERTEX" source="#vertices" offset="0" />
          <input semantic="NORMAL" source="#normals" offset="1" />
          <p>0 0 1 1 2 2 1 1 3 3 2 2 1 4 4 4 5 4 6 5 4 5 7 5 2 2 8 6 0 0 9 7 8 8 10 9 11 10 6 11 12 12 13 13 0 13 8 13 7 14 14 15 6 16 9 7 15 17 13 18 5 19 16 20 3 21 17 22 18 23 19 24 6 11 11 10 4 25 12 26 20 27 11 28 21 29 22 30 23 31 24 32 21 29 23 31 1 33 7 33 4 33 22 34 15 35 9 36 25 37 26 38 24 39 23 40 22 34 27 41 11 42 26 38 5 19 18 43 10 44 8 45 1 46 13 46 7 46 9 7 13 18 8 8 13 47 1 47 0 47 14 48 7 48 13 48 6 16 14 15 12 49 12 49 14 15 20 50 27 51 10 52 17 22 23 53 27 51 17 22 10 52 18 23 17 22 17 22 19 24 23 54 15 55 22 56 13 57 21 58 13 57 22 56 10 59 27 41 22 34 10 59 22 34 9 36 4 25 11 10 5 60 26 61 21 29 24 32 1 62 5 62 3 62 20 50 14 15 28 63 20 64 28 65 21 29 28 66 13 67 21 68 13 67 28 66 14 69 16 20 5 19 25 37 20 27 26 70 11 28 16 71 2 2 3 3 23 72 19 73 24 74 18 43 8 45 2 75 19 73 18 43 2 75 24 74 19 73 25 76 19 73 2 75 16 77 25 76 19 73 16 77 20 64 21 29 26 61 26 38 25 37 5 19</p>
        </triangles>
      </mesh>
    </geometry>
  </library_geometries>
  <library_visual_scenes>
    <visual_scene id="scene">
      <node id="right_hip_yaw_link">
        <instance_geometry url="#geometry">
          <bind_material>
            <technique_common>
              <instance_material symbol="scout_1a1a1a" target="#scout_1a1a1a" />
            </technique_common>
          </bind_material>
        </instance_geometry>
      </node>
    </visual_scene>
  </library_visual_scenes>
  <scene>
    <instance_visual_scene url="#scene" />
  </scene>
</COLLADA>