<?xml version='1.0' encoding='utf-8'?>
<COLLADA xmlns="http://www.collada.org/2005/11/COLLADASchema" version="1.4.1">
  <asset>
    <created>2026-09-14T00:00:00Z</created>
    <modified>2026-09-14T00:00:00Z</modified>
    <unit name="metre" meter="1" />
    <up_axis>Z_UP</up_axis>
  </asset>
  <library_effects>
    <effect id="scout_1a1a1a_effect">
      <profile_COMMON>
        <technique sid="common">
          <lambert>
            <emission>
              <color>0 0 0 1</color>
            </emission>
            <ambient>
              <color>0.05 0.05 0.05 1</color>
            </ambient>
            <diffuse>
              <color>0.1 0.1 0.1 1</color>
            </diffuse>
          </lambert>
        </technique>
      </profile_COMMON>
    </effect>
  </library_effects>
  <library_materials>
    <material id="scout_1a1a1a" name="scout_1a1a1a">
      <instance_effect url="#scout_1a1a1a_effect" />
    </material>
  </library_materials>
  <library_geometries>
    <geometry id="geometry" name="right_hip_roll_link">
      <mesh>
        <source id="positions">
          <float_array id="positions_array" count="138">-0.0378284194 -0.0311117731 -0.366536945 -0.033019498 -0.0366387777 -0.434953779 -0.0373829156 -0.0424775556 -0.338766128 -0.0632153377 -0.0449829549 -0.106699526 -0.0634920225 -0.03611397 -0.182490572 -0.0438997298 -0.0449885093 -0.251823664 0.00168266171 -0.0568948761 -0.0925974548 0.0587805323 0.0454079024 -0.247849151 0.0367719308 0.0580107309 -0.195106775 0.0420116149 0.0534114428 -0.147395849 -0.0441810526 -0.0458860137 -0.0768152773 -0.0402570777 0.0479228012 -0.277994365 -0.0316900164 0.0354077108 -0.443069398 -0.0374441519 0.0310751237 -0.366398394 -0.0318736546 0.0296925064 -0.344450504 -0.0657795221 0.0418763682 -0.173920602 -0.0463728867 0.0502543151 -0.184677795 -0.0631178021 0.0440420024 -0.111677445 0.0139220236 0.0520361811 -0.118462734 -0.0368130133 0.0542295501 -0.135659829 -0.000324469933 0.0594806783 -0.166486725 -0.0225903336 0.0547394454 -0.207681626 -0.0548068509 0.0168443695 -0.0809056535 0.0528554246 -0.032684017 -0.376175582 0.0450765118 -0.0445755944 -0.346269518 0.0479390025 -0.0379014127 -0.419015795 0.0299763493 -0.0431129448 -0.0734925345 0.052232746 -0.0485083126 0.00166241918 0.0288190413 -0.0500879362 -0.00161388586 0.0649168789 -0.0465068072 -0.076491788 0.0664499402 0.0432565473 -0.115683623 0.0337115563 -0.0279225241 0.0471751876 0.0272605643 0.0501625016 -0.209702224 0.0639975816 0.0234792307 -0.0918697044 -0.0241033155 -0.0287901107 -0.347387344 0.0092827417 -0.0337034687 -0.453343123 -0.0118595203 -0.0292612799 -0.377837688 0.0303042084 0.0164450221 -0.0684525073 0.0637644827 0.0175885819 -0.0554360934 -0.0127802072 0.0291673616 -0.378187001 0.026678279 -0.00166530616 -0.0402847156 0.051532466 0.0412451029 -0.379309803 0.0390168428 0.0360942781 -0.438033968 0.0287385322 0.0527528264 -0.00271823234 0.0519900024 0.0530436486 0.000750627485 0.0302791372 0.0173996035 0.0500446521</float_array>
          <technique_common>
            <accessor source="#positions_array" count="46" stride="3">
              <param name="X" type="float" />
              <param name="Y" type="float" />
              <param name="Z" type="float" />
            </accessor>
          </technique_common>
        </source>
        <source id="normals">
          <float_array id="normals_array" count="318">-0.983337641 -0.173229694 -0.0551231094 -0.217452899 -0.976025581 0.00939991791 -0.64787364 -0.756854713 -0.0862012282 -0.16240035 -0.985943377 -0.0392660573 -0.00825274363 -0.970099032 0.242569044 0.469466001 0.882914066 0.00802362338 0.216682032 0.969439566 -0.115046889 0.240998104 0.967012942 0.0824978873 -0.163024873 -0.966106951 0.200150698 -0.983013749 0.171990573 -0.0640558451 -0.65906173 -0.742371559 0.120507486 -0.408012569 0.912625551 -0.0253058858 -0.312650234 0.949311972 -0.03250622 -0.0251679011 0.997490942 -0.0661698133 -0.145189375 0.89712137 0.417244881 0.0451670326 0.899776757 0.434006661 -0.180641651 0.975422025 0.126176327 -0.0327282287 0.99898839 0.0308392458 -0.0922990888 0.99211514 -0.0847845376 -0.962592542 -0.0480507128 0.266658425 -0.840015888 -0.107613683 0.531782508 -0.942075253 -0.0117196646 0.335196793 0.803561091 -0.594590724 -0.0274121761 0.765145481 -0.641415477 -0.0560235269 0.810680985 -0.585082889 -0.0217795875 -0.987751424 0.0642006993 -0.142215967 -0.994142711 0.036723353 -0.101644754 -0.986316562 0.00896187592 -0.164618611 -0.0184946489 -0.797668099 0.602813065 0.0399123542 -0.981371939 0.18792586 0.015841132 -0.985982895 0.166092813 -0.0670853406 -0.99454236 -0.0799063444 0.75886178 -0.648440003 -0.0604511499 -0.992558658 0.00788190309 0.12151213 0.179110423 0.895050645 0.408416241 0.00359580922 -0.910576761 0.413324326 -0.104521446 -0.989709795 -0.0977227986 -0.0358676054 0.954338372 -0.296566755 0.999859095 -0.0138009228 -0.00955481641 0.992614985 0.0120861121 0.12070372 0.995980442 0.0182568375 0.0876909494 -0.524615586 -0.0269731432 -0.850911796 -0.0105538946 -0.995983124 -0.0889171064 -0.0172178037 -0.997291923 -0.0715005845 -0.0315994024 -0.997547507 -0.0624537542 0.0107962498 -0.991010189 -0.133350089 0.000715401489 -0.99658376 -0.082585156 -0.0336261578 0.996025085 -0.0824822113 0.055640161 0.990341425 -0.126996353 0.0956101865 0.992989123 -0.0695078671 0.0238501225 0.998359203 -0.0520578399 -0.107415654 0.99030143 -0.088119261 -0.10869509 0.99020493 -0.0876329765 -0.572197139 0.755749583 0.318485469 -0.105746701 -0.026629474 0.994036496 -0.0899670348 -0.00408124411 0.995936394 -0.0468192622 0.0570970029 0.997270226 -0.14465943 -0.0826448649 0.986024082 -0.0951656252 0.982795715 0.158291236 0.00206392701 0.882111073 0.471036971 -0.0501414016 0.974105656 0.220463052 -0.207319021 -0.0133092972 -0.978182852 -0.18992272 -0.00886207726 -0.981759071 -0.407601267 -0.00710703526 -0.91313237 -0.430941939 0.00467332499 -0.902367532 0.166867837 -0.985789776 -0.0193288345 -0.999174535 0.0122197652 -0.038742356 -0.997771382 -0.0328720696 -0.0580662005 -0.998378754 -0.0400306508 0.0404643826 0.185156107 -0.981601834 0.0466369018 -0.00386063498 -0.998809218 -0.0486334711 0.10199108 -0.994423568 -0.0268258154 -0.0114752604 -0.995654285 -0.0924169347 -0.107392326 -0.992146611 -0.0641248375 -0.994125009 -0.0137759605 -0.107357591 -0.984033525 -0.00202199072 -0.177971825 -0.989117503 -0.0129065169 -0.146560699 0.967444122 0.000273472833 0.253084451 -0.00797754806 0.774466276 0.632564843 0.0636889413 0.99540931 -0.0714421868 0.0608960576 0.874337435 -0.481482804 0.0903772339 0.868390262 -0.487575948 0.141654119 0.856043756 -0.497114897 -0.997477829 -0.0226795003 0.0672580674 -0.999495566 0.0291681625 0.0125627769 0.006869392 -0.0252199061 -0.999658346 -0.0094554266 -0.0425239168 -0.999050677 -0.0247718245 -0.792988062 0.608733356 0.998568535 0.00596828014 -0.0531528071 0.998189807 0.0183707122 -0.0572678149 0.998336315 0.0155107677 -0.0555343255 0.990781784 -0.122011885 0.0588602424 -0.987068653 -0.0834208801 0.136881158 -0.994154632 0.0512129366 -0.0950465575 0.95391053 0.0126720751 0.299823403 0.920064211 0.0167196393 0.391410708 -0.0097418949 0.996866226 -0.0785038993 -0.00428262446 0.997112453 -0.0758179799 -0.00386165129 0.997276425 -0.0736536086 -0.851324439 -0.103454158 0.514338315 -0.797447562 -0.135480538 0.587981641 -0.944126427 -0.0268576108 0.328487337 -0.969172239 0.00543997437 0.246324196 0.165928602 0.849300265 -0.501155376 -0.0932921469 0.825869918 0.556089461 0.903023362 0.041316893 0.427599907</float_array>
          <technique_common>
            <accessor source="#normals_array" count="106" stride="3">
              <param name="X" type="float" />
              <param name="Y" type="float" />
              <param name="Z" type="float" />
            </accessor>
          </technique_common>
        </source>
        <vertices id="vertices">
          <input semantic="POSITION" source="#positions" />
        </vertices>
        <triangles material="scout_1a1a1a" count="88">
          <input semantic="VERTEX" source="#vertices" offset="0" />
          <input semantic="NORMAL" source="#normals" offset="1" />
          <p>0 0 1 0 2 0 3 1 4 2 5 3 3 1 5 3 6 4 7 5 8 6 9 7 10 8 3 1 6 4 11 9 12 9 13 9 11 10 13 10 14 10 15 11 16 12 11 13 17 14 16 12 15 11 17 14 18 15 19 16 20 17 8 6 21 18 3 19 10 20 22 21 23 22 24 23 25 24 14 25 2 26 11 27 26 28 10 8 6 4 27 29 28 30 29 31 23 22 29 32 24 23 17 33 3 19 22 21 9 7 18 15 30 34 31 35 28 30 27 29 29 31 28 30 26 36 21 18 8 6 32 37 30 38 33 39 29 40 14 41 34 41 2 41 25 42 24 43 2 44 35 45 25 42 1 46 25 42 2 44 1 46 36 47 23 48 25 49 36 47 25 49 35 50 1 51 36 47 35 50 36 47 1 51 0 52 0 53 2 53 34 53 26 54 22 55 10 56 22 55 26 54 37 57 38 58 33 59 37 60 39 61 36 62 0 63 13 64 39 61 0 63 24 43 29 65 6 4 40 66 26 67 28 68 41 69 39 70 42 71 42 71 39 70 12 72 12 72 39 70 13 73 6 4 2 44 24 43 15 74 11 27 5 75 15 74 3 19 17 33 4 76 15 74 5 75 27 77 29 40 33 39 11 13 16 12 21 18 33 59 22 78 37 60 21 18 16 12 20 17 16 12 19 16 20 17 9 7 20 17 18 15 20 17 19 16 18 15 8 6 20 17 9 7 11 13 21 18 32 37 32 37 8 6 7 79 43 80 44 81 37 82 28 68 45 83 40 66 40 66 45 83 43 84 23 85 39 61 41 86 39 61 23 85 36 62 29 87 26 28 6 4 29 40 23 88 30 38 7 89 30 38 23 88 7 89 23 88 41 90 3 19 15 74 4 76 38 91 27 77 33 39 16 12 17 14 19 16 31 92 45 83 28 68 26 67 40 66 37 93 43 84 37 93 40 66 44 94 31 95 27 77 42 96 12 97 11 13 41 98 42 96 11 13 41 98 11 13 32 37 0 99 34 100 14 101 13 102 0 99 14 101 6 4 5 3 2 44 41 98 32 37 7 79 2 26 5 75 11 27 33 59 30 34 18 15 44 81 38 103 37 82 17 14 22 78 18 15 30 34 7 5 9 7 33 59 18 15 22 78 43 104 45 104 44 104 31 95 44 94 45 105 44 94 27 77 38 91</p>
        </triangles>
      </mesh>
    </geometry>
  </library_geometries>
  <library_visual_scenes>
    <visual_scene id="scene">
      <node id="right_hip_roll_link">
        <instance_geometry url="#geometry">
          <bind_material>
            <technique_common>
              <instance_material symbol="scout_1a1a1a" target="#scout_1a1a1a" />
            </technique_common>
          </bind_material>
        </instance_geometry>
      </node>
    </visual_scene>
  </library_visual_scenes>
  <scene>
    <instance_visual_scene url="#scene" />
  </scene>
</COLLADA>