<?xml version='1.0' encoding='utf-8'?>
<COLLADA xmlns="http://www.collada.org/2005/11/COLLADASchema" version="1.4.1">
  <asset>
    <created>2026-09-14T00:00:00Z</created>
    <modified>2026-09-14T00:00:00Z</modified>
    <unit name="metre" meter="1" />
    <up_axis>Z_UP</up_axis>
  </asset>
  <library_effects>
    <effect id="scout_1a1a1a_effect">
      <profile_COMMON>
        <technique sid="common">
          <lambert>
            <emission>
              <color>0 0 0 1</color>
            </emission>
            <ambient>
              <color>0.05 0.05 0.05 1</color>
            </ambient>
            <diffuse>
              <color>0.1 0.1 0.1 1</color>
            </diffuse>
          </lambert>
        </technique>
      </profile_COMMON>
    </effect>
  </library_effects>
  <library_materials>
    <material id="scout_1a1a1a" name="scout_1a1a1a">
      <instance_effect url="#scout_1a1a1a_effect" />
    </material>
  </library_materials>
  <library_geometries>
    <geometry id="geometry" name="torso_link">
      <mesh>
        <source id="positions">
          <float_array id="positions_array" count="531">0.0707151219 0.0557695292 0.389220387 0.0699350834 0.100906201 0.0825497657 0.0703528672 0.102485009 0.473627388 0.0718313232 -0.0113898385 0.553719342 0.0679688528 0.0145551395 0.556373119 0.0771861747 -0.0173346847 0.551460743 -0.0430093706 0.0514644682 0.482534528 0.0368155316 0.0414679796 0.485382974 0.0590572953 0.042740155 0.479691297 0.0252099764 -0.0608743876 0.0145025682 -0.0520325862 -0.0264476109 0.0068555586 -0.000957593089 -0.0576132797 0.000202539115 -0.0152313877 0.000284970563 0.744489968 0.0157431848 -0.0482720025 0.742011726 0.0254777651 0.0104358075 0.76131624 -0.0284320302 -0.111512557 0.443902969 -0.0352832191 -0.148068771 0.405929446 -0.0349702872 -0.140198141 0.433876127 -0.0222268123 -0.109437026 0.374420583 -0.0707527325 -0.102889568 0.47397247 -0.00968025438 -0.133683041 0.457804441 -0.0148094036 -0.153343081 0.385583401 -0.0184456725 -0.0297234245 0.531145573 -0.0256643966 -0.0389101095 0.48501873 -0.0451884158 -0.0332344547 0.481960893 0.0208328161 -0.14904201 0.389606655 -0.0432933755 -0.0438925773 0.484925866 -0.0317624323 -0.032150425 0.540320694 -0.0281579718 0.0277065113 0.711581945 -0.0140067134 -0.0526955687 0.708902061 -0.0266929977 -0.0232282449 0.538327932 -0.00595959555 -0.0246679131 0.598684132 -0.00767620793 -0.0106085148 0.58332026 0.0321139134 0.0953474641 0.00878968555 -0.02112999 0.0788280591 0.0340719745 -0.0336337686 0.0972976461 0.00828336086 0.00328058284 -0.032411743 0.575426757 -0.0541652963 0.0400852263 0.0169611033 -0.0496346466 0.0333900116 0.00146558916 -0.0649462789 0.075123094 0.011421808 -0.0291337091 0.0698706135 0.0103265578 -0.0666201115 0.100804061 0.0182491727 0.0388248749 0.0323366448 0.500323057 0.0250897035 0.0311730932 0.505039394 -0.0270658582 0.0361119807 0.485304177 -0.0127664823 0.0163632482 0.583245337 0.0075552389 0.0270224903 0.578191459 -0.0248741806 0.0235680696 0.537488699 -0.0360779203 0.136862531 0.436160117 -0.0337487832 0.149371549 0.403838992 -0.0347551666 0.106939025 0.438045859 -0.0156432185 0.13333495 0.456525832 -0.00806459691 0.154274195 0.383569956 -0.0207751077 0.109742008 0.374822587 0.00204103603 0.00897004642 0.574621737 -0.0133455787 0.000661830709 0.585897505 -0.0322480164 0.0301323906 0.537284136 0.0673315376 0.028652085 0.570919275 0.0596462116 0.0213567615 0.567949891 0.070195429 0.0331960507 0.569980264 -0.0170025826 0.0429129004 0.539632618 0.0011688798 0.0213298183 0.604651988 0.0336388312 -0.0973100886 0.0082703745 -0.0205733348 -0.0775521249 0.0344251655 0.0205901489 -0.0779500902 0.0344581716 0.0640069693 -0.0766548812 0.00830949005 0.0669527128 -0.101640001 0.0186920669 0.0591470487 -0.0542311259 0.0243587364 0.0296859182 -0.134493724 0.446833998 0.0390752479 -0.143110201 0.41620636 0.0310876016 -0.109203167 0.442278296 0.029927969 -0.107762024 0.381260365 0.0356074907 -0.030107595 0.488506943 0.0270611905 -0.040658094 0.484352261 0.0483306944 -0.0459742062 0.482344657 0.038602367 -0.0360313393 0.529087842 0.050450325 -0.0677710921 0.726242781 0.092033878 -0.0384039134 0.741021752 0.0324367546 -0.0298548937 0.547073007 0.0204037931 -0.0420742594 0.542546988 0.0342216492 0.106821686 0.439387172 0.0225800239 -0.00851722807 0.562806666 0.0264669303 -0.0295680538 0.581568003 0.0397407934 -0.0275439899 0.598909736 0.054175213 -0.0235262457 0.573211551 0.00881110411 -0.00982204732 0.574974537 0.0354487896 -0.00460990379 0.59659344 0.0196602065 -0.00870034378 0.536845982 0.0253142212 -0.00222502486 0.600242138 0.0221072268 0.0250033103 0.602295458 0.0301790293 0.0203033499 0.684701264 0.0446287058 -0.0127640916 0.657746732 0.0276502483 -0.0199856553 0.690618455 0.0297983773 -0.000930705457 0.583870411 0.125080019 -0.0444557555 0.695658028 0.0968173817 -0.0691216961 0.668847084 0.0663047209 -0.0373002328 0.578825951 0.0633046627 -0.0595375784 0.682745874 0.076077342 -0.0121980039 0.677054644 0.0783070847 -0.00454510096 0.563918293 0.0789735317 -0.0400189012 0.600259304 0.0755893663 -0.0227703005 0.566136599 0.0658323541 -0.0151497861 0.557848692 0.0753806531 -0.0646168739 0.627981782 0.0885843039 -0.0537373908 0.58568722 0.0710366815 -0.0195794012 0.561808228 0.0733092502 -0.0251085404 0.559006274 0.0673841909 -0.0234182104 0.559701443 0.0729772225 -0.0229874421 0.557548225 0.0730992779 -0.0198644269 0.555456281 0.0714633837 -0.015090744 0.556082785 0.0856355429 -0.0197453927 0.55564779 0.0758922771 -0.0201755185 0.557137549 0.0716274157 -0.0275762491 0.564426243 0.0717500895 -0.000306597532 0.554908216 0.0720003322 -0.0138501264 0.56397748 0.0740286782 -0.00421242276 0.552472472 0.0758510381 0.0178463291 0.554939508 0.0857830718 0.0127269952 0.559170246 0.0687381774 0.0114540709 0.560355723 0.0985728279 -0.0458675809 0.67687273 0.0990249887 0.0271818768 0.74204284 -0.0278485734 -0.0821362361 0.00694316346 0.0580772161 0.0817766562 0.00230991864 0.0700322837 0.0952271074 0.0153456889 0.0384653285 0.0631180331 0.0101230713 0.0188247561 0.149500191 0.387628734 0.0304096416 0.108294427 0.38284412 0.0382009111 0.144574448 0.41398555 0.0255190954 0.133006588 0.451538116 0.00725892559 0.0461285636 0.737869918 0.0317598805 0.00783217978 0.591926455 0.0233040564 0.033860784 0.533425391 0.0228766184 0.0196336918 0.583236337 0.035403654 0.0392896459 0.546252906 0.0258408803 0.0194665845 0.545320749 0.0642434061 0.0358184613 0.583132565 0.0676748604 0.0231468305 0.679002464 0.0758128762 0.0205995589 0.56509608 0.0712673441 0.0729997158 0.684656322 0.0790915042 0.0515018366 0.652145565 0.0187634379 0.0661938936 0.700381041 0.0719220191 0.0203436874 0.556313872 0.0710446835 0.018958183 0.561880052 0.0696920678 0.0223077163 0.557515919 0.0731307492 0.0238069836 0.558194101 0.0722051039 0.0270784255 0.561408758 0.088767454 0.0513707958 0.580844581 0.0753215253 0.0617621541 0.614275396 0.0996566042 0.033447504 0.678717792 0.0998829752 0.0666911155 0.672940731 0.126012921 0.0429524407 0.695664465 0.0526739024 0.0656444058 0.730994225 -0.0701055601 -0.100909993 0.0829251558 -0.0715289116 -0.018616667 0.394488901 -0.0713957995 0.00389116956 0.339809597 -0.0712843239 0.0173968319 0.395947844 0.021553386 0.0812023357 0.0342721529 -0.0677191094 -0.0942007601 0.0120653827 -0.0501099713 -0.0606715344 0.014437844 -0.0616916902 -0.0524725094 0.0254455227 0.0229784455 0.0500076413 0.00520420261 0.0675121993 0.0307557844 0.0176304411 0.0582986921 0.00219417829 0.00654785056 0.0689996406 -0.101180859 0.0823301822 -0.0458911397 0.0338843353 0.482677191 0.0302502867 -0.0260389447 0.531614184 0.071734421 -0.00591711141 0.757097602 0.0700329766 -0.103272282 0.473798037 -0.0686582327 0.101905942 0.0823073313 -0.0707122982 -0.0496585667 0.386647731 -0.0707036778 0.057209041 0.383743942 -0.0713360086 0.102167755 0.473485082 0.071183078 -0.00264678919 0.339008391 0.0713113993 0.0180714726 0.387353957 0.0709349439 -0.0151455626 0.395543575 0.0704838559 -0.0542355403 0.384533703</float_array>
          <technique_common>
            <accessor source="#positions_array" count="177" stride="3">
              <param name="X" type="float" />
              <param name="Y" type="float" />
              <param name="Z" type="float" />
            </accessor>
          </technique_common>
        </source>
        <source id="normals">
          <float_array id="normals_array" count="1602">0.999917269 0.0124569014 -0.00319815311 0.999994159 -0.00285982154 -0.00186944904 0.999978364 0.00436618552 0.00492017902 -0.500612974 -0.0545649379 -0.863949835 -0.562284827 0.00527427811 -0.826926827 -0.545156658 -0.179989338 -0.818784535 0.0869088471 0.844545782 0.528383672 0.0850705206 0.848624587 0.522110403 0.083508864 0.852041304 0.516770661 -0.38710624 -0.749144733 0.537522972 -0.717141092 -0.0363605134 0.69597888 -0.290243566 -0.588860154 0.754322469 -0.136596382 0.118732795 0.983485639 -0.964643657 0.253967941 -0.0704479292 -0.963901579 0.256147295 -0.0726798326 -0.968914688 0.240750268 -0.0569530465 -0.0808200017 -0.996515632 -0.0206086785 -0.110530831 -0.987408936 0.113166168 -0.118032008 -0.988695145 0.0924684405 -0.962054253 0.26143977 -0.0781080276 -0.669148803 -0.104648568 0.735723138 -0.711717308 -0.283628315 -0.642661214 0.578277767 0.704970241 -0.41062364 0.304835409 0.923793912 -0.231689766 0.402350515 0.871305406 -0.280964285 0.0459293015 -0.97530067 0.216053486 0.0402142443 -0.96252197 0.268205553 0.0774413869 -0.943401158 0.322485864 -0.973313391 -0.0462321378 0.224774674 -0.968223512 -0.109620944 0.224781051 -0.95362711 0.173692361 0.245817691 -0.957295001 -0.176131621 0.229268208 -0.615101814 -0.684955597 0.390494078 0.272581935 -0.950945497 0.146293327 0.268350631 -0.95219636 0.14597939 0.269231051 -0.951937795 0.146044925 0.579340756 -0.150245383 0.801118314 0.826275051 -0.47966519 -0.295280993 0.902561963 -0.291369408 -0.316994846 0.803416014 -0.520904064 -0.288412362 0.916721284 -0.238412812 -0.320595443 0.0206209347 -0.856295407 -0.516074598 -0.00163561048 -0.835559666 -0.54939729 -0.0198102016 -0.817362845 -0.575782537 -0.899941385 -0.367047578 -0.235332966 -0.865952671 0.302913249 -0.397956759 -0.90776825 0.216810837 -0.359095991 -0.860135615 -0.0298010577 -0.509194136 -0.127866 -0.00353276217 -0.991785169 -0.0482196622 -0.122055218 -0.991351306 -0.0553790741 -0.172517717 -0.983448446 -0.258566856 0.232415676 -0.937617242 -0.130895823 0.0446634032 -0.990389526 -0.000620551175 -0.97046864 -0.241226599 -0.422872096 0.889143348 0.174938098 -0.355682135 0.91874671 0.171448767 -0.40178901 0.882282376 0.245241567 -0.994618535 -0.0496957302 -0.0909079835 -0.974983215 -0.125030145 -0.183780342 -0.979747236 -0.1110733 -0.166607469 -0.704671323 0.0135561414 0.709404409 -0.623974085 0.318284631 -0.713688493 0.232285976 -0.906985104 -0.351313531 0.221736923 -0.909794807 -0.350864768 0.1646768 -0.923015594 -0.347740948 -0.87885958 0.110795476 0.464036912 -0.953613698 -0.182033017 0.239760056 -0.882479429 0.0408166647 0.46857667 0.694583833 -0.53676182 -0.478999048 -0.0921385735 -0.0725652426 0.993098557 0.664681792 0.744824708 -0.058602076 0.931413591 0.247194484 -0.267139792 0.809776425 -0.1344136 -0.571134984 0.87288636 -0.0130500291 -0.487748951 -0.281567395 0.949799955 0.136381105 0.106463104 0.886977434 -0.449373603 0.176114321 0.925842524 -0.334364057 0.00826737098 0.806057572 -0.591779411 0.00919733755 0.384822935 -0.922944605 -0.0978653654 0.145750105 -0.984469056 -0.00658338564 0.35125038 -0.936258435 0.238269329 -0.34859705 -0.906481028 0.984655142 0.151837274 0.0860217735 0.060418766 -0.955890179 0.287443072 0.028583616 -0.967128515 0.252676606 0.0381832458 -0.969939053 0.240333751 0.173113033 0.305548489 0.936307669 0.0716772676 0.44636029 0.891978085 0.268131852 0.156376287 0.950605989 0.133794725 -0.224633247 -0.965214431 0.134725541 -0.223658994 -0.96531117 0.1347159 -0.223669127 -0.965310156 -0.087288402 0.222836405 0.970940113 -0.0294756256 0.0372839645 0.998869896 -0.0111373356 -0.300421327 0.95374155 0.8194713 -0.281490058 -0.49922958 0.971031487 0.238607526 -0.0128187463 0.98258692 0.127680928 0.134983599 0.982367992 0.167382509 0.0832838938 0.956067324 -0.000182163611 0.293147177 -0.308733374 -0.934663713 0.176316246 -0.225424752 -0.961430371 0.157592207 -0.62319845 -0.745023847 0.237830058 -0.228693143 -0.973491371 0.00374771096 0.0802929625 -0.536468089 0.840092301 0.486934066 -0.263048351 0.832886994 0.908382058 -0.307394296 0.283462077 0.626997292 -0.536966681 0.564394474 0.427667439 -0.652758777 0.625305116 0.0528445467 -0.470120102 0.881019056 0.0136530539 -0.524585128 0.851248503 -0.0170004498 -0.565148771 0.824813843 0.271784395 -0.611845374 -0.742817938 0.086750634 -0.994988084 0.0497293882 -0.00841842033 -0.965450883 0.260449111 0.042887453 -0.990055144 0.133983254 0.201371178 -0.97870183 -0.0399052463 0.273654699 0.829959393 -0.486086994 0.163357779 0.856097043 -0.490318328 -0.139148042 0.988019168 -0.0667530596 -0.00399251748 0.97324729 -0.22972554 -0.175546706 0.984247208 -0.0209945291 0.0961064398 0.934169888 -0.343642563 0.0604785718 -0.0692645833 0.995763421 -0.0128700761 -0.126691654 0.991858661 0.0245995093 -0.0974823609 0.994933188 0.116139524 -0.0250033569 0.992918134 -0.887342155 -0.0120049119 -0.460955262 0.978424489 -0.00276891701 0.206586227 0.977150619 -0.127355412 0.17016837 0.412807107 -0.830359936 0.374289513 0.415408254 -0.823869288 0.385584444 0.406621993 -0.844571769 0.3483634 0.413933903 -0.163172826 0.895563126 0.277365416 -0.243369013 0.929429889 0.583058953 0.113077521 0.804522038 -0.191898286 -0.972478151 -0.132141322 -0.272837311 0.347153991 -0.897242367 -0.356896937 -0.0512734279 -0.932735562 -0.285385251 0.194179326 -0.938535929 -0.555909812 -0.682785392 -0.474097401 -0.581004024 -0.688537896 -0.433993012 -0.579527915 -0.638820231 -0.506019831 -0.348876983 -0.0762960687 -0.934057713 -0.262716353 -0.0449877791 -0.963823736 0.643430412 0.330277741 0.690589547 -0.723085284 0.487627804 0.489251286 -0.707418501 0.515518427 0.483528525 -0.666651607 0.580403388 0.467661798 0.113872841 -0.981057763 -0.156711802 -0.336505473 0.0533200465 -0.940170765 -0.445272237 -0.231191903 -0.865033507 -0.313631445 0.10672909 -0.94352752 -0.584985316 0.00178635202 -0.811041892 -0.577303827 0.000961466692 -0.816528857 -0.175078198 -0.984413266 -0.0166770797 -0.262723148 -0.964356601 0.0315098949 0.0695329159 -0.986945391 -0.145272136 -0.481203169 -0.800953448 -0.35625419 -0.295312792 -0.680289745 -0.670817554 -0.419404745 -0.769513547 -0.481610358 -0.644952714 0.611219645 0.458744586 -0.974273801 -0.090372391 -0.206454277 -0.181791976 -0.578363419 -0.795265675 0.0273896307 0.460793257 -0.887084782 0.289020181 -0.678994954 0.674857855 0.295731932 -0.675688267 0.675268829 0.311712295 -0.66762805 0.676097751 -0.448841512 -0.392213851 -0.802938104 -0.556923628 -0.40638712 -0.724351823 -0.574103355 -0.300199002 -0.761765003 -0.269184858 -0.528702199 -0.804992855 0.917492568 0.276942939 0.285499483 0.997629881 0.0425662287 0.0540623479 0.996694267 0.00833453611 0.0808153227 -0.507212043 -0.392442852 -0.767283916 0.0767280608 -0.643915951 -0.761239111 0.488392204 -0.441112071 -0.752923071 0.359809846 -0.52388972 -0.772059858 -0.281364441 -0.73028487 -0.622509539 0.0969966799 -0.637672544 -0.76417625 0.0177399646 -0.661228776 -0.749974489 -0.360266775 0.489477456 0.794115663 0.276624948 -0.684981287 0.674002469 -0.00875615701 0.998825133 -0.0476623811 0.149804443 -0.89742732 -0.414949149 -0.151694953 0.0129071409 -0.98834306 -0.0298808087 -0.89113158 -0.4527601 0.178511605 0.817859113 0.547028422 0.13281557 0.859359026 0.493823886 0.171239272 0.824903131 0.538713217 -0.611269772 0.234961957 0.75573951 0.91064316 0.18776755 0.368065715 0.591780484 -0.210985318 -0.77799809 0.454856157 -0.732719302 -0.506189942 -0.993342161 -0.112887785 -0.0229708254 -0.868326783 -0.468031734 -0.16417937 -0.942040682 -0.313252538 -0.120134309 0.0656249896 -0.719118953 -0.691781282 -0.0152804153 0.644505739 0.764446795 -0.895024717 0.439185351 -0.0777622163 -0.297853142 -0.0698625967 -0.952051878 0.59911865 -0.0810529068 0.796547115 0.610772848 -0.080023922 0.787751675 0.637283862 -0.0775728226 0.766714931 0.972294331 0.0976108536 0.212404966 0.999005079 -0.0435434468 -0.00963238161 -0.201977894 0.759235203 -0.61868149 -0.667750597 -0.352356106 -0.655709028 -0.517543793 -0.283329517 0.807386398 0.356799245 0.477345705 0.803016424 0.665570855 -0.0747762695 0.742579222 -0.261833996 0.24243708 0.93416661 -0.987517118 -0.143964097 0.0639080629 -0.896519899 0.024598388 0.442320049 0.279362619 0.179133773 -0.943327963 0.238483667 0.186393097 -0.953091383 0.425894856 0.108560078 -0.898236215 -0.130737901 -0.934941053 0.329837531 -0.48735252 -0.385708034 -0.783400774 0.215560332 0.779266834 0.588452995 -0.679215968 -0.157196626 0.716906488 0.33882004 -0.0903638452 -0.936501682 0.569377184 -0.0248164423 -0.821701765 0.477205753 -0.0526453033 -0.877213299 0.169684872 -0.965914309 -0.195490554 0.877941251 0.457148612 0.14224723 0.829275787 0.558437049 0.021208439 0.884878397 0.430233598 0.178575605 -0.334195107 0.929428875 0.156446815 0.968951523 0.0120850969 -0.246955335 0.421879858 -0.806161523 0.414874673 0.912755489 0.302989632 0.273997694 0.463351995 0.0934863612 -0.881229401 0.683656156 -0.097071439 0.723319709 0.646709204 -0.058560621 0.760485232 0.664625049 -0.0835610256 0.742489755 0.568089426 0.135271743 -0.81177336 0.568398952 0.063914381 -0.820266783 0.553834915 0.233975247 -0.799076021 0.575660408 0.314693421 0.754707277 0.83000654 -0.0573488697 0.55479753 -0.230686158 -0.90310508 0.362194836 0.703956723 -0.705458164 0.0823023915 0.13490054 0.625152647 -0.768756151 0.164446697 0.150218025 -0.974880397 0.15724124 0.15741241 -0.974934101 0.16303052 0.151634619 -0.974898994 -0.567265928 -0.779622436 0.265326649 -0.695526719 -0.585019946 0.417126149 -0.720579624 -0.525765181 0.452035397 0.0820260271 0.855244935 0.511691153 0.995385528 -0.0496804342 0.0820941478 0.987017214 0.00399999274 0.16056475 0.985976458 -0.151302278 -0.0704133436 0.923760593 0.141955659 0.355689347 0.796806931 0.285833687 -0.532351255 -0.430613101 0.647219837 0.629030049 0.76853615 0.265947431 -0.581914186 -0.224444389 -0.918677866 0.325047165 0.432147384 -0.72282511 -0.539233208 0.366706401 -0.721080899 -0.587850988 0.329477251 -0.718058944 -0.613054693 0.0501782931 0.0809787065 -0.995451927 -0.879271746 0.201554656 -0.431574941 -0.979736686 0.068760857 -0.188116789 -0.952080369 0.113249585 -0.284108222 0.450266987 0.890670121 -0.0629788116 0.481500417 0.848486006 -0.219610706 0.460912257 0.880594015 -0.110063821 -0.925220907 0.359097481 -0.122537076 -0.930380344 0.341336012 -0.133724287 -0.904133081 0.419000506 -0.0835576952 0.823808908 0.440271169 0.357071728 -0.852977514 -0.185316131 0.487941891 -0.0392433777 0.340711594 0.939348459 0.486983389 -0.720414817 -0.493811339 0.417999387 -0.0192592349 0.90824312 -0.478747904 0.877941549 0.00437284913 -0.428906262 0.903072 0.0223695338 -0.629122019 0.775417924 -0.0541522242 -0.935703516 -0.314763993 -0.159319103 0.108252592 0.794408798 0.597658813 -0.292422891 0.233363628 -0.927378178 -0.0232611969 0.28586787 -0.957986653 -0.165263548 0.578744173 -0.798588216 0.513533115 0.168447927 -0.841373324 0.346738219 0.133592263 -0.928399563 -0.123257838 0.530164361 -0.838888109 -0.588030338 0.300581723 -0.750913441 -0.676964462 -0.0589196272 -0.733653605 -0.633726001 0.160983011 -0.756621301 -0.472333968 0.709480345 -0.523008823 -0.497144818 0.733705997 -0.46316576 -0.522010446 0.573415339 -0.631426871 -0.272311896 0.771157742 -0.575466752 0.672057211 0.725062847 0.1504094 0.228516817 -0.126830801 0.965242982 0.250576109 0.266626447 -0.930656731 0.122491099 -0.0259617474 -0.992129982 -0.19742988 0.0462894514 -0.979223549 0.463410884 0.182429209 -0.867161989 0.170233339 0.175099477 -0.969722033 -0.90868777 -0.417469352 0.00242809858 0.938325465 -0.211812913 0.273277521 0.949018478 -0.306586176 0.0732726529 0.90519464 -0.0595003031 0.420811504 0.16500394 0.107840762 -0.980379581 -0.235074356 -0.06406115 0.969864011 -0.505467474 -0.78844589 0.350507855 -0.0406426527 0.487638921 -0.872098863 -0.411120057 0.657138884 0.631782234 -0.797295392 0.377442896 -0.471016943 -0.842815459 0.254818738 -0.474056423 -0.851698279 0.224367872 -0.473570555 0.409824371 0.453615278 -0.79137671 -0.582941651 -0.762157023 -0.281594902 0.0913901404 0.586604416 -0.804700613 0.786047399 0.0597152971 -0.615275145 0.825326502 0.0707797557 0.560202062 -0.816817939 -0.574693978 0.0503514223 -0.137352601 0.674206257 -0.725658417 0.0786733851 -0.867792428 0.490659565 0.0932769775 -0.853616476 0.512482464 0.134303764 -0.809200168 0.5719769 0.0311385691 -0.908206642 0.417362005 -0.599201202 0.607406974 -0.521550298 -0.668706715 0.433115304 -0.604352891 -0.708148658 0.254487634 -0.658605754 0.405145258 -0.696579516 0.592143834 0.373562306 0.475429386 -0.796503663 0.168097019 0.420639962 -0.891518593 0.299995989 0.458203554 -0.836691022 0.970923305 0.159483939 -0.178529471 0.557098269 0.784253478 -0.273107946 -0.706573665 -0.705626547 -0.0533367544 -0.762110949 -0.0573496819 0.644901454 -0.784593344 -0.087566264 0.613795877 -0.757874727 -0.0519009158 0.650332391 -0.787454128 0.399258941 -0.469583154 0.623525321 -0.148165405 0.767634809 -0.7412166 -0.0311258826 0.670543849 0.129322216 0.408085614 -0.903737724 -0.44779399 0.810624182 -0.377318174 -0.513221443 0.74715203 -0.422335923 -0.526971042 -0.797210515 0.294545263 -0.510673821 0.74115926 -0.435769647 -0.968541205 -0.247102112 0.0294700544 -0.982555509 0.129959226 0.133023709 -0.962151706 0.223257244 0.156270057 -0.939392388 -0.342843384 0.000628768816 -0.421726465 -0.867693961 -0.2631616 0.520433247 -0.238974124 -0.819780827 0.538519084 -0.83930248 0.0746225938 0.291270196 0.951458335 0.099441722 0.256724954 0.953898847 -0.155464932 0.196264893 0.972233355 0.127445787 0.449991494 0.781501472 0.432161033 0.0696303919 0.818473816 0.570308864 0.74432373 -0.1192564 -0.657084584 0.676612854 -0.130541205 -0.724675179 0.605493426 -0.0753765851 -0.792272687 -0.963243842 -0.154376909 -0.219838738 -0.999802887 0.00511059258 -0.0191840734 -0.99998033 -0.00491299946 0.00390322646 -0.9999699 0.00678562326 -0.00376948318 -0.999979854 0.0063513699 -2.08251149e-05 -0.0148468306 0.16256547 0.986586034 0.0519842915 0.855641305 -0.514952004 0.0806333125 0.824103534 -0.560670674 0.00244463352 0.90188396 -0.431971431 -0.295558691 0.220987305 -0.929413617 -0.508398175 0.00895825867 -0.861075521 -0.277514219 0.0472282395 -0.959559977 -0.729906142 0.033345513 -0.682733595 -0.733691692 0.518872201 -0.438711852 0.000194655731 0.250193536 -0.968195796 0.202281609 0.0608204007 -0.97743696 0.109382525 0.166957021 -0.979877949 -0.0163840316 0.0769963861 -0.996896744 0.304673195 0.127772242 -0.943847716 0.230201527 0.00715828408 -0.973116636 0.89485383 -0.122069985 -0.429343104 0.317988843 -0.281038612 -0.905483544 0.386273593 -0.31213212 -0.867966771 0.120838895 0.0509174094 -0.991365433 0.114765704 0.594495356 -0.795866847 0.55587548 -0.0636492446 -0.828825235 0.865644574 -0.0092758676 0.500573099 0.144377664 -0.119141631 -0.982323945 -0.177330106 -0.0812401026 -0.980792582 0.999356031 -0.01617717 -0.0320276879 0.999966085 -0.00682924455 -0.00460843276 0.999827504 -0.0104304971 -0.0153691573 -0.992541432 -0.0416836292 -0.114559822 -0.97042495 -0.00828887522 -0.241260678 -0.977893293 -0.0561936311 -0.201412365 -0.836155951 -0.160762534 -0.524403095 0.27409938 -0.950491965 0.146405309 -0.962801397 0.107442625 0.247930631 -0.879531503 -0.0164002869 0.475557894 -0.994368494 0.0795000121 -0.0700788572 0.0512605347 -0.882043004 -0.468372136 -0.710454047 -0.657355726 0.251273632 0.870005667 -0.221813768 -0.440328032 -0.327158153 0.909706771 0.2557365 -0.507341146 -0.198516637 -0.838567913 0.239258647 -0.0845768973 0.967265248 -0.309216112 0.111898936 -0.944385529 0.00176941836 -0.999655187 -0.0261994246 -0.0246857051 -0.998726368 -0.0440033041 0.00344444183 -0.999969125 -0.00706410687 0.0925368592 -0.99347651 0.0666432977 0.0979818106 -0.991731286 0.0828772485 -0.99977994 0.00722087733 -0.0196965151 -0.999863148 -0.0160308704 -0.00409343001 -0.999944568 0.00774857448 -0.00712887105 -0.999988019 -0.00489428081 -0.000247540738 -0.999992371 0.00104321714 -0.00375844142 0.989879191 0.0507561527 0.132525474 -0.526801109 -0.233703285 -0.817229092 -0.175099373 0.442610741 0.87945205 -0.865321875 -0.189721227 -0.463922262 0.00889004767 -0.164098397 0.986403942 0.153137371 -0.0553935915 0.986651182 0.023799831 -0.96561867 0.258870989 0.916484714 0.294558644 0.270723045 0.824576795 0.565334857 0.0216700379 0.816577494 0.576739788 0.0239252411 0.797028184 0.603234112 0.0292355437 -0.955278635 0.158615917 0.249567032 -0.644395113 0.764325917 0.0236821044 -0.0144076804 0.95268327 0.30362314 0.00764269242 0.958822608 0.283902764 -0.183142185 0.921188354 0.343323439 0.364118308 -0.929504037 0.0586527139 0.929015636 0.304539204 -0.210204363 -0.767985821 0.247010484 0.590917587 -0.657669246 0.582140028 0.47810474 0.837266564 0.161545992 0.522386432 0.238168135 0.945789814 -0.220811069 -0.829898298 0.0820538625 0.551847816 -0.524087012 0.730388939 -0.438023716 -0.618203282 -0.00369028212 -0.78600961 -0.603706717 -0.00384124601 -0.797197223 -0.617641151 -0.00369619974 -0.78645134 -0.602691472 -0.00385169243 -0.79796505 0.102344394 -0.122393064 0.987190723 0.254800886 0.0323069394 0.966453731 -8.69352298e-05 -0.358538866 0.933514774 0.0187216569 0.996663988 -0.0794380382 0.0393268093 0.99812907 -0.0468163788 0.0101757841 0.999486208 -0.0303937849 0.0148075186 0.99839431 -0.0546764508 -0.578131258 0.658202291 -0.482217848 0.135826454 -0.222505927 -0.965423346 0.0584889613 0.401822299 -0.913847864 0.979613304 -0.150370657 0.133215621 -0.0162315201 -0.999597371 -0.0232739896 -0.050200779 -0.994132161 -0.0958183184 -0.0507029481 0.939962506 -0.33749029 0.924953401 0.125021756 -0.358930111 0.0844946876 0.104885623 0.990888298 -0.911921859 0.0774082914 -0.402996838 -0.844691873 0.196837127 -0.497745663 0.0294538364 -0.944811046 0.326289088 -0.999468505 0.00664478727 -0.0319141224 -0.999438167 0.00695763761 -0.0327871591 0.785807133 0.617634654 0.0321657881 -0.39858216 0.0411257669 -0.916210115 -0.287163645 0.251076192 -0.924390495 -0.0693304315 0.188181624 -0.979684114 0.107771732 -0.388784438 0.915003777 -0.897004724 0.436109304 -0.072050415 0.78008765 -0.359675974 0.511953533 -0.288061947 -0.0961857364 -0.952768922 0.0358083397 0.980745256 -0.191980526 0.0306285713 0.970286727 -0.240011662 0.0577923097 0.979058623 0.19520314 0.10956268 0.925450981 0.362679631 0.0195016004 -0.444647074 -0.895493567 0.15784803 -0.92437762 -0.347289532 0.205175996 -0.0426713638 -0.977794409 -0.0760873035 0.901224911 0.426619649 0.172381669 0.142257392 -0.974703729 -0.752605677 0.649415314 -0.108832367 0.901345253 0.00865148567 -0.433014899 -0.366075695 -0.055384282 -0.928935528 0.06595622 -0.915470183 -0.39694348 -0.563519299 0.360841095 -0.743128359 -0.10197293 0.119296744 0.987608135 -0.163862541 0.0727440864 0.983797431 0.000720477023 -0.182865143 0.983137727 -0.365589678 0.0274304431 0.930371821 -0.58061856 0.120753996 0.805171132 -0.356716424 0.0238131694 0.933909178 -0.0055638128 -0.0107295923 0.999926984 0.00963639282 0.00720537081 0.99992758 -0.107137278 0.00948885735 -0.994198978 0.999990463 -0.00374187063 -0.0022549131 0.999993205 0.00241163326 0.00278220535 -0.780199349 0.341898233 -0.523826838 -0.0068159462 -0.759006262 -0.651047587 0.036859557 0.969315231 0.243041918 0.0448914655 0.950355053 0.307912409 0.999964774 -0.00766307814 0.00342930574 0.999951482 -0.00796547532 0.00579645624 0.999911427 -0.0132217044 -0.0015118958 0.961401105 0.104194142 0.254659563 0.982364237 0.181299269 0.0457285531 0.963952482 0.264165759 0.0318124928 -0.925165415 -0.154740199 -0.346589774 -0.751983583 0.336093605 0.567064106 0.426336467 0.904088497 0.02934663 0.00243123318 0.532706857 0.84629637 -0.386241615 -0.378640085 -0.841099918 -0.273046911 -0.37231648 -0.887032032 -0.656973183 -0.367629081 -0.658205986 -0.742498696 -0.353005409 -0.56928283 0.210720077 -0.515221357 0.830749094 -0.151295841 0.973255336 0.172868937 -0.947455168 -0.182312787 0.262851268 0.576477945 -0.0225671064 -0.816801012 -0.0980013534 0.995161116 -0.00707654143 0.107345268 0.994189799 -0.00798083842 0.0652532578 0.995693803 0.0658472255 -0.0722660422 0.99537909 0.0632306412 -0.0674334764 0.995679319 0.0638386682 0.0496883653 0.996009231 0.0741395429 -0.173738927 0.0252751205 -0.984467328 -0.915526569 0.211949006 0.341889858 -0.497863412 -0.845521092 0.192940831 0.398706973 0.908906281 -0.122156084 0.874586105 -0.4767344 0.0884499475</float_array>
          <technique_common>
            <accessor source="#normals_array" count="534" stride="3">
              <param name="X" type="float" />
              <param name="Y" type="float" />
              <param name="Z" type="float" />
            </accessor>
          </technique_common>
        </source>
        <vertices id="vertices">
          <input semantic="POSITION" source="#positions" />
        </vertices>
        <triangles material="scout_1a1a1a" count="406">
          <input semantic="VERTEX" source="#vertices" offset="0" />
          <input semantic="NORMAL" source="#normals" offset="1" />
          <p>0 0 1 1 2 2 3 3 4 4 5 5 6 6 7 7 8 8 9 9 10 9 11 9 12 10 13 11 14 12 15 13 16 14 17 15 18 16 15 17 19 18 15 13 18 19 16 14 20 20 15 20 17 20 16 21 18 21 21 21 22 22 23 23 24 24 25 25 16 26 21 27 24 28 26 29 27 30 28 31 29 32 12 10 27 33 26 34 23 35 22 36 30 36 27 36 30 37 31 38 27 39 30 37 32 40 31 38 33 41 34 42 35 43 31 44 32 44 36 44 37 45 38 46 10 47 39 48 40 49 37 50 41 51 35 52 39 48 42 53 43 53 44 53 45 54 46 55 47 56 48 57 49 58 50 59 51 60 48 60 50 60 49 61 52 61 53 61 54 62 55 63 44 64 45 65 56 66 55 67 57 68 58 68 59 68 56 69 47 69 60 69 56 70 45 70 47 70 60 71 46 72 54 73 61 74 46 55 45 54 62 75 63 76 64 77 65 78 62 79 9 80 62 81 65 81 66 81 66 82 65 82 67 82 68 83 20 84 69 85 70 86 20 87 68 88 71 89 25 90 18 91 24 92 23 93 72 94 71 95 69 95 25 95 71 96 70 97 69 98 70 97 68 99 69 98 73 100 74 101 75 102 76 103 13 11 29 32 13 11 76 104 77 105 75 106 78 107 79 108 80 109 51 110 50 111 36 112 81 112 82 112 83 113 31 114 82 115 84 116 83 113 82 115 55 117 85 118 22 22 85 119 86 120 87 121 85 119 88 122 86 120 61 123 31 124 83 125 89 126 61 123 83 125 90 127 91 127 92 127 78 107 93 128 82 129 94 130 76 131 95 132 86 133 88 134 96 135 95 136 76 103 29 32 95 137 29 138 97 139 96 140 83 141 84 142 92 143 98 144 97 139 83 145 96 145 88 145 99 146 96 147 100 148 98 149 92 149 91 149 93 150 101 151 84 152 93 153 4 4 102 154 95 155 97 156 103 157 103 158 96 159 104 160 100 148 96 147 103 161 97 162 100 162 103 162 96 159 101 163 104 160 105 164 106 164 107 164 108 165 105 166 107 167 109 168 107 169 102 170 107 169 109 168 108 171 109 172 110 173 105 174 102 170 5 175 109 168 104 176 106 177 108 178 106 179 104 179 107 179 109 180 111 181 104 176 108 178 109 180 104 176 112 182 108 182 106 182 105 166 108 165 111 183 105 184 111 184 109 184 112 185 109 185 5 185 112 186 111 186 108 186 111 187 112 187 5 187 102 170 107 169 84 142 84 188 101 189 105 190 84 142 107 169 96 140 113 191 101 191 107 191 105 192 113 192 106 192 105 193 101 193 113 193 107 194 101 194 96 194 112 195 104 196 101 197 112 198 113 198 107 198 112 199 107 199 104 199 113 200 112 200 106 200 102 201 114 201 110 201 102 202 3 203 114 204 114 205 115 206 110 173 110 207 5 207 102 207 3 3 5 5 110 208 112 209 110 209 109 209 112 210 3 210 110 210 116 211 114 204 3 203 116 212 3 212 112 212 117 213 116 214 112 195 116 215 118 216 5 217 115 218 93 218 102 218 93 150 115 219 101 151 105 190 102 220 84 188 115 221 102 221 105 221 110 173 115 206 105 174 115 222 119 223 101 224 95 155 103 157 104 225 100 226 95 227 104 228 97 229 120 229 100 229 100 230 120 230 95 230 94 130 77 231 76 131 111 232 100 226 104 228 5 217 118 216 111 233 118 234 99 235 111 236 120 237 94 238 95 239 121 240 77 105 94 241 122 242 62 242 66 242 123 243 124 243 125 243 33 244 124 244 123 244 126 245 127 246 53 247 30 248 36 249 32 250 7 7 42 251 8 8 128 252 80 253 127 254 128 252 129 255 80 253 128 256 127 256 126 256 130 257 12 10 14 12 85 258 54 258 88 258 131 259 54 259 87 259 131 260 88 261 54 262 89 263 83 263 88 263 46 264 132 265 87 266 46 267 89 268 133 269 133 270 89 271 134 272 135 273 132 273 46 273 41 274 39 274 37 274 136 275 131 275 86 275 88 261 131 260 136 276 136 277 89 277 88 277 132 278 134 279 7 280 82 281 81 281 78 281 119 282 4 282 93 282 90 283 137 284 91 285 91 286 137 284 98 287 58 288 138 288 119 288 89 289 58 290 119 291 89 292 59 293 58 294 139 295 140 295 141 295 44 296 6 296 56 296 4 4 3 3 102 154 117 297 4 297 116 297 117 298 114 299 4 300 117 298 118 301 114 299 4 302 118 216 116 215 138 303 117 213 101 197 142 304 143 305 119 306 142 304 119 306 114 205 144 307 118 216 4 302 118 308 142 308 114 308 142 309 118 309 144 309 144 310 145 310 142 310 145 311 144 311 143 311 57 312 146 313 145 314 117 298 147 315 118 301 117 316 143 316 142 316 142 317 147 315 117 298 145 318 147 318 142 318 117 319 145 319 143 319 138 303 145 320 117 213 145 321 146 321 147 321 143 322 58 323 4 324 138 325 58 323 143 322 58 326 144 327 4 328 146 329 59 329 144 329 143 330 59 331 138 332 144 333 59 333 143 333 138 334 144 334 57 334 138 303 57 335 145 320 146 336 144 337 138 338 59 339 146 313 57 312 118 234 136 340 99 235 146 336 138 338 147 341 59 331 147 342 138 332 136 343 147 344 59 293 140 345 136 345 118 345 148 346 147 344 136 343 140 347 148 348 136 349 139 350 148 348 140 347 149 351 141 351 140 351 98 352 149 352 97 352 147 353 150 353 140 353 150 354 147 355 139 356 121 240 151 357 152 358 140 359 150 360 149 361 152 358 151 357 150 354 53 362 50 59 49 58 153 363 154 364 155 365 154 364 156 366 155 365 6 367 44 367 7 367 157 368 125 369 40 370 158 371 159 372 122 373 10 47 160 374 37 45 37 45 40 375 38 46 40 376 125 377 161 378 38 379 40 376 161 378 161 378 125 377 162 380 163 381 161 378 162 380 162 382 67 382 163 382 163 381 67 383 9 384 10 385 9 385 122 385 160 374 10 47 159 372 159 372 10 47 122 373 67 386 65 78 9 80 151 387 149 361 150 360 121 240 94 241 151 388 11 389 10 390 38 379 11 389 38 379 161 378 11 389 161 378 163 381 66 391 124 392 164 393 164 393 124 392 1 1 73 394 79 395 87 396 5 397 114 397 116 397 27 33 23 35 22 398 55 67 56 66 165 399 24 24 55 117 22 22 31 400 55 67 27 30 87 266 132 265 43 401 33 41 157 402 34 42 13 11 12 10 29 32 73 100 75 102 166 403 36 404 22 404 85 404 136 343 59 293 89 292 141 405 152 358 139 356 85 406 55 406 54 406 14 12 13 11 167 407 84 152 82 408 93 150 39 48 35 52 40 49 71 409 153 410 164 411 71 409 164 411 70 412 70 412 164 411 168 413 13 11 77 105 167 407 153 363 155 365 169 414 154 364 153 363 170 415 155 365 156 366 171 416 170 415 153 363 19 417 169 414 155 365 171 416 19 417 172 418 156 366 170 415 19 417 154 364 154 364 19 417 156 366 172 418 169 414 171 416 156 366 172 418 171 416 86 133 96 135 99 235 75 106 134 419 93 128 75 420 79 420 166 420 165 421 42 421 44 421 125 422 157 422 33 422 23 93 26 423 74 424 69 85 20 84 17 425 25 25 69 85 16 26 69 85 17 425 16 26 100 226 111 232 99 426 87 427 75 428 72 429 6 430 165 399 56 66 130 257 14 12 152 358 56 431 60 431 44 431 51 432 49 433 48 434 9 435 63 435 122 435 60 71 54 73 44 436 60 437 47 437 46 437 130 257 28 438 12 10 28 438 130 257 141 405 114 439 5 439 4 439 62 75 122 440 63 76 55 67 61 441 45 65 58 326 57 442 144 327 124 443 66 444 162 445 67 446 162 445 66 444 168 447 8 448 74 424 73 449 72 94 23 93 124 450 41 451 169 452 1 453 124 450 169 452 87 454 72 454 73 454 25 90 21 455 18 91 74 456 24 456 72 456 147 457 140 457 118 457 164 411 153 410 66 458 66 458 153 410 158 459 34 460 157 368 40 370 34 461 40 461 35 461 9 384 11 389 163 381 168 447 2 462 8 448 85 463 79 395 36 464 153 410 71 409 18 16 168 413 19 18 15 17 70 412 168 413 15 17 153 410 18 16 19 18 31 114 36 465 82 115 41 466 158 467 169 414 153 363 169 414 158 467 72 429 75 428 74 468 90 283 28 469 141 470 141 470 149 471 137 284 29 138 28 469 92 143 97 139 29 138 92 143 149 471 98 287 137 284 137 284 90 283 141 470 28 469 90 283 92 143 129 472 51 110 80 109 87 396 79 395 85 463 93 128 78 107 75 106 31 400 61 441 55 67 77 105 121 240 167 407 135 473 133 270 134 272 81 474 36 474 79 474 123 475 125 475 33 475 33 476 35 477 41 451 41 451 124 450 33 476 126 478 52 479 49 433 66 480 158 480 122 480 165 481 44 64 55 63 74 424 73 449 23 93 125 377 124 482 162 380 43 483 7 483 44 483 53 247 52 484 126 245 43 485 132 278 7 280 158 486 41 486 160 486 37 487 160 487 41 487 165 488 8 488 42 488 158 371 160 374 159 372 24 28 27 30 55 67 119 291 93 489 89 289 2 462 172 490 6 491 8 448 2 462 6 491 19 492 168 447 26 423 168 447 74 424 26 423 19 493 26 494 24 495 172 490 19 493 6 491 19 493 24 495 6 491 24 496 74 424 165 497 74 424 8 448 165 497 24 498 165 498 6 498 173 499 1 1 0 0 0 0 174 500 173 499 167 407 121 240 14 12 46 264 87 266 54 501 64 502 63 502 9 502 128 503 126 478 49 433 129 504 128 503 51 432 51 432 128 503 49 433 152 358 141 405 130 257 2 2 168 505 175 506 164 393 1 1 173 499 0 0 2 2 174 500 174 500 2 2 175 506 164 393 173 499 176 507 175 506 168 505 176 507 176 507 173 499 175 506 174 500 175 506 173 499 168 505 164 393 176 507 150 354 139 356 152 358 134 419 89 508 93 128 134 419 42 509 7 510 62 511 64 511 9 511 134 512 132 512 135 512 133 269 135 513 46 267 70 86 15 514 20 87 43 515 42 516 75 517 43 515 75 517 87 518 75 106 42 509 134 419 78 107 81 519 79 108 89 520 46 55 61 74 86 521 131 521 87 521 14 12 121 240 152 358 112 195 101 197 117 213 138 522 101 224 119 223 115 206 114 205 119 306 99 235 136 340 86 133 1 453 169 452 53 523 127 524 1 453 53 523 1 453 127 524 2 525 53 523 169 452 50 526 169 452 172 527 50 526 2 525 127 524 80 528 172 527 2 525 80 528 172 527 80 528 50 526 97 529 149 529 120 529 119 530 143 530 4 530 30 248 22 531 36 249 139 356 147 355 148 532 79 533 73 533 166 533 94 238 120 237 149 361 94 238 149 361 151 387</p>
        </triangles>
      </mesh>
    </geometry>
  </library_geometries>
  <library_visual_scenes>
    <visual_scene id="scene">
      <node id="torso_link">
        <instance_geometry url="#geometry">
          <bind_material>
            <technique_common>
              <instance_material symbol="scout_1a1a1a" target="#scout_1a1a1a" />
            </technique_common>
          </bind_material>
        </instance_geometry>
      </node>
    </visual_scene>
  </library_visual_scenes>
  <scene>
    <instance_visual_scene url="#scene" />
  </scene>
</COLLADA>