<?xml version='1.0' encoding='utf-8'?>
<COLLADA xmlns="http://www.collada.org/2005/11/COLLADASchema" version="1.4.1">
  <asset>
    <created>2026-09-14T00:00:00Z</created>
    <modified>2026-09-14T00:00:00Z</modified>
    <unit name="metre" meter="1" />
    <up_axis>Z_UP</up_axis>
  </asset>
  <library_effects>
    <effect id="scout_1a1a1a_effect">
      <profile_COMMON>
        <technique sid="common">
          <lambert>
            <emission>
              <color>0 0 0 1</color>
            </emission>
            <ambient>
              <color>0.05 0.05 0.05 1</color>
            </ambient>
            <diffuse>
              <color>0.1 0.1 0.1 1</color>
            </diffuse>
          </lambert>
        </technique>
      </profile_COMMON>
    </effect>
  </library_effects>
  <library_materials>
    <material id="scout_1a1a1a" name="scout_1a1a1a">
      <instance_effect url="#scout_1a1a1a_effect" />
    </material>
  </library_materials>
  <library_geometries>
    <geometry id="geometry" name="wrist_yaw_link">
      <mesh>
        <source id="positions">
          <float_array id="positions_array" count="75">0.0353947766 -0.0286906436 0.0318074375 -0.0139646074 -0.0155575639 0.0397634543 -0.0131445155 -0.0160290301 -0.0396077484 0.0361369997 0.0124960467 0.0414200686 0.0628779829 -0.00538966805 0.0196065586 0.0627063587 0.00723035121 0.0189770982 0.0360706896 -0.0125208246 0.0410509631 0.0630215183 0.0188984089 0.0049324953 0.050953079 0.02791542 0.0145770013 -0.0132419672 0.0159245078 0.0396448858 -0.0204084925 0.000389174675 0.04269059 0.0522187091 -0.0279025994 0.0126162227 0.0630155727 -0.018903194 0.00494764978 0.0352666304 0.0286386143 0.0318078287 -0.013876861 0.0156713855 -0.0397218801 -0.0204085913 -0.000383231294 -0.0426913537 0.0362054743 0.0124657927 -0.0413711891 0.036018122 -0.0126457158 -0.0410600603 0.0354668982 -0.0283595566 -0.0320460349 0.0525817536 0.0279379636 -0.0111295925 0.0629578754 0.0140185272 -0.0145037742 0.035064023 0.0285303555 -0.0318775848 0.0627633929 0.00336797535 -0.01997393 0.0629735366 -0.0116821611 -0.0169360321 0.0517449267 -0.0279248394 -0.012344013</float_array>
          <technique_common>
            <accessor source="#positions_array" count="25" stride="3">
              <param name="X" type="float" />
              <param name="Y" type="float" />
              <param name="Z" type="float" />
            </accessor>
          </technique_common>
        </source>
        <source id="normals">
          <float_array id="normals_array" count="180">-0.167742118 -0.98582983 -0.0014453847 -0.256658554 -0.966497183 0.00308907917 -0.250133961 -0.968209863 -0.00164916704 0.661332428 0.22744064 0.714779854 0.689756811 -0.23871465 0.68355751 0.682600558 0.299943715 0.666400969 0.644377291 -0.219626337 0.73249042 0.729433596 0.666019559 0.156027704 0.68458271 0.58092463 0.44031018 -0.0170900635 0.25450924 0.966919303 -0.00963816792 0.00102763053 0.999953032 0.0118869049 0.260776788 0.965325952 0.702996671 -0.599673808 0.382344067 0.748305738 -0.647258699 0.145240173 0.648009062 -0.438088328 0.623027146 -0.0105215209 -0.23837316 0.971116662 0.0139047792 -0.266262919 0.963800132 0.686309755 0.399071008 0.608047128 0.00465092435 0.511803627 0.859089911 -0.923986793 0.382417381 -0.0023170833 -0.910438538 0.413619429 0.00454266788 -0.907582164 0.419832796 0.00592123671 -0.926048636 0.377388805 -0.00341297104 0.00779923424 -0.496516377 0.867992342 -0.909629464 -0.415386021 -0.00535528641 -0.9246521 -0.380806625 0.00218247296 -0.926941991 -0.375189275 0.00339521118 -0.906471729 -0.422210813 -0.00685805222 0.011884761 0.259725004 -0.965609491 -0.00965135824 -0.00337942853 -0.999947727 -0.0162995588 0.24420616 -0.969586372 0.0145292059 -0.265865952 -0.963900506 -0.0114668841 -0.249076441 -0.968415916 0.00863783062 -0.497791141 -0.8672539 0.689072192 0.658560514 -0.302452445 0.708381474 0.511569083 -0.486305177 0.629811347 0.472458541 -0.61653924 0.00423172489 0.508983672 -0.860765755 0.67012018 0.102157213 -0.735188961 0.638486087 -0.214679822 -0.739086032 0.645745277 0.219449714 -0.731337726 0.719679415 -0.415162593 -0.556508362 0.697762191 -0.638503492 -0.324717015 0.625730932 -0.463825405 -0.627157748 0.0304758213 0.999531567 0.00280739227 -0.171815857 0.985128999 -0.000416669878 0.0418780111 0.999122143 -0.00109798007 -0.166425228 -0.986043692 -0.00453189993 0.999985874 -0.00348137971 0.00401889393 0.999263525 0.0153430998 0.0351705998 0.999938965 0.00443502562 0.010119766 0.999990702 0.00335635338 0.00271470984 0.999969006 0.00134356285 -0.00776145654 0.999973297 -0.000191563158 -0.0073041264 0.998975456 0.00486604171 -0.0449926741 -0.253865153 0.967239201 -0.000931037997 -0.165678129 0.986179113 -0.00124843186 -0.253695607 0.967283547 -0.00105550827 0.0388611741 -0.999235153 -0.00435238471 0.0262209587 -0.999656081 0.000393127732</float_array>
          <technique_common>
            <accessor source="#normals_array" count="60" stride="3">
              <param name="X" type="float" />
              <param name="Y" type="float" />
              <param name="Z" type="float" />
            </accessor>
          </technique_common>
        </source>
        <vertices id="vertices">
          <input semantic="POSITION" source="#positions" />
        </vertices>
        <triangles material="scout_1a1a1a" count="46">
          <input semantic="VERTEX" source="#vertices" offset="0" />
          <input semantic="NORMAL" source="#normals" offset="1" />
          <p>0 0 1 1 2 2 3 3 4 4 5 5 3 3 6 6 4 4 7 7 8 8 5 5 8 8 3 3 5 5 9 9 10 10 3 11 11 12 12 13 4 4 6 6 0 14 4 4 0 14 11 12 4 4 10 10 1 15 6 16 13 17 3 3 8 8 13 18 9 9 3 11 14 19 10 20 9 21 14 19 15 22 10 20 1 15 0 23 6 16 15 24 1 25 10 26 15 24 2 27 1 25 16 28 15 29 14 30 16 28 17 31 15 29 17 31 2 32 15 29 17 31 18 33 2 32 7 7 19 34 8 8 20 35 21 36 19 34 21 37 16 28 14 30 22 38 17 39 16 40 22 38 23 41 17 39 23 41 24 42 18 43 19 44 21 45 8 46 23 41 18 43 17 39 20 35 19 34 7 7 16 40 21 36 20 35 20 35 22 38 16 40 12 13 11 12 24 42 23 41 12 13 24 42 2 2 18 47 0 0 7 48 5 49 4 50 12 51 23 52 20 53 23 52 22 54 20 53 20 53 7 48 4 50 4 50 12 51 20 53 10 10 6 16 3 11 21 45 14 55 13 56 14 55 9 57 13 56 11 58 18 47 24 59 0 0 18 47 11 58 21 45 13 56 8 46</p>
        </triangles>
      </mesh>
    </geometry>
  </library_geometries>
  <library_visual_scenes>
    <visual_scene id="scene">
      <node id="wrist_yaw_link">
        <instance_geometry url="#geometry">
          <bind_material>
            <technique_common>
              <instance_material symbol="scout_1a1a1a" target="#scout_1a1a1a" />
            </technique_common>
          </bind_material>
        </instance_geometry>
      </node>
    </visual_scene>
  </library_visual_scenes>
  <scene>
    <instance_visual_scene url="#scene" />
  </scene>
</COLLADA>