<?xml version='1.0' encoding='utf-8'?>
<COLLADA xmlns="http://www.collada.org/2005/11/COLLADASchema" version="1.4.1">
  <asset>
    <created>2026-09-14T00:00:00Z</created>
    <modified>2026-09-14T00:00:00Z</modified>
    <unit name="metre" meter="1" />
    <up_axis>Z_UP</up_axis>
  </asset>
  <library_effects>
    <effect id="scout_1a1a1a_effect">
      <profile_COMMON>
        <technique sid="common">
          <lambert>
            <emission>
              <color>0 0 0 1</color>
            </emission>
            <ambient>
              <color>0.05 0.05 0.05 1</color>
            </ambient>
            <diffuse>
              <color>0.1 0.1 0.1 1</color>
            </diffuse>
          </lambert>
        </technique>
      </profile_COMMON>
    </effect>
  </library_effects>
  <library_materials>
    <material id="scout_1a1a1a" name="scout_1a1a1a">
      <instance_effect url="#scout_1a1a1a_effect" />
    </material>
  </library_materials>
  <library_geometries>
    <geometry id="geometry" name="L_hand_base_link">
      <mesh>
        <source id="positions">
          <float_array id="positions_array" count="189">-0.00252178032 -0.0671080798 0.0381619781 -0.00744179357 -0.127122939 0.0380161926 0.00622638268 -0.123777211 0.0386327766 0.00906850491 -0.129398435 0.0370528437 0.0122796176 -0.0961788818 0.0349660367 0.00573975872 -0.0697943568 0.0368581936 -0.00988287479 -0.0684573576 0.0367982201 -0.0104459394 -0.114613228 0.0375889391 -0.010430702 -0.124206565 0.0365696214 0.0135284988 -0.12716797 0.0325693823 0.00813076273 -2.77684791e-07 0.024869334 -0.00474290783 2.72763174e-07 0.0260344204 0.00951255206 -0.0639270172 0.0346854851 -0.00562781328 -0.139452487 0.030185217 0.0013228826 -0.141084 0.0304223895 -0.0211615618 -0.0637326315 0.0224182848 0.0258582309 1.41042983e-06 -0.00477308454 -0.00465478236 -1.82980239e-06 -0.0260738023 0.00881597213 3.22330584e-09 -0.0246018507 0.0189975258 -6.21409927e-05 -0.0186160691 0.00522061577 -0.0627356619 -0.0380297638 0.00143483025 -0.139146477 -0.0358822569 -0.00357953506 -0.140893951 -0.00203624833 -0.00363482558 -0.13839063 -0.0357706249 -0.0191738345 -2.9091012e-05 0.0182887372 -0.0264545325 -0.008367409 0.00776257785 0.0180898048 -7.22849563e-06 0.0194045007 0.0117556714 -0.135681733 0.0275410321 0.0113942372 -0.133258566 0.0325785726 -0.00655103102 -0.138133928 -0.00355914282 -0.00678328099 -0.135405779 -0.0354540348 0.0260721222 -0.0087252073 0.00903336983 0.0209107324 -0.00859250315 0.0180226788 -0.0105892085 -0.0565262288 -0.0385423265 -0.00962195266 -0.077435866 -0.0411471389 0.00122400571 -0.141550541 -0.00383768417 -0.0258582029 1.56718295e-06 0.00477307336 -0.0246876311 -0.0687104911 0.0053060283 -0.0117879119 -0.124816142 0.0298780538 0.0154265175 -0.130792588 -0.00343659753 0.0140710864 -0.131666228 0.0282159839 0.0122542409 -0.132320151 -0.0341651887 0.0118821803 -0.135485172 -0.0097244205 0.0274146423 -0.0171973705 0.00224883808 0.0251243152 3.14654272e-07 0.00712089334 -0.0125661045 -0.124583162 -0.0108352071 -0.0276266821 -0.00972534157 -0.000523841998 0.0272691436 -0.00766016403 -0.00527665392 -0.022581365 -0.0706491023 -0.0276860222 -0.0251681674 -0.000136007788 -0.00890146662 -0.0113646425 -0.122592516 -0.0355991274 0.0146529246 -0.128389195 -0.0331639387 0.00435349857 -0.119914778 -0.0427373461 -0.0210105553 -0.0658962578 -0.0328640826 -0.00911839865 -0.12138962 -0.041157648 0.00909126736 -0.126655236 -0.0416994132 0.011210558 -0.127930641 -0.0401241779 0.0136983041 -0.126902223 -0.0370025262 -0.00581903011 -0.124917313 -0.0422478803 -0.0171663612 -2.52888327e-07 -0.0197030678 -0.0170727037 -0.0565864332 -0.0356245525 0.00835885387 -0.0839720517 -0.0390106887 -0.0163924564 -0.0719957948 -0.0376916938</float_array>
          <technique_common>
            <accessor source="#positions_array" count="63" stride="3">
              <param name="X" type="float" />
              <param name="Y" type="float" />
              <param name="Z" type="float" />
            </accessor>
          </technique_common>
        </source>
        <source id="normals">
          <float_array id="normals_array" count="240">-0.00859032106 0.106040359 0.994324744 -0.356844932 -0.32260865 0.87669003 0.211271197 -0.0729409307 0.97470206 0.407752901 -0.318281859 0.855823696 0.680325031 0.018528562 0.732676327 0.299039215 0.0754609704 0.951252401 -0.505681932 0.0691025406 0.859948039 -0.567224562 -0.0238020029 0.823219121 -0.800862551 -0.220165938 0.556907654 0.871864855 -0.120826922 0.474607706 0.299314409 0.163368165 0.940064728 -0.199268043 0.182621777 0.962778032 0.519667566 0.103653304 0.848057568 -0.156211182 -0.545832813 0.823203862 0.230950221 -0.773040533 0.590821743 -0.902470291 -0.014687554 0.43050158 -5.92035212e-05 1 0.000106477746 0.000853893696 0.999998748 -0.00131294923 0.000465135905 0.999999881 0.000146727223 0.325035393 0.180086017 -0.928397 0.733869433 0.11259751 -0.669893563 0.334809512 0.138487697 -0.932053506 -0.149916112 -0.985991359 -0.0731179714 -0.420195699 -0.907119274 -0.0238788985 -0.435778409 -0.897486687 -0.067932725 -0.713161707 0.141170174 0.6866377 -0.94182092 0.0800511241 0.326443225 0.678384721 0.161829159 0.716662765 0.676444292 -0.716969371 0.168457657 0.64019978 -0.538329244 0.548038185 -0.808508277 -0.588096321 -0.0213779714 -0.760334015 -0.525042534 -0.382390618 0.943498552 0.0911308527 0.318599463 0.786138773 0.10314019 0.609383285 -0.693532765 -0.715716958 0.0822289214 -0.167225704 0.176678196 -0.969958961 -0.175336912 0.0571891777 -0.982846081 -0.219911471 -0.975131989 0.0275057033 -0.150222972 -0.987821102 -0.040527638 -0.962323725 0.190886483 0.193637386 -0.990784228 -0.112097643 0.0760313943 -0.9524194 -0.277045697 0.127055168 0.480832189 -0.876526415 -0.0224027429 0.933775842 -0.357806653 -0.00608675182 0.928014994 -0.320631474 0.18969357 0.27284804 -0.707620203 -0.651787996 0.697702765 -0.650246561 -0.300649613 0.669107556 -0.741668999 -0.0471397154 0.996868491 -0.0358780548 0.0704700276 0.947507501 0.172076374 0.269479603 -0.951771498 -0.305814475 -0.0246676691 -0.997827888 0.0529316999 -0.0392143987 0.971927226 0.0880947188 -0.218166903 -0.970613301 -0.10660702 -0.215742409 0.963281691 0.189869553 -0.189836651 -0.931148648 0.134146959 -0.339067519 -0.93586725 -0.250617921 -0.247675538 0.93882972 -0.289772719 -0.186092764 0.117070809 -0.00269448594 -0.993119895 -0.855448961 0.0225657169 -0.517395258 -0.669901907 -0.156801432 -0.725702882 0.32034111 -0.212123737 -0.923247039 0.612419248 -0.323608249 -0.721262991 0.867134809 -0.168322459 -0.468769431 -0.303429902 -0.263881862 -0.915585399 -0.215183705 -0.451243341 -0.866068959 -0.652429283 0.204153329 -0.729833901 -0.605091631 0.164964125 -0.778878033 0.507355094 0.077123031 -0.85827899 -0.161532566 0.230620235 -0.959542334 -0.593895376 0.0168689415 -0.804365456 0.00150914339 0.999997795 0.00147832953 0.000196624795 0.99999994 0.000221635928 -0.0327593535 0.999394715 -0.0117076486 -0.00396594685 0.999991953 -0.000629507587 -0.0035431874 0.999992847 -0.00134142593 0.00418219296 0.999977827 -0.00517699774 -0.00156043284 0.999913812 0.0130353048 -0.00166018645 0.99999547 0.00251003471 -0.000256998028 0.999994457 -0.00331215491</float_array>
          <technique_common>
            <accessor source="#normals_array" count="80" stride="3">
              <param name="X" type="float" />
              <param name="Y" type="float" />
              <param name="Z" type="float" />
            </accessor>
          </technique_common>
        </source>
        <vertices id="vertices">
          <input semantic="POSITION" source="#positions" />
        </vertices>
        <triangles material="scout_1a1a1a" count="122">
          <input semantic="VERTEX" source="#vertices" offset="0" />
          <input semantic="NORMAL" source="#normals" offset="1" />
          <p>0 0 1 1 2 2 3 3 4 4 2 2 1 1 3 3 2 2 5 5 0 0 2 2 6 6 7 7 0 0 7 7 1 1 0 0 4 4 5 5 2 2 7 7 8 8 1 1 9 9 4 4 3 3 10 10 11 11 0 0 12 12 5 5 4 4 13 13 14 14 1 1 6 6 15 15 7 7 11 11 6 6 0 0 12 12 10 10 5 5 5 5 10 10 0 0 10 16 16 17 17 18 18 19 19 20 20 21 21 22 22 23 23 24 6 6 24 25 15 15 24 25 25 26 15 15 15 15 8 8 7 7 11 11 24 25 6 6 12 12 26 27 10 10 27 28 28 29 14 14 28 29 3 3 14 14 23 24 29 30 30 31 3 3 28 29 9 9 31 32 4 4 9 9 31 32 32 33 4 4 31 32 26 27 32 33 12 12 4 4 32 33 13 34 1 1 8 8 33 35 20 21 34 36 14 37 22 23 35 38 24 25 36 39 25 26 37 40 8 8 15 15 37 40 38 41 8 8 38 41 13 34 8 8 14 14 35 42 27 28 39 43 40 44 27 28 40 44 28 29 27 28 21 45 41 46 42 47 42 47 27 28 35 42 28 29 40 44 9 9 9 9 43 48 31 32 44 49 26 27 31 32 38 41 45 50 13 34 45 50 29 30 13 34 36 39 46 51 25 26 25 26 37 40 15 15 42 47 39 43 27 28 47 52 44 49 31 32 43 48 47 52 31 32 46 51 37 40 25 26 46 51 48 53 37 40 48 53 45 50 37 40 45 50 38 41 37 40 42 47 41 46 39 43 40 44 43 48 9 9 16 54 44 49 47 52 30 31 29 30 45 50 49 55 46 51 36 39 50 56 45 50 48 53 51 57 39 43 41 46 35 42 21 45 42 47 39 43 43 48 40 44 20 21 52 58 34 36 53 59 48 53 49 55 48 53 46 51 49 55 50 56 30 31 45 50 39 43 51 57 43 48 53 59 50 56 48 53 50 56 54 60 30 31 55 61 56 62 21 45 56 62 41 46 21 45 41 46 57 63 51 57 47 52 19 20 16 54 43 48 51 57 47 52 58 64 23 65 30 31 54 60 58 64 30 31 12 12 32 33 26 27 54 60 50 56 53 59 59 66 53 59 49 55 57 63 19 20 47 52 51 57 57 63 47 52 60 67 53 59 59 66 56 62 57 63 41 46 23 65 58 64 21 45 58 64 55 61 21 45 55 61 61 68 56 62 57 63 56 62 19 20 56 62 61 68 19 20 17 69 60 67 59 66 62 70 53 59 60 67 33 35 60 67 17 69 62 70 34 36 54 60 52 58 55 61 58 64 52 58 61 68 55 61 52 58 20 21 61 68 61 68 20 21 19 20 34 36 62 70 33 35 62 70 60 67 33 35 34 36 58 64 54 60 20 21 17 69 18 19 52 58 58 64 34 36 54 60 53 59 62 70 20 21 33 35 17 69 10 16 26 71 44 72 49 73 36 74 59 75 16 17 19 76 17 18 19 76 18 77 17 18 24 78 11 79 10 16 10 16 44 72 16 17 17 18 59 75 10 16 59 75 36 74 10 16 36 74 24 78 10 16 21 22 35 38 22 23 23 24 22 23 29 30 14 37 13 34 22 23 22 23 13 34 29 30 1 1 14 14 3 3</p>
        </triangles>
      </mesh>
    </geometry>
  </library_geometries>
  <library_visual_scenes>
    <visual_scene id="scene">
      <node id="L_hand_base_link">
        <instance_geometry url="#geometry">
          <bind_material>
            <technique_common>
              <instance_material symbol="scout_1a1a1a" target="#scout_1a1a1a" />
            </technique_common>
          </bind_material>
        </instance_geometry>
      </node>
    </visual_scene>
  </library_visual_scenes>
  <scene>
    <instance_visual_scene url="#scene" />
  </scene>
</COLLADA>