<?xml version='1.0' encoding='utf-8'?>
<COLLADA xmlns="http://www.collada.org/2005/11/COLLADASchema" version="1.4.1">
  <asset>
    <created>2026-09-14T00:00:00Z</created>
    <modified>2026-09-14T00:00:00Z</modified>
    <unit name="metre" meter="1" />
    <up_axis>Z_UP</up_axis>
  </asset>
  <library_effects>
    <effect id="scout_1a1a1a_effect">
      <profile_COMMON>
        <technique sid="common">
          <lambert>
            <emission>
              <color>0 0 0 1</color>
            </emission>
            <ambient>
              <color>0.05 0.05 0.05 1</color>
            </ambient>
            <diffuse>
              <color>0.1 0.1 0.1 1</color>
            </diffuse>
          </lambert>
        </technique>
      </profile_COMMON>
    </effect>
  </library_effects>
  <library_materials>
    <material id="scout_1a1a1a" name="scout_1a1a1a">
      <instance_effect url="#scout_1a1a1a_effect" />
    </material>
  </library_materials>
  <library_geometries>
    <geometry id="geometry" name="left_knee_link">
      <mesh>
        <source id="positions">
          <float_array id="positions_array" count="312">0.04802908 0.0387595892 -0.141900629 0.0481918044 0.0357904285 -0.0301264357 0.0500868671 0.0273490101 0.00626218459 0.0474866889 0.0414652228 -0.121751606 0.0234318394 0.0277309567 0.044374276 0.019374853 -0.0277421828 0.0451337025 0.0236713439 -0.0277296491 0.0442788154 -0.0483951122 0.0304930806 -0.218741417 -0.0473525263 -0.028388422 -0.240816534 -0.048931025 -0.0310482401 -0.20229575 0.0482295603 -0.0357240885 -0.0299988966 0.0480401777 -0.038982302 -0.138757721 0.0500428863 -0.027405858 0.00624769833 0.0455499068 0.043274954 -0.114644155 0.0474952757 -0.0414650477 -0.1213471 -0.0473710112 -0.035627 -0.163215041 -0.0472238846 -0.0305232443 -0.144448832 0.042881459 0.0439139381 -0.112360328 0.046335429 0.0371825807 -0.0315223373 0.0476305746 0.0275277328 0.0161750149 -0.00463057403 0.025277568 -0.405899137 0.00968425721 0.0242903382 -0.409428954 -0.00319326925 0.0243287738 -0.409017831 0.00688897027 0.0216804259 -0.411687255 8.10776692e-05 0.0215875208 -0.41166088 0.0455499068 -0.043274954 -0.114644155 0.0427889116 0.0430704802 -0.220839217 0.0309369843 0.0277304091 0.0395618938 0.0363144241 0.0277000368 0.0347090624 0.0410204194 0.0276098344 0.0290547106 0.0447927974 0.0275455695 0.0228662621 0.0105220489 0.0277078636 0.0417891927 0.0147909671 -0.0277464762 0.0444697849 0.0140802059 0.0278089028 0.044068072 0.0179178957 0.0277064443 0.0451697409 0.0477011353 -0.0275260489 0.0159669109 0.0463415869 -0.0371883884 -0.0315818675 -0.00365516613 -0.0197944995 -0.411529064 0.0428860262 -0.0439134277 -0.112258382 0.0445731729 0.0411534682 -0.223582447 0.0455326624 0.0384196378 -0.219546601 0.0430607609 0.035148643 -0.280021608 0.0411986187 -0.0276091173 0.0288013499 0.044906687 -0.027545128 0.0226420406 -0.0397883058 0.043009676 -0.163225964 -0.0383987911 0.0416226462 -0.109795883 -0.0318231061 0.0439348184 -0.112154655 -0.0472132377 0.0305221509 -0.144280225 -0.0473710075 0.035627 -0.163215041 -0.0488187335 0.0304826349 -0.185130641 0.0365778543 -0.027700685 0.0344312973 0.0312670805 -0.0277174767 0.0393081345 0.0428532287 -0.043061614 -0.220223129 0.0430290289 -0.0351457261 -0.280103445 0.0446212962 -0.041144114 -0.22285457 0.0390266739 0.0366839096 -0.290895373 0.0123050977 0.0253664423 -0.405820429 -0.0351810418 0.0436892472 -0.222234264 -0.0421493389 0.0419313498 -0.219170541 -0.0444628857 0.0399859957 -0.163037196 -0.014106879 0.0275408663 0.00718902238 0.0103520462 -0.0277053379 0.0416207686 -0.0318233371 -0.0439347774 -0.112154841 -0.0383987911 -0.0416226462 -0.109795891 -0.0397883058 -0.043009676 -0.163225964 -0.011515175 -0.0219306257 -0.402076185 -0.0473062396 0.0283624455 -0.241352886 -0.0104630422 0.0204158071 -0.405900657 0.0401088074 -0.0438261256 -0.21999149 0.0391377024 -0.036710009 -0.290425241 0.0123159327 -0.0253477991 -0.405786127 0.0400633626 0.0438277908 -0.220153838 -0.0440450124 0.0304384138 -0.108603053 -0.0403942913 -0.0232947171 -0.0802603438 -0.0399119593 0.0228646863 -0.0770955086 -0.0470030196 0.0366762653 -0.217818245 -0.0428767726 0.0362659618 -0.109210685 -0.033750359 0.0274758413 -0.0466307402 -0.0444628894 -0.039985992 -0.163037196 -0.0140800169 -0.0275791157 0.00716078933 0.00970587414 -0.0242969524 -0.409415036 -0.00447255978 -0.0252710581 -0.40601784 -0.00237041432 -0.0242782515 -0.409277081 -0.0348149687 -0.0438113436 -0.220810443 -0.0422084704 -0.0419065319 -0.218847767 0.00700872019 -0.021809943 -0.41161108 -0.0405653119 0.0398779549 -0.242196813 -0.045487348 0.0350202769 -0.241868049 -0.0428769737 -0.036250826 -0.109148845 -0.0338195898 -0.0274231471 -0.0467110015 -0.0470030196 -0.0366762616 -0.217818245 -0.00813705567 0.0248049814 -0.404525161 -0.0333320722 -0.040600881 -0.252432317 -0.00999999885 0.0231066849 -0.404878408 -0.00300383545 -0.0224001445 -0.410916269 -0.00579036819 0.0217796024 -0.410123587 -0.0440616719 -0.0304501727 -0.108735912 -0.0343900546 -0.0231294241 -0.04627949 -0.0343635306 0.0235592034 -0.0462158062 -0.0455233268 -0.0350686312 -0.241393521 0.0455361046 -0.0384231061 -0.219434097 -0.00835545547 -0.0245720707 -0.404944628 -0.040594127 -0.0399170481 -0.241790935 -0.00883996394 -0.0218152292 -0.407639176</float_array>
          <technique_common>
            <accessor source="#positions_array" count="104" stride="3">
              <param name="X" type="float" />
              <param name="Y" type="float" />
              <param name="Z" type="float" />
            </accessor>
          </technique_common>
        </source>
        <source id="normals">
          <float_array id="normals_array" count="399">0.9803496 0.195696279 -0.024852749 0.80210501 0.592660308 0.0733573288 0.994217575 0.0108280694 0.106837139 0.866933048 0.49839735 -0.00521708885 0.350140929 0.00194111653 0.936695039 0.0272162631 -0.00250947964 0.999626398 0.378125906 -0.000645363296 0.925753951 -0.992327452 0.117694028 -0.0378719978 -0.983199775 -0.121380478 -0.13632679 -0.987938762 -0.154718935 -0.0062530837 0.805772245 -0.587616086 0.0737456977 0.979843915 -0.198283985 -0.0242758151 0.994510472 -0.0113077564 0.104024336 0.509714603 0.860044479 0.0226823408 0.863577425 -0.50419575 -0.00454702554 -0.940970898 -0.336777657 0.0339792892 -0.990345836 -0.120972522 0.0676814541 0.135079935 0.989843786 0.0443025269 0.290367723 0.9514516 0.102109857 0.433214903 0.885468125 0.168140009 0.63375175 0.760141194 0.1433319 -0.134822473 0.958406448 -0.251555055 -0.00960985851 0.900192916 -0.435385257 -0.176081717 0.798402846 -0.575802147 -0.0202296134 0.67051208 -0.741622746 -0.0959052816 0.342537314 -0.93459636 0.507286668 -0.861483037 0.0225211084 0.491541356 0.869259059 -0.0526861176 0.109182984 0.981984198 0.154227555 0.165806398 0.972374558 0.164304644 0.236979038 0.956186771 0.171894774 0.317054987 0.932275236 0.174181104 -0.687986791 -4.94445339e-05 0.725723207 -0.350275129 -0.00255001569 0.936643362 -0.413225055 0.00129793631 0.910628021 -0.0693835095 0.00313040265 0.997585177 0.436753869 -0.883804381 0.167737663 0.632650316 -0.761117041 0.143018782 0.296093762 -0.94978106 0.101214513 -0.00450494885 -0.00266711484 -0.999986291 -0.318354726 -0.12127614 -0.94018209 0.136201322 -0.989677429 0.0445840061 0.845832229 0.529200554 -0.0671913102 0.988762438 0.144888639 -0.0368248075 0.896077991 0.421439976 -0.139400795 0.8895123 0.00031308597 0.456911057 0.816744745 -0.000344337604 0.576999068 0.891823649 -0.000278815278 0.452383071 -0.346868247 0.937835753 0.0121064186 -0.543502331 0.829811275 0.126564205 -0.160254821 0.98462671 0.0694883987 -0.0399245657 0.991763711 0.121699274 0.000790918246 0.99241668 0.122916862 0.0360042639 0.990301311 0.134190127 -0.990116656 0.121698923 0.0697017014 -0.935425818 0.351582497 0.0369906276 -0.991303027 0.131341904 0.0082245972 0.320781797 -0.931021571 0.174062908 0.240621179 -0.955251217 0.17203638 0.950175405 -0.00049186364 0.311715424 0.166578427 -0.972231269 0.164371341 0.112431742 -0.981490254 0.155035362 0.0478404164 -0.989324689 0.137651429 0.000797882269 -0.992469907 0.1224861 0.49891755 -0.86519146 -0.0502500013 0.897946239 -0.417590171 -0.138964206 0.849121869 -0.524019659 -0.0662982389 0.486524373 0.852794707 -0.189829573 0.916137755 0.00391794741 -0.400844455 -0.137513131 0.988523483 -0.0625416338 -0.521117628 0.851924002 -0.0515938811 -0.705102146 0.708519697 0.0288233776 -0.266177654 0.948588252 0.171259433 -0.13144061 0.981444418 0.139607549 0.813156724 0.000372823968 0.582044661 0.72626245 -0.000411055604 0.687417448 -0.882187605 0.00393446442 0.47088173 -0.690230191 -0.000507903344 0.723589659 -0.160261139 -0.984619796 0.0695718899 -0.543662846 -0.829737961 0.126355365 -0.349407941 -0.936886609 0.0125507163 -0.0393772908 -0.992139697 0.118778087 -0.898411453 -0.319356978 -0.30144313 -0.982581019 0.122110181 -0.140084386 -0.853085339 0.146449372 -0.500797331 0.132108808 -0.989889503 -0.051633954 0.486969322 -0.85268414 -0.189184174 0.916815698 -0.00388503657 -0.399291754 0.127982333 0.990552485 -0.0492577404 -0.986275911 0.111271501 0.121977307 -0.984062254 -0.0803877562 0.158616662 -0.983606875 0.0812119171 0.161003515 -0.883099735 0.467278332 -0.0422590412 -0.884947836 0.446049303 0.133818448 -0.840022624 0.48237142 0.248354211 0.948441684 0.000300657324 0.316951603 -0.705135584 -0.708482862 0.028910581 -0.111879401 -0.984564424 0.134595186 -0.265486032 -0.94882828 0.171003237 -0.00362486904 -0.903248131 -0.429103345 -0.14545688 -0.952041566 -0.269182384 -0.149829239 -0.817610145 -0.555935979 -0.134279191 -0.989166915 -0.0593119226 -0.520561397 -0.852111995 -0.0540459827 0.753005445 0.000245246978 -0.658014238 0.63130343 6.97858413e-05 -0.775535941 0.628231585 0.000367048109 -0.778026342 -0.482722551 0.862891734 -0.149655581 0.720896661 0.000477009831 0.693042457 0.613973022 -0.000480364542 0.789326906 -0.86125648 0.483071744 -0.157730684 0.755392492 -0.000112211412 -0.655272603 -0.885005653 -0.445806652 0.134243995 -0.845729589 -0.471173018 0.250474423 -0.887775123 -0.457677484 -0.0488531999 -0.424757719 0.84715724 -0.319226444 -0.162333101 -0.978971779 -0.123540223 -0.757242441 0.517398715 -0.398600549 -0.0129043953 -0.421606183 -0.9066872 -0.246894598 -0.489770114 -0.836162806 -0.465252548 0.338312536 -0.817975998 -0.986447573 -0.110947929 0.120879099 -0.961587667 -0.0745431036 0.264182657 -0.882390857 -0.00448612496 0.470495701 -0.960708439 0.0866227299 0.263696343 0.606893539 0.000664481893 0.794782877 -0.861207187 -0.483489394 -0.156717077 0.989204466 -0.141820103 -0.0368993729 -0.505748332 -0.789273262 -0.348233193 -0.498113304 -0.855911195 -0.138921589 -0.699052751 -0.329874128 -0.634435415 -0.00442469446 0.986751318 -0.162179664 -0.0012624379 -0.986849308 -0.161638141</float_array>
          <technique_common>
            <accessor source="#normals_array" count="133" stride="3">
              <param name="X" type="float" />
              <param name="Y" type="float" />
              <param name="Z" type="float" />
            </accessor>
          </technique_common>
        </source>
        <vertices id="vertices">
          <input semantic="POSITION" source="#positions" />
        </vertices>
        <triangles material="scout_1a1a1a" count="204">
          <input semantic="VERTEX" source="#vertices" offset="0" />
          <input semantic="NORMAL" source="#normals" offset="1" />
          <p>0 0 1 1 2 2 0 0 3 3 1 1 4 4 5 5 6 6 7 7 8 8 9 9 10 10 11 11 12 12 13 13 1 1 3 3 10 10 14 14 11 11 15 15 16 16 9 9 17 17 18 18 13 13 18 18 1 1 13 13 19 19 2 20 1 1 20 21 21 22 22 23 22 23 23 24 24 25 10 10 25 26 14 14 3 3 26 27 13 13 27 28 28 29 18 18 28 29 29 30 18 18 29 30 30 31 18 18 30 31 19 19 18 18 19 19 1 1 18 18 31 32 32 33 33 34 33 34 32 33 34 35 35 36 10 10 12 37 36 38 25 26 10 10 23 39 37 40 24 25 36 38 38 41 25 26 39 42 40 43 41 44 41 44 26 27 39 42 30 45 42 46 43 47 44 48 45 49 46 50 18 18 17 17 46 50 33 51 34 52 18 18 34 52 4 53 18 18 4 53 27 28 18 18 46 50 33 51 18 18 47 54 48 55 49 56 43 57 36 38 35 36 36 38 10 10 35 36 42 58 36 38 43 57 2 2 35 59 12 12 42 58 50 60 36 38 50 60 51 61 36 38 51 61 6 62 36 38 6 62 5 63 36 38 52 64 53 65 54 66 41 44 55 67 26 27 56 68 55 67 41 44 44 48 46 50 57 69 58 70 44 48 57 69 59 71 45 49 44 48 45 49 60 72 46 50 60 72 31 73 46 50 31 73 33 51 46 50 29 74 50 75 42 46 60 76 61 77 31 32 36 38 62 78 38 41 63 79 64 80 62 78 32 81 36 38 5 63 32 81 62 78 36 38 65 82 66 83 67 84 68 85 69 86 52 64 69 86 53 65 52 64 69 86 70 87 53 65 55 67 71 88 26 27 58 70 59 71 44 48 72 89 73 90 74 91 58 70 75 92 59 71 75 92 48 55 59 71 48 55 76 93 59 71 76 93 45 49 59 71 77 94 60 72 45 49 41 44 70 87 56 68 25 26 68 85 52 64 19 95 43 47 35 59 0 0 39 42 3 3 78 96 64 80 63 79 32 81 61 97 62 78 61 97 79 98 62 78 79 98 63 79 62 78 80 99 81 100 82 101 62 78 64 80 83 102 64 80 84 103 83 102 21 104 85 105 23 106 58 70 57 69 86 107 28 108 51 109 50 75 87 110 75 92 58 70 75 92 49 56 48 55 14 14 52 64 54 66 47 54 76 93 48 55 77 94 45 49 76 93 56 68 80 111 21 104 87 110 58 70 86 107 88 112 78 96 63 79 88 112 15 15 78 96 79 98 89 113 63 79 15 15 90 114 78 96 90 114 84 103 78 96 84 103 64 80 78 96 13 13 71 88 17 17 20 21 91 115 57 69 92 116 81 100 83 102 49 56 16 16 47 54 91 115 86 107 57 69 91 115 93 117 86 107 93 117 87 110 86 107 85 118 82 101 94 119 2 2 11 11 0 0 24 25 95 120 22 23 91 115 20 21 22 23 95 120 91 115 22 23 66 83 75 92 87 110 7 7 49 56 75 92 66 83 7 7 75 92 47 54 96 121 72 89 72 89 76 93 47 54 60 76 97 122 79 123 72 89 77 94 76 93 77 94 98 124 60 76 27 125 6 6 51 109 89 113 88 112 63 79 88 112 16 16 15 15 9 9 90 114 15 15 90 114 99 126 84 103 11 11 54 66 100 127 92 116 101 128 81 100 101 128 82 101 81 100 101 128 94 119 82 101 93 117 67 84 87 110 67 84 66 83 87 110 67 84 93 117 95 120 93 117 91 115 95 120 88 112 96 121 16 16 74 91 98 124 77 94 97 122 89 113 79 123 89 113 96 121 88 112 9 9 8 8 90 114 8 8 99 126 90 114 8 8 65 82 99 126 65 82 101 128 99 126 101 128 102 129 99 126 101 128 92 116 102 129 103 130 94 119 101 128 103 130 37 40 94 119 37 40 85 118 94 119 100 127 54 66 53 65 37 40 95 120 24 25 103 130 67 84 95 120 37 40 103 130 95 120 74 91 77 94 72 89 97 122 73 90 89 113 67 84 103 130 65 82 103 130 101 128 65 82 74 91 97 122 98 124 4 4 34 35 5 5 7 7 66 83 8 8 20 21 56 131 21 22 22 23 21 22 23 24 3 3 39 42 26 27 17 17 71 88 46 50 71 88 57 69 46 50 31 32 61 77 32 33 92 116 84 103 102 129 23 39 85 118 37 40 30 45 29 74 42 46 2 2 19 95 35 59 83 102 68 85 62 78 68 85 38 41 62 78 29 74 28 108 50 75 60 76 79 123 61 77 65 82 8 8 66 83 73 90 96 121 89 113 72 89 96 121 73 90 41 44 53 65 70 87 25 26 38 41 68 85 19 95 30 45 43 47 0 0 40 43 39 42 80 99 70 132 81 100 40 43 0 0 100 127 0 0 11 11 100 127 100 127 53 65 41 44 41 44 40 43 100 127 21 104 80 111 85 105 99 126 102 129 84 103 28 108 27 125 51 109 14 14 25 26 52 64 56 68 70 87 80 111 13 13 26 27 71 88 84 103 92 116 83 102 49 56 9 9 16 16 69 86 68 85 83 102 83 102 81 100 70 132 70 132 69 86 83 102 85 118 80 99 82 101 2 2 12 12 11 11 47 54 16 16 96 121 60 76 98 124 97 122 49 56 7 7 9 9 34 35 32 33 5 5 27 125 4 4 6 6 11 11 14 14 54 66 71 88 55 67 57 69 55 67 56 131 20 21 20 21 57 69 55 67 74 91 73 90 97 122</p>
        </triangles>
      </mesh>
    </geometry>
  </library_geometries>
  <library_visual_scenes>
    <visual_scene id="scene">
      <node id="left_knee_link">
        <instance_geometry url="#geometry">
          <bind_material>
            <technique_common>
              <instance_material symbol="scout_1a1a1a" target="#scout_1a1a1a" />
            </technique_common>
          </bind_material>
        </instance_geometry>
      </node>
    </visual_scene>
  </library_visual_scenes>
  <scene>
    <instance_visual_scene url="#scene" />
  </scene>
</COLLADA>