<?xml version='1.0' encoding='utf-8'?>
<COLLADA xmlns="http://www.collada.org/2005/11/COLLADASchema" version="1.4.1">
  <asset>
    <created>2026-09-14T00:00:00Z</created>
    <modified>2026-09-14T00:00:00Z</modified>
    <unit name="metre" meter="1" />
    <up_axis>Z_UP</up_axis>
  </asset>
  <library_effects>
    <effect id="scout_1a1a1a_effect">
      <profile_COMMON>
        <technique sid="common">
          <lambert>
            <emission>
              <color>0 0 0 1</color>
            </emission>
            <ambient>
              <color>0.05 0.05 0.05 1</color>
            </ambient>
            <diffuse>
              <color>0.1 0.1 0.1 1</color>
            </diffuse>
          </lambert>
        </technique>
      </profile_COMMON>
    </effect>
  </library_effects>
  <library_materials>
    <material id="scout_1a1a1a" name="scout_1a1a1a">
      <instance_effect url="#scout_1a1a1a_effect" />
    </material>
  </library_materials>
  <library_geometries>
    <geometry id="geometry" name="left_elbow_roll_link">
      <mesh>
        <source id="positions">
          <float_array id="positions_array" count="105">0.0827673748 -0.0331755839 0.00224804715 0.0587405451 -0.0335018039 0.0297898669 0.0565026402 -0.0373079702 -0.00389212044 0.104356468 -0.0331488997 -0.00362683134 0.100604035 -0.0350683965 -6.01422398e-05 0.0966611654 0.0349417701 -0.0101248398 0.100448206 0.0341073945 0.00405126764 0.0917708501 0.0330778509 -0.0140486369 0.0716558024 0.0259064119 -0.000184388977 0.060632769 -0.015993638 0.0264018979 0.0695560947 -0.0154891722 -0.0137280542 0.00118799787 -0.0160323083 -0.0305868313 -0.00146248878 -0.0353038646 -0.0011100315 0.00332626211 0.00989081711 -0.00598330703 -0.00151981437 -0.0160188042 0.0290275775 0.00854186062 0.0248783194 -0.0283609051 0.00698714843 0.0247680414 0.0276291948 -0.00107140467 0.0351828784 0.00335113937 0.044379238 0.023390878 -0.00831816904 0.0171867665 0.0272039808 0.00866153557 0.033680208 0.0273303837 0.0187215433 0.029178746 0.0267563164 -0.0188812483 0.0294744652 -0.0366642065 -0.0260500889 0.0552847236 -0.0307543632 -0.0319601186 0.0598847717 0.027948508 -0.0297531579 0.0600633547 0.0274724718 0.0297553148 0.0939747691 0.032826934 0.0126745338 0.0493794642 0.0239837654 0.011825704 0.0725453719 -0.0312355272 -0.0108199641 0.0883935243 -0.0328685194 -0.000100413519 0.0659166723 -0.0312457513 0.0245297216 0.0832173899 0.0330262519 0.00246208743 0.0883944035 0.0328763537 0.000101503021 0.0248013418 -0.0358083099 0.0227207262 0.0827727616 0.0335125141 -0.00226024189</float_array>
          <technique_common>
            <accessor source="#positions_array" count="35" stride="3">
              <param name="X" type="float" />
              <param name="Y" type="float" />
              <param name="Z" type="float" />
            </accessor>
          </technique_common>
        </source>
        <source id="normals">
          <float_array id="normals_array" count="291">0.114563286 -0.993378639 0.00860686041 0.0589148402 -0.99478662 0.0832386538 0.0879377574 -0.992718041 -0.0823279694 0.563147664 0.295154899 0.771847308 0.320946246 0.141820386 0.936418951 0.556205153 0.329949856 0.762737751 0.471171021 -0.864154696 -0.176732808 0.194978938 -0.980081558 -0.0377275087 0.192973495 -0.980977535 -0.0210780725 0.953596056 -0.0642219111 0.294159919 0.96322906 0.0969473124 0.250581264 0.976468623 0.069751896 0.204067901 -0.99027288 0.12963973 -0.0505294167 -0.993891656 0.100361638 -0.0459007658 -0.996386468 0.05603626 -0.0638273954 -0.989141583 0.143761218 -0.0305235479 -0.980667055 0.0664668307 -0.18404983 -0.994854569 0.0207690392 0.0991614312 -0.982725143 -0.182410941 0.0312660225 0.0294225048 0.996739805 0.0751271397 0.104576275 0.992966294 -0.0555129722 0.103106432 0.984408081 -0.142512456 0.12350978 0.98305285 0.135471255 -0.1249668 -0.373451412 -0.919193864 -0.0326590911 -0.0268093497 -0.999106944 -0.0505291782 -0.0699096993 -0.996272743 -0.0200692154 0.0477469228 -0.998657823 -0.0294668414 0.0398582965 -0.998770773 0.0814091191 -0.910879433 -0.40456304 0.0834098309 -0.938296854 -0.335621566 0.131975651 -0.964006126 -0.230812818 0.0355821401 -0.996830642 -0.0711520463 -0.448783278 -0.728953362 -0.516933858 -0.0397443734 0.930636108 0.363781333 -0.0628045127 0.909472406 0.410993397 -0.00777329924 0.960595608 0.277840972 -0.0449864231 0.982114673 0.182830513 -0.0539516285 0.949041069 -0.310500026 -0.049742043 0.924757004 -0.377293259 -0.0445969477 0.935270905 -0.35111168 -0.0341330618 0.961421788 -0.272952497 -0.0652376041 0.94304353 -0.326210082 -0.132303104 0.990061164 0.0476942323 0.928366244 0.0721951276 -0.364587337 0.823663235 0.00496770069 -0.567057431 0.898086071 0.0383152179 -0.438147664 0.022110818 0.993174553 -0.114522323 -0.0423097089 0.985137582 -0.166474551 -0.119713373 0.992749155 0.0108546447 -0.0603967756 0.984340727 0.165606692 0.0672672093 0.997214437 -0.0322252959 -0.0368550234 0.986296356 0.160814017 0.0335877314 0.999421179 0.00540499343 -0.00856917258 0.999430418 0.032640364 0.0783097297 0.996697366 -0.0214938726 -0.01409858 0.995198429 -0.0968573242 0.150978893 0.988123238 0.0285969768 0.0622277372 -0.997918785 0.0169071127 0.0863045752 -0.991840899 0.0938251838 -0.00980605651 -0.977470219 -0.210845456 0.0250103381 -0.999671817 -0.00554105965 0.122941405 -0.991451383 -0.0436981767 0.0948220715 -0.99381578 -0.0577834547 0.217680499 -0.926222265 -0.307778448 -0.253608137 -0.58324796 0.771689534 -0.37892279 -0.697735012 0.60793364 -0.450517535 -0.752375543 0.480588228 0.792391419 -0.0123818992 -0.609887302 0.959774673 0.215450957 0.180037275 0.938554466 0.278422147 0.203952551 0.932146192 -0.015696967 0.361741722 0.10406591 0.0777156428 0.991529405 -0.0359710455 -0.0773402229 0.996355653 0.0121955518 -0.0140536223 0.999826849 0.0421261899 0.0534429103 0.997681916 -0.00646218704 -0.998856068 0.0473792627 -0.0323002115 -0.999373853 0.0144435251 0.378921837 -0.916248798 -0.130024552 -0.267217666 -0.876743257 0.399894953 0.0757883042 -0.992915154 0.0915181637 -0.00127109257 -0.999880373 0.0154169267 -0.00177747768 -0.999878645 0.0154775875 0.583914638 0.0338286012 0.81110996 -0.138036251 -0.97779876 -0.157656416 -0.173377857 -0.965866208 -0.192464516 -0.172436371 0.903416812 0.392560482 -0.0642857924 -0.33964327 0.93835485 -0.0600133277 0.986258328 0.153925091 0.0315227844 0.983479917 0.178251341 0.0300438534 0.980921447 0.192068994 0.0125283971 0.758331716 -0.651748478 -0.107900329 0.994078219 -0.0128828287 0.00377721456 0.807276845 -0.590160847 0.0265030302 0.994641781 0.0999266133 -0.0433142073 0.998848915 0.0206075162 -0.148536786 -0.474137157 0.867831111 0.77458173 0.0303728189 -0.631744146</float_array>
          <technique_common>
            <accessor source="#normals_array" count="97" stride="3">
              <param name="X" type="float" />
              <param name="Y" type="float" />
              <param name="Z" type="float" />
            </accessor>
          </technique_common>
        </source>
        <vertices id="vertices">
          <input semantic="POSITION" source="#positions" />
        </vertices>
        <triangles material="scout_1a1a1a" count="74">
          <input semantic="VERTEX" source="#vertices" offset="0" />
          <input semantic="NORMAL" source="#normals" offset="1" />
          <p>0 0 1 1 2 2 3 3 1 4 4 5 5 6 6 7 7 8 8 9 9 10 10 11 11 12 12 13 13 14 13 14 12 13 14 15 15 16 11 12 13 14 16 17 17 18 13 14 13 14 14 15 16 17 18 19 19 20 20 21 18 19 21 22 19 20 22 23 11 24 23 25 23 25 11 24 15 26 23 25 15 26 24 27 4 28 2 2 3 29 23 30 2 2 22 31 23 30 3 29 2 2 22 32 12 32 11 32 17 33 16 34 25 35 6 36 17 33 25 35 17 37 5 38 7 39 17 37 7 39 24 40 15 41 17 37 24 40 25 35 26 42 6 36 8 43 10 44 24 45 27 46 20 21 25 47 18 19 27 46 8 48 24 49 18 19 8 48 25 47 8 48 27 46 23 50 28 51 3 52 28 51 29 53 3 52 30 54 3 52 29 53 30 54 0 55 28 56 29 53 0 55 30 54 21 57 24 58 31 59 32 60 26 61 25 62 32 60 25 62 31 59 6 7 26 61 7 8 25 62 21 57 31 59 0 0 2 2 28 63 33 64 14 65 12 66 10 44 23 67 24 45 28 68 10 11 30 69 8 9 25 70 9 10 9 71 25 72 16 73 9 71 14 74 1 4 9 71 16 73 14 74 33 75 12 76 22 31 7 8 26 61 32 60 24 58 34 77 31 59 34 78 24 79 32 60 32 60 24 79 7 8 21 57 25 62 20 80 21 57 20 80 19 81 1 4 30 82 9 71 9 10 30 69 10 11 1 1 33 75 2 2 33 75 22 31 2 2 29 83 1 1 0 0 4 84 1 1 29 83 13 14 17 18 15 16 28 51 2 85 29 53 2 86 4 86 29 86 24 49 21 22 18 19 5 87 17 88 34 89 17 90 6 91 31 92 31 93 34 89 17 88 3 3 30 82 1 4 32 94 5 87 34 89 6 91 5 87 32 94 14 65 33 64 1 95 10 44 28 96 23 67 27 46 18 19 20 21 32 94 31 92 6 91</p>
        </triangles>
      </mesh>
    </geometry>
  </library_geometries>
  <library_visual_scenes>
    <visual_scene id="scene">
      <node id="left_elbow_roll_link">
        <instance_geometry url="#geometry">
          <bind_material>
            <technique_common>
              <instance_material symbol="scout_1a1a1a" target="#scout_1a1a1a" />
            </technique_common>
          </bind_material>
        </instance_geometry>
      </node>
    </visual_scene>
  </library_visual_scenes>
  <scene>
    <instance_visual_scene url="#scene" />
  </scene>
</COLLADA>