<?xml version='1.0' encoding='utf-8'?>
<COLLADA xmlns="http://www.collada.org/2005/11/COLLADASchema" version="1.4.1">
  <asset>
    <created>2026-09-14T00:00:00Z</created>
    <modified>2026-09-14T00:00:00Z</modified>
    <unit name="metre" meter="1" />
    <up_axis>Z_UP</up_axis>
  </asset>
  <library_effects>
    <effect id="scout_1a1a1a_effect">
      <profile_COMMON>
        <technique sid="common">
          <lambert>
            <emission>
              <color>0 0 0 1</color>
            </emission>
            <ambient>
              <color>0.05 0.05 0.05 1</color>
            </ambient>
            <diffuse>
              <color>0.1 0.1 0.1 1</color>
            </diffuse>
          </lambert>
        </technique>
      </profile_COMMON>
    </effect>
  </library_effects>
  <library_materials>
    <material id="scout_1a1a1a" name="scout_1a1a1a">
      <instance_effect url="#scout_1a1a1a_effect" />
    </material>
  </library_materials>
  <library_geometries>
    <geometry id="geometry" name="left_shoulder_pitch_link">
      <mesh>
        <source id="positions">
          <float_array id="positions_array" count="111">-0.0132470885 0.0326147527 -0.0387407169 -0.0313610807 0.0286141597 -0.0294673275 -0.0209077056 0.0202624463 -0.0249321032 -0.0304984152 0.00237732218 -0.0210549366 -0.00602693763 0.0173741654 -0.0230003837 -0.0168325063 0.0230107326 0.00401879707 -0.000339568331 0.0153041724 -0.00285567273 -0.00784233212 0.0289681368 0.0163799487 0.0205552205 0.0219341964 -0.0134257376 0.0233430061 0.0272776131 0.0173370894 -0.017032709 0.00231132796 0.0200734176 -0.0325075872 0.0302128904 0.021694582 -0.0176986959 0.0316229984 0.0258073285 0.00781969633 0.00525258947 0.0158561859 0.0123655284 -0.00271601067 -0.0145053463 -0.0165651683 0.0205819868 0.0078619672 -0.0221074186 0.0183921084 0.00697386824 -0.0215933789 0.0305751525 0.0128711984 -0.0188174546 0.0200946573 0.0127460146 -0.00847450551 0.0254229028 0.0205003992 -0.00921956822 0.0216342006 0.013792593 0.00295051723 0.0381606333 0.0293301232 0.0231736898 0.040432848 -0.0425636694 -0.036478743 0.0574477687 -0.0521614887 0.0201315563 -0.00119187823 0.0190556012 0.00575024448 0.00440955069 -0.0159663074 0.0109962001 0.0235701967 0.00929001532 0.0127262538 0.0180373993 -0.0069318898 0.0100775016 0.0474787243 -0.0458772928 0.0160144251 0.0141217466 -0.0207226165 -0.0373171456 0.0194018837 0.0272111371 0.0205291118 0.0875864252 -0.04131319 0.0185159538 0.0560110547 0.0380618721 -0.0337923765 0.0885837302 0.0314914063 -0.0374441817 0.103906907 -0.0297061596 0.03044088 0.100755721 -0.00210759789 0.0199100617 0.0881376192 0.0287434328</float_array>
          <technique_common>
            <accessor source="#positions_array" count="37" stride="3">
              <param name="X" type="float" />
              <param name="Y" type="float" />
              <param name="Z" type="float" />
            </accessor>
          </technique_common>
        </source>
        <source id="normals">
          <float_array id="normals_array" count="381">0.0137565639 0.665422678 0.746340036 0.0614349507 0.534597993 0.842870533 -0.0185429212 0.471564978 0.881636322 -0.133735001 0.281472772 0.950204194 -0.0663842708 0.423143953 0.903627336 0.792139351 0.577935517 0.196228936 -0.495635659 -0.868159115 -0.0253967177 -0.30969584 -0.944301188 -0.111282215 -0.535495341 -0.842059433 0.0646574199 0.707771838 -0.681419551 -0.186350048 0.714584827 -0.671505809 -0.196082905 0.652570307 -0.749171853 -0.113549463 0.358271599 -0.924778521 0.128164396 0.245674238 0.191469491 -0.9502545 -0.158593431 0.948910832 -0.272793561 -0.174629942 0.976985753 -0.122487664 0.0480338782 0.988026142 -0.146619037 -0.330327302 0.920555174 -0.208475515 -0.960382938 -0.0875487328 0.264574826 0.744669318 -0.189014226 -0.640110373 0.87699759 -0.105165996 -0.468844742 0.776726246 -0.218988448 -0.590542436 0.670368195 -0.488807917 -0.558277071 -0.911904871 -0.372602552 -0.172037497 -0.79159373 -0.604287386 0.0906427205 -0.817742407 -0.573392808 0.0501801968 0.579143941 -0.793270588 0.187920317 0.648591459 -0.623325586 -0.436800182 -0.667211652 0.128370315 -0.733723104 0.0104036052 -0.999549031 -0.0281697493 -0.013278584 -0.998262346 -0.0574109852 -0.0798169896 -0.9870345 -0.139255762 0.660575867 0.516008139 0.545321167 -0.160910219 0.986671209 0.0242459998 -0.145877391 0.969757318 -0.195679784 0.804608107 -0.475096881 -0.356214553 0.279824495 -0.418154985 -0.864201725 -0.0196298808 -0.8074947 0.589548111 0.073067002 -0.841000915 0.536077142 -0.0731643811 -0.910751343 0.406422138 0.118268549 -0.325302988 -0.938184679 0.065999642 -0.513147593 -0.855759084 0.023559466 -0.027619008 -0.999340832 -0.0918379202 -0.99355948 0.0663727447 -0.142529353 0.0701055825 0.987304688 -0.14581795 0.153894275 0.977268457 -0.203649879 -0.844881773 0.494673133 -0.448325157 -0.891965628 0.0583260842 -0.0307565946 0.87298578 0.486774951 0.0622055307 -0.88711369 -0.457339823 0.226370454 -0.751715779 -0.619418979 0.126129031 -0.8424263 -0.523841023 -0.643304706 -0.742973089 0.184797361 0.258576423 -0.716715038 -0.647655606 -0.902315915 0.1454245 0.405804962 0.987192214 -0.120057903 -0.105060175 0.955596507 -0.27998814 -0.0918803364 0.910951793 -0.380376726 -0.159625679 0.209984362 -0.0824939385 -0.974218309 -0.159654051 0.896903336 -0.412401497 -0.210546806 0.677423894 -0.704816937 -0.178912416 0.729590893 -0.660066307 -0.0843850002 -0.814020395 0.574673831 -0.16590412 -0.745404541 -0.645637631 0.1464542 -0.556886256 -0.817574978 -0.0283701364 0.436493307 -0.899260104 -0.49889648 0.793202937 0.349186718 -0.997949362 -0.0529712699 -0.0359320417 -0.984349728 -0.154635474 -0.0845193267 -0.998624861 -0.0502765998 -0.0148527324 0.0748102814 0.209427506 -0.974958241 0.289648712 -0.900371194 0.324708074 -0.0576059446 0.107697815 0.992513359 -0.0862756744 0.0620254353 0.994338632 -0.156892911 -0.0530219078 0.986191332 -0.737962484 -0.67162782 0.0657832175 -0.0544014759 0.601358354 -0.79712522 -0.771569252 -0.617118359 0.154421076 0.0450772904 0.97600174 -0.213046074 0.165461838 0.958378613 -0.232664496 -0.0534217209 0.649262488 0.758685946 0.925451219 0.335910082 -0.175226748 0.977231622 0.195856571 -0.0815997422 0.998990655 0.0396279134 0.0211484507 0.186818287 0.916036665 -0.35493055 0.938318968 -0.278839976 -0.204464525 0.834608495 0.478726119 -0.272488415 -0.710721374 -0.675829113 0.195269287 0.0593959056 -0.997705042 0.0325077809 -0.176303357 0.0834050104 -0.980795979 0.720131338 -0.56304276 0.405454874 0.15519616 0.0420711674 0.986987412 0.0834211931 -0.156997755 0.984069407 0.129253104 -0.0319275931 0.99109751 0.0983764529 -0.363397747 -0.926425457 -0.229051679 -0.950812101 -0.208546579 0.245065704 -0.855563939 0.456018835 0.166255057 -0.89674592 0.410129279 0.0768858716 -0.91763556 0.389914751 -0.0724343956 -0.791794181 0.606477737 0.132451877 -0.968641043 0.210216686 0.0715513974 -0.946464598 0.314777941 0.203267381 -0.550082982 0.809994459 0.992487371 -0.0933255032 0.079115212 0.99928683 -0.0134809902 0.0352719277 0.665450871 -0.392265677 0.635061264 -0.0123757971 -0.397823542 0.917378485 -0.0289456435 -0.813587725 0.5807212 0.929657042 0.248808786 -0.271720439 -0.354197115 0.308986187 -0.882650495 -0.999738991 0.0117100049 0.0196171459 -0.996393204 0.0463687405 0.0710673481 -0.125875309 0.582927942 0.802714407 -0.219005689 0.207602993 0.953382134 -0.591785431 -0.782773495 0.192498624 -0.0580263734 0.433458865 -0.899303257 0.962632835 0.0609858111 -0.26385358 0.0514042601 0.276145905 0.959740102 -0.0171079691 0.95009625 0.311487406 -0.0549257398 0.96781224 0.245606706 -0.0309829563 0.957262039 0.287557691 0.380892605 0.875419915 0.297591746 -0.680981755 0.731877089 0.0248961467 -0.777724028 -0.628604174 0.001453173 0.0274319965 0.921911955 0.386427045 0.937086463 0.0591298565 0.344053268 0.96070677 -0.00693231309 0.277478725</float_array>
          <technique_common>
            <accessor source="#normals_array" count="127" stride="3">
              <param name="X" type="float" />
              <param name="Y" type="float" />
              <param name="Z" type="float" />
            </accessor>
          </technique_common>
        </source>
        <vertices id="vertices">
          <input semantic="POSITION" source="#positions" />
        </vertices>
        <triangles material="scout_1a1a1a" count="94">
          <input semantic="VERTEX" source="#vertices" offset="0" />
          <input semantic="NORMAL" source="#normals" offset="1" />
          <p>0 0 1 1 2 2 3 3 4 4 2 2 0 5 5 5 4 5 6 6 1 7 4 8 7 9 5 10 0 11 6 12 8 12 9 12 10 13 11 13 12 13 13 14 14 14 10 14 15 15 4 16 16 17 10 18 17 18 16 18 10 19 16 20 18 21 19 22 10 19 18 21 15 23 17 24 5 25 15 26 7 26 18 26 7 27 19 22 18 21 12 28 7 28 10 28 11 29 17 30 7 31 7 32 12 32 19 32 15 15 18 33 20 34 7 9 15 35 5 10 11 36 21 36 12 36 21 37 11 38 7 39 22 40 3 41 23 42 24 43 10 43 14 43 14 44 25 45 3 3 26 46 7 39 0 47 8 48 6 48 27 48 27 49 0 50 8 51 26 46 0 47 27 52 8 51 0 50 28 53 28 54 29 54 8 54 22 55 8 56 29 57 13 58 9 58 24 58 20 34 26 59 15 15 21 60 26 59 19 61 7 39 26 46 9 62 0 63 4 63 1 63 3 41 22 40 29 64 21 37 7 39 9 62 15 65 16 65 17 65 5 66 1 66 16 66 23 67 3 68 30 69 1 1 3 3 2 2 22 40 23 42 31 70 29 71 27 71 6 71 32 72 33 73 30 74 25 75 14 75 13 75 12 76 21 60 19 61 25 45 4 4 3 3 4 8 25 77 6 6 4 16 27 78 29 79 29 80 2 2 4 4 11 81 3 82 1 83 31 84 34 84 35 84 14 85 29 85 24 85 11 81 10 86 3 82 26 59 27 78 15 15 1 87 5 25 17 24 11 29 1 88 17 30 19 89 13 89 10 89 16 90 4 90 5 90 9 91 30 92 24 93 15 15 27 78 4 16 29 64 14 94 3 41 16 95 1 7 6 6 19 96 20 97 6 98 26 46 6 99 9 62 18 100 16 101 20 97 20 97 16 101 6 98 9 102 32 102 30 102 9 103 22 55 35 104 25 105 29 105 6 105 24 93 30 92 10 106 6 99 26 46 21 107 21 108 13 108 6 108 13 109 21 109 9 109 34 110 30 69 33 111 30 69 34 110 23 67 28 112 0 0 29 80 17 113 10 113 7 113 19 61 26 59 20 34 30 114 3 114 10 114 23 42 34 115 31 70 35 104 22 55 31 116 22 55 9 103 8 56 33 73 32 72 36 117 35 118 34 119 33 120 29 80 0 0 2 2 24 121 29 121 13 121 13 122 29 122 25 122 13 123 19 123 6 123 35 118 33 120 36 124 36 125 32 126 35 104 35 104 32 126 9 103</p>
        </triangles>
      </mesh>
    </geometry>
  </library_geometries>
  <library_visual_scenes>
    <visual_scene id="scene">
      <node id="left_shoulder_pitch_link">
        <instance_geometry url="#geometry">
          <bind_material>
            <technique_common>
              <instance_material symbol="scout_1a1a1a" target="#scout_1a1a1a" />
            </technique_common>
          </bind_material>
        </instance_geometry>
      </node>
    </visual_scene>
  </library_visual_scenes>
  <scene>
    <instance_visual_scene url="#scene" />
  </scene>
</COLLADA>