<?xml version='1.0' encoding='utf-8'?>
<COLLADA xmlns="http://www.collada.org/2005/11/COLLADASchema" version="1.4.1">
  <asset>
    <created>2026-09-14T00:00:00Z</created>
    <modified>2026-09-14T00:00:00Z</modified>
    <unit name="metre" meter="1" />
    <up_axis>Z_UP</up_axis>
  </asset>
  <library_effects>
    <effect id="scout_1a1a1a_effect">
      <profile_COMMON>
        <technique sid="common">
          <lambert>
            <emission>
              <color>0 0 0 1</color>
            </emission>
            <ambient>
              <color>0.05 0.05 0.05 1</color>
            </ambient>
            <diffuse>
              <color>0.1 0.1 0.1 1</color>
            </diffuse>
          </lambert>
        </technique>
      </profile_COMMON>
    </effect>
  </library_effects>
  <library_materials>
    <material id="scout_1a1a1a" name="scout_1a1a1a">
      <instance_effect url="#scout_1a1a1a_effect" />
    </material>
  </library_materials>
  <library_geometries>
    <geometry id="geometry" name="left_elbow_pitch_link">
      <mesh>
        <source id="positions">
          <float_array id="positions_array" count="117">-0.0395085663 0.00532071851 0.000346820481 -0.00532589201 0.00587867806 -0.0410580151 -0.0305764191 -0.00941442791 -0.0340050012 -0.0171852708 -0.000278485822 -0.0135526275 3.78938421e-05 0.00301932893 -0.037305221 0.00517688086 0.00331514375 -0.0193108004 0.0161918513 -0.00286799367 -0.0172355361 -0.0292545855 -0.00121877156 0.0298632216 0.00188227894 0.004962523 0.0405700915 0.0708209202 -0.00230595912 -0.0216073338 0.047617346 -0.00315790204 -0.0185451452 0.0749038011 -0.00178954552 -0.0229017008 0.066013135 -0.0173971374 -0.0421100892 0.0901776478 -0.0104545625 -0.0350839198 0.0542846024 -0.00272339559 0.00466808816 0.0686534047 -0.00998847466 0.00889146421 0.0403256342 -0.00259432686 -0.0399080552 0.120832033 0.0021742559 -0.0183692873 0.118994743 -0.0211442858 -0.0411467552 0.0879154429 -0.0109848427 0.0144154234 0.0141305132 0.004131041 0.0166663844 0.124174766 -0.0334634669 -0.0107535319 0.116844185 -0.0542385876 -0.0377291888 0.0238847174 0.00277547399 0.0291549861 0.0558973886 -0.00910772104 0.0203370005 0.0176542811 -0.00298943697 0.0128314868 0.0611984879 -0.0108065279 0.0193808246 0.0521974079 -0.0597595908 0.0117568234 0.118620344 -0.0589660034 0.0120143779 0.119339027 -0.0156183969 0.0164912269 0.0689610466 0.00364330714 -0.016252229 0.0639120713 -0.0488188155 0.0111840805 0.0710227191 -0.0530902818 0.0149247237 0.063834466 -0.042075593 0.0216666665 0.0663412809 -0.0332276821 0.0148231117 0.0706310794 -0.059835054 0.00218296191 -0.0124833584 4.62163298e-05 0.015023604 0.0512855314 -0.0564774536 -0.0358578824 0.0695819706 -0.0519727953 -0.0350239016</float_array>
          <technique_common>
            <accessor source="#positions_array" count="39" stride="3">
              <param name="X" type="float" />
              <param name="Y" type="float" />
              <param name="Z" type="float" />
            </accessor>
          </technique_common>
        </source>
        <source id="normals">
          <float_array id="normals_array" count="345">-0.551528633 0.705021679 -0.445825785 0.0940536633 -0.983025372 0.157527745 -0.113407992 -0.989769995 0.0865680203 0.232532799 -0.935598791 0.265675426 0.385994196 -0.909624755 0.153594524 0.133443624 0.520737231 0.843223274 -0.284059912 0.910528123 0.300413817 0.0165513698 0.990735769 0.134791404 -0.0693016201 0.994369328 0.0801683143 0.00378965633 -0.932856619 -0.360228002 -0.0245562438 -0.899458408 -0.436315894 0.0368342623 -0.962737978 -0.267915666 0.0933061913 -0.793411374 0.601491809 0.0926728174 -0.793319702 0.601710558 0.0463421643 -0.785654783 0.616927028 -0.60934788 0.700026035 -0.372369081 -0.446139187 0.767510176 -0.460312843 -0.26444754 0.805250108 -0.530697405 0.0462431274 -0.969444513 -0.240912572 -0.0637679398 0.810799241 -0.581840396 0.151465252 0.875923634 -0.458056867 0.126926064 0.756254077 -0.641848505 0.150232345 0.684745371 -0.713129699 0.0945575908 0.991970062 0.083989419 0.33697933 0.928649724 0.155095726 0.515445828 0.821573436 0.243583038 0.359266281 0.884161472 0.298640579 -0.24229458 -0.944690347 -0.221028313 -0.149482653 -0.946387589 -0.286365896 -0.402828962 -0.911401451 -0.084120445 0.0230224077 -0.999732018 -0.00241245143 -0.107085884 -0.993767917 -0.0309506394 -0.0126692913 -0.999575138 0.0262501109 0.985164821 -0.00860929675 -0.171394736 0.998180747 -0.0598958842 -0.00690802885 0.976723135 -0.161839575 -0.140783042 0.99578011 0.0874652416 -0.027780313 -0.412504911 -0.607650816 -0.678675354 -0.0954237878 -0.992559493 -0.0756306425 -0.0385152586 -0.982769191 -0.180779636 -0.0756345764 -0.926121593 -0.369564831 0.881472707 -0.0898755118 -0.463603556 0.986219347 -0.146963581 0.0759812891 0.988260865 0.0448164456 0.146054462 0.266872913 0.869560838 0.415503085 0.0740686134 0.997142553 0.0148505047 0.248528644 -0.0934481323 -0.964106321 0.407909483 -0.114234321 -0.905847907 0.135250524 -0.195664272 -0.971299529 -0.552896917 -0.0997457504 0.827257991 -0.112553798 0.17308104 -0.978455186 0.516690493 0.117441073 -0.848079324 0.972941041 0.229162604 -0.0295000188 0.583752394 -0.269701362 0.765829206 -0.958373487 -0.239112765 0.156029776 -0.629234493 0.250404924 0.73577261 -0.230057567 0.863012791 -0.449758232 -0.104417518 0.988757968 -0.107026629 -0.0693998113 0.987515926 -0.141406998 0.941755474 -0.00788296573 0.336205959 -0.815936923 0.0451978892 -0.576371431 0.04188307 0.998541713 0.0340628326 0.0242730416 0.995194137 0.0948652178 -0.0890409499 -0.890024185 -0.447133809 0.131688595 0.000195656481 0.991291106 0.198875993 0.0872493014 0.976133108 0.0936729237 -0.0481542498 0.994437814 0.0914392248 0.904302716 0.416983783 -0.991064608 0.0515562259 0.123016022 0.0496057272 -0.103418656 0.993400156 -0.187778905 -0.979899049 -0.0673568174 -0.118826948 -0.974522293 -0.19022727 -0.0623883009 -0.994966388 -0.0784189552 -0.492314339 -0.870177686 0.0204309542 0.14701131 0.979861379 0.135127202 0.0803489238 0.619200706 0.781111121 -0.00910632219 -0.999954522 0.00284403842 -0.512731612 -0.857928932 -0.032623563 -0.0875650421 -0.993632913 -0.0708944649 0.133751914 -0.798519433 0.586921751 -0.0171977691 0.467495292 -0.883828282 -0.0711223185 -0.931702077 0.356192172 0.0318183713 -0.976699293 0.212240502 -0.0918970183 -0.942766964 0.320539266 -0.220644265 -0.890187323 0.398600817 -0.0249366481 -0.101085752 -0.994565129 -0.0324137658 -0.0869254693 -0.995687366 -0.0290849414 -0.0932343602 -0.99521929 0.0751901045 0.0787142143 0.994057596 0.15004684 0.986760139 -0.0615663715 -0.723100364 0.014092017 -0.690599263 -0.0431125052 -0.358832061 -0.932405949 -0.934523523 -0.166437134 0.314586192 0.725816905 -0.166759521 0.667368829 0.0392037071 0.997578323 -0.0574506149 -0.996422708 -0.0808613375 -0.0245611109 -0.87749213 -0.473635882 -0.0753430128 -0.988703251 -0.0964457393 -0.114734687 -0.162225544 0.972292304 0.168316811 -0.242772177 0.947716892 0.207109436 -0.480931461 -0.863767028 0.150370851 -0.0350157395 -0.0819888264 -0.996017933 -0.998381913 0.0290506408 -0.0488836952 -0.99391067 -0.0893837288 0.0644373372 0.0070422045 -0.0597946011 -0.998185873 -0.091537945 0.19085516 0.977340817 0.0200119466 -0.996597648 -0.0799541771 0.0312464107 -0.994922698 -0.0956687033 0.0235950351 -0.99610424 -0.0849682391 0.0141917747 -0.999442458 0.0302215666 0.0121856621 -0.99754256 -0.0689954013 -0.0983075723 -0.973507047 -0.206445381 0.118163235 0.882394493 0.455430955 0.0289990231 -0.998209357 -0.0523176268 0.00247560279 -0.49009648 0.871664703</float_array>
          <technique_common>
            <accessor source="#normals_array" count="115" stride="3">
              <param name="X" type="float" />
              <param name="Y" type="float" />
              <param name="Z" type="float" />
            </accessor>
          </technique_common>
        </source>
        <vertices id="vertices">
          <input semantic="POSITION" source="#positions" />
        </vertices>
        <triangles material="scout_1a1a1a" count="86">
          <input semantic="VERTEX" source="#vertices" offset="0" />
          <input semantic="NORMAL" source="#normals" offset="1" />
          <p>0 0 1 0 2 0 3 1 0 2 2 3 3 1 2 3 4 4 5 5 3 5 6 5 7 6 8 7 0 8 9 9 10 10 11 11 11 12 12 13 13 14 14 15 9 16 12 17 11 11 15 18 9 9 9 16 13 19 12 17 16 20 17 21 18 22 15 23 13 24 9 25 14 26 15 26 11 26 19 27 14 28 11 29 5 30 14 31 20 32 18 33 21 34 22 35 18 33 17 36 21 34 23 37 24 37 8 37 25 38 14 39 24 40 14 41 26 41 27 41 28 42 21 34 29 43 8 7 24 44 30 45 31 46 32 47 27 48 33 49 24 49 27 49 27 50 26 50 34 50 31 46 34 51 32 47 34 52 26 52 32 52 35 53 34 53 31 53 26 54 35 54 32 54 15 55 27 55 34 55 32 56 35 57 27 58 15 59 34 59 35 59 26 60 15 60 35 60 19 61 15 23 26 62 19 27 26 63 14 28 24 64 33 65 28 66 24 44 17 67 30 45 27 68 24 68 14 68 29 69 24 64 28 66 17 36 29 43 21 34 6 70 4 71 16 72 5 73 6 70 25 38 5 74 25 74 10 74 9 75 5 75 10 75 16 72 10 76 6 70 11 29 13 77 19 27 5 30 9 78 14 31 11 12 10 79 12 13 20 80 25 80 36 80 23 81 8 82 25 83 24 84 23 81 25 83 22 85 37 86 18 87 16 88 4 88 2 88 10 89 20 89 14 89 10 90 25 90 20 90 16 91 2 91 1 91 16 92 37 92 10 92 10 93 37 93 12 93 8 7 1 94 0 8 38 95 35 96 31 97 27 58 35 57 37 98 37 98 35 57 38 99 12 100 15 100 14 100 16 101 18 87 37 86 15 102 12 103 38 95 15 102 38 95 31 97 15 104 31 46 27 48 37 105 38 105 12 105 37 106 22 107 28 108 5 30 20 32 3 1 3 1 20 32 36 109 6 70 10 76 14 39 6 70 14 39 25 38 37 106 28 108 27 110 21 34 28 42 22 35 4 71 6 70 3 111 29 112 17 67 24 44 36 109 25 83 8 82 7 113 36 109 8 82 7 113 0 2 36 109 0 2 3 1 36 109 27 114 28 114 33 114 17 21 16 20 30 45 13 24 15 23 19 61 30 45 16 20 1 94 8 7 30 45 1 94</p>
        </triangles>
      </mesh>
    </geometry>
  </library_geometries>
  <library_visual_scenes>
    <visual_scene id="scene">
      <node id="left_elbow_pitch_link">
        <instance_geometry url="#geometry">
          <bind_material>
            <technique_common>
              <instance_material symbol="scout_1a1a1a" target="#scout_1a1a1a" />
            </technique_common>
          </bind_material>
        </instance_geometry>
      </node>
    </visual_scene>
  </library_visual_scenes>
  <scene>
    <instance_visual_scene url="#scene" />
  </scene>
</COLLADA>