<?xml version='1.0' encoding='utf-8'?>
<COLLADA xmlns="http://www.collada.org/2005/11/COLLADASchema" version="1.4.1">
  <asset>
    <created>2026-09-14T00:00:00Z</created>
    <modified>2026-09-14T00:00:00Z</modified>
    <unit name="metre" meter="1" />
    <up_axis>Z_UP</up_axis>
  </asset>
  <library_effects>
    <effect id="scout_1a1a1a_effect">
      <profile_COMMON>
        <technique sid="common">
          <lambert>
            <emission>
              <color>0 0 0 1</color>
            </emission>
            <ambient>
              <color>0.05 0.05 0.05 1</color>
            </ambient>
            <diffuse>
              <color>0.1 0.1 0.1 1</color>
            </diffuse>
          </lambert>
        </technique>
      </profile_COMMON>
    </effect>
  </library_effects>
  <library_materials>
    <material id="scout_1a1a1a" name="scout_1a1a1a">
      <instance_effect url="#scout_1a1a1a_effect" />
    </material>
  </library_materials>
  <library_geometries>
    <geometry id="geometry" name="left_ankle_pitch_link">
      <mesh>
        <source id="positions">
          <float_array id="positions_array" count="75">-0.0107466439 -0.00769989844 -0.0170007832 0.0108648967 0.00140176527 -0.0124000292 0.0092042964 -0.00663277367 -0.017300291 -0.016223412 -0.0125665134 0.00391258067 -0.016555883 -0.0125665134 0.00372062856 -0.0133490954 -0.011915056 -0.004409282 -0.0058111148 -0.0128322253 0.0102279987 -0.0160239432 -0.0125665134 0.00402774382 -0.0157574695 -0.0125624398 0.0041803997 -0.0154789863 -0.0125665134 0.00434004609 -0.0152795175 -0.0125665134 0.00445753848 -0.0148633504 -0.012569041 0.00469636219 -0.0133233368 -0.0125294896 0.00558246765 -0.0140036559 -0.012546354 0.00519385841 -0.0125725344 -0.0124971773 0.00601888401 0.0120209977 0.0121856034 -0.0260189921 -0.0109935869 -0.0202814639 -0.0296 -0.0111642256 0.0179774575 -0.0293761063 -0.0107365856 0.00316295237 -0.0278176349 -0.00878260285 -0.0125783812 -0.000132545756 -0.0154664703 0.0111722304 -0.00307381363 0.00858758762 -0.0140073625 0.00852169376 0.0087822238 0.0125805279 -0.000146151258 0.00902237184 0.0132172648 0.0136766788 -0.0173503477 -0.0125466855 0.00326065044</float_array>
          <technique_common>
            <accessor source="#positions_array" count="25" stride="3">
              <param name="X" type="float" />
              <param name="Y" type="float" />
              <param name="Z" type="float" />
            </accessor>
          </technique_common>
        </source>
        <source id="normals">
          <float_array id="normals_array" count="207">-0.064715907 0.568300545 -0.820272088 -0.0559738763 0.553087473 -0.831240773 -0.0409052707 0.526409507 -0.849246621 0.0266002752 -0.997270167 -0.0688812807 0.0284471661 -0.997232556 -0.0686876923 0.0290179607 -0.988837719 -0.146143526 -0.0661754459 -0.997697711 -0.0148373488 -0.435202092 0.492407769 0.75374645 -0.484443605 0.249632195 0.838449836 -0.334333062 0.740685523 0.582757533 -0.452841252 0.429179639 0.781498313 -0.177339301 0.926141739 0.332884669 -0.42891115 0.534371197 0.728342414 -0.430073947 0.531033456 0.730095804 -0.533430099 0.237618953 0.811781704 0.213948727 0.907158375 -0.362339169 -0.287748456 0.810921073 0.509517312 -0.431959867 0.525753736 0.732798517 -0.45600301 0.450280994 0.767664194 -0.48965317 0.305541068 0.816629946 0.144872636 0.00643635169 -0.989429355 -0.132936537 0.586895347 0.798674941 -0.16448915 0.546669841 0.82103312 -0.241894245 0.437471062 0.866086721 -0.457491606 -0.412527293 0.787732601 0.446878761 0.0149893034 -0.894468963 0.255691469 -0.192067355 -0.947487235 0.291652769 -0.155979067 -0.943720937 -0.0718413889 0.580555558 -0.811045051 0.321891338 -0.881012082 0.346703947 0.386920333 -0.863681495 0.323027819 -0.0270941406 0.705358386 0.708332896 -0.542526662 0.228737235 0.808297038 -0.485441566 0.259964764 0.834724367 -0.999711275 -0.000513187377 -0.0240227692 0.227085933 0.973780274 0.0135628255 0.24025175 0.970590651 0.0152596105 -0.101145685 0.994247854 -0.0352251008 0.663924754 0.690434754 0.287234783 -0.782593906 -0.42408675 0.455738068 -0.0669296086 0.996753573 -0.0447518714 -0.0525000356 0.997604609 -0.0450417735 0.996109962 -0.0163997095 0.0865790769 0.99664098 -0.0303213485 0.0760746598 0.996458769 -0.0245809983 0.0804096237 0.618257105 0.265598297 0.739740252 0.657674551 -0.395483494 -0.641137302 -0.0814676657 -0.996675432 -0.00105418358 -0.0718392655 -0.995195925 -0.0665146485 -0.98906666 -0.0433779024 -0.140944853 -0.996711314 -0.0139532983 0.0798240751 -0.983822644 -0.0465964936 -0.172979057 -0.996926725 0.0685226396 -0.037970569 -0.946733057 -0.0224696323 -0.321234614 -0.991672933 0.0538358726 -0.116989091 -0.944936514 -0.0681469068 -0.320079595 -0.455803245 -0.678573668 -0.576004505 0.0873258188 -0.966067374 -0.243080214 0.131650537 -0.308125377 -0.942192614 0.854130208 0.369986653 0.365474313 0.982281804 -0.185089305 -0.0294003859 0.100576594 -0.186651304 0.977264345 -0.563513458 0.215295687 0.797558963 -0.47294718 -0.282798022 0.83447361 -0.883473337 -0.054107286 -0.465346426 0.094933629 0.973480999 -0.208140284 0.0174019299 -0.997177243 -0.07303904 -0.480861932 0.260365605 0.837246418 -0.497326881 0.0899117813 0.862891555</float_array>
          <technique_common>
            <accessor source="#normals_array" count="69" stride="3">
              <param name="X" type="float" />
              <param name="Y" type="float" />
              <param name="Z" type="float" />
            </accessor>
          </technique_common>
        </source>
        <vertices id="vertices">
          <input semantic="POSITION" source="#positions" />
        </vertices>
        <triangles material="scout_1a1a1a" count="54">
          <input semantic="VERTEX" source="#vertices" offset="0" />
          <input semantic="NORMAL" source="#normals" offset="1" />
          <p>0 0 1 1 2 2 3 3 4 4 5 5 3 3 5 5 6 6 7 7 3 8 6 9 8 10 7 7 6 9 9 11 8 10 6 9 10 12 9 13 6 14 11 15 9 15 10 15 11 16 10 12 6 14 12 17 13 18 6 14 14 19 12 17 6 14 15 20 16 20 17 20 18 21 2 22 15 23 8 24 9 24 11 24 19 25 20 26 21 27 20 28 1 1 0 0 15 29 20 29 18 29 16 30 2 30 5 30 0 31 2 22 18 21 20 32 8 10 11 33 22 34 2 34 21 34 15 35 17 36 22 37 17 38 20 38 2 38 17 39 2 39 22 39 15 35 22 37 23 40 22 37 20 41 23 40 15 42 23 43 21 44 19 45 2 45 20 45 15 46 2 46 16 46 21 47 6 6 19 48 5 5 19 48 6 6 17 49 18 50 20 51 16 52 5 53 0 54 17 49 16 52 18 50 5 53 20 55 0 54 0 54 18 50 16 52 20 56 15 56 1 56 5 5 2 57 19 48 20 26 22 58 21 27 1 59 15 42 21 44 1 60 21 60 2 60 6 61 21 61 23 61 23 62 20 32 6 14 6 14 20 32 14 19 14 19 20 32 11 33 12 63 14 19 11 33 20 55 5 53 24 64 13 65 12 65 11 65 11 16 6 14 13 18 24 66 5 5 4 4 3 8 7 7 8 10 24 67 4 68 8 10 4 68 3 8 8 10 20 32 24 67 8 10</p>
        </triangles>
      </mesh>
    </geometry>
  </library_geometries>
  <library_visual_scenes>
    <visual_scene id="scene">
      <node id="left_ankle_pitch_link">
        <instance_geometry url="#geometry">
          <bind_material>
            <technique_common>
              <instance_material symbol="scout_1a1a1a" target="#scout_1a1a1a" />
            </technique_common>
          </bind_material>
        </instance_geometry>
      </node>
    </visual_scene>
  </library_visual_scenes>
  <scene>
    <instance_visual_scene url="#scene" />
  </scene>
</COLLADA>