<?xml version='1.0' encoding='utf-8'?>
<COLLADA xmlns="http://www.collada.org/2005/11/COLLADASchema" version="1.4.1">
  <asset>
    <created>2026-09-14T00:00:00Z</created>
    <modified>2026-09-14T00:00:00Z</modified>
    <unit name="metre" meter="1" />
    <up_axis>Z_UP</up_axis>
  </asset>
  <library_effects>
    <effect id="scout_1a1a1a_effect">
      <profile_COMMON>
        <technique sid="common">
          <lambert>
            <emission>
              <color>0 0 0 1</color>
            </emission>
            <ambient>
              <color>0.05 0.05 0.05 1</color>
            </ambient>
            <diffuse>
              <color>0.1 0.1 0.1 1</color>
            </diffuse>
          </lambert>
        </technique>
      </profile_COMMON>
    </effect>
  </library_effects>
  <library_materials>
    <material id="scout_1a1a1a" name="scout_1a1a1a">
      <instance_effect url="#scout_1a1a1a_effect" />
    </material>
  </library_materials>
  <library_geometries>
    <geometry id="geometry" name="left_wrist_pitch_link">
      <mesh>
        <source id="positions">
          <float_array id="positions_array" count="99">-0.00602474343 -0.0180242155 -0.00777060771 -0.0125995129 -0.00156752393 -0.0227915701 0.0057342872 -0.0251394901 -0.0231179334 0.0057017426 0.0302405506 0.000388194836 -0.00301426928 0.0338347964 0.000468048063 -0.00426340336 0.019517323 0.00948293786 -0.00364345033 -0.0330013372 -0.00199681148 0.00403225049 -0.0277977958 0.00485285418 0.00065772183 0.0256434549 -0.00858004484 -0.0114952056 0.00805553794 -0.00978030544 0.000275487284 0.0288752355 -0.0193398166 0.0508216843 -0.00284852344 -0.0220771637 0.0534906909 0.00524519943 -0.00973289367 0.0382161215 -0.0272610988 -0.00977817737 0.022065822 0.0324536376 0.0311182737 0.0253387485 0.0337294899 -0.00978181325 0.00483350363 -0.0282802247 -0.00657891249 0.0350597054 0.0222227257 -0.0257083718 0.0367315672 0.0292930044 -0.0213987287 0.0437637381 -0.0233531576 0.0298317149 0.00736324908 -0.0292849932 0.0299269389 0.0152292149 -0.0124919694 0.0287884399 0.0376377068 -0.00625061616 0.0285616722 0.0286312662 -0.00338418386 0.0300302859 0.023058068 0.00543716969 0.0302094705 0.0258337557 0.0155941965 0.0296107028 0.00773752062 0.00357542629 0.0292791612 0.00230493862 0.0291217323 0.0150044914 0.00713111972 0.0229944233 -0.0247518737 -0.0162749123 0.0040508043 0.0295679141 0.0344257019 -0.0261497665 -0.0218476355 0.039872542 -0.0192670953 -0.0292857755 0.0490667075 0.0125516756 0.0299626626</float_array>
          <technique_common>
            <accessor source="#positions_array" count="33" stride="3">
              <param name="X" type="float" />
              <param name="Y" type="float" />
              <param name="Z" type="float" />
            </accessor>
          </technique_common>
        </source>
        <source id="normals">
          <float_array id="normals_array" count="228">-0.723520994 -0.640515983 -0.257403702 -0.753173649 -0.581546307 -0.307462692 -0.71599853 -0.65345782 -0.245639995 0.216545716 0.506579876 0.834556639 -0.713097751 0.150578827 0.684702575 -0.95051074 -0.101880372 -0.293512732 -0.888963103 0.401040643 -0.221158341 -0.861467779 0.498777688 -0.0953629017 -0.858525515 0.50996691 0.0535503738 0.880782902 -0.473240763 0.0162683055 0.937491298 -0.345481873 0.0418607555 0.864151955 -0.481040299 -0.147788942 0.653635442 0.756808519 -0.00125260826 0.668956578 0.736586869 0.0996839404 0.698125541 0.690306306 0.189994723 -0.666021526 -0.725350499 -0.17401731 0.366112292 0.202611029 -0.908245862 0.710318565 0.324571013 -0.62458086 0.597718894 0.23289375 -0.767132759 0.103528835 -0.994340181 0.0238605924 0.0452992059 -0.997110009 -0.0609885044 0.0310215484 -0.999504685 0.00530116539 0.653399169 0.646451831 0.393915653 0.160623297 -0.986273348 -0.0382764265 0.0020152349 0.00958639011 0.999952018 -0.0337389372 -0.000670551846 0.999430478 0.0896572694 -0.0633647144 0.993954957 0.00632656738 -0.0656250864 0.997824311 0.0335540138 -0.0156558026 0.999314249 0.125810608 -0.0450902581 0.991029024 -0.0125011671 -0.0468819477 0.998822212 -0.958475232 -0.184277505 0.217639565 -0.917464197 -0.395546675 0.0424537323 -0.978815258 -0.204402581 0.0118434522 -0.780182481 0.610910356 -0.134550288 -0.809820592 0.584079325 -0.0551538691 -0.794676721 0.59923327 -0.0969967768 -0.0199529938 0.634979129 -0.772271574 -0.0538930222 0.528979421 -0.846921682 -0.0481247492 0.547887087 -0.835166872 -0.224392474 -0.0265559703 -0.974136949 -0.624038696 -0.00841399468 -0.781348169 -0.415276736 0.00987409614 -0.909641564 -0.00674082711 0.67289114 -0.739710808 -0.894512773 -0.446659058 0.0185091347 0.514772415 -0.854287088 0.0721316114 -0.308728069 0.949816227 0.0503597334 -0.235220298 0.96555382 -0.111252978 -0.232408762 0.972605705 0.00493511325 -0.813642025 0.579991162 -0.0399613343 -0.821662247 0.560804129 0.101832524 -0.0218326785 -0.962048888 -0.272002429 0.0062948605 -0.904350877 -0.426743358 -0.783375263 -0.613396406 0.100339733 -0.586297572 -0.809544861 0.0298716221 -0.447361857 -0.894330263 0.00638585771 0.0422469415 0.046718698 -0.998014331 0.0220670849 -0.0224739742 0.999503851 -0.049471844 -0.053525392 0.997340262 0.0206107795 0.0577864945 0.998116195 -0.0467167012 0.0573235415 0.997262061 0.803290069 -0.567032158 -0.182207361 0.816304803 -0.573736727 0.0668775663 0.980011404 -0.145238876 0.135953188 0.960000157 -0.277773738 0.0352336057 0.58902669 0.803909361 -0.0823241249 -0.0322635062 0.922752857 -0.384039402 0.309874117 0.764014781 -0.56591469 0.0823668838 0.0778196603 -0.993559182 0.00410079164 -0.735470712 -0.677544057 -0.526930988 0.683744669 0.50481379 -0.176171243 0.984092176 0.0229416545 -0.264863968 -0.3832331 -0.88486129 0.826878846 0.371398687 -0.422296494 -0.285871744 0.914918542 0.284958631 -0.190569758 0.981189787 0.0308179818</float_array>
          <technique_common>
            <accessor source="#normals_array" count="76" stride="3">
              <param name="X" type="float" />
              <param name="Y" type="float" />
              <param name="Z" type="float" />
            </accessor>
          </technique_common>
        </source>
        <vertices id="vertices">
          <input semantic="POSITION" source="#positions" />
        </vertices>
        <triangles material="scout_1a1a1a" count="62">
          <input semantic="VERTEX" source="#vertices" offset="0" />
          <input semantic="NORMAL" source="#normals" offset="1" />
          <p>0 0 1 1 2 2 3 3 4 3 5 3 0 4 6 4 7 4 8 5 5 5 4 5 1 6 9 7 10 8 11 9 12 10 13 11 14 12 12 13 15 14 2 2 16 15 0 0 17 16 18 17 11 18 19 19 16 20 13 21 18 22 15 14 12 13 16 20 19 19 20 23 21 24 22 25 23 26 14 27 24 28 25 29 24 28 14 27 26 30 1 31 0 32 9 33 3 34 5 35 27 36 10 37 18 38 17 39 2 40 10 41 28 42 10 37 17 39 28 43 29 44 9 33 0 32 7 45 6 45 16 45 8 46 3 47 15 48 9 7 29 49 5 35 8 50 9 7 5 35 24 28 21 24 23 26 9 7 8 50 10 8 2 51 30 52 16 20 20 53 7 54 16 55 31 56 2 40 28 42 31 56 28 42 17 16 13 21 16 20 30 52 14 27 29 57 26 30 26 30 29 57 21 24 14 27 25 29 32 58 22 25 32 58 25 29 29 57 20 59 21 24 22 25 20 59 19 60 19 60 32 58 22 25 20 59 22 25 21 24 30 61 11 9 13 11 11 9 30 61 31 62 23 26 22 25 24 28 25 29 24 28 22 25 32 63 19 64 12 10 26 30 21 24 24 28 14 12 32 65 12 13 20 53 0 32 7 54 15 66 18 66 10 66 8 67 4 67 3 67 10 68 2 68 1 68 2 51 31 69 30 52 13 11 12 10 19 64 31 56 17 16 11 18 29 49 27 36 5 35 14 70 27 70 29 70 14 71 15 48 3 47 6 72 0 72 16 72 12 73 11 18 18 17 15 48 10 74 8 46 3 47 27 75 14 71 29 44 0 32 20 53</p>
        </triangles>
      </mesh>
    </geometry>
  </library_geometries>
  <library_visual_scenes>
    <visual_scene id="scene">
      <node id="left_wrist_pitch_link">
        <instance_geometry url="#geometry">
          <bind_material>
            <technique_common>
              <instance_material symbol="scout_1a1a1a" target="#scout_1a1a1a" />
            </technique_common>
          </bind_material>
        </instance_geometry>
      </node>
    </visual_scene>
  </library_visual_scenes>
  <scene>
    <instance_visual_scene url="#scene" />
  </scene>
</COLLADA>