<?xml version='1.0' encoding='utf-8'?>
<COLLADA xmlns="http://www.collada.org/2005/11/COLLADASchema" version="1.4.1">
  <asset>
    <created>2026-09-14T00:00:00Z</created>
    <modified>2026-09-14T00:00:00Z</modified>
    <unit name="metre" meter="1" />
    <up_axis>Z_UP</up_axis>
  </asset>
  <library_effects>
    <effect id="scout_1a1a1a_effect">
      <profile_COMMON>
        <technique sid="common">
          <lambert>
            <emission>
              <color>0 0 0 1</color>
            </emission>
            <ambient>
              <color>0.05 0.05 0.05 1</color>
            </ambient>
            <diffuse>
              <color>0.1 0.1 0.1 1</color>
            </diffuse>
          </lambert>
        </technique>
      </profile_COMMON>
    </effect>
  </library_effects>
  <library_materials>
    <material id="scout_1a1a1a" name="scout_1a1a1a">
      <instance_effect url="#scout_1a1a1a_effect" />
    </material>
  </library_materials>
  <library_geometries>
    <geometry id="geometry" name="left_shoulder_roll_link">
      <mesh>
        <source id="positions">
          <float_array id="positions_array" count="273">-0.00198681536 -0.0437106974 0.00248517259 -0.0358586349 -0.0460222103 -0.0801181048 -0.0349874943 -0.0460294746 -0.129878134 -0.0134999994 -0.0435446948 0.00631092209 -0.0342558585 -0.042131152 -0.145004526 -0.0237339456 -0.044834584 -0.130025163 -0.046961803 -0.0442856662 -0.0848550051 -0.00270625367 -0.0409309566 0.0164579507 -0.0134893106 -0.0387576669 0.0215154123 -0.0585013628 -0.0390307978 -0.0889858827 -0.0451093204 -0.0445017256 -0.130712822 -0.0169502068 -0.0386259817 -0.145008117 -0.0138976201 -0.0414072387 -0.130111948 -0.0697544143 -0.0293851215 -0.0888343751 0.008050167 0.0062183761 0.0345258303 0.0024538103 0.00170235056 0.0408027843 0.00466078054 -0.0112557663 0.0374949053 -0.0561771803 -0.0403517373 -0.130246505 -0.0341925584 6.08861737e-05 -0.145690262 -0.0506710596 -0.0387428254 -0.145002782 -0.00402657455 -0.0347910784 -0.130624235 -0.00154313853 0.0169946514 0.0402748734 0.00482538855 0.0236351658 0.0310033504 0.00932678673 0.0205608625 0.0253215153 0.011733762 0.00350231072 0.0254740436 0.0117987636 0.0141801387 0.0209035035 -0.00113246613 -0.034890268 0.0261436403 -0.00314324489 -0.0278583188 0.0341232345 -0.0135252783 -0.0247413684 0.0367013961 -0.0773690343 -0.0156242549 -0.0887014642 -0.0668515787 -0.0322643369 -0.129866451 -0.0696691498 -0.0234888382 -0.145010009 -0.00173821137 -0.0272982121 -0.145004824 0.00459808437 -0.0373378061 0.0117174638 0.00374193932 -0.0398290865 0.00102545414 -0.0755240247 -0.0203092843 -0.129684955 -0.0762558058 1.47761909e-07 -0.145004734 0.00713781361 0.00956816133 -0.145004332 0.00705377664 -0.0101685189 -0.145004362 0.00989305507 -0.0135558434 -0.130256101 0.00509809377 -0.0243709572 -0.130277559 0.00929740164 -0.0328033455 0.00275192969 -0.00279784668 -0.0178790465 0.040136259 -0.0134494109 -0.0056412383 0.0439489223 -0.0799867213 -0.00307607697 -0.0886124223 -0.0797823891 -0.00479297247 -0.13033478 -0.00137333293 0.0269439369 -0.145002469 0.00936010201 0.0153989121 -0.130284369 0.0115900785 0.00597068248 -0.13001661 0.0118821487 -0.00392651465 -0.130101487 0.0112784179 -0.0226032455 0.0155467214 0.00802480243 -0.0281744394 0.0208706241 0.0118485056 -0.0249518547 0.00236293674 0.00493437238 -0.0216818359 0.0320704356 -0.00313182152 -0.00824354962 0.0432569385 0.0118237501 -0.0100805759 0.0233360548 -0.079427436 0.00710145524 -0.130005136 -0.0696682334 0.0234885346 -0.145013571 -0.0764577314 0.0178966243 -0.129716232 -0.0168091077 0.0385720246 -0.145003811 0.00273725833 0.0277694892 -0.130523011 -0.00287708081 0.00646578241 0.0436340645 -0.0135099394 0.0152598051 0.0415975377 -0.0784377605 0.0127473241 -0.088504605 -0.0686204657 0.0305220541 -0.129965439 -0.0342543013 0.0421313681 -0.145004004 -0.0506757274 0.0387492999 -0.145005494 -0.0200367123 0.0440049209 -0.130086958 -0.00748964306 0.0376240537 -0.130105659 0.00938193034 -0.0122942114 0.0302988049 -0.0561555028 0.0403704569 -0.130270109 -0.0449496508 0.0445571095 -0.130638674 -0.0715537667 0.0267093554 -0.0887096748 -0.0346867554 0.0460288785 -0.129928067 0.00370215462 0.0397878215 -4.41846096e-05 0.0091609722 0.0330418386 -0.000442639692 0.0118348571 0.0250210315 0.00290251384 -0.00277929101 0.0270843636 0.0345916823 -0.0135000004 0.0287943874 0.0332677998 -0.00226317579 0.0438049212 0.00130804477 -0.0359754376 0.046031937 -0.0806175172 -0.00283774873 0.0336282551 0.0282818414 -0.0135729043 0.038947165 0.0210424121 -0.0629074425 0.0359277613 -0.0889300257 0.00459846342 0.0375227518 0.0113553368 -0.00318762334 0.0389250591 0.020696139 -0.0492835641 0.0436813608 -0.0873785317 -0.00289733568 0.0425355919 0.0109084267 -0.0135000004 0.043544814 0.00631092209 0.010727182 0.0263679754 0.0135988398 0.00493426202 0.0320752226 0.0216762461</float_array>
          <technique_common>
            <accessor source="#positions_array" count="91" stride="3">
              <param name="X" type="float" />
              <param name="Y" type="float" />
              <param name="Z" type="float" />
            </accessor>
          </technique_common>
        </source>
        <source id="normals">
          <float_array id="normals_array" count="324">0.313098848 -0.946449578 0.0787549317 -0.0669274256 -0.997370362 0.0278040655 -0.0204252191 -0.99214977 -0.123376116 -0.271320373 -0.942069948 0.197204217 -0.00176275335 -0.958554745 -0.28490296 0.207977816 -0.967512488 -0.143752739 -0.321558446 -0.944095194 0.0726938322 0.283098698 -0.895360172 0.343780905 -0.417215973 -0.76875937 0.484705925 -0.554299593 -0.825381279 0.107227311 -0.241037309 -0.960611582 -0.138298094 0.389831781 -0.875043035 -0.286933601 0.438351482 -0.885996222 -0.151191056 -0.773131311 -0.610866666 0.17061618 0.824986041 0.110510364 0.554243147 0.619349897 0.0262302347 0.78467679 0.690252125 -0.194152921 0.69703424 -0.49396044 -0.857496023 -0.143887848 -8.06431563e-05 2.63526254e-05 -1 -0.000186307036 -0.0162503198 -0.999867916 -0.00679224264 -0.0148300407 -0.999866962 -0.405522406 -0.866259336 -0.291798443 0.643566668 -0.74710691 -0.166292533 0.37357235 0.365089148 0.852733016 0.698361754 0.426211327 0.575008452 0.885612786 0.286581904 0.3654598 0.975132525 0.0295611136 0.219642118 0.982112586 0.0972905532 0.161212236 0.374793768 -0.73380971 0.566615343 0.262681991 -0.619418144 0.739810348 -0.0244727191 -0.561814368 0.826901257 -0.869025409 -0.252285719 0.425613433 -0.919838369 -0.330661774 0.211092755 -0.693733573 -0.705697238 -0.143962026 -0.0133014824 -0.00884476304 -0.999872386 -0.800495863 -0.528101385 -0.283399642 0.730833769 -0.618898213 -0.287831485 0.698680282 -0.679576099 0.22365655 0.675913095 -0.7368294 0.0149631519 -0.899948835 -0.415975451 -0.130600572 -0.0162950978 -7.85277443e-05 -0.999867201 0.0157509316 0.00366749405 -0.999869227 0.0156796947 -0.00381870428 -0.999869764 0.942074478 -0.302473962 -0.144931585 0.838139951 -0.521167397 -0.160953104 0.929750025 -0.228511542 -0.288699389 0.879022598 -0.474918634 0.0420903824 0.27349335 -0.391245961 0.878708124 -0.0207334869 -0.125877246 0.991829157 -0.892977059 -0.0507149622 0.447235972 -0.972648621 -0.0537938066 0.225966588 -0.981277764 -0.129529566 -0.142534479 -0.954632938 -0.00247009029 -0.297774792 0.0124947531 0.0103272097 -0.999868631 0.924233139 0.348631352 -0.155721977 0.98364234 0.116002418 -0.137808606 0.932578862 0.216247022 -0.289022267 0.986945212 -0.0723775849 -0.143877044 0.961652637 -0.225345954 0.156343937 0.821687639 -0.456531286 0.341187 0.984303474 -0.175499439 0.0186191015 0.701361299 -0.409767777 0.583251894 0.271229684 -0.177284583 0.946046829 0.982396126 -0.0767224357 0.170327693 -0.975997269 0.162768453 -0.144692108 -0.799063027 0.529875875 -0.284129947 -0.914424181 0.380854249 -0.137034625 0.00671226485 0.0147921182 -0.999868035 0.790863216 0.590400159 -0.161130488 0.741378009 0.608521402 -0.282949507 0.259617954 0.133124515 0.956491709 -0.00872994959 0.344789743 0.938639343 -0.886496544 0.136058271 0.442280471 -0.940641701 0.259483755 0.21877256 -0.728784561 0.671047151 -0.136267468 3.44572654e-05 0.0163099822 -0.999866962 -0.00667421008 0.0148536917 -0.99986738 0.00113058172 0.959556341 -0.281514317 0.284047306 0.947634757 -0.145963848 0.392036885 0.873956621 -0.287240207 0.57068485 0.805329263 -0.160510167 0.00655075489 -0.0147107085 -0.99987036 0.0123914732 -0.0103512499 -0.999869645 0.886407733 -0.170749217 0.430262685 -0.498810172 0.854654193 -0.144064561 -0.405319005 0.866467178 -0.291463673 -0.236875981 0.961580098 -0.13875708 -0.8150841 0.549829662 0.18255204 -0.00227757893 0.992008626 -0.126149341 -0.0132889608 0.00875723083 -0.99987334 0.670802891 0.741557002 0.0108060138 0.874865353 0.484288186 0.00869492162 0.984022439 0.177214369 0.0171720013 0.274585664 0.58609724 0.762294412 -0.0200612843 0.650353193 0.759366989 -0.85198617 0.323430598 0.411718547 0.310329854 0.949043274 0.0548835248 -0.0822765157 0.996092379 0.0321029127 0.286297202 0.731615186 0.618686616 -0.41957739 0.782640636 0.459813505 -0.628317773 0.767179728 0.129043028 0.698558331 0.683441997 0.211951107 0.281746328 0.850596845 0.443964034 -0.36439234 0.928202569 0.0752211288 0.27059719 0.931309402 0.243803024 -0.271657437 0.942485631 0.194738552 0.926598132 0.334826201 0.171193704 0.709238589 0.58472693 0.393795639</float_array>
          <technique_common>
            <accessor source="#normals_array" count="108" stride="3">
              <param name="X" type="float" />
              <param name="Y" type="float" />
              <param name="Z" type="float" />
            </accessor>
          </technique_common>
        </source>
        <vertices id="vertices">
          <input semantic="POSITION" source="#positions" />
        </vertices>
        <triangles material="scout_1a1a1a" count="178">
          <input semantic="VERTEX" source="#vertices" offset="0" />
          <input semantic="NORMAL" source="#normals" offset="1" />
          <p>0 0 1 1 2 2 0 0 3 3 1 1 4 4 5 5 2 2 6 6 1 1 3 3 0 0 7 7 3 3 7 7 8 8 3 3 8 8 9 9 3 3 9 9 6 6 3 3 4 4 2 2 10 10 11 11 5 5 4 4 12 12 0 0 5 5 13 13 9 9 8 8 14 14 15 15 16 16 6 6 17 17 10 10 18 18 4 19 19 20 10 10 17 17 19 21 20 22 0 0 12 12 21 23 14 14 22 24 12 12 5 5 11 11 17 17 6 6 9 9 23 25 24 26 25 27 26 28 8 8 7 7 26 28 27 29 8 8 27 29 28 30 8 8 28 31 29 32 8 8 29 32 13 13 8 8 30 33 9 9 13 13 30 33 17 17 9 9 31 34 18 18 19 20 17 17 31 35 19 21 32 36 20 22 11 11 20 22 12 12 11 11 33 37 0 0 34 38 33 37 7 7 0 0 29 32 35 39 13 13 35 39 30 33 13 13 17 17 30 33 31 35 31 34 36 40 18 18 30 33 35 39 31 35 37 41 38 42 18 18 39 43 40 44 38 45 40 44 32 36 38 45 40 44 20 22 32 36 20 22 34 38 0 0 34 38 41 46 33 37 33 37 26 28 7 7 42 47 28 30 27 29 42 47 43 48 28 30 43 49 44 50 28 31 44 50 29 32 28 31 4 4 10 10 19 21 35 39 45 51 31 35 45 51 36 52 31 35 46 53 37 41 18 18 47 54 48 55 37 56 48 55 49 57 37 56 49 57 38 45 37 56 49 57 39 43 38 45 20 22 40 44 34 38 40 44 41 46 34 38 50 58 51 59 41 46 52 60 50 58 41 46 26 28 53 61 27 29 54 62 43 48 42 47 45 51 29 32 44 50 45 51 35 39 29 32 24 26 55 63 25 27 45 51 56 64 36 52 56 64 57 65 36 52 56 64 58 66 57 65 59 67 46 53 18 18 60 68 47 54 46 69 47 54 37 56 46 69 39 43 41 46 40 44 2 2 6 6 10 10 53 61 42 47 27 29 53 61 16 16 42 47 61 70 43 48 54 62 61 70 62 71 43 48 62 72 44 50 43 49 62 72 63 73 44 50 58 66 64 74 57 65 44 50 56 64 45 51 44 50 63 73 56 64 65 75 18 18 66 76 65 75 59 67 18 18 65 77 67 78 59 79 67 78 68 80 59 79 68 80 46 69 59 79 68 80 60 68 46 69 11 81 18 18 32 82 52 60 39 43 49 57 52 60 41 46 39 43 50 58 69 83 51 59 16 16 54 62 42 47 61 70 21 23 62 71 64 74 70 84 57 65 70 84 66 85 57 65 71 86 65 77 66 85 63 73 58 66 56 64 63 73 72 87 58 66 72 87 64 74 58 66 71 86 73 88 65 77 57 89 18 18 36 40 73 88 67 78 65 77 68 80 74 90 60 68 75 91 47 54 60 68 75 91 76 92 47 54 76 92 48 55 47 54 76 92 49 57 48 55 55 63 50 58 52 60 50 58 55 63 69 83 15 15 61 70 54 62 16 16 15 15 54 62 21 23 77 93 62 71 77 93 78 94 62 71 78 95 63 73 62 72 51 59 26 28 33 37 70 84 71 86 66 85 79 96 74 90 68 80 75 91 60 68 74 90 25 27 55 63 52 60 71 86 80 97 73 88 21 23 61 70 15 15 77 93 81 98 78 94 81 98 82 99 78 94 82 99 63 73 78 95 82 99 72 87 63 73 72 87 83 100 64 74 83 100 70 84 64 74 82 99 83 100 72 87 79 96 68 80 67 78 84 101 75 91 74 90 14 14 16 16 69 83 51 59 53 61 26 28 85 102 82 99 81 98 86 103 71 86 70 84 86 103 70 84 83 100 85 102 87 104 82 99 87 104 88 105 82 99 88 105 83 100 82 99 88 105 80 97 86 103 80 97 79 96 73 88 80 97 88 105 79 96 79 96 84 101 74 90 89 106 76 92 75 91 79 96 67 78 73 88 24 26 69 83 55 63 24 26 14 14 69 83 22 24 77 93 21 23 88 105 86 103 83 100 87 104 79 96 88 105 87 104 84 101 79 96 89 106 25 27 76 92 90 107 89 106 84 101 22 24 14 14 23 25 22 24 81 98 77 93 22 24 90 107 81 98 90 107 85 102 81 98 53 61 51 59 69 83 89 106 23 25 25 27 90 107 23 25 89 106 84 101 85 102 90 107 84 101 87 104 85 102 23 25 14 14 24 26 18 18 11 81 4 19 2 2 1 1 6 6 38 42 32 82 18 18 51 59 33 37 41 46 69 83 16 16 53 61 52 60 49 57 76 92 76 92 25 27 52 60 14 14 21 23 15 15 71 86 86 103 80 97 0 0 2 2 5 5 57 89 66 76 18 18 89 106 75 91 84 101 90 107 22 24 23 25</p>
        </triangles>
      </mesh>
    </geometry>
  </library_geometries>
  <library_visual_scenes>
    <visual_scene id="scene">
      <node id="left_shoulder_roll_link">
        <instance_geometry url="#geometry">
          <bind_material>
            <technique_common>
              <instance_material symbol="scout_1a1a1a" target="#scout_1a1a1a" />
            </technique_common>
          </bind_material>
        </instance_geometry>
      </node>
    </visual_scene>
  </library_visual_scenes>
  <scene>
    <instance_visual_scene url="#scene" />
  </scene>
</COLLADA>