<?xml version='1.0' encoding='utf-8'?>
<COLLADA xmlns="http://www.collada.org/2005/11/COLLADASchema" version="1.4.1">
  <asset>
    <created>2026-09-14T00:00:00Z</created>
    <modified>2026-09-14T00:00:00Z</modified>
    <unit name="metre" meter="1" />
    <up_axis>Z_UP</up_axis>
  </asset>
  <library_effects>
    <effect id="scout_1a1a1a_effect">
      <profile_COMMON>
        <technique sid="common">
          <lambert>
            <emission>
              <color>0 0 0 1</color>
            </emission>
            <ambient>
              <color>0.05 0.05 0.05 1</color>
            </ambient>
            <diffuse>
              <color>0.1 0.1 0.1 1</color>
            </diffuse>
          </lambert>
        </technique>
      </profile_COMMON>
    </effect>
  </library_effects>
  <library_materials>
    <material id="scout_1a1a1a" name="scout_1a1a1a">
      <instance_effect url="#scout_1a1a1a_effect" />
    </material>
  </library_materials>
  <library_geometries>
    <geometry id="geometry" name="left_shoulder_yaw_link">
      <mesh>
        <source id="positions">
          <float_array id="positions_array" count="294">-0.0385330431 -0.034097679 -0.189124331 -0.0323554799 -0.0289030299 -0.19097285 -0.030091634 -0.0323667079 -0.211050183 -0.0380992629 -0.0233131349 -0.195949286 -0.0374721363 -0.0225664526 -0.0770644844 -0.0392585173 -0.0306483135 -0.154879943 -0.0329552069 -0.039394442 -0.155904293 -0.0329087712 -0.0292381197 -0.0715463609 -0.0330452994 -0.00766312471 -0.0723243132 -0.0394782163 -0.0147422701 -0.076036267 -0.033637587 -0.0212693941 -0.00949125644 -0.0234100688 -0.0316417404 0.00122649118 -0.0394413099 -0.0079977233 0.000111376503 -0.0314996168 0.015042739 -0.208789125 -0.032845065 0.0183015969 -0.171470821 -0.0332222544 0.0161047075 -0.190228194 -0.0397824384 0.0175187383 -0.184492067 -0.0377764702 -0.00860788766 -0.00717310235 -0.0282162968 -0.0398846753 -0.199598923 -0.00477051828 -0.0394965112 0.000686606334 0.0192042105 -0.0339274593 -0.130899832 0.0190953575 -0.0220039636 -0.134690821 0.0240388382 -0.0298601966 -0.134830534 -0.00301826117 -0.0342624933 -0.227374583 0.0225481857 -0.0395044498 -0.219662577 -0.0322601087 0.0171915796 -0.140812546 -0.0393193029 0.00540701021 -0.117329381 -0.0294414889 0.0181291718 -0.10331288 -0.0346062742 0.0221837815 -0.0018189894 -0.0273585971 0.0198145509 -0.20404537 -0.033140365 0.0285099857 -0.18654722 -0.0313732252 0.0273274649 -0.174708292 0.0289050974 -0.00764225237 -0.073580116 0.0335302465 -0.0197564662 -0.0765286386 0.0331446826 -0.0264262948 -0.0686159581 -0.0121566588 0.017297728 -0.224701107 -0.0246812887 0.0258500706 -0.20402354 -0.0167901348 0.0282700267 -0.213725686 -0.0153919496 0.0154361986 -0.215388343 -0.0155957844 0.0310406554 -0.195913553 -0.0256701633 0.0276606139 -0.157918528 -0.02514139 0.0192514807 -0.155295789 -0.00615329202 0.0286084116 -0.147167742 -0.00943046622 0.0182410013 -0.145192206 -0.0151187535 0.0364176817 -0.0390306711 -0.0203436036 0.025209967 -0.0795289502 -0.0266785454 0.0295454785 0.00152092241 -0.0112682804 0.0389173627 -0.00085616915 -2.40096688e-05 0.0162223931 -0.222867787 8.15965614e-05 0.0276202615 -0.21807529 -0.0119318832 0.0300774537 -0.159957901 0.0112188477 0.0274856687 -0.142840907 0.0435279123 -0.0301206633 -0.209416062 0.0437467061 0.015902698 -0.208937421 0.0492155589 -0.0277356543 -0.190452129 0.0203742962 0.0360195264 0.000795892731 0.01791027 -0.0359088928 0.000582570734 0.0130679971 -0.0395481698 -0.0558989607 0.0247673988 -0.031782575 -0.224416301 0.0264992695 -0.0338614993 -0.0713546947 0.0149679082 -0.0385546535 -0.135345489 0.0233195685 -0.0273366105 -0.112521298 0.0339218825 -0.0215491764 0.000456993992 0.0464449488 -0.0395913757 -0.19181636 0.0521138087 -0.0330065303 -0.177276433 0.037195567 -0.0391103439 -0.157387644 0.0432591252 -0.0308768749 -0.154429644 0.0397062488 -0.010463628 -0.0493762419 0.0380823687 -0.0127864359 -0.0103823403 0.0373413302 0.0128690917 -0.0603996105 0.0403011739 0.00414502528 -0.000343514199 0.0374718606 -0.00919854734 -0.00318533741 0.0123847043 0.0170456339 -0.222375706 0.0245290399 0.0165424198 -0.224814191 0.0131334122 0.0277501326 -0.220776498 0.01037372 0.0294345748 -0.152830854 0.0146423262 0.0182526484 -0.141960651 0.0252890028 0.0303605255 -0.20153594 0.0171699189 0.03455282 -0.0458828509 0.0272037182 0.0162622035 -0.216165259 0.0435176454 0.0173333175 -0.156226695 0.0259843692 0.0185953211 -0.147196651 0.0226878244 0.00952438451 -0.13351807 0.0154617401 0.0178481992 -0.106314786 0.0242122337 0.00658120681 -0.109129727 0.028663706 0.0269651227 -0.214183509 0.0309252366 0.0281602088 -0.150187194 0.0374327637 0.0275718421 -0.161686048 0.0340417325 0.0302641541 -0.182815909 0.0329069532 0.0232567582 0.000953033625 0.0427824743 0.0195285548 -0.197915286 0.0388610475 0.0279773995 -0.203948945 0.0441343226 0.0254085232 -0.188291967 0.045176208 0.027629206 -0.176452786 0.0447981209 0.0202376973 -0.17297782 0.0525453724 0.0172169022 -0.179586738 0.0499055721 0.0107475203 -0.190551028 0.00654927595 0.0334273838 -0.182031393</float_array>
          <technique_common>
            <accessor source="#positions_array" count="98" stride="3">
              <param name="X" type="float" />
              <param name="Y" type="float" />
              <param name="Z" type="float" />
            </accessor>
          </technique_common>
        </source>
        <source id="normals">
          <float_array id="normals_array" count="585">-0.664925218 0.719866872 -0.19916378 0.198771745 -0.529783666 -0.824511409 -0.714447796 -0.698547184 0.0399527773 -0.911157906 -0.407949954 0.0580358468 -0.947717071 -0.31758818 0.0311465506 -0.455962867 -0.88930124 0.035230007 -0.827240586 -0.558056951 0.0651572645 -0.562386096 -0.0942342281 0.821487546 -0.312971294 -0.202195376 0.927990317 -0.678569019 -0.0318474732 0.733845949 -0.75929904 0.018650135 0.650474548 -0.854582548 -0.508583128 0.105032399 -0.919763505 -0.390169859 0.0424571559 -0.598074436 -0.793706298 0.111073054 -0.91567266 -0.401919544 0.00206543575 -0.964435279 -0.00236638542 -0.264308542 -0.815514624 0.0299084168 -0.577963173 -0.699256122 -0.0201460216 -0.714587271 -0.148586094 0.988726795 0.0184799302 0.159344465 0.985357225 -0.0606665015 0.0876975134 0.992614388 -0.0838202238 0.522076964 -0.0274340771 -0.852457047 0.0209135078 -0.995883465 0.0881970674 -0.359955341 -0.908839464 -0.210815176 -0.843892097 -0.530504048 -0.0800720081 -0.445783079 -0.780040264 -0.439106613 -0.115911931 -0.991919637 0.0515740216 -0.457992792 -0.273145616 -0.845951617 -0.144803852 -0.936003506 -0.320825905 -0.0255622808 -0.99617523 -0.0835554078 -0.951304734 -0.294016689 -0.0925934315 0.177142501 0.983379185 -0.0398234427 -0.736593127 0.666796565 0.113193981 -0.716663122 0.685468793 0.128555328 -0.953741848 0.3002536 0.0149758039 -0.759767056 0.649030983 -0.0388941206 -0.853355467 0.520418286 -0.030809965 -0.99000591 0.14022842 0.0149772298 -0.696887732 0.709412694 -0.105267264 -0.597801149 0.763055563 -0.245723501 -0.549557984 0.778448761 -0.303320944 -0.985796332 0.11490646 -0.122483172 -0.976498961 0.0672085583 -0.204774916 -0.958003402 0.165104568 0.234456643 -0.946510911 0.234026998 0.222145006 -0.0536244698 0.997443974 0.0472223125 -0.917175591 -0.28153497 -0.28200525 -0.342829674 0.0212352313 -0.939157546 -0.437301487 0.795842528 -0.418810338 -0.790044487 0.352271527 -0.501731515 -0.510255516 0.101290211 -0.854037225 -0.815686822 0.238804862 -0.52690351 0.597053766 0.721066654 0.351553291 -0.478536457 0.130941331 -0.868249536 -0.148057342 0.98712033 0.0606005639 -0.159030989 0.976327956 -0.146604285 -0.137308493 0.990473568 0.0104136933 -0.910655022 0.130453706 0.392032176 -0.901952744 0.0758747235 0.425116748 -0.342500806 0.26971525 0.899970472 -0.47778219 0.234043881 0.84672761 -0.48418811 0.255695105 0.836768687 -0.371621788 0.260672003 0.891037226 -0.316144228 0.941025198 -0.120517366 -0.0398921929 0.963467121 -0.264838994 -0.00685396604 0.989163399 -0.146658719 -0.607465923 0.793401957 -0.0387103036 -0.221647546 0.974693298 -0.0290738139 0.0541460179 0.975380182 0.213779479 -0.279984266 0.315829307 -0.906565309 -0.161830202 0.983900189 0.0758379325 -0.0349611379 0.988603115 0.146429479 -0.107486136 0.988163531 0.109450981 0.0572943911 0.135080263 0.98917675 0.779616058 -0.302964598 -0.548097789 0.811301291 -0.00311106071 -0.584619999 0.960659206 -0.0871882886 -0.263689339 -0.100590378 0.0646176264 0.992827356 -0.487323761 0.133264363 0.862992585 -0.116581813 0.0023433133 0.993178308 0.00858692639 0.0494399965 0.998740196 -0.0241518188 0.282914162 0.958841085 0.425875723 -0.903160214 0.0541431196 0.188948065 -0.981972635 0.00532727782 0.385108858 -0.281598985 -0.878859043 0.375232249 -0.591576815 -0.713608861 -0.173523277 -0.0709600672 -0.982270002 0.625936568 -0.779747069 -0.0140700275 0.157654598 -0.98747927 -0.00544822589 0.767229319 -0.641135812 -0.0174387619 -0.0247567259 -0.0333470404 0.999137163 0.797670066 -0.176109985 -0.576808214 0.688208401 -0.718104243 0.103419341 0.97761631 -0.179486006 -0.109777734 0.96187377 -0.177846357 -0.207772657 0.56962347 0.0174778495 0.821719885 0.840622365 -0.537090123 0.0699163154 0.54085511 -0.700008392 -0.466330379 0.578415573 -0.793204069 0.190427676 0.383051515 -0.880268514 0.279998034 0.145301029 -0.988308668 0.0461906865 0.63267833 -0.628294766 0.452729344 0.55052489 -0.608826339 0.57118547 0.550653636 -0.608350694 0.571567953 0.986276507 -0.152253881 -0.0638544783 0.875638008 -0.482889116 -0.00873003248 0.953248143 -0.295529872 0.0630882457 0.89730978 0.403841466 -0.178177536 0.993953526 0.102955431 0.0381648727 0.956361592 -0.234385997 0.174458474 0.944101572 -0.189600348 -0.269673765 0.998640537 -0.0471395217 0.022246452 -0.0707526207 0.582386136 0.809827387 0.0244822241 0.996194601 -0.0836479962 0.0345113389 0.99934119 0.0112326508 0.0201475248 0.994284809 -0.104841508 0.168363422 0.192903072 -0.966665506 -0.262189835 0.323574394 -0.909151316 0.200844273 0.130989671 -0.970826089 0.0525960475 0.986131847 0.15740931 0.0603990369 0.986225963 0.153981417 0.19675082 0.165091679 0.966454268 0.0885100812 0.985002458 -0.148108602 -0.0335977636 0.985118508 -0.168560728 0.0287864469 0.984497011 -0.173023164 0.0930832848 0.994946122 -0.0376524515 0.0363341868 0.999210954 -0.0160419289 0.349330306 0.739927292 0.574870408 0.315266073 0.754142106 0.576087654 0.286662936 0.765160501 0.57650125 0.752006769 0.659152508 -0.00193363056 0.740383565 0.655603945 -0.148376539 0.769651711 0.627363801 -0.118536547 0.345193624 0.0189309176 -0.938340545 0.558160305 0.0753793791 -0.826302052 0.61148417 0.0381706171 -0.790335417 0.0796554163 0.975406706 -0.205515862 0.394528359 0.110336684 0.91223526 0.413280547 0.0703707859 0.907880604 -0.0671363249 0.993780434 -0.0888433903 0.0979652554 0.991419971 0.0865401477 0.242361888 0.780632317 0.576085031 0.685623348 0.718026578 -0.119827107 0.208134502 0.97809571 -0.0029603655 0.825150311 0.563776851 -0.0358142555 0.734316766 -0.0803677291 -0.674032569 0.706910074 -0.16335462 -0.688181281 0.212096229 0.970911264 -0.111115105 0.132928312 0.95732528 -0.256628871 0.150277242 0.942961931 -0.29705146 0.931967914 0.236061499 -0.275155902 0.992785633 -0.0495679565 -0.109177433 0.959939003 0.159005195 -0.230726033 0.241396591 0.970206857 -0.0206474476 0.396104693 0.914628625 -0.0809666067 0.992929518 -0.0907876343 -0.0764762089 0.993134081 -0.0873706564 -0.0777886137 0.786765099 0.536098659 0.305939317 0.701411605 0.611822963 0.365642488 0.73065722 0.63706398 0.245539233 0.670003831 0.704775214 0.233209595 0.872344315 0.170747742 0.458105505 0.459768355 0.0398730785 0.887143254 0.710617602 0.700294554 -0.067897968 0.858836174 0.0145339863 0.512044072 0.997237265 0.0735755712 0.0102186874 0.834975779 0.515225291 -0.193283141 0.941872716 0.144851923 -0.303139657 0.323205769 0.944843829 -0.0529923663 0.367190957 0.930130541 0.0052936757 0.153992996 -0.00745027792 0.988043845 0.0302626751 0.000532895792 0.999541819 0.0289265122 -0.0101845441 0.99952966 -0.99770242 -0.0664841011 0.013028794 -0.988982916 0.014101089 -0.147356659 0.816384912 0.565988898 -0.114770353 0.488532424 -0.118203603 -0.864502192 0.999544322 -6.35660908e-05 -0.0301857106 0.984768271 -0.00479686912 -0.173805714 -0.00698527833 -0.0117041916 0.999907076 0.0164804477 -0.0227413345 0.999605536 0.00388964126 0.00440782076 0.999982715 0.00983128697 0.99539423 0.0953609794 0.121677332 0.935308158 0.332254857 -0.261952728 0.91898191 -0.294708312 -0.0261893291 0.998408139 0.0499532484 -0.131698385 0.988384247 0.0758430064 -0.00683076587 0.99107784 -0.133109257 -0.00201305212 0.999933064 0.0113918306 0.999039888 0.0333223902 0.0284405332 0.739748895 0.672817826 -0.00937106553 0.845685422 0.00923330244 0.53360182 0.72693181 0.0147786485 0.686550558 0.71400255 0.00116074411 0.700142145 0.00757989287 0.999963999 0.00382171944</float_array>
          <technique_common>
            <accessor source="#normals_array" count="195" stride="3">
              <param name="X" type="float" />
              <param name="Y" type="float" />
              <param name="Z" type="float" />
            </accessor>
          </technique_common>
        </source>
        <vertices id="vertices">
          <input semantic="POSITION" source="#positions" />
        </vertices>
        <triangles material="scout_1a1a1a" count="192">
          <input semantic="VERTEX" source="#vertices" offset="0" />
          <input semantic="NORMAL" source="#normals" offset="1" />
          <p>0 0 1 0 2 0 3 1 1 1 0 1 1 2 3 2 2 2 4 3 5 4 6 5 7 6 4 3 6 5 8 7 9 8 4 9 8 7 4 9 7 10 10 11 9 12 7 6 10 11 7 6 11 13 12 14 10 11 11 13 3 15 13 16 2 17 14 18 15 19 16 20 9 21 8 21 7 21 12 22 9 22 17 22 18 23 0 24 2 25 0 24 18 23 6 5 11 13 7 6 6 5 19 26 11 13 6 5 20 27 21 27 22 27 23 28 18 23 2 25 24 29 18 23 23 28 10 11 17 30 9 12 16 20 15 19 13 31 25 32 16 33 26 34 27 35 25 32 26 34 10 11 12 14 17 30 28 36 26 34 12 37 15 38 29 39 13 40 30 41 15 42 14 43 31 44 30 41 14 43 25 45 14 18 16 20 32 46 33 46 34 46 27 35 26 34 28 36 13 16 35 47 2 17 13 40 29 39 35 48 36 49 37 50 29 51 29 52 38 52 35 52 37 50 38 53 29 51 30 41 29 51 15 42 30 41 36 49 29 51 31 54 39 55 30 56 40 57 14 43 41 58 42 59 40 60 41 61 42 59 41 61 43 62 44 63 27 35 28 36 44 63 45 64 27 65 31 44 14 43 40 57 28 36 46 66 44 63 46 66 47 67 44 63 38 68 48 68 35 68 37 50 49 69 38 53 40 70 42 71 50 72 51 73 42 59 43 62 52 74 53 75 54 76 46 77 28 78 12 79 46 77 55 80 47 81 56 82 19 26 57 83 58 84 24 85 23 86 59 87 60 88 20 89 59 87 57 83 60 88 56 82 57 83 59 87 60 90 22 90 21 90 60 91 21 91 20 91 22 92 61 93 20 89 61 93 33 94 59 87 33 95 32 95 59 95 62 96 56 82 59 87 58 84 52 74 24 85 52 74 63 97 24 85 64 98 65 99 63 100 64 98 66 101 65 99 66 101 60 102 65 99 22 103 60 102 66 101 33 94 67 104 34 105 68 106 59 87 34 105 68 106 62 96 59 87 67 104 33 94 69 107 67 104 68 106 34 105 70 108 68 106 67 104 68 106 70 108 71 109 52 74 54 76 63 110 54 76 64 111 63 110 71 109 70 108 62 96 48 112 72 112 35 112 72 113 73 114 35 115 49 69 74 116 48 117 74 116 72 118 48 117 42 71 51 119 75 120 51 73 43 62 76 121 20 89 61 93 59 87 39 55 77 122 49 123 78 124 44 63 47 67 47 67 55 125 78 124 79 126 73 114 72 113 80 127 81 128 82 129 82 130 83 131 84 132 52 74 73 133 53 75 74 116 79 134 72 118 74 116 85 135 79 134 49 123 77 122 85 136 51 73 76 121 81 137 86 138 51 73 81 137 51 119 86 139 87 140 82 129 81 128 76 141 84 132 83 131 69 107 78 142 69 107 83 131 75 120 87 140 88 143 69 107 70 108 67 104 89 144 70 108 69 107 90 145 85 135 91 146 90 145 79 134 85 135 77 122 91 147 85 136 79 126 53 148 73 114 90 149 53 148 79 126 91 150 92 151 90 152 88 143 93 153 92 154 90 152 93 155 94 156 92 151 93 155 90 152 87 157 86 158 80 159 87 157 80 159 94 160 93 161 87 157 94 160 80 162 86 138 81 137 55 163 89 144 69 107 80 164 64 111 95 165 69 107 78 142 55 163 90 166 95 165 96 167 90 168 94 160 95 169 80 159 95 169 94 160 70 170 89 171 62 172 26 34 5 4 9 173 16 174 3 15 0 24 90 166 96 167 53 175 9 173 12 37 26 34 96 167 95 165 64 111 32 176 34 176 59 176 82 177 84 178 61 93 16 174 5 4 26 34 65 99 60 88 6 5 63 100 65 99 6 5 6 5 18 23 63 100 5 4 0 24 6 5 3 15 16 174 13 16 46 77 11 179 89 171 11 179 46 77 12 79 11 179 19 180 62 172 11 179 62 172 89 171 19 180 56 181 62 172 46 77 89 171 55 80 85 136 74 182 49 123 37 183 36 183 49 183 36 184 30 56 39 55 31 54 40 70 50 72 31 54 50 72 39 55 39 55 49 123 36 184 43 185 41 186 25 45 43 185 25 45 83 187 25 45 27 65 83 187 43 185 83 187 76 188 71 109 62 96 68 106 45 64 44 63 78 124 63 100 18 23 24 29 25 45 41 186 14 18 9 173 5 4 4 3 61 93 22 189 82 177 5 4 16 174 0 24 48 117 38 53 49 69 83 187 45 64 78 124 69 107 33 94 84 178 61 93 84 178 33 94 76 190 83 131 82 130 73 133 52 74 58 84 66 191 82 192 22 193 35 47 23 86 2 17 83 187 27 65 45 64 88 143 77 122 97 194 77 122 39 55 97 194 75 120 88 143 97 194 50 72 75 120 97 194 39 55 50 72 97 194 64 111 54 76 96 167 23 86 35 47 73 133 23 86 73 133 58 84 93 153 88 143 87 140 75 120 50 72 42 71 51 119 87 140 75 120 19 26 6 5 60 88 57 83 19 26 60 88 66 191 80 164 82 192 54 76 53 75 96 167 88 143 92 154 91 147 88 143 91 147 77 122 80 164 66 191 64 111</p>
        </triangles>
      </mesh>
    </geometry>
  </library_geometries>
  <library_visual_scenes>
    <visual_scene id="scene">
      <node id="left_shoulder_yaw_link">
        <instance_geometry url="#geometry">
          <bind_material>
            <technique_common>
              <instance_material symbol="scout_1a1a1a" target="#scout_1a1a1a" />
            </technique_common>
          </bind_material>
        </instance_geometry>
      </node>
    </visual_scene>
  </library_visual_scenes>
  <scene>
    <instance_visual_scene url="#scene" />
  </scene>
</COLLADA>