<?xml version='1.0' encoding='utf-8'?>
<COLLADA xmlns="http://www.collada.org/2005/11/COLLADASchema" version="1.4.1">
  <asset>
    <created>2026-09-14T00:00:00Z</created>
    <modified>2026-09-14T00:00:00Z</modified>
    <unit name="metre" meter="1" />
    <up_axis>Z_UP</up_axis>
  </asset>
  <library_effects>
    <effect id="scout_1a1a1a_effect">
      <profile_COMMON>
        <technique sid="common">
          <lambert>
            <emission>
              <color>0 0 0 1</color>
            </emission>
            <ambient>
              <color>0.05 0.05 0.05 1</color>
            </ambient>
            <diffuse>
              <color>0.1 0.1 0.1 1</color>
            </diffuse>
          </lambert>
        </technique>
      </profile_COMMON>
    </effect>
  </library_effects>
  <library_materials>
    <material id="scout_1a1a1a" name="scout_1a1a1a">
      <instance_effect url="#scout_1a1a1a_effect" />
    </material>
  </library_materials>
  <library_geometries>
    <geometry id="geometry" name="left_ankle_roll_link">
      <mesh>
        <source id="positions">
          <float_array id="positions_array" count="237">-0.0662722811 -0.0333741866 0.00123590999 -0.0858010352 -0.0340435877 -0.0258262102 -0.0793175548 -0.0424624905 -0.0223611463 0.154604048 0.0286830924 -0.0134196151 0.169274941 0.00126445154 -0.0160840806 0.173427612 0.0242882241 -0.0232201125 -0.0193528198 -0.0380409062 -0.0391269736 -0.0375999324 -0.0423800945 -0.0230599977 -0.0418554321 -0.0418590643 -0.0426593795 0.0655899942 0.0425814278 -0.0387611985 0.13428849 0.0422107428 -0.0425641462 0.0842486843 0.0409369282 -0.0432351157 0.0227423385 -0.0351397581 -0.0381489694 0.000837246131 -0.0364443846 -0.022262156 -0.0129980119 -0.0213345923 -0.0136519922 -0.0100459196 -0.0233932026 -0.000511304825 0.0145621011 -0.0204187203 -0.00520081772 -0.0410498939 -0.0165154543 0.0278068297 -0.0478530042 -0.0248203892 0.027942976 -0.0255044401 -0.0265696384 0.012228095 -0.0435693674 0.0241259299 0.028439993 -0.0509341955 -0.00350742787 0.0280448906 -0.00720592495 -0.0297918208 -0.0030624799 -0.0729713142 0.0362777896 -0.00923064072 -0.0821291581 0.0421502106 -0.0238153003 -0.0857511535 0.0125444988 -0.0220690276 -0.0637662858 0.0319080018 0.00576722296 -0.00212564901 0.0361633822 -0.0356956162 -0.00496653421 0.0330673233 -0.0391952172 -0.0415486544 0.041849602 -0.0425113477 -0.0536718927 0.0261008535 0.0212887321 -0.00517675234 0.030163778 -0.00455914391 -0.0231356248 0.0271099154 0.00988034531 -0.0113129728 0.0232740622 0.000956756412 0.0318202041 -0.0311937761 -0.00751221972 0.0128212068 -0.021466583 -0.0136860041 -0.0129555529 0.021318268 -0.0137142269 0.0366157778 -0.0176139344 -0.0027035661 0.0667491332 -0.0423287675 -0.0387012996 0.0361636057 -0.0371306501 -0.0218622386 0.0477385707 -0.0252957176 0.0142127285 0.0793508813 -0.0404087305 -0.0429205075 0.134450674 -0.0420501083 -0.0429799519 0.173196077 -0.0239558108 -0.0217920113 0.133163974 -0.0388067104 -0.0124438573 0.133962825 -0.0427357592 -0.0230504163 -0.0832886323 -0.0406842791 -0.0434340723 0.147610873 -0.00273813028 -0.00794492569 0.102729172 0.00488228723 -5.46001902e-05 0.091092065 -0.0342146829 -0.0013444135 0.0655318126 -0.0427486487 -0.0227996502 0.0632041916 -0.0306448042 0.00864043366 0.153823718 -0.0286459923 -0.0133324722 0.0277205352 8.77272541e-05 0.0271061789 0.0152407978 -0.0163223818 0.0185976364 0.0279563013 -0.016742887 0.025248047 0.0435611196 -0.0172365364 0.0193665512 0.0151190506 0.0201777853 -0.00357488426 -0.0124946199 0.0376285017 -0.0224206466 0.0314606205 0.0367239378 -0.0226013567 0.033482682 0.031123627 -0.00701630814 0.044594124 0.0374988727 -0.0390372388 0.0125659285 0.0213601254 -0.0138309775 0.0690758899 0.0323519967 0.00599811925 0.109919213 0.0347910635 -0.00626044301 0.135221422 0.0403060876 -0.0145380143 0.0259394273 0.0165901463 0.025672717 0.0145779485 0.0165450089 0.0156448111 0.0478892066 0.0248033833 0.0158746354 0.0367298424 0.0175968893 -0.00210046233 0.0434077121 0.0171588678 0.0194530264 -0.0834394097 0.0405480154 -0.0435539819 -0.0393865556 0.0427120589 -0.0223573688 -0.014399277 -0.015415011 0.00529011199 0.0658134297 0.0427005067 -0.0222942978 0.172177717 -0.0241993424 -0.0438290723 0.150221422 -0.0338016674 -0.0441726819 0.171936646 0.0240244586 -0.0440870486 0.0628011376 0.000369396876 0.0130218258</float_array>
          <technique_common>
            <accessor source="#positions_array" count="79" stride="3">
              <param name="X" type="float" />
              <param name="Y" type="float" />
              <param name="Z" type="float" />
            </accessor>
          </technique_common>
        </source>
        <source id="normals">
          <float_array id="normals_array" count="495">-0.647517145 -0.476584524 0.594633281 -0.843682468 -0.349521458 0.407473415 -0.475314587 -0.831647277 0.287121743 0.378713012 0.453552067 0.806763291 0.609072149 0.0143476203 0.792985022 0.884097755 0.0924654752 0.458062559 0.142578319 -0.987786949 -0.0628360659 0.092968002 -0.984872758 0.146227881 0.0673485175 -0.996417046 -0.0511596277 -0.113567531 0.903978467 -0.412220031 0.222801343 0.973718226 0.0472475439 -0.0261569358 0.89801991 -0.439176589 -0.0406734906 -0.997965395 -0.0490994267 0.0614983737 -0.984284401 0.165536076 -0.0662306696 0.991888642 0.108491562 -0.0856424645 0.981199443 0.172953665 -0.0238452982 0.999249399 -0.0305288061 0.596606791 -0.191879213 0.779257774 0.505537629 -0.401599854 0.763642132 0.62774235 -0.189687639 0.754955769 -0.468715519 0.113287248 0.876054645 -0.491915494 -0.0138203502 0.870533228 0.0197486728 -0.011879975 0.999734402 0.531133056 -0.141356826 0.835413635 0.377010792 -0.19377926 0.905711055 -0.84716773 0.019482689 0.530968249 -0.945441961 0.129484057 0.298953861 -0.962800324 0.0368357673 0.267691284 -0.818080902 0.113097504 0.563872814 0.0266320892 0.737876475 -0.674410105 0.128334612 0.688772976 -0.713527858 0.219634548 0.635322452 -0.740355313 -0.729345202 0.0958546773 0.677397609 0.269487113 0.376165092 0.886496782 0.632186532 0.220557675 0.742761374 0.561685562 0.159665972 0.811798096 -0.0750416219 -0.932178736 0.354134887 0.0993459895 -0.92841208 0.358024299 0.212213233 -0.279195786 0.936490953 0.00244015362 0.0021298097 0.999994755 0.0034488372 0.0027374893 0.999990284 0.0013246513 0.00145777641 0.999998033 -0.163392588 0.564108491 0.809372902 -0.105851695 -0.92545265 -0.363775849 -0.117110506 -0.977896273 0.173216522 -0.17587021 -0.917262197 0.357351035 -0.0373507701 -0.86278677 -0.504186392 -0.124498732 -0.708755434 -0.694381595 0.247773111 -0.968097508 -0.0373590812 0.431698799 -0.897146106 0.0936213508 0.186339065 -0.911878645 0.365725428 0.216084212 -0.963635921 0.157205194 -0.808155894 -0.579827368 0.10336452 0.253956705 -0.0211070497 0.966985285 0.239765957 0.0337473415 0.97024399 0.270121098 -0.136172369 0.953148305 -0.0893681273 -0.982996881 0.160407215 -0.11219161 -0.927241445 0.357262224 0.401471525 -0.773406446 0.4905743 -0.547655106 -0.0172471404 0.836526394 -0.54380095 -0.0372369774 0.838387728 -0.463648409 -0.103641503 0.879936695 -0.81454891 0.0844228342 0.573918819 -0.781740367 -0.568754435 0.25573495 0.356291562 0.00887140073 0.934332728 0.348267317 -0.0980439931 0.932253838 0.342830777 -0.137810439 0.92923373 0.146815628 -0.477781832 0.866123378 0.273718476 -0.323569208 0.905748963 0.0579793379 0.275755912 0.959477484 0.123639025 0.974768043 0.185851172 -0.0742888153 0.982287884 0.172022417 0.0618765987 0.996759176 -0.0514045693 -0.000166332393 0.300183773 0.953881383 -0.135499641 0.602464914 -0.786559522 -0.177089497 0.979567766 -0.0953220949 -0.992521703 -0.00491460133 0.121969394 -0.971674085 0.00238846545 0.236312822 -0.979456365 -0.00515589258 0.201590434 0.0928091034 -0.361315489 0.927813351 0.323608965 0.141601592 0.935535252 0.248223394 0.166815698 0.954231441 0.236999601 0.837787569 0.491877168 0.854330361 -0.0761106461 0.514127195 -0.635372221 0.040769022 0.771129072 -0.660893381 0.0539208017 0.748540282 -0.992877483 0.00886294059 0.118809551 -0.847616255 -0.010680384 0.53050226 -0.778360307 0.574655712 0.252836019 -0.997142792 0.0749228671 -0.00963625778 -0.990885556 0.00812877808 -0.134460777 -0.989203513 0.0128324432 -0.145985544 0.0664020255 0.932060599 0.356165349 -0.104174979 0.931350231 0.348904371 0.0555105917 0.00156225241 -0.998456895 0.0764694512 -0.0107907848 -0.997013509 0.0230325013 0.000769595616 -0.999734402 0.0186531898 -0.00144125347 -0.999825001 0.105678856 -0.0223345011 -0.994149446 0.052953776 -0.00792204309 -0.998565555 -0.0277216788 -0.0022462348 -0.999613166 -0.801920772 -0.116542943 0.585952938 0.0798366368 -0.933982193 0.348286271 0.162408784 -0.920051336 0.356551468 -0.0245978143 0.995864451 0.0874583796 -0.0130686928 0.937151432 0.348677993 0.0815606639 0.983963013 0.158633634 -0.0409620292 0.938199878 0.343661368 0.0477553234 0.93676573 0.346683413 0.838959455 0.534003913 -0.104818076 0.986133516 0.164551899 0.0215264391 0.989506841 0.144454524 -0.00302260206 0.00491012586 0.992325902 -0.123552635 0.169891924 0.920924425 0.350763321 0.0569522865 0.996871829 -0.0547993183 -0.0671745762 0.773712993 -0.629964888 -0.0988299921 0.930877984 0.351708412 -0.0787163749 0.982674778 0.167791456 0.0362580009 -0.0133199356 0.99925369 0.259688526 -0.149741352 0.954012275 -0.0648603514 0.00730931526 -0.997867584 -0.0504053421 0.0132005373 -0.99864161 0.648432553 -0.0876385421 0.756210744 0.423164934 -0.905569434 -0.0295882672 -0.16194053 0.920337558 0.356025398 -0.0501604117 -0.00607747631 -0.998722672 -0.00420983741 -0.0168251228 -0.999849558 -0.00148769561 0.0159204043 -0.999872148 0.0179465804 -0.00525891455 -0.99982512 -0.0289956536 0.996456146 -0.0789578557 0.358009577 0.0122197019 0.933637977 0.370644808 0.112591296 0.921924949 0.64856565 0.0455880649 0.759792268 0.00456894515 0.00341229513 0.999983728 -0.0050502154 -0.133645356 -0.991016328 0.416636944 -0.906895101 -0.0628887564 0.198571622 -0.199232206 0.959622741 -0.0345586576 -0.999193788 0.0204311963 0.0160140581 -0.996939659 0.0765168518 0.0311987028 -0.995678365 0.0874715075 0.10592743 -0.980463505 0.16574268 -0.022506224 -0.999454439 0.0241731461 0.400825202 0.916129649 -0.00675789826 0.394235849 0.918092072 0.0410491899 -0.0240604263 0.336355001 0.941427827 -0.026776908 -0.996511459 -0.0790435001 0.00124340435 -0.929700851 0.368313491 0.00222912594 -0.991261125 0.131895497 -0.0902933553 -0.995771408 -0.0169238411 -0.0317095965 -0.996467233 0.077765882 -0.129750013 -0.98818171 -0.0816198438 0.996557355 -0.0654773116 -0.050853733 0.991002977 -0.0901357979 -0.0989377946 0.0106522627 0.105320334 -0.994381309 0.998605967 -0.00335185067 -0.052677013 0.997442365 0.00460385205 -0.0713265538 -0.999354124 -0.0173259564 0.0314823464 -0.999967813 0.00426203478 -0.00679737516 0.32974425 0.116963096 0.936796844 0.023577733 0.995800614 0.0884605572 -0.0251228511 0.999334037 0.0264640246 0.0254258774 0.995655119 0.0895793587 -0.0227911267 0.999365509 0.027370967 0.103854366 0.976750731 0.187542647 0.344905108 0.224435225 0.91141063</float_array>
          <technique_common>
            <accessor source="#normals_array" count="165" stride="3">
              <param name="X" type="float" />
              <param name="Y" type="float" />
              <param name="Z" type="float" />
            </accessor>
          </technique_common>
        </source>
        <vertices id="vertices">
          <input semantic="POSITION" source="#positions" />
        </vertices>
        <triangles material="scout_1a1a1a" count="154">
          <input semantic="VERTEX" source="#vertices" offset="0" />
          <input semantic="NORMAL" source="#normals" offset="1" />
          <p>0 0 1 1 2 2 3 3 4 4 5 5 6 6 7 7 8 8 9 9 10 10 11 11 12 12 13 13 6 6 14 14 15 15 16 16 17 17 18 18 19 19 20 20 21 21 18 22 15 23 19 19 22 24 23 25 24 26 25 27 23 25 26 28 24 26 27 29 28 30 29 31 20 20 30 32 21 21 31 33 32 34 33 35 34 36 22 37 13 13 16 38 15 23 22 24 35 39 36 40 14 41 37 42 16 42 22 42 38 43 39 44 12 12 40 45 34 36 39 44 41 46 38 43 12 47 41 46 42 48 38 43 43 49 44 50 45 51 46 52 2 2 1 1 47 53 48 54 49 55 50 56 51 57 39 44 52 58 44 50 43 49 53 59 54 60 55 61 37 62 34 62 40 62 56 63 37 63 40 63 53 64 55 65 56 66 56 66 40 67 51 68 49 55 56 66 51 68 57 69 31 33 33 35 58 70 59 71 27 72 60 73 31 33 57 69 61 74 9 9 11 11 7 7 2 2 8 8 59 71 9 9 61 75 16 76 62 77 35 78 22 79 34 79 37 79 59 71 61 75 27 72 63 80 64 81 65 82 3 3 65 82 64 81 5 5 4 4 43 83 66 84 67 85 54 60 66 84 54 60 53 59 57 86 62 77 16 76 68 87 60 87 69 87 68 88 69 88 70 88 71 89 46 90 25 27 25 27 46 90 1 91 24 26 71 89 25 27 59 71 31 92 60 93 29 94 8 95 71 96 71 96 8 95 46 97 6 98 28 99 12 100 21 21 1 1 18 101 18 102 7 7 19 103 24 104 26 105 72 106 72 106 26 105 30 107 72 106 30 107 20 108 58 70 31 92 59 71 8 95 28 99 6 98 15 109 14 110 73 111 35 112 14 14 16 16 32 113 72 106 20 108 58 70 27 72 72 106 27 72 29 114 72 106 3 3 64 81 47 53 4 4 3 3 47 53 27 29 61 115 28 30 59 71 63 116 74 117 20 20 18 22 17 118 59 71 74 117 9 9 63 116 59 71 60 93 52 119 43 83 4 4 25 27 26 28 23 25 12 100 61 120 11 121 52 119 4 4 47 53 15 23 73 122 19 19 13 13 7 7 6 6 47 53 64 81 48 54 43 49 45 51 75 123 68 124 63 116 60 93 41 125 11 121 76 126 11 121 77 127 76 126 77 127 75 128 76 126 0 0 18 101 1 1 28 99 8 95 29 94 71 129 24 104 29 114 24 104 72 106 29 114 1 1 21 21 25 27 7 7 22 37 19 103 2 2 7 7 18 102 2 2 18 102 0 0 72 106 32 113 58 70 38 43 50 56 39 44 56 66 49 55 78 130 25 27 21 21 30 32 30 32 26 28 25 27 63 80 70 131 78 130 32 34 20 132 33 35 32 113 31 92 58 70 39 44 13 13 12 12 17 17 33 35 20 132 35 39 62 133 36 40 38 43 42 48 45 51 45 51 50 56 38 43 41 125 76 126 42 134 73 122 17 17 19 19 76 135 45 51 42 48 47 53 49 55 44 136 44 136 52 119 47 53 55 137 54 138 37 139 37 139 54 138 16 140 37 139 56 141 55 137 75 123 45 51 76 135 61 120 12 100 28 99 33 35 17 17 73 122 65 82 10 10 9 9 74 117 65 82 9 9 39 44 51 57 40 45 13 13 39 44 34 36 77 142 10 10 65 82 65 82 5 143 77 142 48 54 78 130 49 55 57 69 69 144 60 73 78 130 53 64 56 66 48 54 63 80 78 130 63 116 65 82 74 117 46 145 8 8 2 2 50 56 45 51 44 50 51 57 50 56 49 146 50 56 44 50 49 146 36 147 62 148 33 149 62 148 57 150 33 149 64 81 63 80 48 54 14 110 36 151 73 111 73 111 36 151 33 152 5 143 65 82 3 3 11 121 10 153 77 127 5 5 43 83 75 154 75 154 77 155 5 5 54 156 67 157 16 76 16 76 67 157 57 86 53 64 70 131 66 158 67 159 66 160 69 161 66 160 70 162 69 161 57 163 67 159 69 161 70 131 63 80 68 164 12 100 11 121 41 125 78 130 70 131 53 64 22 37 7 7 13 13</p>
        </triangles>
      </mesh>
    </geometry>
  </library_geometries>
  <library_visual_scenes>
    <visual_scene id="scene">
      <node id="left_ankle_roll_link">
        <instance_geometry url="#geometry">
          <bind_material>
            <technique_common>
              <instance_material symbol="scout_1a1a1a" target="#scout_1a1a1a" />
            </technique_common>
          </bind_material>
        </instance_geometry>
      </node>
    </visual_scene>
  </library_visual_scenes>
  <scene>
    <instance_visual_scene url="#scene" />
  </scene>
</COLLADA>