<?xml version='1.0' encoding='utf-8'?>
<COLLADA xmlns="http://www.collada.org/2005/11/COLLADASchema" version="1.4.1">
  <asset>
    <created>2026-09-14T00:00:00Z</created>
    <modified>2026-09-14T00:00:00Z</modified>
    <unit name="metre" meter="1" />
    <up_axis>Z_UP</up_axis>
  </asset>
  <library_effects>
    <effect id="scout_1a1a1a_effect">
      <profile_COMMON>
        <technique sid="common">
          <lambert>
            <emission>
              <color>0 0 0 1</color>
            </emission>
            <ambient>
              <color>0.05 0.05 0.05 1</color>
            </ambient>
            <diffuse>
              <color>0.1 0.1 0.1 1</color>
            </diffuse>
          </lambert>
        </technique>
      </profile_COMMON>
    </effect>
  </library_effects>
  <library_materials>
    <material id="scout_1a1a1a" name="scout_1a1a1a">
      <instance_effect url="#scout_1a1a1a_effect" />
    </material>
  </library_materials>
  <library_geometries>
    <geometry id="geometry" name="left_hip_roll_link">
      <mesh>
        <source id="positions">
          <float_array id="positions_array" count="294">-0.0379083529 -0.0308299568 -0.392599404 -0.0332746543 -0.0370095037 -0.434430897 -0.0344828553 -0.0439548232 -0.359667569 -0.0404155999 -0.0317111649 -0.334650069 -0.0414437577 -0.04355051 -0.28308928 -0.0449624658 -0.0469582304 -0.252922207 0.0622278638 -0.0243323129 -0.0945789367 0.0661907941 -0.043399848 -0.113131218 0.0644721314 -0.0104630077 -0.0624541342 0.0234987214 -0.0383474268 -0.441467315 -0.0189360585 -0.0326629058 -0.449387908 -0.0622958392 -0.0273170136 -0.0968794748 -0.0666366741 -0.0403255932 -0.151287436 -0.0606453232 -0.0440142453 -0.111159034 -0.0592510253 -0.0457112677 -0.19950445 -0.0458658412 0.042242717 -0.0772053227 -0.0443097614 -0.0180341303 -0.0761963725 -0.0441425741 -0.0579841398 -0.169199675 -0.045890484 -0.0483829863 -0.193511292 -0.0384525731 -0.0549090095 -0.190394104 -0.0400738604 -0.0482701622 -0.131397367 -0.0330759324 -0.0540029071 -0.13346307 -0.0287621543 -0.0588239841 -0.131641775 -0.0182677098 -0.0508504882 -0.211064577 0.00661716657 -0.0466386601 -0.110089265 0.0158946924 -0.059603963 -0.207756221 -0.0218305662 -0.0593420714 -0.205470055 0.0114039453 -0.0561172292 -0.123462856 0.0275771804 -0.0199561957 -0.0750216022 0.0211258885 -0.0316827521 -0.097428903 -0.0313908644 0.0443616658 -0.352250278 -0.0345074572 0.0366838761 -0.430690646 -0.0388227329 0.0354152322 -0.388888925 -0.0403145589 0.0397263393 -0.270171225 0.0124567272 0.0375732519 -0.447111934 -0.0213271175 0.0331179537 -0.447834015 -0.0469803326 0.046757888 -0.222023696 -0.0624226369 0.0359486714 -0.186040312 -0.0609154366 0.0442855172 -0.0973686203 -0.0526656881 0.0482591242 -0.0896169841 -0.0662665591 0.0286139585 -0.134620205 -0.00384752825 0.0538499765 -0.0833373442 0.0298505165 0.044364579 -0.0739522725 0.0224592201 -0.0309924986 -0.447589517 0.0488559753 -0.0321018957 -0.421874464 0.0473928712 -0.0394316241 -0.411486834 0.0532801859 -0.0295130964 -0.376004815 0.0589525662 -0.0455960408 -0.241203696 0.0484444983 -0.0442325845 -0.35718897 0.0155083453 -0.0507594161 -0.212551177 0.017281482 -0.0595875159 -0.181387141 0.0386882424 -0.0555093996 -0.190915495 0.0435278006 -0.0489297546 -0.138340205 0.0335131176 -0.0575374365 -0.138185382 -0.0428090431 0.0109449765 -0.271991134 0.0453976318 -0.0484087877 -0.194063887 0.0447638743 -0.0588060208 -0.165355235 0.0492310189 -0.0478871912 0.0108208293 0.0281386711 -0.0481712893 0.0180985071 0.0561268255 -0.0458205119 -0.0170539841 0.0290850904 -0.0223364048 -0.0532066636 0.0591539554 -0.0165805779 -0.0606539249 0.0535236485 0.0469686873 -0.00616965257 0.0396001339 -0.0375644676 0.0340291001 0.0282074437 -0.0180421621 0.0468912348 0.0379974321 0.00627903035 0.049854748 0.0486653112 0.0319281295 -0.421148628 0.023594195 0.0307784081 -0.447108865 0.0460090823 0.0396782346 -0.413495988 0.0508675873 0.0435975157 -0.358350277 0.0531644747 0.0294352733 -0.37645638 0.0552970022 0.0394320264 -0.305928379 0.0268611647 0.0324908979 -0.0156860799 0.0265045855 -0.00739676552 -0.0379555821 0.0399751514 0.0506963208 -0.0803267807 0.0287270695 0.050313253 -0.00144630927 0.0624639653 0.0448955297 -0.0640375093 0.0626255125 0.0396645442 -0.182671413 0.0550998822 0.0442668237 -0.233433366 0.0671215579 0.0313731879 -0.115892425 0.0276590474 0.0132796774 0.0476085283 0.0431693718 0.0389361531 0.029679548 0.0280101299 0.0402543433 0.0296828914 0.0453625321 0.0502767451 0.00500972057 -0.0118915262 -0.0292640738 -0.377911121 -0.0231468957 0.0289073866 -0.381849617 -0.0081226537 0.0286067855 -0.373981059 -0.0049111601 -0.0596180148 -0.16453968 -0.00713456469 0.0533312 -0.187981293 0.0264572296 0.0262922123 0.0258059613 -0.0244525075 0.0289817434 -0.34696281 -0.0394083895 0.0303518567 -0.334311128 0.00817415584 0.0470675267 -0.322288603 0.0263257436 -0.0360544808 0.0055565685 0.0300239567 0.0510655306 -0.19350338 0.028133858 -0.0460023358 -0.0189934615 -0.0288049784 -0.0292246845 -0.373711288 -0.0241109543 -0.0287939664 -0.347406775</float_array>
          <technique_common>
            <accessor source="#positions_array" count="98" stride="3">
              <param name="X" type="float" />
              <param name="Y" type="float" />
              <param name="Z" type="float" />
            </accessor>
          </technique_common>
        </source>
        <source id="normals">
          <float_array id="normals_array" count="627">-0.929921865 -0.364537507 -0.0485566407 -0.92952919 -0.365482002 -0.0489738695 -0.937910616 -0.342859596 -0.0526399128 -0.979988515 -0.188522846 -0.0638880655 -0.993018031 0.0863247886 -0.0803943798 -0.982369006 -0.0042768796 -0.186903149 -0.876413643 -0.416811645 0.241178602 0.265168875 -0.826556623 -0.496477216 -0.043716751 -0.985258877 -0.165389851 -0.0525583774 -0.923112035 -0.380922318 -0.953457236 -0.0392168276 0.298967123 -0.999195576 -0.0258579049 -0.0306514464 -0.970823288 -0.203897506 0.126205832 -0.558411539 -0.829533517 0.00712136179 -0.211613461 -0.977328598 -0.00697131176 -0.165767431 -0.982643902 0.0832596496 -0.78631413 0.076019153 0.613132298 -0.752692282 -0.0084118899 0.658318698 -0.165941939 -0.98405391 -0.0640407726 -0.494620472 -0.762738883 -0.416629285 -0.480721235 -0.806561947 -0.344041944 -0.470094711 -0.744602978 0.473895937 -0.649627268 -0.706845343 0.279917836 -0.542611003 -0.69813621 0.467096537 -0.764409721 -0.570535839 0.30027768 -0.994173527 0.0544982441 0.0929998904 -0.41184479 -0.729948461 -0.545489848 -0.0410777889 -0.985361099 0.165457278 -0.121356927 -0.988906145 0.0856573135 -0.0522680543 -0.525043547 -0.849468827 -0.0406064726 -0.488006443 -0.871894956 -0.0548614003 -0.53318125 -0.84422034 -0.175957024 -0.813047886 0.554970443 -0.207833081 0.17743358 0.961936951 -0.159198672 -0.831446588 0.532308459 0.0672515854 -0.957591534 0.280170828 -0.0419287868 -0.894242167 0.445615262 0.0371857025 -0.78676641 0.616129696 -0.686684072 -0.176495999 -0.705205083 -0.692079306 0.720940292 -0.0356563181 -0.666988254 0.743629098 -0.0462860726 -0.669606507 0.741339624 -0.0451959185 -0.69397521 0.71915561 -0.0348359495 -0.0448173434 0.990459621 -0.130311564 -0.0443480015 0.996354878 -0.0728708655 -0.119083956 0.949854076 -0.289130181 -0.0560354628 -0.997786939 -0.0357951634 -0.176172718 -0.984354734 -0.00297900965 -0.0981283039 -0.994596362 -0.0338950902 -0.982835293 -0.144254938 -0.115001276 -0.511578739 0.852103114 -0.110487476 -0.981708109 0.122036137 -0.146138251 -0.912551701 0.38897565 -0.126282901 -0.825572789 0.503010035 0.255754709 -0.213987395 0.966460526 0.141998172 -0.987113893 0.159172669 0.0164394826 -0.724288583 0.375015616 0.578592598 -0.147179887 0.822796583 0.54894799 -0.038928356 0.908510804 0.416044086 -0.00584351039 0.692758441 0.721146047 0.276993841 -0.591298521 -0.757390559 0.535561562 -0.702068388 -0.469333291 0.521213531 -0.730166376 -0.441807121 -0.0356033817 -0.761732697 0.646912456 -0.0301995501 -0.647539198 0.761433482 0.952083409 -0.296475172 -0.0750977248 0.980347097 -0.187411919 -0.0616139732 0.948534548 -0.307591081 -0.0752986893 0.998501897 -0.0123735499 -0.0532995239 0.730570376 -0.678797543 -0.074168019 -0.0373483077 -0.477530211 -0.877821147 0.056958165 -0.998179436 -0.0198379345 -0.0781695172 -0.996511161 -0.029240936 0.0623867139 -0.998048484 -0.00265862606 0.418499887 -0.845442116 -0.331791282 0.565619886 -0.433945149 -0.701260149 0.595032752 -0.362803668 -0.717153788 0.568276107 -0.676232338 0.468798578 0.436504036 -0.63814038 0.634224832 0.533089876 -0.609676957 0.586608231 0.433291763 -0.654851615 0.619215369 -0.99141866 0.0300495848 -0.127224237 0.543690681 -0.711275995 -0.445518732 0.123070747 -0.991193235 -0.0488834642 0.998899221 0.0325018167 0.0338223353 0.625836432 -0.722866714 0.292903632 0.0431616828 -0.995339274 0.0862371922 0.0908796489 -0.973104 0.211682558 0.0210972577 -0.940011382 -0.340490073 -0.00408754451 -0.644107699 0.76492393 0.0660311654 -0.846110284 0.528901935 0.0857814848 -0.919088304 -0.384601444 0.0466917492 -0.985099316 -0.165527269 0.0742629543 -0.687459469 0.722415686 0.628947973 -0.665185511 -0.402433425 0.767668545 -0.606133342 0.208056286 0.975673676 0.0160738435 0.218637869 0.957268655 -0.0235706903 0.2882379 0.975963771 0.00181738276 0.21792537 0.169952154 -0.872288406 0.458507627 -0.344092548 -0.648291826 0.679203928 0.458139062 -0.286925524 0.841297984 0.955612361 -0.00933431182 0.294478923 0.896655321 -0.12095014 0.425887704 0.466103047 0.736753166 -0.489839524 0.485179722 0.699631512 -0.524515331 0.458193719 0.750811696 -0.475752354 0.488786399 0.692039549 -0.531195939 0.902320802 0.417021185 -0.109135523 0.9660303 0.249275327 -0.0681707859 0.921121776 0.375644833 -0.102106228 0.984465063 0.164459884 -0.0614938624 0.998729169 0.0216219164 -0.0455256216 -0.997513115 0.0679409727 -0.0187505502 -0.998652756 0.0373114236 -0.0360627696 -0.997588634 -0.0231371894 -0.0654338002 0.0023772812 0.707590282 0.706618965 -0.562756479 0.823098481 -0.0762498453 0.0266702678 0.995232165 0.0938168913 0.139327168 0.989008248 -0.0495042503 0.317666113 0.947911918 -0.0234776065 0.766705394 0.638516068 0.066783689 0.899310708 0.434633136 -0.0483147651 0.465003639 0.883773208 -0.0521207266 0.0176140182 0.0284192786 -0.999440908 0.985491395 0.169588879 -0.00680618454 -0.229214638 -0.0262960568 0.973020613 0.0782191083 0.757762671 0.647825241 0.132544354 0.512667775 0.848294616 0.154585242 0.50142765 0.851277709 0.0301164482 0.776127934 0.629855871 0.0130935851 0.998096824 0.0602597669 0.716241896 0.607718229 0.343039542 0.993047059 0.0140197547 0.116880275 -0.0105577577 -0.997964978 -0.0628846213 0.00924069621 -0.99793905 -0.0634997562 0.012345911 -0.997637808 -0.0675750077 0.100723453 0.0608792566 -0.993050098 0.464208275 0.0298842806 -0.885221779 0.226200178 0.0316372998 -0.973566949 0.00641666492 -0.997568369 0.0693987757 -0.00326165417 -0.999670744 0.0254507884 0.0194583144 -0.996823728 0.0772258416 0.00952799991 -0.999472976 0.0310311932 -0.977081478 -0.00285492488 -0.212846577 -0.0401642062 0.99898082 -0.0205953866 0.115429081 -0.993093848 -0.0209942032 0.137491837 -0.986153662 0.092719458 0.162925676 -0.984280527 0.0681691319 -0.99849546 0.036792893 0.0406583995 -0.994109809 0.108336776 -0.0029639618 0.0296468064 -0.998981237 -0.034022782 -0.230796784 -0.972291827 -0.0371673368 0.00101978774 -0.998890638 -0.0470796712 0.0110975532 -0.998177171 -0.0593224429 0.114649385 -0.991155744 -0.0668266565 -0.34276548 -0.937858224 -0.0541647524 -0.34539488 -0.935940862 -0.0686810687 -0.138932332 -0.988040924 -0.0668799505 -0.204949781 -0.975542665 -0.0794486254 -0.168444186 -0.981328487 -0.0928488746 0.0466127954 0.997911632 -0.0447170101 -0.0214381088 0.996925116 -0.0753702894 0.0444842316 0.998449326 -0.0334680043 -0.99755621 -0.0690892264 0.0104084779 -0.999083877 -0.000901966414 0.0427854322 -0.0433552414 0.0156015838 0.998937905 -0.0314738788 0.00146037596 0.999503493 -0.0286159907 -0.00193925085 0.999588609 -0.0167660397 -0.0160279032 0.999730945 0.0617551729 -0.985090017 0.160573691 0.162985384 0.986542523 -0.0130220875 0.144582421 0.989215434 -0.0234251022 -0.999708652 0.00414388208 -0.0237796679 0.164475381 -0.986313462 -0.0115573071 0.0513317101 -0.998033762 -0.03596792 0.029220948 -0.94232887 -0.333410352 0.999735475 -0.010823912 -0.0202937741 -0.0402508229 -0.00773291569 -0.999159694 -0.00665554265 0.0277747661 -0.999592066 -0.011412737 0.997386694 -0.0713412911 -0.143334687 0.989560306 -0.0150191672 -0.022638645 0.997557461 -0.0660800487 -0.0196910258 0.994204402 -0.105687723 0.00547842775 0.998366296 -0.056874413 0.0279730875 0.999274373 -0.0258502793 0.00486445567 0.999737203 -0.0224010386 -0.244456485 0.968823195 -0.0402814448 -0.142164752 0.989291728 -0.0330309682 -0.173351273 0.984822869 0.00855686609 -0.17034106 0.985355735 0.00761384191 -0.239730179 -0.111679114 -0.964394748 -0.617729425 0.0143190278 -0.786260307 -0.639559686 0.00479052123 -0.768726468 -0.623042047 0.0120229116 -0.782095909 -0.64573288 0.00205005938 -0.763560653 -0.999826372 -0.0142172957 -0.0120477285 0.720886469 0.69164443 -0.0441666134 -0.995090783 0.0916127861 -0.0374357589 -0.994168103 0.0262758136 0.104591489 -0.997666657 0.0649899244 0.020916434 -0.984402776 -0.00717028463 0.175783336 -0.997983336 -0.0272752531 0.0573174171 -0.995234847 -0.0847970769 -0.0481361598 -0.993995488 -0.0976783633 0.0493141562 -0.998234272 -0.0305323526 -0.0509524979 -0.99677974 0.0340227038 0.0726123601 -0.9941836 0.0984527022 0.0436582267 0.959144592 0.0223367233 0.282033205</float_array>
          <technique_common>
            <accessor source="#normals_array" count="209" stride="3">
              <param name="X" type="float" />
              <param name="Y" type="float" />
              <param name="Z" type="float" />
            </accessor>
          </technique_common>
        </source>
        <vertices id="vertices">
          <input semantic="POSITION" source="#positions" />
        </vertices>
        <triangles material="scout_1a1a1a" count="192">
          <input semantic="VERTEX" source="#vertices" offset="0" />
          <input semantic="NORMAL" source="#normals" offset="1" />
          <p>0 0 1 1 2 2 3 3 0 0 2 2 3 3 2 2 4 4 2 2 5 5 4 4 6 6 7 6 8 6 9 7 1 8 10 9 11 10 12 11 13 12 12 13 14 14 13 15 15 16 11 10 16 17 17 18 18 19 19 20 20 21 17 22 21 23 21 23 17 22 22 24 20 25 18 25 17 25 19 20 18 19 23 26 24 27 13 15 20 28 23 29 25 30 26 31 24 32 20 21 21 23 27 33 21 33 22 33 27 34 24 32 21 23 28 35 16 36 29 37 23 38 26 38 19 38 30 39 31 40 32 41 33 42 30 39 32 41 31 43 34 44 35 45 23 46 18 47 5 48 30 49 33 49 36 49 36 50 33 51 37 52 36 50 37 52 38 53 38 53 39 54 36 50 38 53 37 52 40 55 39 56 38 53 15 16 15 57 41 58 39 54 42 59 41 58 15 57 10 9 43 60 9 7 44 61 9 7 43 60 44 61 45 62 9 7 11 63 13 64 29 37 44 65 46 66 45 67 45 67 47 68 48 69 47 68 45 67 46 66 23 29 49 70 25 30 50 71 26 72 25 73 50 71 25 73 51 74 49 75 51 74 25 76 52 77 27 78 53 79 52 77 24 80 27 78 37 52 54 81 5 5 51 74 49 75 55 82 51 74 55 82 56 83 55 84 52 84 56 84 52 77 53 79 56 85 57 86 58 87 59 88 29 37 24 89 6 90 60 91 28 35 61 92 6 90 24 89 7 93 8 94 59 94 61 94 11 10 15 16 38 53 8 95 61 95 6 95 62 96 57 97 59 98 63 99 58 87 57 86 63 100 64 100 58 100 65 101 64 101 63 101 65 102 63 103 57 97 34 104 66 105 67 106 34 104 68 107 66 105 5 5 54 81 4 4 68 108 69 109 66 110 70 111 66 110 69 109 69 109 71 112 70 111 72 113 42 114 73 115 42 59 74 116 41 58 75 117 74 117 42 117 75 118 62 119 74 120 76 121 77 122 78 123 35 124 34 124 67 124 77 122 76 121 79 125 65 126 80 126 64 126 81 127 80 128 65 129 82 130 81 127 83 131 81 127 82 130 80 128 83 132 81 132 62 132 62 96 8 133 76 121 5 48 2 134 23 46 23 46 2 134 48 135 48 135 2 134 45 136 2 134 1 8 9 7 45 136 2 134 9 7 75 118 83 131 62 119 84 137 85 138 86 139 11 10 40 55 12 11 37 52 12 11 40 55 51 74 56 83 50 71 53 140 87 141 56 83 87 141 50 71 56 83 87 141 53 140 27 142 87 141 27 142 22 143 26 72 87 141 17 18 17 18 19 20 26 72 87 141 22 143 17 18 14 144 12 11 37 52 88 145 41 58 74 120 13 15 14 14 20 28 76 121 8 133 79 125 47 146 7 147 52 148 72 113 89 149 75 150 70 151 85 152 67 153 70 151 86 154 85 152 66 155 70 151 67 153 85 152 32 156 31 157 67 153 85 152 35 158 31 157 35 158 85 152 85 152 90 159 32 156 91 160 32 156 90 159 92 161 30 162 88 145 69 163 30 162 92 161 14 144 37 52 5 5 8 133 62 96 59 98 39 54 88 145 36 50 93 164 80 165 73 115 73 115 80 165 89 149 73 115 89 149 72 113 16 36 11 63 29 37 15 166 16 167 42 168 16 167 28 169 42 168 52 148 7 147 24 170 38 53 40 55 11 10 46 66 70 111 71 112 42 114 72 113 75 150 29 37 13 64 24 89 78 123 71 171 94 172 54 81 3 3 4 4 33 51 91 173 54 81 50 71 87 141 26 72 92 161 71 171 69 163 88 145 30 162 36 50 55 174 49 175 47 146 54 81 37 52 33 51 58 87 95 176 59 88 60 91 59 88 95 176 54 81 91 173 3 3 61 92 59 88 60 91 6 90 61 92 28 35 6 90 28 35 29 37 49 175 23 46 48 135 52 148 55 174 47 146 79 125 7 177 71 112 7 177 47 68 71 112 46 66 71 112 47 68 7 177 79 125 8 133 57 97 62 96 65 102 88 145 94 172 92 161 86 139 70 178 46 179 86 139 46 179 84 137 39 54 41 58 88 145 74 120 94 172 88 145 79 125 71 112 77 122 49 175 48 135 47 146 30 162 69 163 68 180 30 162 68 180 31 43 68 180 34 44 31 43 96 181 84 182 0 183 84 182 46 184 44 185 84 182 44 185 43 186 84 182 1 187 0 183 84 182 10 188 1 187 10 188 84 182 43 186 96 181 0 183 97 189 3 190 97 189 0 183 92 161 94 172 71 171 78 123 94 172 76 121 85 191 84 191 96 191 3 192 91 193 97 194 90 195 97 194 91 193 33 51 32 196 91 173 18 47 14 14 5 48 71 197 78 123 77 122 94 172 74 120 62 119 94 172 62 119 76 121 18 47 20 28 14 14 85 198 96 199 90 200 96 199 97 201 90 200 80 165 93 164 64 202 93 164 95 203 58 204 93 164 73 115 95 203 73 115 42 114 60 205 28 206 60 205 42 114 60 205 95 203 73 115 64 202 93 164 58 204 80 165 82 207 89 149 82 207 75 150 89 149 75 118 82 130 83 131 62 96 81 208 65 102</p>
        </triangles>
      </mesh>
    </geometry>
  </library_geometries>
  <library_visual_scenes>
    <visual_scene id="scene">
      <node id="left_hip_roll_link">
        <instance_geometry url="#geometry">
          <bind_material>
            <technique_common>
              <instance_material symbol="scout_1a1a1a" target="#scout_1a1a1a" />
            </technique_common>
          </bind_material>
        </instance_geometry>
      </node>
    </visual_scene>
  </library_visual_scenes>
  <scene>
    <instance_visual_scene url="#scene" />
  </scene>
</COLLADA>