<?xml version='1.0' encoding='utf-8'?>
<COLLADA xmlns="http://www.collada.org/2005/11/COLLADASchema" version="1.4.1">
  <asset>
    <created>2026-09-14T00:00:00Z</created>
    <modified>2026-09-14T00:00:00Z</modified>
    <unit name="metre" meter="1" />
    <up_axis>Z_UP</up_axis>
  </asset>
  <library_effects>
    <effect id="scout_1a1a1a_effect">
      <profile_COMMON>
        <technique sid="common">
          <lambert>
            <emission>
              <color>0 0 0 1</color>
            </emission>
            <ambient>
              <color>0.05 0.05 0.05 1</color>
            </ambient>
            <diffuse>
              <color>0.1 0.1 0.1 1</color>
            </diffuse>
          </lambert>
        </technique>
      </profile_COMMON>
    </effect>
  </library_effects>
  <library_materials>
    <material id="scout_1a1a1a" name="scout_1a1a1a">
      <instance_effect url="#scout_1a1a1a_effect" />
    </material>
  </library_materials>
  <library_geometries>
    <geometry id="geometry" name="left_hip_pitch_link">
      <mesh>
        <source id="positions">
          <float_array id="positions_array" count="138">-0.0573690049 -0.0376273505 -0.0365293548 -0.0384645276 -0.000349587906 -0.048083283 -0.0376668163 -0.0401524119 -0.0400999375 -0.0344979502 -0.00125227263 -0.0485065132 -0.0335876904 0.00240488746 -0.050734628 -0.0565481447 0.0113935107 -0.0462605841 -0.013831716 -0.0284425076 -0.0550318994 -0.037800055 -0.00193225266 0.0505683199 -0.0537855737 0.0403421856 0.0362475514 -0.0368778929 -0.0042083445 0.051710099 -0.0542024858 -0.0370511785 0.0324374028 -0.0161569882 -0.00123944727 0.0608082786 -0.0353935845 -0.00624336302 0.0506845266 -0.0341317803 -0.00375734991 0.0486231968 -0.0447227731 -0.030683944 0.0419183038 -0.038900733 0.0223407224 0.0507168695 -0.0153221022 -0.0589910857 -0.000279437314 -0.0395635702 0.0139883822 -0.0528178401 -0.048428379 0.0476830676 -0.0248814691 -0.0132631054 0.0606324449 -0.0191317182 -0.0526445396 -0.00379883149 0.0187223237 -0.0469932966 0.0323074944 0.0378114246 -0.0461443737 0.0104154041 0.0467912033 0.0181189105 -0.0359603651 -0.0502392948 0.0285279434 -0.0660134703 -0.0454026833 0.0241751708 0.00175201416 -0.0580071509 0.0263426863 -0.0568764023 0.00147504278 0.0179127771 -0.0623803064 0.0497722402 -0.0192745458 -0.055623807 0.0491653569 -0.0548320897 -0.0657716766 0.0112141063 0.0200625062 0.0545671433 -0.0242657419 0.0171541087 0.0267850477 -0.0627827048 0.0177425593 0.017089013 0.0663949028 0.0215897989 -0.0251980983 0.0508620255 0.0211148281 0.053110715 0.032849092 -0.0462148674 0.00364757655 -0.0476391949 -0.0520599559 -0.00516983867 -0.0120500885 -0.0497258194 -0.0336736962 -0.0338656455 -0.0445666537 -0.0513384454 -0.00227454887 -0.014333114 0.0334529504 -0.0530110858 -0.014460356 0.0560429767 0.031894844 -0.0223155841 -0.0660008937 -0.0480208993 -0.0473599099 0.0468922034 -0.00824910123 -0.0462412648 0.0309812725 -0.0365385525 0.053629484 -0.0662715659 0.0125267077 -0.0464567952 -0.00716805086 -0.00124538166</float_array>
          <technique_common>
            <accessor source="#positions_array" count="46" stride="3">
              <param name="X" type="float" />
              <param name="Y" type="float" />
              <param name="Z" type="float" />
            </accessor>
          </technique_common>
        </source>
        <source id="normals">
          <float_array id="normals_array" count="399">-0.199178085 -0.196551263 -0.960049808 -0.195710316 -0.272739857 -0.9419716 -0.306490272 -0.180082813 -0.934683859 -0.26530087 -0.248991653 -0.93146044 0.363861352 0.225650132 0.903707325 0.39451322 0.170614943 0.902911901 0.458529502 0.0425907932 0.887658 -0.305914044 -0.120077983 -0.944456398 -0.319796741 -0.136472881 -0.937606096 -0.353221536 -0.176467314 -0.918745816 -0.500160217 0.537917554 0.678590059 -0.471149147 -0.149479881 -0.869295239 0.378435284 0.0660589859 0.923267543 0.938871503 0.328147709 -0.104112379 0.940241337 0.302702814 -0.155939817 0.84742564 0.468562365 0.249637991 -0.500927627 -0.147312626 0.852860153 -0.614998281 -0.131799847 0.777435482 -0.383024842 -0.129557759 0.914607406 0.388143808 0.282587588 -0.877205014 0.185288891 -0.517745376 0.835229158 0.455512226 0.231095344 -0.859711289 0.837612331 0.474835575 0.270068079 -0.582169056 0.0266331658 0.812631488 -0.719730973 0.112502709 0.685077012 -0.562532544 0.0154234543 0.826631308 -0.743180692 0.128824219 0.656572044 -0.63622576 -0.0771933198 -0.767631412 -0.737662613 -0.0897511244 -0.669177532 -0.730602086 -0.0888759494 -0.676994562 -0.719114304 -0.0368555002 0.693913698 -0.792793572 -0.0965920389 -0.601787627 -0.402462095 0.0035825558 0.915429652 0.474662513 0.0161382984 0.880019903 0.46872133 -0.692560673 -0.548324764 0.27967 -0.695762575 0.661588311 -0.389989257 0.524751425 -0.756666541 -0.374531299 0.531425476 -0.759811342 -0.29672876 0.652729869 -0.697062194 -0.356012911 0.930998445 0.0806019008 -0.359852225 0.929797232 0.0773525983 -0.105058812 0.992396951 0.0641167462 -0.298179001 -0.326875657 -0.896795213 -0.298326671 -0.319821775 -0.899285972 0.302360713 0.326623917 0.895485818 -0.184043169 0.0190332644 -0.982733846 -0.817648232 -0.479206204 -0.319081217 -0.453079671 -0.378866106 -0.806956828 0.992341459 -0.0581689849 -0.108971767 0.98924613 -0.0969237983 -0.109534577 0.974656045 -0.00402330002 -0.223672628 0.10618189 -0.14845401 -0.983202338 0.079127498 -0.162845433 -0.983473539 0.0179291442 -0.124433823 -0.992065907 0.995404184 0.0509861931 -0.0810609311 0.998178899 0.0555388108 0.0235429164 0.984979033 -0.0321789458 -0.169649273 -0.0423118137 -0.985137582 0.166474208 -0.170140818 -0.900497377 0.400195628 -0.0365786068 -0.994113088 0.101985954 -0.0739203617 0.78896004 -0.609981835 0.056592565 0.807703853 -0.586866081 0.00913536176 0.793297946 -0.608765125 0.98539263 0.0279442705 0.167989492 0.962282717 -0.0422377214 0.268752515 0.999797583 0.0100703817 0.0174165163 0.987454832 -0.0498419851 0.14982909 0.997185946 -0.0056291325 0.0747565404 0.997460961 0.0693777651 0.0160745736 -0.175722942 -0.934847534 -0.308515042 -0.0407274999 -0.916320205 -0.398369849 -0.209177747 -0.926698923 -0.312207818 0.997643769 0.0646163076 -0.0230576396 -0.102926716 -0.920231998 -0.377596557 0.125157356 -0.867851019 -0.480801702 0.869936168 -0.149219319 -0.470047474 -0.187657312 0.0305331405 -0.981759906 -0.03260874 0.0323502012 -0.998944521 -0.779348195 -0.625247836 0.0410063975 0.765967786 -0.275469482 -0.580869973 -0.155290455 0.984215617 0.0848794058 -0.717022181 -0.0304211117 0.696386158 0.0503997132 -0.194256157 -0.979655266 -0.160404041 -0.0582556315 -0.98533082 -0.98971051 0.106786892 0.0952347219 -0.998625398 0.0257816054 0.0456351936 -0.998552442 0.0520537309 0.0135435956 -0.995510578 0.0892177597 0.0316059738 -0.99623549 0.00960823707 -0.0861537755 -0.965422392 0.237951532 0.106483355 -0.993589699 0.0750548914 -0.0845354348 -0.201818004 0.974533856 -0.0977410451 -0.195557445 0.975776434 -0.0980696157 -0.327073604 0.940683484 -0.0902074426 -0.257052958 -0.875844121 0.408437014 0.985006869 0.114217043 0.129290223 0.980527401 0.177107543 0.0848467126 0.993903458 -0.10638386 0.0289546605 0.990017831 -0.0814145952 0.115049258 0.036323376 0.679236531 0.733020008 -0.0904121622 0.55905503 0.824186325 -0.244852602 0.521494567 0.81736809 -0.173766598 0.979779899 -0.0991789252 -0.948374033 0.184437022 0.258011013 -0.9987849 -0.00298657618 0.0491914265 -0.999388218 0.0162605923 0.0309639126 -0.00738104107 0.491654068 0.870759308 -0.130004451 0.553649068 0.822539687 -0.0032083157 -0.999994755 -0.000446184276 -0.00396703975 -0.999176323 0.0403847583 -0.202266335 0.446058482 0.871848702 -0.0510585606 -0.205582902 0.977306843 -0.0494654998 -0.206373826 0.977222085 -0.0522417612 -0.204995006 0.977367818 -0.0337855071 -0.196418464 -0.979937911 0.945703506 0.324465603 -0.0191574525 -0.999520421 -0.0309652817 -0.000232847509 -0.999791741 -0.0105271731 -0.0174845401 -0.999041319 -0.0396649316 0.0185248815 -0.999653101 -0.0240983497 0.0106249806 -0.999254465 -0.0337006785 0.0188348331 -0.0531170852 -0.204559803 0.977411807 -1.83368902e-05 -0.999990106 -0.00444697216 0.974278927 -0.102234222 0.200820059 0.265032768 0.95174551 0.154719338 0.315930516 0.948419809 0.0262246076 0.335351497 0.941693246 -0.0274444167 0.378683925 0.911586463 -0.160027057 0.118127525 0.990852058 0.0652536228 0.182253733 0.983011842 0.0217088591 -0.1779892 0.716214538 -0.674801171 -0.999746501 -0.0183849912 -0.0129949059 0.947307944 0.221560314 -0.231341094</float_array>
          <technique_common>
            <accessor source="#normals_array" count="133" stride="3">
              <param name="X" type="float" />
              <param name="Y" type="float" />
              <param name="Z" type="float" />
            </accessor>
          </technique_common>
        </source>
        <vertices id="vertices">
          <input semantic="POSITION" source="#positions" />
        </vertices>
        <triangles material="scout_1a1a1a" count="96">
          <input semantic="VERTEX" source="#vertices" offset="0" />
          <input semantic="NORMAL" source="#normals" offset="1" />
          <p>0 0 1 1 2 2 1 1 3 3 2 2 4 4 1 5 0 6 5 7 6 8 0 9 4 10 0 10 3 10 3 3 6 11 2 2 3 12 0 12 6 12 7 13 8 14 9 15 9 16 10 17 11 18 10 19 12 19 11 19 13 20 7 20 10 20 7 21 12 21 10 21 7 13 9 15 12 22 13 23 14 24 11 25 13 23 10 26 14 24 9 27 15 28 12 29 15 30 8 30 7 30 15 28 13 31 12 29 15 32 9 16 11 18 15 33 7 33 13 33 11 34 12 34 13 34 14 35 16 35 11 35 17 36 5 37 18 38 18 39 8 40 19 41 17 42 1 1 5 43 17 42 3 3 1 1 1 5 4 4 5 44 4 45 6 8 5 7 4 46 17 46 6 46 17 42 4 47 3 3 20 48 21 49 22 50 23 51 24 52 6 53 25 54 26 55 23 56 27 57 28 58 29 59 19 60 30 61 31 62 32 63 33 64 34 65 35 66 36 67 37 68 0 69 2 70 38 71 25 54 30 72 33 64 33 64 30 72 34 65 25 54 33 64 26 55 16 73 2 70 6 74 20 48 22 50 14 75 39 76 6 53 17 77 0 78 38 78 10 78 14 75 10 79 20 48 19 41 8 40 40 80 9 16 8 81 10 17 24 52 41 82 6 53 31 83 23 51 6 53 5 84 0 85 10 86 18 87 5 84 10 86 8 88 18 87 10 86 41 89 16 89 6 89 28 90 11 90 16 90 41 91 28 92 16 93 16 94 14 94 38 94 10 95 38 96 36 67 20 48 10 95 36 67 20 48 36 67 42 97 36 67 43 98 42 97 21 49 20 48 42 97 34 99 40 100 32 101 31 83 6 53 39 76 16 73 38 71 2 70 28 92 41 91 29 102 37 103 38 104 35 105 15 106 40 100 8 107 41 108 44 109 29 59 11 110 40 100 15 106 32 111 11 112 28 113 31 83 25 114 23 51 26 55 24 115 23 56 45 116 43 117 35 105 45 116 35 105 38 104 45 116 38 104 14 118 21 119 45 116 22 120 22 120 45 116 14 118 43 98 36 67 35 66 27 121 32 111 28 113 44 109 41 108 24 122 29 59 44 109 27 57 27 123 26 55 33 64 33 64 32 63 27 123 27 124 44 125 26 126 44 125 24 127 26 126 34 128 30 129 19 41 39 130 19 60 31 62 19 60 39 130 18 38 11 110 32 101 40 100 19 41 40 80 34 128 45 116 21 119 42 131 42 131 43 117 45 116 38 96 37 68 36 67 39 130 17 36 18 38 30 72 25 54 31 132</p>
        </triangles>
      </mesh>
    </geometry>
  </library_geometries>
  <library_visual_scenes>
    <visual_scene id="scene">
      <node id="left_hip_pitch_link">
        <instance_geometry url="#geometry">
          <bind_material>
            <technique_common>
              <instance_material symbol="scout_1a1a1a" target="#scout_1a1a1a" />
            </technique_common>
          </bind_material>
        </instance_geometry>
      </node>
    </visual_scene>
  </library_visual_scenes>
  <scene>
    <instance_visual_scene url="#scene" />
  </scene>
</COLLADA>