<?xml version='1.0' encoding='utf-8'?>
<COLLADA xmlns="http://www.collada.org/2005/11/COLLADASchema" version="1.4.1">
  <asset>
    <created>2026-09-14T00:00:00Z</created>
    <modified>2026-09-14T00:00:00Z</modified>
    <unit name="metre" meter="1" />
    <up_axis>Z_UP</up_axis>
  </asset>
  <library_effects>
    <effect id="scout_1a1a1a_effect">
      <profile_COMMON>
        <technique sid="common">
          <lambert>
            <emission>
              <color>0 0 0 1</color>
            </emission>
            <ambient>
              <color>0.05 0.05 0.05 1</color>
            </ambient>
            <diffuse>
              <color>0.1 0.1 0.1 1</color>
            </diffuse>
          </lambert>
        </technique>
      </profile_COMMON>
    </effect>
  </library_effects>
  <library_materials>
    <material id="scout_1a1a1a" name="scout_1a1a1a">
      <instance_effect url="#scout_1a1a1a_effect" />
    </material>
  </library_materials>
  <library_geometries>
    <geometry id="geometry" name="left_hip_yaw_link">
      <mesh>
        <source id="positions">
          <float_array id="positions_array" count="141">-0.0461233109 -0.0559711941 0.0213395916 -0.0211141184 -0.059272822 0.0458969846 -0.0536171235 -0.0366799571 0.0151433656 -0.0467296205 -0.0558378585 -0.0202449095 -0.0219634157 -0.0580035597 -0.0429719351 -0.0466059819 -0.0668413118 -0.00356906815 0.00110277184 -0.0560617149 -0.0521669425 -0.0443720222 -0.0361565389 -0.0421195254 -0.0298648868 -0.00364152039 -0.0581064373 -0.00415046187 -0.0357383117 -0.0640119463 0.0220739916 -0.0677179247 -0.0403763764 -0.0268896148 -0.0678086281 -0.0351740271 -0.0471024439 -0.00417262316 0.0356051326 -0.0675138608 -0.00355941639 -0.00366753922 -0.0482200757 -0.0298349354 0.0454856679 -0.0666377321 -0.0367295444 0.00201811362 -0.029268302 -0.0438045114 0.0745716542 0.0433866009 -0.0562781207 -0.02710253 -0.0121174585 -0.0370065793 0.0558656938 0.0283230357 -0.0437216982 0.0745426193 0.0412798673 -0.0364992917 0.0379823968 0.0492187366 -0.0212579612 0.0755752474 -0.050595779 -0.0185322259 0.0772027671 -0.0514402539 0.00872317143 0.0752881318 -0.0285129491 0.00298260897 0.0470470451 -0.0583598167 0.00352048152 -0.00143879442 0.00342466356 0.000330478739 0.0549698472 0.0428707637 0.00152874202 0.0382493995 0.0393730626 -0.00365487463 -0.0531997196 0.014732657 -0.00270267995 0.0745290965 0.0475103259 -0.0586856641 0.0151592121 0.0238961224 -0.0582609959 0.0433277935 0.0511268675 -0.00565630943 0.045923017 0.0658653155 -0.0362729132 0.0112378299 0.0520110726 0.0148095554 0.0749293417 -0.0200232025 0.00149616261 -0.0530707799 0.0527876429 0.00183016737 -0.016148692 0.065373756 -0.00442770123 -0.0020887102 0.0318213888 0.00140674808 -0.0455645025 -0.000542289519 0.0175841134 0.0633838475 -0.0133441165 -0.00149797683 0.0749904141 0.0565272123 -0.0367968865 -0.0107903322 0.0024726002 -0.0679316148 0.00490935845 0.0250713192 0.0286043808 0.0795563608 -0.000587305985 0.0553715527 0.0751187652 -0.0312271286 0.0430657156 0.0730950758 0.045872476 -0.0362642631 -0.0460434593</float_array>
          <technique_common>
            <accessor source="#positions_array" count="47" stride="3">
              <param name="X" type="float" />
              <param name="Y" type="float" />
              <param name="Z" type="float" />
            </accessor>
          </technique_common>
        </source>
        <source id="normals">
          <float_array id="normals_array" count="390">-0.702943563 -0.045075044 0.70981586 -0.700609267 -0.0380193442 0.712531507 -0.701745093 -0.0414363593 0.711222053 -0.49901244 -0.725015998 -0.474698156 -0.200902969 0.930078328 -0.307558715 -0.652811527 -0.293513 -0.698346078 -0.64959842 -0.0818114504 -0.755862951 -0.430243343 -0.421051592 -0.798502445 -0.100151859 -0.654290617 -0.749582112 -0.127534762 -0.75118804 -0.647650719 -0.0838999674 -0.594091237 -0.800010264 -0.408310384 -0.574906707 -0.709059179 -0.695922613 0.593747735 0.403924942 -0.835567534 0.375909418 0.400648236 -0.894351006 0.138844043 0.425274819 -0.184274569 -0.965027928 0.186451137 -0.254133433 -0.932774842 0.255631119 -0.0359461457 -0.998575449 0.0394321308 -0.759406686 -0.620074868 0.196999222 -0.786436558 -0.569624662 0.238841668 -0.800956309 -0.537510335 0.263726324 0.488561273 -0.279302388 -0.826618433 0.546171486 -0.198393926 -0.813840628 0.618959308 0.0960992426 -0.779521823 -0.700072169 -0.036414165 0.713143051 0.723881066 -0.678978622 0.122410238 0.876745045 -0.480855465 0.00980282575 0.92748642 -0.37275809 0.0286420528 -0.997443914 -0.035269741 -0.0621426255 -0.996344209 -0.0187970009 -0.0833362266 -0.995651364 -0.0117201367 -0.092417419 -0.530914366 0.750738978 0.39309147 -0.609401286 0.718855143 0.334480703 0.028241165 0.998041093 0.0558248721 0.0389858335 0.987862349 0.150359735 0.134940356 0.989672303 0.0483716577 -0.149231285 -0.822957873 -0.548151791 0.0647606254 0.403399199 -0.912729502 0.304677665 0.56327498 -0.76804477 0.148077667 0.12953867 -0.980455399 -0.17613934 0.98412317 -0.0218299776 0.509514272 0.0476448238 -0.859142125 0.643216968 -0.758316636 -0.105961688 0.406716198 -0.912665188 0.0403004922 0.195009306 -0.980800927 -0.000965680869 -0.92231214 0.0414958037 0.384211361 0.898175061 -0.166387126 0.4069359 0.818178535 -0.284323812 0.49974376 0.695597172 -0.41090104 0.589325845 0.682922304 -0.378832102 0.624582529 0.781930387 0.497869223 -0.375114769 -0.994032204 0.00129357807 -0.109079599 0.258670986 -0.126610473 0.957632005 0.317682207 -0.0209197421 0.947966456 0.136359751 -0.321673214 0.936980426 -0.123747461 -0.981730759 0.144538328 -0.0846091062 -0.968885422 0.232599124 -0.462446958 -0.809316456 0.362145871 0.980935097 -0.190735444 -0.0372327715 0.99676764 -0.076743789 0.0237632003 -0.887788653 -0.100438967 -0.44915852 -0.867969573 -0.0315705836 -0.49561286 -0.348587364 0.905377567 -0.242442265 -0.479188025 0.791353703 -0.379655272 -0.366893768 0.892803013 -0.26132676 -0.497863561 0.769586623 -0.399835318 0.0369780138 0.881551623 -0.470637202 0.403083235 0.901008129 -0.160337776 0.697913826 0.627304494 -0.345550746 0.129628152 0.956222892 -0.262362957 -0.985388458 -0.0593850017 -0.159633905 -0.990281165 -0.0993879065 -0.0972893834 -0.959122956 -0.280863941 -0.0346215591 0.0610900968 -0.428316951 0.901561201 0.821767926 0.391056031 -0.414454579 0.0494981632 0.990029514 0.131876841 -0.423895419 -0.650109172 -0.63061136 0.65049547 0.179223746 -0.738061309 -0.0125573222 -0.999902368 0.00613048906 0.0555793457 -0.992380142 0.109966271 0.94910413 0.133942872 0.285062492 -0.999833703 0.010910836 0.0146127418 -0.962404132 -0.271302432 0.0131621398 -0.74350071 -0.645600319 0.174375787 0.0121066729 -0.0864867866 0.996179461 0.0452897996 -0.0528695025 0.997573853 -0.0229579043 -0.0200066064 0.999536216 -0.0794130489 0.0793280751 0.993680358 0.186262876 0.235917628 0.9537552 -0.0860045925 0.0973562151 0.991526604 0.389449954 0.501407623 0.772605419 0.198121801 0.0587326586 0.978416204 0.0572121255 -0.963545203 -0.261356801 -0.0626621246 -0.974657059 -0.214748815 -0.0474803969 -0.968276858 -0.245327324 0.101498328 -0.961261213 -0.256271362 0.177320868 -0.965941429 -0.188452944 0.000570298987 -0.0464496277 0.9989205 0.0127413925 0.999855578 -0.0112466374 0.0669320822 0.295986235 -0.952844322 0.219939992 0.289555341 -0.931549311 0.124008842 0.294424027 -0.947595 -0.0559252091 0.296053618 -0.953532696 0.181329206 -0.36512652 -0.91312778 -0.192842528 -0.118811764 -0.97401005 -0.424140334 -0.0671085939 -0.903106511 -0.021511985 -0.0510983542 -0.998461902 -0.611920476 -0.0687257424 -0.787927687 -0.118176162 0.132399067 0.984126449 0.0111987162 -0.999910414 -0.00733178155 0.21922341 -0.972788572 -0.0749900639 -0.00570607837 -0.999894142 -0.0133825094 0.000404754246 -0.99988395 -0.0152292717 0.0333291404 -0.999397933 0.00964327157 -0.848358512 0.00520019233 -0.529396653 0.333527058 -0.138178095 -0.932559133 0.909779251 -0.0695208013 -0.409229308 0.937874913 0.11509499 -0.327328265 0.928071678 0.0190532897 -0.37191388 0.876607716 -0.174186796 -0.448573142 0.102689669 -0.976673543 0.188583076 0.953648448 -0.0391253717 0.298368692 0.247143 0.92915678 -0.274932712 -0.413121253 0.884379566 -0.217263788 0.543606937 0.819309115 0.182274625 0.399001628 0.912736058 0.0878095925 -0.536131203 0.738209069 0.409402877 -0.765874088 0.130907238 -0.629523754 0.864831388 -0.48935008 -0.112263702 0.0240016729 -0.999619365 0.01360262</float_array>
          <technique_common>
            <accessor source="#normals_array" count="130" stride="3">
              <param name="X" type="float" />
              <param name="Y" type="float" />
              <param name="Z" type="float" />
            </accessor>
          </technique_common>
        </source>
        <vertices id="vertices">
          <input semantic="POSITION" source="#positions" />
        </vertices>
        <triangles material="scout_1a1a1a" count="90">
          <input semantic="VERTEX" source="#vertices" offset="0" />
          <input semantic="NORMAL" source="#normals" offset="1" />
          <p>0 0 1 1 2 2 3 3 4 3 5 3 4 4 3 4 6 4 7 5 8 6 9 7 4 8 10 9 11 10 7 5 9 7 6 11 12 12 13 13 14 14 2 15 14 16 15 17 16 18 14 19 2 20 6 21 9 22 17 23 2 2 1 1 18 24 19 25 20 26 21 27 22 28 23 29 14 30 24 31 25 32 12 12 24 33 26 34 27 35 4 8 6 36 10 9 8 37 28 38 9 39 27 35 26 34 29 40 6 21 17 23 10 41 17 42 30 43 10 44 13 13 15 45 14 14 30 46 20 47 31 48 32 49 20 49 33 49 27 50 34 50 32 50 12 51 14 30 23 29 31 52 20 53 18 54 5 55 1 56 0 57 32 58 34 59 21 27 7 5 15 60 13 61 8 62 13 63 35 64 13 63 25 65 35 64 28 38 8 37 35 66 36 67 37 68 28 38 36 67 28 38 38 69 28 38 35 66 38 69 7 70 3 71 2 72 1 73 31 52 18 54 13 61 8 6 7 5 29 74 26 74 39 74 40 75 26 34 24 33 6 11 3 76 7 5 17 23 9 22 41 77 32 58 21 27 20 26 11 78 10 44 42 79 32 80 33 80 37 80 25 32 13 13 12 12 5 81 0 82 3 71 16 18 22 83 14 19 16 84 21 85 22 86 23 87 43 88 44 89 44 90 43 88 34 91 34 91 43 88 21 85 18 92 20 93 19 94 19 94 16 95 18 92 16 95 2 96 18 92 21 85 16 84 19 97 35 66 25 98 38 69 38 69 25 98 36 67 36 67 25 98 24 33 36 67 24 33 27 35 44 99 34 100 39 101 45 102 44 99 39 101 34 103 29 103 39 103 45 104 40 105 23 106 45 104 39 107 40 105 45 108 23 87 44 89 7 109 2 15 15 17 41 110 9 111 46 112 46 112 33 113 41 110 2 72 3 71 0 82 4 114 11 114 5 114 28 38 46 115 9 39 33 116 46 117 28 118 28 118 37 119 33 116 42 79 10 44 30 43 42 79 30 43 31 120 42 79 31 120 1 56 11 78 42 79 5 55 42 79 1 56 5 55 30 46 41 121 20 47 12 122 23 122 40 122 29 40 34 123 27 35 27 35 32 124 37 125 36 67 27 35 37 125 40 126 24 31 12 12 39 107 26 127 40 105 17 42 41 128 30 43 33 113 20 129 41 110 43 88 23 87 22 86 43 88 22 86 21 85</p>
        </triangles>
      </mesh>
    </geometry>
  </library_geometries>
  <library_visual_scenes>
    <visual_scene id="scene">
      <node id="left_hip_yaw_link">
        <instance_geometry url="#geometry">
          <bind_material>
            <technique_common>
              <instance_material symbol="scout_1a1a1a" target="#scout_1a1a1a" />
            </technique_common>
          </bind_material>
        </instance_geometry>
      </node>
    </visual_scene>
  </library_visual_scenes>
  <scene>
    <instance_visual_scene url="#scene" />
  </scene>
</COLLADA>