<?xml version='1.0' encoding='utf-8'?>
<COLLADA xmlns="http://www.collada.org/2005/11/COLLADASchema" version="1.4.1">
  <asset>
    <created>2026-09-14T00:00:00Z</created>
    <modified>2026-09-14T00:00:00Z</modified>
    <unit name="metre" meter="1" />
    <up_axis>Z_UP</up_axis>
  </asset>
  <library_effects>
    <effect id="scout_1a1a1a_effect">
      <profile_COMMON>
        <technique sid="common">
          <lambert>
            <emission>
              <color>0 0 0 1</color>
            </emission>
            <ambient>
              <color>0.05 0.05 0.05 1</color>
            </ambient>
            <diffuse>
              <color>0.1 0.1 0.1 1</color>
            </diffuse>
          </lambert>
        </technique>
      </profile_COMMON>
    </effect>
  </library_effects>
  <library_materials>
    <material id="scout_1a1a1a" name="scout_1a1a1a">
      <instance_effect url="#scout_1a1a1a_effect" />
    </material>
  </library_materials>
  <library_geometries>
    <geometry id="geometry" name="link22_R">
      <mesh>
        <source id="positions">
          <float_array id="positions_array" count="57">-0.00282955612 0.0350725949 -0.00960410386 -0.00217098487 -0.00417792378 -0.00823712721 -0.00465647131 0.0320495181 -0.00421579555 -0.00328309601 -0.00147999113 -0.00230114232 0.0053889961 -0.00788716972 -0.00797612779 0.00565218879 -0.00768714538 -0.00204020855 0.000770295272 -0.00666572247 -0.00204407051 -0.0024629652 0.0307493489 0.000332069845 0.00211021164 0.035067264 -0.0093417298 0.00538744358 0.000467566453 -0.0114470562 -0.00248362008 0.0359650441 -0.00112862221 0.00398709718 -3.86827705e-05 0.00168638607 0.00591442408 0.0263488963 -0.000543893955 0.00251451042 0.0363921151 -0.0018465668 -0.00112448225 0.0377076231 -0.00420802645 0.00972294249 0.00275251828 -0.00941081345 0.00303517305 0.0365841687 -0.0062855361 0.0106856739 0.00335203391 -0.00182741799 0.00875851791 0.0195149574 -0.00763821462</float_array>
          <technique_common>
            <accessor source="#positions_array" count="19" stride="3">
              <param name="X" type="float" />
              <param name="Y" type="float" />
              <param name="Z" type="float" />
            </accessor>
          </technique_common>
        </source>
        <source id="normals">
          <float_array id="normals_array" count="144">-0.941902637 -0.0274626017 -0.334761471 -0.981645465 -0.0468268171 -0.184876665 -0.996086717 0.013940149 0.087274909 -0.991629004 -0.0474740639 -0.120075651 -0.337355167 -0.938819051 -0.0693558976 -0.20464322 -0.977933943 0.0420274734 -0.502087712 -0.864794731 -0.00616362784 -0.895415127 0.0403283983 0.443402052 -0.00982691161 0.0508518219 -0.998657882 0.532188058 0.215725064 -0.818681002 0.114016622 -0.168734491 -0.979044855 -0.84362942 0.536472678 -0.0220556241 -0.848353207 0.529010952 -0.0210771281 -0.868626475 0.495186359 -0.0166880749 -0.389335096 -0.205695331 0.897834957 -0.470868856 -0.0599294901 0.880165339 -0.4491947 -0.163977891 0.878257036 -0.87912029 0.12529853 0.459834576 -0.268046021 -0.21308209 -0.939546347 -0.25011462 -0.379907191 0.890569031 0.183856785 0.107643858 0.977041185 0.174414098 0.210807219 0.961842 0.208036736 0.20569855 0.95624727 0.484269023 -0.125459567 0.865877271 0.125929877 0.169414625 0.977466285 0.175952345 0.949970841 0.258062422 0.0968617201 0.99463886 0.0362130664 -0.00387012004 0.871041417 0.491194367 -0.1544898 -0.379071891 -0.912380099 -0.0954229534 -0.452722341 0.886530876 0.0215604864 0.894529045 -0.446489632 0.0245984774 0.895226121 -0.444932759 0.44762373 -0.0311249923 -0.893680155 -0.628673077 -0.777547777 -0.0137698743 -0.784398973 -0.606734872 0.128806025 0.122154392 0.954613388 -0.271646172 0.536592126 -0.323657811 -0.779303908 0.48478651 -0.0530101433 0.873024583 0.549948931 -0.266018569 0.79170084 0.895582139 0.200229093 -0.397292078 0.978279591 -0.175494552 -0.110321149 0.989418685 -0.131675243 -0.060928911 0.91335398 -0.404369235 -0.0476446599 0.909754336 -0.41430822 -0.0263765231 0.950710475 0.294309199 0.0976301059 0.943876386 0.312036633 0.108307511 0.940352738 0.323617131 -0.104922451 -0.811822712 0.583218932 -0.0282760207</float_array>
          <technique_common>
            <accessor source="#normals_array" count="48" stride="3">
              <param name="X" type="float" />
              <param name="Y" type="float" />
              <param name="Z" type="float" />
            </accessor>
          </technique_common>
        </source>
        <vertices id="vertices">
          <input semantic="POSITION" source="#positions" />
        </vertices>
        <triangles material="scout_1a1a1a" count="34">
          <input semantic="VERTEX" source="#vertices" offset="0" />
          <input semantic="NORMAL" source="#normals" offset="1" />
          <p>0 0 1 1 2 2 1 1 3 3 2 2 4 4 5 5 6 6 7 7 2 2 3 3 0 8 8 9 9 10 10 11 0 12 2 13 11 14 7 15 3 16 7 7 10 17 2 2 9 10 1 18 0 8 6 19 11 14 3 16 12 20 10 21 7 22 11 23 12 20 7 22 12 20 13 24 10 21 13 25 14 26 10 27 9 10 4 28 1 18 5 29 11 14 6 19 14 26 8 30 0 31 8 9 15 32 9 10 1 33 6 6 3 34 14 26 16 35 8 30 15 32 4 36 9 10 17 37 12 20 11 23 5 38 17 37 11 23 13 25 16 35 14 26 15 32 8 9 18 39 15 40 17 41 4 42 17 41 5 43 4 42 12 44 18 39 13 45 8 9 16 46 18 39 16 46 13 45 18 39 15 40 18 39 17 41 12 44 17 41 18 39 1 33 4 4 6 6 14 47 0 12 10 11</p>
        </triangles>
      </mesh>
    </geometry>
  </library_geometries>
  <library_visual_scenes>
    <visual_scene id="scene">
      <node id="link22_R">
        <instance_geometry url="#geometry">
          <bind_material>
            <technique_common>
              <instance_material symbol="scout_1a1a1a" target="#scout_1a1a1a" />
            </technique_common>
          </bind_material>
        </instance_geometry>
      </node>
    </visual_scene>
  </library_visual_scenes>
  <scene>
    <instance_visual_scene url="#scene" />
  </scene>
</COLLADA>