<?xml version='1.0' encoding='utf-8'?>
<COLLADA xmlns="http://www.collada.org/2005/11/COLLADASchema" version="1.4.1">
  <asset>
    <created>2026-09-14T00:00:00Z</created>
    <modified>2026-09-14T00:00:00Z</modified>
    <unit name="metre" meter="1" />
    <up_axis>Z_UP</up_axis>
  </asset>
  <library_effects>
    <effect id="scout_1a1a1a_effect">
      <profile_COMMON>
        <technique sid="common">
          <lambert>
            <emission>
              <color>0 0 0 1</color>
            </emission>
            <ambient>
              <color>0.05 0.05 0.05 1</color>
            </ambient>
            <diffuse>
              <color>0.1 0.1 0.1 1</color>
            </diffuse>
          </lambert>
        </technique>
      </profile_COMMON>
    </effect>
  </library_effects>
  <library_materials>
    <material id="scout_1a1a1a" name="scout_1a1a1a">
      <instance_effect url="#scout_1a1a1a_effect" />
    </material>
  </library_materials>
  <library_geometries>
    <geometry id="geometry" name="link15_L">
      <mesh>
        <source id="positions">
          <float_array id="positions_array" count="63">-0.00885648746 0.00422073808 -0.0123378141 -0.00992663763 -0.00734204566 -0.0092056375 -0.00997579563 -0.00726214284 -0.0029029625 -0.00555540249 -0.0336993709 -0.000116730858 -0.00538115157 -0.0341335125 -0.0118884351 -0.00242068502 -0.0355148464 -0.0119530978 0.00870143063 -0.0336283557 -0.0091928076 -0.00287048542 -0.0355720334 -5.287772e-05 -0.00937223062 0.00215224572 -0.000673248898 -0.00593194459 0.00783042423 0.00110463297 0.00522723887 -0.0291421805 -0.0128251957 0.00473919697 -0.027495062 0.00101799634 -0.00287701329 0.00933591276 -0.0131801739 0.00839914382 -0.0330798179 -0.00197039009 0.0112761669 0.000351512659 -0.00502474094 0.00468029268 0.00947984215 6.33223317e-05 0.00509467628 0.00922173727 -0.0118052661 0.0101298308 0.000816740503 -0.0102454666 0.00879791845 0.00587051734 -0.0106877098 0.00932808686 0.00368481642 -0.00110320421 0.00908940379 0.00591779547 -0.00195565005</float_array>
          <technique_common>
            <accessor source="#positions_array" count="21" stride="3">
              <param name="X" type="float" />
              <param name="Y" type="float" />
              <param name="Z" type="float" />
            </accessor>
          </technique_common>
        </source>
        <source id="normals">
          <float_array id="normals_array" count="114">-0.873025239 0.486802399 -0.0291601699 -0.961832464 -0.0563942529 -0.267764837 -0.966267526 -0.0585216731 0.250803262 -0.606253922 -0.124962322 0.785391986 -0.813989818 -0.080497086 -0.575274587 -0.985195339 -0.16134803 -0.0579397269 -0.15025112 -0.988592863 -0.0104295323 0.197697639 -0.979361475 0.0420331657 -0.221811131 -0.974790931 0.0241343193 -0.469896764 -0.0363353603 0.881973207 -0.0624417737 0.00457929354 0.998038113 -0.54256016 0.83895427 0.0422403738 -0.951775551 0.3065494 0.0122785224 -0.107272059 -0.0307663623 -0.993753552 0.326832086 -0.150143534 -0.93307972 -0.0689603016 -0.0405106433 -0.996796548 0.268985748 -0.100820191 0.957852781 -0.334071428 0.942432761 -0.0147221014 0.0458331853 0.000437605049 -0.998948991 -0.449083447 -0.893390536 -0.0133212619 -0.572284162 -0.819766581 0.0217619315 0.228659749 -0.969941437 0.0832363665 0.0126740178 -0.143148318 0.98962009 0.835324883 -0.220828027 -0.5034554 0.0260976423 -0.166218966 -0.985743463 0.990117431 0.0941765234 0.103914827 0.78539741 -0.183842346 0.591060877 0.21024923 0.0637943074 0.975564241 0.2202342 0.0266841836 -0.97508198 0.791464031 0.0728500858 -0.60685879 0.320651829 0.0251041483 -0.946864426 -0.0933476165 0.99472791 0.0424575694 0.822184205 0.565635979 -0.0637890175 0.694902718 0.125774771 0.708019018 0.658400953 0.752525687 -0.0146027943 0.629830539 0.776715875 0.00509895151 0.798224568 0.511435032 0.318232149 0.0179583058 0.999615848 -0.0211118013</float_array>
          <technique_common>
            <accessor source="#normals_array" count="38" stride="3">
              <param name="X" type="float" />
              <param name="Y" type="float" />
              <param name="Z" type="float" />
            </accessor>
          </technique_common>
        </source>
        <vertices id="vertices">
          <input semantic="POSITION" source="#positions" />
        </vertices>
        <triangles material="scout_1a1a1a" count="38">
          <input semantic="VERTEX" source="#vertices" offset="0" />
          <input semantic="NORMAL" source="#normals" offset="1" />
          <p>0 0 1 1 2 2 3 3 2 2 1 1 0 4 4 5 1 1 5 6 6 7 7 8 8 9 2 2 3 3 9 10 8 9 3 3 9 11 0 0 8 12 0 13 10 14 4 15 11 16 9 10 3 3 9 11 12 17 0 0 12 18 10 14 0 13 4 19 7 8 3 20 6 7 13 21 7 8 11 16 3 3 7 22 10 14 6 23 5 24 6 23 14 25 13 26 15 27 9 10 11 16 16 28 10 14 12 18 17 29 14 25 6 23 13 26 11 16 7 22 16 28 18 30 10 14 18 30 17 29 10 14 9 11 15 31 12 17 18 32 14 25 17 29 19 33 15 27 11 16 16 34 15 35 20 36 5 24 4 15 10 14 18 32 20 36 14 25 17 29 6 23 10 14 14 25 19 33 13 26 20 36 19 33 14 25 19 33 20 36 15 27 13 26 19 33 11 16 1 1 4 5 3 3 4 19 5 6 7 8 16 37 12 17 15 31 0 0 2 2 8 12 18 32 16 34 20 36</p>
        </triangles>
      </mesh>
    </geometry>
  </library_geometries>
  <library_visual_scenes>
    <visual_scene id="scene">
      <node id="link15_L">
        <instance_geometry url="#geometry">
          <bind_material>
            <technique_common>
              <instance_material symbol="scout_1a1a1a" target="#scout_1a1a1a" />
            </technique_common>
          </bind_material>
        </instance_geometry>
      </node>
    </visual_scene>
  </library_visual_scenes>
  <scene>
    <instance_visual_scene url="#scene" />
  </scene>
</COLLADA>