<?xml version='1.0' encoding='utf-8'?>
<COLLADA xmlns="http://www.collada.org/2005/11/COLLADASchema" version="1.4.1">
  <asset>
    <created>2026-09-14T00:00:00Z</created>
    <modified>2026-09-14T00:00:00Z</modified>
    <unit name="metre" meter="1" />
    <up_axis>Z_UP</up_axis>
  </asset>
  <library_effects>
    <effect id="scout_1a1a1a_effect">
      <profile_COMMON>
        <technique sid="common">
          <lambert>
            <emission>
              <color>0 0 0 1</color>
            </emission>
            <ambient>
              <color>0.05 0.05 0.05 1</color>
            </ambient>
            <diffuse>
              <color>0.1 0.1 0.1 1</color>
            </diffuse>
          </lambert>
        </technique>
      </profile_COMMON>
    </effect>
  </library_effects>
  <library_materials>
    <material id="scout_1a1a1a" name="scout_1a1a1a">
      <instance_effect url="#scout_1a1a1a_effect" />
    </material>
  </library_materials>
  <library_geometries>
    <geometry id="geometry" name="link13_L">
      <mesh>
        <source id="positions">
          <float_array id="positions_array" count="60">-0.00562241394 0.0160624795 -0.0144834947 -0.00574009819 0.0159839466 0.000182508447 0.00268532918 0.0165091436 -0.0149761494 0.00220527081 0.0163614899 0.000718013034 -0.0122279413 0.0110321958 -0.0147260297 -0.0122163622 0.0110495407 0.000311538315 0.00949232932 0.0142370956 -0.00259194104 0.0251091942 -0.00102661585 -0.00249734195 0.0140200825 0.0105990777 -0.0114602074 0.0246386975 -0.00165687338 -0.0124631152 -0.00444124546 -0.00201688032 -0.0153002087 0.0231565926 -0.012981697 0.000461853284 0.023150837 -0.0130227152 -0.0148676625 0.00143600884 -0.00808540639 -0.00252508791 -0.00443304144 -0.00201350404 0.000884527049 -0.00994977821 0.00403797161 -0.0147935683 -0.0102134375 0.00444874633 0.000396295305 0.0157305822 -0.0135513889 -0.00252366904 0.0160056651 -0.0135779753 -0.012008111 0.00165669154 -0.00832511298 -0.0115805166</float_array>
          <technique_common>
            <accessor source="#positions_array" count="20" stride="3">
              <param name="X" type="float" />
              <param name="Y" type="float" />
              <param name="Z" type="float" />
            </accessor>
          </technique_common>
        </source>
        <source id="normals">
          <float_array id="normals_array" count="150">-0.340603173 0.940204322 0.00230116071 -0.340195835 0.940348268 0.00344701461 0.169909254 0.985160947 -0.024264954 0.0957408771 0.995330393 0.0122930557 -0.605909526 0.795533359 -0.000552474987 -0.606057346 0.795420825 -0.000450772233 0.474060565 0.880454957 -0.00810492691 0.292744637 0.213245794 0.932108819 0.474888086 0.490404308 0.730742693 0.0955970958 0.12296629 0.98779577 0.476665139 0.473589629 -0.740610003 0.273272127 0.200084507 -0.940897703 0.0681742951 0.09637779 -0.993007362 0.63710922 0.770442963 -0.0225728508 -0.00694147451 0.0128891077 -0.999892831 -0.0448127612 0.0377577543 -0.998281598 -0.0658467636 0.13414073 -0.988772213 -0.0724744201 0.121008135 0.990002275 -0.0507614985 0.0323941894 0.998185277 0.170578673 0.113250002 0.978814244 0.150785685 0.100881591 -0.98340559 -0.2447806 -0.643379927 0.725358307 -0.244501129 -0.640565991 0.727938473 -0.244818166 -0.643760085 0.725008309 -0.125665098 -0.0313570276 -0.991577029 -0.00970211904 0.00778183853 0.999922633 0.735534906 0.676718473 -0.0322561748 0.750421584 0.656465471 -0.0769446641 0.989415526 -0.144125953 -0.0168695766 0.989284813 -0.145133048 -0.0158722401 0.986925423 -0.161177486 6.07320289e-05 -0.105489194 -0.0192429181 0.994234264 0.991812766 -0.121555462 -0.0391373374 -0.119135126 -0.992875814 0.00211584149 0.0776514858 -0.99697262 0.00397927361 0.0754355788 -0.997147202 0.00263987738 -0.732926846 -0.680303395 0.00234027533 -0.860721827 -0.509066999 -0.00295863138 -0.730786204 -0.68260628 0.000512845756 -0.249323756 -0.620543599 -0.743480504 -0.252313256 -0.658027709 -0.709462821 -0.250650972 -0.636401057 -0.729498327 -0.252516776 -0.660847247 -0.706764579 -0.565109909 -0.825005829 0.004020683 -0.106492363 -0.994313478 -0.000301576656 -0.244319588 -0.638752341 0.72959125 -0.57452637 -0.818450153 0.00766393589 -0.870117962 -0.49284029 0.00179815374 -0.952521086 -0.304420441 -0.00563921407 -0.95691967 -0.290350854 0.00107175263</float_array>
          <technique_common>
            <accessor source="#normals_array" count="50" stride="3">
              <param name="X" type="float" />
              <param name="Y" type="float" />
              <param name="Z" type="float" />
            </accessor>
          </technique_common>
        </source>
        <vertices id="vertices">
          <input semantic="POSITION" source="#positions" />
        </vertices>
        <triangles material="scout_1a1a1a" count="36">
          <input semantic="VERTEX" source="#vertices" offset="0" />
          <input semantic="NORMAL" source="#normals" offset="1" />
          <p>0 0 1 1 2 2 1 1 3 3 2 2 1 1 4 4 5 5 6 6 2 2 3 3 7 7 6 8 3 9 8 10 9 11 2 12 6 6 8 13 2 2 10 14 4 15 2 12 4 15 0 16 2 12 1 17 5 18 3 9 7 7 3 9 11 19 12 20 10 14 2 12 13 21 11 22 14 23 15 24 4 15 10 14 14 25 3 9 5 18 2 12 9 11 12 20 7 26 9 27 8 13 12 28 7 29 11 30 16 31 14 25 5 18 11 19 3 9 14 25 9 32 7 29 12 28 17 33 12 34 11 35 14 36 15 37 10 38 18 39 19 40 12 41 19 40 10 42 12 41 19 43 18 44 17 33 13 21 17 45 11 22 10 38 19 43 14 36 19 43 13 46 14 36 1 1 0 0 4 4 16 47 4 48 15 37 17 33 13 46 19 43 4 48 16 47 5 49 7 26 8 13 6 6 17 33 18 44 12 34 14 36 16 47 15 37</p>
        </triangles>
      </mesh>
    </geometry>
  </library_geometries>
  <library_visual_scenes>
    <visual_scene id="scene">
      <node id="link13_L">
        <instance_geometry url="#geometry">
          <bind_material>
            <technique_common>
              <instance_material symbol="scout_1a1a1a" target="#scout_1a1a1a" />
            </technique_common>
          </bind_material>
        </instance_geometry>
      </node>
    </visual_scene>
  </library_visual_scenes>
  <scene>
    <instance_visual_scene url="#scene" />
  </scene>
</COLLADA>