<?xml version='1.0' encoding='utf-8'?>
<COLLADA xmlns="http://www.collada.org/2005/11/COLLADASchema" version="1.4.1">
  <asset>
    <created>2026-09-14T00:00:00Z</created>
    <modified>2026-09-14T00:00:00Z</modified>
    <unit name="metre" meter="1" />
    <up_axis>Z_UP</up_axis>
  </asset>
  <library_effects>
    <effect id="scout_1a1a1a_effect">
      <profile_COMMON>
        <technique sid="common">
          <lambert>
            <emission>
              <color>0 0 0 1</color>
            </emission>
            <ambient>
              <color>0.05 0.05 0.05 1</color>
            </ambient>
            <diffuse>
              <color>0.1 0.1 0.1 1</color>
            </diffuse>
          </lambert>
        </technique>
      </profile_COMMON>
    </effect>
  </library_effects>
  <library_materials>
    <material id="scout_1a1a1a" name="scout_1a1a1a">
      <instance_effect url="#scout_1a1a1a_effect" />
    </material>
  </library_materials>
  <library_geometries>
    <geometry id="geometry" name="link11_R">
      <mesh>
        <source id="positions">
          <float_array id="positions_array" count="54">-0.00996948592 0.00784454867 0.00144128245 -0.0127029894 -0.00125561841 0.00121949427 -0.0103459461 -0.00191672519 0.00272843591 -0.0151201785 -0.000547695498 -0.0102497535 -0.0124563407 0.00856743008 -0.0108084371 -0.0132069103 -0.00108098693 -0.013907793 0.00489807595 -0.00766569003 -0.00274471194 0.00528957089 -0.00710015791 -0.0142500009 0.00623638649 -0.0030564433 -0.00274340878 0.0015608843 -0.00882823206 -0.00285337935 0.00584807899 0.000321326981 -0.0142500009 0.00477203773 0.00187632174 -0.00276376749 -0.00120298541 -0.00772109628 -0.01425 -0.00719152205 0.00706796162 0.00269842311 0.00145696895 0.00446394552 -0.00268408889 0.00289853034 -0.00875614118 -0.0142500009 0.00147591694 0.00445408793 -0.0142494673 -0.010303596 0.00794166792 -0.0139555503</float_array>
          <technique_common>
            <accessor source="#positions_array" count="18" stride="3">
              <param name="X" type="float" />
              <param name="Y" type="float" />
              <param name="Z" type="float" />
            </accessor>
          </technique_common>
        </source>
        <source id="normals">
          <float_array id="normals_array" count="138">-0.401736319 0.134930149 0.905760348 -0.507965446 0.131836385 0.851228714 -0.482645392 0.13276732 0.865694106 -0.851008236 0.219459698 -0.477097958 -0.796991885 0.240038723 -0.554243088 -0.834069967 0.226471707 -0.503028691 0.96016407 -0.278792322 0.0189680867 0.99135226 -0.125795737 -0.0373651981 0.999810517 -0.007598795 0.0179211497 -0.401138544 -0.88423723 0.239191085 -0.440970093 -0.890572369 0.111473307 -0.112194061 -0.993044078 0.035719797 -0.467064172 -0.88398695 -0.0204478987 0.929800451 0.366504341 -0.0338476412 0.794684827 0.600824893 0.0865186006 -0.369690984 -0.929073751 -0.0122685973 -0.482921273 -0.866513789 -0.126257241 0.350560576 -0.0310628396 0.936024785 0.291499466 -0.137412965 0.94664973 0.253625393 -0.223467156 0.941135824 0.461007595 0.140471801 0.87620753 0.331514299 -0.0661679357 0.941127002 0.492911965 0.839808226 0.227508083 0.529479027 0.661993742 0.530486822 0.135551021 -0.470609367 0.871867359 -0.376837254 0.135364294 0.916335166 0.182733625 -0.982863784 -0.0242314432 0.3675026 -0.929706395 0.0242464244 0.49161911 0.870700598 -0.0138252778 -0.936338603 0.280492216 0.211173102 -0.936145067 0.282023281 0.209988728 -0.936863244 0.276186943 0.214494839 -0.776297808 0.246726945 -0.580075443 -4.78904476e-05 4.17284864e-05 -1 1.90748992e-07 6.28776178e-08 -1 -0.0112996772 0.00251338049 -0.999933004 -1.96289193e-07 2.40299755e-07 -1 -0.0247834735 0.00403339555 -0.999684691 -0.0153398952 0.00272212806 -0.999878645 -0.024204785 0.00249716314 -0.999703884 0.277251542 0.960604489 -0.019251965 0.281315267 0.959588647 -0.00716366014 0.282530844 0.959257483 0.0011807644 0.282394171 0.959298015 0.00091420667 -0.935611308 0.286102921 0.206824973 0.56923461 -0.82190609 -0.0210306142</float_array>
          <technique_common>
            <accessor source="#normals_array" count="46" stride="3">
              <param name="X" type="float" />
              <param name="Y" type="float" />
              <param name="Z" type="float" />
            </accessor>
          </technique_common>
        </source>
        <vertices id="vertices">
          <input semantic="POSITION" source="#positions" />
        </vertices>
        <triangles material="scout_1a1a1a" count="32">
          <input semantic="VERTEX" source="#vertices" offset="0" />
          <input semantic="NORMAL" source="#normals" offset="1" />
          <p>0 0 1 1 2 2 3 3 4 4 5 5 6 6 7 7 8 8 2 9 1 10 9 11 1 10 3 12 9 11 8 8 10 13 11 14 12 15 3 12 5 16 8 17 2 18 6 19 8 17 11 20 13 21 11 14 14 22 13 23 9 24 6 19 2 18 2 2 13 25 0 0 3 12 12 15 9 11 9 11 15 26 6 27 11 14 16 28 14 22 0 29 3 30 1 31 5 5 4 4 17 32 10 33 7 34 12 35 15 36 12 35 7 34 12 35 5 37 16 38 5 37 17 39 16 38 16 38 10 33 12 35 9 11 12 15 15 26 8 17 13 21 2 18 13 40 14 22 0 41 14 22 16 28 17 42 14 22 17 42 4 43 4 43 0 41 14 22 8 8 7 7 10 13 11 14 10 13 16 28 0 29 4 44 3 30 6 27 15 26 7 45</p>
        </triangles>
      </mesh>
    </geometry>
  </library_geometries>
  <library_visual_scenes>
    <visual_scene id="scene">
      <node id="link11_R">
        <instance_geometry url="#geometry">
          <bind_material>
            <technique_common>
              <instance_material symbol="scout_1a1a1a" target="#scout_1a1a1a" />
            </technique_common>
          </bind_material>
        </instance_geometry>
      </node>
    </visual_scene>
  </library_visual_scenes>
  <scene>
    <instance_visual_scene url="#scene" />
  </scene>
</COLLADA>