<?xml version='1.0' encoding='utf-8'?>
<COLLADA xmlns="http://www.collada.org/2005/11/COLLADASchema" version="1.4.1">
  <asset>
    <created>2026-09-14T00:00:00Z</created>
    <modified>2026-09-14T00:00:00Z</modified>
    <unit name="metre" meter="1" />
    <up_axis>Z_UP</up_axis>
  </asset>
  <library_effects>
    <effect id="scout_1a1a1a_effect">
      <profile_COMMON>
        <technique sid="common">
          <lambert>
            <emission>
              <color>0 0 0 1</color>
            </emission>
            <ambient>
              <color>0.05 0.05 0.05 1</color>
            </ambient>
            <diffuse>
              <color>0.1 0.1 0.1 1</color>
            </diffuse>
          </lambert>
        </technique>
      </profile_COMMON>
    </effect>
  </library_effects>
  <library_materials>
    <material id="scout_1a1a1a" name="scout_1a1a1a">
      <instance_effect url="#scout_1a1a1a_effect" />
    </material>
  </library_materials>
  <library_geometries>
    <geometry id="geometry" name="link18_R">
      <mesh>
        <source id="positions">
          <float_array id="positions_array" count="57">-0.0027475669 -0.00161760114 -0.00894483458 -0.00296754576 -0.00125957408 -0.00108677684 -0.006188998 0.0408396125 -0.00602283049 -0.00463161897 0.0408179648 1.11646759e-05 -0.00434412155 0.0451374166 -0.00962071586 -0.0041506337 0.0463876724 -0.00143928209 0.00619571889 0.000235456959 -0.0113060456 0.00567375729 -0.00813303981 -0.00808382127 0.0055737677 -0.00823886693 -0.00194729923 0.00608120766 0.00028329069 0.00132142322 -0.000488894235 0.0448348783 -0.0096449405 0.00542073883 0.0310768038 -0.000336384488 0.0103086447 0.00292220945 -0.00867452659 0.00808303617 0.0257156771 -0.00611726381 0.0104530239 0.00306782685 -0.00147567235 -0.00243698526 0.0487932824 -0.00452167261 0.00619969005 0.0258793402 -0.00953581557 0.000942312239 0.0474306345 -0.00176995003 0.000800744572 0.048358947 -0.00726320967</float_array>
          <technique_common>
            <accessor source="#positions_array" count="19" stride="3">
              <param name="X" type="float" />
              <param name="Y" type="float" />
              <param name="Z" type="float" />
            </accessor>
          </technique_common>
        </source>
        <source id="normals">
          <float_array id="normals_array" count="126">-0.995604038 -0.0770334601 -0.0532772504 -0.997086227 -0.0762826875 0.000126944185 -0.99112004 0.0793867707 -0.106671751 -0.967280567 0.044281628 0.249814883 -0.87069267 -0.0368215516 -0.490447253 -0.934089661 0.351904452 0.0603308044 -0.904721498 0.423790485 -0.0433658287 0.224561974 -0.183751121 -0.956978261 -0.172245711 -0.344581008 -0.922819257 -0.222744331 -0.152003497 -0.962953746 -0.186758652 -0.342102468 0.920916438 0.221668556 -0.187196121 0.956985176 -0.229121253 -0.155942455 0.960825384 -0.0866753012 0.382255435 -0.919982731 0.291404814 0.286001414 -0.912845254 0.126449093 0.0689989477 0.989570498 0.086724706 0.129082233 0.987834275 -0.624801993 -0.780771911 0.00421412615 -0.618952394 -0.785396218 -0.00711774314 -0.631581604 -0.775108814 0.017634837 0.883719444 -0.11081405 -0.454708874 0.973479629 0.200503334 -0.110162847 0.990786731 -0.134946182 0.0114512304 -0.847950518 0.526620388 -0.0604225732 0.603189945 0.148825482 -0.783589721 0.098716408 0.180383027 0.978630185 0.0114268279 0.251070917 0.96790123 0.64745909 -0.308676809 -0.696789324 0.919370711 -0.393387824 0.00187146955 0.918002725 -0.396490932 0.00812045019 0.560813546 -0.0503596403 0.826409161 0.643938303 -0.307112277 0.700732112 -0.296408743 0.825215876 -0.480791599 -0.192583367 0.760955393 -0.619563222 0.075187318 0.927242756 0.36683479 -0.130380854 0.815462887 0.563933551 0.0614169575 0.922391057 0.381343216 0.946742296 0.245553926 0.20828411 0.258710295 0.953523934 0.15447022 0.917288065 0.299901307 -0.261995882 0.951702356 0.302809119 0.050687708 -0.610239923 -0.791865051 -0.0235994235</float_array>
          <technique_common>
            <accessor source="#normals_array" count="42" stride="3">
              <param name="X" type="float" />
              <param name="Y" type="float" />
              <param name="Z" type="float" />
            </accessor>
          </technique_common>
        </source>
        <vertices id="vertices">
          <input semantic="POSITION" source="#positions" />
        </vertices>
        <triangles material="scout_1a1a1a" count="34">
          <input semantic="VERTEX" source="#vertices" offset="0" />
          <input semantic="NORMAL" source="#normals" offset="1" />
          <p>0 0 1 1 2 2 1 1 3 3 2 2 4 4 0 0 2 2 5 5 2 2 3 3 4 6 2 2 5 5 6 7 7 8 0 9 8 10 9 11 1 12 4 13 10 14 6 7 0 9 4 13 6 7 11 15 3 16 9 11 0 17 8 18 1 19 12 20 13 21 14 22 3 16 1 12 9 11 15 23 4 6 5 5 16 24 6 7 10 14 17 25 3 16 11 15 17 25 5 26 3 16 6 7 12 20 7 27 12 20 14 22 7 28 14 22 8 29 7 28 14 30 9 11 8 31 15 32 18 33 4 13 16 24 12 20 6 7 14 30 11 15 9 11 15 34 5 35 17 36 18 33 10 14 4 13 13 21 11 37 14 22 12 20 16 24 13 21 17 36 18 38 15 34 18 39 16 24 10 14 18 39 13 21 16 24 18 39 17 40 13 21 17 40 11 37 13 21 0 17 7 41 8 18</p>
        </triangles>
      </mesh>
    </geometry>
  </library_geometries>
  <library_visual_scenes>
    <visual_scene id="scene">
      <node id="link18_R">
        <instance_geometry url="#geometry">
          <bind_material>
            <technique_common>
              <instance_material symbol="scout_1a1a1a" target="#scout_1a1a1a" />
            </technique_common>
          </bind_material>
        </instance_geometry>
      </node>
    </visual_scene>
  </library_visual_scenes>
  <scene>
    <instance_visual_scene url="#scene" />
  </scene>
</COLLADA>