<?xml version='1.0' encoding='utf-8'?>
<COLLADA xmlns="http://www.collada.org/2005/11/COLLADASchema" version="1.4.1">
  <asset>
    <created>2026-09-14T00:00:00Z</created>
    <modified>2026-09-14T00:00:00Z</modified>
    <unit name="metre" meter="1" />
    <up_axis>Z_UP</up_axis>
  </asset>
  <library_effects>
    <effect id="scout_1a1a1a_effect">
      <profile_COMMON>
        <technique sid="common">
          <lambert>
            <emission>
              <color>0 0 0 1</color>
            </emission>
            <ambient>
              <color>0.05 0.05 0.05 1</color>
            </ambient>
            <diffuse>
              <color>0.1 0.1 0.1 1</color>
            </diffuse>
          </lambert>
        </technique>
      </profile_COMMON>
    </effect>
  </library_effects>
  <library_materials>
    <material id="scout_1a1a1a" name="scout_1a1a1a">
      <instance_effect url="#scout_1a1a1a_effect" />
    </material>
  </library_materials>
  <library_geometries>
    <geometry id="geometry" name="link11_L">
      <mesh>
        <source id="positions">
          <float_array id="positions_array" count="54">0.0133458544 0.00710154604 -0.0106280372 0.0149608804 -0.00225651287 -0.00989974942 0.0129995253 -0.00256969826 -0.0135577936 -0.00103731221 0.00457697548 -0.0023788088 -0.00455078622 0.0023785911 -0.0139000006 -0.00473505817 0.00217800448 -0.00242232904 -0.00655814866 -0.0024032651 -0.0139000006 -0.00569768948 -0.00715283491 -0.00240248768 -0.00653433707 -0.00248236652 -0.00238830387 0.00939222891 -0.00319569116 0.00293799979 0.00784031674 0.00618575374 0.00301221921 -0.00236557913 -0.0085489694 -0.00245900452 0.012083604 -0.00276959594 0.00223900983 -0.00235649175 -0.00863737427 -0.0139196236 0.0107376259 0.00665545464 0.00190330506 -0.000901083753 0.00460870471 -0.0138994614 -0.00569196371 -0.00710132672 -0.0139000006 0.0109980442 0.00669999421 -0.01364356</float_array>
          <technique_common>
            <accessor source="#positions_array" count="18" stride="3">
              <param name="X" type="float" />
              <param name="Y" type="float" />
              <param name="Z" type="float" />
            </accessor>
          </technique_common>
        </source>
        <source id="normals">
          <float_array id="normals_array" count="138">0.797585607 0.148543075 -0.584629893 0.871564686 0.113292322 -0.477011412 0.849197149 0.125015154 -0.513064682 -0.405407667 0.883217871 0.235734597 -0.757491171 0.652826369 -0.00499273278 -0.752136946 0.654390335 0.0778672323 -0.994425237 0.105403922 -0.00290745706 -0.984106302 -0.177580178 0.00029174934 -0.995569646 0.0939879343 0.00270512979 -0.0528841577 -0.0395798683 0.997815967 -0.353899002 0.00430991454 0.935273707 -0.280268222 -0.198682502 0.939135253 -0.437080383 0.175189152 0.88219583 0.0084962137 0.0294444356 0.999530315 -0.18233563 -0.470132262 0.863556266 0.344341755 -0.937941313 0.0411678255 0.328698546 -0.934247434 0.138343632 0.238420486 -0.897558868 0.370868921 -0.459635407 0.698527098 0.548448026 0.358999372 -0.933062792 -0.0226567537 -0.392720699 -0.919646263 0.00460997783 -0.412139118 -0.911118448 -0.00212269207 -0.386336535 -0.922332764 0.00680837128 0.367322773 -0.922582746 -0.117961966 0.347407252 -0.937678456 -0.00820551254 0.961547494 0.160677105 0.222731337 0.961562157 0.167293414 0.217740864 0.961357474 0.181988478 0.206571907 -0.353303164 0.935507536 -0.00160123908 -0.983424306 -0.181314543 -0.0013020176 0.344538003 0.0825111419 0.935139298 0.266358674 0.0430696532 0.962911248 0.768406212 0.160179347 -0.61959213 0.0231244601 -0.00280453241 -0.99972868 0.00905503426 -0.00037898327 -0.999958932 0.0154006127 -0.000996142277 -0.99988091 -0.00642960705 -0.00118528958 -0.999978602 -0.0034471543 0.000824372575 -0.999993742 -0.00132018933 0.00151838677 -0.999997973 0.022280667 -0.0044392203 -0.999741912 -0.17208235 0.985080898 0.00179974071 -0.167086825 0.985758722 -0.0190187767 -0.171367526 0.985182524 -0.00696828589 -0.172269002 0.985049307 0.00109744922 -0.418311387 -0.908293605 -0.00427744491 0.961268961 0.145612523 0.23400642</float_array>
          <technique_common>
            <accessor source="#normals_array" count="46" stride="3">
              <param name="X" type="float" />
              <param name="Y" type="float" />
              <param name="Z" type="float" />
            </accessor>
          </technique_common>
        </source>
        <vertices id="vertices">
          <input semantic="POSITION" source="#positions" />
        </vertices>
        <triangles material="scout_1a1a1a" count="32">
          <input semantic="VERTEX" source="#vertices" offset="0" />
          <input semantic="NORMAL" source="#normals" offset="1" />
          <p>0 0 1 1 2 2 3 3 4 4 5 5 6 6 7 7 8 8 9 9 8 10 7 11 5 12 8 10 10 13 7 11 11 14 9 9 11 15 12 16 9 17 3 3 5 5 10 18 1 19 12 16 11 15 6 6 5 5 4 4 7 20 13 21 11 22 2 23 1 19 13 24 14 25 1 26 0 27 1 19 11 15 13 24 3 3 15 28 4 4 6 6 16 29 7 7 9 9 10 13 8 10 14 30 10 13 12 31 2 2 17 32 0 0 2 33 13 34 15 35 16 36 6 37 13 34 6 37 4 38 13 34 4 38 15 35 13 34 15 35 17 39 2 33 6 6 8 8 5 5 15 28 3 3 17 40 3 3 10 41 14 42 17 40 3 3 0 43 14 42 0 43 3 3 7 20 16 44 13 21 14 25 12 45 1 26 9 9 12 31 10 13</p>
        </triangles>
      </mesh>
    </geometry>
  </library_geometries>
  <library_visual_scenes>
    <visual_scene id="scene">
      <node id="link11_L">
        <instance_geometry url="#geometry">
          <bind_material>
            <technique_common>
              <instance_material symbol="scout_1a1a1a" target="#scout_1a1a1a" />
            </technique_common>
          </bind_material>
        </instance_geometry>
      </node>
    </visual_scene>
  </library_visual_scenes>
  <scene>
    <instance_visual_scene url="#scene" />
  </scene>
</COLLADA>