<?xml version='1.0' encoding='utf-8'?>
<COLLADA xmlns="http://www.collada.org/2005/11/COLLADASchema" version="1.4.1">
  <asset>
    <created>2026-09-14T00:00:00Z</created>
    <modified>2026-09-14T00:00:00Z</modified>
    <unit name="metre" meter="1" />
    <up_axis>Z_UP</up_axis>
  </asset>
  <library_effects>
    <effect id="scout_1a1a1a_effect">
      <profile_COMMON>
        <technique sid="common">
          <lambert>
            <emission>
              <color>0 0 0 1</color>
            </emission>
            <ambient>
              <color>0.05 0.05 0.05 1</color>
            </ambient>
            <diffuse>
              <color>0.1 0.1 0.1 1</color>
            </diffuse>
          </lambert>
        </technique>
      </profile_COMMON>
    </effect>
  </library_effects>
  <library_materials>
    <material id="scout_1a1a1a" name="scout_1a1a1a">
      <instance_effect url="#scout_1a1a1a_effect" />
    </material>
  </library_materials>
  <library_geometries>
    <geometry id="geometry" name="link17_R">
      <mesh>
        <source id="positions">
          <float_array id="positions_array" count="63">0.00498164166 -0.00915408041 -0.0119407764 0.00813667104 -0.00707282498 -0.00242135674 0.00396688608 -0.00976459868 0.000180583855 -0.00889861304 -0.00423109625 -0.0123357596 -0.0102532227 0.00779414829 -0.00410804991 -0.00517270388 0.0345178694 -0.0119289206 -0.00557412114 0.033687558 -0.000150191117 -0.00925122667 -0.00284768431 -0.000428020692 0.0052516791 0.0289692786 -0.0128221326 -0.00573993614 -0.00776319718 0.00109484512 0.00492622191 0.0298933759 0.000839268789 -0.00264052371 -0.00936458074 -0.0131462635 -0.00289951847 0.0355588757 -2.99720978e-05 0.00907032192 0.0343560725 -0.00625790888 -0.00212468347 0.0354435071 -0.0120030828 0.00837068073 0.0332193784 -0.00220727175 0.00843314826 0.0330773965 -0.00979345851 0.00932310428 -0.00437196158 -0.0108256759 0.00934386253 -0.00452061836 -0.00134133827 0.0114976736 -0.00014985622 -0.00608182512 0.00915969815 -0.00580653222 -0.00989578944</float_array>
          <technique_common>
            <accessor source="#positions_array" count="21" stride="3">
              <param name="X" type="float" />
              <param name="Y" type="float" />
              <param name="Z" type="float" />
            </accessor>
          </technique_common>
        </source>
        <source id="normals">
          <float_array id="normals_array" count="114">0.300798744 -0.952854455 -0.0398563556 0.733778238 -0.648912549 0.201201469 0.125018075 -0.991890728 0.0228738245 -0.893792689 -0.44063282 -0.0835303441 -0.992566466 0.071655497 0.0983733907 -0.983405352 0.164681211 -0.0761185586 -0.984415412 0.17352806 0.0285369623 -0.941594899 -0.329038978 0.0716407523 0.313589782 0.132383004 -0.940285146 -0.100222126 0.0281455405 -0.994566917 -0.0641917661 0.0399191789 -0.997138858 -0.0526713282 -0.000224403062 0.998611867 0.298061937 0.167777538 0.939686 -0.0933266357 0.0369792543 0.994948566 -0.536648691 -0.843019009 0.0364306904 0.0402366631 0.000164671932 -0.999190152 -0.326037109 -0.945070267 -0.0232806429 -0.00645148614 0.14293693 0.989710748 -0.242749661 0.968876362 0.0484897308 0.218977883 0.975329459 -0.0279485416 -0.0831248388 0.995067477 -0.0541381165 0.0223528277 0.150503576 -0.988356709 0.164803684 -0.0203651711 0.986116111 0.249265045 0.920363188 0.301327914 -0.339814603 0.940332413 -0.0173486006 0.194441438 -0.0240477547 -0.980619311 0.276280612 0.886787951 -0.370507956 0.71341157 -0.168264627 -0.680243254 0.757046759 -0.247031868 0.604859829 0.796022773 0.180350542 -0.577772856 0.798033595 0.188143253 0.572489798 0.996770799 -0.0802896395 0.00125341245 0.997534513 0.0701660737 -0.00125420827 0.808728755 -0.531823099 -0.251240969 0.659613729 -0.460280925 -0.59418112 0.668072283 -0.534891665 0.517271996 -0.362764031 0.0294276588 0.931416273 -0.574009299 0.81796205 0.0380982384</float_array>
          <technique_common>
            <accessor source="#normals_array" count="38" stride="3">
              <param name="X" type="float" />
              <param name="Y" type="float" />
              <param name="Z" type="float" />
            </accessor>
          </technique_common>
        </source>
        <vertices id="vertices">
          <input semantic="POSITION" source="#positions" />
        </vertices>
        <triangles material="scout_1a1a1a" count="38">
          <input semantic="VERTEX" source="#vertices" offset="0" />
          <input semantic="NORMAL" source="#normals" offset="1" />
          <p>0 0 1 1 2 2 3 3 4 4 5 5 6 6 4 4 7 7 8 8 3 9 5 10 9 11 10 12 6 13 5 5 4 4 6 6 9 14 7 7 3 3 11 15 3 9 8 8 11 16 9 14 3 3 10 12 12 17 6 13 12 18 13 19 14 20 5 10 14 21 8 8 9 11 2 22 10 12 15 23 13 19 12 18 5 24 12 18 14 20 0 25 11 15 8 8 16 26 14 20 13 19 17 27 0 25 8 8 2 22 18 28 10 12 16 29 8 8 14 21 2 2 9 14 11 16 10 12 15 30 12 17 19 31 16 29 13 32 17 27 20 33 0 34 20 33 1 1 0 0 1 1 18 28 2 35 7 36 9 11 6 13 19 31 13 32 15 30 19 31 17 27 16 29 2 2 11 16 0 0 18 28 19 31 15 30 17 27 8 8 16 29 18 28 15 30 10 12 18 28 20 33 19 31 20 33 17 27 19 31 20 33 18 28 1 1 5 24 6 37 12 18 7 7 4 4 3 3</p>
        </triangles>
      </mesh>
    </geometry>
  </library_geometries>
  <library_visual_scenes>
    <visual_scene id="scene">
      <node id="link17_R">
        <instance_geometry url="#geometry">
          <bind_material>
            <technique_common>
              <instance_material symbol="scout_1a1a1a" target="#scout_1a1a1a" />
            </technique_common>
          </bind_material>
        </instance_geometry>
      </node>
    </visual_scene>
  </library_visual_scenes>
  <scene>
    <instance_visual_scene url="#scene" />
  </scene>
</COLLADA>