<?xml version='1.0' encoding='utf-8'?>
<COLLADA xmlns="http://www.collada.org/2005/11/COLLADASchema" version="1.4.1">
  <asset>
    <created>2026-09-14T00:00:00Z</created>
    <modified>2026-09-14T00:00:00Z</modified>
    <unit name="metre" meter="1" />
    <up_axis>Z_UP</up_axis>
  </asset>
  <library_effects>
    <effect id="scout_1a1a1a_effect">
      <profile_COMMON>
        <technique sid="common">
          <lambert>
            <emission>
              <color>0 0 0 1</color>
            </emission>
            <ambient>
              <color>0.05 0.05 0.05 1</color>
            </ambient>
            <diffuse>
              <color>0.1 0.1 0.1 1</color>
            </diffuse>
          </lambert>
        </technique>
      </profile_COMMON>
    </effect>
  </library_effects>
  <library_materials>
    <material id="scout_1a1a1a" name="scout_1a1a1a">
      <instance_effect url="#scout_1a1a1a_effect" />
    </material>
  </library_materials>
  <library_geometries>
    <geometry id="geometry" name="link14_L">
      <mesh>
        <source id="positions">
          <float_array id="positions_array" count="54">0.00461473921 0.00904938951 -0.00128604076 0.021997055 -0.0100557348 -0.00253073242 0.00468500098 0.00914718118 -0.0107388645 0.0226078909 -0.0107646529 -0.00824178848 0.00413659774 -0.000275849801 -0.0133977458 -0.00588182174 -0.000600597356 -0.00973691791 0.00288905669 -0.00652863272 -0.0127417911 -0.00594417611 -0.000390356669 -0.00240012934 0.00449054735 0.00193470146 0.00110243843 0.00143136585 -0.00444041053 0.00100143626 0.0201139953 -0.0108111622 -0.0108471401 0.0124473106 -0.0123308459 0.000349205453 0.0130985538 -0.0124110132 -0.0121511864 0.00914776884 -0.0134932725 -0.00946707465 0.0209821314 -0.0133824376 -0.00340442639 0.00931490865 -0.0135310777 -0.00240754033 0.0166064817 -0.0151880598 -0.00158154871 0.0167747792 -0.0152588543 -0.0101791108</float_array>
          <technique_common>
            <accessor source="#positions_array" count="18" stride="3">
              <param name="X" type="float" />
              <param name="Y" type="float" />
              <param name="Z" type="float" />
            </accessor>
          </technique_common>
        </source>
        <source id="normals">
          <float_array id="normals_array" count="126">0.740016282 0.672473609 0.0124573596 0.742793918 0.66952002 -0.000311447511 0.74053061 0.671946168 0.010138534 0.743465841 0.66876477 -0.0034956201 -0.051615499 0.139494643 -0.9888767 -0.343830705 0.140159413 -0.928512692 -0.337918788 0.27375409 -0.900482953 -0.137348786 -0.0762003586 -0.987587392 -0.354044676 0.219368607 0.909136832 0.000840009656 0.220206171 0.97545296 -0.363175929 0.302216619 0.881344616 -0.145075664 0.0539642051 0.987947822 0.568470061 -0.040906325 -0.821686387 0.356697857 0.280582935 -0.891089141 0.626364708 0.487517029 -0.608271599 0.364074647 -0.0728446543 0.928516746 0.37994352 0.288422346 0.878894448 0.249716982 0.0117846867 0.968247175 0.174092159 -0.0817109942 -0.981333375 -0.670596719 0.741794884 -0.00635524141 -0.674693286 0.737924695 -0.0160034783 -0.666651726 0.745364308 0.00275581772 -0.570050836 -0.708154738 -0.416603953 -0.425005645 -0.84500134 -0.324565709 -0.649923146 -0.758607924 -0.0459766202 -0.647463202 -0.753519297 0.114017852 0.936165154 -0.322416723 0.140150964 -0.435430676 -0.83939445 0.325295389 -0.560642898 -0.669122517 0.487805963 0.353499115 -0.202382505 0.913279653 0.480928302 -0.357031077 0.800772607 0.46748206 -0.637316287 -0.612607896 -0.301506013 -0.700011373 0.647362471 -0.260984838 -0.698866963 -0.665936887 0.642215014 -0.686882019 -0.340224773 0.509003758 -0.857158899 -0.0787004605 -0.241021931 -0.759306252 0.604452133 -0.223688126 -0.974658787 0.00196970603 -0.221991628 -0.975041628 0.00368331233 0.386798799 -0.922039449 0.0151637364 -0.679174662 0.733487546 -0.0267908424 -0.229940891 -0.736973405 -0.635607839</float_array>
          <technique_common>
            <accessor source="#normals_array" count="42" stride="3">
              <param name="X" type="float" />
              <param name="Y" type="float" />
              <param name="Z" type="float" />
            </accessor>
          </technique_common>
        </source>
        <vertices id="vertices">
          <input semantic="POSITION" source="#positions" />
        </vertices>
        <triangles material="scout_1a1a1a" count="32">
          <input semantic="VERTEX" source="#vertices" offset="0" />
          <input semantic="NORMAL" source="#normals" offset="1" />
          <p>0 0 1 1 2 2 1 1 3 3 2 2 4 4 5 5 2 6 4 4 6 7 5 5 7 8 8 9 0 10 9 11 8 9 7 8 10 12 2 13 3 14 8 9 1 15 0 16 10 12 4 4 2 13 11 17 8 9 9 11 12 18 6 7 4 4 11 17 1 15 8 9 2 19 7 20 0 21 6 22 13 23 5 24 13 23 7 25 5 24 14 26 3 26 1 26 12 18 4 4 10 12 13 23 15 27 7 25 15 27 9 28 7 25 1 15 16 29 14 30 17 31 12 18 10 12 15 27 11 32 9 28 16 29 1 15 11 17 12 33 13 23 6 22 17 31 10 12 3 34 14 35 17 31 3 34 16 36 11 32 15 27 13 23 17 37 15 27 16 38 15 27 17 37 16 39 17 31 14 35 2 19 5 40 7 20 17 41 13 23 12 33</p>
        </triangles>
      </mesh>
    </geometry>
  </library_geometries>
  <library_visual_scenes>
    <visual_scene id="scene">
      <node id="link14_L">
        <instance_geometry url="#geometry">
          <bind_material>
            <technique_common>
              <instance_material symbol="scout_1a1a1a" target="#scout_1a1a1a" />
            </technique_common>
          </bind_material>
        </instance_geometry>
      </node>
    </visual_scene>
  </library_visual_scenes>
  <scene>
    <instance_visual_scene url="#scene" />
  </scene>
</COLLADA>