<?xml version='1.0' encoding='utf-8'?>
<COLLADA xmlns="http://www.collada.org/2005/11/COLLADASchema" version="1.4.1">
  <asset>
    <created>2026-09-14T00:00:00Z</created>
    <modified>2026-09-14T00:00:00Z</modified>
    <unit name="metre" meter="1" />
    <up_axis>Z_UP</up_axis>
  </asset>
  <library_effects>
    <effect id="scout_1a1a1a_effect">
      <profile_COMMON>
        <technique sid="common">
          <lambert>
            <emission>
              <color>0 0 0 1</color>
            </emission>
            <ambient>
              <color>0.05 0.05 0.05 1</color>
            </ambient>
            <diffuse>
              <color>0.1 0.1 0.1 1</color>
            </diffuse>
          </lambert>
        </technique>
      </profile_COMMON>
    </effect>
  </library_effects>
  <library_materials>
    <material id="scout_1a1a1a" name="scout_1a1a1a">
      <instance_effect url="#scout_1a1a1a_effect" />
    </material>
  </library_materials>
  <library_geometries>
    <geometry id="geometry" name="link16_L">
      <mesh>
        <source id="positions">
          <float_array id="positions_array" count="57">-0.00366679719 -0.0428785831 -0.0087867165 -0.00310688722 -0.0439902544 -0.00176175532 -0.0056415624 -0.0375593416 -0.00496205501 -0.00359514751 0.000653619471 -0.00233843178 -0.00238620746 0.00340911048 -0.00852706749 -0.00363086886 -0.0377984457 0.000233180326 -0.00362594007 -0.0372647047 -0.0102109704 -0.00086567807 0.00527870376 -0.00101580215 -0.000162598124 -0.0454914235 -0.00663992669 0.0051539503 0.00810259022 -0.00810222141 0.00620757043 -0.000568569987 -0.0113616167 0.00631178124 -0.00045170408 0.00130870892 0.00171785487 -0.0438626483 -0.00825576857 0.00545297377 -0.0303746443 -0.00965990126 0.00172375876 -0.0440340191 -0.00165805861 0.00795420446 -0.0249864981 -0.00157682016 0.00578947039 0.00779509731 -0.00202686619 0.0107795894 -0.00329580181 -0.00809496175 0.0102604739 -0.00312142191 -0.00119497243</float_array>
          <technique_common>
            <accessor source="#positions_array" count="19" stride="3">
              <param name="X" type="float" />
              <param name="Y" type="float" />
              <param name="Z" type="float" />
            </accessor>
          </technique_common>
        </source>
        <source id="normals">
          <float_array id="normals_array" count="123">-0.957295775 -0.244786754 -0.153831854 -0.942746401 -0.287204087 0.169537857 -0.995627046 -0.0930683762 0.00806292426 -0.968460441 0.242325798 -0.0579876043 -0.850866318 0.51419884 -0.107824378 -0.930929124 -0.0783958435 0.356686264 -0.933181763 -0.0139719751 -0.359133124 0.135093629 -0.12419115 0.983018935 -0.215861365 0.193100885 0.957139432 -0.512907326 0.0577577502 0.856498718 -0.634073496 0.773272753 -2.41869602e-05 -0.561367095 -0.823136747 -0.0855152458 -0.437633127 0.899052501 -0.0134858219 -0.230401099 0.183252171 -0.955685079 0.241116345 0.181691796 -0.953336775 0.0964952335 -0.136814371 -0.98588562 0.237099946 0.17042312 0.956420183 0.0548894815 -0.397501051 -0.915958524 0.150269076 -0.0793333948 -0.985456944 0.12352863 -0.193791077 0.973234653 -0.153736711 0.331248015 -0.930934906 0.0265297703 -0.358344972 -0.933212221 -0.0232079998 -0.308361918 0.950985968 0.290983021 -0.0925140306 0.952244759 -0.000916785502 0.374909341 0.927061021 -0.0503626913 -0.673483253 -0.737484872 0.990744948 0.133939743 0.022013275 0.894470394 0.441417664 -0.0712256581 0.905073404 0.42413047 -0.0309098829 0.602410674 0.0562139601 -0.796204388 -0.014817941 -0.958142698 0.285907269 0.555347383 0.0425183624 0.830530822 0.871601105 -0.489258617 -0.0306189209 0.904468298 -0.42637521 -0.0118841222 0.644487858 -0.764341533 -0.0204308424 0.987074375 0.143861651 0.0706260353 0.671266317 0.330878764 -0.663265228 0.65198344 0.319431871 0.687663317 0.970641136 -0.206095964 -0.12401703 0.959862411 -0.247418299 -0.132092014 -0.341381282 0.936244488 0.0830969885</float_array>
          <technique_common>
            <accessor source="#normals_array" count="41" stride="3">
              <param name="X" type="float" />
              <param name="Y" type="float" />
              <param name="Z" type="float" />
            </accessor>
          </technique_common>
        </source>
        <vertices id="vertices">
          <input semantic="POSITION" source="#positions" />
        </vertices>
        <triangles material="scout_1a1a1a" count="34">
          <input semantic="VERTEX" source="#vertices" offset="0" />
          <input semantic="NORMAL" source="#normals" offset="1" />
          <p>0 0 1 1 2 2 3 3 4 4 2 2 5 5 3 3 2 2 4 4 6 6 2 2 6 6 0 0 2 2 1 1 5 5 2 2 5 7 7 8 3 9 3 3 7 10 4 4 0 11 8 11 1 11 9 12 4 4 7 10 4 13 10 14 6 15 11 16 7 8 5 7 12 17 6 15 13 18 14 19 11 16 5 7 4 13 9 20 10 14 0 21 6 15 12 17 1 22 14 19 5 7 15 23 11 16 14 19 16 24 7 8 11 16 8 25 0 21 12 17 17 26 9 27 16 28 17 29 13 18 10 14 14 30 1 30 8 30 15 23 18 31 11 16 12 32 14 33 8 34 18 35 17 26 16 28 17 29 10 14 9 36 18 31 16 37 11 16 18 35 15 38 17 26 15 38 12 32 13 39 15 38 13 39 17 26 12 32 15 38 14 33 16 40 9 12 7 10 6 15 10 14 13 18</p>
        </triangles>
      </mesh>
    </geometry>
  </library_geometries>
  <library_visual_scenes>
    <visual_scene id="scene">
      <node id="link16_L">
        <instance_geometry url="#geometry">
          <bind_material>
            <technique_common>
              <instance_material symbol="scout_1a1a1a" target="#scout_1a1a1a" />
            </technique_common>
          </bind_material>
        </instance_geometry>
      </node>
    </visual_scene>
  </library_visual_scenes>
  <scene>
    <instance_visual_scene url="#scene" />
  </scene>
</COLLADA>