<?xml version='1.0' encoding='utf-8'?>
<COLLADA xmlns="http://www.collada.org/2005/11/COLLADASchema" version="1.4.1">
  <asset>
    <created>2026-09-14T00:00:00Z</created>
    <modified>2026-09-14T00:00:00Z</modified>
    <unit name="metre" meter="1" />
    <up_axis>Z_UP</up_axis>
  </asset>
  <library_effects>
    <effect id="scout_1a1a1a_effect">
      <profile_COMMON>
        <technique sid="common">
          <lambert>
            <emission>
              <color>0 0 0 1</color>
            </emission>
            <ambient>
              <color>0.05 0.05 0.05 1</color>
            </ambient>
            <diffuse>
              <color>0.1 0.1 0.1 1</color>
            </diffuse>
          </lambert>
        </technique>
      </profile_COMMON>
    </effect>
  </library_effects>
  <library_materials>
    <material id="scout_1a1a1a" name="scout_1a1a1a">
      <instance_effect url="#scout_1a1a1a_effect" />
    </material>
  </library_materials>
  <library_geometries>
    <geometry id="geometry" name="link12_R">
      <mesh>
        <source id="positions">
          <float_array id="positions_array" count="69">0.0593531094 0.0245749075 -0.0125283208 0.0545985699 0.0185955446 -0.00273611443 0.0543932542 0.0185427777 -0.013322534 0.0413784198 0.0398437157 -0.013961521 0.0255162697 0.0346451327 -0.00352696585 0.0416211747 0.0399363264 -0.00217979518 -0.00106913398 0.0165225938 -0.00200061942 -0.000728950719 0.0184061173 -0.0073356214 -0.000964694074 0.0176189449 -0.0133604975 0.00294296886 -0.00907737017 0.000250648707 0.0383469313 0.0327411033 0.00185979565 -0.00370418141 -0.00179486943 0.00106486992 0.0591881014 0.0246270671 -0.00329056475 0.0284606498 0.0355103277 -0.0134377033 0.0381914787 0.0306328479 -0.0180053581 -0.00376228546 -0.00210551126 -0.0171694718 0.0437231027 0.0164651051 0.000515534892 0.0446090214 0.0131742256 -0.0156470723 0.00197628816 -0.00879835617 -0.0162588935 0.045619797 0.0109540615 -0.0026086478 0.0374871716 0.00480856607 -0.0117341131 0.0112315295 -0.0109676244 -0.00283941044 0.0101866815 -0.01106703 -0.0136919189</float_array>
          <technique_common>
            <accessor source="#positions_array" count="23" stride="3">
              <param name="X" type="float" />
              <param name="Y" type="float" />
              <param name="Z" type="float" />
            </accessor>
          </technique_common>
        </source>
        <source id="normals">
          <float_array id="normals_array" count="156">0.782533824 -0.622608006 -0.000225970769 0.719600916 -0.694384098 -0.00228899391 0.697118819 -0.713510454 -0.0702005923 -0.314199895 0.94934541 -0.00466132164 -0.439039856 0.897875786 -0.0326043293 -0.312052459 0.950064301 -0.00103819033 -0.988832533 0.148985058 0.00369616528 -0.978055298 0.208050266 0.0110871317 -0.988975465 0.147988364 0.00519009354 0.108796433 -0.18023096 0.977588952 0.0220349096 0.291435212 0.956336737 -0.029773498 0.0132472059 0.999468863 0.657251835 0.753633857 0.00748442719 0.654635608 0.755944431 -0.000428115251 0.650409877 0.759473801 -0.0129074994 0.648184419 0.761237741 -0.0193390306 -0.401096284 0.915193915 -0.0392671824 -0.515127778 0.852496147 -0.0888464823 0.288232028 0.0366949178 0.956857264 0.346712589 0.334255517 0.876392424 0.271335751 0.0417760946 -0.961577713 0.0455668792 0.207916349 -0.977084696 0.0982716531 0.371344835 -0.923279881 -0.218682244 0.398044944 -0.890919924 -0.189770058 0.230328619 -0.954429686 -0.532543302 0.843058825 0.075162895 -0.535415113 0.806550801 0.25061214 -0.273106813 0.494350493 0.825245559 -0.183988124 0.219071925 0.958204508 -0.0294228308 0.0121855354 -0.999492764 0.21117644 -0.202535912 0.956234157 0.31573391 -0.194210514 0.928759575 0.28667894 -0.110423125 -0.951641679 0.338724941 -0.398635209 -0.852264881 -0.98994118 0.141465083 0.00203282502 0.097357519 -0.172470137 -0.980191588 0.284561247 -0.395621747 0.873217225 0.612694979 -0.790319204 -0.000634975731 -0.536513448 -0.843491554 0.0259868037 -0.744043708 -0.667627633 0.0259299334 -0.575041175 -0.818045437 0.0113702584 0.531222522 -0.797454774 -0.286126733 0.242396951 -0.389598072 0.888513982 0.206736937 -0.36672315 -0.907068908 0.510434389 -0.859725177 -0.0181463007 -0.249980032 -0.968215466 0.00829383358 -0.211840063 -0.976863742 0.0293431319 0.504458547 -0.86247766 -0.0406677462 -0.759990096 -0.649794638 0.0134916669 -0.98979342 0.142507717 0.00072622369 0.79646492 -0.604427397 0.0176396556 -0.249508768 0.557912648 0.791504145</float_array>
          <technique_common>
            <accessor source="#normals_array" count="52" stride="3">
              <param name="X" type="float" />
              <param name="Y" type="float" />
              <param name="Z" type="float" />
            </accessor>
          </technique_common>
        </source>
        <vertices id="vertices">
          <input semantic="POSITION" source="#positions" />
        </vertices>
        <triangles material="scout_1a1a1a" count="42">
          <input semantic="VERTEX" source="#vertices" offset="0" />
          <input semantic="NORMAL" source="#normals" offset="1" />
          <p>0 0 1 1 2 2 3 3 4 4 5 5 6 6 7 7 8 8 9 9 10 10 11 11 12 12 0 13 5 14 0 13 3 15 5 14 13 16 8 17 4 4 10 10 12 18 5 19 0 20 14 21 3 22 13 23 3 22 14 21 8 24 13 23 14 21 7 25 6 26 4 4 4 27 6 28 10 10 15 29 8 24 14 21 10 10 16 30 12 18 16 30 1 31 12 18 6 28 11 11 10 10 2 32 17 33 0 20 17 33 14 21 0 20 15 34 6 6 8 8 10 10 9 9 16 30 18 35 14 21 17 33 16 30 19 36 1 31 9 9 19 36 16 30 19 37 2 2 1 1 15 29 14 21 18 35 9 38 11 39 18 40 20 41 2 2 19 37 20 41 17 33 2 2 9 9 21 42 19 36 22 43 17 33 20 41 22 43 18 35 17 33 19 37 21 44 20 41 22 45 9 38 18 40 21 46 9 38 22 45 21 44 22 47 20 41 11 39 15 48 18 40 15 34 11 49 6 6 1 1 0 0 12 50 7 25 4 4 8 17 4 4 3 3 13 16 10 10 5 51 4 27</p>
        </triangles>
      </mesh>
    </geometry>
  </library_geometries>
  <library_visual_scenes>
    <visual_scene id="scene">
      <node id="link12_R">
        <instance_geometry url="#geometry">
          <bind_material>
            <technique_common>
              <instance_material symbol="scout_1a1a1a" target="#scout_1a1a1a" />
            </technique_common>
          </bind_material>
        </instance_geometry>
      </node>
    </visual_scene>
  </library_visual_scenes>
  <scene>
    <instance_visual_scene url="#scene" />
  </scene>
</COLLADA>