<?xml version='1.0' encoding='utf-8'?>
<COLLADA xmlns="http://www.collada.org/2005/11/COLLADASchema" version="1.4.1">
  <asset>
    <created>2026-09-14T00:00:00Z</created>
    <modified>2026-09-14T00:00:00Z</modified>
    <unit name="metre" meter="1" />
    <up_axis>Z_UP</up_axis>
  </asset>
  <library_effects>
    <effect id="scout_1a1a1a_effect">
      <profile_COMMON>
        <technique sid="common">
          <lambert>
            <emission>
              <color>0 0 0 1</color>
            </emission>
            <ambient>
              <color>0.05 0.05 0.05 1</color>
            </ambient>
            <diffuse>
              <color>0.1 0.1 0.1 1</color>
            </diffuse>
          </lambert>
        </technique>
      </profile_COMMON>
    </effect>
  </library_effects>
  <library_materials>
    <material id="scout_1a1a1a" name="scout_1a1a1a">
      <instance_effect url="#scout_1a1a1a_effect" />
    </material>
  </library_materials>
  <library_geometries>
    <geometry id="geometry" name="pelvis">
      <mesh>
        <source id="positions">
          <float_array id="positions_array" count="276">-0.0642857403 -0.0992791802 -0.0296855625 -0.0693907514 -0.110773742 -0.0715998039 -0.0568629839 -0.129889488 -0.0417364202 -0.020771971 -0.150274411 -0.0455656089 0.021473743 -0.150137842 -0.0453135036 0.0266093258 -0.136512235 -0.0401912108 -0.0510690436 -0.100854456 -0.02370671 -0.0501887351 -0.0715741962 -0.00850041024 -0.048600778 0.0478706732 -0.0766522139 -0.0497837365 -0.0726586282 -0.0786203742 -0.0427904315 -0.119339056 -0.0779757947 0.0656632036 0.114960007 -0.0363964885 0.0647516698 0.121877573 -0.0750291646 0.0427248739 0.142729819 -0.0470908843 -0.0462684706 -0.140567243 -0.0749711245 -0.0256418213 -0.136485696 -0.040047951 -0.0433580689 -0.115660958 -0.0220081508 -0.0255936477 -0.133278266 -0.0226737391 -0.0154547011 -0.128220424 -0.0106230183 -0.0379631668 -0.110721834 -0.00989093445 -0.0465579294 -0.0558023304 -0.0788115039 -0.0263558961 -0.0442651473 -0.0775912181 -0.0377732813 -0.0413409285 -0.0810851678 -0.0220259689 -0.0497861989 0.000786380842 -0.0390389264 -0.0340221785 0.00397765636 0.0168083627 -0.153004467 -0.0725337118 -0.000222223316 -0.144400403 -0.0772531256 0.00637431163 -0.138954535 -0.0204141326 0.0560788214 -0.130680576 -0.07516893 0.0686709732 -0.112503834 -0.0728783756 0.0542306229 -0.134563521 -0.0456360243 -0.037693046 0.0186843984 0.00318781286 -0.0567099713 -0.0105719408 0.00399014214 -0.000120983357 -0.0431633852 0.00385325262 -0.0333723165 -0.0177308656 0.00543248374 0.0168454759 -0.050799869 0.00232451665 -0.0576406159 0.0869616196 -0.0762285292 -0.0459611677 0.112842351 -0.0781501532 -0.0433782227 0.0586496964 -0.0787389874 -0.0490139611 0.115779527 -0.0327838957 -0.0656876415 0.111437716 -0.0341491997 -0.0493583009 0.0727642775 -0.00900346413 -0.0461391062 0.142275065 -0.0523249358 -0.0358749479 0.146226928 -0.0743826628 -0.0682488903 0.113946848 -0.0738034174 -0.0298468452 0.0467342176 -0.0777404532 -0.0407480448 0.0430809669 -0.0854613185 -0.0393172726 0.11206723 -0.0125335325 -0.034140233 0.126246423 -0.0207007304 -0.00722810766 0.152681068 -0.0456175618 -0.0143353157 0.130129367 -0.00959245767 -0.0171315428 0.135719016 -0.0779563859 -0.00755221723 0.141920924 -0.0403727442 -0.0124810459 0.137072206 -0.0197168756 0.0479921326 0.109973699 -0.0787500888 0.023486834 0.150400713 -0.0744083375 -0.0572236702 0.0102287214 0.00459944038 -0.0285337884 0.0460108332 0.00527783995 -0.0370891392 0.0438390151 -0.000598133309 -0.000973929418 0.0415277816 0.00398999499 0.0210044943 0.0506453924 0.00544255227 0.0317615867 -0.120854713 -0.00940427929 0.0341338851 -0.126228333 -0.0206963252 0.0589901842 -0.0883903652 -0.0197999477 0.0425449312 -0.111360379 -0.0179003049 0.0488416776 -0.0731071681 -0.00877697486 0.0418618917 -0.0348285399 0.000502074196 0.0530927032 0.0759230852 -0.0105804456 0.0358024836 0.0445215218 -0.000724990154 0.032483533 -0.0447531492 -0.0784809738 0.0438434668 -0.0576732382 -0.0796005875 0.0498426966 -0.102499627 -0.078021884 0.0419042297 -0.0445545353 -0.0857911706 0.0502518937 -0.0521087833 -0.0759045631 0.0643179491 -0.110112175 -0.0330705382 0.0385895446 -0.0178482514 0.00315860659 0.0586579479 -0.00988792814 0.0049791513 0.0296593141 0.0463160016 -0.0780169964 -0.0010475507 0.0340433754 -0.0784761235 0.0210020225 0.136455104 -0.022681484 0.0270507131 0.122667104 -0.0102812229 0.0114297429 0.139158607 -0.07836207 0.0400943235 0.126762927 -0.0373614766 0.0480538681 0.0556007922 -0.078533873 0.0380408242 0.0402225889 -0.0791985765 0.0432647467 0.0601432584 -0.078337051 0.0424297079 0.11420273 -0.0193281472 0.0460457988 0.0848649368 -0.0124918222 0.0270368066 0.0323285349 0.00438671792 0.0556228384 0.0124870604 0.00529533485 -0.00400158158 -0.0312921777 -0.0768669099 0.0252613761 -0.133704171 -0.0781862065</float_array>
          <technique_common>
            <accessor source="#positions_array" count="92" stride="3">
              <param name="X" type="float" />
              <param name="Y" type="float" />
              <param name="Z" type="float" />
            </accessor>
          </technique_common>
        </source>
        <source id="normals">
          <float_array id="normals_array" count="483">-0.966837823 -0.0866756812 0.240233228 -0.95380193 -0.288078189 0.0852812082 -0.789677858 -0.604995131 0.10193029 -0.0375231802 -0.380127758 0.924172521 0.0588042177 -0.370622277 0.926920295 0.140584648 -0.419513464 0.896796763 -0.549530208 -0.391834289 0.737890542 -0.415626824 -0.414626002 0.809530497 -0.19930917 -0.474398494 0.857450843 -0.64931345 -0.335049927 0.682739794 -0.185503751 -0.0142235439 0.982540607 0.747911513 0.656244099 0.0998603404 0.676835001 0.735967696 -0.0156802274 0.536610425 0.843827844 -0.00196087011 -0.238242745 -0.970838845 -0.0266895983 -0.536185741 -0.843969882 -0.0148231173 -0.0973029286 -0.417107344 0.903633535 -0.837408364 -0.468419105 -0.28165713 -0.39708522 -0.915404022 0.0660210922 -0.806896985 -0.560074687 0.187706247 -0.457934141 -0.801946461 0.383638054 -0.178839505 -0.509936631 0.841416121 -0.67993027 -0.502026618 0.534475565 -0.0504448675 -0.0236619748 -0.998446524 0.0976099595 -0.0259655565 -0.994885981 0.0080274418 0.00301384879 -0.999963224 0.0361913703 -0.0746173188 -0.996555269 -0.0457976498 -0.324346155 0.944829166 -0.059187457 -0.138297498 0.988620579 -0.0211808793 -0.19557327 0.980460346 0.0823942125 -0.348952979 -0.933511138 -0.132101402 -0.146781176 -0.980308354 -0.0328330398 -0.348909169 -0.936581254 0.0786591917 -0.916905642 0.391275913 0.685574234 -0.72610265 -0.0525632091 0.958445966 -0.276311934 0.0709443241 0.712940395 -0.701002061 0.0176681783 0.0324776322 -0.0354388617 0.998843968 0.0351938382 0.00453047222 0.999370217 -0.00407503173 -0.156789303 0.987623692 -0.134894922 -0.00427387329 0.990850687 0.0432307459 -0.288904071 0.9563815 0.172971591 -0.984889567 -0.00856712647 -0.305961698 -0.0432022437 -0.951063097 -0.11043413 0.0663314387 -0.991667509 -0.218455374 0.00276102964 -0.975843012 -0.196436778 0.50134778 0.842652321 -0.216570362 0.514560699 0.829653263 -0.194144338 0.475808114 0.857854664 -0.610449493 0.791138113 -0.0381039381 -0.389318645 0.916279018 -0.0941473991 -0.93965596 0.341078877 0.0266812965 -0.0272070449 -0.888187587 0.458674818 0.427462488 0.418270051 -0.801452398 -0.353780985 0.044971738 -0.93424654 -0.574198186 0.329939544 0.749290586 -0.804722607 0.381078869 0.455192715 -0.851946771 0.258550823 0.455344081 -0.569942117 0.592594147 0.569208384 -0.0438251756 0.485632777 0.873063684 -0.290919483 0.615934074 0.732114077 -0.134593695 0.53086704 0.836698711 -0.0447666049 0.998200178 -0.0399047062 -0.101569317 0.183991387 -0.97766602 -0.0322915018 0.148111969 -0.988443255 -0.023607064 0.43860361 0.898370504 -0.490372807 0.870240867 -0.0470667519 -0.204229042 0.911181688 0.357824504 -0.142155632 0.984597743 0.101779252 -0.426379889 0.874180079 -0.23239927 0.154349953 0.0899009109 -0.983917654 0.103019744 0.0470972508 -0.993563652 0.0816526338 0.232661858 -0.969124019 0.0914229751 -0.0450909436 0.994790733 -0.580096245 0.452273726 0.677448809 0.0440283343 -0.103122078 0.993693769 -0.000505503442 -0.0849269331 0.996387064 -0.0899582282 0.969635189 -0.227409571 -0.0111513855 0.715301752 -0.698726714 -0.0730969384 0.934079587 -0.349502802 0.25761795 -0.955210507 0.145622447 0.39157185 -0.431972116 0.812447906 0.662834644 -0.701908469 0.260719568 0.149664491 -0.109379947 -0.982668102 0.201561406 -0.494303912 0.8455984 0.808618903 -0.13614136 0.57236439 0.835690081 -0.548186064 -0.0333787054 0.738323033 -0.414595157 0.531967998 0.246706516 -0.967257023 0.0595801957 0.691262543 -0.0876085609 0.717273235 0.751477838 -0.0101921279 0.659679651 0.542169094 0.195506468 0.817208588 0.243010566 0.16613993 0.955690026 -0.0673156679 -0.0751042068 -0.994901001 -0.257892042 -0.143960327 -0.955388486 0.149029732 -0.00521813752 -0.988818944 -0.550379276 -0.421463668 -0.72072953 0.298253179 -0.0485151298 -0.953253031 0.547014117 -0.0762571841 -0.83364284 0.637329102 -0.249788463 -0.72898376 0.298168093 0.863062143 0.4077003 0.130243078 -0.154357404 0.979392946 0.0485330932 -0.177141353 0.98298806 0.181209221 -0.488975793 0.853267789 0.175066188 -0.481664181 0.858691692 -0.128841385 -0.0569547378 -0.990028322 -0.678619146 0.191523656 -0.70908016 0.00882742926 -0.0772389919 0.996973515 -0.0671445057 -0.0585186221 0.996025681 -0.016078569 -0.0236492883 -0.999590993 -0.0301369019 0.0611499585 -0.997673512 -0.0155101642 0.0179215241 -0.999719083 0.195725828 0.942195714 0.271953315 0.0968850479 0.717622936 0.689659774 0.00366619648 0.198908001 -0.980011284 0.176025584 0.49183023 0.852712154 0.148141101 0.496700406 0.855185926 0.196013913 0.49388954 0.847143233 0.125927582 -0.00155758741 -0.99203819 0.0165868923 0.0285875089 -0.999453664 -0.028041888 -0.00245898566 -0.999603748 0.631261468 0.454900503 0.628151596 0.626867473 0.560188174 0.541503847 0.589836657 0.251511693 0.767355561 0.626882732 0.664859176 0.406177759 0.635432065 0.669781387 0.384212196 0.252643317 0.967196286 -0.0265084282 0.992552996 0.110286415 -0.0517250635 0.211814329 0.302730948 0.929240882 0.993809104 0.0112331677 0.11053177 0.974743009 -0.149197951 0.166180715 0.243206486 -0.0142365675 -0.969870031 -0.0404500365 -0.0899572894 0.995123863 -0.0443734266 -0.0484964252 0.997837186 0.495349437 0.446520716 0.745149732 -0.0667797029 -0.0389992371 0.997005284 -0.236991674 -0.0236489512 -0.971223831 -0.195726097 0.0602606982 -0.978805363 -0.00453029014 0.0132211521 -0.999902308 -0.824437082 0.0111582605 0.565843582 -0.797397852 0.00669077318 0.6034168 -0.963808596 0.19880195 0.177625343 -0.0722922236 0.0404859893 -0.996561468 0.0717097297 -0.191799715 -0.978810787 -0.57268393 0.0088742571 0.819728196 -0.107701145 -0.0449126847 -0.993168294 -0.28277868 0.0211063754 -0.958952963 -0.156111389 -0.0269668773 -0.987371266 0.308419555 0.9274984 -0.211244181 -0.00381548889 -0.0350435153 0.999378502 0.256785184 0.0231972337 -0.9661901 0.303034574 0.00840435363 -0.952942491 0.287022531 0.0135561042 -0.957827926 -0.0758221895 -0.0566061288 -0.99551332 -0.0129580591 0.156917796 0.987526655 0.999650657 0.0165267717 -0.0206273682 0.0328772999 -0.0247570481 0.99915272 -0.81986779 0.0540289581 0.569998026 0.200091854 0.0409751348 -0.978919983 0.00480277138 0.284746677 0.958590746 -0.00779843796 0.700175345 -0.713928342</float_array>
          <technique_common>
            <accessor source="#normals_array" count="161" stride="3">
              <param name="X" type="float" />
              <param name="Y" type="float" />
              <param name="Z" type="float" />
            </accessor>
          </technique_common>
        </source>
        <vertices id="vertices">
          <input semantic="POSITION" source="#positions" />
        </vertices>
        <triangles material="scout_1a1a1a" count="180">
          <input semantic="VERTEX" source="#vertices" offset="0" />
          <input semantic="NORMAL" source="#normals" offset="1" />
          <p>0 0 1 1 2 2 3 3 4 4 5 5 6 6 0 7 2 8 7 9 0 7 6 6 8 10 9 10 10 10 11 11 12 12 13 13 3 14 2 2 14 15 15 16 2 8 3 3 6 6 2 8 15 16 6 17 15 18 16 19 17 20 16 19 15 18 18 21 16 19 17 20 19 22 16 19 18 21 6 6 16 19 19 22 7 9 6 6 19 22 20 23 21 24 9 25 21 24 20 23 22 26 23 27 24 28 7 29 25 30 14 31 26 32 5 5 15 16 3 3 18 21 17 20 27 33 28 34 29 35 30 36 31 37 32 38 24 28 33 39 24 28 23 27 34 40 24 28 33 39 33 39 23 27 35 41 3 14 14 15 25 42 36 43 37 44 38 45 39 46 40 47 41 48 42 49 43 50 44 51 45 52 8 52 46 52 38 53 45 53 46 53 36 43 38 45 8 54 47 55 39 56 41 57 48 58 39 56 47 55 49 59 42 60 40 47 47 55 50 61 48 58 43 50 42 49 49 62 43 63 51 64 37 44 49 59 40 47 39 46 52 65 49 59 39 46 39 66 53 67 52 68 48 69 53 67 39 66 12 70 54 71 55 72 50 61 53 67 48 58 43 63 55 72 51 64 31 37 56 73 32 38 57 74 58 74 56 74 57 75 56 73 31 37 2 2 1 1 14 15 57 75 31 37 59 76 57 77 60 78 58 79 5 80 27 33 15 18 61 81 18 21 27 33 61 81 27 33 62 82 62 82 27 33 5 80 28 83 25 30 26 32 30 36 25 42 28 34 30 84 5 5 4 4 63 85 62 82 5 86 61 81 62 82 64 87 30 36 4 88 25 42 65 89 61 81 64 87 66 90 67 91 68 92 69 93 70 94 71 95 69 93 72 96 70 94 73 97 70 98 72 99 73 100 72 100 69 100 66 101 35 41 65 102 74 103 5 5 30 84 63 85 64 87 62 82 63 85 65 89 64 87 74 103 63 104 5 5 73 97 71 95 70 98 26 32 14 31 10 105 46 106 8 54 38 45 35 41 75 107 33 39 66 101 75 107 35 41 76 108 75 107 66 101 45 109 77 110 78 111 79 112 53 67 80 113 50 61 80 113 53 67 55 72 81 114 51 64 49 59 52 65 82 115 55 72 54 71 81 114 13 116 49 59 82 115 13 116 82 115 11 117 77 110 83 118 84 119 85 120 83 118 77 110 86 121 80 122 87 123 86 121 79 124 80 122 79 124 86 121 82 125 13 13 12 12 55 126 54 71 83 118 85 120 82 127 86 127 87 127 82 115 87 128 67 91 82 115 67 91 11 117 29 35 11 129 74 130 7 29 65 102 23 27 73 97 12 70 29 131 60 132 57 75 59 76 60 132 59 76 88 133 68 134 60 134 89 134 60 132 88 133 89 135 89 135 75 107 76 108 1 136 44 137 8 54 34 40 31 37 24 28 27 33 17 20 15 18 69 93 21 24 90 138 7 139 41 140 40 141 10 105 14 31 1 136 1 136 8 54 10 105 8 54 44 137 36 43 44 137 43 63 37 44 36 43 44 137 37 44 8 142 20 23 9 25 21 24 22 26 45 109 8 142 22 26 20 23 90 138 21 24 78 111 22 26 8 142 45 109 21 24 45 109 78 111 69 93 90 138 78 111 73 97 69 93 84 119 69 93 78 111 84 119 78 111 77 110 84 119 84 119 83 118 73 97 91 143 71 95 28 83 28 83 71 95 29 131 73 97 29 131 71 95 12 70 83 118 54 71 67 91 63 85 74 130 41 140 7 139 58 144 25 42 4 88 3 14 32 145 56 146 58 147 69 93 71 95 21 24 9 25 91 143 10 105 21 24 71 95 9 25 9 25 71 95 91 143 40 141 0 0 7 139 43 50 49 62 55 126 42 49 44 51 40 141 52 68 79 112 82 148 65 102 7 29 19 149 61 81 19 149 18 21 66 150 68 151 89 152 23 27 65 102 35 41 1 1 40 141 44 51 24 153 32 145 58 147 10 105 91 143 26 32 55 126 49 62 13 13 67 91 66 90 65 89 87 128 41 154 67 91 81 114 54 71 51 64 51 64 54 71 85 120 51 64 85 120 37 44 37 44 85 120 77 110 37 44 77 110 38 45 38 45 77 110 45 109 29 35 74 130 30 36 29 35 12 155 11 129 26 32 91 143 28 83 75 107 88 133 33 39 88 133 34 40 33 39 59 76 31 37 34 40 59 76 34 40 88 133 79 112 52 68 53 67 40 141 1 1 0 0 41 154 50 61 47 55 50 61 41 154 80 156 67 91 65 89 63 85 19 149 61 81 65 102 58 144 7 139 24 157 76 158 66 150 89 152 67 91 41 154 58 159 58 159 68 92 67 91 74 130 11 129 67 91 58 79 60 78 68 160 73 97 83 118 12 70 87 128 80 156 41 154 75 107 89 135 88 133</p>
        </triangles>
      </mesh>
    </geometry>
  </library_geometries>
  <library_visual_scenes>
    <visual_scene id="scene">
      <node id="pelvis">
        <instance_geometry url="#geometry">
          <bind_material>
            <technique_common>
              <instance_material symbol="scout_1a1a1a" target="#scout_1a1a1a" />
            </technique_common>
          </bind_material>
        </instance_geometry>
      </node>
    </visual_scene>
  </library_visual_scenes>
  <scene>
    <instance_visual_scene url="#scene" />
  </scene>
</COLLADA>