<?xml version='1.0' encoding='utf-8'?>
<COLLADA xmlns="http://www.collada.org/2005/11/COLLADASchema" version="1.4.1">
  <asset>
    <created>2026-09-14T00:00:00Z</created>
    <modified>2026-09-14T00:00:00Z</modified>
    <unit name="metre" meter="1" />
    <up_axis>Z_UP</up_axis>
  </asset>
  <library_effects>
    <effect id="scout_1a1a1a_effect">
      <profile_COMMON>
        <technique sid="common">
          <lambert>
            <emission>
              <color>0 0 0 1</color>
            </emission>
            <ambient>
              <color>0.05 0.05 0.05 1</color>
            </ambient>
            <diffuse>
              <color>0.1 0.1 0.1 1</color>
            </diffuse>
          </lambert>
        </technique>
      </profile_COMMON>
    </effect>
  </library_effects>
  <library_materials>
    <material id="scout_1a1a1a" name="scout_1a1a1a">
      <instance_effect url="#scout_1a1a1a_effect" />
    </material>
  </library_materials>
  <library_geometries>
    <geometry id="geometry" name="R_hand_base_link">
      <mesh>
        <source id="positions">
          <float_array id="positions_array" count="192">-0.00960978679 -0.0773438662 0.0411460735 -0.00588463852 -0.125072822 0.0421741493 0.00434992323 -0.119932361 0.0427386314 -0.00912803318 -0.121257924 0.0411492325 0.0119439065 -0.132505655 0.0344734453 0.00143826636 -0.139146432 0.0358782336 0.0118580619 -0.135461852 0.0101577993 -0.0211794991 -0.0670887902 0.0324630514 -0.0163962636 -0.0719865113 0.0376883149 0.00907287374 -0.126542225 0.0417163447 0.00835837796 -0.0839685649 0.0390106998 0.00522022881 -0.0627409965 0.0380303599 -0.0104351137 -0.0565422736 0.0385951474 -0.0180801656 -0.056208346 0.0348690785 0.0112055931 -0.127907664 0.0401340276 0.00881965924 -2.86392385e-08 0.0246009436 -0.00461433874 -1.63270624e-06 0.026071623 -0.0171663612 -4.04360947e-07 0.0197031125 0.0189949684 -4.67723112e-05 0.0186158866 -0.0250195637 -5.9777889e-05 0.00914716069 0.0258582532 1.28217732e-06 -0.00477308873 0.0055300761 1.96665792e-06 -0.0257354379 -0.011328402 -0.122680344 0.035652943 -0.0067514223 -0.135479853 0.0354648121 -0.00354030123 -0.138417259 0.0357854068 -0.022581378 -0.0706485286 0.0276891459 -0.0125674866 -0.124578372 0.0108216079 -0.0036281494 -0.140869558 0.00242062844 -0.00657383492 -0.138104364 0.00291230297 -0.00564940227 -0.139442459 -0.0301055666 0.0139192026 -0.127269909 0.0364817046 0.0272691082 -0.00764752086 0.00529683987 0.0146788163 -0.129048541 0.0325186364 0.0251242761 5.50943014e-07 0.00712087797 -0.0246875919 -0.068710722 -0.00530610932 0.00121952477 -0.141550586 0.00384154241 0.0154197542 -0.130821303 0.00338674895 -0.0276910588 -0.0101508694 -0.00102226133 0.0274146441 -0.0171972588 -0.00224885717 -0.0258582309 1.41042995e-06 -0.00477308454 -0.0116967456 -0.124657638 -0.0320522934 -0.0212438274 -0.0625182465 -0.0223095901 0.0117557961 -0.135681376 -0.0275422037 0.0140714059 -0.131664813 -0.028216118 -0.0260387473 -0.00769501412 -0.00872225501 -0.0103054876 -0.12374606 -0.0368443094 0.00131600618 -0.141085058 -0.0304237306 0.0260739308 -0.00872058328 -0.00902609434 -0.00745694805 -0.12721388 -0.0380094312 -0.0103967031 -0.109735295 -0.0375992097 -0.0204556696 -9.45775391e-05 -0.0167234764 -0.015143496 -0.0513468273 -0.0298291072 -0.00970180053 -0.0683817118 -0.0368634872 0.011395283 -0.133266345 -0.0325635821 0.00907244906 -0.129402936 -0.0370520242 0.0180916004 -5.17993703e-06 -0.0194020551 0.0135280788 -0.127170593 -0.0325694829 0.0209107958 -0.00859244447 -0.0180225838 -0.0113107935 -2.56544308e-06 -0.0238596536 0.0122317709 -0.0967618003 -0.0350355841 0.0101224435 -0.0687711164 -0.034767516 -0.00255259359 -0.0671088994 -0.0381651521 0.00618225196 -0.123670198 -0.0386534892 0.00655167643 -0.0675888881 -0.0364202186</float_array>
          <technique_common>
            <accessor source="#positions_array" count="64" stride="3">
              <param name="X" type="float" />
              <param name="Y" type="float" />
              <param name="Z" type="float" />
            </accessor>
          </technique_common>
        </source>
        <source id="normals">
          <float_array id="normals_array" count="246">-0.174856886 0.0570751466 0.98293817 -0.314062953 -0.267215133 0.911021709 0.112607732 -0.00401113043 0.993631423 -0.664769948 -0.152224749 0.731374383 0.669707179 -0.668620408 0.323170424 0.272600144 -0.707380414 0.652151883 0.666718483 -0.743829131 0.0469544642 -0.870063066 0.00375482999 0.49292618 -0.597792268 0.0183283798 0.801441491 0.319025367 -0.20698981 0.924866498 0.507164955 0.0771720409 0.858386993 0.336090595 0.138042092 0.931658447 -0.173948109 0.177998781 0.968534172 -0.651170373 0.156021848 0.742720902 0.612242758 -0.315756798 0.724883735 0.32521683 0.180049419 0.928340554 -0.161401585 0.229814053 0.959757805 -0.648131073 0.208184734 0.732519746 0.731671095 0.103594266 0.673740029 0.000605716195 0.999999762 -0.00026206646 -0.000800585141 0.999999583 0.000485368975 -0.000429222477 0.999999523 0.000908304006 -0.934523284 -0.252664357 0.250653058 -0.755079389 -0.531995475 0.383191764 -0.208567247 -0.451890469 0.867349207 -0.973146617 -0.105362222 0.204656973 -0.951844573 -0.30561465 0.0243239403 -0.426778972 -0.903948486 0.0271448772 -0.813049138 -0.581863225 0.0196536556 -0.694794893 -0.714724779 -0.080177851 0.877306223 -0.188754141 0.441254586 -0.932106256 0.129152194 0.338374972 0.971591651 0.0866751 0.220220685 0.926722586 -0.337465256 0.165234581 0.933160722 0.188733935 0.305925757 -0.99079746 -0.111606196 -0.0765793845 0.482051939 -0.875860155 0.0222462155 0.932531714 -0.361056894 0.00474771811 -0.998870969 0.0474496596 -0.00231796014 0.996863246 -0.0358746648 -0.0705456585 -0.966878533 0.190611348 -0.169744417 0.964388907 0.176026493 -0.197405025 -0.942390919 -0.275986522 -0.189025939 -0.906122744 -0.0223448649 -0.422424316 0.676361024 -0.717043817 -0.168475464 0.928025723 -0.320510447 -0.189845517 -0.931463003 0.0856969282 -0.353599668 -0.756495237 -0.187311813 -0.626601338 0.228145078 -0.774791062 -0.589617372 0.940497518 0.0934475809 -0.326698542 -0.741343677 -0.438155204 -0.508359671 -0.540189922 -0.0124777034 -0.841450632 -0.769995928 0.130408973 -0.624579728 -0.717133999 0.0870442837 -0.691478193 -0.49575904 0.0671356171 -0.865861297 -0.221502066 -0.974787533 -0.0269471947 0.640404403 -0.538847029 -0.547289789 0.408450544 -0.318526238 -0.855400026 0.669526339 0.173125789 -0.722330868 0.871976018 -0.121311642 -0.474279791 -0.147203475 -0.986401856 0.0730926171 -0.427226335 -0.901629388 0.0673947558 0.786258757 0.103132188 -0.609229803 -0.110013388 -0.219595447 -0.969368279 -0.167588234 -0.55250293 -0.816489279 -0.389397264 0.16910392 -0.905413508 0.67869097 0.0181603003 -0.734199405 0.578856528 0.0760735422 -0.811873138 -0.00843663793 0.1044254 -0.994496942 0.209821329 -0.0717407688 -0.975104213 0.319440067 0.0990048796 -0.942420304 0.189965129 0.175092816 -0.966051638 -0.00200947397 0.999997973 -0.000161739037 -0.0252174642 0.999493182 -0.0194284953 0.00296824053 0.999993503 0.00205403357 -0.00119717361 0.999950826 -0.00984502025 0.00157153781 0.999997616 0.00150992791 -0.000185793921 0.999998033 -0.00197283598 -0.00860059261 0.999962926 -0.000469265564 0.00474104378 0.999946892 -0.00915149599 0.00108100614 0.999998927 -0.00101564976 -0.150078073 -0.987923682 0.0385143608</float_array>
          <technique_common>
            <accessor source="#normals_array" count="82" stride="3">
              <param name="X" type="float" />
              <param name="Y" type="float" />
              <param name="Z" type="float" />
            </accessor>
          </technique_common>
        </source>
        <vertices id="vertices">
          <input semantic="POSITION" source="#positions" />
        </vertices>
        <triangles material="scout_1a1a1a" count="124">
          <input semantic="VERTEX" source="#vertices" offset="0" />
          <input semantic="NORMAL" source="#normals" offset="1" />
          <p>0 0 1 1 2 2 3 3 1 1 0 0 4 4 5 5 6 6 7 7 3 3 8 8 1 1 9 9 2 2 10 10 11 11 2 2 8 8 3 3 0 0 10 10 2 2 9 9 12 12 8 8 0 0 12 12 13 13 8 8 14 14 10 10 9 9 15 15 16 16 11 11 16 16 12 12 11 11 1 1 5 5 9 9 12 12 16 16 13 13 16 16 17 17 13 13 18 18 11 11 10 10 19 19 20 20 21 21 7 7 22 22 3 3 22 22 23 23 3 3 23 23 1 1 3 3 23 23 24 24 1 1 24 24 5 5 1 1 13 13 7 7 8 8 5 5 14 14 9 9 25 25 22 22 7 7 22 22 26 26 23 23 27 27 28 28 29 29 30 30 18 18 14 14 18 18 10 10 14 14 19 31 13 13 17 17 30 30 31 32 18 18 19 31 7 7 13 13 6 6 32 33 4 4 4 4 14 14 5 5 4 4 30 30 14 14 33 34 18 18 31 32 26 26 28 28 23 23 25 25 26 26 22 22 25 25 34 35 26 26 27 27 23 23 28 28 35 36 6 6 5 5 36 37 32 33 6 6 32 33 31 32 30 30 19 31 37 38 25 25 37 38 34 35 25 25 7 7 19 31 25 25 32 33 30 30 4 4 38 39 31 32 32 33 39 40 37 38 19 31 20 41 33 34 31 32 40 42 29 29 26 26 29 29 28 28 26 26 41 43 40 42 34 35 40 42 26 26 34 35 6 6 42 44 36 37 42 44 43 45 36 37 36 37 38 39 32 33 39 40 44 46 37 38 37 38 41 43 34 35 45 47 40 42 41 43 46 48 42 44 35 36 42 44 6 6 35 36 47 49 20 41 31 32 38 39 47 49 31 32 36 37 43 45 38 39 37 38 44 46 41 43 40 42 45 47 29 29 45 47 48 50 29 29 49 51 45 47 41 43 44 46 50 52 41 43 50 52 51 53 41 43 51 53 52 54 41 43 52 54 49 51 41 43 46 55 27 27 29 29 42 44 53 56 43 45 53 56 42 44 46 48 54 57 53 56 46 48 50 52 44 46 39 40 47 49 55 58 20 41 43 45 56 59 38 39 27 27 5 60 24 61 53 56 56 59 43 45 57 62 55 58 47 49 56 59 47 49 38 39 48 63 46 48 29 64 58 65 51 53 50 52 46 48 48 63 54 57 54 57 56 59 53 56 47 49 59 66 57 62 59 66 60 67 57 62 56 59 59 66 47 49 61 68 48 63 49 51 48 63 45 47 49 51 52 54 61 68 49 51 52 54 51 53 58 65 48 63 62 69 54 57 62 69 59 66 54 57 59 66 56 59 54 57 60 67 63 70 55 58 63 70 21 71 55 58 59 66 63 70 60 67 62 69 48 63 61 68 21 71 61 68 58 65 61 68 52 54 58 65 62 69 63 70 59 66 63 70 62 69 61 68 63 70 61 68 21 71 11 11 0 0 2 2 60 67 55 58 57 62 58 72 50 73 39 74 15 75 18 76 16 77 33 78 20 20 18 76 19 19 17 79 16 77 58 72 39 74 19 19 16 77 18 76 20 20 20 20 55 80 21 21 21 21 58 72 19 19 19 19 16 77 20 20 27 27 24 61 23 23 12 12 0 0 11 11 46 55 35 81 27 27 27 27 35 81 5 60 15 15 11 11 18 18</p>
        </triangles>
      </mesh>
    </geometry>
  </library_geometries>
  <library_visual_scenes>
    <visual_scene id="scene">
      <node id="R_hand_base_link">
        <instance_geometry url="#geometry">
          <bind_material>
            <technique_common>
              <instance_material symbol="scout_1a1a1a" target="#scout_1a1a1a" />
            </technique_common>
          </bind_material>
        </instance_geometry>
      </node>
    </visual_scene>
  </library_visual_scenes>
  <scene>
    <instance_visual_scene url="#scene" />
  </scene>
</COLLADA>