<?xml version='1.0' encoding='utf-8'?>
<COLLADA xmlns="http://www.collada.org/2005/11/COLLADASchema" version="1.4.1">
  <asset>
    <created>2026-09-14T00:00:00Z</created>
    <modified>2026-09-14T00:00:00Z</modified>
    <unit name="metre" meter="1" />
    <up_axis>Z_UP</up_axis>
  </asset>
  <library_effects>
    <effect id="scout_1a1a1a_effect">
      <profile_COMMON>
        <technique sid="common">
          <lambert>
            <emission>
              <color>0 0 0 1</color>
            </emission>
            <ambient>
              <color>0.05 0.05 0.05 1</color>
            </ambient>
            <diffuse>
              <color>0.1 0.1 0.1 1</color>
            </diffuse>
          </lambert>
        </technique>
      </profile_COMMON>
    </effect>
  </library_effects>
  <library_materials>
    <material id="scout_1a1a1a" name="scout_1a1a1a">
      <instance_effect url="#scout_1a1a1a_effect" />
    </material>
  </library_materials>
  <library_geometries>
    <geometry id="geometry" name="right_elbow_roll_link">
      <mesh>
        <source id="positions">
          <float_array id="positions_array" count="105">0.00033391465 -0.0348603837 -0.00562969176 -0.00242353394 -0.0156567004 -0.0280243903 0.0532510839 -0.0367477089 -0.0367224924 0.058592353 -0.0226958711 -0.0275995973 0.0724415705 0.0159898158 -0.00749915047 0.0706794485 -0.026453875 0.000635303557 0.0851266682 -0.0350420885 -0.0172750931 0.0819385797 -0.0334279649 0.00140273536 0.103273004 -0.032238815 -0.00339063746 0.0874928832 -0.0328215882 0.00175506226 0.0861452594 -0.0327812657 -0.00301858387 0.0546342395 0.0154147139 0.0292336773 0.0595967732 -0.02696779 0.0292200912 0.051072672 -0.0365393534 0.0359208137 -0.00370129012 0.0350733139 0.000616604055 0.0254893713 0.0349875316 -0.0276580844 0.00136910751 0.0169154629 -0.0302832741 0.0969818905 0.0333875082 -0.0108264005 0.0975899324 0.0349744707 -0.00846338179 0.0977284089 0.032846164 0.00932321511 0.0248782225 -0.0263194907 -0.0192892253 0.0185166467 -0.0317717008 0.0137003334 0.0531500876 0.0334465094 0.0347681232 0.0254422277 0.0369657576 0.0188746415 0.0872373804 0.0329840928 0.00224728324 0.0732589886 0.0311066099 -0.00963777769 0.0616261624 0.0337125845 0.0261353441 -0.00301085436 -0.0210289638 0.0259420294 0.00107413204 0.0155686373 0.0306938644 0.0816989243 0.0331775583 0.000287250761 0.0559473522 0.0318848863 -0.0317212865 0.0290815458 -0.0251678079 0.0161190517 0.0487703308 -0.0246524848 0.011324726 0.0484921597 -0.024751721 -0.0109888632 0.0320004486 -0.0235324521 -0.00566151645</float_array>
          <technique_common>
            <accessor source="#positions_array" count="35" stride="3">
              <param name="X" type="float" />
              <param name="Y" type="float" />
              <param name="Z" type="float" />
            </accessor>
          </technique_common>
        </source>
        <source id="normals">
          <float_array id="normals_array" count="273">-0.36634776 -0.728155136 -0.579292238 0.785679102 0.0866809264 -0.612531483 0.834086835 -0.0669786781 -0.547551811 0.907564819 -0.115075581 -0.40383625 0.0328160934 -0.99525404 0.0916106328 0.112104401 -0.993156016 0.0327675939 0.0183869582 -0.999655902 0.0187080353 0.656111598 0.235287309 -0.717047691 0.466878563 0.449636728 -0.761479616 0.276862055 0.805192411 -0.524416387 -0.612278938 -0.772950351 0.166319743 0.914199293 0.0788154975 0.397527099 0.906129897 -0.000374541152 0.422999442 0.926229119 0.108335592 0.361058205 0.600049913 0.0253599267 0.799560487 -0.483296961 0.71783793 -0.501131475 0.95280236 -0.300477028 -0.0433730297 0.0426491052 0.989606142 0.137334362 -0.0691141561 0.986315727 0.149681434 -0.119508483 0.987674356 0.101079471 -0.506063461 -0.229067922 0.831521273 0.904658377 0.0172296166 0.425789177 -0.158353388 0.986916244 0.0303411148 0.0653547868 0.996400535 0.0539876744 0.0695235878 0.99267 0.0988571197 0.0782915428 0.990029156 0.117101096 -0.984339774 -0.17403768 -0.0280377846 -0.998654485 -0.0297643133 0.0424648337 -0.997190118 -0.0296403486 -0.0687989146 -0.971239269 0.0980413705 -0.216984317 -0.999148607 0.0410980396 -0.00361249805 -0.97473985 0.0818163455 0.207817957 0.0808571428 -0.994987726 0.0588350184 0.132727847 -0.98677671 0.0930324495 0.152993977 -0.985338926 0.0754988492 -0.093306236 0.995026231 0.0348823182 0.0420982093 0.998739362 -0.0273388587 -0.0226036478 0.999740303 0.00289229723 -0.103979051 0.0611013696 -0.992700875 -0.0913312584 0.0311334729 -0.995333791 -0.171981975 -0.0482097268 -0.98391974 0.817693532 -0.0387992337 -0.574344814 -0.0592526086 0.120845161 -0.990901411 -0.0999198928 0.27237466 -0.95698905 0.283171296 -0.950156689 0.130446374 0.0501398407 0.998370767 -0.0272353329 0.269181222 0.766035855 -0.58372128 0.0786323845 0.989914596 0.117838882 0.367725343 -0.261426955 -0.892431498 -0.0693508238 -0.996114016 -0.0542891361 -0.0493876971 -0.996826947 -0.0624246709 -0.00548394676 -0.999624848 -0.0268350262 0.195228934 -0.979641736 0.0467729196 0.146797523 -0.988310993 0.0411320999 0.0331283696 0.999438405 0.00503965793 -0.0560105145 -0.994200528 0.0918050036 -0.317472667 -0.880475938 0.352098346 -0.170667142 -0.970695436 0.169183686 0.0530319288 0.997693956 -0.0423608348 0.911091387 0.00903564412 0.412105352 0.90225625 -0.0419982076 0.429150045 -0.651505589 -0.317942441 -0.68880558 0.117366828 0.992649257 -0.0295376871 0.0199192446 0.964348137 0.263886064 0.11720103 -0.991990387 0.0471065305 -0.185358077 0.978437304 -0.0911196247 0.535637498 -0.843674123 -0.0361444354 0.242270842 -0.967856705 -0.0675150529 0.778213084 -0.129030988 -0.614601791 -0.00705744373 -0.0788746029 0.99685955 -0.002178967 -0.16338706 0.986559629 0.0264460258 -0.159453079 0.986851215 0.0106686335 0.567072272 0.823598921 0.0252327621 -0.291425526 0.956260681 -0.0529024228 -0.00651439978 0.998578429 -0.0201048348 -0.999797404 -0.00100273266 0.0409150571 -0.998293638 0.0416627117 -0.0587416887 -0.995976686 0.0676745027 -0.40546748 -0.700307786 0.587507546 0.093148157 -0.994436502 -0.0491877273 0.0941619948 -0.995098054 -0.030223025 0.091022782 -0.992040515 -0.087008439 0.0899387449 -0.990353703 -0.105406642 -0.309131026 0.7747733 0.55151093 -0.0382149071 0.998366117 -0.0424817391 0.0247081462 0.999362171 0.0257830005 -0.0635292158 0.993596673 0.0934327692 -0.103061698 0.967639506 -0.230330244 0.108083405 -0.994116902 0.00703982776 -0.0683208779 -0.993840873 -0.0872500688 0.0358111486 -0.9942137 -0.101275362</float_array>
          <technique_common>
            <accessor source="#normals_array" count="91" stride="3">
              <param name="X" type="float" />
              <param name="Y" type="float" />
              <param name="Z" type="float" />
            </accessor>
          </technique_common>
        </source>
        <vertices id="vertices">
          <input semantic="POSITION" source="#positions" />
        </vertices>
        <triangles material="scout_1a1a1a" count="74">
          <input semantic="VERTEX" source="#vertices" offset="0" />
          <input semantic="NORMAL" source="#normals" offset="1" />
          <p>0 0 1 0 2 0 3 1 4 2 5 3 6 4 7 5 2 6 2 7 8 8 6 9 6 10 9 10 10 10 5 11 11 12 12 13 8 14 12 14 13 14 14 15 15 15 16 15 17 16 18 16 19 16 3 17 20 18 21 19 22 20 23 20 14 20 4 21 11 12 5 11 24 22 18 22 25 22 26 23 22 24 19 25 0 26 27 27 1 28 16 29 1 28 14 30 14 30 27 27 28 31 29 32 25 33 18 34 18 35 30 36 29 37 14 30 1 28 27 27 16 38 2 39 1 40 30 41 3 1 2 7 2 39 16 38 30 42 16 38 15 43 30 42 7 5 6 4 10 44 23 45 22 24 26 23 26 23 29 37 30 36 30 46 18 46 17 46 26 23 19 25 18 47 12 48 21 48 31 48 5 49 32 50 33 51 20 52 33 51 34 53 24 54 29 37 26 23 13 55 27 56 0 57 30 36 15 58 23 45 26 23 30 36 23 45 4 21 25 59 22 60 26 61 18 61 24 61 7 62 10 63 3 17 13 64 6 64 8 64 6 65 13 65 9 65 30 41 4 2 3 1 21 66 20 52 31 67 30 41 25 68 4 2 20 52 34 53 31 67 27 69 11 70 28 71 27 72 13 72 12 72 22 73 28 71 11 70 27 69 12 74 11 70 31 67 34 53 32 50 33 51 32 50 34 53 2 6 13 55 0 57 7 5 13 55 2 6 19 75 22 76 29 32 24 77 19 75 29 32 19 78 24 78 25 78 22 76 25 33 29 32 17 79 19 80 25 81 30 82 17 79 25 81 22 83 14 83 28 83 14 84 23 45 15 58 12 85 8 86 9 87 9 87 8 86 10 63 3 17 10 63 8 86 9 87 7 62 12 85 12 85 7 62 3 17 21 19 12 85 3 17 8 8 2 7 3 1 9 88 13 55 7 5 31 67 32 50 12 89 12 89 32 50 5 49 20 52 3 90 33 51 3 90 5 49 33 51 4 21 22 60 11 12</p>
        </triangles>
      </mesh>
    </geometry>
  </library_geometries>
  <library_visual_scenes>
    <visual_scene id="scene">
      <node id="right_elbow_roll_link">
        <instance_geometry url="#geometry">
          <bind_material>
            <technique_common>
              <instance_material symbol="scout_1a1a1a" target="#scout_1a1a1a" />
            </technique_common>
          </bind_material>
        </instance_geometry>
      </node>
    </visual_scene>
  </library_visual_scenes>
  <scene>
    <instance_visual_scene url="#scene" />
  </scene>
</COLLADA>