<?xml version='1.0' encoding='utf-8'?>
<COLLADA xmlns="http://www.collada.org/2005/11/COLLADASchema" version="1.4.1">
  <asset>
    <created>2026-09-14T00:00:00Z</created>
    <modified>2026-09-14T00:00:00Z</modified>
    <unit name="metre" meter="1" />
    <up_axis>Z_UP</up_axis>
  </asset>
  <library_effects>
    <effect id="scout_1a1a1a_effect">
      <profile_COMMON>
        <technique sid="common">
          <lambert>
            <emission>
              <color>0 0 0 1</color>
            </emission>
            <ambient>
              <color>0.05 0.05 0.05 1</color>
            </ambient>
            <diffuse>
              <color>0.1 0.1 0.1 1</color>
            </diffuse>
          </lambert>
        </technique>
      </profile_COMMON>
    </effect>
  </library_effects>
  <library_materials>
    <material id="scout_1a1a1a" name="scout_1a1a1a">
      <instance_effect url="#scout_1a1a1a_effect" />
    </material>
  </library_materials>
  <library_geometries>
    <geometry id="geometry" name="right_wrist_pitch_link">
      <mesh>
        <source id="positions">
          <float_array id="positions_array" count="96">0.00497319875 -0.0279290918 0.00438843714 -0.00312250736 -0.0206156541 0.00843228493 -0.00154170347 -0.034453053 -3.68203473e-05 0.0405396074 -0.0253151339 0.029838901 0.0130111463 -0.0314689539 -0.00984975137 0.0392697789 -0.0267108623 -0.00978517812 0.00583809614 0.0307245106 -0.0217609797 0.00805627462 0.0226514582 -0.0260590967 0.00720481807 -0.0234278832 -0.0235700086 -0.00153847726 -0.022696808 -0.00844222307 -0.000331629883 -0.0297131855 -0.0162020773 0.00201119203 -0.0291899294 0.0157865603 0.054071743 0.00182732265 -0.0214936621 0.0527058281 0.0104374634 -0.00951630156 0.033185944 -0.0321305953 -0.0216205847 0.000877377344 0.0286719389 0.00378986355 0.00497163832 0.0297536347 -0.00274596992 -0.000966230233 0.0231207293 -0.00776836043 0.020870069 0.0332988165 -0.00984211639 0.0341496319 0.0241147075 -0.0232152715 -0.0138971061 0.00245512393 -0.0098917326 -0.00216326001 -0.0233387109 0.0311551671 -0.0120744379 0.00270383107 -0.0228024293 0.032035958 0.00417952845 0.029194735 0.0223962907 -0.00442146929 0.0305126291 0.0273143593 -0.0144776022 0.0289178882 -0.000965390413 0.024819836 0.0304656737 0.0488651991 0.0188353434 0.0301197506 0.0462890044 0.000797808403 -0.0248904079 0.0326189734 -0.0226855632 -0.0258810483 0.0151753193 0.0131339049 0.0286221616 0.006882546 -0.00337741897 0.0293711554</float_array>
          <technique_common>
            <accessor source="#positions_array" count="32" stride="3">
              <param name="X" type="float" />
              <param name="Y" type="float" />
              <param name="Z" type="float" />
            </accessor>
          </technique_common>
        </source>
        <source id="normals">
          <float_array id="normals_array" count="207">-0.0505680181 -0.525557876 0.849253654 0.0400066003 -0.991230369 0.125943661 -0.088836953 -0.995775878 0.0232031662 0.175810948 -0.972340226 0.153769359 -0.894382179 -0.00763225881 -0.447238415 -0.374670744 -0.715956986 0.589090347 -0.895657003 -0.439000607 -0.0712533295 -0.715415359 -0.649419188 -0.257751107 -0.807307422 -0.579409122 -0.111981124 0.768807769 -0.474457294 0.428748071 -0.812340021 0.576182067 -0.09009929 -0.500570476 0.760832548 -0.412992746 -0.773815393 0.603880525 -0.191149175 -0.3812702 0.877349555 0.291360229 0.894000828 -0.321086228 -0.312515914 0.963159919 -0.268509895 0.015013339 0.923513472 -0.332640171 -0.190980151 0.185068846 0.886165082 -0.424806982 0.649830997 0.732159913 -0.204111516 0.710294425 0.607440054 -0.355666041 0.620565116 0.78185761 -0.0599802211 -0.086495541 -0.991949439 -0.0924926177 0.119558036 -0.958504319 0.258796066 -0.931671262 -0.353020847 0.0858195126 -0.99794966 0.0631221011 -0.0105868978 -0.908147991 -0.404291779 0.108698383 -0.959952474 -0.24257338 0.140176401 -0.9944368 -0.0610828772 -0.0858155712 -0.83688426 0.536237001 -0.109884679 -0.0106518874 0.0120461574 0.999870718 0.065515779 0.00992460269 0.997802198 0.0379785076 0.0154111283 0.999159694 0.962966144 -0.263176084 0.0586055107 -0.95785141 0.219542921 0.185260907 -0.0447316095 -0.0380420201 0.998274446 -0.0267339498 0.0522134006 0.998278022 0.0563093349 0.0423281938 0.997515678 -0.922060788 -0.361932814 -0.137144119 0.00565652829 0.0335297026 -0.999421716 -0.247110054 -0.400765955 -0.882226288 -0.0924991667 -0.472479522 -0.876474202 -0.36770767 -0.487454325 -0.79194653 0.0464518741 0.270266265 -0.961664379 0.0680155233 0.48335734 -0.872776926 0.12570627 0.184592396 -0.97474283 -0.49539268 -0.342032611 -0.798498452 0.399277508 0.00649847463 -0.916807115 0.290863007 0.00103904854 -0.956764162 0.537991941 -0.292582691 -0.790544152 0.579996884 -0.305773348 -0.755053818 -0.0460906811 -0.18970637 -0.980758429 -0.329037488 -0.943059802 0.0487081595 -0.520409048 -0.849924147 -0.0824826583 0.750341058 -0.384608924 -0.537646949 0.0140036233 -0.0455318093 0.99886471 0.0474080667 0.0541765057 0.99740535 -0.835166335 0.538115501 -0.113705158 0.966968656 0.0231321584 0.253843546 -0.0555194914 -0.983111918 0.174380586 0.973737895 -0.184469655 0.133437067 0.0475895852 0.972720504 0.22704649 -0.147762954 0.981784701 0.119435683 -0.0374526866 0.989402294 0.140286788 -0.400694191 0.753442049 -0.521314919 0.582766354 0.810745716 -0.0554499067 0.0110771479 0.977297664 0.211581081 0.0790060908 -0.0627151206 0.994899392 0.116799638 0.957249105 0.264635593 0.580218554 0.806354523 -0.114624612</float_array>
          <technique_common>
            <accessor source="#normals_array" count="69" stride="3">
              <param name="X" type="float" />
              <param name="Y" type="float" />
              <param name="Z" type="float" />
            </accessor>
          </technique_common>
        </source>
        <vertices id="vertices">
          <input semantic="POSITION" source="#positions" />
        </vertices>
        <triangles material="scout_1a1a1a" count="60">
          <input semantic="VERTEX" source="#vertices" offset="0" />
          <input semantic="NORMAL" source="#normals" offset="1" />
          <p>0 0 1 0 2 0 3 1 4 2 5 3 6 4 7 4 8 4 4 5 9 5 10 5 1 6 0 7 11 8 12 9 13 9 14 9 15 10 16 11 17 12 17 13 18 13 6 13 14 14 13 15 5 16 6 17 18 17 19 17 13 18 12 19 19 20 10 21 14 22 4 2 9 23 20 24 10 25 21 26 20 24 1 6 1 6 20 24 9 23 2 27 1 6 9 23 20 24 17 12 22 28 11 8 21 26 1 6 23 29 24 30 25 31 13 15 3 32 5 16 20 24 26 33 15 10 23 29 25 31 27 34 27 34 25 31 3 35 25 31 21 36 3 35 22 37 10 25 20 24 20 24 21 26 26 33 6 38 8 38 22 38 8 39 14 40 10 41 7 42 6 43 19 44 10 41 22 45 8 39 19 44 12 46 28 47 12 46 14 48 28 47 28 47 14 48 29 49 14 40 8 39 29 50 4 2 0 51 9 52 2 53 9 53 0 53 5 3 4 2 14 22 23 29 30 54 24 30 30 54 31 55 24 30 29 50 8 39 7 42 29 50 7 42 28 47 7 42 19 44 28 47 6 56 22 28 17 12 11 57 0 57 21 57 24 30 31 55 21 36 25 31 24 30 21 36 4 2 3 1 21 58 27 59 3 32 13 15 26 60 16 61 15 62 17 12 16 11 18 63 18 64 13 18 19 20 16 61 26 60 18 65 4 2 21 58 0 51 26 66 31 55 30 54 31 55 26 66 21 36 23 29 27 34 30 54 30 54 27 34 26 66 18 65 26 60 27 67 27 68 13 18 18 64 20 24 15 10 17 12</p>
        </triangles>
      </mesh>
    </geometry>
  </library_geometries>
  <library_visual_scenes>
    <visual_scene id="scene">
      <node id="right_wrist_pitch_link">
        <instance_geometry url="#geometry">
          <bind_material>
            <technique_common>
              <instance_material symbol="scout_1a1a1a" target="#scout_1a1a1a" />
            </technique_common>
          </bind_material>
        </instance_geometry>
      </node>
    </visual_scene>
  </library_visual_scenes>
  <scene>
    <instance_visual_scene url="#scene" />
  </scene>
</COLLADA>