<?xml version='1.0' encoding='utf-8'?>
<COLLADA xmlns="http://www.collada.org/2005/11/COLLADASchema" version="1.4.1">
  <asset>
    <created>2026-09-14T00:00:00Z</created>
    <modified>2026-09-14T00:00:00Z</modified>
    <unit name="metre" meter="1" />
    <up_axis>Z_UP</up_axis>
  </asset>
  <library_effects>
    <effect id="scout_1a1a1a_effect">
      <profile_COMMON>
        <technique sid="common">
          <lambert>
            <emission>
              <color>0 0 0 1</color>
            </emission>
            <ambient>
              <color>0.05 0.05 0.05 1</color>
            </ambient>
            <diffuse>
              <color>0.1 0.1 0.1 1</color>
            </diffuse>
          </lambert>
        </technique>
      </profile_COMMON>
    </effect>
  </library_effects>
  <library_materials>
    <material id="scout_1a1a1a" name="scout_1a1a1a">
      <instance_effect url="#scout_1a1a1a_effect" />
    </material>
  </library_materials>
  <library_geometries>
    <geometry id="geometry" name="right_shoulder_yaw_link">
      <mesh>
        <source id="positions">
          <float_array id="positions_array" count="294">-0.0397996716 -0.0175282769 -0.182581738 -0.0390199423 -0.00826255046 -0.192956388 -0.0340551771 -0.0199424289 -0.187872007 -0.028699236 -0.0192549769 -0.162846446 -0.0330630951 -0.0278196242 -0.188071355 -0.0310493298 -0.0276677851 -0.175623298 -0.0313838497 -0.0162993763 -0.208575249 -0.0391881093 -0.00597282359 -0.111336321 -0.0286463518 -0.0172175113 -0.111979671 -0.0262265895 -0.0284072757 -0.0478852615 -0.0357425995 -0.0192133766 -0.000323071174 -0.00942807086 -0.0374467783 -0.0368150137 -0.01040815 -0.0388634354 0.000679703488 -0.0283983517 -0.0280574374 0.000922880834 -0.0272007305 -0.0205867775 -0.201793313 -0.016828645 -0.0162282214 -0.215038985 -0.0251044277 -0.0264140591 -0.20336844 -0.0186762642 -0.0284000952 -0.213333696 -0.0118321571 -0.0174738802 -0.224816188 -0.0188868698 -0.0307749584 -0.190948457 -0.012411043 -0.0275801849 -0.151247784 -0.0252253581 -0.0280210674 -0.157510296 -0.0131008001 -0.0181677602 -0.147285178 -0.0392819755 0.0167114995 -0.074967809 -0.0358298495 0.0245415345 -0.0703258291 -0.0339449607 0.00748940185 -0.0740720332 0.00918171927 -0.0370750204 -0.0390446633 0.00740706502 -0.0175107922 -0.223775983 -0.00149416924 -0.0245777294 -0.220799953 0.0046601221 -0.0303169917 -0.210010305 0.0456198193 -0.0129757719 -0.206063107 0.04386748 0.0314670317 -0.208763689 0.0518167019 0.0273130871 -0.18836242 0.0378744975 0.012710019 -0.00977178942 0.0313627608 0.0292786639 -0.0694089085 0.0320343971 0.0245614145 -0.00646043057 -0.0381716602 0.0100967484 -0.00753885694 -0.0396790467 0.00679734861 -0.000215307286 0.05279807 -0.0167478584 -0.182171166 0.0435114577 0.0348845758 -0.155348048 0.0434034392 -0.0167804826 -0.154502451 -0.0325880833 0.0304769725 -0.075676173 -0.0324525647 0.0393006727 -0.150531754 -0.0395014025 0.030287521 -0.153995067 -0.031029081 0.0251176227 -0.00780420238 -0.0250587687 0.0312104672 0.000931169314 -0.035998594 0.0275405273 -0.192055047 -0.0384177901 0.0346047543 -0.189342394 -0.032809373 0.0373994857 -0.204099074 -0.0349675566 0.0355506986 -0.15613237 -0.0163429808 0.039067477 -0.0583976433 0.0187969841 0.0221947283 -0.134695396 0.0225219205 0.0308664963 -0.128225803 0.0240428429 0.0296904594 -0.13469778 -0.00103593769 0.0399335437 -0.218844146 -0.018471498 0.0326758586 -0.221493691 -0.00219953666 0.0401473939 0.000347033318 0.0528970249 0.0333930589 -0.182924673 0.0176749304 -0.0368027389 0.00041401232 0.0106409397 -0.0285380576 -0.22143282 0.0184432454 -0.0169829559 -0.226711646 0.0315332264 -0.0278943479 -0.151467785 0.0101995375 -0.0319590606 -0.157653838 0.0122114625 -0.0272208191 -0.144228816 0.00899764802 -0.0188567005 -0.139630958 -0.00020469584 -0.0277419928 -0.143062428 0.0374564901 -0.0270374846 -0.162345931 0.029805975 -0.0321213007 -0.186004609 0.0325491652 -0.0196292996 -0.213430792 0.0274429917 -0.0279067494 -0.213943645 0.027205795 -0.0193786081 -0.148413837 0.0234192386 -0.0103331432 -0.13432546 0.02725254 -0.0279322695 -0.0509150438 0.0106575359 -0.0181291252 -0.107949398 0.0224122219 -0.011094735 -0.110920943 0.0383784361 -0.0103270179 -0.058233805 0.0323582813 -0.0241921917 -0.000681888894 0.0176636335 0.0388864316 -0.0635241568 0.025014 0.0332032815 -0.0746885389 0.0162275024 0.0390840806 -0.13726078 0.0312722959 -0.0164625477 -0.220288381 0.0377140194 -0.028037969 -0.206971481 0.0449392349 -0.0208950508 -0.188770577 0.0443681479 -0.0283461437 -0.186582103 0.0441718288 -0.0181966368 -0.167771414 0.042817656 -0.0286532547 -0.172828168 0.0400738195 -0.00640553888 0.000987739768 0.00932611059 0.0300283749 -0.22843872 0.0241333488 0.0354317799 -0.223667651 0.0391726084 0.0399523564 -0.203179434 0.0168920495 0.036047779 0.00126504956 0.0324213989 0.0209612586 -0.0784156397 0.0285011455 0.00775430771 -0.0734966174 0.0308613386 0.0261704922 -0.00178825995 0.0389761068 0.0140031744 -0.0513165891 0.0339410231 0.00460177893 -0.00719200401 0.0348571725 0.0154513782 0.00210439786 0.00687930454 -0.0334385931 -0.18150878</float_array>
          <technique_common>
            <accessor source="#positions_array" count="98" stride="3">
              <param name="X" type="float" />
              <param name="Y" type="float" />
              <param name="Z" type="float" />
            </accessor>
          </technique_common>
        </source>
        <source id="normals">
          <float_array id="normals_array" count="558">-0.687676072 -0.515053928 -0.511684477 -0.900717914 -0.233086258 -0.366576135 -0.755261958 -0.551324844 -0.354429632 -0.177255914 -0.983169019 0.0442610532 -0.339221954 -0.936613858 0.0876523703 -0.311966687 -0.945555866 0.0927411169 -0.979059756 -0.0982616469 0.178287998 -0.978884757 -0.127331346 0.159910604 -0.971842885 -0.0883920863 0.218422055 -0.902805746 -0.0600009933 0.425842315 -0.695237219 -0.460299075 -0.55205971 -0.940558553 -0.33956632 0.00665962463 -0.414677352 -0.90873009 -0.047457993 -0.616237342 -0.78328383 -0.0819632784 -0.902451456 -0.430597395 -0.0129340105 -0.200454846 -0.972620904 -0.117585614 -0.236074015 -0.971504331 -0.0211742949 -0.649122179 -0.760323167 -0.0234335866 -0.402149379 -0.865368187 -0.299021393 -0.190246403 -0.878576934 -0.438074112 -0.824911416 -0.099542059 -0.556428432 -0.570137858 -0.0292739309 -0.821027339 -0.673837841 -0.00123297097 -0.73887825 -0.833077848 -0.140048251 -0.535133481 0.0578735471 -0.986183286 0.155219957 0.0781718493 -0.983155966 0.165207654 0.00632126769 -0.993173897 0.116471723 -0.219495699 -0.974395454 -0.0487348437 -0.374133587 -0.922088206 -0.0988810435 -0.141370267 -0.970994115 -0.192833856 -0.894360721 -0.101613879 -0.435653031 -0.887970388 -0.121694446 -0.443507731 -0.0768483207 -0.99141705 0.105766624 -0.117294818 -0.99250859 0.0341854841 -0.821128547 0.0217718165 0.570327878 0.0520241298 -0.997989774 -0.0361927263 -8.97263963e-05 -0.999639034 0.0268658455 -0.703885794 0.144415289 0.695477486 -0.440707296 -0.295187086 0.847727358 -0.395379364 -0.380858958 0.835835874 -0.454128593 -0.373759598 0.808746576 0.544485331 0.236950427 -0.804605663 0.181238607 -0.972682238 -0.145057842 0.0165990852 -0.125922307 -0.991901219 -0.293497026 -0.0628916621 -0.953888953 -0.041141659 -0.978412688 -0.202524006 -0.127454937 -0.903975368 -0.408146799 0.0157565475 -0.991281211 -0.130817831 0.844370484 0.00940213166 -0.535677195 0.763854146 0.30114603 -0.57082212 0.95728457 0.0451954976 -0.28559351 0.956339478 0.281122535 0.0799058452 0.796676874 0.602047265 -0.0533384457 0.923332632 0.373089284 0.0908914208 -0.878980994 0.47456798 0.0466648899 -0.981465995 0.189523444 0.0283798333 -0.985818267 0.161328092 0.0462121665 0.999171674 -0.00719933491 0.0400512777 0.860796809 0.00219479203 0.508944035 0.858900368 0.00658569764 0.512100399 -0.714593351 0.694276392 0.0856545642 -0.458601117 0.888498247 0.0159968082 -0.950010896 0.312181413 0.00469630212 -0.862759709 0.0156590864 -0.50537163 -0.888925731 0.454432786 0.0574618913 -0.814717412 0.572516739 0.0919787586 -0.61508137 0.783391893 0.0892859474 -0.866436183 0.0280132499 -0.49850136 -0.867134333 -0.110458001 -0.485671818 -0.879591823 0.00705369469 -0.475676864 -0.777074635 0.629279792 -0.0127280178 -0.436632454 0.899423301 0.0197434314 -0.50742358 0.861634254 0.0103794318 -0.276296377 0.960372329 0.0366779193 -0.785484791 0.549630165 -0.284464955 -0.0704410002 0.869504988 -0.488875419 -0.236864477 0.803078175 -0.546772957 -0.136735082 0.982590199 -0.125777856 -0.070617646 0.996408701 0.0467210338 0.994074583 0.108647421 -0.00338695268 0.374971122 -0.926814795 -0.0202736296 -0.076568976 -0.97831434 -0.192453116 0.209490269 -0.158609658 -0.964861035 0.0423303246 -0.998893976 -0.020467747 0.132039189 -0.985710919 0.104592919 -9.01203312e-05 -0.958973885 0.283494323 0.286803275 -0.346811056 0.893009484 0.25974977 -0.524345517 0.810920358 0.102238782 -0.448746592 0.887791514 -0.00134284049 -0.998439372 0.0558306053 0.0350759588 -0.996786833 -0.0720115006 0.192831159 -0.976535976 0.0958832204 0.0977302715 -0.995121121 -0.0135192201 0.470697552 -0.221014306 -0.854164243 0.451777577 -0.225207448 -0.863237262 0.0798696131 -0.986644208 -0.141964763 0.434488177 -0.507212102 0.744282126 0.656180561 -0.0252623018 0.754180968 0.278941453 -0.772256017 0.570799708 0.608491302 -0.77788353 -0.156957209 0.243758529 -0.957980454 -0.151179373 0.521791816 -0.843026578 -0.130535349 0.943651021 -0.287482351 -0.163941145 0.804326892 -0.594108939 -0.00963140093 0.320288241 0.947295785 0.00679422682 0.664131641 0.746632814 -0.038322147 0.791400373 0.608917117 -0.0539011322 -0.173851207 0.121979639 0.97718817 0.242033452 -0.883040845 -0.40206793 0.464583397 -0.779757619 -0.419690728 0.511133313 -0.859475076 -0.0067303055 0.536440969 -0.281628639 -0.79556042 0.582041442 -0.740854859 -0.335204124 0.920994461 0.171785057 -0.349655658 0.959317088 -0.144726828 -0.242414698 0.985300839 -0.0946211144 -0.142229065 0.898682833 0.330540568 -0.288291603 0.568584263 -0.798434079 -0.198027804 0.827655613 -0.540396631 -0.151517868 0.905581594 -0.211050525 0.36793974 0.940641999 -0.238562509 0.241413563 0.825111449 -0.359042406 0.436210483 0.248393327 -0.945097029 0.212349743 0.331094563 -0.93583858 0.12075834 0.992135346 -0.118658155 0.0398455672 -0.555042744 0.0236620102 -0.831485212 0.0514408685 0.0145019293 -0.99857074 -0.36931771 -0.0282406285 -0.928874016 0.461097687 -0.887335181 0.00501567265 0.0416026898 -0.0567928329 0.997518837 0.0327103734 -0.0429502241 0.998541594 0.235737473 -0.191690698 0.952723742 -0.0811900571 0.681228697 -0.72755456 0.396230936 0.889449954 -0.227771491 0.196234524 0.917316079 -0.346443743 0.39649561 0.916955531 0.0445396751 0.879057467 -0.00926277041 0.47662583 0.998672485 -0.0357083119 0.0371231474 0.907058239 0.00933469087 0.420901626 0.971732497 0.0578162037 -0.22889559 0.990114152 -0.0304956529 -0.136908829 0.47959432 0.00872601848 -0.877446949 0.21147874 -0.0185120516 -0.977207243 0.58303082 0.0273303222 -0.811990201 0.658325851 0.0550464541 -0.75071758 0.596013069 0.118862346 0.794128537 0.0352496505 0.999183297 0.0197537597 0.2317909 0.969330788 0.0816753358 0.506520152 0.592363 0.626532853 0.838435948 0.0450578071 -0.543134391 0.845354021 0.53053695 -0.0625067577 0.826830745 0.558924437 -0.0628835484 0.801026106 0.589927137 0.101701036 -0.386912793 -0.117784046 0.914562941 0.972009838 0.227439642 -0.0588901713 0.521341801 0.018530542 0.853146732 0.972907841 0.085056752 0.214978322 -0.668609381 0.0894815251 -0.73821038 0.909792125 0.390367061 0.141038641 0.934777737 0.3146604 0.164861858 -0.944751263 0.17788887 -0.27531901 0.347258121 0.935329974 0.0675989017 -0.999579549 0.0244804379 -0.0155397141 -0.999873042 0.00741563505 -0.0141029097 -0.998130381 0.0189206153 -0.0581188798 0.483648449 0.452395231 0.749281466 -0.0350520238 -0.999385417 0.00033984441 -0.327888876 -0.025128955 0.944382012 0.150845319 -0.98848027 -0.0123454267 -0.641755223 0.0733731091 -0.763391554 -0.0928767622 -0.995448291 0.0213697441 -0.403847277 -0.912449777 -0.0658998117 -0.180964276 -0.98348856 0.00149737834 -0.0375857875 -0.999267459 0.00720259594 -0.0427340232 0.072060138 0.996484399 -0.0821069852 0.776564717 -0.624664426 0.183070168 -0.983060956 0.00874462724 -0.00323127722 -0.99989593 -0.0140582519 -0.0378652737 -0.00980714522 0.999234736 0.00364058302 -0.0156904738 0.999870241 -0.0215391871 0.0176205859 0.999612689 -0.0174442679 -0.011686678 0.999779522 -0.0943658352 0.00196802244 0.995535672 -0.208717227 -0.0356362723 0.977326572 -0.0246726368 0.0137562137 0.999600947 -0.0218120515 0.120660581 0.992454171</float_array>
          <technique_common>
            <accessor source="#normals_array" count="186" stride="3">
              <param name="X" type="float" />
              <param name="Y" type="float" />
              <param name="Z" type="float" />
            </accessor>
          </technique_common>
        </source>
        <vertices id="vertices">
          <input semantic="POSITION" source="#positions" />
        </vertices>
        <triangles material="scout_1a1a1a" count="192">
          <input semantic="VERTEX" source="#vertices" offset="0" />
          <input semantic="NORMAL" source="#normals" offset="1" />
          <p>0 0 1 1 2 2 3 3 0 4 2 5 2 6 4 7 5 8 3 9 2 6 5 8 1 1 6 10 2 2 7 11 0 4 8 12 7 11 9 13 10 14 9 13 11 15 12 16 12 16 13 17 9 13 14 18 6 10 15 19 16 20 15 21 17 22 14 23 15 21 16 20 15 24 6 25 18 26 19 27 16 28 17 29 2 30 14 23 4 31 14 18 2 2 6 10 14 23 16 20 4 31 20 32 5 33 19 27 3 3 8 12 0 4 3 9 5 8 21 34 20 32 21 35 5 33 22 36 8 12 3 3 22 37 3 9 21 34 22 38 21 39 20 40 11 15 9 13 8 12 23 41 24 41 25 41 12 16 11 15 26 42 15 21 27 43 28 44 29 45 17 29 28 46 15 24 18 26 27 47 30 48 31 49 32 50 33 51 34 52 35 53 36 54 23 55 37 56 37 56 23 55 7 11 38 57 39 58 40 59 41 60 42 61 43 62 41 60 43 62 23 55 24 63 41 63 25 63 24 64 23 55 36 54 44 65 24 64 36 54 45 66 44 65 37 56 46 67 47 68 48 69 49 70 47 71 43 62 42 61 49 70 43 62 49 70 42 61 48 72 41 60 50 73 42 61 45 66 50 73 44 65 51 74 52 74 53 74 54 75 55 76 48 77 45 66 56 78 50 73 32 50 57 79 38 57 58 80 12 16 26 42 29 45 28 46 59 81 28 44 27 43 59 82 27 47 18 26 60 83 61 84 20 32 62 85 63 86 64 87 65 88 63 89 20 32 61 84 63 89 65 90 20 32 66 91 62 85 67 92 27 43 68 93 59 82 68 93 69 94 59 82 69 95 67 92 29 45 66 91 61 84 62 85 70 96 64 87 63 86 70 96 63 86 61 97 71 98 64 87 70 96 72 99 73 100 74 101 75 102 72 99 74 101 76 103 58 80 72 99 77 104 78 105 79 106 51 107 53 107 79 107 80 108 27 47 60 83 68 109 27 47 80 108 74 101 73 100 71 110 69 94 68 93 81 111 30 112 68 109 80 108 68 113 82 114 83 115 68 113 83 115 81 116 30 112 82 117 68 109 69 118 66 118 67 118 83 115 84 119 85 120 82 114 84 119 83 115 84 119 70 96 61 97 84 119 61 97 66 121 84 119 66 121 85 120 71 98 70 96 40 122 40 122 70 96 84 123 75 102 86 124 76 103 76 103 72 99 75 102 55 125 87 126 18 127 38 128 84 123 82 117 40 122 84 123 38 128 82 117 30 112 38 128 86 129 58 130 76 131 54 75 88 132 55 76 54 75 89 133 88 134 56 78 90 135 77 104 53 136 52 137 71 138 44 65 50 73 41 60 91 139 74 140 52 137 87 126 88 141 60 142 88 141 80 143 60 142 92 144 78 144 34 144 91 145 78 145 92 145 79 146 39 147 89 133 79 148 53 148 39 148 79 149 52 149 51 149 78 105 91 150 52 151 77 104 34 52 78 105 34 52 77 104 90 135 90 135 93 152 34 52 20 40 65 153 22 38 91 139 94 154 75 102 35 155 95 155 33 155 35 53 93 152 95 156 93 157 33 157 95 157 93 158 96 159 33 51 33 51 86 124 94 154 33 51 96 159 86 124 26 42 72 99 58 80 88 141 30 48 80 143 34 160 91 160 92 160 93 152 35 53 34 52 89 133 31 49 88 134 89 133 57 79 31 49 39 147 57 161 89 133 0 162 47 163 1 164 39 58 38 57 57 79 57 79 32 50 31 49 93 165 90 165 96 165 41 60 24 64 44 65 13 17 10 14 9 13 91 139 75 102 74 140 54 75 48 77 42 61 29 45 97 166 19 27 67 92 62 85 97 166 62 85 20 32 97 166 20 32 19 27 97 166 29 45 67 92 97 166 65 153 64 167 22 38 4 168 16 28 5 33 16 28 19 27 5 33 34 52 94 154 91 139 43 62 7 11 23 55 44 65 36 54 37 56 37 56 7 11 10 14 1 1 46 67 48 69 47 68 46 67 1 169 83 170 85 171 66 172 83 170 66 172 69 173 11 15 73 100 26 42 48 69 6 10 1 1 25 174 41 174 23 174 47 71 49 70 48 72 55 125 6 10 48 69 18 127 87 126 60 142 79 146 42 61 50 73 50 73 77 104 79 146 87 175 55 76 88 132 89 133 54 75 42 61 89 133 42 61 79 146 30 48 88 141 31 49 6 10 55 125 18 127 22 36 64 176 8 12 73 100 8 12 64 176 59 81 69 95 29 45 81 177 83 170 69 173 19 27 17 29 29 45 73 100 64 176 71 110 15 21 28 44 17 22 7 11 8 12 9 13 77 104 50 73 56 78 47 163 0 162 7 11 7 11 43 62 47 163 52 137 74 140 71 138 73 100 11 15 8 12 26 42 73 100 72 99 53 136 71 138 39 58 40 59 39 58 71 138 79 106 78 105 52 151 34 52 33 51 94 154 75 102 94 154 86 124 38 57 30 48 32 50 13 178 12 179 90 180 58 130 86 129 12 179 12 179 86 129 96 181 12 179 96 181 90 180 37 182 10 183 13 178 37 182 13 178 45 184 45 184 13 178 90 180 56 185 45 184 90 180</p>
        </triangles>
      </mesh>
    </geometry>
  </library_geometries>
  <library_visual_scenes>
    <visual_scene id="scene">
      <node id="right_shoulder_yaw_link">
        <instance_geometry url="#geometry">
          <bind_material>
            <technique_common>
              <instance_material symbol="scout_1a1a1a" target="#scout_1a1a1a" />
            </technique_common>
          </bind_material>
        </instance_geometry>
      </node>
    </visual_scene>
  </library_visual_scenes>
  <scene>
    <instance_visual_scene url="#scene" />
  </scene>
</COLLADA>