<?xml version='1.0' encoding='utf-8'?>
<COLLADA xmlns="http://www.collada.org/2005/11/COLLADASchema" version="1.4.1">
  <asset>
    <created>2026-09-14T00:00:00Z</created>
    <modified>2026-09-14T00:00:00Z</modified>
    <unit name="metre" meter="1" />
    <up_axis>Z_UP</up_axis>
  </asset>
  <library_effects>
    <effect id="scout_1a1a1a_effect">
      <profile_COMMON>
        <technique sid="common">
          <lambert>
            <emission>
              <color>0 0 0 1</color>
            </emission>
            <ambient>
              <color>0.05 0.05 0.05 1</color>
            </ambient>
            <diffuse>
              <color>0.1 0.1 0.1 1</color>
            </diffuse>
          </lambert>
        </technique>
      </profile_COMMON>
    </effect>
  </library_effects>
  <library_materials>
    <material id="scout_1a1a1a" name="scout_1a1a1a">
      <instance_effect url="#scout_1a1a1a_effect" />
    </material>
  </library_materials>
  <library_geometries>
    <geometry id="geometry" name="right_shoulder_roll_link">
      <mesh>
        <source id="positions">
          <float_array id="positions_array" count="273">-0.0022064785 -0.0437919125 0.00152698811 -0.0415103659 -0.0457619429 -0.0786440596 -0.0347917974 -0.0460373275 -0.129878804 -0.0135000004 -0.043544814 0.00631092209 0.00493426202 -0.0320752189 0.0216762517 0.00890293904 -0.0334394947 0.00374656939 0.00943307206 -0.0226570405 0.0235466063 -0.0342543945 -0.0421313643 -0.145004004 -0.0200395919 -0.0440062918 -0.130084768 -0.00289733242 -0.0425355919 0.0109084165 -0.0135972695 -0.0389932916 0.020962419 -0.058244478 -0.0392843038 -0.0889694169 -0.0482285023 -0.0437907651 -0.130316064 -0.0341986604 -7.36790971e-05 -0.145690322 -0.0168090984 -0.0385720171 -0.145003825 -0.00318763196 -0.0389250517 0.0206961334 -0.0706204921 -0.0283652004 -0.0890020803 -0.0589810275 0.0387697071 -0.0889108852 -0.056033574 0.0404224508 -0.130185127 -0.0684467405 0.0308241192 -0.130054548 -0.0799276531 -0.00390157895 -0.088584885 -0.0757709593 -0.0199234057 -0.129495159 -0.0773113221 -0.0156007214 -0.0885159522 -0.0664987713 -0.0269875638 -0.145006195 -0.0764095858 -0.00513924705 -0.145011202 0.00403917953 -0.0395015962 -5.92658726e-05 0.00459846575 -0.0375227518 0.0113553274 -0.00283775316 -0.0336282551 0.0282818452 -0.0135000004 -0.0287943874 0.0332677998 -0.0592042692 -0.0385321528 -0.129967228 -0.0512622856 -0.038540557 -0.145006448 -0.00137313956 -0.0269440636 -0.14500165 -0.0074897795 -0.0376240835 -0.130106032 -0.00277930801 -0.0270843506 0.0345917009 -0.0135099394 -0.0152598051 0.0415975377 -0.0679682642 -0.0309418812 -0.130190834 0.00713781361 -0.00956816226 -0.145004332 0.00936010294 -0.0153989103 -0.130284369 0.0027371808 -0.0277694035 -0.130523622 -0.00154313608 -0.0169946607 0.0402748659 0.00808352418 -0.0062671979 0.0344747901 0.00482538808 -0.023635162 0.0310033541 -0.0787766427 0.0118417218 -0.0887150988 -0.0766790584 0.0174150597 -0.129671946 -0.0794186741 0.0069958861 -0.130144715 0.00705410959 0.0101396861 -0.145003662 0.011886593 0.00403099461 -0.130048633 0.0115900785 -0.00597068109 -0.130016625 0.00245284452 -0.00170107652 0.0408037901 0.00466078008 0.0112557709 0.0374949053 0.0110712824 -0.0282506235 -0.000909723865 0.0118622445 -0.023201555 0.0100640561 -0.00287690782 -0.00646508764 0.0436341614 -0.01344941 0.00564123783 0.0439489223 -0.0798204392 -0.00445805537 -0.130296394 -0.00173833955 0.0272979625 -0.145005748 0.00523566687 0.0241923928 -0.130203456 0.00987967849 0.0135121271 -0.130389005 -0.00313210906 0.00824422948 0.0432568416 -0.0734926239 0.0142944427 -0.145002112 -0.0664996877 0.0269879457 -0.145002484 -0.0218586829 0.0444330834 -0.130132765 -0.00711650448 0.0376386866 -0.130004331 -0.0168930963 0.0386100411 -0.145007834 0.0112707214 -0.0140168257 0.023671288 -0.00279786624 0.0178790968 0.0401362404 -0.0135252764 0.0247413721 0.0367013924 -0.0512717254 0.0385283157 -0.145003289 -0.0342573971 0.0421311855 -0.145004526 -0.0349105075 0.0460204557 -0.129929498 0.00929713156 0.0328037664 0.00275180489 -0.00198744819 0.0437136292 0.00246660109 -0.00314327888 0.0278584044 0.0341231748 -0.0449514017 0.0445577875 -0.130635917 0.00374225248 0.0398289189 0.00102512096 0.011805824 0.0249769911 0.00630247733 0.0118455747 -0.0032545689 0.0253465697 -0.0135166561 0.0388125256 0.0214255471 -0.070594117 0.0283962097 -0.088969022 -0.0362726226 0.0460062847 -0.080573611 0.00493437285 0.021681834 0.0320704393 -0.002850638 0.0344600454 0.0272807553 -0.00286874152 0.0391100757 0.0201034993 -0.0471125618 0.044224605 -0.084906742 0.00459814956 0.0373378731 0.0117171258 0.00941427611 0.0123571176 0.0302183088 0.0117683988 0.0152632901 0.0206023362 0.00237255148 0.0319569036 0.0255462173 -0.00278033782 0.0421636403 0.0123269828 -0.0134999994 0.0435446948 0.00631092209 0.00802480243 0.0281744376 0.0208706316</float_array>
          <technique_common>
            <accessor source="#positions_array" count="91" stride="3">
              <param name="X" type="float" />
              <param name="Y" type="float" />
              <param name="Z" type="float" />
            </accessor>
          </technique_common>
        </source>
        <source id="normals">
          <float_array id="normals_array" count="327">0.313858896 -0.947845757 0.0555071719 -0.224148452 -0.971872747 0.0722552091 -0.0144656301 -0.991433263 -0.129810959 -0.271009415 -0.942926764 0.193501905 0.713820696 -0.586865425 0.382163554 0.864559352 -0.497739196 0.0692298561 0.886572659 -0.327626139 0.326573104 -0.00429349532 -0.960692346 -0.27758193 0.283724874 -0.947742581 -0.145890966 0.269972563 -0.931084156 0.245351091 -0.418594539 -0.783631861 0.459020436 -0.545262396 -0.831824839 0.103712685 -0.294945806 -0.946023047 -0.13434042 -5.63761496e-05 -3.8422746e-05 -1 0.00673535839 -0.0147871822 -0.999867976 2.51833681e-05 -0.016316345 -0.999866903 0.392035484 -0.873959303 -0.287233949 0.281923294 -0.850364149 0.444297254 -0.782888949 -0.598505735 0.169928715 -0.565037251 0.817570448 0.110957325 -0.491597742 0.860289395 -0.135032445 -0.733622074 0.665691257 -0.136579186 -0.973142624 -0.0698742494 0.219342127 -0.898958504 -0.417186886 -0.133524269 -0.921559453 -0.326478153 0.210095748 -0.0126244286 -0.0102653215 -0.999867618 -0.0158429127 -0.00202674582 -0.999872446 0.67981565 -0.733382463 0.000920057006 0.695155382 -0.682752669 0.224961862 0.286038578 -0.731761158 0.618633568 -0.0202645119 -0.650628865 0.759125471 -0.852526128 -0.321861506 0.411830574 -0.550236285 -0.824813068 -0.130090326 -0.395675868 -0.872618914 -0.286316037 -0.740962923 -0.604123175 -0.293273151 0.0125122517 -0.0103404317 -0.999868274 0.741378427 -0.608520329 -0.28295067 0.570642769 -0.805348933 -0.160561323 0.2745848 -0.586097062 0.762294888 -0.0087277256 -0.34478882 0.9386397 -0.886141777 -0.137141705 0.442656696 -0.73036468 -0.671002269 -0.127762944 0.0157500692 -0.00367033458 -0.999869227 0.932666421 -0.216070622 -0.288871735 0.924025238 -0.349455506 -0.155107141 0.791410863 -0.589935541 -0.160140261 0.373566955 -0.365064681 0.852745831 0.822528243 -0.11041072 0.557903945 0.699927568 -0.420574844 0.57725054 -0.951424241 -0.1260418 -0.280901074 -0.944682717 0.247538626 0.215172365 -0.911598086 0.390595645 -0.128156245 -0.980309308 0.145680323 -0.133307636 -0.00667252205 -0.0148163 -0.999867976 0.0157038011 0.0037929567 -0.999869466 0.929762542 0.227532297 -0.289431602 0.986978769 0.0740268528 -0.142803818 0.98366046 -0.115399867 -0.138184562 0.619657695 -0.0262537785 0.784432948 0.690616369 0.193949372 0.696730018 0.95890373 -0.283439666 -0.0128693143 0.977304637 -0.192339361 0.0887762904 0.259619683 -0.133122385 0.95649153 -0.0207346547 0.125877127 0.991829157 -0.892127931 0.0508701168 0.448909789 -0.988235593 -0.106780879 -0.109491043 0.73354733 0.618747473 -0.281176001 0.833435655 0.529138923 -0.159364372 0.94220984 0.301427782 -0.146225497 0.271208167 0.177307934 0.946048617 -0.015494748 0.00551451556 -0.999864757 -0.012387516 0.0106277624 -0.999866784 -0.905637741 0.317767888 -0.280791581 0.257107556 0.955675721 -0.143456042 0.579055369 0.800186098 -0.156195626 0.387312531 0.876612425 -0.285551578 0.958689988 -0.139373794 0.24796854 0.27349332 0.391247272 0.878707528 -0.0246275105 0.562185109 0.826644659 -0.868570387 0.253493339 0.425824672 -0.00679641496 0.0147896223 -0.999867558 -0.730843246 0.62792784 -0.267534614 -0.000197668371 0.0162468012 -0.999867976 -0.0113287261 0.992095649 -0.124971479 -0.0026188388 0.958620489 -0.284675121 0.880012929 0.473447978 0.0377395451 0.315431058 0.946383476 0.0697251484 0.26308459 0.617257118 0.741471589 -0.405910134 0.869552791 -0.281273812 -0.238830641 0.961094558 -0.138770372 0.676771641 0.736012876 0.0162839163 0.977905869 0.199750289 0.0616432615 0.978042662 -0.016380094 0.207759932 -0.423906863 0.76909411 0.478327543 -0.793430686 0.582829058 0.175436601 -0.0719372407 0.996992528 0.0288267471 0.701378882 0.404515237 0.586885929 0.237221614 0.747455597 0.620512664 0.30058375 0.850977838 0.43068108 0.0123870708 0.0103171915 -0.999870062 -0.325867325 0.942553461 0.0735081732 0.697009146 0.680277228 0.226718098 0.890648842 0.165946603 0.423327744 0.977385402 0.133479625 0.164015114 0.615879357 0.615464091 0.491829783 0.273794025 0.92422694 0.266160488 -0.273531169 0.941968441 0.194618046 0.840896308 0.437126189 0.319083214 0.00653891219 0.0147148594 -0.99987036</float_array>
          <technique_common>
            <accessor source="#normals_array" count="109" stride="3">
              <param name="X" type="float" />
              <param name="Y" type="float" />
              <param name="Z" type="float" />
            </accessor>
          </technique_common>
        </source>
        <vertices id="vertices">
          <input semantic="POSITION" source="#positions" />
        </vertices>
        <triangles material="scout_1a1a1a" count="178">
          <input semantic="VERTEX" source="#vertices" offset="0" />
          <input semantic="NORMAL" source="#normals" offset="1" />
          <p>0 0 1 1 2 2 0 0 3 3 1 1 4 4 5 5 6 6 7 7 8 8 2 2 0 0 9 9 3 3 9 9 10 10 3 3 10 10 11 11 3 3 11 11 1 1 3 3 7 7 2 2 12 12 13 13 14 14 7 15 14 16 8 8 7 7 15 17 10 10 9 9 16 18 11 11 10 10 17 19 18 20 19 21 20 22 21 23 22 24 13 13 23 25 24 26 25 27 26 28 0 0 26 28 9 9 0 0 12 12 1 1 11 11 15 17 27 29 10 10 27 29 28 30 10 10 28 31 22 24 10 10 22 24 16 18 10 10 16 18 29 32 11 11 29 32 30 33 12 12 29 32 23 34 30 33 31 35 14 14 13 13 31 36 32 37 14 16 32 37 8 8 14 16 26 28 15 17 9 9 27 29 33 38 28 30 33 38 34 39 28 30 34 40 22 24 28 31 21 23 35 41 16 18 35 41 29 32 16 18 35 41 23 34 29 32 36 42 31 35 13 13 36 43 37 44 31 36 37 44 38 45 31 36 38 45 32 37 31 36 32 37 0 0 8 8 32 37 25 27 0 0 32 37 38 45 25 27 38 45 5 5 25 27 25 27 5 5 26 28 4 4 27 29 15 17 26 28 4 4 15 17 39 46 34 39 33 38 20 22 22 24 34 40 40 47 41 48 6 6 21 23 16 18 22 24 35 41 21 23 23 34 21 23 24 49 23 34 42 50 43 51 44 52 13 13 7 15 30 53 45 54 36 42 13 13 45 55 46 56 36 43 46 56 47 57 36 43 47 57 37 44 36 43 48 58 40 47 49 59 38 45 50 60 5 5 50 60 51 61 5 5 51 61 6 6 5 5 41 48 27 29 4 4 41 48 33 38 27 29 52 62 34 39 39 46 52 62 53 63 34 39 53 64 20 22 34 40 21 23 54 65 24 49 55 66 56 67 45 55 56 67 57 68 45 55 57 68 46 56 45 55 50 60 38 45 37 44 41 48 39 46 33 38 52 62 58 69 53 63 53 64 42 50 20 22 24 26 59 70 13 13 59 70 60 71 13 13 54 65 44 52 24 49 44 52 59 72 24 49 61 73 62 74 63 75 62 74 55 66 63 75 62 74 56 67 55 66 64 76 6 6 51 61 42 50 54 65 20 22 58 69 65 77 53 63 65 77 66 78 53 63 66 79 42 50 53 64 60 71 67 80 13 13 44 52 43 51 59 72 43 51 60 81 59 72 43 51 19 21 60 81 67 80 68 82 13 13 69 83 61 73 68 84 61 73 63 75 68 84 70 85 57 68 56 67 51 61 47 57 46 56 51 61 50 60 47 57 50 60 37 44 47 57 71 86 61 73 69 83 39 46 48 58 52 62 48 58 49 59 58 69 65 77 72 87 66 78 19 21 67 88 60 81 19 21 18 20 67 88 18 20 73 89 67 88 12 12 11 11 29 32 73 89 69 83 68 84 61 73 71 86 62 74 74 90 56 67 62 74 70 85 75 91 57 68 75 91 46 56 57 68 76 92 64 76 51 61 49 59 65 77 58 69 72 87 77 93 66 78 77 93 42 50 66 79 77 93 78 94 42 50 42 50 78 94 43 51 2 2 1 1 12 12 43 51 78 94 19 21 74 90 62 74 71 86 70 85 56 67 74 90 76 92 51 61 75 91 64 76 76 92 40 47 73 89 79 95 69 83 49 59 80 96 65 77 80 96 72 87 65 77 81 97 77 93 72 87 81 97 82 98 77 93 78 94 17 19 19 21 45 54 13 13 55 99 17 19 83 100 18 20 83 100 73 89 18 20 7 7 12 12 30 33 79 95 71 86 69 83 84 101 70 85 74 90 76 92 85 102 40 47 76 92 86 103 85 102 40 47 39 46 41 48 80 96 87 104 72 87 87 104 81 97 72 87 82 98 88 105 77 93 88 105 89 106 77 93 89 106 17 19 77 93 17 19 78 94 77 93 89 106 83 100 17 19 89 106 79 95 83 100 89 106 71 86 79 95 71 86 84 101 74 90 23 25 13 13 30 53 87 104 82 98 81 97 88 105 71 86 89 106 88 105 84 101 71 86 90 107 75 91 70 85 86 103 90 107 85 102 87 104 84 101 82 98 84 101 88 105 82 98 90 107 86 103 75 91 87 104 90 107 84 101 68 84 67 88 73 89 4 4 26 28 5 5 48 58 39 46 40 47 20 22 54 65 21 23 80 96 49 59 85 102 6 6 41 48 4 4 80 96 85 102 90 107 42 50 44 52 54 65 48 58 58 69 52 62 64 76 40 47 6 6 63 108 55 99 13 13 68 82 63 108 13 13 51 61 46 56 75 91 76 92 75 91 86 103 73 89 83 100 79 95 40 47 85 102 49 59 0 0 2 2 8 8 90 107 87 104 80 96 70 85 84 101 90 107</p>
        </triangles>
      </mesh>
    </geometry>
  </library_geometries>
  <library_visual_scenes>
    <visual_scene id="scene">
      <node id="right_shoulder_roll_link">
        <instance_geometry url="#geometry">
          <bind_material>
            <technique_common>
              <instance_material symbol="scout_1a1a1a" target="#scout_1a1a1a" />
            </technique_common>
          </bind_material>
        </instance_geometry>
      </node>
    </visual_scene>
  </library_visual_scenes>
  <scene>
    <instance_visual_scene url="#scene" />
  </scene>
</COLLADA>