<?xml version='1.0' encoding='utf-8'?>
<COLLADA xmlns="http://www.collada.org/2005/11/COLLADASchema" version="1.4.1">
  <asset>
    <created>2026-09-14T00:00:00Z</created>
    <modified>2026-09-14T00:00:00Z</modified>
    <unit name="metre" meter="1" />
    <up_axis>Z_UP</up_axis>
  </asset>
  <library_effects>
    <effect id="scout_1a1a1a_effect">
      <profile_COMMON>
        <technique sid="common">
          <lambert>
            <emission>
              <color>0 0 0 1</color>
            </emission>
            <ambient>
              <color>0.05 0.05 0.05 1</color>
            </ambient>
            <diffuse>
              <color>0.1 0.1 0.1 1</color>
            </diffuse>
          </lambert>
        </technique>
      </profile_COMMON>
    </effect>
  </library_effects>
  <library_materials>
    <material id="scout_1a1a1a" name="scout_1a1a1a">
      <instance_effect url="#scout_1a1a1a_effect" />
    </material>
  </library_materials>
  <library_geometries>
    <geometry id="geometry" name="right_hip_yaw_link">
      <mesh>
        <source id="positions">
          <float_array id="positions_array" count="141">-0.0588572621 0.00462853955 -0.0236976519 -0.0448908769 -0.00231357617 -0.0349295251 -0.0601878315 0.000288463896 0.00628701923 -0.0667901337 0.0366805717 0.00770882098 -0.041851677 0.0347816534 -0.0497530811 -0.0401546396 0.0569914132 -0.0290427599 -0.0489155836 0.0375485867 -0.0297840722 -0.0501224957 0.054133825 0.00976930279 -0.0217404496 0.00374611793 -0.0612968542 -0.0273434985 0.0679168254 -0.0393493809 -0.0148892775 0.056356933 -0.0487215854 0.0281356778 0.0360024646 -0.0561645776 -0.0487833135 0.0220914707 0.0758511424 -0.0519200265 0.0048775808 0.0455998592 -0.0521812141 -0.00504150474 0.070808053 0.0249013118 0.0564121902 -0.0440850183 0.028603103 0.0675769001 -0.0348918624 -0.0396024734 0.0376527719 0.0425390862 -0.0226696432 0.0641856939 0.0432523079 -0.0289753564 0.0437096544 0.0743679255 0.0110954735 -0.000860398926 -0.059655793 -0.0103956265 0.0364759341 -0.0641388521 -0.0349754281 0.056278374 0.0366181098 5.45222538e-05 -0.00295820041 0.053399954 -0.0289309788 -0.00251645339 0.0471790209 0.030330861 -0.00273419661 0.0462445617 0.0506642796 0.00151620922 0.0584651455 0.0473557673 0.0235102698 0.0759036765 0.0475087725 -0.0222820472 0.0743534788 0.0457216911 0.0556160025 -0.0211657863 0.0476983637 0.0559885018 0.0192546882 0.0348656625 0.0673652217 0.031666521 0.0142918639 0.00243209279 0.0746275708 0.0166537371 0.0572837703 0.0485827699 0.0291936621 0.0434126928 0.0742671266 0.0458083153 0.0355330147 0.0395799354 0.0646823272 0.00494584721 0.0135383168 0.0487508141 0.000375856238 -0.0374994352 0.0688643828 0.0364788882 -0.00244825752 0.019591786 -0.0468997099 0.0747435093 -0.0156757385 -0.0503246188 0.0742224455 -0.0444658026 -0.0250515528 0.074698098 0.0565596968 0.0366141275 -0.00839730445 -0.000480895804 0.0677775443 0.00616144203 -0.0146124 0.00189362047 0.0748447925 0.000247120566 -0.0174733233 0.0628881976 0.0539707094 -8.89332514e-05 0.0141745135</float_array>
          <technique_common>
            <accessor source="#positions_array" count="47" stride="3">
              <param name="X" type="float" />
              <param name="Y" type="float" />
              <param name="Z" type="float" />
            </accessor>
          </technique_common>
        </source>
        <source id="normals">
          <float_array id="normals_array" count="348">-0.531129599 -0.834892809 -0.144413874 -0.126930341 -0.989069223 -0.0750387609 -0.20168075 -0.979142845 0.024579104 -0.995559037 -0.0552652627 -0.0762097016 -0.707205296 -0.00248102634 -0.707003951 -0.903391957 -0.0500810258 -0.425881267 -0.784883261 0.599305511 -0.157451913 -0.890688837 0.40891853 -0.198642835 -0.627720833 0.772880793 0.0928534865 -0.352818727 -0.0969531611 -0.930655181 -0.262919396 0.964804888 -0.00499464013 -0.311423033 -0.332803696 -0.890088439 -0.614681959 -0.0230077486 -0.788439393 -0.608345211 0.118007816 -0.784850478 -0.596548259 0.216322377 -0.772874415 -0.980500281 -0.180884585 0.0768114477 -0.912240088 0.409237802 0.0185038187 -0.968587339 0.245549455 -0.0392936543 -0.992409706 0.117591813 0.0359882712 0.0827150196 0.57992208 -0.810461998 0.0787081048 0.663639784 -0.743900061 0.0659933314 0.621136844 -0.780918658 -0.747382581 0.334489644 0.574052155 -0.220294088 0.959483981 0.175673053 -0.728501737 0.675370812 0.114714593 -0.862134635 0.506678402 -0.000916970836 0.502950549 -0.0105310306 -0.864251018 0.272073269 -0.0895746052 -0.958098412 -0.0872723237 -0.00229170779 -0.996181846 -0.724581301 0.586502969 0.361933947 -0.00149946054 -0.997745454 0.0670951009 -0.165774435 -0.974337041 0.152269915 0.0767700821 -0.993310928 0.0862538144 0.978241801 0.118995339 0.169950306 0.993116975 0.094156228 0.0696651936 0.981731772 -0.00315999263 0.190243751 0.0869067535 0.651571631 -0.753592432 0.713595092 0.288909435 -0.638211071 0.7403844 0.0261982251 -0.67167294 0.766117036 0.313290089 -0.561172009 0.605413854 0.794725716 -0.0434179269 0.851389825 0.521589935 0.0554915369 0.699273586 0.713690341 -0.0407734625 0.63092643 0.773753107 -0.0569036826 0.0626334101 -0.975069582 0.21287629 -0.19537656 -0.433869779 0.879536808 0.717145562 0.670164108 0.191265106 0.686169088 -0.0193639155 0.727184296 0.650632083 0.3514103 0.673192859 0.647520185 0.364301622 0.669329464 0.936671376 0.211379513 0.279222846 0.889697015 0.199268967 0.410768867 -0.58319217 0.291693509 -0.758156836 -0.00128355599 0.0787557885 0.996893108 0.00206903042 0.0665617734 0.997780144 0.000194875451 0.00919475779 0.999957681 0.00459153671 0.0140170343 0.999891222 0.770819783 -0.0367917344 -0.635989964 0.907334924 -0.112111285 -0.405184448 0.928505957 -0.258354723 -0.266701162 0.0436287448 -0.0336556025 0.998480737 0.00264771702 -0.02093683 0.999777317 -0.0116504766 -0.032081347 0.999417365 -0.00391656486 -0.0222335327 0.999745131 0.784341872 0.189429045 -0.590698302 0.00772117637 0.999970019 0.000582888839 -0.0318289027 0.998920023 0.033848051 0.784045219 0.403434247 -0.471713781 -0.312405407 -0.926700771 0.208874509 -0.134710506 -0.965327263 0.223598614 0.206505895 -0.911221445 -0.356413811 -0.957663476 -0.1824411 0.222701296 -0.595504701 -0.0741031691 0.799926817 -0.927668691 -0.353608489 0.119965956 -0.0405795723 0.999169111 0.00378620741 -0.828791499 0.345751196 0.439955443 0.00798920821 0.982462764 0.186287552 -0.0982283503 -0.2816948 -0.954462767 -0.255213231 -0.000986508443 -0.966884315 -0.0771502331 -0.117386095 -0.990085006 0.136699691 -0.291555941 -0.94673562 0.131320879 -0.140151203 -0.981382906 0.204632074 -0.247063205 -0.947145939 -0.292912543 0.329413295 -0.897601902 -0.36574465 -0.482752204 -0.795726776 0.254336119 0.351829797 -0.900848985 0.0158501938 0.999823809 -0.0100549916 8.68094212e-05 0.999745786 0.0225476604 0.0057806354 0.999925256 0.0107748341 0.00468702661 0.982071817 -0.188448995 0.0141704986 0.977969348 -0.208266944 0.00917081907 0.980193436 -0.197830051 0.0168329831 0.976729155 -0.21381478 0.0982675701 0.518352926 -0.849502027 0.868334293 0.127798066 0.479231954 -0.0704180002 0.991443813 -0.109911114 0.0152150178 0.999784052 -0.0141564831 -0.00327679003 0.999386191 -0.0348777883 -0.747571588 0.568617463 -0.34323591 -0.136166453 0.973623335 -0.183074415 0.0241055544 0.999340951 -0.0271410644 0.425601512 -0.90489912 0.0045799315 0.161494717 -0.979254007 0.122396909 0.276814669 -0.960921407 0.00192008947 0.068044059 0.823106706 0.563795447 0.589166522 0.54147923 0.599735796 0.0235605612 -0.355212897 0.934488475 -0.218302235 0.344487399 0.913056731 0.825582564 -0.301031828 -0.477276951 0.925925732 0.376252443 0.0330999568 0.0025699141 -0.996972263 -0.077715598 -0.116096467 -0.940898895 -0.318168014 -0.683518946 -0.29461506 -0.667835176 0.088318795 -0.995706558 -0.0277162027 -0.813056231 -0.326063961 -0.482308924 0.967039824 0.128860295 0.219610915</float_array>
          <technique_common>
            <accessor source="#normals_array" count="116" stride="3">
              <param name="X" type="float" />
              <param name="Y" type="float" />
              <param name="Z" type="float" />
            </accessor>
          </technique_common>
        </source>
        <vertices id="vertices">
          <input semantic="POSITION" source="#positions" />
        </vertices>
        <triangles material="scout_1a1a1a" count="90">
          <input semantic="VERTEX" source="#vertices" offset="0" />
          <input semantic="NORMAL" source="#normals" offset="1" />
          <p>0 0 1 1 2 2 3 3 4 4 0 5 5 6 6 7 7 8 4 4 8 9 0 5 9 10 5 6 7 8 6 11 10 11 11 11 9 12 10 13 5 14 0 5 2 15 3 3 12 16 13 17 14 18 15 19 9 20 16 21 17 22 3 22 13 22 7 8 18 23 9 10 12 16 19 24 17 25 11 26 20 27 21 28 22 29 18 23 7 8 23 30 24 31 25 32 26 33 27 34 28 35 9 20 15 19 10 36 16 37 29 38 15 39 16 40 30 41 29 42 16 40 31 43 30 41 25 32 32 44 23 30 33 45 18 45 22 45 34 46 27 46 35 46 31 47 33 48 30 49 35 50 27 34 26 33 36 51 35 50 26 33 6 52 5 14 10 13 34 53 19 54 12 55 12 55 27 56 34 53 37 57 38 58 36 59 28 60 27 56 39 61 40 62 39 61 41 63 29 38 42 64 15 39 21 28 8 9 4 4 16 65 9 10 43 66 15 39 42 64 11 67 13 68 2 2 24 31 24 31 44 69 13 68 44 70 14 70 13 70 13 71 3 3 2 15 14 72 41 72 12 72 6 73 17 73 7 73 12 16 17 25 13 17 17 74 6 74 3 74 22 29 7 8 17 75 9 10 18 23 43 66 43 66 18 23 31 76 16 65 43 66 31 76 21 28 20 27 8 9 40 77 41 78 45 79 39 80 40 77 45 79 41 81 14 81 44 81 28 82 39 80 45 79 41 78 44 83 45 79 32 84 26 84 28 84 45 85 32 85 28 85 42 86 35 87 38 88 19 89 34 90 17 91 35 92 17 91 34 90 41 63 39 61 27 56 41 63 27 56 12 55 10 36 15 19 11 93 38 94 35 50 36 51 6 95 11 96 21 97 6 98 4 4 3 3 21 97 4 99 6 95 42 86 38 88 11 100 36 101 26 102 46 103 31 76 18 23 33 104 30 49 33 48 35 105 33 106 17 106 35 106 17 107 33 107 22 107 20 27 11 26 37 57 23 108 32 108 45 108 30 41 42 109 29 42 20 110 1 1 8 111 0 5 8 9 1 112 37 113 36 101 46 103 24 31 23 30 44 69 32 44 25 32 26 102 26 102 25 32 46 103 24 31 2 2 1 1 25 32 24 31 1 1 46 103 25 32 37 113 25 32 1 1 20 110 37 113 25 32 20 110 44 114 23 114 45 114 30 41 35 115 42 109 38 58 37 57 11 26</p>
        </triangles>
      </mesh>
    </geometry>
  </library_geometries>
  <library_visual_scenes>
    <visual_scene id="scene">
      <node id="right_hip_yaw_link">
        <instance_geometry url="#geometry">
          <bind_material>
            <technique_common>
              <instance_material symbol="scout_1a1a1a" target="#scout_1a1a1a" />
            </technique_common>
          </bind_material>
        </instance_geometry>
      </node>
    </visual_scene>
  </library_visual_scenes>
  <scene>
    <instance_visual_scene url="#scene" />
  </scene>
</COLLADA>