<?xml version='1.0' encoding='utf-8'?>
<COLLADA xmlns="http://www.collada.org/2005/11/COLLADASchema" version="1.4.1">
  <asset>
    <created>2026-09-14T00:00:00Z</created>
    <modified>2026-09-14T00:00:00Z</modified>
    <unit name="metre" meter="1" />
    <up_axis>Z_UP</up_axis>
  </asset>
  <library_effects>
    <effect id="scout_1a1a1a_effect">
      <profile_COMMON>
        <technique sid="common">
          <lambert>
            <emission>
              <color>0 0 0 1</color>
            </emission>
            <ambient>
              <color>0.05 0.05 0.05 1</color>
            </ambient>
            <diffuse>
              <color>0.1 0.1 0.1 1</color>
            </diffuse>
          </lambert>
        </technique>
      </profile_COMMON>
    </effect>
  </library_effects>
  <library_materials>
    <material id="scout_1a1a1a" name="scout_1a1a1a">
      <instance_effect url="#scout_1a1a1a_effect" />
    </material>
  </library_materials>
  <library_geometries>
    <geometry id="geometry" name="right_hip_pitch_link">
      <mesh>
        <source id="positions">
          <float_array id="positions_array" count="138">-0.0546622537 -0.0161769111 -0.0497038811 -0.0407905318 0.0163044948 -0.0506636873 -0.0342370197 -0.00172454969 -0.0542795882 -0.0382083505 -0.00378687098 -0.0498804338 -0.0150500825 0.00296057202 -0.0625702441 -0.0368009657 0.00153869891 -0.0531137772 -0.0347467475 -0.000627710717 -0.0474885441 -0.0387105569 0.00258092303 -0.0483457856 -0.0204333737 -0.0462995395 0.0342706069 -0.05291868 -0.0541783124 -0.00785164163 -0.0138598718 -0.0581392385 -0.0296247061 -0.0472085997 -0.0193674229 0.04269756 -0.0460075215 -0.0350641981 -0.0349344872 -0.0483898371 -0.0490785725 0.00470419787 0.0193636771 -0.0490305722 0.0423036218 0.0169400778 0.00394293526 0.0658353418 -0.0147057502 -0.049743291 0.0458969325 -0.0492424183 0.0430986695 -0.0331499167 -0.0472663157 0.0388714299 -0.0245136563 -0.0443984196 0.0233519338 -0.0427780598 -0.0482388437 -0.00545422267 -0.0471020229 -0.0466779023 0.0519417599 0.00103745994 -0.0424458869 0.0403054878 0.0343168601 -0.0156544019 0.0546488725 0.0141219739 -0.0148039106 0.0297342557 -0.0527830236 -0.036683809 0.00721922005 0.0468265712 -0.0166125298 0.0147776948 0.0572578944 -0.0545461886 -0.0142135937 0.0465232916 -0.0337055475 0.00693907449 0.0487510413 -0.0555966571 0.0358725451 0.0326182917 -0.0463924929 0.0193324741 0.0435982645 -0.0369318612 -0.00933130644 0.0536928736 -0.0228796862 0.0642752945 0.0477690287 0.024172524 0.0656973571 0.0470807701 0.0180077497 -0.00569924107 -0.0659904554 0.0341328233 0.0647332668 -0.0419077314 -0.0177127048 0.0654544309 -0.0508894175 0.0217115209 0.0313571244 -0.0476848446 0.0507572256 0.0658060089 0.00669575017 -0.0549444482 0.0645834878 -0.00594425574 0.0226405952 -0.0347326659 -0.0457907468 -0.0524259955 0.00574376201 -0.011967727 -0.0519760512 0.00252544857 0.0184120573 0.024288699 0.0348780677 0.0449917726 0.024054328 0.0566326305 -0.00054612878 0.0213369727 -0.062721774 -0.0153965484</float_array>
          <technique_common>
            <accessor source="#positions_array" count="46" stride="3">
              <param name="X" type="float" />
              <param name="Y" type="float" />
              <param name="Z" type="float" />
            </accessor>
          </technique_common>
        </source>
        <source id="normals">
          <float_array id="normals_array" count="396">-0.452898264 0.167541847 -0.875678539 -0.570224822 0.220137268 -0.791443765 -0.27832219 0.0906067118 -0.956204593 0.594178915 -0.786677599 0.167600185 0.593613505 -0.785844088 0.173412919 0.593798399 -0.786116362 0.171535596 0.0630656853 -0.924314201 -0.376385421 0.338259697 0.421453565 0.841401994 0.593093336 -0.785079837 0.178577572 -0.503102779 0.713793337 -0.487223476 0.175536394 -0.0458805785 -0.983403265 0.31303522 0.135569587 -0.940015852 0.390053064 0.244694471 -0.887684166 0.0019651223 -0.983223975 0.182391852 -0.999822319 0.0183724891 -0.00421781046 -0.999942005 0.00328982715 0.0102566089 -0.996293545 0.0800073296 -0.0315911509 0.104409754 -0.399752349 0.910657287 -0.171317622 -0.015133623 0.985099614 -0.0329480767 -0.330838829 0.943111897 0.847949684 0.210671991 0.486414075 -0.803880215 -0.560346842 -0.199469358 0.9268682 -0.017273888 0.374989271 0.0892378166 -0.152711138 -0.984233677 0.943513274 0.32804808 -0.0465525277 -0.999680221 0.0230912678 -0.0103097176 -0.94141829 0.169291139 -0.291671216 -0.998518229 -0.00567246368 0.0541218705 -0.989261627 -0.119623959 0.0839736089 -0.983358443 0.164757669 0.0765578225 -0.0827750191 -0.93974936 -0.331691831 0.778114259 0.626662195 -0.042809248 -0.951074898 -0.308203936 -0.0216078367 0.127738595 0.938723862 -0.320125461 0.0970851928 0.948735416 -0.300791591 0.163801879 0.925153077 -0.342433542 0.538942635 -0.438988298 -0.718908966 -0.494326442 0.278788567 0.82335794 -0.383350194 0.34087795 0.858396649 -0.440219462 0.346485853 0.828344345 -0.310135096 0.288480312 0.905867159 -0.210349187 0.319339693 0.923999667 0.257038355 -0.431124389 -0.864906371 -0.530372024 0.3316333 0.78020823 -0.409560174 0.354817361 0.840455294 -0.433809787 0.339513063 0.83458972 0.399059623 -0.197348833 -0.895435572 0.35666272 -0.234397307 -0.9043504 0.242908329 -0.325698376 -0.913737416 0.484824002 -0.11650233 -0.866817653 -0.5144701 0.223381534 0.827901661 0.00864071213 0.189323261 0.981876791 -0.171542153 0.0950340405 0.980582416 -0.0509669594 0.234832928 0.970698655 -0.965519667 -0.215813756 -0.145588994 -0.932005405 -0.355200708 -0.0720997825 -0.9740749 -0.154934064 -0.164843813 -0.654117346 0.258344799 -0.710906804 -0.0897857174 -0.530136406 -0.843145251 -0.0767702088 -0.626545489 -0.775594652 -0.144022599 -0.471833438 -0.869845212 -0.12928322 0.289413989 -0.948433101 0.0690065548 0.211386442 -0.974963546 -0.209559128 0.316300899 -0.925223589 0.171216086 0.0660544932 -0.983016729 -0.0123875216 0.326049209 -0.945271611 0.709076285 -0.368002087 0.601485848 0.904019117 -0.372687936 0.209411517 0.927698076 -0.240294173 0.285718441 -0.400786698 0.294481009 -0.867554605 -0.187463254 -0.566320658 -0.802582383 -0.00468629645 0.999988854 -0.000533245387 -0.00417979481 0.999967635 -0.00687824329 0.0188394561 0.999416173 -0.0285021197 -0.0162804313 0.999862075 0.00328777684 -0.0162210092 0.9998281 0.0089796735 -0.0298566353 0.999276578 0.0235570055 -0.626761377 -0.775180042 0.07915885 -0.903977334 -0.0999195948 0.415741622 -0.406588525 -0.68475455 -0.604811549 0.999895692 0.0141407708 0.00294860289 0.976997435 0.00762671279 -0.213114679 0.975349903 -0.112529919 0.189814597 0.998475671 -0.00625739945 0.0548373759 0.992777824 -0.00487386715 0.119868271 -0.329710215 -0.621812105 0.710380793 -0.48626551 -0.710972905 0.50799942 -0.308678716 -0.65334481 0.691272795 -0.999152005 0.0411724411 0.000365095038 -0.999049783 -0.043532975 0.00209321291 -0.999379456 -0.000569931755 -0.0352189839 -0.992101789 0.121008441 -0.0330303498 -0.995238662 0.0294136349 -0.0929238871 -0.00875970162 0.820705831 0.571283877 0.119432107 0.727770269 0.675341666 -0.0779142603 0.85869813 0.506524265 0.262819737 -0.354217649 0.897471786 0.0680451691 -0.440050423 0.895391226 -0.996463776 -0.0820938721 0.0179038327 -0.99205476 -0.125361696 0.0105726933 0.021815734 0.967508018 -0.251897454 0.939405978 0.149907127 -0.308292508 0.987902403 0.0537783243 -0.145453602 0.997158706 0.041209545 -0.0630580336 -0.99568063 0.0850750878 0.037178874 -0.905749261 0.421810061 -0.0411641374 0.894655883 0.253772646 -0.367682368 0.965592146 -0.0586681142 0.253357112 0.99715662 -0.0401005745 0.0638015717 0.990082026 -0.0312244408 0.136976644 0.997725904 -0.000807292585 0.0673972443 0.995118558 -0.096807681 0.0191658288 0.00956866983 -0.999888659 -0.0114493258 0.990732253 -0.0874169841 0.103961006 0.986977935 -0.108882517 0.118402354 -0.225780949 0.910283804 0.346996188 -0.435835063 0.260245085 -0.861580133 -0.212414742 -0.952387333 0.21871987 -0.0354462601 -0.989281893 0.141650483 -0.125599936 -0.97533226 0.181525856 0.0324650742 -0.993313134 0.110792808 -0.425958663 0.233717099 0.874034047 -0.801410496 -0.422459036 -0.423402458 0.993550479 0.0928741619 0.0650520995 0.21436432 -0.641223013 -0.736804545 0.999495625 -0.0157432016 0.0275804158 0.997743249 0.0636938065 0.0212474614 0.963544726 -0.00929409824 0.26738587 0.347026139 -0.932709515 -0.0981113687 0.310425073 -0.948868334 0.0573163778 0.318196237 -0.947637379 0.0271025095 0.275864422 -0.944371641 0.17905587</float_array>
          <technique_common>
            <accessor source="#normals_array" count="132" stride="3">
              <param name="X" type="float" />
              <param name="Y" type="float" />
              <param name="Z" type="float" />
            </accessor>
          </technique_common>
        </source>
        <vertices id="vertices">
          <input semantic="POSITION" source="#positions" />
        </vertices>
        <triangles material="scout_1a1a1a" count="96">
          <input semantic="VERTEX" source="#vertices" offset="0" />
          <input semantic="NORMAL" source="#normals" offset="1" />
          <p>0 0 1 1 2 2 2 3 3 4 0 5 4 6 3 6 2 6 5 7 3 7 4 7 6 8 0 5 3 4 6 9 4 9 0 9 7 10 6 11 3 12 8 13 9 13 10 13 11 14 12 15 13 16 14 17 15 18 16 19 2 20 1 20 7 20 7 21 5 21 2 21 5 22 7 22 3 22 1 23 6 11 7 10 1 24 17 24 6 24 18 25 19 26 20 27 21 28 18 25 22 29 6 30 5 30 4 30 6 31 2 31 5 31 17 32 2 32 6 32 17 33 23 34 24 35 25 36 26 36 27 36 28 37 25 38 27 39 22 40 29 41 25 38 30 42 29 42 22 42 26 43 25 38 31 44 29 41 31 44 25 38 31 45 28 37 27 39 29 46 28 47 31 48 29 46 26 49 28 47 28 37 22 40 25 38 26 50 22 40 28 37 32 51 26 52 33 53 32 54 23 55 26 56 0 0 17 57 1 1 34 58 10 59 4 60 24 61 35 62 4 63 24 61 36 64 35 62 35 62 34 65 4 63 34 66 35 67 37 68 17 69 24 61 4 63 0 70 4 60 10 59 26 52 15 18 33 53 36 71 38 72 35 73 33 74 39 75 32 76 10 77 16 77 8 77 16 78 26 78 8 78 0 70 10 59 9 79 40 80 34 81 37 68 19 82 41 83 20 84 27 85 9 86 8 87 0 88 9 89 27 90 0 88 27 90 17 91 29 92 17 91 27 90 22 93 26 94 23 95 26 96 31 97 8 87 15 18 26 52 16 19 24 98 23 55 36 99 32 54 36 99 23 55 21 100 23 34 17 33 30 101 11 102 42 103 27 85 8 87 31 97 18 25 12 15 11 14 18 25 11 14 30 104 18 25 30 104 22 29 12 15 18 25 20 27 17 91 29 92 21 105 30 101 42 103 29 106 15 107 14 108 43 109 33 110 15 107 43 109 33 110 43 109 44 111 36 112 32 112 39 112 21 113 41 83 18 114 23 95 21 115 22 93 39 75 33 74 38 72 39 75 38 72 36 71 17 69 4 63 2 116 45 117 14 118 10 119 10 119 14 118 16 120 27 121 26 121 29 121 45 122 34 122 40 122 44 111 37 68 35 67 41 83 12 123 20 84 45 124 10 59 34 58 40 80 37 68 45 125 37 68 44 111 45 125 45 125 44 111 14 108 44 111 43 109 14 108 19 82 18 114 41 83 41 83 42 103 12 123 13 126 12 123 42 103 11 102 13 126 42 103 41 83 21 113 42 103 29 127 42 103 21 113 35 128 38 129 44 130 38 129 33 131 44 130</p>
        </triangles>
      </mesh>
    </geometry>
  </library_geometries>
  <library_visual_scenes>
    <visual_scene id="scene">
      <node id="right_hip_pitch_link">
        <instance_geometry url="#geometry">
          <bind_material>
            <technique_common>
              <instance_material symbol="scout_1a1a1a" target="#scout_1a1a1a" />
            </technique_common>
          </bind_material>
        </instance_geometry>
      </node>
    </visual_scene>
  </library_visual_scenes>
  <scene>
    <instance_visual_scene url="#scene" />
  </scene>
</COLLADA>