<?xml version='1.0' encoding='utf-8'?>
<COLLADA xmlns="http://www.collada.org/2005/11/COLLADASchema" version="1.4.1">
  <asset>
    <created>2026-09-14T00:00:00Z</created>
    <modified>2026-09-14T00:00:00Z</modified>
    <unit name="metre" meter="1" />
    <up_axis>Z_UP</up_axis>
  </asset>
  <library_effects>
    <effect id="scout_1a1a1a_effect">
      <profile_COMMON>
        <technique sid="common">
          <lambert>
            <emission>
              <color>0 0 0 1</color>
            </emission>
            <ambient>
              <color>0.05 0.05 0.05 1</color>
            </ambient>
            <diffuse>
              <color>0.1 0.1 0.1 1</color>
            </diffuse>
          </lambert>
        </technique>
      </profile_COMMON>
    </effect>
  </library_effects>
  <library_materials>
    <material id="scout_1a1a1a" name="scout_1a1a1a">
      <instance_effect url="#scout_1a1a1a_effect" />
    </material>
  </library_materials>
  <library_geometries>
    <geometry id="geometry" name="right_hip_roll_link">
      <mesh>
        <source id="positions">
          <float_array id="positions_array" count="294">-0.0381058492 -0.0309667084 -0.392654657 -0.0322442465 -0.0386315435 -0.42878601 -0.0327897072 -0.0439636447 -0.351567775 -0.0383696146 -0.0401370823 -0.31774497 -0.0429620855 -0.038241636 -0.263875932 -0.044182457 -0.0469715782 -0.230527267 -0.0330613889 -0.0311151184 -0.4378362 -0.0393116884 -0.0300058722 -0.334557295 -0.008964248 -0.0353800654 -0.450698286 -0.0596457757 -0.0393441878 -0.194251701 -0.0647190213 -0.0404571779 -0.140810072 -0.0535094142 -0.0481997207 -0.0999980047 -0.0627615452 -0.0391969644 -0.100633129 -0.0364401862 -0.04694717 -0.0760993958 -0.0495787673 -0.0395256579 -0.0801600739 0.00143876893 -0.0539160781 -0.184477359 0.0587805323 0.0454079024 -0.247849151 0.0425570458 0.0506036766 -0.189932302 0.044985421 0.049478177 -0.14813602 -0.011155366 -0.0540641733 -0.0841266438 -0.0427452885 0.0421803258 -0.270570457 -0.0341109447 0.0358393639 -0.433211386 -0.0379573666 0.0308424905 -0.392221481 -0.039291136 0.0303692501 -0.335413396 -0.0333281904 0.0464896038 -0.32520631 -0.0485815145 0.0487021394 -0.196571171 -0.0451992899 0.0183314122 -0.0765723139 0.0301270019 0.0386125259 -0.438533425 -0.0156983901 0.0336718149 -0.449640542 -0.0615621917 0.0421258472 -0.193873808 -0.0631178021 0.0440420024 -0.111677445 -0.0664062575 0.0404370613 -0.142291069 -0.0429202504 0.0562511422 -0.180859417 -0.0218274482 0.0510620251 -0.210632041 -0.0443144739 0.0496278889 -0.146922126 -0.0370246284 0.0588392615 -0.138014495 -0.02415918 0.0596251376 -0.205767944 -0.0237216074 0.0508892499 -0.12479943 0.0179329906 0.0463494807 -0.110081367 0.0272605643 0.0501625016 -0.209702224 -0.000324469933 0.0594806783 -0.166486725 0.0208180305 0.0593891293 -0.204796821 0.0129149342 0.0566492416 -0.123723105 -0.0613566414 0.0248122755 -0.0940193459 0.0425210074 -0.0386513062 -0.425730526 0.0238835346 -0.0313153826 -0.4469634 0.0510470383 -0.032893341 -0.411874771 0.0489958934 -0.0442818329 -0.352625757 0.0510524735 -0.0289944503 -0.375511438 0.056448061 -0.034825895 -0.306618541 0.049999848 -0.0419526063 -0.312763542 0.0307301953 -0.0451708548 -0.0747599751 0.0285740942 -0.0504568517 -0.00418023998 0.029785268 -0.0407116599 -0.0713136271 0.052917622 -0.0479776897 -0.0131530128 0.039512597 -0.0504570864 -0.0807929859 0.0664091334 -0.0406836793 -0.118412219 0.0534764528 -0.046976041 -0.184125975 0.0588939451 -0.041189231 -0.0269204397 0.0264531858 0.0503169522 -0.126614615 0.0664499402 0.0432565473 -0.115683623 0.0397390388 -0.0272224043 0.0417943187 0.028128298 -0.0413920358 0.0278912932 0.0467647985 -0.0475371927 0.0142920092 0.0284616277 -0.0153306574 0.0485237166 0.0224787965 0.0306857899 -0.44767195 0.048807364 0.0309923254 -0.419161439 0.0490041636 0.0401308089 -0.397288322 0.0505305119 0.044769302 -0.329782516 0.0551934205 0.0393326506 -0.337192088 0.0513309389 0.0290341508 -0.375703126 0.0283319969 0.0199804343 -0.0749020278 0.0412557162 0.0581681542 -0.188168272 0.0408722721 0.0587217808 -0.148721516 0.0294483025 0.021583138 -0.0550422445 0.0653138012 0.0212656409 -0.0923736617 0.00777876657 -0.0478126369 -0.309598207 0.0281399023 0.0486984067 0.013800025 0.0479970053 0.0473705977 0.0161395688 0.0515540428 0.0467348509 -0.0184286423 0.0613289326 0.0247019771 -0.0388732031 0.0589376353 0.0182988811 -0.057711564 0.0384243838 0.0224757493 0.0445088111 0.0278955624 0.0250508692 0.043562036 -0.0648017377 -0.00933532696 -0.180512339 -0.0244558025 0.0289998967 -0.347054899 -0.0241033155 -0.0287901107 -0.347387344 -0.0118595203 -0.0292612799 -0.377837688 -0.0288053192 -0.0292247366 -0.373710901 -0.0127802072 0.0291673616 -0.378187001 -0.0288391244 0.0292124655 -0.373279482 0.026485892 -0.0363749005 0.00708769122 0.0275705364 -0.0226332806 -0.029632112 0.0170732588 0.0296504553 -0.0951282233 0.0281057116 0.0453835391 -0.0205888543 0.0260094218 0.00745361717 0.0364576988 0.0263380762 0.0357220434 0.0011789347 0.0268261041 0.0152557455 -0.0339929424</float_array>
          <technique_common>
            <accessor source="#positions_array" count="98" stride="3">
              <param name="X" type="float" />
              <param name="Y" type="float" />
              <param name="Z" type="float" />
            </accessor>
          </technique_common>
        </source>
        <source id="normals">
          <float_array id="normals_array" count="618">-0.887515604 -0.45850873 -0.0456708409 -0.958840609 -0.26608783 -0.0991058052 -0.831202507 -0.551647186 -0.0691940784 -0.872205973 -0.486156881 -0.05392766 -0.979495347 -0.153077066 -0.130981773 -0.47265625 -0.874502003 -0.108822681 -0.966310561 -0.234028846 -0.107118651 -0.995473683 -0.0879081488 -0.0361148454 -0.423334569 -0.71536833 -0.55591011 -0.588928223 -0.804015636 -0.0819902644 -0.493119895 -0.869324327 -0.0332855508 -0.469694227 -0.860727549 0.19630453 -0.674193084 -0.705824375 0.217429772 -0.578016877 -0.71434468 0.394471943 -0.539779603 -0.772203505 0.335171223 0.00396385742 -0.999685526 -0.0247616097 0.136442646 0.990340292 -0.0246893615 0.262235045 0.964915037 -0.0131069776 0.239001542 0.970550656 0.0301618073 -0.170839235 -0.940008104 0.295294315 -0.032878194 -0.943337142 0.330202967 -0.9523561 0.275672376 -0.130470693 -0.906974554 0.416236252 -0.0643778741 -0.970837533 0.232148409 -0.0598463416 -0.99459517 -0.0976842269 -0.0351884887 -0.70836848 0.702686906 -0.0666722357 -0.461093605 0.884235859 -0.0742943585 -0.433276027 0.0061029708 0.901240587 -0.572024643 -0.0326996557 0.81958437 -0.127113581 -0.00987068843 0.991839051 -0.0531666428 0.990664661 -0.125526384 0.010713256 0.966456652 -0.256606191 -0.042954728 0.966581345 -0.252735943 -0.465879828 0.882649243 -0.062339887 -0.143610939 0.890336514 0.432061076 -0.598458171 0.800592601 -0.0299895555 -0.204531163 0.95158571 -0.229459569 -0.258895725 0.903736055 -0.340931296 -0.0735868067 0.994544148 -0.0739385933 -0.853561997 0.516819715 0.0657971948 -0.857941628 0.509716153 0.0642309487 -0.821677446 0.564799428 0.0764707699 -0.817059159 0.571263969 0.0779221058 -0.800877035 0.115667798 -0.587551594 -0.727010667 -0.0836824104 0.681507707 0.0723690838 0.792217255 0.605932832 -0.101833194 0.895145118 0.433987588 0.0249379613 0.496312648 -0.867785573 0.365147024 0.576004088 -0.731359661 0.0255516116 0.498999268 -0.8662256 -0.00794184674 0.999777138 0.0195610169 0.0261726826 0.999584734 0.0120555358 -0.049966488 0.998172402 0.0339890569 -0.139031991 0.767342448 0.625983715 -0.140491813 0.779542983 0.610389054 -0.957059622 -0.0184419025 0.289303988 -0.945051789 0.00661201356 0.326853722 0.0282730553 -0.988147259 -0.150882646 0.0313062929 -0.980690479 -0.19304429 0.159620047 -0.881380498 -0.444623351 0.697860003 -0.707451165 -0.111822754 0.878031254 -0.475669056 -0.0529154986 0.67840004 -0.725483358 -0.115962476 0.968346179 0.243422985 -0.0552348718 0.998147488 0.00701302523 -0.0604351722 0.92532742 0.376993477 -0.0405596346 0.770044088 -0.636695027 -0.040639732 0.471276194 -0.881983876 0.00178574095 0.00886033475 -0.744649589 0.667396784 -0.993761003 -0.10666886 -0.0325693861 -0.990783513 -0.0798918158 -0.109386005 -0.986076713 -0.119911857 -0.115212068 0.591195941 -0.797373831 0.121170774 0.0515966676 -0.994320869 0.0930797681 0.159386799 -0.987214744 -0.00169793039 0.861546755 -0.507669985 0.00289952848 0.387007833 -0.921308398 -0.0376270153 0.947926342 -0.285867155 0.140412226 -0.994209588 0.00994153507 0.106997341 0.33063972 0.85585624 0.397727847 0.162077457 0.900630772 0.403230906 -0.0761122033 -0.665856063 0.742187738 0.0429235846 -0.824752331 0.563862741 0.027124472 -0.958113372 0.285101742 -0.181402817 -0.608986616 0.772158265 0.0916127339 0.713013887 -0.69513905 0.732250631 0.0739819109 -0.677004933 0.615688622 0.725097477 -0.30848214 -0.55336684 -0.829182327 -0.0790052488 0.705398798 0.705003023 -0.073370479 0.710310876 0.700681746 -0.0671086162 0.712636769 0.698597252 -0.0641154572 0.994123459 0.089231126 -0.0612888224 0.997211099 -0.0106235789 -0.0738724843 0.995733917 0.00902940892 -0.0918281376 0.993033469 0.105280533 -0.0529204905 0.703075647 0.707009315 -0.0763045773 0.220375553 0.573398411 -0.789081037 0.454132736 0.754750609 0.473407894 -0.9986251 -0.0210742 0.0479976758 0.894190907 0.310366482 -0.322637945 0.900070488 0.239699438 -0.363891929 0.0337831378 0.999419987 0.00428699842 0.671943009 0.43112722 0.602180898 0.0183189698 0.999790788 0.00909659918 0.100775689 0.887587965 0.44947961 0.00859508384 0.979015172 0.203606129 0.0360571072 -0.998407245 -0.0433915369 0.0401689373 -0.998248339 -0.0434365645 0.91355288 0.406707555 0.00317222252 0.925415516 0.378933311 -0.00396202412 0.71488291 0.356216431 0.601707816 0.0246477779 0.998773396 -0.0429445095 0.0680455938 0.997617722 -0.0113455122 0.00445280923 0.941523015 -0.336919248 0.930149972 0.363307118 0.053188365 0.960769176 0.275903821 -0.0282787886 0.737786889 0.605050147 -0.299307346 0.967962444 0.0518602841 0.245681033 0.999826372 0.00211290387 -0.018513279 0.997922659 -0.010894387 0.0634959489 -0.803578556 0.587147713 -0.0975654796 0.034843754 0.0964546353 0.994727314 -0.0595278293 0.120914541 0.990876436 0.42823562 -0.0168993045 0.90350908 0.484701514 -0.0349148698 0.873982489 0.0776797533 0.744594038 0.662982285 0.116831698 0.726609886 0.677043915 0.0046764384 0.773884594 0.633309364 -0.991402984 -0.0356086083 -0.12590526 -0.999682844 0.018766271 0.0167932641 -0.623302221 -0.00868672691 -0.781932831 -0.644834161 0.000463705219 -0.76432234 -0.639368653 -0.00188132015 -0.76889801 -0.617921948 -0.0109372009 -0.78616339 -0.0223222636 -0.997370839 -0.0689426214 0.00356428418 -0.995598197 -0.0936565399 0.959322572 -0.0150391981 0.281911403 0.959959924 -0.0647651851 0.27254799 0.0137059493 0.997369647 -0.0711751804 -0.0511370488 0.982299209 -0.180203319 0.0785525292 0.996632874 -0.0235040821 -0.446040362 0.889919221 -0.0953508615 0.0748821422 0.997150958 0.00908879936 -0.152353168 0.988195419 -0.0160710998 -0.0642515719 0.997662604 -0.0232599266 -0.0117232855 0.996384859 -0.0841417238 0.0937439129 0.993548393 -0.0638252795 -0.103624873 0.994491518 -0.0157640912 -0.0951159596 0.995295465 -0.0184348151 -0.979337096 -0.0840476677 -0.183942497 -0.0214968175 0.00282928161 0.999764919 -0.0227394328 0.00134275167 0.999740541 0.119572774 0.987098694 0.106482476 -0.125525877 -0.000263569731 -0.992090285 -0.0995617062 -0.00751743931 -0.995002985 -0.246573418 -0.00661750045 -0.969101548 -0.292231023 0.00689110113 -0.956322908 -0.996507645 -0.0834342316 0.00335892639 -0.998902678 -0.0349899419 -0.0311317239 -0.098388955 -0.994587004 -0.0334113017 -0.0868920162 -0.996196866 0.00644863117 -0.105268717 -0.99444294 0.00132263917 0.0131825563 -0.999514699 -0.0282231048 -0.0327744372 -0.997501075 -0.0625898689 -0.02700538 -0.998635173 -0.0447044075 0.0642809942 -0.996745527 -0.0486446694 -0.027784355 -0.995107591 -0.0948096216 -0.109075606 -0.992333949 -0.0581023991 -0.133337975 -0.988721371 -0.0681980774 -0.999875546 0.000841023109 0.0157523435 -0.983033299 0.00987362955 -0.183161139 -0.232796639 0.97206682 0.029862741 0.000372996321 0.998418748 -0.0562128276 -0.0292530153 0.927869201 0.371756613 -0.0344616547 0.77755326 0.62787205 0.0182296522 0.794247568 0.607320726 -0.0783856809 0.996888518 0.00830816571 -0.0177366864 0.999842644 -0.000337887759 0.00663080951 0.999604642 0.0273246914 0.00644677877 0.997924089 0.0640781075 0.0519167371 0.997282505 -0.0522712059 -0.0209621806 0.933979809 -0.356710464 0.0285539031 0.815788269 -0.577645361 -0.994802356 0.0108422004 0.101245552 -0.997464836 0.0711089671 -0.00271399878 -0.997826576 0.025690861 -0.0606804453 0.0378918499 -0.00438235095 -0.999272227 0.0387064703 -0.00348659465 -0.999244571 0.0092111472 -0.745406449 0.666546643 0.998563826 0.00958097447 -0.0527118817 -0.99468869 -0.0803129449 0.0643754676 -0.994794607 0.0864193887 -0.0539943874 -0.998275101 0.0246010236 -0.0533062257 -0.994043827 0.102778986 0.0362406895 -0.993218362 0.068264775 0.0941129774 -0.992575824 -0.0475412421 0.111951254 0.0271689501 0.998004019 -0.0570074581 0.0272302516 0.99821353 -0.0531816334 -0.984926105 -0.00557308039 0.172885746 -0.984374464 -0.0070162788 0.175947994 -0.985802591 -0.00321481796 0.167877793 -0.986317992 -0.00178754085 0.164844394 0.0379109085 0.8128317 -0.581263661 -0.0209177118 0.782856524 0.62185061 0.94554621 0.00723869074 0.325407445</float_array>
          <technique_common>
            <accessor source="#normals_array" count="206" stride="3">
              <param name="X" type="float" />
              <param name="Y" type="float" />
              <param name="Z" type="float" />
            </accessor>
          </technique_common>
        </source>
        <vertices id="vertices">
          <input semantic="POSITION" source="#positions" />
        </vertices>
        <triangles material="scout_1a1a1a" count="192">
          <input semantic="VERTEX" source="#vertices" offset="0" />
          <input semantic="NORMAL" source="#normals" offset="1" />
          <p>0 0 1 1 2 2 3 3 2 2 4 4 4 4 2 2 5 5 6 6 1 1 0 0 0 0 3 3 7 7 1 8 6 8 8 8 9 9 4 4 5 5 10 10 9 9 5 5 11 11 10 10 5 5 11 11 12 12 10 10 12 12 11 11 13 13 14 14 12 12 13 13 11 11 5 5 15 15 16 16 17 17 18 18 13 19 11 11 19 20 20 21 21 22 22 23 20 21 22 23 23 24 24 25 21 22 20 21 20 21 25 26 24 25 26 27 14 28 13 29 21 30 27 31 28 32 29 33 25 26 20 21 30 34 25 26 29 33 31 35 30 34 29 33 25 36 32 37 33 38 32 39 25 40 34 41 35 42 32 39 34 41 32 43 36 43 33 43 35 44 34 44 37 44 30 34 38 45 37 46 36 47 39 48 33 49 40 50 41 51 36 52 42 53 35 54 37 46 38 45 42 53 37 46 12 55 14 28 43 56 44 57 8 58 45 59 46 60 47 61 44 62 48 63 49 64 46 65 49 66 47 61 46 60 49 66 50 67 47 61 23 24 7 7 20 21 51 68 13 19 19 20 52 69 53 70 51 71 54 72 52 73 55 74 50 67 56 75 57 76 49 66 56 75 50 67 56 75 58 77 54 72 30 78 12 55 43 56 18 18 59 79 60 80 61 81 62 82 63 83 62 82 52 73 63 83 61 81 64 84 62 82 27 31 65 85 28 32 27 86 66 86 65 86 27 87 67 87 66 87 55 88 52 88 51 88 68 89 69 90 67 91 67 92 69 93 70 94 67 92 70 94 66 95 69 90 68 89 16 96 36 47 41 97 39 48 38 45 59 79 42 98 71 99 51 71 53 70 41 97 72 100 39 48 72 100 17 101 39 48 40 50 72 102 41 51 73 103 42 98 59 79 74 104 75 105 71 106 76 107 47 108 50 67 38 45 60 80 59 79 72 100 73 109 18 110 73 103 59 79 18 111 77 112 78 113 79 114 79 115 80 116 81 117 79 115 78 118 80 116 60 119 75 120 56 75 75 121 81 121 80 121 82 122 83 123 64 124 82 122 64 124 61 125 83 126 82 127 78 128 84 129 10 130 12 55 85 131 86 132 7 133 23 134 85 131 7 133 47 108 76 107 44 57 44 57 76 107 2 135 8 58 44 57 1 136 44 57 2 135 1 136 61 137 63 138 58 77 87 139 48 140 44 141 48 140 46 142 44 141 87 139 44 141 45 143 88 144 87 139 0 145 87 139 45 143 8 146 6 147 87 139 8 146 87 139 6 147 0 145 88 144 0 145 86 148 0 145 7 149 86 148 9 150 84 129 4 4 84 129 9 150 10 130 51 151 26 27 13 29 26 27 51 151 71 152 81 153 75 105 74 104 89 154 87 155 88 156 90 157 89 154 88 156 50 67 57 76 15 15 91 158 92 159 52 69 92 159 53 70 52 69 90 160 85 161 23 162 70 163 89 164 65 165 66 166 70 163 65 165 89 164 90 160 22 167 65 165 89 164 28 168 90 160 23 162 22 167 21 169 89 164 22 167 89 164 21 169 28 168 31 170 29 171 84 129 15 15 2 135 76 107 2 2 3 3 0 0 15 15 76 107 50 67 29 171 20 21 4 4 31 170 12 55 30 78 84 129 29 171 4 4 30 34 37 46 34 172 58 77 56 75 75 120 24 173 25 36 33 38 26 174 71 106 43 175 93 176 43 175 71 106 36 52 32 177 40 50 32 177 35 178 40 50 73 179 40 50 42 180 40 50 35 178 42 180 72 102 40 50 73 179 24 173 33 38 39 181 39 181 17 17 16 16 54 72 58 77 63 138 94 182 79 114 74 183 43 56 14 28 26 27 91 158 95 184 92 159 92 159 95 184 96 185 92 159 96 185 97 186 48 187 89 154 70 188 89 154 48 187 87 155 56 75 54 72 57 76 19 20 11 11 15 15 15 15 55 74 19 20 55 189 51 68 19 20 57 76 55 74 15 15 63 83 52 73 54 72 69 93 49 64 70 94 49 64 48 63 70 94 55 74 57 76 54 72 56 75 49 64 60 119 16 190 60 119 49 64 16 190 49 64 69 93 12 55 31 170 84 129 80 116 58 77 75 120 25 26 30 34 34 172 92 159 97 186 53 70 62 191 95 184 91 158 97 186 96 185 94 192 53 70 97 186 74 193 71 99 53 70 74 193 96 185 77 194 94 192 94 192 74 193 97 186 96 185 95 184 83 195 77 194 96 185 83 195 64 196 83 195 95 184 64 196 95 184 62 191 91 158 52 69 62 191 78 118 61 137 58 77 3 3 4 4 7 7 27 31 21 30 24 173 67 197 27 31 24 173 24 173 68 198 67 197 68 198 24 173 39 181 75 105 93 176 71 106 88 199 86 200 85 201 90 202 88 199 85 201 15 15 5 5 2 135 68 198 39 181 16 16 7 7 4 4 20 21 72 100 18 110 17 101 94 182 77 112 79 114 75 105 60 80 38 45 79 114 81 203 74 183 30 34 43 175 38 45 60 80 16 16 18 18 38 45 93 176 75 105 93 176 38 45 43 175 77 204 83 126 78 128 61 137 78 118 82 205 78 118 58 77 80 116</p>
        </triangles>
      </mesh>
    </geometry>
  </library_geometries>
  <library_visual_scenes>
    <visual_scene id="scene">
      <node id="right_hip_roll_link">
        <instance_geometry url="#geometry">
          <bind_material>
            <technique_common>
              <instance_material symbol="scout_1a1a1a" target="#scout_1a1a1a" />
            </technique_common>
          </bind_material>
        </instance_geometry>
      </node>
    </visual_scene>
  </library_visual_scenes>
  <scene>
    <instance_visual_scene url="#scene" />
  </scene>
</COLLADA>