<?xml version='1.0' encoding='utf-8'?>
<COLLADA xmlns="http://www.collada.org/2005/11/COLLADASchema" version="1.4.1">
  <asset>
    <created>2026-09-14T00:00:00Z</created>
    <modified>2026-09-14T00:00:00Z</modified>
    <unit name="metre" meter="1" />
    <up_axis>Z_UP</up_axis>
  </asset>
  <library_effects>
    <effect id="scout_1a1a1a_effect">
      <profile_COMMON>
        <technique sid="common">
          <lambert>
            <emission>
              <color>0 0 0 1</color>
            </emission>
            <ambient>
              <color>0.05 0.05 0.05 1</color>
            </ambient>
            <diffuse>
              <color>0.1 0.1 0.1 1</color>
            </diffuse>
          </lambert>
        </technique>
      </profile_COMMON>
    </effect>
  </library_effects>
  <library_materials>
    <material id="scout_1a1a1a" name="scout_1a1a1a">
      <instance_effect url="#scout_1a1a1a_effect" />
    </material>
  </library_materials>
  <library_geometries>
    <geometry id="geometry" name="right_shoulder_pitch_link">
      <mesh>
        <source id="positions">
          <float_array id="positions_array" count="111">0.024202913 -0.0992576182 -0.0269749239 -0.0351598263 -0.0789106116 -0.0478566401 0.0195182655 -0.073100239 -0.0483580902 -0.0366391763 -0.00830122735 -0.0281745158 0.0143202422 -0.0105315512 -0.0195978861 0.0263096765 -0.0392090417 -0.0402885303 -0.0204827711 -0.00572688039 -0.0215695985 0.00541399606 -0.0306366719 -0.036855977 -0.013230022 -0.0395646878 -0.0416051149 -0.0217376016 -0.0159237608 -0.00116494449 -0.0357844457 -0.10983751 -0.00439577363 -0.00333436136 -0.019396998 -0.0221237969 0.00536328135 -0.00323812477 -0.0149411988 -0.016694339 -0.0193942785 0.00294846948 -0.0341104083 -0.0166027118 0.0259025469 -0.0361481681 -0.0763836056 0.0391370915 -0.0346677229 -0.0284572802 -0.028246209 -0.0320162587 -0.0120929619 0.02578374 -0.0331998318 -0.0345152244 0.0172489621 -0.0147188557 -0.0451996699 0.0320962891 -0.0216375906 -0.0279703457 0.016089594 0.0143309608 -0.0257953778 0.0181358587 -0.0156505387 -0.0302621312 0.0210353173 -0.0162745602 -0.020493811 0.00792370457 -0.0207817219 -0.0211064629 0.0153968474 -0.0172935631 -0.0240248833 0.0064678099 -0.0109220855 -0.0199107341 0.0106920041 -0.0031701799 -0.0243040938 0.0205862094 0.0112832878 -0.0348028392 0.0286407266 0.0135274772 0.00332515384 0.00142195122 -0.00712911272 -0.000256470666 0.0141925886 0.000272342702 -0.0151725933 -0.00633838261 0.0105050988 -0.0177296977 -0.0113092484 0.0193409715 -0.0209733993 -0.0149913514 0.0227917507 -0.0261645522 0.0153296189 0.0228547193 -0.0940624624 0.0213701874 0.0191671848 -0.0571660884 0.037778262</float_array>
          <technique_common>
            <accessor source="#positions_array" count="37" stride="3">
              <param name="X" type="float" />
              <param name="Y" type="float" />
              <param name="Z" type="float" />
            </accessor>
          </technique_common>
        </source>
        <source id="normals">
          <float_array id="normals_array" count="420">-0.00247944565 -0.719729245 -0.694250464 -0.0316560827 -0.759349465 -0.649912536 0.0593236536 -0.625408232 -0.778039396 0.0398522355 0.452827603 -0.890707016 0.152631402 0.724406183 -0.672264338 -0.000704371661 0.36366871 -0.931528091 -0.0225342214 0.505781591 -0.862367213 0.748350322 0.57379365 0.332765251 -0.0746823922 -0.811983407 -0.578882933 -0.318997353 -0.43431583 0.842383802 -0.209648371 -0.300711036 0.930387259 -0.308910161 -0.422064483 0.852312207 -0.397548765 -0.529095948 0.749674916 -0.683227301 0.325174898 -0.653805554 0.879684329 0.196290404 0.433157593 0.881671727 0.105233401 0.459979266 0.880342782 0.0703599229 0.4690907 -0.997502744 0.045888219 0.0536899082 -0.999867976 0.0103165777 0.0125538502 -0.999881983 0.00653386768 0.0139023671 0.904778481 -0.417881429 0.082164757 0.833676994 -0.552213609 0.00654231617 0.998560727 -0.0384952649 -0.0373441577 0.686302841 0.226811871 -0.691046119 -0.86600548 -0.479504883 -0.141808078 -0.182590514 0.713625848 0.676312685 -0.0720876232 0.296067417 0.952442884 -0.126184881 0.608100832 0.783767045 0.256308347 -0.72062856 -0.644205332 0.413513452 -0.52503264 -0.743873179 0.245650068 -0.731321871 -0.636258125 0.641442597 0.629518926 0.438471496 0.59811312 0.635721445 0.487974286 0.276046753 0.611416221 0.741598547 0.195747316 0.591436684 0.782231152 -0.729363799 -0.417903632 0.541650295 0.928377628 -0.123372607 -0.350562602 0.850292504 -0.028698219 -0.525527477 0.919842482 -0.110221267 -0.376485199 -0.67465508 0.00963335671 -0.738070309 -0.986219108 0.132916436 0.0985141546 0.0260553006 0.954466343 0.297178626 0.0638328195 0.948568702 0.310068935 -0.000502742943 0.987931788 0.154888779 0.961054385 -0.197742954 -0.193060085 -0.0969396755 0.910949051 0.400967002 0.0243774205 0.999614477 -0.0132927597 0.0101352856 0.992341697 0.12310648 0.146801427 -0.53826952 -0.829888701 0.122254469 -0.529850125 -0.839233398 0.119786352 -0.528983057 -0.840135813 0.87854743 0.211725444 0.428166687 0.0773294792 0.991990924 -0.0998705253 0.114585266 -0.993336916 -0.0123268105 0.202181384 -0.706191063 0.678540289 0.226611987 -0.715750098 0.660566986 0.280430734 -0.734510541 0.617942393 -0.638620138 -0.751232982 0.166773304 0.537094891 -0.330608487 0.776032925 -0.00698715122 -0.926891804 0.375263542 0.552018464 0.403010398 0.729971409 0.477087826 0.48702395 0.731570184 0.564406395 0.382139474 0.731720448 0.478810281 0.445648491 0.756398141 0.126491413 0.875009179 -0.467288792 0.0136405509 0.995858848 -0.0898837149 -0.901154578 -0.287214726 0.324696928 0.283377558 0.854618311 -0.435114533 -0.15726696 0.720980108 0.674873948 -0.229201779 0.77079457 0.594426036 -0.481162667 0.86645478 0.13318634 -0.480851054 0.866543591 0.133732602 -0.477032483 0.867599905 0.140393898 -0.841983378 0.391265839 0.371449947 -0.051185552 0.256293923 -0.965242684 -0.023908183 0.999714017 -0.000510007376 0.0572046228 -0.904148638 0.423370808 0.132888913 -0.797605634 0.588358521 0.0236280896 -0.66833204 0.743487716 -0.999886632 -0.0108591933 -0.0104281195 -0.999601722 -0.0141345756 -0.024424497 -0.260481596 -0.951366842 -0.16447033 0.0846055448 -0.995389223 0.0451906808 -0.00974330399 -0.990896344 -0.134273991 0.174077585 0.463567257 0.868793666 0.0497452803 0.34019506 0.939038217 -0.10395278 0.516255915 0.850102127 0.205435365 0.293848753 0.933514416 0.157152325 -0.388134271 0.908105135 0.610271752 0.275161803 0.74286896 0.450365663 -0.766309142 -0.458193243 -0.473284245 -0.86772567 -0.151836172 -0.179510102 -0.963660598 -0.197824016 0.997469068 -0.0468531512 -0.0534816422 0.995190203 0.0887438059 -0.0414856039 0.996852875 -0.0046922192 0.0791352168 -0.857121468 0.47992453 0.187123492 0.141623452 0.771131516 -0.620724559 0.145024568 0.828586519 -0.540751517 -0.892692804 0.442470431 0.0855539069 -0.0372662246 0.267598987 -0.962809443 -0.482470423 0.866077423 0.130889907 0.730241954 -0.677657664 0.0867565423 0.422190934 -0.906307518 -0.0190122407 -0.218059778 0.963054538 0.158037558 -0.427032739 0.900355518 0.0836841911 -0.30785656 0.942833781 0.127627358 -0.499987692 0.864316881 0.0544848517 -0.459604561 -0.729453444 -0.506617486 -0.287252545 -0.290005296 -0.912898064 0.212733313 -0.970869124 0.110261731 -0.224963859 -0.769946992 0.597137213 0.227837324 0.489419401 0.841759384 -0.95852083 -0.209252745 -0.193522781 0.994079232 0.0810173154 0.0724061653 0.983075738 0.0171386506 0.182396203 0.935594082 -0.107397586 -0.336347222 0.912635684 0.406639159 -0.0417214744 -0.29880318 0.927873313 -0.223086834 0.142647535 -0.68030262 0.71891588 -0.0836816654 -0.962175608 -0.259259462 0.908423603 0.415165931 -0.0490283705 -0.807582498 -0.135044426 0.574084997 -0.0695142224 -0.808301687 -0.584650517 0.999262452 0.0356961153 0.0141557055 0.107861005 0.937216699 0.331648737 0.0507008247 0.910937726 0.409416556 0.226252466 0.943187118 0.243326709 -0.0641039759 0.8615188 0.503662646 0.885468066 0.464345932 -0.0181426778 0.338818014 0.933015645 0.121178254 0.0805346444 -0.863613784 -0.497680038 0.286131144 0.539805114 0.791668773 -0.542519867 -0.553449154 -0.631954253 -0.690966904 -0.643555105 -0.329243928 -0.620018542 -0.599199235 -0.506495178 -0.704232275 -0.6666044 -0.244326696 -0.682363927 -0.696713984 -0.221289471 -0.0890527815 0.967062533 -0.238452688 0.095176518 -0.520134628 -0.848764658</float_array>
          <technique_common>
            <accessor source="#normals_array" count="140" stride="3">
              <param name="X" type="float" />
              <param name="Y" type="float" />
              <param name="Z" type="float" />
            </accessor>
          </technique_common>
        </source>
        <vertices id="vertices">
          <input semantic="POSITION" source="#positions" />
        </vertices>
        <triangles material="scout_1a1a1a" count="94">
          <input semantic="VERTEX" source="#vertices" offset="0" />
          <input semantic="NORMAL" source="#normals" offset="1" />
          <p>0 0 1 1 2 2 3 3 4 4 5 5 6 6 7 6 8 6 9 7 7 7 6 7 10 8 1 1 0 0 11 9 12 10 6 11 11 9 6 11 8 12 9 13 11 13 7 13 13 14 7 15 11 16 14 17 3 18 15 19 16 20 17 21 18 22 17 23 19 23 18 23 20 24 19 24 17 24 21 25 20 26 18 27 22 28 19 29 20 30 23 31 24 32 22 33 24 32 19 34 22 33 9 35 16 35 13 35 25 36 9 37 23 38 24 39 20 39 17 39 24 40 9 40 20 40 24 41 26 42 9 43 25 36 23 38 22 44 22 45 21 46 25 47 24 48 27 49 19 50 13 14 25 51 7 15 25 47 21 46 7 52 26 53 24 53 23 53 8 54 4 55 11 56 26 57 28 57 27 57 29 58 30 58 14 58 6 59 12 59 29 59 31 60 32 61 4 62 31 60 33 63 32 61 32 64 33 64 7 64 34 65 7 52 21 46 34 66 32 66 7 66 27 67 24 67 17 67 21 25 19 68 28 69 25 70 18 71 20 72 13 73 16 73 25 73 5 5 2 74 3 3 26 42 31 75 9 43 10 76 35 77 15 78 10 79 15 19 3 18 1 80 10 79 3 18 13 81 11 82 32 83 21 84 15 85 36 86 21 84 14 87 15 85 36 88 15 78 35 77 4 62 12 89 31 60 32 90 11 90 4 90 21 25 18 27 19 68 9 91 13 81 23 92 0 93 5 94 35 95 9 96 6 96 16 96 6 97 29 98 4 4 4 4 3 3 6 97 12 99 11 99 31 99 3 3 2 74 1 100 25 70 16 101 18 71 17 21 6 102 30 103 3 104 14 105 6 106 30 107 6 106 14 105 9 108 25 108 20 108 30 109 27 109 17 109 35 77 10 76 0 110 26 111 23 111 34 111 14 87 21 84 29 112 27 113 30 113 31 113 34 114 36 115 35 95 2 116 5 94 0 93 33 117 34 114 5 94 29 118 12 118 30 118 4 55 8 54 7 119 34 120 13 81 32 83 6 102 17 21 16 20 5 94 4 121 33 117 33 122 4 122 7 122 26 123 34 123 28 123 21 124 4 124 29 124 34 114 35 95 5 94 27 125 31 75 26 42 34 120 23 92 13 81 34 126 31 127 28 128 31 129 30 129 28 129 31 127 34 126 33 130 22 28 20 30 21 131 21 84 36 86 34 132 28 133 30 134 21 135 4 136 21 135 30 134 4 136 30 134 12 137 9 43 31 75 11 138 27 49 28 139 19 50</p>
        </triangles>
      </mesh>
    </geometry>
  </library_geometries>
  <library_visual_scenes>
    <visual_scene id="scene">
      <node id="right_shoulder_pitch_link">
        <instance_geometry url="#geometry">
          <bind_material>
            <technique_common>
              <instance_material symbol="scout_1a1a1a" target="#scout_1a1a1a" />
            </technique_common>
          </bind_material>
        </instance_geometry>
      </node>
    </visual_scene>
  </library_visual_scenes>
  <scene>
    <instance_visual_scene url="#scene" />
  </scene>
</COLLADA>