<?xml version='1.0' encoding='utf-8'?>
<COLLADA xmlns="http://www.collada.org/2005/11/COLLADASchema" version="1.4.1">
  <asset>
    <created>2026-09-14T00:00:00Z</created>
    <modified>2026-09-14T00:00:00Z</modified>
    <unit name="metre" meter="1" />
    <up_axis>Z_UP</up_axis>
  </asset>
  <library_effects>
    <effect id="scout_1a1a1a_effect">
      <profile_COMMON>
        <technique sid="common">
          <lambert>
            <emission>
              <color>0 0 0 1</color>
            </emission>
            <ambient>
              <color>0.05 0.05 0.05 1</color>
            </ambient>
            <diffuse>
              <color>0.1 0.1 0.1 1</color>
            </diffuse>
          </lambert>
        </technique>
      </profile_COMMON>
    </effect>
  </library_effects>
  <library_materials>
    <material id="scout_1a1a1a" name="scout_1a1a1a">
      <instance_effect url="#scout_1a1a1a_effect" />
    </material>
  </library_materials>
  <library_geometries>
    <geometry id="geometry" name="right_elbow_pitch_link">
      <mesh>
        <source id="positions">
          <float_array id="positions_array" count="117">0.0289861467 -0.00436229911 -0.0370833836 -0.0316901468 -0.00813554227 0.00080639252 -0.0213026479 0.00138092844 -0.0393885821 -0.0176140927 -0.00198785192 -0.019160023 0.000990369357 -0.00326753291 -0.0367881469 -0.0263809282 -0.00116334227 0.0305581614 -0.0443020016 0.00357158575 0.000988067943 0.00805891585 -0.00772347068 0.0302949082 0.00303496816 -0.00112643058 0.0425539166 0.0482928529 0.00189085689 0.00513059879 0.0724741444 0.00296021323 0.00115696283 0.0596587732 0.00165783335 -0.0201427247 0.1207911 -0.000290802884 -0.0177935939 0.119094245 0.00934422482 0.0120364809 0.0496935472 0.00670774002 -0.0391629152 0.0222664643 -0.00167665374 0.0200605132 0.0234570522 -0.00331387785 -0.0236656889 0.0123950411 -0.00268722768 -0.0148601606 0.0904436111 -0.00118669122 -0.0195667092 0.0733455718 0.00157334888 -0.022671463 0.065886572 0.0227484237 -0.0431028344 0.0795845315 0.0134170968 0.0140685989 0.063511394 0.0206556935 0.0124196075 0.0504746959 0.0608899333 -0.0325152688 0.0706825778 0.0636931434 -0.0259727575 0.0791198909 0.0132637238 -0.035295222 0.0710201561 0.0142506333 0.0190390851 0.0542567484 0.05571004 0.0152762495 0.117190309 0.0300968066 -0.0450524352 0.12376298 0.0332547426 -0.011435735 0.00312478771 -0.00393877178 0.0209975857 -0.0142030083 -0.00100532616 0.00563740218 0.0386744514 -0.00153322332 0.00344328582 0.0549683757 0.00846641418 0.0204639658 0.0694445744 0.0448134094 0.0196580365 0.0662596226 0.0316476747 0.0145866126 0.0669212639 0.0572440885 0.00226747524 0.116014011 0.0456151292 0.0198905468 0.118993945 0.0666290596 -0.0185617134</float_array>
          <technique_common>
            <accessor source="#positions_array" count="39" stride="3">
              <param name="X" type="float" />
              <param name="Y" type="float" />
              <param name="Z" type="float" />
            </accessor>
          </technique_common>
        </source>
        <source id="normals">
          <float_array id="normals_array" count="321">0.0172344409 -0.996567369 -0.0809720308 -0.295051545 -0.95039016 0.0985043794 -0.098300755 -0.962391675 -0.253257304 0.167337194 0.985043824 0.0410724729 0.033436764 0.997144759 0.0677075684 0.222170219 0.967518687 0.120615184 -0.275782436 -0.915449858 0.293079585 -0.650658667 -0.70530802 0.281396389 0.0955018923 -0.949613452 0.298519045 -0.644795537 -0.689505994 -0.329878956 0.175940111 0.983955622 0.0296038464 0.04252965 -0.872416198 0.486909807 -0.0918416455 0.981530011 -0.167821065 -0.25753051 0.869897187 -0.420662433 -0.0742209703 0.996333003 -0.0425649844 0.147299901 -0.969588995 0.195448101 0.194205195 -0.930190623 0.311496049 0.170919597 -0.512720823 -0.841370225 0.0511462986 -0.275974244 -0.959803224 0.0195975006 -0.219876572 -0.97533083 -0.176294625 0.97265178 -0.151224062 -0.138226941 0.984757483 0.105574943 0.00367160118 0.999987185 -0.00348082976 -0.266264081 0.949929953 0.16351296 0.162652388 0.986505091 -0.0187592078 0.133905947 0.987636805 0.0815030634 0.168197498 0.984425664 -0.0511445366 -0.29540053 0.498402983 0.815066278 -0.40566355 -0.91255635 -0.0517493971 -0.244296968 -0.349768579 0.904422998 0.081349723 0.975028872 0.206641957 0.786373615 -0.614372969 0.0645162314 0.881002605 -0.47310251 0.0029057283 0.838484526 -0.543927848 0.0329577625 0.893539429 -0.448929846 -0.00701570231 -0.791998506 -0.6104514 0.00935142301 0.241397649 0.794958711 0.556567907 0.164401352 -0.634892046 -0.754906833 -0.751048625 -0.248143658 0.611842036 0.159821585 -0.648601353 -0.74415946 0.9912166 -0.00414010603 -0.132183522 0.996637523 -0.0174966212 0.0800466686 0.991370678 0.130305558 0.0143050253 0.998436511 -0.0520624369 -0.0203492641 0.091861628 -0.995767713 0.00284909154 0.0981069133 -0.951267362 -0.29234463 -0.122027449 0.986189663 -0.111978672 -0.277010024 0.905694127 0.320910603 -0.000755040557 0.999936581 -0.0112350341 -0.0542887673 0.996013522 -0.0707800165 -0.282232523 0.92066282 -0.269675225 0.372998476 -0.744607568 0.55356276 -0.244551644 0.963459134 -0.109274939 -0.199308619 0.840009034 -0.504639387 0.684125364 0.050004594 -0.727648258 0.967328072 -0.250073165 0.0417109244 0.0830762237 0.148544714 0.985409975 0.12381164 0.227733597 0.965819895 0.130749017 -0.16324392 0.977883518 0.631580353 0.322913706 0.704863846 0.554104149 0.34933567 0.755601227 0.521376014 0.359083444 0.774097025 -0.494703531 -0.356368184 -0.792634904 -0.992940128 -0.0533348359 0.105949357 0.421520829 0.235363364 -0.875742137 0.66242969 0.310901523 0.681562245 0.846088767 0.484048069 0.22322911 -0.335934639 0.804064691 -0.490538329 0.0586836152 -0.0810751989 0.994978905 0.144129723 0.989358604 -0.0199035741 0.0620726757 0.997625411 0.0298409574 0.974343121 0.100700274 0.201283216 0.990222573 0.139007792 -0.0116639007 -0.0318084843 0.967384696 0.251306623 0.0210377648 0.939007461 0.343252629 -0.10623277 0.987616241 0.115450062 -0.168096513 0.883240819 -0.43775478 -0.0427668765 0.295866072 -0.954271555 0.0196483526 0.413236111 -0.910411894 -0.128352016 0.122593053 -0.984122276 -0.702955008 -0.128581434 -0.699514925 -0.992148757 0.105730683 -0.0667975619 -0.991177976 0.0595149398 -0.118423991 -0.992132485 0.10624937 -0.0662130564 -0.990585566 0.131683409 -0.0374125876 0.105962344 0.86909306 0.48316589 0.17434454 -0.977378428 -0.119730406 -0.622173309 -0.479979634 -0.618481994 -0.167597577 -0.150184229 0.974348903 -0.367814869 0.797760546 0.477797329 -0.0950255543 -0.708346665 -0.699439108 -0.121384844 -0.711033762 -0.692601383 -0.111143492 -0.710051954 -0.695322514 -0.131830126 -0.711953402 -0.689741373 -0.853838205 -0.05812921 0.517282665 -0.795596063 0.538050711 0.278439224 0.115779988 0.57933706 -0.806823134 -0.030812623 0.371358126 0.927978277 -0.920957565 0.0287985671 0.38859728 0.0697301179 0.972618759 0.221699059 0.348047584 -0.933101535 -0.0904677063 0.34464252 -0.119210154 0.931133986 0.473584294 0.112200759 -0.873572528 -0.0972807482 0.993849456 -0.0529125258 0.089647457 0.973271668 0.211437002 -0.478685051 -0.806623101 -0.346727222 -0.0564824156 0.108136736 0.992530167</float_array>
          <technique_common>
            <accessor source="#normals_array" count="107" stride="3">
              <param name="X" type="float" />
              <param name="Y" type="float" />
              <param name="Z" type="float" />
            </accessor>
          </technique_common>
        </source>
        <vertices id="vertices">
          <input semantic="POSITION" source="#positions" />
        </vertices>
        <triangles material="scout_1a1a1a" count="86">
          <input semantic="VERTEX" source="#vertices" offset="0" />
          <input semantic="NORMAL" source="#normals" offset="1" />
          <p>0 0 1 1 2 2 3 3 4 4 2 5 5 6 6 7 1 1 7 8 5 6 1 1 6 9 2 9 1 9 6 10 3 3 2 5 8 11 5 6 7 8 9 12 10 13 11 14 12 15 13 16 7 8 14 17 0 18 2 19 15 20 16 21 17 22 14 23 4 4 16 21 18 24 19 25 10 26 20 27 14 27 18 27 21 28 22 28 20 28 23 29 20 29 24 29 19 25 18 24 14 30 10 31 19 32 21 33 21 33 19 32 25 34 21 35 25 35 18 35 25 36 20 36 18 36 0 18 14 17 12 37 22 38 26 38 27 38 14 17 28 39 12 37 28 40 13 41 12 42 29 43 13 41 28 40 15 44 17 44 11 44 15 45 30 45 31 45 15 46 32 47 30 48 8 49 33 50 15 20 33 51 8 11 7 8 33 50 9 52 15 20 9 12 26 53 10 13 22 54 34 54 26 54 35 55 34 55 22 55 33 56 7 57 13 58 36 59 35 60 21 61 36 62 21 62 26 62 34 63 36 63 26 63 27 64 34 64 35 64 27 65 35 60 36 59 34 66 24 66 36 66 26 53 18 67 10 13 37 68 33 56 13 58 0 0 7 8 1 1 30 48 17 22 3 3 7 8 0 0 12 15 31 69 30 48 3 3 15 20 31 69 5 70 15 20 5 70 8 49 37 71 29 43 38 72 27 73 38 74 23 75 18 67 26 53 21 76 23 77 28 78 14 79 14 23 16 21 9 52 16 21 15 20 9 52 5 70 31 69 6 10 6 10 31 69 3 3 4 4 3 3 17 22 4 4 17 22 16 21 27 80 36 80 22 80 22 81 36 82 24 83 22 81 24 83 20 84 38 74 27 73 37 85 24 86 27 86 23 86 15 87 11 87 32 87 22 88 21 88 35 88 17 22 32 47 9 89 25 90 19 91 20 92 19 91 11 93 20 92 21 94 11 94 10 94 11 95 21 95 20 95 28 78 23 77 38 96 2 97 4 97 14 97 9 98 33 98 27 98 17 22 30 48 32 47 14 30 11 99 19 25 14 100 9 100 32 100 14 101 20 101 23 101 9 102 27 102 26 102 9 12 11 14 17 103 29 43 28 40 38 72 11 99 14 30 32 104 34 105 27 105 24 105 37 68 27 106 33 56 37 71 13 41 29 43</p>
        </triangles>
      </mesh>
    </geometry>
  </library_geometries>
  <library_visual_scenes>
    <visual_scene id="scene">
      <node id="right_elbow_pitch_link">
        <instance_geometry url="#geometry">
          <bind_material>
            <technique_common>
              <instance_material symbol="scout_1a1a1a" target="#scout_1a1a1a" />
            </technique_common>
          </bind_material>
        </instance_geometry>
      </node>
    </visual_scene>
  </library_visual_scenes>
  <scene>
    <instance_visual_scene url="#scene" />
  </scene>
</COLLADA>