<?xml version='1.0' encoding='utf-8'?>
<COLLADA xmlns="http://www.collada.org/2005/11/COLLADASchema" version="1.4.1">
  <asset>
    <created>2026-09-14T00:00:00Z</created>
    <modified>2026-09-14T00:00:00Z</modified>
    <unit name="metre" meter="1" />
    <up_axis>Z_UP</up_axis>
  </asset>
  <library_effects>
    <effect id="scout_1a1a1a_effect">
      <profile_COMMON>
        <technique sid="common">
          <lambert>
            <emission>
              <color>0 0 0 1</color>
            </emission>
            <ambient>
              <color>0.05 0.05 0.05 1</color>
            </ambient>
            <diffuse>
              <color>0.1 0.1 0.1 1</color>
            </diffuse>
          </lambert>
        </technique>
      </profile_COMMON>
    </effect>
  </library_effects>
  <library_materials>
    <material id="scout_1a1a1a" name="scout_1a1a1a">
      <instance_effect url="#scout_1a1a1a_effect" />
    </material>
  </library_materials>
  <library_geometries>
    <geometry id="geometry" name="torso_link">
      <mesh>
        <source id="positions">
          <float_array id="positions_array" count="732">0.0707151219 0.0557695292 0.389220387 0.0699350834 0.100906201 0.0825497657 0.0703528672 0.102485009 0.473627388 0.0718313232 -0.0113898385 0.553719342 0.0679688528 0.0145551395 0.556373119 0.0771861747 -0.0173346847 0.551460743 -0.0666335523 -0.101169147 0.0177077763 -0.0666447431 -0.0837158337 0.00997131132 -0.0321743265 -0.0947734267 0.00815175567 -0.0430093706 0.0514644682 0.482534528 0.0258216839 0.0506012589 0.485835075 0.0590572953 0.042740155 0.479691297 -0.0501099713 -0.0606715344 0.014437844 -0.0282487869 -0.0703259856 0.0116222696 -0.0674513504 -0.030925747 0.0178033747 -0.0663979575 -0.0671666339 0.0312635824 -0.056656722 -0.00622431189 0.0128462324 -0.0496083498 -0.0287175886 -0.000380670885 -0.0468490869 -0.035969384 0.0129236076 -0.0514267832 0.0271582827 -0.000494728156 0.0247259215 -0.0535226129 0.0130894631 -0.000957593089 -0.0576132797 0.000202539115 -0.0152313877 0.000284970563 0.744489968 0.0157431848 -0.0482720025 0.742011726 0.0254777651 0.0104358075 0.76131624 -0.0439039394 -0.0333787911 0.484566778 -0.0559124164 -0.0319245011 0.476958662 -0.0430774279 -0.0514684245 0.482828677 -0.0267718565 -0.122319058 0.447533458 -0.0375420563 -0.142137721 0.408719242 -0.0349702872 -0.140198141 0.433876127 -0.0318029635 -0.106786638 0.441757768 -0.0331431739 -0.106546462 0.385389209 -0.0707527325 -0.102889568 0.47397247 -0.0196931232 -0.15157111 0.399529666 -0.0127908243 -0.158854857 0.385637969 -0.0181956179 -0.139996007 0.38457635 -0.00968025438 -0.133683041 0.457804441 -0.0187616218 -0.0447376221 0.532849252 -0.0225217119 -0.0321408473 0.482833326 -0.0183503497 -0.0247657467 0.532245696 0.0208328161 -0.14904201 0.389606655 -0.00707364827 -0.110082038 0.371093869 -0.0327928476 -0.0420266874 0.540650189 -0.0281579718 0.0277065113 0.711581945 -0.0229609683 -0.0364199653 0.709086835 -0.028423043 -0.025056975 0.533915639 -0.0397168398 -0.0353452563 0.486734331 -0.0259507895 -0.0413099825 0.486437172 -0.0266929977 -0.0232282449 0.538327932 0.0179075953 -0.110728316 0.449593663 -0.0120236333 -0.0288232844 0.585980237 -0.00767620793 -0.0106085148 0.58332026 0.0321139134 0.0953474641 0.00878968555 -0.02112999 0.0788280591 0.0340719745 -0.0336337686 0.0972976461 0.00828336086 0.0163537394 -0.0666919723 0.703396738 0.00328058284 -0.032411743 0.575426757 0.050450325 -0.0677710921 0.726242781 0.102076575 -0.0367953628 0.732482731 0.0671640038 -0.0440164357 0.746897697 -0.0471371487 0.0423603021 0.0149453534 -0.0649462789 0.075123094 0.011421808 -0.0291337091 0.0698706135 0.0103265578 -0.0668296516 0.0321892761 0.0185250901 -0.0666201115 0.100804061 0.0182491727 -0.0240630899 0.0494031757 0.00649106083 0.0280078109 -0.00530781457 0.541000187 0.0336930528 -0.0393717065 0.550177813 0.0204037931 -0.0420742594 0.542546988 -0.0727171674 0.0579917319 0.405156434 -0.0713724196 0.056974981 0.376518667 -0.0711031482 0.0270443764 0.391657591 0.0388248749 0.0323366448 0.500323057 0.0250897035 0.0311730932 0.505039394 -0.0267779827 0.0339170098 0.485078424 -0.00899463333 0.0104496423 0.583732188 -0.00110288325 0.0327160358 0.573191106 -0.0248741806 0.0235680696 0.537488699 0.025868319 0.0113978321 0.549015045 0.0225111879 0.0405845717 0.547094882 0.0220361482 0.0118180383 0.579838455 -0.0360779203 0.136862531 0.436160117 -0.0370505005 0.146040753 0.411125124 -0.0347551666 0.106939025 0.438045859 -0.0252957977 0.0507339388 0.48559159 -0.0170025826 0.0429129004 0.539632618 -0.030225439 0.0340144597 0.483403146 -0.0156432185 0.13333495 0.456525832 -0.0177222043 0.140567809 0.38502726 -0.0207751077 0.109742008 0.374822587 0.00204103603 0.00897004642 0.574621737 -0.0179948192 0.00991032179 0.577907503 -0.0161141176 0.0295646489 0.579698265 -0.032999672 0.0422276258 0.537798762 0.0673315376 0.028652085 0.570919275 0.0596462116 0.0213567615 0.567949891 0.070195429 0.0331960507 0.569980264 0.0011688798 0.0213298183 0.604651988 0.0104764225 0.0259766355 0.578833461 0.0336388312 -0.0973100886 0.0082703745 -0.0205733348 -0.0775521249 0.0344251655 0.0205901489 -0.0779500902 0.0344581716 0.0640069693 -0.0766548812 0.00830949005 0.030181516 -0.0695578307 0.00971734431 0.0669527128 -0.101640001 0.0186920669 0.0565954931 0.0118623124 0.0129447095 0.0572920777 -0.00326051936 0.00143638707 0.0668984428 -0.0320606492 0.0184651241 0.0296859182 -0.134493724 0.446833998 0.0383097976 -0.144145295 0.41963461 0.029927969 -0.107762024 0.381260365 0.0381381214 -0.135431737 0.409727573 0.0385839641 -0.106653728 0.425775796 0.0356074907 -0.030107595 0.488506943 0.0328300893 -0.0329678245 0.482592881 0.0415548831 -0.0502018109 0.483982891 0.0371289477 -0.043475423 0.534302771 0.0600202605 -0.0432260111 0.478590995 0.0397407934 -0.0275439899 0.598909736 0.00220742635 -0.0190811083 0.60430783 0.00333138835 0.159511492 0.385114133 0.0188247561 0.149500191 0.387628734 0.0342216492 0.106821686 0.439387172 0.0196840335 -0.0105016408 0.577375829 0.0264669303 -0.0295680538 0.581568003 0.054175213 -0.0235262457 0.573211551 -0.0178299975 -0.00910048094 0.581201911 0.00881110411 -0.00982204732 0.574974537 0.0354487896 -0.00460990379 0.59659344 0.0167746898 0.0016145187 0.55385989 0.0253142212 -0.00222502486 0.600242138 0.0288183019 0.00239486503 0.582303822 0.043682415 -0.0105612669 0.579326034 0.0221072268 0.0250033103 0.602295458 0.0325906761 0.0119199734 0.666142583 0.0446287058 -0.0127640916 0.657746732 0.0276502483 -0.0199856553 0.690618455 0.0633046627 -0.0595375784 0.682745874 0.0287119914 -0.0117205307 0.550051689 0.125080019 -0.0444557555 0.695658028 0.0835192129 -0.0718695894 0.680818141 0.0627237782 -0.0329619274 0.581551075 0.067723982 -0.0388991423 0.577519357 0.0691153482 -0.0222124476 0.680094898 0.0783070847 -0.00454510096 0.563918293 0.0741639435 -0.0408473387 0.596458673 0.0687381774 0.0114540709 0.560355723 0.0755893663 -0.0227703005 0.566136599 0.0658323541 -0.0151497861 0.557848692 0.0753806531 -0.0646168739 0.627981782 0.0885843039 -0.0537373908 0.58568722 0.0830504075 -0.0442138612 0.60850358 0.0710366815 -0.0195794012 0.561808228 0.0733092502 -0.0251085404 0.559006274 0.0673841909 -0.0234182104 0.559701443 0.0729772225 -0.0229874421 0.557548225 0.0730992779 -0.0198644269 0.555456281 0.0714633837 -0.015090744 0.556082785 0.0856355429 -0.0197453927 0.55564779 0.0758922771 -0.0201755185 0.557137549 0.0716274157 -0.0275762491 0.564426243 0.0222278163 -0.0207210407 0.525718212 0.0717500895 -0.000306597532 0.554908216 0.0720003322 -0.0138501264 0.56397748 0.0740286782 -0.00421242276 0.552472472 0.0758510381 0.0178463291 0.554939508 0.0854081362 0.0155100999 0.553806603 0.0676748604 0.0231468305 0.679002464 0.0819213539 0.00676256511 0.679100871 0.0988998786 -0.0664029792 0.669511795 0.090794526 -0.0496288426 0.66877538 0.10576348 -0.0386394113 0.683294952 0.071734421 -0.00591711141 0.757097602 -0.0295077823 0.154760182 0.39820984 -0.044912491 0.033813566 0.484798938 -0.0565044768 0.0318836011 0.47577104 0.0600127317 -0.0610729307 0.0260968953 0.108686 0.0210007485 0.732256293 0.0512053594 0.0591064245 0.0166944936 0.0276030432 0.07028234 0.0122203771 0.0580772161 0.0817766562 0.00230991864 0.0682042092 0.100002274 0.0191190485 0.0728570744 0.0794763491 0.0146893999 0.0304096416 0.108294427 0.38284412 0.0221327227 0.0449787788 0.532079518 0.0262086838 0.0269372389 0.532455862 0.0148942703 0.132212311 0.456353545 0.0317083709 0.134504631 0.443523467 0.0382009111 0.144574448 0.41398555 0.0409198888 0.0499020666 0.486983925 0.00725892559 0.0461285636 0.737869918 0.0317598805 0.00783217978 0.591926455 0.0248231813 0.0306013357 0.581447363 0.0342747346 0.0376251899 0.5534392 0.0661898255 0.0298240036 0.580235422 0.0641376525 0.0392201394 0.584554136 0.0398173854 -0.027337851 0.517423451 0.0373853445 0.0407632589 0.535830975 0.0314878486 0.0223910064 0.690031886 0.0380132571 0.0342603438 0.482841522 0.0758128762 0.0205995589 0.56509608 0.0712673441 0.0729997158 0.684656322 0.0732081756 0.0543543398 0.660933912 0.0187634379 0.0661938936 0.700381041 -0.0301865097 0.0256236363 0.533016264 0.0719220191 0.0203436874 0.556313872 0.0710446835 0.018958183 0.561880052 0.0696920678 0.0223077163 0.557515919 0.0731307492 0.0238069836 0.558194101 0.0722051039 0.0270784255 0.561408758 0.0811920762 0.0396820605 0.56609565 0.0806680322 0.0194382351 0.573186696 0.0753215253 0.0617621541 0.614275396 0.0837205499 0.0452398956 0.617040575 0.126012921 0.0429524407 0.695664465 0.0750204772 0.039754983 0.746048629 0.0917972997 0.0576663725 0.600964487 0.087958917 0.0508325286 0.662614524 0.10312783 0.0381421372 0.674992204 0.0998829752 0.0666911155 0.672940731 0.0526739024 0.0656444058 0.730994225 0.107409433 0.0338653103 0.688447773 -0.0701055601 -0.100909993 0.0829251558 -0.0715289116 -0.018616667 0.394488901 -0.0713957995 0.00389116956 0.339809597 -0.0712168664 0.00960463658 0.399511874 0.021553386 0.0812023357 0.0342721529 0.0229784455 0.0500076413 0.00520420261 0.0675121993 0.0307557844 0.0176304411 0.0689996406 -0.101180859 0.0823301822 0.0255122148 -0.0504216924 0.486139655 0.0302502867 -0.0260389447 0.531614184 0.0700329766 -0.103272282 0.473798037 -0.0686582327 0.101905942 0.0823073313 -0.0707122982 -0.0496585667 0.386647731 -0.0713360086 0.102167755 0.473485082 0.071183078 -0.00264678919 0.339008391 0.0712770745 0.0308206342 0.389338076 0.0709189624 0.0107719153 0.384475917 0.0280078519 0.00530779315 0.54099983 0.0709349439 -0.0151455626 0.395543575 0.0702080801 -0.0674506351 0.384773821 0.0709475502 -0.0458198078 0.390896082</float_array>
          <technique_common>
            <accessor source="#positions_array" count="244" stride="3">
              <param name="X" type="float" />
              <param name="Y" type="float" />
              <param name="Z" type="float" />
            </accessor>
          </technique_common>
        </source>
        <source id="normals">
          <float_array id="normals_array" count="2058">0.999869585 0.0152807906 -0.00523028011 0.999737978 0.0192304701 0.0124155236 0.99998033 0.00410552276 0.00473723235 -0.500612974 -0.0545649379 -0.863949835 -0.633931518 0.0146834562 -0.773249745 -0.545156658 -0.179989338 -0.818784535 -0.0843037218 -0.869846225 -0.486066222 -0.175513148 -0.399042606 -0.899977863 -0.0290216506 -0.787644446 -0.61544615 0.042245809 0.719983995 -0.692703664 0.0462608188 0.729182065 -0.682754278 0.0630597919 0.76630193 -0.639378428 -0.249004915 -0.0358866304 -0.967837155 -0.0429998115 0.0849773884 -0.995454609 -0.0232672859 0.169381097 -0.985275924 -0.371241987 -0.100431144 -0.923088849 -0.630867541 -0.286190093 -0.721180499 -0.954627514 -0.0494089536 -0.293675035 -0.964635134 -0.244797885 -0.0977399871 -0.949398577 -0.312969863 0.0263106301 -0.98811543 0.153688371 -0.00279362011 -0.188587874 -0.763145268 0.618097007 -0.694835782 -0.0259672236 0.718699455 -0.342313707 -0.592799067 0.72897917 -0.152333334 0.109098315 0.982289195 -0.541268408 -0.104890533 0.834281981 -0.458814472 -0.0346482843 0.887856305 -0.183227152 -0.119663589 0.97576046 -0.925100803 0.373988003 0.065738149 -0.923338175 -0.171286404 0.343667895 -0.975219131 -0.0442649908 0.216767728 -0.992851973 0.0727775618 0.0945957154 -0.115620822 -0.993285596 -0.0039417888 -0.057544522 -0.995267272 0.0783054531 -0.0598824844 -0.996962368 0.0498012789 -0.990111887 0.138189182 0.0241295975 -0.133453161 -0.938131392 0.319530547 -0.407454818 -0.903093874 0.135654062 0.105661184 -0.85813272 0.502438009 -0.0905549154 -0.962349713 0.256286561 -0.734496534 -0.288617581 -0.614178061 -0.425392717 -0.283770412 -0.859369218 -0.745038033 -0.248370752 -0.619055927 -0.622713506 -0.27423507 0.732818544 -0.600814998 -0.250034153 -0.759278774 0.961743414 -0.0539965853 -0.268577576 0.941960931 -0.301901728 -0.146850035 0.953155458 -0.0549915209 -0.297440022 0.168254733 0.943917274 -0.284095913 -0.0748283118 0.960169852 0.269210964 -0.0294673853 0.994843006 0.0970517024 0.107094385 -0.976202965 0.188569769 -0.107974723 -0.296542019 -0.948896348 -0.981253624 -0.0144076785 0.192181617 -0.980807841 -0.062556304 0.184668988 -0.963425756 0.105324924 0.246409208 -0.950026929 -0.0886394754 0.299318939 -0.741322935 -0.475369483 0.47377646 -0.376244724 -0.882409155 0.282478333 0.478436381 -0.0469259731 0.876867473 -0.123964511 0.310319245 0.942515135 -0.14135401 0.382593662 0.913039505 -0.152598217 0.430069059 0.889805794 0.896182597 -0.314638555 -0.312824845 0.908498883 -0.277690887 -0.312277973 0.891388178 -0.327898026 -0.312905788 0.912850797 -0.263429165 -0.311943054 0.0206209347 -0.856295407 -0.516074598 -0.00163561048 -0.835559666 -0.54939729 -0.0198102016 -0.817362845 -0.575782537 -0.331674188 -0.896422088 0.293972343 0.866438746 -0.179655045 -0.465841085 -0.565330744 0.0144896246 -0.824737012 0.05329917 -0.895035803 0.442797989 0.615119457 -0.434114009 0.658158898 0.205173299 -0.511407614 0.83448559 -0.978340089 0.187945649 0.0867592096 -0.125554577 -0.00759013416 -0.992057681 -0.0986699164 0.0251136124 -0.99480325 -0.14918451 -0.0780156255 -0.985726893 -0.156301618 -0.044651635 -0.986699581 -0.258566856 0.232415676 -0.937617242 -0.130895823 0.0446634032 -0.990389526 -0.424001962 0.701469064 -0.572855532 0.514469564 -0.141980127 -0.845672905 -0.999537408 0.0254791062 -0.0166054964 -0.99986577 0.0077298251 -0.0144469216 -0.99952656 -0.0123569835 -0.0281774718 0.0194756296 -0.982422411 -0.185652509 -0.78577137 0.46925351 0.402944773 -0.799594164 0.426077306 0.42321071 -0.819076955 0.347787708 0.456241846 0.985236466 0.12127395 0.120837569 -0.998819947 -0.0426930599 0.0231509358 -0.976503968 -0.158124417 -0.146412745 -0.979702294 -0.149471834 -0.1335724 0.983284175 -0.0816979855 -0.162719741 0.942362428 0.232481927 -0.240635067 0.983932078 0.0113624409 -0.178181306 -0.172662795 -0.0776162967 0.981918156 -0.704671323 0.0135561414 0.709404409 -0.797386646 0.0512165949 -0.601291478 -0.769553125 0.18976818 -0.609734416 -0.744068027 0.275223374 -0.608781457 -0.0850325674 -0.966563344 -0.241918996 -0.0749638677 -0.967121303 -0.24301596 -0.000658350356 -0.981578171 -0.191059873 -0.878990352 0.040822681 0.475088924 -0.962326884 -0.0948671177 0.254808158 -0.850371063 0.0176791865 0.525886416 0.897566319 0.370530099 -0.238918722 0.919146955 0.315687567 -0.235606045 0.926179349 0.295535237 -0.234202459 0.694583833 -0.53676182 -0.478999048 -0.110905945 -0.0647772178 0.991717577 0.888590336 0.390933573 -0.239954606 0.910505056 0.0963226706 -0.402122468 0.926261187 0.176315472 -0.333096206 -0.322899818 -0.309046 -0.894553661 -0.0174735673 0.975624561 0.218749583 0.141555175 0.93407017 0.327833921 -0.0482541732 0.938096225 0.342997044 0.0570919551 0.968749821 0.241379887 0.0193213951 0.816622794 -0.576848269 0.0260430481 0.822868824 -0.567634225 0.00826737098 0.806057572 -0.591779411 0.129894599 -0.189133331 -0.973322153 0.0826015025 -0.119570613 -0.989383578 -0.0314530134 0.0481341891 -0.998345554 0.238269329 -0.34859705 -0.906481028 0.761461437 -0.369969159 0.53225863 0.961939991 -0.000141085533 -0.273260713 0.0799680874 -0.931146562 0.355768412 0.0155873122 -0.959142148 0.282494903 0.0496607423 -0.965603232 0.255233556 0.504125297 0.151109502 0.850307941 0.268795729 0.0213971119 0.962959528 0.502365291 0.150095567 0.851528287 0.27109161 -0.247786537 -0.930113494 0.147891387 -0.257047564 -0.95501554 0.962394357 -0.168962449 -0.212717518 0.806584716 -0.436862051 -0.398211747 0.814456582 -0.321902633 -0.482741266 0.703106284 0.272181183 0.65693152 -0.0413921475 0.961777449 0.270685941 -0.0763481185 0.881269813 0.466405869 0.929580688 -0.0915388092 -0.357071996 0.999138772 -0.0309138615 0.0276779868 0.974028647 -0.0399292856 0.222876206 -0.900817633 -0.433993876 -0.0133000305 -0.891458631 -0.452748865 -0.0178891085 -0.921996713 -0.387192339 -0.00202920381 0.318948805 -0.117340632 0.940480113 0.0821279362 -0.988919616 0.123664789 -0.112416752 -0.838584483 0.533046424 -0.0467002429 -0.919732273 0.389758378 0.0123144016 0.232826665 -0.972440302 0.0952539966 -0.101321675 -0.990283072 0.0992090926 0.10900937 -0.989077628 0.437945962 -0.0528196879 0.897448301 -0.016596958 -0.564626276 0.825179815 -0.0167631023 -0.564841509 0.825029135 -0.0170004498 -0.565148771 0.824813843 0.267510593 -0.115173943 -0.9566468 0.0652684569 -0.993434668 0.0939549878 0.201371178 -0.97870183 -0.0399052463 0.000469978142 0.952426672 -0.30476746 -0.0452917404 0.951590478 -0.304013491 -0.41632086 0.8559618 0.306604594 0.0961064398 0.934169888 -0.343642563 0.442363739 0.649618387 -0.618312418 0.125630543 -0.0173950717 0.991924584 0.141294554 -0.00479967007 0.989955962 0.132830203 -0.0116118183 0.991070807 0.116139524 -0.0250033569 0.992918134 -0.958451807 -0.0647114813 -0.277817398 -0.838883817 -0.243536204 -0.486789554 -0.944868684 -0.0942572728 -0.31359005 -0.340721637 -0.0694502592 -0.937595546 -0.248574078 -0.237826064 -0.938962042 -0.346635878 -0.295158237 -0.890351176 0.78071022 -0.454865456 0.428472906 0.797321677 -0.438878208 0.414323628 0.894728124 -0.321534276 0.309963435 -0.966475964 -0.203489795 -0.156576127 0.971081197 -0.0636543185 0.230107531 0.975522578 0.00415363116 0.219860151 0.96613133 -0.0767456517 0.246374413 0.431988567 -0.821859002 0.371394217 0.386856735 -0.901851177 0.192370132 0.410942316 -0.145050585 0.900048196 0.283595324 -0.22212705 0.932862937 0.581939161 0.134291157 0.802067757 -0.0617257021 -0.997076988 0.0450262539 -0.320277601 -0.390046358 -0.863299549 -0.580062211 -0.649131298 -0.492093891 -0.606868684 -0.659260809 -0.443943292 -0.60182637 -0.608776033 -0.516910851 0.604580224 0.0129196998 0.796439469 0.619146347 0.295879006 0.727401793 0.595659137 -0.0430076458 0.802085102 -0.315118521 -0.0399004482 -0.94821322 -0.0011244507 -0.0666142404 -0.997778177 0.618219674 0.314344525 0.720410943 -0.467593938 0.61900121 0.631025672 -0.415085644 0.633065045 0.653400719 -0.529343605 0.598989427 0.600838542 -0.120276541 -0.954785407 -0.271879375 -0.414253056 -0.275909513 -0.867334008 -0.314177692 0.184891284 -0.93118614 -0.694532871 0.0142217372 -0.719320416 -0.64559412 0.00850076973 -0.76363337 -0.522973776 -0.851573825 -0.036338158 -0.447473049 -0.822430491 -0.351249158 -0.856060922 0.396277517 0.331849158 -0.940495193 -0.287780523 -0.180696324 -0.304539531 0.952332437 0.0178488214 0.0183703639 0.978212893 0.206790015 0.0708590001 0.972996712 0.21967338 -0.0681131706 -0.552883565 -0.830469966 -0.696367919 -0.698474467 0.164939731 0.0273896307 0.460793257 -0.887084782 0.289020181 -0.678994954 0.674857855 0.295731932 -0.675688267 0.675268829 0.311712295 -0.66762805 0.676097751 -0.448841512 -0.392213851 -0.802938104 -0.560811281 -0.402472287 -0.723537624 -0.574103355 -0.300199002 -0.761765003 -0.269184858 -0.528702199 -0.804992855 0.917492568 0.276942939 0.285499483 0.997629881 0.0425662287 0.0540623479 0.996694267 0.00833453611 0.0808153227 -0.507212043 -0.392442852 -0.767283916 0.0767280608 -0.643915951 -0.761239111 0.488392204 -0.441112071 -0.752923071 0.359809846 -0.52388972 -0.772059858 -0.281364441 -0.73028487 -0.622509539 0.0969966799 -0.637672544 -0.76417625 0.0177399646 -0.661228776 -0.749974489 -0.360266775 0.489477456 0.794115663 0.276624948 -0.684981287 0.674002469 -0.00875615701 0.998825133 -0.0476623811 0.149804443 -0.89742732 -0.414949149 -0.151694953 0.0129071409 -0.98834306 -0.0298808087 -0.89113158 -0.4527601 0.178511605 0.817859113 0.547028422 0.13281557 0.859359026 0.493823886 0.171239272 0.824903131 0.538713217 -0.611269772 0.234961957 0.75573951 0.91064316 0.18776755 0.368065715 0.591780484 -0.210985318 -0.77799809 0.500726342 -0.648674488 -0.573144376 -0.993342161 -0.112887785 -0.0229708254 -0.868326783 -0.468031734 -0.16417937 -0.942040682 -0.313252538 -0.120134309 0.0656249896 -0.719118953 -0.691781282 -0.0152804153 0.644505739 0.764446795 -0.895024717 0.439185351 -0.0777622163 -0.565667033 0.58528024 0.580919862 -0.92267859 0.101086073 -0.372083038 -0.987082899 -0.137596861 -0.0820633918 -0.97934252 0.0361606851 -0.19894892 -0.297853142 -0.0698625967 -0.952051878 0.59911865 -0.0810529068 0.796547115 0.610772848 -0.080023922 0.787751675 0.637283862 -0.0775728226 0.766714931 0.972294331 0.0976108536 0.212404966 0.999005079 -0.0435434468 -0.00963238161 -0.201977894 0.759235203 -0.61868149 -0.667750597 -0.352356106 -0.655709028 -0.517543793 -0.283329517 0.807386398 0.356799245 0.477345705 0.803016424 0.665570855 -0.0747762695 0.742579222 -0.261833996 0.24243708 0.93416661 -0.987517118 -0.143964097 0.0639080629 -0.896519899 0.024598388 0.442320049 -0.048256278 0.0951014683 -0.994297266 -0.0536330007 0.123839416 -0.99085182 0.335966796 -0.0168440081 -0.941723228 -0.000760728552 -0.978090584 0.208178341 -0.47420007 -0.382711023 -0.792884946 0.215560332 0.779266834 0.588452995 -0.679215968 -0.157196626 0.716906488 0.33882004 -0.0903638452 -0.936501682 0.569377184 -0.0248164423 -0.821701765 0.477205753 -0.0526453033 -0.877213299 -0.160901159 0.100782491 -0.981811464 -0.10586793 -0.0263389237 -0.99403131 0.245616063 -0.954546213 -0.168861628 0.233077854 -0.957468271 -0.170086101 0.347362548 -0.937533498 0.0192395672 0.893825531 0.447307706 0.0314918943 0.890334964 0.450269401 -0.0675365403 0.948052287 0.300448567 0.10453473 -0.3628712 0.930260062 -0.0542286932 0.899051726 0.431056201 -0.0767892227 0.918939114 0.245432362 0.30872947 -0.428330213 0.876060307 -0.22147578 0.280139834 -0.0678935125 0.957555294 0.433418781 -0.0442117788 -0.900107503 -0.809452116 -0.143252835 -0.569443524 0.904882073 -0.221413732 0.363544136 0.896746516 0.0889837816 0.433506161 0.57668817 0.244435236 -0.779539704 0.566516936 0.161935151 -0.807982445 0.57557565 0.245025292 -0.780176401 0.00490199961 -0.998659492 0.051528018 0.00240499876 -0.978528142 0.206099093 0.541135013 0.11711783 -0.832740247 -0.934733033 0.135426581 -0.328532755 0.709412098 0.203729182 0.674706578 0.865982354 -0.0606483705 0.49638322 -0.0826770812 -0.515941203 -0.852624893 -0.192531347 -0.296171367 -0.935528815 -0.184496254 -0.313883156 -0.931363761 -0.0364462659 -0.958769321 -0.281838745 -0.00582254771 -0.998238266 -0.0590465516 0.916242719 -0.37203604 -0.148621768 0.037491098 0.859755397 -0.509328127 0.0534618869 0.943336546 -0.327502698 0.137841344 0.629019558 -0.765071392 -0.233915418 0.154142067 -0.959960341 -0.194134578 0.0985498428 -0.976012111 0.135851279 0.0942934304 -0.986231804 0.15724124 0.15741241 -0.974934101 0.0822659656 0.230376333 -0.969618022 -0.748058856 -0.442071646 0.494955093 -0.731253922 -0.496265143 0.467962205 -0.720579624 -0.525765181 0.452035397 0.843380749 0.481921077 0.237615138 0.969632685 0.221235245 0.104246788 0.937817514 0.312616527 0.150894687 0.610807419 -0.0624824017 0.789309978 0.0544448942 0.950096369 0.307168752 0.138008371 0.927794278 0.346628696 0.0309851468 0.968647659 0.246498838 0.484930217 0.491494626 0.723378003 0.995986819 -0.0837580413 0.0315411352 0.996029019 -0.06198759 0.0639036819 0.985976458 -0.151302278 -0.0704133436 0.971299589 0.0535545982 0.231752098 0.796806931 0.285833687 -0.532351255 -0.430613101 0.647219837 0.629030049 0.76853615 0.265947431 -0.581914186 -0.166261032 -0.96068275 0.222364455 0.504770935 -0.71878773 -0.478069514 0.395345896 -0.722423375 -0.567279518 0.329477251 -0.718058944 -0.613054693 0.0501782931 0.0809787065 -0.995451927 -0.975233257 0.00606570812 -0.221095741 -0.986815512 0.00327878748 -0.161815897 0.159959033 0.0606597438 -0.985258102 -0.201754004 0.967008531 0.155530661 -0.0617525093 0.965931356 0.251323044 0.0821553916 0.95979166 0.268422276 -0.368712336 0.889580131 0.269626379 -0.969492018 0.00197499176 -0.245114803 0.0777999461 0.370278716 0.925656974 0.593052983 -0.703658879 -0.391346782 0.991386056 -0.129918262 0.0165793654 0.993921816 -0.00504457392 0.109972358 0.993171751 -0.0199993365 0.114934325 0.395285547 -0.022691017 0.918277979 -0.141679659 0.904222846 -0.402874559 0.248013288 0.0358367413 -0.968093574 -0.764150441 0.639078081 -0.0874833018 -0.822470248 0.563312769 -0.0788763836 -0.953329086 0.298112541 -0.0478813872 0.137763575 0.970612049 0.197315574 -0.932036579 -0.282813191 -0.226549208 -0.94572556 -0.249247178 -0.208516136 -0.969956994 -0.175495982 -0.168477371 -0.190756127 0.756325901 0.625766158 0.199294895 0.401273191 -0.89401418 0.674883068 0.00366044021 -0.737915576 -0.123257838 0.530164361 -0.838888109 -0.543046296 0.406082422 -0.734981477 -0.676964462 -0.0589196272 -0.733653605 -0.617249072 0.21675685 -0.756320059 -0.494132191 0.657689154 -0.56857568 -0.533214569 0.652938604 -0.537915766 -0.522010446 0.573415339 -0.631426871 0.465758264 -0.28355819 0.838250577 -0.278377354 0.743941903 -0.607500136 0.800329328 0.591268599 0.0993704423 0.857094705 0.513191104 0.0449847057 0.951224864 0.294869781 -0.0906808898 0.228516817 -0.126830801 0.965242982 -0.0730474591 0.262541771 -0.962151706 -0.153885916 0.036467541 -0.987415433 -0.19742988 0.0462894514 -0.979223549 -0.0528650805 0.252275169 -0.966210365 -0.152459115 0.165700272 -0.974320114 -0.90868777 -0.417469352 0.00242809858 0.938325465 -0.211812913 0.273277521 0.949018478 -0.306586176 0.0732726529 0.90519464 -0.0595003031 0.420811504 -0.152783781 0.177276194 -0.97222954 0.147851512 -0.0979435295 0.984147847 0.0177829638 -0.420882851 0.906940699 0.158602655 -0.0683672577 0.984972656 -0.0466344319 -0.559466004 0.827540338 -0.0406426527 0.487638921 -0.872098863 -0.2946392 0.514196992 -0.80547452 -0.0348887704 0.472023159 -0.880895495 -0.411120057 0.657138884 0.631782234 -0.797295392 0.377442896 -0.471016943 -0.693303347 0.405524433 -0.595718443 -0.116343983 0.495610386 -0.860717416 -0.582941651 -0.762157023 -0.281594902 0.825326502 0.0707797557 0.560202062 -0.816817939 -0.574693978 0.0503514223 0.0786733851 -0.867792428 0.490659565 0.0932769775 -0.853616476 0.512482464 0.134303764 -0.809200168 0.5719769 0.0311385691 -0.908206642 0.417362005 -0.599201202 0.607406974 -0.521550298 -0.668706715 0.433115304 -0.604352891 -0.708148658 0.254487634 -0.658605754 0.405145258 -0.696579516 0.592143834 0.373562306 0.475429386 -0.796503663 0.970923305 0.159483939 -0.178529471 0.557098269 0.784253478 -0.273107946 -0.706573665 -0.705626547 -0.0533367544 -0.686297536 0.0313875489 0.726643264 -0.784593344 -0.087566264 0.613795877 -0.686726928 0.030928757 0.726257205 -0.787454128 0.399258941 -0.469583154 0.178526282 -0.369921267 0.911749244 0.483161032 -0.230641946 0.844606221 0.544566035 -0.0787297636 0.835014641 -0.590704322 0.124760322 0.797184587 -0.412855804 0.163315818 -0.896034598 -0.476154476 0.74742955 -0.46327737 -0.440211028 0.7716133 -0.459159255 -0.697898805 -0.419297367 0.580626309 -0.334239691 -0.801967919 0.495107323 0.215111181 -0.944660306 0.24767749 -0.150931329 -0.974472702 0.166200906 0.273417532 -0.926675081 0.257907212 -0.00628132373 0.967845023 -0.251468837 0.481244862 0.740246654 0.469508559 0.32782051 0.483439773 0.811677098 -0.998973548 0.0143237002 -0.0429732539 -0.971510231 0.236911371 -0.00638995226 -0.96149534 0.274821192 8.24552408e-05 -0.0365348533 0.940174341 -0.338729143 0.882233202 -0.380968839 0.276635677 -0.245039403 -0.95927763 0.140506774 -0.997936666 -0.03857686 -0.0513251014 -0.309945941 -0.88130939 -0.356689304 -0.371199608 -0.896090746 -0.243376762 -0.336376995 -0.889344275 -0.309705168 -0.107275672 -0.756954491 -0.64460206 -0.110254571 0.0442040227 -0.992919922 0.820814192 0.366081119 -0.438461661 0.882131517 -0.4575544 0.111749768 0.807482243 -0.589848936 -0.00711771008 0.860641718 -0.507159114 0.0456671491 0.799469471 -0.600706398 -0.000634430733 0.297625065 0.947385192 0.11781615 0.191375345 0.972099185 0.135641545 0.102451377 0.931710243 0.348453313 0.523310781 -0.749827921 -0.404850453 0.640971661 0.0177116729 -0.767360151 0.653781414 0.0199536737 -0.756420374 0.658133686 0.0207217 -0.752615869 0.970265388 -0.191284344 -0.148308352 0.947995186 -0.27736789 -0.156115815 0.974942088 -0.167841598 -0.146003917 -0.953204632 -0.207399085 -0.219969422 0.999853313 0.0161313247 -0.00575567083 0.992615521 -0.00302096759 0.121265523 0.999464035 0.0192046594 -0.0265106969 -0.99964422 0.00282406341 -0.0265234727 -0.999983728 -0.00345075806 0.0045450246 -0.999990344 0.00222334475 -0.00378624815 -0.999997377 -0.00139765674 0.00181679253 0.00146038376 0.974493742 0.224409908 -0.816320479 0.009691732 0.577517927 -0.779243708 -0.0145367784 0.626552403 -0.00681405654 0.909376442 -0.41591832 0.00824198686 0.897008896 -0.441935688 -0.0293433256 0.926097274 -0.376142055 0.00750079984 0.185087234 -0.982693493 -0.176913574 -0.0296765063 -0.983778894 -0.62456733 0.118010834 -0.772003293 -0.185361862 0.013061652 -0.982583523 -0.70118171 0.167332411 -0.693068564 -0.122013666 0.221133471 -0.967580855 0.167164713 0.288158745 -0.942878842 0.119949967 0.181631818 -0.976023495 -0.0867365673 0.0237738304 -0.995947599 0.342764795 -0.00240052352 -0.939418197 0.224335894 -0.14833042 -0.963157058 0.271382362 -0.304578811 -0.913007855 0.223213106 -0.199632093 -0.954108477 0.124270245 0.216880187 -0.968256116 0.192965552 0.379197508 -0.9049716 0.210875422 0.656581402 -0.724177063 0.133014157 0.760128975 -0.636011899 -0.47675249 -0.809604168 -0.342415243 0.667554915 0.0223955102 -0.744223714 0.905991435 -0.00970073789 0.423184872 0.0211261082 0.0294774715 -0.999342144 0.0109870024 -0.00168357359 -0.99993825 0.0371318795 0.0785871893 -0.996215463 -0.0279433224 0.0526071787 -0.998224258 0.998937488 -0.033269994 -0.0318909064 0.997016072 0.0766948089 0.00876906049 0.999805391 -0.0169406869 -0.0101111 0.973418534 0.227086887 -0.0297984313 -0.901339889 0.307190776 -0.305319846 -0.971639097 -0.0144160539 -0.23602879 0.0318500064 -0.381810486 0.92369169 -0.0743694305 -0.220108017 0.972636461 -0.836155951 -0.160762534 -0.524403095 0.93918997 -0.304697603 -0.158371732 -0.890416801 -0.442816317 0.105221547 -0.975490689 0.0725097805 0.207750559 -0.830123961 -0.112057373 0.546202719 -0.994935513 -0.0202796161 -0.0984480008 0.943985641 0.255723208 0.208558768 0.0512605347 -0.882043004 -0.468372136 -0.930377483 -0.366591841 0.00285356538 0.856306255 -0.21900855 -0.467733711 -0.327158153 0.909706771 0.2557365 -0.229049429 -0.100692041 -0.968192875 -0.196732238 -0.137177795 -0.970813394 -0.204887345 -0.128051236 -0.970373154 -0.167233229 -0.169749513 -0.971194208 -0.622972608 0.165257603 0.764588177 -0.297212243 0.0438220799 -0.953805268 0.112007879 -0.993584633 -0.0156138083 -0.00819133408 -0.99992913 -0.00864261109 0.00343067315 -0.999970436 -0.00688430667 0.135583207 -0.990583003 -0.0190400667 0.1565198 -0.987123549 -0.0329945348 0.130555883 -0.991338551 -0.0142497206 -0.999755085 0.00534365419 -0.0214760229 -0.999863148 -0.0160308704 -0.00409343001 -0.999988616 -0.00476074824 -0.00031508028 -0.999980092 0.00530227181 0.00341466093 -0.441547871 -0.304335654 -0.84404695 -0.187531203 -0.645874798 0.740052521 -0.939204216 0.12526831 -0.319692492 0.201522961 -0.0320675187 0.978958726 0.666890681 0.470463276 -0.577859044 0.293231994 0.946693003 -0.133369222 -0.971582592 0.130122215 0.197725758 -0.0501583256 0.499661475 0.864767313 0.968570471 0.204773575 -0.141205817 -0.809143841 0.579278231 0.0986054242 -0.851502419 0.510566056 0.11944019 -0.926614642 0.338176072 0.16438441 -0.0128262294 0.957449794 0.28831476 0.0419212915 0.925346911 0.376796693 -0.184558988 0.920424104 0.344611943 -0.00461805379 -0.948610485 -0.316412389 -0.000264255534 -0.951278687 -0.308332205 0.0026538251 -0.953018367 -0.302900821 -0.829998553 0.284568578 0.479711473 -0.657669246 0.582140028 0.47810474 0.837266564 0.161545992 0.522386432 0.0329644158 0.8291592 -0.558039725 -0.81100899 -0.00899264589 0.584964573 -0.524087012 0.730388939 -0.438023716 -0.491512626 -0.00490596844 -0.870856643 -0.688853323 -0.0029017136 -0.724894941 0.952912748 -8.09513222e-05 -0.30324465 0.123112537 -0.0205695666 -0.992179513 0.0797946379 -0.091559194 0.992597461 0.235054761 0.0233730748 0.971701086 0.0662215054 0.343447655 0.936834276 -0.0780577064 -0.0248481445 0.996639132 0.0337755233 0.263135254 0.964167535 -0.0945280418 -0.0687581077 0.99314487 0.00884577353 0.997795045 -0.06577833 -0.00186058285 0.999785006 -0.020652676 0.0148231639 0.999692917 -0.019857211 0.93285197 -0.100684643 -0.34590441 -0.801199734 0.444808096 -0.400280893 0.0772901624 0.688734174 -0.720882416 -0.0507029481 0.939962506 -0.33749029 0.924953401 0.125021756 -0.358930111 0.45452103 -0.469931334 -0.756686985 0.0844946876 0.104885623 0.990888298 -0.844691873 0.196837127 -0.497745663 -0.0245918222 -0.999348164 -0.0264289174 -0.0566409044 -0.956858635 0.284979522 -0.154823512 -0.799895644 0.579824686 0.0220430978 -0.936358333 0.350352913 -0.999492168 0.0015612829 -0.0318274274 -0.99890548 -0.00439880928 -0.0465668663 -0.998299599 -0.0241570119 -0.0530509725 0.98639822 0.163686335 0.0150094684 0.960665226 0.273541451 0.0479312055 -0.316872925 0.094647117 -0.943733811 -0.337462306 0.0527011119 -0.939862669 -0.297216624 0.149284005 -0.94306761 -0.016073402 -0.563947856 0.82565397 -0.0922023952 -0.475573838 -0.874830425 -0.100798212 -0.448336631 -0.888163269 -0.117124364 -0.394442737 -0.91142571 -0.94707936 0.267267138 -0.177789032 -0.948808491 0.24045977 -0.204796478 -0.946383715 0.164249524 -0.278172553 -0.387187213 0.434041083 -0.813445985 -0.474020749 0.00340475515 0.880507112 -0.505463243 -0.20268786 -0.838704109 -0.939145267 0.321450651 -0.121143155 0.667399824 -0.544826925 0.507682025 0.899509609 -0.402855903 -0.16908443 -0.280714899 -0.0803870186 -0.956418872 0.0306285713 0.970286727 -0.240011662 0.0860436335 0.922570527 0.376111835 0.221663535 0.724991262 0.652114153 0.234773681 0.562461197 0.792791724 -0.0902942941 -0.481517285 -0.871772945 -0.00484155724 -0.0300742108 0.999535918 -0.949259996 0.255967081 0.182719305 -0.228368104 0.688759327 0.688083231 0.794880331 0.543694258 0.26937288 -0.995286644 -0.0465795361 -0.0850582272 0.998202205 -0.00650049141 0.0595827326 0.915400028 -0.00441419613 -0.402521104 0.0993349478 -0.924250245 -0.368638158 -0.686383426 0.578031242 -0.441313595 0.0966760516 0.290575236 -0.951955736 -0.0847097114 -0.240345508 0.966984153 0.129882857 0.144868523 0.980889142 -0.503412306 0.48367852 -0.715982676 -0.10197293 0.119296744 0.987608135 -0.158924475 0.0752355903 0.984419942 -0.0815338194 -0.126387641 0.988624513 -0.302028656 0.00140672002 0.953297794 0.411479086 -0.124046884 0.902938187 -0.0122745642 0.0184939411 0.999753654 -0.0204861071 0.00575450761 0.999773562 0.462132394 -0.012216053 -0.886726797 0.981897652 0.00309232902 0.189386934 0.999991357 -0.00361988274 -0.00203084061 0.99996835 -0.00199238956 0.00770459743 0.999926925 -0.00765248993 0.0093608899 -0.634472072 0.467197329 -0.615769327 0.924669623 -0.367248833 0.100570232 0.892585576 -0.429471999 0.137276188 0.915955961 -0.385538995 0.111285046 -0.00888498034 -0.945911169 -0.324304014 0.4399876 0.00415214198 -0.89799428 0.988394558 0.15069209 0.019186927 0.999959111 -0.00814170297 0.00393512473 0.999976933 0.000106487962 0.00678809453 0.999773145 -0.0200926941 -0.00706897397 0.999868751 -0.0156481676 -0.00419859542 0.0819698423 0.805370569 -0.587076783 -0.603465438 0.0435360409 -0.796199799 -0.992450655 0.0887036249 -0.0846958533 0.964844823 0.0601773933 0.255838096 0.998382211 -0.0308116898 0.0477876365 0.995518565 -0.0746354312 0.058071617 -0.917088091 -0.0940485075 -0.387432963 -0.184821516 0.189466998 0.96433568 0.649677873 0.566414714 0.507043481 -0.170513391 0.507124007 0.844837487 -0.331635982 -0.274510026 -0.902586162 -0.292515963 -0.267917484 -0.917962193 -0.46292454 -0.293544263 -0.836380661 -0.496483177 -0.297561675 -0.815451741 -0.483463049 -0.0831170455 0.871409833 -0.915472567 -0.128381029 0.381350666 -0.8849231 -0.3754161 -0.275633574 0.576477945 -0.0225671064 -0.816801012 -0.980849743 0.191571221 -0.0351326428 -0.0980013534 0.995161116 -0.00707654143 0.107345268 0.994189799 -0.00798083842 0.0652532578 0.995693803 0.0658472255 -0.0722660422 0.99537909 0.0632306412 -0.0674334764 0.995679319 0.0638386682 0.0496883653 0.996009231 0.0741395429 0.0645600557 -0.105092891 -0.992364585 -0.915526569 0.211949006 0.341889858 -0.756669462 -0.408946246 0.510111988 0.884280503 -0.443632245 0.145734027 0.390766859 0.00342329661 -0.920483351 0.363278627 -0.0038086928 -0.931672752</float_array>
          <technique_common>
            <accessor source="#normals_array" count="686" stride="3">
              <param name="X" type="float" />
              <param name="Y" type="float" />
              <param name="Z" type="float" />
            </accessor>
          </technique_common>
        </source>
        <vertices id="vertices">
          <input semantic="POSITION" source="#positions" />
        </vertices>
        <triangles material="scout_1a1a1a" count="540">
          <input semantic="VERTEX" source="#vertices" offset="0" />
          <input semantic="NORMAL" source="#normals" offset="1" />
          <p>0 0 1 1 2 2 3 3 4 4 5 5 6 6 7 7 8 8 9 9 10 10 11 11 12 12 13 13 8 14 14 15 12 12 15 16 16 17 17 18 18 19 17 18 16 17 19 20 20 21 18 21 21 21 22 22 23 23 24 24 25 25 26 26 27 27 28 28 29 28 30 28 28 29 31 30 29 31 32 32 31 33 33 34 31 30 32 35 29 31 34 36 29 37 35 38 30 39 29 37 34 36 29 40 36 41 35 42 37 43 28 43 30 43 29 40 32 44 36 41 38 45 39 46 40 47 40 48 39 49 25 50 41 51 34 36 35 38 32 44 42 52 36 41 25 53 27 54 43 55 44 56 45 57 22 22 46 58 47 58 48 58 38 59 49 59 43 59 31 60 28 61 50 62 49 63 51 64 43 65 49 63 52 66 51 64 53 67 54 68 55 69 23 23 45 57 56 70 57 71 38 45 40 47 51 72 52 72 57 72 58 73 59 74 60 75 61 76 19 20 16 17 62 77 63 78 61 79 62 77 61 79 64 80 65 81 55 82 62 77 61 83 66 83 19 83 67 84 68 84 69 84 70 85 71 86 72 87 73 88 74 88 75 88 76 89 77 90 78 91 79 92 80 92 81 92 82 93 83 94 84 95 85 96 86 97 75 98 85 99 9 99 87 99 88 100 82 100 84 100 83 101 89 102 90 103 91 104 92 105 75 106 93 107 94 108 92 109 78 110 93 111 76 112 95 113 96 113 97 113 94 114 78 114 86 114 94 115 93 111 78 110 86 97 77 116 91 117 93 118 77 118 76 118 98 119 77 120 93 121 98 119 99 122 77 120 100 123 101 124 102 125 103 126 100 127 104 128 100 127 103 126 105 129 106 130 20 130 107 130 105 131 103 131 108 131 109 132 37 133 110 134 50 135 37 136 109 137 111 138 41 139 42 52 112 140 110 141 41 142 113 143 50 135 109 137 26 144 39 49 114 145 111 146 112 140 41 142 111 146 113 147 112 140 113 147 109 148 112 140 115 149 116 150 117 151 114 152 116 152 118 152 119 153 120 154 51 155 89 156 121 157 122 158 58 73 23 23 56 70 23 23 58 73 60 75 117 159 67 159 69 159 123 160 88 161 84 162 57 163 124 163 125 163 119 153 51 155 125 164 126 165 119 153 125 164 127 166 128 167 40 48 128 168 129 168 130 168 128 169 131 169 129 169 132 170 133 170 126 170 98 171 120 172 119 173 134 174 98 171 119 173 135 175 136 176 137 177 45 178 138 179 56 180 124 181 69 182 139 183 67 184 117 184 68 184 68 185 132 186 125 187 140 188 58 73 141 189 129 190 131 191 142 192 141 193 58 73 56 70 141 194 56 180 138 179 143 195 119 196 126 197 142 198 119 199 143 200 137 201 144 202 138 179 119 199 142 198 131 203 145 204 142 205 146 206 144 207 137 207 136 207 132 208 147 208 133 208 133 209 148 209 126 209 133 210 4 4 149 211 141 212 138 212 150 212 150 213 143 213 151 213 146 214 143 214 150 214 138 215 146 215 150 215 138 216 152 217 146 218 143 219 148 219 151 219 146 220 142 220 143 220 153 221 154 221 155 221 156 222 153 223 155 224 157 225 155 226 149 227 155 226 157 225 156 228 157 229 158 230 153 231 149 227 5 232 157 225 151 233 154 234 156 235 154 236 151 236 155 236 157 237 159 238 151 233 156 235 157 237 151 233 160 239 156 239 154 239 153 223 156 222 159 240 153 241 159 241 157 241 160 242 157 242 5 242 160 243 159 243 156 243 159 244 160 244 5 244 149 227 155 226 126 197 126 245 148 246 153 247 126 197 155 226 143 195 161 248 148 248 155 248 153 249 161 249 154 249 153 250 148 250 161 250 155 251 148 251 143 251 160 252 151 253 148 254 160 255 161 255 155 255 160 256 155 256 151 256 161 257 160 257 154 257 152 258 145 204 146 206 128 259 130 260 162 261 149 262 163 262 158 262 149 263 3 264 163 265 163 266 164 267 158 230 158 268 5 268 149 268 3 3 5 5 158 269 160 270 158 270 157 270 160 271 3 271 158 271 165 272 163 265 3 264 165 273 3 273 160 273 166 274 165 275 160 252 165 276 167 277 5 278 164 279 133 279 149 279 133 280 164 280 148 280 153 247 149 281 126 245 164 282 149 282 153 282 158 230 164 267 153 231 164 283 147 284 148 285 168 286 169 287 144 202 141 189 150 288 151 289 170 290 141 189 151 289 152 291 170 292 151 293 138 216 171 294 152 217 152 291 171 295 170 292 140 188 59 74 58 73 159 296 152 291 151 293 138 216 172 297 171 294 169 287 138 179 144 202 59 74 173 298 60 75 5 278 167 277 159 299 89 102 83 101 174 300 167 301 145 302 159 296 171 303 172 304 170 305 140 188 141 189 170 290 75 106 175 306 176 307 172 304 140 308 170 305 108 309 103 309 177 309 178 310 59 74 140 311 179 312 180 313 181 314 8 8 100 315 105 316 181 317 182 317 179 317 53 318 182 319 181 320 182 321 183 322 179 323 122 158 184 324 90 325 49 326 57 327 52 328 10 329 185 330 186 331 187 332 123 332 188 332 187 333 188 334 189 335 190 336 73 336 11 336 189 337 123 338 184 339 189 337 188 340 123 338 189 341 184 341 122 341 191 342 22 22 24 24 128 343 91 343 131 343 192 344 91 344 130 344 192 345 131 346 91 347 134 348 119 348 131 348 99 349 185 350 162 261 99 351 193 351 81 351 99 122 134 352 193 353 193 353 134 352 194 354 80 355 185 355 99 355 65 356 62 356 64 356 195 357 192 357 129 357 131 346 192 345 196 358 197 359 198 360 117 361 196 362 134 362 131 362 199 363 168 363 135 363 185 364 198 364 186 364 186 365 198 366 200 367 80 368 194 368 198 368 125 369 139 370 68 371 147 372 4 372 133 372 135 373 168 373 136 373 136 374 168 374 144 374 96 375 201 375 147 375 134 376 96 377 147 378 134 379 97 380 96 381 196 382 192 382 195 382 202 383 203 383 204 383 87 384 9 385 205 386 4 4 3 3 149 211 166 387 4 387 165 387 166 388 163 389 4 390 166 388 167 391 163 389 4 392 167 277 165 276 201 393 166 274 148 254 206 394 207 395 147 396 206 394 147 396 163 266 208 397 167 277 4 392 167 398 206 399 163 400 206 399 167 398 208 401 208 402 209 403 206 404 209 405 208 405 207 405 95 406 210 407 209 403 166 388 211 408 167 391 166 409 207 409 206 409 206 404 211 408 166 388 209 403 211 408 206 404 166 410 209 410 207 410 201 393 209 411 166 274 209 403 210 407 211 408 207 412 96 413 4 414 201 415 96 413 207 412 96 416 208 417 4 418 210 419 97 419 208 419 207 420 97 420 201 420 208 421 97 421 207 421 201 422 208 422 95 422 201 393 95 423 209 411 210 424 208 425 201 426 97 427 210 407 95 406 212 428 195 429 145 430 210 424 201 426 211 431 97 432 211 432 201 432 196 433 211 434 97 380 213 435 196 435 195 435 214 436 195 436 212 436 214 437 203 438 195 439 213 440 211 434 196 433 178 310 215 441 216 442 203 443 213 444 195 445 213 440 217 446 211 434 145 302 167 301 212 447 218 448 203 438 214 437 202 449 213 444 203 443 219 450 204 451 203 452 218 453 219 450 203 452 169 287 219 454 138 179 178 310 216 442 173 298 211 455 217 455 167 455 217 456 212 447 167 301 217 456 220 457 214 458 220 457 218 459 214 458 220 460 217 446 202 461 216 442 215 441 221 462 215 463 222 463 219 463 218 464 220 465 219 466 221 462 215 441 220 460 47 467 43 468 27 469 90 470 84 95 83 94 7 471 14 472 15 473 223 474 224 475 225 476 224 475 226 477 225 476 9 478 85 478 10 478 92 109 127 479 120 480 227 481 180 482 63 483 7 484 12 12 8 14 18 485 14 15 16 486 14 487 64 80 61 79 16 486 14 15 61 488 61 79 63 78 66 489 63 78 180 490 228 491 66 489 63 78 228 491 180 490 179 323 228 491 228 491 179 323 229 492 106 493 228 491 229 492 229 492 108 494 106 493 108 494 177 495 20 496 106 493 108 494 20 496 18 485 20 497 13 13 14 15 18 485 12 12 12 12 18 485 13 13 20 497 104 498 13 13 20 497 177 499 104 498 177 499 103 500 104 498 21 501 18 501 17 501 215 502 219 466 220 465 178 310 140 311 215 503 21 504 17 505 19 506 21 504 19 506 228 491 21 504 228 491 107 507 19 506 66 489 228 491 105 508 183 509 230 510 230 510 183 509 1 1 183 509 182 511 1 1 231 512 69 513 162 261 48 514 47 515 27 27 5 516 163 516 165 516 43 468 47 467 46 517 46 518 48 518 38 518 92 109 94 108 175 519 25 50 127 166 40 48 51 520 127 479 43 55 162 261 185 350 74 521 109 148 110 522 112 140 53 67 227 523 54 68 23 23 22 22 45 57 115 149 117 151 232 524 57 71 40 47 128 525 196 433 97 380 134 379 204 526 221 462 202 461 128 527 127 528 91 529 92 530 91 529 127 528 176 531 175 531 9 531 24 24 23 23 173 298 126 532 125 532 132 532 62 77 55 82 63 78 111 533 223 534 230 535 233 536 50 537 113 538 111 533 230 535 113 538 113 538 230 535 233 536 23 23 60 75 173 298 223 474 225 476 234 539 224 475 223 474 235 540 225 476 226 477 72 87 225 476 72 87 71 86 235 540 223 474 33 541 234 539 225 476 71 86 33 541 236 542 226 477 235 540 33 541 224 475 224 475 33 541 226 477 236 542 234 539 71 86 236 542 71 86 70 85 226 477 236 542 70 85 226 477 70 85 72 87 129 190 142 192 145 430 117 361 198 360 132 186 117 543 69 543 232 543 176 544 73 544 75 544 180 545 227 545 53 545 48 514 27 27 118 546 106 547 107 547 228 547 110 134 37 133 30 39 41 51 110 134 34 36 110 134 30 39 34 36 152 291 159 296 145 302 162 548 197 548 114 548 9 549 175 519 94 108 191 342 24 24 221 550 94 551 205 386 9 385 205 552 86 553 87 554 88 555 83 556 82 557 104 558 101 559 13 560 86 97 91 117 75 98 86 561 78 91 77 90 191 342 44 562 22 22 44 562 191 342 204 526 163 563 5 563 4 563 100 123 8 564 101 124 92 109 98 565 93 107 96 416 95 566 208 417 183 322 105 567 229 492 108 568 229 492 105 567 172 569 219 569 222 569 36 41 41 139 35 570 233 571 11 572 118 546 48 573 231 574 39 575 231 574 114 576 39 575 182 319 65 577 234 578 1 579 182 319 234 578 13 580 101 580 8 580 162 261 114 581 231 512 41 139 36 41 42 52 118 582 26 582 114 582 26 144 25 50 39 49 217 456 214 458 212 447 230 535 223 534 105 316 105 316 223 534 6 6 54 583 227 481 63 483 54 584 63 584 55 584 20 585 21 585 107 585 233 571 2 586 11 572 128 259 69 513 57 587 223 534 111 533 42 588 233 589 33 34 31 33 50 590 233 589 31 33 223 534 42 588 32 32 223 534 32 32 33 34 51 155 57 591 125 164 65 592 7 593 234 539 223 474 234 539 7 593 7 593 6 594 223 474 114 595 117 361 116 596 199 597 44 598 204 599 204 599 219 454 168 286 45 178 44 598 137 201 138 179 45 178 137 201 219 454 169 287 168 286 168 286 199 597 204 599 44 598 199 597 137 201 187 600 88 161 123 160 231 601 118 602 116 603 162 261 69 513 128 259 132 186 68 185 117 361 127 479 51 520 120 480 120 480 98 565 92 109 194 604 81 605 193 606 89 607 174 607 121 607 80 608 79 608 194 608 46 609 38 609 43 609 59 74 178 310 173 298 114 595 197 359 117 361 79 610 81 605 194 604 124 181 57 611 69 182 38 45 48 612 39 46 181 314 180 313 53 613 53 318 55 614 65 577 65 577 182 319 53 318 83 556 122 615 174 616 122 615 121 617 174 616 105 316 6 6 8 8 175 306 75 106 92 105 118 602 231 601 48 618 10 619 85 619 75 619 87 554 86 553 85 620 179 323 183 322 229 492 74 621 10 621 75 621 90 325 89 156 122 158 186 331 200 622 10 329 74 521 185 350 10 623 7 471 65 624 14 472 64 625 14 472 65 624 176 626 11 626 73 626 7 627 15 627 12 627 94 628 86 628 205 628 10 629 200 629 190 629 25 53 43 55 127 479 115 630 231 630 116 630 147 378 132 631 134 376 2 586 236 632 9 633 11 572 2 586 9 633 33 634 233 571 27 27 233 571 118 546 27 27 33 634 27 27 26 26 236 632 33 635 9 633 33 636 26 636 9 636 26 637 118 546 176 638 118 546 11 572 176 638 26 639 176 639 9 639 132 186 198 360 194 640 237 641 1 1 0 0 238 642 239 643 237 641 0 0 238 642 237 641 173 298 216 442 24 24 99 644 130 644 91 644 115 645 232 646 231 647 102 648 101 559 104 558 99 649 91 649 77 649 189 335 122 615 83 556 187 333 189 335 88 555 88 555 189 335 83 556 162 261 130 260 99 349 221 462 204 526 191 342 240 650 185 650 80 650 2 2 233 651 241 652 230 510 1 1 237 641 0 0 2 2 238 642 238 642 2 2 239 643 239 643 2 2 241 652 230 510 237 641 242 653 241 652 233 651 243 654 243 654 237 641 241 652 239 643 241 652 237 641 237 641 243 654 242 653 243 654 233 651 242 653 233 651 230 510 242 653 190 655 11 11 10 10 220 460 202 461 221 462 240 656 80 656 198 656 135 175 137 177 199 657 194 640 134 658 132 186 198 360 73 659 190 660 100 661 102 661 104 661 198 662 185 662 240 662 81 663 80 663 99 663 50 62 28 61 37 664 74 665 73 666 197 667 74 665 197 667 162 668 197 359 73 659 198 360 68 669 139 669 69 669 134 352 99 122 98 119 129 670 192 670 130 670 124 671 139 370 125 369 24 24 216 442 221 550 160 252 148 254 166 274 201 672 148 285 147 284 164 267 163 266 147 396 190 673 200 367 198 366 145 430 195 429 129 190 1 579 234 578 90 674 184 675 1 579 90 674 1 579 184 675 2 676 90 674 234 578 84 677 234 578 236 678 84 677 2 676 184 675 123 679 236 678 2 676 123 679 236 678 123 679 84 677 138 179 219 454 172 680 147 681 207 681 4 681 49 326 38 682 57 327 202 461 217 446 213 440 69 683 231 647 232 646 140 308 172 304 222 684 140 308 222 684 215 685</p>
        </triangles>
      </mesh>
    </geometry>
  </library_geometries>
  <library_visual_scenes>
    <visual_scene id="scene">
      <node id="torso_link">
        <instance_geometry url="#geometry">
          <bind_material>
            <technique_common>
              <instance_material symbol="scout_1a1a1a" target="#scout_1a1a1a" />
            </technique_common>
          </bind_material>
        </instance_geometry>
      </node>
    </visual_scene>
  </library_visual_scenes>
  <scene>
    <instance_visual_scene url="#scene" />
  </scene>
</COLLADA>