<?xml version='1.0' encoding='utf-8'?>
<COLLADA xmlns="http://www.collada.org/2005/11/COLLADASchema" version="1.4.1">
  <asset>
    <created>2026-09-14T00:00:00Z</created>
    <modified>2026-09-14T00:00:00Z</modified>
    <unit name="metre" meter="1" />
    <up_axis>Z_UP</up_axis>
  </asset>
  <library_effects>
    <effect id="scout_1a1a1a_effect">
      <profile_COMMON>
        <technique sid="common">
          <lambert>
            <emission>
              <color>0 0 0 1</color>
            </emission>
            <ambient>
              <color>0.05 0.05 0.05 1</color>
            </ambient>
            <diffuse>
              <color>0.1 0.1 0.1 1</color>
            </diffuse>
          </lambert>
        </technique>
      </profile_COMMON>
    </effect>
  </library_effects>
  <library_materials>
    <material id="scout_1a1a1a" name="scout_1a1a1a">
      <instance_effect url="#scout_1a1a1a_effect" />
    </material>
  </library_materials>
  <library_geometries>
    <geometry id="geometry" name="wrist_yaw_link">
      <mesh>
        <source id="positions">
          <float_array id="positions_array" count="72">0.0627545267 -0.0010068824 -0.012823971 0.0413585901 -0.0109968185 -0.009010843 0.0620934106 -0.0118797394 -0.00273575494 0.0478272848 0.0186634585 -0.0321171246 0.0632965341 0.00758477766 -0.0156124132 0.054823406 -0.00181063893 -0.020159008 0.0564168245 -0.0265243314 0.00115655689 0.0602677763 -0.012248422 0.000531708647 0.0487857126 -0.00937264878 0.0342444554 0.0626717806 -0.017672902 0.00867328793 0.062390428 -0.00996241346 -0.0178586282 0.0625783429 0.0192738865 -0.0020892513 0.0428114496 0.028748082 -0.0203402322 -0.00352675468 0.00110915047 0.0492767729 0.057165809 0.0186498575 0.0162665676 0.0624782518 0.00338033331 0.0196835529 0.0627966002 -0.00935943238 0.0090340171 0.060080722 0.0006309413 0.0121797379 0.0626728162 0.0107484311 0.00733984588 0.0591183789 0.00072381919 -0.0180100165 0.0602215864 0.0188672245 0.000625606626 0.0603577904 0.012241249 -0.000215143024 0.0423631482 0.00768080913 0.0116086947 0.000410024717 -0.0129978135 -0.0528624542</float_array>
          <technique_common>
            <accessor source="#positions_array" count="24" stride="3">
              <param name="X" type="float" />
              <param name="Y" type="float" />
              <param name="Z" type="float" />
            </accessor>
          </technique_common>
        </source>
        <source id="normals">
          <float_array id="normals_array" count="258">-0.250301272 0.763377845 0.595485926 -0.244932264 0.57213974 0.782728732 -0.227007627 0.520233274 0.823301196 0.563469172 -0.264562577 -0.782629669 0.557827532 -0.109399728 -0.822715104 0.559166789 -0.349607885 -0.751735866 0.914517164 -0.232192904 0.331277579 0.969581723 -0.231778741 0.0786762536 0.8628667 -0.482826233 -0.149465173 0.944189906 -0.313497186 -0.101118594 0.773750961 0.499016583 -0.390246004 0.0930806324 0.302043378 0.948739052 -0.726828098 -0.650939167 -0.219086945 -0.747888207 -0.632743657 -0.20074527 -0.579119563 -0.746935546 -0.326661527 0.328275919 0.43855381 0.836603522 0.807748497 -0.267353892 0.525418222 0.964250267 -0.0123102684 0.264707148 0.390740871 0.750945032 -0.532356203 0.249409303 0.891900063 -0.377239019 0.423659027 0.706099093 -0.567395031 -0.461403847 0.872767329 -0.15932253 -0.701636553 0.711597025 -0.0365500152 -0.848350048 -0.0651852861 -0.525407553 -0.860556781 -0.0753214434 -0.503754556 -0.870949209 -0.0843412727 -0.484080642 -0.831313074 -0.0517428592 -0.553390741 0.394158781 0.0799165219 -0.91556114 0.367421865 0.099401176 -0.924727321 -0.800154924 -0.430907428 0.417218059 -0.298058629 0.822964191 0.48362273 -0.758397222 0.0666810423 -0.648372769 -0.117294759 0.993055284 -0.00911513995 -0.215576828 0.975696325 0.039285548 -0.197944582 0.979892969 -0.025054602 -0.126042068 -0.238773987 0.962860525 -0.899506271 -0.229793653 0.371595711 0.935208678 -0.0103541184 -0.353945673 -0.957665026 -0.0555280708 0.282478869 -0.706896424 -0.703037024 0.0776942149 -0.213848338 0.975982845 0.0415491946 0.625869155 0.697887182 0.348197281 0.593633413 -0.552747607 -0.58486712 0.51199472 -0.541861653 -0.666518867 0.529432416 -0.419432074 -0.737413108 0.43669641 -0.156574234 -0.885878503 0.998399794 -0.0524607114 0.0211131927 0.998746514 -0.0481974073 0.0135050025 0.998624325 -0.0498099439 0.0163820479 0.998179376 -0.0547762923 0.0252478551 0.930865765 -0.250501513 0.265965909 0.895842075 0.442904413 0.0360928066 0.783400953 0.618220448 -0.0639248341 0.880259335 0.452617228 0.142411709 0.999613762 -0.0122022396 0.0249683969 -0.973898351 0.22678037 0.00962442439 -0.337505102 -0.934147596 0.116011307 -0.253826737 -0.940921545 0.224139795 -0.249049231 -0.940781355 0.230010673 -0.259022206 0.340623707 0.903815806 -0.878117383 0.407159716 0.251258433 -0.379125983 -0.129067063 -0.916299701 -0.0490778908 -0.891319394 0.450711787 -0.175320953 0.709673643 -0.682367802 0.458315045 0.329818547 0.82532841 0.310964167 0.514215767 0.799301803 0.435221225 0.362307012 0.824206352 -0.445717782 -0.600968122 -0.663455307 0.0938504487 0.986708105 -0.132661939 -0.542084873 0.635773182 -0.549487472 -0.718697906 0.214782283 0.661318302 -0.317916274 -0.789469182 -0.525040567 -0.497160524 -0.721131802 -0.482493877 -0.396316022 -0.76391089 -0.509287477 -0.505191088 -0.779559851 -0.370227516 -0.0932535008 0.968339443 0.231565312 -0.589030862 -0.67081809 -0.450605929 -0.130141124 -0.400534958 -0.906992316 0.532171905 0.214042634 0.819132984 0.46211499 0.645943642 -0.607623696 -0.252610862 0.966324985 0.0490280278 0.849931359 -0.162558764 0.501189888 -0.374720097 -0.14186047 0.916220725 -0.836273491 0.371517926 0.403263092 0.432602495 -0.836784422 0.335629106 0.0976761058 -0.968052566 -0.230940625</float_array>
          <technique_common>
            <accessor source="#normals_array" count="86" stride="3">
              <param name="X" type="float" />
              <param name="Y" type="float" />
              <param name="Z" type="float" />
            </accessor>
          </technique_common>
        </source>
        <vertices id="vertices">
          <input semantic="POSITION" source="#positions" />
        </vertices>
        <triangles material="scout_1a1a1a" count="64">
          <input semantic="VERTEX" source="#vertices" offset="0" />
          <input semantic="NORMAL" source="#normals" offset="1" />
          <p>0 0 1 1 2 2 3 3 4 4 5 5 6 6 7 6 8 6 9 7 6 8 10 9 3 10 11 10 4 10 12 11 0 11 4 11 9 12 8 13 7 14 13 15 8 15 14 15 8 16 9 7 15 17 16 18 7 19 1 20 7 21 16 21 2 21 15 22 17 22 8 22 17 23 16 24 8 25 17 23 18 26 16 24 19 27 4 4 10 28 0 29 12 29 19 29 0 0 19 30 1 1 20 31 11 31 21 31 20 32 14 33 11 34 14 35 22 35 17 35 15 36 14 36 17 36 3 37 20 37 18 37 20 38 21 38 18 38 18 39 21 39 4 39 3 40 14 33 20 32 16 41 22 41 8 41 8 42 22 42 14 42 6 43 23 44 5 5 23 44 3 3 5 5 6 45 1 45 7 45 0 46 2 47 10 48 10 48 4 49 0 46 11 50 14 50 4 50 18 51 4 52 14 53 15 17 18 51 14 53 16 54 18 51 15 17 16 54 15 17 9 7 9 7 10 9 16 54 2 55 16 55 10 55 23 56 6 57 13 58 6 59 2 2 1 1 6 60 9 60 2 60 10 61 1 61 19 61 8 62 13 58 6 57 23 63 12 63 3 63 1 64 10 65 5 66 6 67 5 67 10 67 5 5 4 4 19 27 23 68 13 68 1 68 13 69 22 69 1 69 1 70 12 70 23 70 13 71 12 72 22 73 9 12 7 14 2 74 3 75 22 75 21 75 22 73 12 72 4 76 18 77 17 77 22 77 1 64 5 66 12 78 16 18 1 20 22 79 13 80 14 33 3 40 13 81 3 81 12 81 12 82 5 82 19 82 21 83 11 83 3 83 22 84 4 84 21 84 18 85 22 85 3 85</p>
        </triangles>
      </mesh>
    </geometry>
  </library_geometries>
  <library_visual_scenes>
    <visual_scene id="scene">
      <node id="wrist_yaw_link">
        <instance_geometry url="#geometry">
          <bind_material>
            <technique_common>
              <instance_material symbol="scout_1a1a1a" target="#scout_1a1a1a" />
            </technique_common>
          </bind_material>
        </instance_geometry>
      </node>
    </visual_scene>
  </library_visual_scenes>
  <scene>
    <instance_visual_scene url="#scene" />
  </scene>
</COLLADA>